<svg xmlns="http://www.w3.org/2000/svg" viewBox="0 0 2371.4 1813.79"><defs><style>.cls-1{fill:#ebf2f9;}.cls-2{fill:#2d4770;}.cls-3{fill:#233862;}.cls-4{fill:#e69d43;}.cls-5{fill:#d57912;}.cls-6{fill:#b65615;}.cls-7{fill:#d36e2a;}.cls-8{fill:#f59040;}.cls-9{fill:#dce7f9;}.cls-10{fill:#b64c41;}.cls-11{fill:#fff;}.cls-12{fill:#85b2ef;}.cls-13{fill:#578ddd;}.cls-14{fill:#f99746;}.cls-15{fill:#2b478b;}.cls-16{fill:#ffb27d;}.cls-17{fill:#ed7d2b;}.cls-18{fill:#ed985f;}.cls-19{fill:#a03c37;}.cls-20{fill:#2e5c93;}.cls-21{fill:#d3671e;}.cls-22{fill:#f1a34f;}.cls-23{fill:#e78b37;}.cls-24{fill:#d86713;opacity:0.4;}.cls-25{fill:#ed975d;}.cls-26{fill:#1c4575;}.cls-27{fill:#ff9136;}</style></defs><title>Монтажная область 2 copy 12</title><g id="Layer_9" data-name="Layer 9"><path class="cls-1" d="M1155.88,8.37C563.64,8.37,83.54,488.47,83.54,1080.71c0,275.08,103.59,526,273.88,715.78H1954.35c170.28-189.82,273.87-440.7,273.87-715.78C2228.22,488.47,1748.12,8.37,1155.88,8.37Z"/><polygon class="cls-2" points="1030.87 1414.97 684.04 1414.97 684.04 1708.66 1072.64 1708.66 1030.87 1414.97"/><polygon class="cls-3" points="1015.69 1425.03 622.6 1425.03 622.6 1708.66 1056.45 1708.66 1015.69 1425.03"/><rect class="cls-4" x="846.15" y="1654.46" width="53.45" height="54.2" transform="translate(1745.75 3363.12) rotate(180)"/><rect class="cls-5" x="897.38" y="1654.46" width="32.35" height="54.2" transform="translate(1827.11 3363.12) rotate(180)"/><rect class="cls-4" x="843.31" y="1586.37" width="88.64" height="68.84" transform="translate(1775.26 3241.57) rotate(180)"/><rect class="cls-5" x="929.73" y="1601.75" width="24.47" height="53.45" transform="translate(1883.93 3256.95) rotate(180)"/><rect class="cls-6" x="351.07" y="1674.05" width="124.23" height="55.1" rx="5.04"/><path class="cls-3" d="M790.2,1747.36a49.8,49.8,0,1,1,49.8,49.8A49.79,49.79,0,0,1,790.2,1747.36Z"/><path class="cls-3" d="M957.66,1747.36a49.8,49.8,0,1,1,49.8,49.8A49.8,49.8,0,0,1,957.66,1747.36Z"/><path class="cls-3" d="M368,1747.36a49.8,49.8,0,1,1,49.8,49.8A49.8,49.8,0,0,1,368,1747.36Z"/><path class="cls-7" d="M392.71,1747.36a25.14,25.14,0,1,1,25.13,25.13A25.13,25.13,0,0,1,392.71,1747.36Z"/><path class="cls-8" d="M392.71,1747.36a25.14,25.14,0,1,1,25.13,25.13A25.13,25.13,0,0,1,392.71,1747.36Z"/><path class="cls-7" d="M434.57,1728.6a25.13,25.13,0,0,1-39.66,29.05,25.14,25.14,0,1,0,39.66-29.05Z"/><circle class="cls-6" cx="417.84" cy="1747.36" r="7.79"/><path class="cls-6" d="M401.57,1760.71a3,3,0,1,1,3,3A3,3,0,0,1,401.57,1760.71Z"/><circle class="cls-6" cx="401.06" cy="1738.31" r="3.02"/><path class="cls-6" d="M431.22,1738.31a3,3,0,1,1,3,3A3,3,0,0,1,431.22,1738.31Z"/><path class="cls-6" d="M428.71,1760.71a3,3,0,1,1,3,3A3,3,0,0,1,428.71,1760.71Z"/><path class="cls-6" d="M414.82,1728.15a3,3,0,1,1,3,3A3,3,0,0,1,414.82,1728.15Z"/><path class="cls-7" d="M813.94,1747.36a25.13,25.13,0,1,1,25.13,25.13A25.13,25.13,0,0,1,813.94,1747.36Z"/><path class="cls-7" d="M813.94,1747.36a25.13,25.13,0,1,1,25.13,25.13A25.13,25.13,0,0,1,813.94,1747.36Z"/><circle class="cls-6" cx="839.07" cy="1747.36" r="7.79"/><path class="cls-6" d="M822.79,1760.71a3,3,0,1,1,3,3A3,3,0,0,1,822.79,1760.71Z"/><path class="cls-6" d="M821.66,1738.31a3,3,0,1,1,3,3A3,3,0,0,1,821.66,1738.31Z"/><path class="cls-6" d="M849.94,1760.71a3,3,0,1,1,3,3A3,3,0,0,1,849.94,1760.71Z"/><circle class="cls-6" cx="815.98" cy="1728.15" r="3.02"/><path class="cls-3" d="M509.54,1747.36a49.8,49.8,0,1,1,49.8,49.8A49.79,49.79,0,0,1,509.54,1747.36Z"/><path class="cls-5" d="M417.29,1478.46s27-40.76,58.26-41.1l-2.79,44.1Z"/><path class="cls-4" d="M576.47,1664.67H360.2l18-146.09a47.38,47.38,0,0,1,47-41.58H576.47Z"/><path class="cls-5" d="M450.76,1575.37H390.11l8-57.69A24,24,0,0,1,422,1497h30.68Z"/><path class="cls-9" d="M446.27,1571H406.34a10,10,0,0,1-9.88-11.28l5.3-39.91c1.4-10.55,10-18.39,20.14-18.39h26Z"/><polygon class="cls-2" points="870.64 1708.66 454.65 1708.66 473.21 1414.97 846.06 1414.97 870.64 1708.66"/><polygon class="cls-2" points="854.36 1697.52 469.93 1697.52 487.08 1426.11 831.64 1426.11 850.06 1646.11 854.36 1697.52"/><path class="cls-5" d="M492.17,1664.67h-132c-11.62.77-12.75,6.52-12.75,6.52l-11.28,54.58a3.64,3.64,0,0,0,3.81,3.39h33.18c2.1,0,3.61-1.54,4.5-3.48,0,0,5.11-6.31,8.53-8.57,8.58-5.65,17.89-9.36,31.65-9.36,16.92,0,31.86,5.38,40.86,13.6h33.47c4,0,7.34-2.11,7.34-4.68v-47.32C499.51,1666.78,496.2,1664.67,492.17,1664.67Z"/><path class="cls-2" d="M907.09,1771.81H865.27a38.83,38.83,0,0,0-5.24-13.47c-12.65-20.26-42.21-26.46-59.06-28.35a122.07,122.07,0,0,0-12.32-.83h71.89a52.76,52.76,0,0,1,37.24,22.62A61.31,61.31,0,0,1,907.09,1771.81Z"/><path class="cls-2" d="M1072.64,1771.81h-41.82a38.94,38.94,0,0,0-6.29-15.07c-19.11-27.55-70.33-27.58-70.33-27.58h71.9a52.44,52.44,0,0,1,33.46,17.8A62.14,62.14,0,0,1,1072.64,1771.81Z"/><path class="cls-3" d="M897.78,1751.78s-27.53-5.81-37.75,6.56c-12.65-20.26-42.21-26.46-59.06-28.35l-1-.83h60.58A52.76,52.76,0,0,1,897.78,1751.78Z"/><path class="cls-3" d="M1059.56,1747h0s-23-.51-35,9.78c-19.11-27.55-70.33-27.58-70.33-27.58h71.9A52.44,52.44,0,0,1,1059.56,1747Z"/><rect class="cls-2" x="458.48" y="1708.66" width="624.49" height="28.48" rx="5.6"/><rect class="cls-3" x="484.9" y="1715.81" width="124.23" height="63.09" rx="5.4"/><path class="cls-3" d="M854.86,1697.52H470.43l17.15-271.41h67.14c21,62,92.13,209,295.84,220Z"/><path class="cls-10" d="M364.13,1547.09s-5.4,29.06-5.13,33.8,4.74,7,8.14,7Z"/><rect class="cls-5" x="363.92" y="1544.67" width="20.13" height="43.26" rx="3.49"/><rect class="cls-9" x="366.15" y="1547.09" width="16.37" height="38.74" rx="2.98"/><path class="cls-10" d="M374,1545.46a.74.74,0,0,1-.67-.79v-12.31c0-.07.84-7,8.16-6.8,6.69.21,9.57,0,9.6,0a.73.73,0,0,1,.71.74.76.76,0,0,1-.63.84c-.12,0-3,.21-9.72,0a6.17,6.17,0,0,0-6.78,5.37v12.16A.74.74,0,0,1,374,1545.46Z"/><path class="cls-5" d="M445.14,1594.17H432.9a3.13,3.13,0,0,1-3.12-3.12h0a3.13,3.13,0,0,1,3.12-3.12h12.24a3.13,3.13,0,0,1,3.11,3.12h0A3.13,3.13,0,0,1,445.14,1594.17Z"/><rect class="cls-4" x="934.87" y="1655.2" width="53.45" height="53.45" transform="translate(1923.2 3363.86) rotate(180)"/><rect class="cls-5" x="986.1" y="1655.2" width="24.47" height="53.45" transform="translate(1996.68 3363.86) rotate(180)"/><path class="cls-11" d="M563.39,1545.1a18.21,18.21,0,0,1,6.13.93,11.72,11.72,0,0,1,4.35,2.65,11.54,11.54,0,0,1,2.67,4.16,18.55,18.55,0,0,1,1.13,5.44,69.47,69.47,0,0,1,0,7.07,18.48,18.48,0,0,1-1.13,5.44,11.63,11.63,0,0,1-2.65,4.16,11.42,11.42,0,0,1-4.27,2.65,17.55,17.55,0,0,1-6,.93h-12a1.3,1.3,0,0,1-1.29-1.29v-30.85a1.3,1.3,0,0,1,1.29-1.29Zm7.83,13.18a9.63,9.63,0,0,0-.6-2.84,6.46,6.46,0,0,0-1.48-2.29,6.77,6.77,0,0,0-2.46-1.53,10.07,10.07,0,0,0-3.53-.55h-6.4v21.49h6.64a9.41,9.41,0,0,0,3.39-.55,6.54,6.54,0,0,0,2.38-1.5,6.29,6.29,0,0,0,1.46-2.29,10,10,0,0,0,.6-2.87A64.13,64.13,0,0,0,571.22,1558.28Z"/><path class="cls-11" d="M606.18,1572.56a1.32,1.32,0,0,1,1.29,1.29v3.39a1.32,1.32,0,0,1-1.29,1.29h-21a1.3,1.3,0,0,1-1.29-1.29v-30.85a1.3,1.3,0,0,1,1.29-1.29h20.58a1.25,1.25,0,0,1,.91.38,1.27,1.27,0,0,1,.38.91v3.39a1.27,1.27,0,0,1-.38.91,1.25,1.25,0,0,1-.91.38H590.37v7.59h14.37A1.32,1.32,0,0,1,606,1560v3.39a1.3,1.3,0,0,1-1.29,1.29H590.37v7.93Z"/><path class="cls-11" d="M635.59,1572.56a1.3,1.3,0,0,1,1.29,1.29v3.39a1.3,1.3,0,0,1-1.29,1.29H614.68a1.3,1.3,0,0,1-1.29-1.29v-30.85a1.3,1.3,0,0,1,1.29-1.29h3.86a1.25,1.25,0,0,1,.91.38,1.23,1.23,0,0,1,.38.91v26.17Z"/><path class="cls-11" d="M642.76,1578.53a1.25,1.25,0,0,1-.91-.38,1.23,1.23,0,0,1-.38-.91v-30.85a1.23,1.23,0,0,1,.38-.91,1.25,1.25,0,0,1,.91-.38h3.86a1.25,1.25,0,0,1,.91.38,1.23,1.23,0,0,1,.38.91v30.85a1.23,1.23,0,0,1-.38.91,1.25,1.25,0,0,1-.91.38Z"/><path class="cls-11" d="M667.49,1569.07l8-22.77a2.41,2.41,0,0,1,.5-.79,1.35,1.35,0,0,1,1.07-.41h3.63a1.3,1.3,0,0,1,1.29,1.29v.17a1.19,1.19,0,0,1-.09.31l-10.7,30a3.38,3.38,0,0,1-.67,1.21,1.48,1.48,0,0,1-1.15.41h-3.82a1.45,1.45,0,0,1-1.14-.41,3.23,3.23,0,0,1-.67-1.21l-10.7-30a1.19,1.19,0,0,1-.09-.31v-.17a1.3,1.3,0,0,1,1.28-1.29h3.63a1.37,1.37,0,0,1,1.08.41,2.59,2.59,0,0,1,.5.79Z"/><path class="cls-11" d="M709.33,1572.56a1.32,1.32,0,0,1,1.29,1.29v3.39a1.32,1.32,0,0,1-1.29,1.29h-21a1.32,1.32,0,0,1-1.29-1.29v-30.85a1.32,1.32,0,0,1,1.29-1.29h20.58a1.3,1.3,0,0,1,1.29,1.29v3.39a1.3,1.3,0,0,1-1.29,1.29H693.52v7.59h14.37a1.23,1.23,0,0,1,.91.39,1.19,1.19,0,0,1,.38.9v3.39a1.2,1.2,0,0,1-.38.91,1.22,1.22,0,0,1-.91.38H693.52v7.93Z"/><path class="cls-11" d="M730.15,1545.1c4,0,7,.93,9.07,2.77a9.78,9.78,0,0,1,3.11,7.69,10.75,10.75,0,0,1-1.6,6,9.5,9.5,0,0,1-4.71,3.65l6.59,11.79a1.19,1.19,0,0,1,.15.53,1,1,0,0,1-.31.74,1,1,0,0,1-.74.31h-4.06a1.93,1.93,0,0,1-1.41-.45,3.18,3.18,0,0,1-.65-.84l-6.25-11.12H723v11.12a1.3,1.3,0,0,1-1.28,1.29h-3.87a1.25,1.25,0,0,1-.91-.38,1.23,1.23,0,0,1-.38-.91v-30.85a1.23,1.23,0,0,1,.38-.91,1.25,1.25,0,0,1,.91-.38Zm-7.17,15h6.93a8.56,8.56,0,0,0,4.35-1q1.62-1,1.62-3.63c0-1.78-.54-3-1.62-3.58a8.9,8.9,0,0,0-4.35-.91H723Z"/><path class="cls-11" d="M772.7,1545.1a1.3,1.3,0,0,1,1.29,1.29.88.88,0,0,1-.1.43l-11.31,19.92v10.5a1.32,1.32,0,0,1-1.29,1.29h-3.82a1.3,1.3,0,0,1-1.29-1.29v-10.5l-11.32-19.92a.88.88,0,0,1-.1-.43,1.3,1.3,0,0,1,1.29-1.29h3.58a2,2,0,0,1,1.44.48,2.77,2.77,0,0,1,.57.72l7.74,13.51,7.73-13.51a2.88,2.88,0,0,1,.58-.72,1.91,1.91,0,0,1,1.43-.48Z"/><path class="cls-12" d="M1090.94,888.76A322.18,322.18,0,0,0,887.24,961c-73,59.47-119.47,149.84-119.47,250.92,0,178.44,323.17,575.1,323.17,575.1s146.77-180.2,242.24-352.25c46.46-83.21,80.92-164.65,80.92-222.85C1414.1,1033.51,1269.37,888.76,1090.94,888.76Zm0,470.71c-83.47,0-151.12-67.38-151.12-150.86a151.12,151.12,0,1,1,184,147A139.74,139.74,0,0,1,1090.94,1359.47Z"/><path class="cls-13" d="M1333.18,1434.78c-95.47,172-242.24,352.25-242.24,352.25s-323.17-396.66-323.17-575.1c0-101.08,46.46-191.45,119.47-250.92,12.25,58.45,32.16,125.33,64.07,189.91a150.15,150.15,0,0,0-11.49,57.69c0,83.48,67.65,150.86,151.12,150.86a139.74,139.74,0,0,0,32.93-3.83C1180.28,1394.19,1249.2,1422.52,1333.18,1434.78Z"/><path class="cls-14" d="M2228.51,1451.07a119.31,119.31,0,0,0-119.31,119.31c0,65.89,119.31,212.39,119.31,212.39s119.31-146.5,119.31-212.39A119.31,119.31,0,0,0,2228.51,1451.07Zm0,173.87a55.77,55.77,0,1,1,55.76-55.77A55.77,55.77,0,0,1,2228.51,1624.94Z"/><path class="cls-12" d="M82.93,1600.4a68.35,68.35,0,0,0-68.35,68.35c0,37.75,68.35,121.67,68.35,121.67s68.35-83.92,68.35-121.67A68.35,68.35,0,0,0,82.93,1600.4Zm0,99.6a32,32,0,1,1,31.95-32A32,32,0,0,1,82.93,1700Z"/><path class="cls-15" d="M802.06,1787.29H723.2c.82-2.83,3.48-7.69,12.2-9.11,12.17-2,33.26-9,38-24.61.15-.5.29-1,.41-1.53,3.73-16.64,30.89,5.09,30.89,5.09s.08.67.2,1.8C805.49,1765,807.08,1784.49,802.06,1787.29Z"/><path class="cls-15" d="M738.64,1342.41s4.12,51.46,9,113.33c6.59,84,14.51,187.25,15.3,206.81,1.35,34,6.79,88.26,6.79,88.26s12.9,12.91,38.7,7.47c0,0,23-77.54,29.57-159.57l.3-4.06c6.12-83.51,15.62-259.37,15.62-259.37Z"/><path class="cls-3" d="M738.64,1342.41s4.12,51.46,9,113.33l90.36,143,.3-4.06c6.12-83.51,15.62-259.37,15.62-259.37Z"/><path class="cls-15" d="M757.48,1348.52s74.34,186.38,123.23,274,64.16,112,64.16,112,28-11.2,30.56-18.84c0,0-18.7-169.09-51.44-210.31-18.5-23.3-40.23-93.19-41.24-117.64s-6.62-72.82-6.62-72.82Z"/><path class="cls-16" d="M855.3,1061.3S805,1086,776,1076.8a68.83,68.83,0,0,1,19.63-16c-1-5.91-1.78-11-2.23-15.39a144,144,0,0,1-1.23-15.73l19.41-15.5L830,999.39C828.53,1041.11,855.3,1061.3,855.3,1061.3Z"/><path class="cls-14" d="M881.8,1324.46c.12,3.12-6.46,6.69-9.36,8-21.53,9.59-41.61,16.28-64.36,18.52-26.89,2.79-58.67-3.35-69.6-3.13a4.54,4.54,0,0,1-3-1.22c-.78-.56-1.33-33.47-.78-74.85,0-1.67,0-3.34.11-5v-.55c.23-16.18.79-33.13,1.57-50.08,1.56-37.26,4.46-73.18,9.37-93,5.91-23.42,19.29-38.93,31.45-50.19l10-8.93a47.56,47.56,0,0,0,31.23-3.79c11.6-5.69,24.29-12.07,26.3-10.51,15.17,11.27,25.23,36.83,30.7,69.18a364.68,364.68,0,0,1,4.57,61.35c0,8-.22,16.28-.67,24.43-2.68,44.17,0,82.54,1.56,104.73C881.36,1315.87,881.69,1320.89,881.8,1324.46Z"/><path class="cls-14" d="M880.91,1309.4C637.2,1309.07,836,1127.7,836,1127.7l39.49-8.81a364.68,364.68,0,0,1,4.57,61.35c0,8-.22,16.28-.67,24.43C876.67,1248.84,879.35,1287.21,880.91,1309.4Z"/><rect class="cls-4" x="581.09" y="1156.68" width="151.54" height="151.54" transform="translate(1313.72 2464.9) rotate(180)"/><rect class="cls-5" x="726.32" y="1156.68" width="69.38" height="151.54" transform="translate(1522.02 2464.9) rotate(180)"/><path class="cls-16" d="M709.87,1234.68l-9-2.89s-6.31-20.89-27.65-11.54c0,0-8.67,4.6-4.85,10s3.12,2.58,8.33,10.41,13.47,11.54,20.05,8.58l7.5.22Z"/><path class="cls-17" d="M855.31,1061.25s55.19,87.77-3.6,189.2c-18.36,31.67-157,1.57-157,1.57s-5.41-9.76,9.06-20c0,0,92.29-15.62,103.29-18.24,9.76-2.33,3.25-92,14.41-118S855.31,1061.25,855.31,1061.25Z"/><path class="cls-18" d="M830.31,1015.35s-12.72,23.53-36.92,30.11a144,144,0,0,1-1.23-15.73l19.41-15.5Z"/><path class="cls-16" d="M783.31,1029.05s48,8,52.5-22S849.54,958,819.09,951.6,781,955.78,777,965.41,771,1026.21,783.31,1029.05Z"/><path class="cls-3" d="M835.49,1009.13s-1-40.13-44.69-46.57c-29.95-4.42-27.46-26.11-24-30.08,0,0,38.71.32,62,6.19C863.92,947.53,840.69,1003.16,835.49,1009.13Z"/><path class="cls-15" d="M975.42,1722l-2.32-3-26.43,14.81c-.25,5-.38,10.9-.1,16a44.25,44.25,0,0,1-.63,10.37c-.55,2.63-3.35,13.82-11.54,16.76-9.29,3.33-10,10.47,5.82,10.36l8.28,0a22,22,0,0,0,21-16.28,37.51,37.51,0,0,1,6.42-12.43c4.17-4.87,9.08-9.17,10.66-14.5C989.35,1734.86,975.42,1722,975.42,1722Z"/><polygon class="cls-19" points="1273.83 1531.57 1279.04 1527.32 1209.18 1436.03 1183.97 1434.97 1273.83 1531.57"/><polygon class="cls-19" points="1365.1 1531.57 1369.41 1527.32 1311.62 1436.03 1290.76 1434.97 1365.1 1531.57"/><path class="cls-15" d="M1791.66,1293.63c0-17.33-13.71-31.37-30.63-31.37s-30.64,14-30.64,31.37S1744.11,1325,1761,1325,1791.66,1311,1791.66,1293.63Z"/><path class="cls-15" d="M1403.05,1716.55h311.49a6.19,6.19,0,0,0,6.15-6.2v-29.44a6.19,6.19,0,0,0-6.15-6.2H1439.38a6.2,6.2,0,0,0-6.16,6.2Z"/><path class="cls-3" d="M1400.3,1693.49a93.09,93.09,0,1,0-93.09,93.09A93.09,93.09,0,0,0,1400.3,1693.49Z"/><path class="cls-17" d="M1354.67,1693.49a47.46,47.46,0,1,0-47.46,47.45A47.45,47.45,0,0,0,1354.67,1693.49Z"/><path class="cls-15" d="M1785.7,1562.09a137.83,137.83,0,0,1,177.92,110.8,18,18,0,0,1-17.78,20.6h-.61a11.44,11.44,0,0,1-11.36-10.41,107,107,0,0,0-213.58,10.41H1689.5A138.05,138.05,0,0,1,1785.7,1562.09Z"/><path class="cls-15" d="M1642.86,1674.71l46.64,18.78c32.3-62.81,65.29-93.63,93.5-108.83,50.75-27.36,86.08-4.19,74.18-25.74l-87.06-183.7a80,80,0,0,0-72.32-33,26,26,0,0,0-22.18,34.12c11.4,34.09,15.78,68.35,15.78,100.88C1691.4,1585.55,1642.86,1674.71,1642.86,1674.71Z"/><path class="cls-15" d="M1690.41,1363.52l35.14-13.42c4.78,0,13.9,4.32,13.9-.46l-5.21-85.8a8.72,8.72,0,0,0-8.69-8.7H1702.9c-4.78,0-24,9.17-22.59,26.34l-6,86.49C1674.28,1372.75,1685.63,1363.52,1690.41,1363.52Z"/><path class="cls-15" d="M1092,1406.14h234a12.31,12.31,0,0,1,12.31,12.31v8.45a12.32,12.32,0,0,1-12.32,12.32H1092a12.32,12.32,0,0,1-12.32-12.32v-8.45A12.32,12.32,0,0,1,1092,1406.14Z" transform="translate(2417.97 2845.36) rotate(180)"/><circle class="cls-3" cx="1827.33" cy="1693.49" r="93.09" transform="translate(-68.8 77.4) rotate(-2.38)"/><path class="cls-14" d="M1779.88,1693.49a47.23,47.23,0,0,0,5.47,22.13c.23.43.46.85.71,1.27a47.45,47.45,0,1,0,59.51-67.21l-.55-.22a47.45,47.45,0,0,0-65.14,44Z"/><path class="cls-20" d="M1486.37,1506s-24,95.32,57,183.2L1344,1674.71l25.39-192.38Z"/><path class="cls-15" d="M1119.56,1704.23a12.34,12.34,0,0,0,12.31,12.32H1430.5a12.35,12.35,0,0,0,12.32-12.32l-4-195.32-100.56-6.15C1204.34,1502.76,1119.56,1570.28,1119.56,1704.23Z"/><path class="cls-20" d="M1730.39,1291.85a48.83,48.83,0,0,0,.81,8.86,48.19,48.19,0,0,0,47.37,39.3v-96.33A48.18,48.18,0,0,0,1730.39,1291.85Z"/><path class="cls-15" d="M1654.36,1298.35c.19,0,2.18-.39,2.37-.43l53-14.7c2.1-.41,3.56-3,3.25-5.82s-2.26-4.75-4.37-4.33l-53.12,10.37c-2.1.41-3.78,3.6-4.27,6.36C1650.38,1294.42,1652.48,1298.35,1654.36,1298.35Z"/><path class="cls-20" d="M1782.42,1588.37c-.48,3-1,5.84-1.39,8.61l.41-.19a107,107,0,0,1,152.43,86.29,11.44,11.44,0,0,0,11.36,10.41h.61a18,18,0,0,0,17.78-20.6,138.17,138.17,0,0,0-105.88-113.84l-.56-.13-87.06-183.7a79.72,79.72,0,0,0-30.67-25.58c14.84,25,55.78,104.83,46.25,212.45q-1,11.09-2.7,22.57C1782.81,1585.89,1782.62,1587.13,1782.42,1588.37Z"/><path class="cls-14" d="M1286.39,1467.82v29a9.18,9.18,0,0,0,9.15,9.15h190.83a9.2,9.2,0,0,0,9.16-9.15v-29a9.18,9.18,0,0,0-9.16-9.15H1295.54A9.17,9.17,0,0,0,1286.39,1467.82Z"/><path class="cls-15" d="M1143.21,1716.55H1430.5s17.53-106.37-47.13-142.29c-15.57-8.65-35.13-11.63-56.44-9.55C1259.75,1571.29,1175.16,1628.21,1143.21,1716.55Z"/><path class="cls-15" d="M1731.2,1300.71a48.19,48.19,0,0,0,47.37,39.3v-26.88C1764.42,1313.7,1744,1312.16,1731.2,1300.71Z"/><path class="cls-17" d="M1346.8,1506h139.57a9.2,9.2,0,0,0,9.16-9.15v-29a9.18,9.18,0,0,0-9.16-9.15h-95.62C1382.44,1470.4,1366.82,1490.29,1346.8,1506Z"/><path class="cls-20" d="M1143.21,1716.55h119.32c72-36.55,67.62-124.72,64.4-151.84C1259.75,1571.29,1175.16,1628.21,1143.21,1716.55Z"/><path class="cls-17" d="M1786.06,1716.89a47.45,47.45,0,1,0,59.51-67.21C1841.44,1670.22,1828.16,1708.28,1786.06,1716.89Z"/><path class="cls-20" d="M1782.42,1588.37c-.48,3-1,5.84-1.39,8.61l.41-.19c17.19-15.9,53.51-30,76.3-37.74l-.56-.13-87.06-183.7a79.72,79.72,0,0,0-30.67-25.58c14.84,25,55.78,104.83,46.25,212.45q-1,11.09-2.7,22.57C1782.81,1585.89,1782.62,1587.13,1782.42,1588.37Z"/><rect class="cls-21" x="1170.36" y="1283.5" width="148.73" height="122.63"/><rect class="cls-22" x="1096" y="1283.51" width="148.72" height="122.63"/><polygon class="cls-22" points="1319 1375.04 1295.43 1375.04 1297.51 1368.41 1295.43 1363.67 1319 1363.67 1319 1375.04"/><polygon class="cls-23" points="1095.99 1364.81 1095.99 1406.14 1244.72 1406.14 1244.72 1283.51 1218.37 1283.51 1095.99 1364.81"/><polygon class="cls-24" points="1095.99 1311.01 1119.56 1311.01 1117.48 1304.38 1119.56 1299.64 1095.99 1299.64 1095.99 1311.01"/><polygon class="cls-22" points="1095.99 1386.41 1119.56 1386.41 1117.48 1379.78 1119.56 1375.04 1095.99 1375.04 1095.99 1386.41"/><path class="cls-16" d="M1469.78,1172.37c-25.71,10.44-72.71-11.88-72.71-11.88s15.6-13.81,18.57-40c.16-1.32.27-2.66.35-4l13.29-4.73,22.78,15.51a177.55,177.55,0,0,1-.27,21q-.19,3.49-.55,7.51C1463.06,1161,1469.78,1172.37,1469.78,1172.37Z"/><path class="cls-25" d="M1452.06,1127.26a177.55,177.55,0,0,1-.27,21c-20.72-3.76-32.12-20.5-36.15-27.71.16-1.32.27-2.66.35-4l13.29-4.73Z"/><path class="cls-16" d="M1456.26,1138.37s-44.28-1.44-43-29-3.5-46.31,24.83-46.55,33.31,10.53,35.11,19.84S1467.81,1138,1456.26,1138.37Z"/><path class="cls-15" d="M1415.64,1120.52s-1.73-9.17,3.26-15.22c0,0-3.22-9,.24-11s5.26,5.66,6.78,4.22,8.21-8.24,10.28-17.21,32.76-2.55,36.39-1.46-20.38-43.7-46.29-33.1-27.86,23.92-24.87,34.7S1404.15,1118.3,1415.64,1120.52Z"/><path class="cls-15" d="M1373.28,1383.6s3.07,54.09,15.39,69.5,248.37,9.43,248.37,9.43,1-34.69-8.21-43.6-52.34-34.54-190-49.06Z"/><path class="cls-14" d="M1370.14,1270.38c3.84,46.46-1.23,117.13,3.15,129.37,3.76,10.57,46.69,4.28,63.82.76,6.35-1.31,14-3.17,22-5.37,22.12-6.15,46.24-14.94,48.83-21.46a4.89,4.89,0,0,0,.23-.75,5.15,5.15,0,0,0,0-2.73c-.63-2.47-2.62-5.07-3.77-9.6a28,28,0,0,1-.8-5.56c-.4-8.42-.38-18.2-.67-28.73l-.09-2.91a39.09,39.09,0,0,0-.2-4.05v-.48c0-.25,0-.49,0-.74-.37-13-1.13-26.62-2-40.16q-.42-6.33-.9-12.56c-.11-1.47-.23-2.93-.34-4.37-.23-2.71-.45-5.4-.7-8-1.93-20.81-4.54-39.33-8-51-5.63-19.08-18-31.52-29.33-40.63l-8.17-6.29c-9.11,1.78-19.89.59-29.64-3.54-10.54-4.51-14.18-7.73-16-6.51C1383.11,1161.86,1365.59,1213.57,1370.14,1270.38Z"/><path class="cls-26" d="M1552.11,1640.49s2.09,33.67,8.6,34.16c.87.06,33,.06,33,.06l41.07-.24s-.27-9.9-12.27-12-32.1-10.53-39.38-26.39C1575.52,1619.39,1552.11,1640.49,1552.11,1640.49Z"/><path class="cls-15" d="M1543.52,1642.68s8,6.11,24.12,6.89a64.64,64.64,0,0,0,11.33-.45,53.93,53.93,0,0,0,14.49-3.7l43.58-182.9s-47.21-41.24-71.84-15.6c-3.21,3.35-6,9.15-8.3,16.71C1541.28,1514.06,1543.52,1642.68,1543.52,1642.68Z"/><path class="cls-14" d="M1438.86,1235.06s30.56,111.9,65.47,125.54a28,28,0,0,1-.8-5.56c-.4-8.42-.38-18.2-.67-28.73l-.09-2.91a39.09,39.09,0,0,0-.2-4.05v-.48c0-.25,0-.49,0-.74-.37-13-1.13-26.62-2-40.16q-.42-6.33-.9-12.56C1484.27,1246.84,1463.42,1233.5,1438.86,1235.06Z"/><path class="cls-16" d="M1622.19,1278.17s13.31,1,16.73,0,19.5-10.61,25.32-8.56,20.52,17.11,16.76,24c0,0-6.84.17-13.17-6.33s-13.17-2-12.49-1.19,10.61,4.79,8.9,6.5-14.71,1.36-17.79-.69-26,.51-26,.51Z"/><path class="cls-17" d="M1438.86,1176.05s82.77,70.55,104.55,77.35,98.76,21.77,98.76,21.77,2.12,18.22-5.1,25.06c0,0-98.9-5.73-111.22-8.34s-104.08-50.16-111.56-53.75S1408,1170.23,1438.86,1176.05Z"/><path class="cls-3" d="M1543.52,1642.68s8,6.11,24.12,6.89a64.64,64.64,0,0,0,11.33-.45c-24.86-31.44-22.07-185.49-22.07-185.49C1541.28,1514.06,1543.52,1642.68,1543.52,1642.68Z"/><path class="cls-17" d="M1394.9,1083.27v.42a2.93,2.93,0,0,0,1.29,2.58,1.7,1.7,0,0,0,.81.22h104.93c1.16,0,2.11-1.26,2.11-2.8v-.42c0-1.54-1-2.8-2.11-2.8l-23.43-3c-2.19-17.41-13.75-31.61-29-36.51h0a38.26,38.26,0,0,0-11.75-1.83c-21.53,0-39.17,17.78-41,40.45l-.06.79-.44.33A2.93,2.93,0,0,0,1394.9,1083.27Z"/><path class="cls-14" d="M1430.36,1079.57c-7.82-41.38,18.21-38.72,19.09-38.62a38.26,38.26,0,0,0-11.75-1.83c-21.53,0-39.17,17.78-41,40.45Z"/><path class="cls-27" d="M1328.4,953.16a3.5,3.5,0,0,1-1.81-6.5c.08,0,1.87-1.12,5.3-3a3.5,3.5,0,1,1,3.42,6.11c-3.32,1.85-5.09,2.91-5.11,2.92A3.45,3.45,0,0,1,1328.4,953.16Z"/><path class="cls-27" d="M2229.12,1391.15h0a3.5,3.5,0,0,1-3.48-3.51c0-.73,0-1.48,0-2.26,0-3.18,0-6.47-.12-9.76a3.5,3.5,0,1,1,7-.16c.08,3.34.12,6.68.12,9.92,0,.79,0,1.55,0,2.29A3.49,3.49,0,0,1,2229.12,1391.15Zm-.54-24.23a3.51,3.51,0,0,1-3.5-3.33c-.19-4-.43-8-.72-12a3.5,3.5,0,0,1,7-.51c.29,4.07.54,8.17.74,12.19a3.51,3.51,0,0,1-3.33,3.67Zm-1.75-24.18a3.5,3.5,0,0,1-3.48-3.17c-.38-4-.81-8-1.28-12a3.5,3.5,0,0,1,7-.82c.47,4,.91,8.11,1.29,12.13a3.5,3.5,0,0,1-3.15,3.81Zm-2.83-24.07a3.51,3.51,0,0,1-3.47-3c-.55-4-1.16-8-1.8-11.91a3.5,3.5,0,0,1,6.91-1.12c.65,4,1.26,8,1.83,12a3.51,3.51,0,0,1-3,4Zm-3.89-23.91a3.5,3.5,0,0,1-3.43-2.87c-.73-3.92-1.51-7.89-2.32-11.81a3.5,3.5,0,1,1,6.86-1.42c.82,4,1.61,8,2.34,12a3.51,3.51,0,0,1-2.81,4.08A3.47,3.47,0,0,1,2220.11,1294.76ZM2215.2,1271a3.52,3.52,0,0,1-3.41-2.72c-.89-3.9-1.84-7.83-2.82-11.7a3.5,3.5,0,1,1,6.78-1.71c1,3.91,2,7.9,2.86,11.84a3.5,3.5,0,0,1-2.62,4.2A3.61,3.61,0,0,1,2215.2,1271Zm-5.94-23.48a3.51,3.51,0,0,1-3.37-2.57c-1.07-3.86-2.19-7.75-3.33-11.56a3.5,3.5,0,1,1,6.7-2c1.16,3.86,2.3,7.8,3.38,11.71a3.51,3.51,0,0,1-2.44,4.31A3.43,3.43,0,0,1,2209.26,1247.56Zm-7-23.2A3.5,3.5,0,0,1,2199,1222c-1.24-3.8-2.53-7.63-3.85-11.4a3.5,3.5,0,0,1,6.61-2.32c1.33,3.82,2.64,7.71,3.89,11.55a3.5,3.5,0,0,1-2.24,4.41A3.44,3.44,0,0,1,2202.29,1224.36Zm-8-22.85a3.51,3.51,0,0,1-3.28-2.27c-1.4-3.73-2.87-7.5-4.36-11.21a3.5,3.5,0,0,1,6.5-2.61c1.51,3.75,3,7.57,4.42,11.36a3.5,3.5,0,0,1-3.28,4.73Zm-9-22.46a3.51,3.51,0,0,1-3.21-2.12c-1.59-3.69-3.23-7.38-4.88-11a3.5,3.5,0,0,1,6.37-2.91c1.67,3.65,3.33,7.4,4.94,11.14a3.49,3.49,0,0,1-1.84,4.59A3.35,3.35,0,0,1,2185.25,1179.05Zm-10.07-22a3.51,3.51,0,0,1-3.15-2c-1.74-3.59-3.56-7.2-5.39-10.75a3.5,3.5,0,1,1,6.22-3.21c1.86,3.6,3.7,7.26,5.46,10.89a3.51,3.51,0,0,1-3.14,5Zm-11.11-21.51a3.49,3.49,0,0,1-3.07-1.82c-1.92-3.51-3.91-7-5.9-10.48a3.5,3.5,0,1,1,6.06-3.5c2,3.48,4,7.06,6,10.62a3.5,3.5,0,0,1-3.07,5.18Zm-12.13-21a3.49,3.49,0,0,1-3-1.67c-2.08-3.4-4.23-6.82-6.4-10.17a3.5,3.5,0,0,1,5.88-3.8c2.2,3.4,4.38,6.87,6.49,10.31a3.51,3.51,0,0,1-1.16,4.82A3.56,3.56,0,0,1,2151.94,1114.58Zm-13.14-20.33a3.49,3.49,0,0,1-2.9-1.53c-2.25-3.3-4.57-6.61-6.89-9.84a3.5,3.5,0,0,1,5.69-4.08c2.35,3.27,4.7,6.63,7,10a3.5,3.5,0,0,1-2.89,5.47Zm-14.12-19.65a3.51,3.51,0,0,1-2.8-1.39c-2.4-3.17-4.87-6.36-7.36-9.49a3.5,3.5,0,1,1,5.47-4.36c2.53,3.17,5,6.41,7.48,9.63a3.5,3.5,0,0,1-2.79,5.61Zm-15.08-18.93a3.48,3.48,0,0,1-2.68-1.26c-2.56-3-5.19-6.11-7.83-9.11a3.5,3.5,0,1,1,5.25-4.63c2.68,3,5.35,6.16,7.94,9.25a3.5,3.5,0,0,1-2.68,5.75Zm-16-18.17a3.51,3.51,0,0,1-2.57-1.12c-2.7-2.92-5.48-5.85-8.26-8.72a3.5,3.5,0,0,1,5-4.88c2.82,2.91,5.64,5.89,8.38,8.85a3.49,3.49,0,0,1-2.57,5.87Zm-16.86-17.36a3.48,3.48,0,0,1-2.45-1c-2.83-2.78-5.75-5.58-8.68-8.31a3.5,3.5,0,1,1,4.78-5.11c3,2.77,5.93,5.6,8.8,8.42a3.5,3.5,0,0,1-2.45,6Zm-17.68-16.52a3.48,3.48,0,0,1-2.32-.89c-3-2.66-6-5.31-9.07-7.89a3.5,3.5,0,1,1,4.53-5.33c3.08,2.61,6.17,5.3,9.19,8a3.5,3.5,0,0,1-2.33,6.12ZM2040.63,988a3.47,3.47,0,0,1-2.2-.78c-3.08-2.5-6.26-5-9.43-7.45a3.5,3.5,0,0,1,4.28-5.54c3.22,2.48,6.43,5,9.55,7.55a3.5,3.5,0,0,1-2.2,6.22Zm-19.15-14.79a3.47,3.47,0,0,1-2.07-.68c-3.21-2.36-6.49-4.73-9.76-7a3.5,3.5,0,0,1,4-5.73c3.31,2.33,6.64,4.72,9.89,7.11a3.5,3.5,0,0,1-2.08,6.32Zm-19.8-13.91a3.47,3.47,0,0,1-1.94-.59c-3.31-2.22-6.7-4.44-10.06-6.59a3.5,3.5,0,1,1,3.77-5.9c3.4,2.18,6.83,4.43,10.18,6.67a3.5,3.5,0,0,1-2,6.41Zm-20.38-13a3.53,3.53,0,0,1-1.82-.51c-3.41-2.08-6.89-4.15-10.34-6.15a3.5,3.5,0,0,1,3.52-6.06c3.49,2,7,4.13,10.46,6.23a3.5,3.5,0,0,1-1.82,6.49Zm-637-1.77a3.5,3.5,0,0,1-1.62-6.61c3.49-1.82,7.14-3.68,10.86-5.52a3.5,3.5,0,1,1,3.11,6.27c-3.67,1.82-7.29,3.66-10.74,5.46A3.46,3.46,0,0,1,1344.26,944.45Zm616.11-10.39a3.47,3.47,0,0,1-1.69-.44c-3.51-2-7.07-3.87-10.58-5.72a3.5,3.5,0,0,1,3.26-6.2c3.56,1.88,7.16,3.83,10.71,5.8a3.5,3.5,0,0,1-1.7,6.56Zm-594.4-.38a3.5,3.5,0,0,1-1.5-6.66c3.62-1.71,7.34-3.43,11-5.1a3.5,3.5,0,0,1,2.88,6.38c-3.67,1.66-7.35,3.36-10.94,5.05A3.43,3.43,0,0,1,1366,933.68Zm22.08-10a3.5,3.5,0,0,1-1.39-6.71c3.7-1.6,7.48-3.19,11.21-4.73a3.5,3.5,0,0,1,2.67,6.47c-3.7,1.53-7.44,3.1-11.11,4.69A3.55,3.55,0,0,1,1388.05,923.72Zm550.92-1a3.51,3.51,0,0,1-1.57-.37c-3.59-1.8-7.22-3.57-10.81-5.28a3.5,3.5,0,1,1,3-6.32c3.63,1.73,7.31,3.53,10.94,5.34a3.5,3.5,0,0,1-1.57,6.63Zm-528.53-8.27a3.5,3.5,0,0,1-1.28-6.76c3.78-1.49,7.6-3,11.35-4.37a3.5,3.5,0,0,1,2.47,6.55c-3.73,1.4-7.51,2.86-11.25,4.33A3.48,3.48,0,0,1,1410.44,914.49Zm506.67-2.12a3.52,3.52,0,0,1-1.44-.31c-3.64-1.64-7.35-3.26-11-4.82a3.5,3.5,0,1,1,2.74-6.44c3.71,1.58,7.47,3.22,11.16,4.88a3.5,3.5,0,0,1-1.44,6.69Zm-484-6.41a3.5,3.5,0,0,1-1.18-6.79c3.82-1.38,7.69-2.73,11.48-4a3.5,3.5,0,0,1,2.26,6.62c-3.76,1.28-7.59,2.62-11.38,4A3.5,3.5,0,0,1,1433.11,906Zm461.72-3.05a3.53,3.53,0,0,1-1.3-.25c-3.71-1.49-7.48-2.95-11.21-4.35a3.5,3.5,0,0,1,2.46-6.56c3.78,1.42,7.6,2.9,11.35,4.41a3.5,3.5,0,0,1-1.3,6.75ZM1456,898.13a3.5,3.5,0,0,1-1.08-6.83c3.85-1.25,7.75-2.48,11.6-3.67a3.5,3.5,0,0,1,2,6.7c-3.81,1.17-7.68,2.39-11.49,3.63A3.38,3.38,0,0,1,1456,898.13Zm416.14-3.73a3.68,3.68,0,0,1-1.16-.2c-3.79-1.34-7.63-2.64-11.39-3.87a3.5,3.5,0,1,1,2.18-6.65c3.81,1.25,7.69,2.56,11.53,3.91a3.51,3.51,0,0,1-1.16,6.81Zm-393-3.39a3.5,3.5,0,0,1-1-6.86c3.89-1.13,7.83-2.25,11.7-3.31a3.5,3.5,0,0,1,1.85,6.75c-3.84,1-7.74,2.16-11.6,3.28A3.63,3.63,0,0,1,1479.17,891Zm370-4.15a3.6,3.6,0,0,1-1-.15c-3.8-1.16-7.69-2.29-11.54-3.38a3.5,3.5,0,1,1,1.89-6.74c3.9,1.1,7.84,2.25,11.69,3.42a3.5,3.5,0,0,1-1,6.85Zm-346.64-2.25a3.5,3.5,0,0,1-.87-6.89c3.89-1,7.86-2,11.8-2.94a3.5,3.5,0,1,1,1.64,6.8c-3.9.94-7.84,1.92-11.7,2.92A3.77,3.77,0,0,1,1502.53,884.61Zm323.34-4.29a3.33,3.33,0,0,1-.88-.12c-3.88-1-7.81-2-11.68-2.88a3.5,3.5,0,0,1,1.61-6.81c3.91.92,7.89,1.9,11.82,2.92a3.5,3.5,0,0,1-.87,6.89Zm-299.8-1.38a3.5,3.5,0,0,1-.76-6.91c4-.89,8-1.75,11.89-2.56a3.5,3.5,0,1,1,1.42,6.85c-3.88.81-7.85,1.66-11.78,2.54A3.42,3.42,0,0,1,1526.07,878.94Zm276.24-4.18a3.78,3.78,0,0,1-.74-.07c-3.88-.83-7.85-1.64-11.79-2.39a3.5,3.5,0,0,1,1.32-6.88c4,.77,8,1.58,11.94,2.42a3.5,3.5,0,0,1-.73,6.92ZM1549.78,874a3.5,3.5,0,0,1-.65-6.94c4-.76,8-1.48,12-2.17a3.5,3.5,0,0,1,1.19,6.9c-3.92.68-7.9,1.4-11.85,2.15A3.68,3.68,0,0,1,1549.78,874Zm228.76-3.83a3.81,3.81,0,0,1-.59-.05c-4-.67-8-1.31-11.89-1.89a3.5,3.5,0,0,1,1-6.93c4,.59,8,1.24,12,1.92a3.5,3.5,0,0,1-.58,7Zm-204.9-.29a3.5,3.5,0,0,1-.53-7c4-.62,8.06-1.22,12-1.76a3.5,3.5,0,1,1,1,6.93c-3.93.54-7.95,1.13-11.92,1.75A3.27,3.27,0,0,1,1573.64,869.92Zm180.95-3.27-.45,0c-3.94-.51-8-1-11.94-1.41a3.5,3.5,0,1,1,.74-7c4,.44,8.1.91,12.09,1.42a3.5,3.5,0,0,1-.44,7Zm-157,0a3.5,3.5,0,0,1-.41-7c4-.49,8.1-.94,12.09-1.35a3.5,3.5,0,1,1,.72,7c-4,.41-8,.86-12,1.34Zm24.09-2.47a3.5,3.5,0,0,1-.29-7c4.07-.34,8.15-.65,12.13-.92a3.5,3.5,0,0,1,.46,7c-3.94.26-8,.57-12,.91Zm108.81-.07-.3,0c-4-.34-8-.65-12-.92a3.5,3.5,0,1,1,.47-7c4,.27,8.12.58,12.13.93a3.5,3.5,0,0,1-.3,7Zm-84.66-1.54a3.5,3.5,0,0,1-.16-7c4.06-.19,8.15-.35,12.16-.47a3.5,3.5,0,0,1,.21,7c-4,.11-8,.27-12,.47Zm60.51-.07h-.17c-4-.18-8-.33-12-.44a3.5,3.5,0,1,1,.19-7c4,.11,8.13.26,12.16.45a3.5,3.5,0,0,1-.16,7Zm-36.31-.65a3.5,3.5,0,0,1,0-7q6.06-.06,12.17,0a3.5,3.5,0,0,1,0,7h0q-6,0-12,0Z"/><path class="cls-27" d="M2228.51,1409.1h-.3a3.5,3.5,0,0,1-3.19-3.78s.17-2.07.33-5.84a3.5,3.5,0,0,1,7,.29c-.17,3.94-.35,6-.36,6.14A3.49,3.49,0,0,1,2228.51,1409.1Z"/><path class="cls-27" d="M738.64,1104.09l-.41,0-5.94-.67a3.5,3.5,0,0,1,.77-7l6,.68a3.5,3.5,0,0,1-.4,7Z"/><path class="cls-27" d="M85.42,1557.08l-.46,0a3.51,3.51,0,0,1-3-3.92c.51-3.91,1.09-8,1.73-12a3.5,3.5,0,1,1,6.92,1.08c-.63,4-1.2,8-1.7,11.86A3.51,3.51,0,0,1,85.42,1557.08Zm3.71-23.85a3.18,3.18,0,0,1-.62-.06,3.5,3.5,0,0,1-2.83-4.06c.7-3.93,1.47-7.94,2.27-11.91a3.5,3.5,0,1,1,6.86,1.38c-.79,3.92-1.54,7.88-2.24,11.77A3.5,3.5,0,0,1,89.13,1533.23Zm4.75-23.63a3.27,3.27,0,0,1-.76-.08,3.5,3.5,0,0,1-2.66-4.18c.87-3.9,1.8-7.87,2.75-11.79a3.5,3.5,0,1,1,6.8,1.65c-.94,3.89-1.86,7.81-2.72,11.66A3.48,3.48,0,0,1,93.88,1509.6Zm5.7-23.39a3.54,3.54,0,0,1-.9-.12,3.5,3.5,0,0,1-2.48-4.28c1-3.88,2.11-7.81,3.21-11.67a3.5,3.5,0,1,1,6.73,1.92c-1.09,3.82-2.16,7.7-3.18,11.54A3.5,3.5,0,0,1,99.58,1486.21Zm6.62-23.15a3.31,3.31,0,0,1-1-.16,3.49,3.49,0,0,1-2.32-4.37c1.18-3.84,2.41-7.73,3.67-11.53a3.5,3.5,0,1,1,6.65,2.18c-1.24,3.77-2.46,7.6-3.63,11.41A3.5,3.5,0,0,1,106.2,1463.06Zm7.51-22.87a3.66,3.66,0,0,1-1.16-.19,3.5,3.5,0,0,1-2.14-4.46c1.33-3.79,2.71-7.62,4.12-11.38a3.5,3.5,0,1,1,6.56,2.45c-1.39,3.71-2.76,7.5-4.08,11.24A3.49,3.49,0,0,1,113.71,1440.19Zm8.42-22.54a3.43,3.43,0,0,1-1.29-.24,3.5,3.5,0,0,1-2-4.55c1.48-3.73,3-7.5,4.57-11.2a3.5,3.5,0,0,1,6.46,2.71c-1.54,3.66-3.06,7.38-4.53,11.07A3.48,3.48,0,0,1,122.13,1417.65Zm9.33-22.17a3.51,3.51,0,0,1-3.2-4.93c1.64-3.68,3.34-7.38,5-11a3.5,3.5,0,0,1,6.33,3c-1.68,3.58-3.35,7.23-5,10.87A3.51,3.51,0,0,1,131.46,1395.48Zm10.25-21.76a3.51,3.51,0,0,1-3.14-5.06c1.8-3.62,3.65-7.24,5.51-10.78a3.5,3.5,0,0,1,6.2,3.25c-1.83,3.5-3.66,7.08-5.44,10.64A3.5,3.5,0,0,1,141.71,1373.72Zm11.17-21.3a3.47,3.47,0,0,1-1.69-.44,3.51,3.51,0,0,1-1.37-4.76c2-3.53,4-7.07,6-10.52a3.5,3.5,0,1,1,6,3.53c-2,3.4-4,6.89-5.9,10.38A3.5,3.5,0,0,1,152.88,1352.42ZM165,1331.65a3.5,3.5,0,0,1-3-5.33c2.12-3.45,4.29-6.89,6.45-10.24a3.5,3.5,0,1,1,5.88,3.8c-2.14,3.3-4.28,6.7-6.37,10.1A3.49,3.49,0,0,1,165,1331.65Zm13.06-20.19a3.5,3.5,0,0,1-2.89-5.47c2.28-3.35,4.61-6.68,6.93-9.93a3.5,3.5,0,0,1,5.69,4.08c-2.29,3.2-4.59,6.49-6.84,9.79A3.5,3.5,0,0,1,178.06,1311.46Zm14-19.54a3.46,3.46,0,0,1-2.1-.71,3.5,3.5,0,0,1-.69-4.9c2.42-3.21,4.91-6.43,7.41-9.57a3.5,3.5,0,1,1,5.48,4.35c-2.46,3.1-4.92,6.27-7.3,9.44A3.51,3.51,0,0,1,192.06,1291.92ZM207,1273.09a3.5,3.5,0,0,1-2.69-5.74c2.57-3.08,5.22-6.17,7.88-9.2a3.5,3.5,0,0,1,5.26,4.62c-2.62,3-5.23,6-7.76,9.06A3.51,3.51,0,0,1,207,1273.09Zm15.87-18a3.5,3.5,0,0,1-2.57-5.88c2.74-3,5.54-5.91,8.33-8.78a3.5,3.5,0,1,1,5,4.88c-2.75,2.83-5.52,5.74-8.21,8.65A3.48,3.48,0,0,1,222.88,1255Zm16.77-17.22a3.49,3.49,0,0,1-2.44-6c2.88-2.82,5.84-5.62,8.78-8.34a3.5,3.5,0,0,1,4.75,5.14c-2.89,2.68-5.8,5.44-8.65,8.21A3.49,3.49,0,0,1,239.65,1237.82Zm17.64-16.31a3.5,3.5,0,0,1-2.3-6.13c3-2.65,6.11-5.29,9.2-7.87a3.5,3.5,0,0,1,4.48,5.38c-3.05,2.54-6.1,5.15-9.07,7.75A3.5,3.5,0,0,1,257.29,1221.51Zm18.48-15.37a3.5,3.5,0,0,1-2.17-6.25c3.16-2.48,6.39-5,9.61-7.36a3.5,3.5,0,1,1,4.18,5.61c-3.16,2.36-6.35,4.8-9.46,7.25A3.44,3.44,0,0,1,275.77,1206.14ZM295,1191.78a3.5,3.5,0,0,1-2-6.36c3.28-2.32,6.64-4.63,10-6.85a3.5,3.5,0,0,1,3.88,5.82c-3.28,2.19-6.59,4.46-9.83,6.74A3.42,3.42,0,0,1,295,1191.78Zm20-13.34a3.5,3.5,0,0,1-1.87-6.46c3.37-2.12,6.84-4.25,10.33-6.32a3.5,3.5,0,0,1,3.57,6c-3.43,2-6.85,4.13-10.16,6.22A3.46,3.46,0,0,1,315,1178.44Zm20.65-12.28a3.5,3.5,0,0,1-1.71-6.55c3.49-2,7.07-3.9,10.63-5.78a3.5,3.5,0,1,1,3.27,6.19c-3.51,1.85-7,3.77-10.48,5.7A3.51,3.51,0,0,1,335.66,1166.16Zm21.25-11.2a3.5,3.5,0,0,1-1.56-6.64c3.58-1.77,7.25-3.53,10.91-5.24a3.5,3.5,0,1,1,2.95,6.35c-3.61,1.68-7.23,3.42-10.75,5.16A3.46,3.46,0,0,1,356.91,1155Zm21.78-10.13a3.5,3.5,0,0,1-1.4-6.71c3.68-1.61,7.43-3.19,11.15-4.7a3.5,3.5,0,1,1,2.64,6.48c-3.67,1.49-7.36,3-11,4.63A3.49,3.49,0,0,1,378.69,1144.83Zm22.25-9.07a3.5,3.5,0,0,1-1.25-6.77c3.73-1.42,7.55-2.82,11.36-4.16a3.49,3.49,0,0,1,2.33,6.59c-3.75,1.33-7.52,2.71-11.2,4.11A3.4,3.4,0,0,1,400.94,1135.76Zm22.64-8a3.5,3.5,0,0,1-1.09-6.83c3.83-1.25,7.71-2.48,11.53-3.64a3.5,3.5,0,1,1,2,6.7c-3.77,1.15-7.6,2.36-11.38,3.59A3.46,3.46,0,0,1,423.58,1127.75Zm23-7a3.5,3.5,0,0,1-.94-6.87c3.85-1.08,7.78-2.14,11.68-3.14a3.5,3.5,0,1,1,1.74,6.78c-3.85,1-7.73,2-11.53,3.1A3.82,3.82,0,0,1,446.56,1120.77Zm23.27-6a3.5,3.5,0,0,1-.8-6.91c3.89-.91,7.86-1.8,11.79-2.65a3.5,3.5,0,1,1,1.46,6.85c-3.88.83-7.8,1.71-11.65,2.61A3.19,3.19,0,0,1,469.83,1114.78Zm23.49-5a3.5,3.5,0,0,1-.66-6.94c3.92-.75,7.92-1.49,11.88-2.17a3.5,3.5,0,1,1,1.2,6.9c-3.92.67-7.87,1.4-11.75,2.15A3.88,3.88,0,0,1,493.32,1109.75Zm23.67-4.1a3.5,3.5,0,0,1-.53-7c3.95-.61,8-1.19,11.95-1.73a3.5,3.5,0,1,1,.94,6.94c-3.94.53-7.92,1.11-11.82,1.71A4.9,4.9,0,0,1,517,1105.65Zm23.81-3.22a3.5,3.5,0,0,1-.41-7c4-.46,8-.9,12-1.3a3.5,3.5,0,1,1,.69,7c-4,.4-8,.83-11.88,1.29Zm179.93-.27a2,2,0,0,1-.35,0c-4-.39-8-.76-11.93-1.1a3.5,3.5,0,0,1,.61-7c3.93.34,8,.72,12,1.12a3.5,3.5,0,0,1-.33,7Zm-24-2.08h-.26c-3.94-.3-8-.57-12-.82a3.5,3.5,0,1,1,.44-7c4,.25,8.07.53,12,.83a3.5,3.5,0,0,1-.26,7Zm-132.07,0a3.5,3.5,0,0,1-.28-7c4-.32,8-.63,12-.89a3.5,3.5,0,0,1,.46,7c-4,.27-8,.57-11.92.89Zm108.08-1.46h-.18c-4-.19-8-.37-12-.51a3.5,3.5,0,0,1,.25-7c4,.15,8.06.32,12.06.52a3.5,3.5,0,0,1-.17,7Zm-84.1-.13a3.5,3.5,0,0,1-.17-7c4-.2,8.06-.37,12-.51a3.52,3.52,0,0,1,3.62,3.38,3.48,3.48,0,0,1-3.37,3.61c-4,.14-8,.31-11.95.51Zm60.07-.75h-.08c-4-.1-8-.16-12-.2a3.5,3.5,0,0,1,.07-7c4,0,8,.11,12.07.2a3.5,3.5,0,0,1-.08,7Zm-36.06-.08a3.5,3.5,0,0,1-.07-7c4-.08,8-.13,12.07-.15h0a3.5,3.5,0,0,1,0,7c-4,0-8,.07-12,.15Z"/><path class="cls-27" d="M83.56,1574.93h-.21a3.51,3.51,0,0,1-3.29-3.7c0-.09.13-2.19.51-6.11a3.5,3.5,0,0,1,7,.68c-.37,3.76-.49,5.82-.49,5.84A3.5,3.5,0,0,1,83.56,1574.93Z"/><path class="cls-14" d="M1287,782.23a167.43,167.43,0,1,1-167.44-167.42A167.44,167.44,0,0,1,1287,782.23Z"/><path class="cls-11" d="M1033.89,738.36c-4.43,2.75-3.2,13.87,2.49,30.3a298.66,298.66,0,0,0,11.71,28.25c2.22,6.12,17.41,32.58,30.92,55.58l24.48-20.33q10.11-8.56,20.57-17.45c53.82-46.33,90.85-91.55,82.72-101s-58.35,20.45-112.17,66.79l-3.25,2.81-1.61,1.4-.36.31h0a.46.46,0,0,1,0,.16,2.86,2.86,0,0,1-.24,1c-1-.3.73,4.37-9.19-9a296.19,296.19,0,0,0-20.08-23.06C1047.75,741.66,1038.34,735.61,1033.89,738.36Z"/></g></svg>