<svg xmlns="http://www.w3.org/2000/svg" viewBox="0 0 2167.15 1894.06"><defs><style>.cls-1{fill:#ebf2f9;}.cls-2,.cls-7{fill:#78acea;}.cls-3{fill:#afcdfb;}.cls-4{fill:#5e92dd;opacity:0.4;}.cls-5{fill:#95c0f4;}.cls-6{fill:#8cbaf1;}.cls-7{opacity:0.9;}.cls-8{fill:#ffb27d;}.cls-9{fill:#233862;}.cls-10,.cls-19{fill:#f99746;}.cls-11{fill:#ed7d2b;}.cls-12{fill:#2a4e96;}.cls-13{fill:#ed985f;}.cls-14{fill:#2c3a64;}.cls-15{fill:#d2e3fc;}.cls-16{fill:#b7d3f3;}.cls-17{fill:#2b454e;}.cls-18{fill:#c36358;}.cls-19,.cls-24{opacity:0.1;}.cls-20{fill:#1a2e35;}.cls-21,.cls-22{fill:#ef873a;}.cls-22{opacity:0.2;}.cls-23{fill:#ffc800;}.cls-25{opacity:0.32;}.cls-26{fill:#fff;}.cls-27{fill:#a8a8a8;}</style></defs><title>Монтажная область 2 copy 14</title><g id="Layer_8" data-name="Layer 8"><path class="cls-1" d="M1084.45,0C492.21,0,12.11,480.1,12.11,1072.34c0,275.08,103.59,526,273.87,715.78H1882.91c170.29-189.82,273.88-440.7,273.88-715.78C2156.79,480.1,1676.68,0,1084.45,0Z"/></g><g id="Layer_9" data-name="Layer 9"><rect class="cls-2" x="1301.53" y="588.48" width="632.24" height="1199.64" rx="32.35"/><path class="cls-3" d="M1967.18,620.84V1755.77a32.45,32.45,0,0,1-32.35,32.35H1367.29a32.44,32.44,0,0,1-32.34-32.35V620.84a32.44,32.44,0,0,1,32.34-32.36h567.54A32.45,32.45,0,0,1,1967.18,620.84Z"/><path class="cls-4" d="M1743.72,633.89H1579.37a6.42,6.42,0,0,1-6.4-6.39h0a6.42,6.42,0,0,1,6.4-6.4h164.35a6.42,6.42,0,0,1,6.39,6.4h0A6.41,6.41,0,0,1,1743.72,633.89Z"/><path class="cls-4" d="M1550.18,633.89h0a6.42,6.42,0,0,1-6.4-6.39h0a6.42,6.42,0,0,1,6.4-6.4h0a6.42,6.42,0,0,1,6.39,6.4h0A6.41,6.41,0,0,1,1550.18,633.89Z"/><path class="cls-5" d="M1700.14,1721.83a41.26,41.26,0,1,1-41.25-41.23A41.13,41.13,0,0,1,1700.14,1721.83Z"/><rect class="cls-5" x="1372.8" y="662.38" width="560.65" height="997.94"/><path class="cls-6" d="M1688.18,1750.87a41.24,41.24,0,1,1-51.4-63.85C1640.83,1704.58,1652.81,1734,1688.18,1750.87Z"/><path class="cls-7" d="M1925.38,781.69H1403.62c-4.43,0-8.06,4.7-8.06,10.45v333.58c0,5.74,3.63,10.44,8.06,10.44h521.76c4.44,0,8.07-4.7,8.07-10.44V792.14C1933.45,786.39,1929.82,781.69,1925.38,781.69Z"/><path class="cls-7" d="M1730.72,1187H1323.94c-3.45,0-6.28,4.7-6.28,10.45V1531c0,5.74,2.83,10.44,6.28,10.44h406.78c3.46,0,6.29-4.7,6.29-10.44V1197.4C1737,1191.65,1734.18,1187,1730.72,1187Z"/><path class="cls-5" d="M231.73,1787.21a6.23,6.23,0,0,0,6.17-5.06l30.24-171.42,43.5-246.54,12.17-68.94-31-.89-5.37,40L249.7,1615.63l-22.38,166.7A4.37,4.37,0,0,0,231.73,1787.21Z"/><path class="cls-2" d="M287.45,1334.38c20.07,8.86,24.19,29.81,24.19,29.81l12.17-68.94-31-.89Z"/><path class="cls-5" d="M1002.4,1787.21a6.23,6.23,0,0,1-6.17-5.06L966,1610.73l-43.5-246.54-12.17-68.94,31-.89,5.37,40,37.75,281.25,22.38,166.7A4.37,4.37,0,0,1,1002.4,1787.21Z"/><path class="cls-2" d="M946.68,1334.38c-20.07,8.86-24.19,29.81-24.19,29.81l-12.17-68.94,31-.89Z"/><rect class="cls-2" x="192.16" y="1268.18" width="831.26" height="54.13" rx="18.9" transform="translate(1215.57 2590.49) rotate(180)"/><path class="cls-8" d="M1594.08,903.36s11.08-35.74,17.37-39.58S1644,847,1645.53,850.5s-14.17,20.47-17.66,26.13-5.24,11.26-2.8,8.81,15.73-10.63,17.12-8.81-6.63,8.81-10.48,14.4-8,15-21.66,17.12S1594.08,903.36,1594.08,903.36Z"/><path class="cls-8" d="M1190.3,1204.25s3.32,32.28,7,38.39,19.15,25.62,25.76,29.45-4-25.71-2.69-31.46,5.44,10.49,8.35,10.87,2.16-14.23,2.27-19.55-14.17-18.45-19.21-29.77S1190.3,1204.25,1190.3,1204.25Z"/><path class="cls-9" d="M1291.53,873s26.84,131.75,174.55,174.79c46.11,13.44,150.86-138.36,150.86-138.36s-3.68-14-26.75-10.78c0,0-102,67.52-114.84,74.86-11.39,6.5-86.32-83.67-120.48-98.22S1291.53,873,1291.53,873Z"/><path class="cls-9" d="M1115.18,1701.22s-18.32,16.72-14.75,28.6,20.12,19.81,22.35,34.33,11.17,22.44,19.22,22.44h38.35s5.92-10.21-8.38-13.3-19.69-20.14-18.8-36-1.34-37-1.34-37l-30.39-7Z"/><path class="cls-9" d="M1340,1744.47s-3.29,38.06,4.76,42l103-.21s0-11.88-16.54-14.52-45.58-12.33-50.5-33.89S1340,1744.47,1340,1744.47Z"/><path class="cls-10" d="M1426.91,1206.87s-5.43,66.71-11.81,146.9c-8.67,108.94-19.11,242.74-20.14,268.09-1.78,44-8.94,114.42-8.94,114.42s-17,16.73-51,9.68c0,0-30.28-100.51-38.93-206.85-.13-1.75-.26-3.5-.4-5.26-8-108.26-20.55-336.22-20.55-336.22Z"/><path class="cls-11" d="M1426.91,1206.87s-5.43,66.71-11.81,146.9l-119,185.34c-.13-1.75-.26-3.5-.4-5.26-8-108.26-20.55-336.22-20.55-336.22Z"/><path class="cls-10" d="M1402.11,1214.8s-97.87,241.6-162.23,355.14-84.47,145.22-84.47,145.22-36.88-14.52-40.23-24.42c0,0,24.61-219.2,67.71-272.63,24.36-30.19,53-120.8,54.31-152.49s8.71-94.39,8.71-94.39Z"/><path class="cls-8" d="M1273.33,842.47s66.23,31.95,104.41,20.1a90.09,90.09,0,0,0-25.84-20.68c1.32-7.66,2.34-14.31,2.93-19.95a183.91,183.91,0,0,0,1.62-20.39l-25.55-20.1-24.23-19.23C1308.58,816.3,1273.33,842.47,1273.33,842.47Z"/><path class="cls-12" d="M1238.44,1183.6c-.15,4.06,8.51,8.68,12.33,10.41,28.34,12.44,54.77,21.11,84.73,24,35.39,3.62,77.24-4.34,91.63-4a5.94,5.94,0,0,0,4-1.6c1-.72,1.76-43.37,1-97,0-2.16,0-4.33-.15-6.5v-.72c-.29-21-1-42.94-2-64.93-2.06-48.29-5.88-94.85-12.34-120.58-7.78-30.36-25.41-50.46-41.41-65.07L1363,846c-13.22,2.6-27.17,1.87-41.12-4.92-15.27-7.37-31.72-15.32-34.36-13.3-20,14.6-33.48,47.42-40.68,89.36,0,.21-.07.41-.1.62a466.35,466.35,0,0,0-5.92,78.89c0,10.42.3,21.12.88,31.67,2.95,47.82,1,90.39-1,119.88-.38,5.83-.77,11.14-1.1,15.89C1239,1172.47,1238.58,1179,1238.44,1183.6Z"/><path class="cls-9" d="M1240.71,1148.19c109.78-126.75,41.68-218.86,41.68-218.86l-35.69-11.58a466.35,466.35,0,0,0-5.92,78.89c0,10.42.3,21.12.88,31.67C1244.61,1076.13,1242.64,1118.7,1240.71,1148.19Z"/><path class="cls-13" d="M1306.23,782.9s16.74,30.51,48.6,39a183.91,183.91,0,0,0,1.62-20.39l-25.55-20.1Z"/><path class="cls-8" d="M1368.1,800.67S1304.92,811,1299,772.16s-18.08-63.66,22-71.9,50.2,5.42,55.38,17.91S1384.38,797,1368.1,800.67Z"/><path class="cls-14" d="M1276,695.61c-.58-.66-1.9-1.19-4.84-1.35a12,12,0,0,1,5.5-1.55c.61-4.09,2.79-11.34,9.84-13.1a8.82,8.82,0,0,0-4.28,6.37c8.15-8.38,25.64-14.48,74.06-10.66,63.81,5,42.78,45.9,34.52,50.77s-29.06-8.48-44.45-7.26-18.32,23.46-23.54,26.51-3.17-2.34-10.23-5.54-7.74,8.52-5.7,16.13-7.66,17.65-7.66,17.65L1289.44,763c-9.81-10.56-19.06-55.31-14.6-64.84C1275.24,697.32,1275.63,696.47,1276,695.61Z"/><path class="cls-12" d="M1287.51,827.45s-40,18.93-59.14,48c-29.73,45.13-64.19,209.64-64.83,224.87s25.16,122.78,25.16,122.78,26.15-1.72,32.9-14.92c0,0-5.23-110.5-1.92-117.61s109-148.22,97.15-178.34S1287.51,827.45,1287.51,827.45Z"/><path class="cls-15" d="M1063.53,870.82H895.06a40.36,40.36,0,0,0-40.24,40.25V974.8a40,40,0,0,0,10,26.47l-10,45.76,57.72-32h151a40.37,40.37,0,0,0,40.25-40.25V911.07A40.37,40.37,0,0,0,1063.53,870.82Z"/><path class="cls-16" d="M1066.71,919.38H892.05a6.55,6.55,0,0,1-6.54-6.53h0a6.56,6.56,0,0,1,6.54-6.54h174.66a6.55,6.55,0,0,1,6.53,6.54h0A6.55,6.55,0,0,1,1066.71,919.38Z"/><path class="cls-16" d="M1066.71,948H892.05a6.56,6.56,0,0,1-6.54-6.54h0a6.55,6.55,0,0,1,6.54-6.53h174.66a6.55,6.55,0,0,1,6.53,6.53h0A6.55,6.55,0,0,1,1066.71,948Z"/><path class="cls-16" d="M1066.71,975.52H892.05a6.55,6.55,0,0,1-6.54-6.53h0a6.56,6.56,0,0,1,6.54-6.54h174.66a6.55,6.55,0,0,1,6.53,6.54h0A6.55,6.55,0,0,1,1066.71,975.52Z"/><path class="cls-9" d="M764.46,1790c-7,2.27-207.59-.33-215.15-5.29-2.91-1.83-4.24-31.07-4.82-66.45,0-.37,0-.74,0-1.11-.14-7.29-.23-14.8-.24-22.41,0-1,0-2.1,0-3.14l9.73-104,134.16,1.34L674.85,1692l-.16,4.08-.81,21.33-.07,2.2s76.32,35.33,84.07,41.65S771.5,1787.76,764.46,1790Z"/><path class="cls-9" d="M764.46,1790c-7,2.27-207.59-.33-215.15-5.29-2.91-1.83-4.24-31.07-4.82-66.45,0-.37,0-.74,0-1.11-.14-7.29-.23-14.8-.24-22.41,0-1,0-2.1,0-3.14l130.65.37-.16,4.08-.81,21.33-.07,2.2s76.32,35.33,84.07,41.65S771.5,1787.76,764.46,1790Z"/><path class="cls-9" d="M764.48,1790c-3.62,1.17-58.11,1-111.37,0-10.71-.21-21.35-.46-31.51-.73-38-1-69.36-2.61-72.28-4.51s-4.2-30.25-4.78-65c0-.49,0-1,0-1.47s0-.77,0-1.14h.15l129.25.25-.06,2.21s76.33,35.31,84.06,41.63S771.5,1787.74,764.48,1790Z"/><path class="cls-9" d="M762.29,1782.19c-33.8-1.27-170.23-3.19-203.73-1.88-.27,0-.27.2,0,.21,33.47,2,169.91,2.81,203.72,2.23C763,1782.73,763,1782.22,762.29,1782.19Z"/><path class="cls-9" d="M688.28,1717.94c-13.27-2.66-29.57-.83-39.85,8.52-.4.36.12.92.55.79a186.74,186.74,0,0,1,39.23-7.63A.85.85,0,0,0,688.28,1717.94Z"/><path class="cls-9" d="M697.81,1723.85c-13.27-2.66-29.57-.83-39.86,8.52-.4.36.12.92.56.79a187.41,187.41,0,0,1,39.22-7.63A.85.85,0,0,0,697.81,1723.85Z"/><path class="cls-9" d="M707.34,1729.76c-13.27-2.66-29.57-.83-39.86,8.52-.4.36.12.92.55.79a187.38,187.38,0,0,1,39.23-7.63A.85.85,0,0,0,707.34,1729.76Z"/><path class="cls-9" d="M653.11,1790c-10.71-.21-21.35-.46-31.51-.73-38-1-69.36-2.61-72.28-4.51s-4.2-30.25-4.78-65c0-.49,0-1,0-1.47s0-.77,0-1.14h.15C562.33,1729.55,624.73,1771.09,653.11,1790Z"/><path class="cls-12" d="M683.22,1717.83H538.79s29.08-337.35,28-343.24c-1.45-7.55-10-41.69-21.33-86.3-3.55-14-7.39-28.93-11.38-44.45-10.77-42-22.64-87.84-33-127.75-15.52-59.8-27.64-106.24-27.64-106.24H595.82s14.27,45.22,32.24,104.06c29.3,95.63,68.45,227.24,72.31,259.24C706.63,1424.81,683.22,1717.83,683.22,1717.83Z"/><path class="cls-17" d="M676.29,1693.18c-22.06-.46-15.72-.64-37.79-.85-10.79-.1-81.74-.72-91.82,1a.23.23,0,0,0,0,.45c10.08,1.67,81,1,91.82,1,22.07-.21,15.73-.39,37.79-.85A.33.33,0,0,0,676.29,1693.18Z"/><path class="cls-17" d="M593.38,1354c-4.74-20.88-11.82-41.34-18-61.83q-18.78-62.48-37.78-124.86-9.48-31.2-19-62.38-4.85-15.74-9.74-31.47c-3.22-10.25-6.87-20.41-9.77-30.75-1.18-4.21-1.83-1.9-.32,3.44,3.05,10.78,6.05,21.56,9.2,32.31q9.33,31.92,18.78,63.81,18.78,63.46,37.89,126.85,9.54,31.79,19.12,63.56c3,10.13,6,20.31,7.81,30.75a141.94,141.94,0,0,1,1.27,32.89c-1.38,22.1-3.94,44.17-6,66.21s-4.08,44.19-6.13,66.28q-6.11,66-12.1,131.91c-.5,5.58-1,11.15-1.42,16.73-.14,1.87,2.68,1.73,2.88-.07,4.75-43.48,8.4-87.09,12.49-130.64q6.09-65,12.17-130c1-10.88,2.17-21.78,2.18-32.72A135.11,135.11,0,0,0,593.38,1354Z"/><path class="cls-17" d="M581.38,1009.85c-8.49,65.74-24.69,189-36.5,278.44-27.62-108.36-72-278.44-72-278.44Z"/><path class="cls-9" d="M611.45,1791.93c-7,2.3-207.58.43-215.17-4.5-2.91-1.82-4.35-31.06-5.06-66.44,0-.37,0-.74,0-1.11-.17-7.29-.29-14.8-.33-22.41,0-1,0-2.09-.05-3.13-.46-51.07,3.22-104,3.22-104l131.09.86-3.66,103.07-.14,4.09-.73,21.33-.07,2.2s76.45,35.05,84.22,41.35S618.48,1789.66,611.45,1791.93Z"/><path class="cls-9" d="M611.45,1791.93c-7,2.3-207.58.43-215.17-4.5-2.91-1.82-4.35-31.06-5.06-66.44,0-.37,0-.74,0-1.11-.17-7.29-.29-14.8-.33-22.41,0-1,0-2.09-.05-3.13l130.65-.12-.14,4.09-.73,21.33-.07,2.2s76.45,35.05,84.22,41.35S618.48,1789.66,611.45,1791.93Z"/><path class="cls-9" d="M611.45,1791.93c-7,2.3-207.58.43-215.17-4.5-2.91-1.82-4.35-31.06-5.06-66.44,0-.37,0-.74,0-1.11l129.4-.24-.07,2.2s76.45,35.05,84.22,41.35S618.48,1789.66,611.45,1791.93Z"/><path class="cls-9" d="M609.25,1784.13c-33.8-1.14-170.23-2.57-203.73-1.14-.27,0-.28.2,0,.22,33.47,1.86,169.92,2.19,203.73,1.48C610,1784.67,610,1784.16,609.25,1784.13Z"/><path class="cls-9" d="M535,1720.15c-13.28-2.61-29.57-.72-39.82,8.66-.4.37.12.93.55.8a186.73,186.73,0,0,1,39.2-7.78A.85.85,0,0,0,535,1720.15Z"/><path class="cls-9" d="M544.56,1726c-13.28-2.6-29.57-.71-39.83,8.67-.39.36.13.92.56.79a188,188,0,0,1,39.2-7.78A.85.85,0,0,0,544.56,1726Z"/><path class="cls-9" d="M554.11,1731.9c-13.28-2.61-29.57-.72-39.83,8.67-.39.36.13.92.56.79a186.73,186.73,0,0,1,39.2-7.78A.85.85,0,0,0,554.11,1731.9Z"/><path class="cls-12" d="M592.88,1009.85s-2.83,58.56-16.23,104.95c-1.08,3.83-2.24,7.61-3.5,11.23,0,0-14,5.06-35.28,18.13,0,0-1.41,47.12-2.82,99.68-1.57,58.75-3.19,124.28-2.86,138.17,1.23,52-6.5,337.93-6.5,337.93l-144.41.59s26.11-319.31,25.93-338.36c-.28-30.62,7-166,12.61-264.64,3.43-60.81,6.25-107.68,6.25-107.68Z"/><path class="cls-17" d="M519.19,1694.26c-22.06-.37-15.73-.58-37.79-.69-10.8-.06-81.74-.38-91.82,1.33a.23.23,0,0,0,0,.45c10.09,1.63,81,.71,91.83.56,22.06-.3,15.73-.46,37.78-1A.32.32,0,0,0,519.19,1694.26Z"/><path class="cls-17" d="M436.66,1030.77c-2.66,80.57-5.48,161.14-9.08,241.67-3.62,80.81-8.49,161.59-15.25,242.2-3.78,45-7.34,108.38-12.2,153.31,0,.3.43.41.47.1,10.52-79.91,16.38-178.74,21.55-259.16s8.67-161,11.41-241.49c1.55-45.56,2.74-91.12,4.1-136.68C437.68,1030.07,436.68,1030.13,436.66,1030.77Z"/><path class="cls-17" d="M577.6,1122.54c-14.38,5.71-28.15,13.51-41.28,21.62a.48.48,0,0,0,.43.85c13.93-6.77,28.16-13.29,41.7-20.81A.93.93,0,0,0,577.6,1122.54Z"/><path class="cls-17" d="M586,1053.23c-1.25,6.71-2.88,13.36-4.33,20-1.36,6.26-2.36,12.65-4,18.84-1.6,6-4.16,11.51-8.77,15.8-2.46,2.28-5.17,4.3-7.79,6.4-1.41,1.12-2.94,2.21-4.4,3.35.19-.89.34-1.79.5-2.7.45-2.55.88-5.1,1.31-7.65q1.42-8.47,2.72-17c1.7-11.14,3.27-22.41,5.6-33.44a.36.36,0,0,0-.7-.17c-2.78,10.93-5.84,21.75-8.26,32.77-1.18,5.41-5.42,32.11-5.6,34s-.36,3.91-.43,5.87-.45,4.09,0,6a.49.49,0,0,0,.91.08l0,0c1-1.7,1.22-3.92,1.7-5.8s.92-3.84,1.26-5.78c.13-.7.22-1.41.32-2.13,2.63-1.6,5.08-3.71,7.54-5.49,2.65-1.92,5.35-3.79,7.85-5.9a30.08,30.08,0,0,0,9.59-15c1.86-6.21,2.43-12.77,3.15-19.19.85-7.58,1.47-15.21,2.52-22.77C586.71,1053,586,1052.77,586,1053.23Z"/><path class="cls-18" d="M538.11,838.37c6.52,25.31,32.39,83.12,75.83,130.81,16.79,18.4,149.73,37.88,163.77,33.85,9.82-2.81,38.62-87.84,29.24-95-17.57-13.39-142.26,2.19-147.2-1-7.55-5-56.88-45.1-87.66-81.75C549.64,798.56,527.33,796.25,538.11,838.37Z"/><path class="cls-11" d="M566.52,914.05l80.39-23.61s-64-66.27-88.35-80.45c-27.38-16-29.55,1.54-22.12,30.73S566.52,914.05,566.52,914.05Z"/><path class="cls-11" d="M631.41,879.49c-2.9.38-28.08,7.34-33.51,9s-27.73,8.09-33.21,10.24a.21.21,0,0,0,.1.4c5.75-1.08,28.26-7.53,33.83-9.08s30.32-9,32.93-10.18C631.77,879.75,631.61,879.46,631.41,879.49Z"/><path class="cls-11" d="M597.52,904.92l-31,9.11s-22.64-44.13-30.09-73.3c-5.43-21.33-5.73-36.45,5.18-36.77Z"/><path class="cls-10" d="M412.64,1068.07s208.46-1,208.46-1c0,4.08-45.22-233-67-261.42-4.67-6.08-36.52-13.75-50.9-.37C440.19,864,412.65,1070.72,412.64,1068.07Z"/><polygon class="cls-19" points="574.52 870.59 547.88 872.44 549.49 907.58 567.82 912.44 578.29 904.13 574.52 870.59"/><path class="cls-18" d="M540.15,834.15c-9.92,2.39-24.6-16.43-31.75-30.59-.48-1,1.32-11,2.93-23.21.94-7.44,1.82-15.74,2.08-23.38,0-1.57,47.49,13.24,47.49,13.24s-5.24,15.84-5.6,29.16a16.71,16.71,0,0,0,.22,3.14c0,.15.05.32.05.52C556.35,809,550.76,831.58,540.15,834.15Z"/><path class="cls-20" d="M555.54,802.51c0,.15,0,.34,0,.52a32.82,32.82,0,0,1-4.91.09C522.49,801.56,516.24,766,515.1,757c8.47,1.51,45.8,13.16,45.8,13.16s-5.24,15.86-5.61,29.18A16.55,16.55,0,0,0,555.54,802.51Z"/><path class="cls-18" d="M504.52,699.71c-4,17.29,8.18,65.66,21,75.77,18.54,14.66,47.25,14.26,59.29-7.65,11.68-21.23-5.37-84-19.5-93C544.47,661.54,510.48,674.16,504.52,699.71Z"/><path class="cls-20" d="M575.62,689.51c-2.66-3.81-5.6-7.59-8.28-7.9s-3.08,6.15-8.73,7.71c-7.61,2.11-12.8-4.22-23.76-2.76-15.73,2.1-19.9,16.46-15.77,38.54,3.7,19.73-7.8,24-7.8,24s-16.08-41.87-6.8-58.72,36-28.95,57.64-19.11C570,674.87,575.62,689.51,575.62,689.51Z"/><path class="cls-18" d="M519.61,739.34s-12.43-14.85-19.26-10.28,3.47,26.76,12.17,29.16a8.61,8.61,0,0,0,11.08-5.6Z"/><path class="cls-20" d="M503.46,735.35a.12.12,0,0,0,0,.23c6.12,1.88,9.7,7.08,12.38,12.57-1.95-2-4.45-3-7.19-.68-.15.13,0,.35.19.31,2.37-.73,4.15-.47,5.95,1.33a25.58,25.58,0,0,1,3.19,4.45c.32.5,1.25.14,1-.45l-.06-.14C518.38,745.43,511.61,735.4,503.46,735.35Z"/><path class="cls-10" d="M572.38,680c-4.79-.21-30.15,5.51-40.64,12.67s-27.63,27.58-28.51,28.66-14.29-39.95,18.29-54.24C557,651.49,572.38,680,572.38,680Z"/><path class="cls-21" d="M504.85,719.21s16.75-34.11,28-43.33,38.49-18.5,57.3-14.25c14.68,3.33-14.94,27.14-14.94,27.14s-1.85-4.64-6.54-5.51c-9.09-1.71-24.62,4-33.15,8.83C524.73,698.19,504.85,719.21,504.85,719.21Z"/><path class="cls-22" d="M504.85,719.21s16.75-34.11,28-43.33,38.49-18.5,57.3-14.25c14.68,3.33-14.94,27.14-14.94,27.14s-1.85-4.64-6.54-5.51c-9.09-1.71-24.62,4-33.15,8.83C524.73,698.19,504.85,719.21,504.85,719.21Z"/><rect class="cls-23" x="404.69" y="940.69" width="164.41" height="182.07"/><rect class="cls-24" x="404.69" y="940.69" width="164.41" height="182.07"/><rect class="cls-23" x="569.1" y="940.69" width="84.9" height="182.07"/><rect class="cls-25" x="569.1" y="940.69" width="84.9" height="182.07"/><polygon class="cls-26" points="500.85 980.04 497.37 980.04 494.76 980.04 493.26 977.01 491.17 980.04 488.33 973.8 485.64 980.04 477.94 980.04 474.43 980.04 473.16 975.88 471.97 980.04 469.68 980.04 469.68 940.69 500.85 940.69 500.85 980.04"/><path class="cls-23" d="M648.15,1110.22q-9.43-19.41-18.69-39L611,1032.1l-18.18-39.34q-9-19.69-17.91-39.53,9.43,19.42,18.7,39l18.41,39.16,18.18,39.33Q639.29,1090.38,648.15,1110.22Z"/><path class="cls-23" d="M648.15,953.23q-8.86,19.83-17.91,39.53l-18.18,39.34-18.41,39.16q-9.25,19.54-18.7,39,8.87-19.83,17.91-39.53L611,1031.36l18.42-39.16Q638.71,972.66,648.15,953.23Z"/><path class="cls-18" d="M465.31,820.88c-40.1,30.18-117.92,97.76-124.73,134.33-8.93,48,31.93,142.35,49.37,160.59,11.77,12.31,63.58-32.94,66.68-44.27s-39-87.71-39.31-96.5,53.5-89.13,76.84-124.77C523.61,805.31,499.25,795.34,465.31,820.88Z"/><path class="cls-18" d="M477.25,1078c-3.67-4.24-1.46-6.19,8.32-4.29s46.88,17.75,51.32,4.35-48.24-35-64.77-36.94-43.95.75-43.95.75C437.58,1048.15,459,1065.51,477.25,1078Z"/><path class="cls-18" d="M385.12,1109.68c16.6,27.71,64.75,45.17,100.68,45.84a17.78,17.78,0,0,0,11.16-3.33c16.1.58,21.21-6.84,21.21-6.84,15.16-4,19.34-12.36,19.34-12.36s18.91.48,21.1-10.9c2.49-12.75-24.55-10.93-40-19-35.48-18.54-80.71-54.82-90.41-61.18Z"/><path class="cls-20" d="M467.75,1109.76c10.55,5.25,20.77,10.68,32,14.47,12.3,4.17,24.82,6.11,37.53,8.4a.31.31,0,0,1-.07.62c-23.65-.51-50.17-9.71-69.68-23C467,1109.92,467.22,1109.5,467.75,1109.76Z"/><path class="cls-20" d="M453.45,1129.55c10.54,4.53,29.13,12.39,64.76,15.42.11,0,.13.21,0,.21-23.39,1.11-44.49-4.2-65-15.13C452.59,1129.71,452.74,1129.25,453.45,1129.55Z"/><path class="cls-20" d="M446,1140.32c18.23,7,30.61,9.16,50.93,11.78.12,0,.12.22,0,.21-23.42-.55-31.85-3.4-51.26-11.4C445,1140.64,445.25,1140.05,446,1140.32Z"/><path class="cls-11" d="M463,910.09l-76.13-35s73-56.28,99.1-66.78c29.4-11.81,29,5.81,17.42,33.61S463,910.09,463,910.09Z"/><path class="cls-11" d="M403.84,866.48c2.82.8,26.71,11.34,31.86,13.74s26.26,12,31.37,14.95a.21.21,0,0,1-.16.39c-5.54-1.91-26.87-11.55-32.16-13.89s-28.69-13.3-31.1-14.85C403.44,866.68,403.65,866.42,403.84,866.48Z"/><path class="cls-11" d="M457,907.27c2.36.89,6,2.41,6,2.41,5.61-10.27,12.35-20,18.41-30,6.16-10.2,12.62-20.19,18.91-30.31a.14.14,0,0,1,.24.15q-4.79,8.94-9.66,17.77l1.61-2c1.9-2.37,3.86-4.68,5.69-7.11.15-.2.48,0,.34.21a71.36,71.36,0,0,1-5.25,7.53c-1.37,1.67-2.84,3.23-4.34,4.77-1.89,3.37-3.76,6.75-5.74,10.08-6.08,10.21-12,22-18.9,31.7,0,0-5.17-2.93-7.62-4.68C456.43,907.54,456.68,907.14,457,907.27Z"/><polygon class="cls-17" points="669.2 1021.15 794.41 1031.48 836.44 860.23 711.23 849.9 669.2 1021.15"/><polygon class="cls-27" points="741.15 862.71 800.52 867.53 805.13 848.64 745.77 843.82 741.15 862.71"/><polygon class="cls-27" points="759.25 844.92 766.56 845.51 768.69 836.8 786.45 838.24 784.32 846.96 791.63 847.55 795.51 831.68 763.02 829.04 759.25 844.92"/><path class="cls-18" d="M854.78,938.09a13.67,13.67,0,0,1-10.59,12.41s10.21,8.35,7.33,18.92C850,974.86,840,977.27,840,977.27s7.9,7.05,4.75,16.29c-2.51,7.37-12.15,8.68-12.15,8.68s4.42,10.29-.54,17c-10.06,13.56-75.2-1.19-79.83-27.46C750.1,979.5,765.81,984,765.81,984s-21-11.88-18.35-25.39,22.77-6.47,22.77-6.47-20.3-11.69-16.09-25.41c4.38-14.29,23.25-3.81,23.25-3.81s-12.27-13.1-6.64-22.87c9.29-16.13,37.24,13,52.32,12.89L829,890.6S856,926.24,854.78,938.09Z"/><path class="cls-20" d="M831.14,1002.67a.18.18,0,0,1,0,.35c-22.6.37-47.56-6.15-66.2-19.19-.61-.43-.18-1.61.59-1.27C787.29,992.33,807.39,999.26,831.14,1002.67Z"/><path class="cls-20" d="M840.32,977.48c.26,0,.2.46-.08.47-23.3.25-51.2-7.87-70.92-25.43-.67-.6-.68-1.82.16-1.18C783.47,962,818.93,974.52,840.32,977.48Z"/><path class="cls-20" d="M776.35,921.15c19.55,16.11,42.3,24.33,66.88,29.41.32.06.2.51-.09.53-12.7.79-28-4.08-39.63-8.88-11.12-4.6-20.23-11-27.72-20.37C775.5,921.47,775.93,920.81,776.35,921.15Z"/><path class="cls-20" d="M559.39,811.15a60.23,60.23,0,0,1-3.06,10.79A62,62,0,0,1,551.66,832a30.56,30.56,0,0,1-6.74,8.33,10.13,10.13,0,0,1-4.39,2.1,10.3,10.3,0,0,1-4.66-1c-6.58-2.72-12-8.07-16.85-13.59-1.22-1.4-2.35-2.88-3.51-4.33s-2.2-3-3.24-4.57-2.12-3.09-3.13-4.68-2-3.2-3-4.79a88.2,88.2,0,0,0,11,19.85c4.62,6,10.14,11.78,17.58,14.89a12.6,12.6,0,0,0,6.28,1.11,12.16,12.16,0,0,0,5.65-2.8,29.14,29.14,0,0,0,7-9.44A54.39,54.39,0,0,0,559.39,811.15Z"/><path class="cls-26" d="M14.3,1745.9c3.22,0,3.22-5,0-5s-3.22,5,0,5Z"/></g></svg>