<svg xmlns="http://www.w3.org/2000/svg" xmlns:xlink="http://www.w3.org/1999/xlink" viewBox="0 0 2226.93 1803.83"><defs><style>.cls-1{isolation:isolate;}.cls-2{fill:#ebf2f9;}.cls-3{fill:#7d97f4;}.cls-4,.cls-5{fill:#bdd0fb;}.cls-4{mix-blend-mode:overlay;}.cls-6{fill:url(#linear-gradient);}.cls-7{fill:url(#linear-gradient-2);}.cls-8{fill:url(#linear-gradient-3);}.cls-9{mix-blend-mode:soft-light;}.cls-10{fill:url(#linear-gradient-4);}.cls-11{fill:url(#linear-gradient-5);}.cls-12{fill:url(#linear-gradient-6);}.cls-13{fill:url(#linear-gradient-7);}.cls-14{fill:url(#linear-gradient-8);}.cls-15{fill:url(#linear-gradient-9);}.cls-16{fill:url(#linear-gradient-10);}.cls-17{fill:url(#linear-gradient-11);}.cls-18{fill:url(#linear-gradient-12);}.cls-19{fill:url(#linear-gradient-13);}.cls-20{fill:url(#linear-gradient-14);}.cls-21{fill:url(#linear-gradient-15);}.cls-22,.cls-23{fill:#f99746;}.cls-23,.cls-24,.cls-25{opacity:0.66;}.cls-24,.cls-26{fill:#fff;}.cls-27{fill:url(#linear-gradient-16);}.cls-28{fill:url(#linear-gradient-17);}.cls-29{fill:url(#linear-gradient-18);}.cls-30{fill:url(#linear-gradient-19);}.cls-31{fill:url(#linear-gradient-20);}.cls-32{fill:url(#linear-gradient-21);}.cls-33{fill:url(#linear-gradient-22);}.cls-34{fill:url(#linear-gradient-23);}.cls-35{fill:url(#linear-gradient-24);}.cls-36{fill:url(#linear-gradient-25);}.cls-37{fill:url(#linear-gradient-26);}.cls-38{fill:url(#linear-gradient-27);}.cls-39{fill:url(#linear-gradient-28);}.cls-40{fill:url(#linear-gradient-29);}.cls-41{fill:url(#linear-gradient-30);}.cls-42{fill:url(#linear-gradient-31);}.cls-43{fill:url(#linear-gradient-32);}.cls-44{fill:url(#linear-gradient-33);}.cls-45{fill:url(#linear-gradient-34);}.cls-46{fill:url(#linear-gradient-35);}.cls-47{fill:url(#linear-gradient-36);}.cls-48{fill:url(#linear-gradient-37);}.cls-49{fill:url(#linear-gradient-38);}.cls-50{fill:url(#linear-gradient-39);}.cls-51{fill:url(#linear-gradient-40);}.cls-52{fill:url(#linear-gradient-41);}.cls-53{fill:url(#linear-gradient-42);}.cls-54{fill:url(#linear-gradient-43);}.cls-55{fill:url(#linear-gradient-44);}.cls-56{fill:url(#linear-gradient-45);}.cls-57{fill:url(#linear-gradient-46);}.cls-58{fill:url(#linear-gradient-47);}.cls-59{fill:url(#linear-gradient-48);}.cls-60{fill:url(#linear-gradient-49);}.cls-61{fill:url(#linear-gradient-50);}.cls-62{fill:url(#linear-gradient-51);}.cls-63{fill:url(#linear-gradient-52);}.cls-64{fill:url(#linear-gradient-53);}.cls-65{fill:url(#linear-gradient-54);}.cls-66{fill:url(#linear-gradient-55);}.cls-67{fill:url(#linear-gradient-56);}.cls-68{fill:url(#linear-gradient-57);}.cls-69{fill:url(#linear-gradient-58);}.cls-70{fill:url(#linear-gradient-59);}.cls-71{fill:url(#linear-gradient-60);}.cls-72{fill:url(#linear-gradient-61);}.cls-73{fill:url(#linear-gradient-62);}.cls-74{fill:url(#linear-gradient-63);}.cls-75{fill:url(#linear-gradient-64);}.cls-76{fill:url(#linear-gradient-65);}.cls-77{fill:url(#linear-gradient-66);}.cls-78{fill:url(#linear-gradient-67);}.cls-79{fill:url(#linear-gradient-68);}.cls-80{fill:url(#linear-gradient-69);}.cls-81{fill:url(#linear-gradient-70);}.cls-82{fill:url(#linear-gradient-71);}.cls-83{fill:url(#linear-gradient-72);}.cls-84{fill:url(#linear-gradient-73);}.cls-85{fill:url(#linear-gradient-74);}.cls-86{fill:url(#linear-gradient-75);}.cls-87{fill:url(#linear-gradient-76);}.cls-88{fill:url(#linear-gradient-77);}.cls-89{fill:url(#linear-gradient-78);}.cls-90{fill:url(#linear-gradient-79);}.cls-91{fill:url(#linear-gradient-80);}.cls-92{fill:url(#linear-gradient-81);}.cls-93{fill:url(#linear-gradient-82);}.cls-94{fill:url(#linear-gradient-83);}.cls-95{fill:url(#linear-gradient-84);}.cls-96{fill:url(#linear-gradient-85);}.cls-97{fill:url(#linear-gradient-86);}.cls-98{fill:url(#linear-gradient-87);}.cls-99{fill:url(#linear-gradient-88);}.cls-100{fill:url(#linear-gradient-89);}.cls-101{fill:url(#linear-gradient-90);}.cls-102{fill:url(#linear-gradient-91);}.cls-103{fill:url(#linear-gradient-92);}.cls-104{fill:url(#linear-gradient-93);}.cls-105{fill:url(#linear-gradient-94);}.cls-106{fill:url(#linear-gradient-95);}.cls-107{fill:url(#linear-gradient-96);}.cls-108{fill:url(#linear-gradient-97);}.cls-109{fill:url(#linear-gradient-98);}.cls-110{fill:url(#linear-gradient-99);}.cls-111{fill:url(#linear-gradient-100);}.cls-112{fill:url(#linear-gradient-101);}.cls-113{fill:url(#linear-gradient-102);}.cls-114{fill:url(#linear-gradient-103);}.cls-115{fill:url(#linear-gradient-104);}.cls-116{fill:url(#linear-gradient-105);}.cls-117{fill:url(#linear-gradient-106);}.cls-118{fill:url(#linear-gradient-107);}.cls-119{fill:url(#linear-gradient-108);}.cls-120{fill:url(#linear-gradient-109);}.cls-121{fill:url(#linear-gradient-110);}.cls-122{fill:url(#linear-gradient-111);}.cls-123{fill:url(#linear-gradient-112);}.cls-124{fill:url(#linear-gradient-113);}.cls-125{fill:url(#linear-gradient-114);}.cls-126{fill:url(#linear-gradient-115);}.cls-127{fill:url(#linear-gradient-116);}.cls-128{fill:url(#linear-gradient-117);}.cls-129{fill:url(#linear-gradient-118);}.cls-130{fill:url(#linear-gradient-119);}.cls-131{fill:url(#linear-gradient-120);}.cls-132{fill:url(#linear-gradient-121);}.cls-133{fill:url(#linear-gradient-122);}.cls-134{fill:url(#linear-gradient-123);}.cls-135{fill:url(#linear-gradient-124);}.cls-136{fill:url(#linear-gradient-125);}.cls-137{fill:url(#linear-gradient-126);}.cls-138{fill:url(#linear-gradient-127);}.cls-139{fill:url(#linear-gradient-128);}.cls-140{fill:url(#linear-gradient-129);}.cls-141{fill:url(#linear-gradient-130);}.cls-142{fill:url(#linear-gradient-131);}.cls-143{fill:url(#linear-gradient-132);}.cls-144{fill:url(#linear-gradient-133);}.cls-145{fill:url(#linear-gradient-134);}.cls-146{fill:url(#linear-gradient-135);}.cls-147{fill:url(#linear-gradient-136);}.cls-148{fill:url(#linear-gradient-137);}.cls-149{fill:url(#linear-gradient-138);}.cls-150{fill:url(#linear-gradient-139);}.cls-151{fill:url(#linear-gradient-140);}.cls-152{fill:url(#linear-gradient-141);}.cls-153{fill:url(#linear-gradient-142);}.cls-154{fill:url(#linear-gradient-143);}.cls-155{fill:url(#linear-gradient-144);}.cls-156{fill:url(#linear-gradient-145);}.cls-157{fill:url(#linear-gradient-146);}.cls-158{fill:url(#linear-gradient-147);}.cls-159{fill:url(#linear-gradient-148);}.cls-160{fill:url(#linear-gradient-149);}.cls-161{fill:url(#linear-gradient-150);}.cls-162{fill:url(#linear-gradient-151);}.cls-163{fill:url(#linear-gradient-152);}.cls-164{fill:url(#linear-gradient-153);}.cls-165{fill:url(#linear-gradient-154);}.cls-166{fill:url(#linear-gradient-155);}.cls-167{fill:url(#linear-gradient-156);}.cls-168{fill:url(#linear-gradient-157);}.cls-169{fill:url(#linear-gradient-158);}.cls-170{fill:url(#linear-gradient-159);}.cls-171{fill:url(#linear-gradient-160);}.cls-172{fill:url(#linear-gradient-161);}.cls-173{fill:url(#linear-gradient-162);}.cls-174{fill:url(#linear-gradient-163);}.cls-175{fill:url(#linear-gradient-164);}.cls-176{fill:url(#linear-gradient-165);}.cls-177{fill:url(#linear-gradient-166);}.cls-178{fill:url(#linear-gradient-167);}.cls-179{fill:url(#linear-gradient-168);}.cls-180{fill:url(#linear-gradient-169);}.cls-181{fill:url(#linear-gradient-170);}.cls-182{fill:url(#linear-gradient-171);}.cls-183{fill:url(#linear-gradient-172);}.cls-184{fill:url(#linear-gradient-173);}.cls-185{fill:url(#linear-gradient-174);}.cls-186{fill:url(#linear-gradient-175);}.cls-187{fill:url(#linear-gradient-176);}.cls-188{fill:url(#linear-gradient-177);}.cls-189{fill:url(#linear-gradient-178);}.cls-190{fill:url(#linear-gradient-179);}.cls-191{fill:url(#linear-gradient-180);}.cls-192{fill:url(#linear-gradient-181);}.cls-193{fill:url(#linear-gradient-182);}.cls-194{fill:url(#linear-gradient-183);}.cls-195{fill:url(#linear-gradient-184);}.cls-196{fill:url(#linear-gradient-185);}.cls-197{fill:url(#linear-gradient-186);}.cls-198{fill:url(#linear-gradient-187);}.cls-199{fill:url(#linear-gradient-188);}.cls-200{fill:url(#linear-gradient-189);}.cls-201{fill:url(#linear-gradient-190);}.cls-202{fill:url(#linear-gradient-191);}.cls-203{fill:url(#linear-gradient-192);}.cls-204{fill:url(#linear-gradient-193);}.cls-205{fill:url(#linear-gradient-194);}.cls-206{fill:url(#linear-gradient-195);}.cls-207{fill:url(#linear-gradient-196);}.cls-208{fill:url(#linear-gradient-197);}.cls-209{fill:url(#linear-gradient-198);}.cls-210{fill:url(#linear-gradient-199);}.cls-211{fill:url(#linear-gradient-200);}.cls-212{fill:url(#linear-gradient-201);}.cls-213{fill:url(#linear-gradient-202);}.cls-214{fill:url(#linear-gradient-203);}.cls-215{fill:url(#linear-gradient-204);}.cls-216{fill:url(#linear-gradient-205);}.cls-217{fill:url(#linear-gradient-206);}.cls-218{fill:url(#linear-gradient-207);}.cls-219{fill:none;stroke:#fff;stroke-miterlimit:10;}</style><linearGradient id="linear-gradient" x1="1521.11" y1="-28.87" x2="1083.4" y2="1239.75" gradientUnits="userSpaceOnUse"><stop offset="0" stop-color="#09005d"/><stop offset="1" stop-color="#1a0f91"/></linearGradient><linearGradient id="linear-gradient-2" x1="982.41" y1="1459.37" x2="1496.3" y2="134.67" gradientUnits="userSpaceOnUse"><stop offset="0" stop-color="#4042e2"/><stop offset="1" stop-color="#4f52ff"/></linearGradient><linearGradient id="linear-gradient-3" x1="1133.43" y1="330.73" x2="1845.42" y2="-759.51" gradientUnits="userSpaceOnUse"><stop offset="0" stop-color="#020039"/><stop offset="1" stop-color="#090056"/></linearGradient><linearGradient id="linear-gradient-4" x1="559.55" y1="1979.07" x2="1739.86" y2="-740.77" gradientUnits="userSpaceOnUse"><stop offset="0" stop-color="#b37cff"/><stop offset="1" stop-color="#f895e7"/></linearGradient><linearGradient id="linear-gradient-5" x1="709.45" y1="2044.12" x2="1889.75" y2="-675.71" xlink:href="#linear-gradient-4"/><linearGradient id="linear-gradient-6" x1="604.42" y1="1998.54" x2="1784.71" y2="-721.28" xlink:href="#linear-gradient-4"/><linearGradient id="linear-gradient-7" x1="931.07" y1="2140.3" x2="2111.38" y2="-579.53" xlink:href="#linear-gradient-4"/><linearGradient id="linear-gradient-8" x1="1034.48" y1="2185.18" x2="2214.78" y2="-534.66" xlink:href="#linear-gradient-4"/><linearGradient id="linear-gradient-9" x1="1017.9" y1="2177.98" x2="2198.21" y2="-541.86" xlink:href="#linear-gradient-4"/><linearGradient id="linear-gradient-10" x1="417.88" y1="1917.6" x2="1598.19" y2="-802.24" xlink:href="#linear-gradient-4"/><linearGradient id="linear-gradient-11" x1="572.38" y1="1984.64" x2="1752.68" y2="-735.19" xlink:href="#linear-gradient-4"/><linearGradient id="linear-gradient-12" x1="784.26" y1="2077.54" x2="1965.23" y2="-643.82" xlink:href="#linear-gradient-4"/><linearGradient id="linear-gradient-13" x1="805.72" y1="2085.9" x2="1986.02" y2="-633.93" xlink:href="#linear-gradient-4"/><linearGradient id="linear-gradient-14" x1="1152.17" y1="-33.31" x2="1122.5" y2="204.09" xlink:href="#linear-gradient"/><linearGradient id="linear-gradient-15" x1="1330.87" y1="604.58" x2="1334.58" y2="819.72" xlink:href="#linear-gradient"/><linearGradient id="linear-gradient-16" x1="690.37" y1="1339.82" x2="694.33" y2="1339.82" gradientUnits="userSpaceOnUse"><stop offset="0" stop-color="#dae3fe"/><stop offset="1" stop-color="#e9effd"/></linearGradient><linearGradient id="linear-gradient-17" x1="694.75" y1="1351.38" x2="699.08" y2="1351.38" xlink:href="#linear-gradient-16"/><linearGradient id="linear-gradient-18" x1="699.51" y1="1362.74" x2="703.8" y2="1362.74" xlink:href="#linear-gradient-16"/><linearGradient id="linear-gradient-19" x1="704.86" y1="1373.85" x2="709.29" y2="1373.85" xlink:href="#linear-gradient-16"/><linearGradient id="linear-gradient-20" x1="710.77" y1="1384.68" x2="715.33" y2="1384.68" xlink:href="#linear-gradient-16"/><linearGradient id="linear-gradient-21" x1="717.23" y1="1395.18" x2="721.93" y2="1395.18" xlink:href="#linear-gradient-16"/><linearGradient id="linear-gradient-22" x1="724.26" y1="1405.3" x2="729.11" y2="1405.3" xlink:href="#linear-gradient-16"/><linearGradient id="linear-gradient-23" x1="731.87" y1="1414.98" x2="736.87" y2="1414.98" xlink:href="#linear-gradient-16"/><linearGradient id="linear-gradient-24" x1="740.06" y1="1424.17" x2="745.21" y2="1424.17" xlink:href="#linear-gradient-16"/><linearGradient id="linear-gradient-25" x1="748.84" y1="1432.8" x2="754.13" y2="1432.8" xlink:href="#linear-gradient-16"/><linearGradient id="linear-gradient-26" x1="758.18" y1="1440.8" x2="763.61" y2="1440.8" xlink:href="#linear-gradient-16"/><linearGradient id="linear-gradient-27" x1="768.07" y1="1448.12" x2="773.63" y2="1448.12" xlink:href="#linear-gradient-16"/><linearGradient id="linear-gradient-28" x1="778.48" y1="1454.69" x2="784.16" y2="1454.69" xlink:href="#linear-gradient-16"/><linearGradient id="linear-gradient-29" x1="789.35" y1="1460.19" x2="795.13" y2="1460.19" xlink:href="#linear-gradient-16"/><linearGradient id="linear-gradient-30" x1="800.64" y1="1465.48" x2="806.5" y2="1465.48" xlink:href="#linear-gradient-16"/><linearGradient id="linear-gradient-31" x1="812.27" y1="1469.55" x2="818.2" y2="1469.55" xlink:href="#linear-gradient-16"/><linearGradient id="linear-gradient-32" x1="824.18" y1="1472.97" x2="830.15" y2="1472.97" xlink:href="#linear-gradient-16"/><linearGradient id="linear-gradient-33" x1="836.3" y1="1475.31" x2="842.29" y2="1475.31" xlink:href="#linear-gradient-16"/><linearGradient id="linear-gradient-34" x1="848.56" y1="1476.59" x2="854.56" y2="1476.59" xlink:href="#linear-gradient-16"/><linearGradient id="linear-gradient-35" x1="860.91" y1="1477.46" x2="866.9" y2="1477.46" xlink:href="#linear-gradient-16"/><linearGradient id="linear-gradient-36" x1="873.28" y1="1477.28" x2="879.24" y2="1477.28" xlink:href="#linear-gradient-16"/><linearGradient id="linear-gradient-37" x1="885.63" y1="1476.19" x2="891.54" y2="1476.19" xlink:href="#linear-gradient-16"/><linearGradient id="linear-gradient-38" x1="897.88" y1="1474.44" x2="903.72" y2="1474.44" xlink:href="#linear-gradient-16"/><linearGradient id="linear-gradient-39" x1="909.96" y1="1471.29" x2="915.7" y2="1471.29" xlink:href="#linear-gradient-16"/><linearGradient id="linear-gradient-40" x1="921.77" y1="1467.82" x2="927.4" y2="1467.82" xlink:href="#linear-gradient-16"/><linearGradient id="linear-gradient-41" x1="933.24" y1="1462.92" x2="938.71" y2="1462.92" xlink:href="#linear-gradient-16"/><linearGradient id="linear-gradient-42" x1="944.28" y1="1457.19" x2="949.63" y2="1457.19" xlink:href="#linear-gradient-16"/><linearGradient id="linear-gradient-43" x1="955.13" y1="1451.2" x2="960.41" y2="1451.2" xlink:href="#linear-gradient-16"/><linearGradient id="linear-gradient-44" x1="965.77" y1="1444.81" x2="970.93" y2="1444.81" xlink:href="#linear-gradient-16"/><linearGradient id="linear-gradient-45" x1="976.06" y1="1437.83" x2="981.05" y2="1437.83" xlink:href="#linear-gradient-16"/><linearGradient id="linear-gradient-46" x1="985.8" y1="1430.06" x2="990.54" y2="1430.06" xlink:href="#linear-gradient-16"/><linearGradient id="linear-gradient-47" x1="994.65" y1="1421.26" x2="999.01" y2="1421.26" xlink:href="#linear-gradient-16"/><linearGradient id="linear-gradient-48" x1="1002.06" y1="1411.15" x2="1005.79" y2="1411.15" xlink:href="#linear-gradient-16"/><linearGradient id="linear-gradient-49" x1="1006.94" y1="1399.69" x2="1009.78" y2="1399.69" xlink:href="#linear-gradient-16"/><linearGradient id="linear-gradient-50" x1="1008.17" y1="1387.42" x2="1010.39" y2="1387.42" xlink:href="#linear-gradient-16"/><linearGradient id="linear-gradient-51" x1="1004.47" y1="1375.46" x2="1007.94" y2="1375.46" xlink:href="#linear-gradient-16"/><linearGradient id="linear-gradient-52" x1="997.6" y1="1365.09" x2="1001.91" y2="1365.09" xlink:href="#linear-gradient-16"/><linearGradient id="linear-gradient-53" x1="987.62" y1="1357.35" x2="992.63" y2="1357.35" xlink:href="#linear-gradient-16"/><linearGradient id="linear-gradient-54" x1="975.97" y1="1352.87" x2="981.34" y2="1352.87" xlink:href="#linear-gradient-16"/><linearGradient id="linear-gradient-55" x1="963.68" y1="1351.84" x2="969.13" y2="1351.84" xlink:href="#linear-gradient-16"/><linearGradient id="linear-gradient-56" x1="951.62" y1="1353.71" x2="956.87" y2="1353.71" xlink:href="#linear-gradient-16"/><linearGradient id="linear-gradient-57" x1="940.7" y1="1359.02" x2="945.48" y2="1359.02" xlink:href="#linear-gradient-16"/><linearGradient id="linear-gradient-58" x1="931.98" y1="1367.13" x2="935.97" y2="1367.13" xlink:href="#linear-gradient-16"/><linearGradient id="linear-gradient-59" x1="926.28" y1="1377.76" x2="929.05" y2="1377.76" xlink:href="#linear-gradient-16"/><linearGradient id="linear-gradient-60" x1="924.41" y1="1389.8" x2="926.58" y2="1389.8" xlink:href="#linear-gradient-16"/><linearGradient id="linear-gradient-61" x1="925.07" y1="1402.08" x2="927.35" y2="1402.08" xlink:href="#linear-gradient-16"/><linearGradient id="linear-gradient-62" x1="928.38" y1="1413.9" x2="931.46" y2="1413.9" xlink:href="#linear-gradient-16"/><linearGradient id="linear-gradient-63" x1="933.47" y1="1425.07" x2="936.89" y2="1425.07" xlink:href="#linear-gradient-16"/><linearGradient id="linear-gradient-64" x1="939.77" y1="1435.62" x2="943.41" y2="1435.62" xlink:href="#linear-gradient-16"/><linearGradient id="linear-gradient-65" x1="946.67" y1="1445.65" x2="950.36" y2="1445.65" xlink:href="#linear-gradient-16"/><linearGradient id="linear-gradient-66" x1="954.69" y1="1455.23" x2="958.62" y2="1455.23" xlink:href="#linear-gradient-16"/><linearGradient id="linear-gradient-67" x1="962.84" y1="1464.42" x2="966.79" y2="1464.42" xlink:href="#linear-gradient-16"/><linearGradient id="linear-gradient-68" x1="971.43" y1="1473.27" x2="975.45" y2="1473.27" xlink:href="#linear-gradient-16"/><linearGradient id="linear-gradient-69" x1="980.33" y1="1481.84" x2="984.39" y2="1481.84" xlink:href="#linear-gradient-16"/><linearGradient id="linear-gradient-70" x1="989.47" y1="1490.12" x2="993.6" y2="1490.12" xlink:href="#linear-gradient-16"/><linearGradient id="linear-gradient-71" x1="998.93" y1="1498.04" x2="1003.13" y2="1498.04" xlink:href="#linear-gradient-16"/><linearGradient id="linear-gradient-72" x1="1008.7" y1="1505.57" x2="1012.97" y2="1505.57" xlink:href="#linear-gradient-16"/><linearGradient id="linear-gradient-73" x1="1018.78" y1="1512.68" x2="1023.11" y2="1512.68" xlink:href="#linear-gradient-16"/><linearGradient id="linear-gradient-74" x1="1029.16" y1="1519.35" x2="1033.55" y2="1519.35" xlink:href="#linear-gradient-16"/><linearGradient id="linear-gradient-75" x1="1039.83" y1="1525.53" x2="1044.28" y2="1525.53" xlink:href="#linear-gradient-16"/><linearGradient id="linear-gradient-76" x1="1672.82" y1="543.08" x2="1676.31" y2="543.08" xlink:href="#linear-gradient-16"/><linearGradient id="linear-gradient-77" x1="1669.97" y1="555.12" x2="1673.33" y2="555.12" xlink:href="#linear-gradient-16"/><linearGradient id="linear-gradient-78" x1="1666.28" y1="566.96" x2="1670.18" y2="566.96" xlink:href="#linear-gradient-16"/><linearGradient id="linear-gradient-79" x1="1661.91" y1="578.52" x2="1666.04" y2="578.52" xlink:href="#linear-gradient-16"/><linearGradient id="linear-gradient-80" x1="1656.62" y1="589.73" x2="1660.97" y2="589.73" xlink:href="#linear-gradient-16"/><linearGradient id="linear-gradient-81" x1="1650.5" y1="600.53" x2="1655.07" y2="600.53" xlink:href="#linear-gradient-16"/><linearGradient id="linear-gradient-82" x1="1643.57" y1="610.83" x2="1648.36" y2="610.83" xlink:href="#linear-gradient-16"/><linearGradient id="linear-gradient-83" x1="1635.86" y1="620.56" x2="1640.85" y2="620.56" xlink:href="#linear-gradient-16"/><linearGradient id="linear-gradient-84" x1="1627.43" y1="629.68" x2="1632.6" y2="629.68" xlink:href="#linear-gradient-16"/><linearGradient id="linear-gradient-85" x1="1618.33" y1="638.12" x2="1623.66" y2="638.12" xlink:href="#linear-gradient-16"/><linearGradient id="linear-gradient-86" x1="1608.64" y1="645.88" x2="1614.12" y2="645.88" xlink:href="#linear-gradient-16"/><linearGradient id="linear-gradient-87" x1="1598.44" y1="652.94" x2="1604.03" y2="652.94" xlink:href="#linear-gradient-16"/><linearGradient id="linear-gradient-88" x1="1587.81" y1="659.3" x2="1593.49" y2="659.3" xlink:href="#linear-gradient-16"/><linearGradient id="linear-gradient-89" x1="1576.8" y1="664.99" x2="1582.56" y2="664.99" xlink:href="#linear-gradient-16"/><linearGradient id="linear-gradient-90" x1="1565.49" y1="670.04" x2="1571.31" y2="670.04" xlink:href="#linear-gradient-16"/><linearGradient id="linear-gradient-91" x1="1553.94" y1="674.6" x2="1559.79" y2="674.6" xlink:href="#linear-gradient-16"/><linearGradient id="linear-gradient-92" x1="1542.19" y1="678.39" x2="1548.07" y2="678.39" xlink:href="#linear-gradient-16"/><linearGradient id="linear-gradient-93" x1="1530.28" y1="681.81" x2="1536.17" y2="681.81" xlink:href="#linear-gradient-16"/><linearGradient id="linear-gradient-94" x1="1518.3" y1="684.64" x2="1524.18" y2="684.64" xlink:href="#linear-gradient-16"/><linearGradient id="linear-gradient-95" x1="1506.3" y1="687.42" x2="1512.15" y2="687.42" xlink:href="#linear-gradient-16"/><linearGradient id="linear-gradient-96" x1="1494.31" y1="690.59" x2="1500.12" y2="690.59" xlink:href="#linear-gradient-16"/><linearGradient id="linear-gradient-97" x1="1482.36" y1="693.49" x2="1488.12" y2="693.49" xlink:href="#linear-gradient-16"/><linearGradient id="linear-gradient-98" x1="1470.46" y1="696.89" x2="1476.18" y2="696.89" xlink:href="#linear-gradient-16"/><linearGradient id="linear-gradient-99" x1="1458.64" y1="700.48" x2="1464.3" y2="700.48" xlink:href="#linear-gradient-16"/><linearGradient id="linear-gradient-100" x1="1446.91" y1="704.3" x2="1452.52" y2="704.3" xlink:href="#linear-gradient-16"/><linearGradient id="linear-gradient-101" x1="1435.33" y1="708.4" x2="1440.86" y2="708.4" xlink:href="#linear-gradient-16"/><linearGradient id="linear-gradient-102" x1="1423.93" y1="713.19" x2="1429.37" y2="713.19" xlink:href="#linear-gradient-16"/><linearGradient id="linear-gradient-103" x1="1412.8" y1="718.4" x2="1418.12" y2="718.4" xlink:href="#linear-gradient-16"/><linearGradient id="linear-gradient-104" x1="1402.04" y1="724.28" x2="1407.21" y2="724.28" xlink:href="#linear-gradient-16"/><linearGradient id="linear-gradient-105" x1="1391.84" y1="731.09" x2="1396.78" y2="731.09" xlink:href="#linear-gradient-16"/><linearGradient id="linear-gradient-106" x1="1382.44" y1="738.94" x2="1387.07" y2="738.94" xlink:href="#linear-gradient-16"/><linearGradient id="linear-gradient-107" x1="1374.26" y1="748" x2="1378.45" y2="748" xlink:href="#linear-gradient-16"/><linearGradient id="linear-gradient-108" x1="1367.92" y1="758.36" x2="1371.66" y2="758.36" xlink:href="#linear-gradient-16"/><linearGradient id="linear-gradient-109" x1="1363.85" y1="769.86" x2="1366.71" y2="769.86" xlink:href="#linear-gradient-16"/><linearGradient id="linear-gradient-110" x1="1362.43" y1="782.06" x2="1364.24" y2="782.06" xlink:href="#linear-gradient-16"/><linearGradient id="linear-gradient-111" x1="1362.96" y1="793.13" x2="1364.68" y2="793.13" xlink:href="#linear-gradient-16"/><linearGradient id="linear-gradient-112" x1="1365.3" y1="846.03" x2="1326.07" y2="901.39" gradientUnits="userSpaceOnUse"><stop offset="0" stop-color="#ff928e"/><stop offset="1" stop-color="#feb3b1"/></linearGradient><linearGradient id="linear-gradient-113" x1="-10324.29" y1="1490.72" x2="-10349.84" y2="1606.93" gradientTransform="matrix(-1, 0, 0, 1, -9316.53, 0)" xlink:href="#linear-gradient"/><linearGradient id="linear-gradient-114" x1="1028.71" y1="1790.97" x2="1283.57" y2="1706.93" xlink:href="#linear-gradient-2"/><linearGradient id="linear-gradient-115" x1="1103.93" y1="1673.34" x2="1088.81" y2="1805.32" xlink:href="#linear-gradient-112"/><linearGradient id="linear-gradient-116" x1="1312.05" y1="1552.36" x2="1286.5" y2="1668.58" xlink:href="#linear-gradient"/><linearGradient id="linear-gradient-117" x1="1210.84" y1="1781.78" x2="1448.18" y2="1703.52" xlink:href="#linear-gradient-2"/><linearGradient id="linear-gradient-118" x1="1227.12" y1="1687.46" x2="1212" y2="1819.44" xlink:href="#linear-gradient-112"/><linearGradient id="linear-gradient-119" x1="1122.79" y1="1710.51" x2="1171.01" y2="1245.06" xlink:href="#linear-gradient"/><linearGradient id="linear-gradient-120" x1="1019.1" y1="1002.48" x2="1072.13" y2="850.24" gradientUnits="userSpaceOnUse"><stop offset="0" stop-color="#53d8ff"/><stop offset="1" stop-color="#3840f7"/></linearGradient><linearGradient id="linear-gradient-121" x1="1350.49" y1="982.67" x2="1405.3" y2="982.67" xlink:href="#linear-gradient-112"/><linearGradient id="linear-gradient-122" x1="975.9" y1="1238.43" x2="1109.8" y2="1238.43" xlink:href="#linear-gradient-112"/><linearGradient id="linear-gradient-123" x1="1137.34" y1="828.11" x2="1079.6" y2="1077.64" xlink:href="#linear-gradient-112"/><linearGradient id="linear-gradient-124" x1="-1991.56" y1="14.62" x2="-2093.99" y2="150.13" gradientTransform="translate(2997.79 64.02) rotate(-21.06)" xlink:href="#linear-gradient-112"/><linearGradient id="linear-gradient-125" x1="-2069.79" y1="47.16" x2="-1947.43" y2="47.16" gradientTransform="translate(2997.79 64.02) rotate(-21.06)" xlink:href="#linear-gradient"/><linearGradient id="linear-gradient-126" x1="-2141.59" y1="121.93" x2="-2059.42" y2="37.64" gradientTransform="translate(2997.79 64.02) rotate(-21.06)" xlink:href="#linear-gradient-112"/><linearGradient id="linear-gradient-127" x1="1542.13" y1="753.56" x2="1341.85" y2="931.59" gradientUnits="userSpaceOnUse"><stop offset="0" stop-color="#e1473d"/><stop offset="1" stop-color="#e9605a"/></linearGradient><linearGradient id="linear-gradient-128" x1="1410.27" y1="815.31" x2="1272.86" y2="1009.18" xlink:href="#linear-gradient"/><linearGradient id="linear-gradient-129" x1="1353.11" y1="866.28" x2="1387.63" y2="866.28" gradientUnits="userSpaceOnUse"><stop offset="0" stop-color="#fe7062"/><stop offset="1" stop-color="#ff928e"/></linearGradient><linearGradient id="linear-gradient-130" x1="1352.27" y1="878.46" x2="1322.6" y2="1021.05" xlink:href="#linear-gradient"/><linearGradient id="linear-gradient-131" x1="1569.72" y1="798.65" x2="1483.18" y2="830.8" xlink:href="#linear-gradient-112"/><linearGradient id="linear-gradient-132" x1="1742.22" y1="1364.09" x2="1747.03" y2="1364.09" xlink:href="#linear-gradient-16"/><linearGradient id="linear-gradient-133" x1="1735.1" y1="1374.2" x2="1739.93" y2="1374.2" xlink:href="#linear-gradient-16"/><linearGradient id="linear-gradient-134" x1="1727.45" y1="1383.89" x2="1732.27" y2="1383.89" xlink:href="#linear-gradient-16"/><linearGradient id="linear-gradient-135" x1="1719.34" y1="1393.21" x2="1724.14" y2="1393.21" xlink:href="#linear-gradient-16"/><linearGradient id="linear-gradient-136" x1="1710.78" y1="1402.1" x2="1715.55" y2="1402.1" xlink:href="#linear-gradient-16"/><linearGradient id="linear-gradient-137" x1="1701.73" y1="1410.55" x2="1706.53" y2="1410.55" xlink:href="#linear-gradient-16"/><linearGradient id="linear-gradient-138" x1="1692.21" y1="1418.46" x2="1697.07" y2="1418.46" xlink:href="#linear-gradient-16"/><linearGradient id="linear-gradient-139" x1="1682.22" y1="1425.77" x2="1687.13" y2="1425.77" xlink:href="#linear-gradient-16"/><linearGradient id="linear-gradient-140" x1="1671.75" y1="1432.37" x2="1676.72" y2="1432.37" xlink:href="#linear-gradient-16"/><linearGradient id="linear-gradient-141" x1="1660.8" y1="1438.16" x2="1665.83" y2="1438.16" xlink:href="#linear-gradient-16"/><linearGradient id="linear-gradient-142" x1="1649.4" y1="1443.02" x2="1654.49" y2="1443.02" xlink:href="#linear-gradient-16"/><linearGradient id="linear-gradient-143" x1="1637.59" y1="1446.78" x2="1642.76" y2="1446.78" xlink:href="#linear-gradient-16"/><linearGradient id="linear-gradient-144" x1="1625.47" y1="1449.35" x2="1630.71" y2="1449.35" xlink:href="#linear-gradient-16"/><linearGradient id="linear-gradient-145" x1="1613.17" y1="1450.61" x2="1618.43" y2="1450.61" xlink:href="#linear-gradient-16"/><linearGradient id="linear-gradient-146" x1="1600.83" y1="1450.51" x2="1606.07" y2="1450.51" xlink:href="#linear-gradient-16"/><linearGradient id="linear-gradient-147" x1="1588.59" y1="1449.06" x2="1593.77" y2="1449.06" xlink:href="#linear-gradient-16"/><linearGradient id="linear-gradient-148" x1="1576.6" y1="1446.31" x2="1581.67" y2="1446.31" xlink:href="#linear-gradient-16"/><linearGradient id="linear-gradient-149" x1="1564.95" y1="1442.38" x2="1569.9" y2="1442.38" xlink:href="#linear-gradient-16"/><linearGradient id="linear-gradient-150" x1="1553.63" y1="1437.47" x2="1558.51" y2="1437.47" xlink:href="#linear-gradient-16"/><linearGradient id="linear-gradient-151" x1="1542.34" y1="1432.38" x2="1547.27" y2="1432.38" xlink:href="#linear-gradient-16"/><linearGradient id="linear-gradient-152" x1="1531.05" y1="1427.28" x2="1536.03" y2="1427.28" xlink:href="#linear-gradient-16"/><linearGradient id="linear-gradient-153" x1="1519.75" y1="1422.2" x2="1524.79" y2="1422.2" xlink:href="#linear-gradient-16"/><linearGradient id="linear-gradient-154" x1="1508.44" y1="1417.15" x2="1513.53" y2="1417.15" xlink:href="#linear-gradient-16"/><linearGradient id="linear-gradient-155" x1="1497.1" y1="1412.15" x2="1502.25" y2="1412.15" xlink:href="#linear-gradient-16"/><linearGradient id="linear-gradient-156" x1="1485.73" y1="1407.22" x2="1490.94" y2="1407.22" xlink:href="#linear-gradient-16"/><linearGradient id="linear-gradient-157" x1="1474.31" y1="1402.41" x2="1479.58" y2="1402.41" xlink:href="#linear-gradient-16"/><linearGradient id="linear-gradient-158" x1="1462.79" y1="1397.75" x2="1468.18" y2="1397.75" xlink:href="#linear-gradient-16"/><linearGradient id="linear-gradient-159" x1="1451.18" y1="1393.3" x2="1456.71" y2="1393.3" xlink:href="#linear-gradient-16"/><linearGradient id="linear-gradient-160" x1="1439.46" y1="1389.16" x2="1445.14" y2="1389.16" xlink:href="#linear-gradient-16"/><linearGradient id="linear-gradient-161" x1="1427.59" y1="1385.4" x2="1433.44" y2="1385.4" xlink:href="#linear-gradient-16"/><linearGradient id="linear-gradient-162" x1="1415.57" y1="1382.18" x2="1421.58" y2="1382.18" xlink:href="#linear-gradient-16"/><linearGradient id="linear-gradient-163" x1="1403.38" y1="1379.65" x2="1409.55" y2="1379.65" xlink:href="#linear-gradient-16"/><linearGradient id="linear-gradient-164" x1="1391" y1="1378.01" x2="1397.4" y2="1378.01" xlink:href="#linear-gradient-16"/><linearGradient id="linear-gradient-165" x1="1378.55" y1="1377.57" x2="1385.16" y2="1377.57" xlink:href="#linear-gradient-16"/><linearGradient id="linear-gradient-166" x1="1366.13" y1="1378.13" x2="1372.9" y2="1378.13" xlink:href="#linear-gradient-16"/><linearGradient id="linear-gradient-167" x1="1353.85" y1="1380.02" x2="1360.76" y2="1380.02" xlink:href="#linear-gradient-16"/><linearGradient id="linear-gradient-168" x1="640.49" y1="395.74" x2="643.98" y2="395.74" xlink:href="#linear-gradient-16"/><linearGradient id="linear-gradient-169" x1="642.93" y1="407.83" x2="646.64" y2="407.83" xlink:href="#linear-gradient-16"/><linearGradient id="linear-gradient-170" x1="645.82" y1="419.82" x2="649.46" y2="419.82" xlink:href="#linear-gradient-16"/><linearGradient id="linear-gradient-171" x1="649.2" y1="431.71" x2="653.09" y2="431.71" xlink:href="#linear-gradient-16"/><linearGradient id="linear-gradient-172" x1="652.95" y1="443.47" x2="656.93" y2="443.47" xlink:href="#linear-gradient-16"/><linearGradient id="linear-gradient-173" x1="657.05" y1="455.09" x2="660.99" y2="455.09" xlink:href="#linear-gradient-16"/><linearGradient id="linear-gradient-174" x1="661.67" y1="466.56" x2="665.86" y2="466.56" xlink:href="#linear-gradient-16"/><linearGradient id="linear-gradient-175" x1="666.69" y1="477.83" x2="670.97" y2="477.83" xlink:href="#linear-gradient-16"/><linearGradient id="linear-gradient-176" x1="672.13" y1="488.87" x2="676.44" y2="488.87" xlink:href="#linear-gradient-16"/><linearGradient id="linear-gradient-177" x1="678.12" y1="499.65" x2="682.56" y2="499.65" xlink:href="#linear-gradient-16"/><linearGradient id="linear-gradient-178" x1="684.64" y1="510.1" x2="689.22" y2="510.1" xlink:href="#linear-gradient-16"/><linearGradient id="linear-gradient-179" x1="691.74" y1="520.16" x2="696.48" y2="520.16" xlink:href="#linear-gradient-16"/><linearGradient id="linear-gradient-180" x1="699.45" y1="529.75" x2="704.35" y2="529.75" xlink:href="#linear-gradient-16"/><linearGradient id="linear-gradient-181" x1="707.82" y1="538.76" x2="712.89" y2="538.76" xlink:href="#linear-gradient-16"/><linearGradient id="linear-gradient-182" x1="716.85" y1="547.09" x2="722.1" y2="547.09" xlink:href="#linear-gradient-16"/><linearGradient id="linear-gradient-183" x1="726.57" y1="554.6" x2="731.99" y2="554.6" xlink:href="#linear-gradient-16"/><linearGradient id="linear-gradient-184" x1="736.95" y1="561.17" x2="742.53" y2="561.17" xlink:href="#linear-gradient-16"/><linearGradient id="linear-gradient-185" x1="747.93" y1="566.7" x2="753.66" y2="566.7" xlink:href="#linear-gradient-16"/><linearGradient id="linear-gradient-186" x1="759.45" y1="570.86" x2="765.28" y2="570.86" xlink:href="#linear-gradient-16"/><linearGradient id="linear-gradient-187" x1="771.37" y1="574.21" x2="777.27" y2="574.21" xlink:href="#linear-gradient-16"/><linearGradient id="linear-gradient-188" x1="783.56" y1="576.37" x2="789.49" y2="576.37" xlink:href="#linear-gradient-16"/><linearGradient id="linear-gradient-189" x1="795.9" y1="576.63" x2="801.83" y2="576.63" xlink:href="#linear-gradient-16"/><linearGradient id="linear-gradient-190" x1="808.27" y1="576.49" x2="814.16" y2="576.49" xlink:href="#linear-gradient-16"/><linearGradient id="linear-gradient-191" x1="820.58" y1="575" x2="826.4" y2="575" xlink:href="#linear-gradient-16"/><linearGradient id="linear-gradient-192" x1="832.72" y1="572.39" x2="838.45" y2="572.39" xlink:href="#linear-gradient-16"/><linearGradient id="linear-gradient-193" x1="844.62" y1="569.11" x2="850.24" y2="569.11" xlink:href="#linear-gradient-16"/><linearGradient id="linear-gradient-194" x1="856.24" y1="564.52" x2="861.75" y2="564.52" xlink:href="#linear-gradient-16"/><linearGradient id="linear-gradient-195" x1="867.58" y1="559.47" x2="872.98" y2="559.47" xlink:href="#linear-gradient-16"/><linearGradient id="linear-gradient-196" x1="878.67" y1="554.06" x2="883.98" y2="554.06" xlink:href="#linear-gradient-16"/><linearGradient id="linear-gradient-197" x1="889.55" y1="548.01" x2="894.77" y2="548.01" xlink:href="#linear-gradient-16"/><linearGradient id="linear-gradient-198" x1="900.27" y1="541.79" x2="905.43" y2="541.79" xlink:href="#linear-gradient-16"/><linearGradient id="linear-gradient-199" x1="910.91" y1="535.5" x2="916.04" y2="535.5" xlink:href="#linear-gradient-16"/><linearGradient id="linear-gradient-200" x1="921.55" y1="529.24" x2="926.68" y2="529.24" xlink:href="#linear-gradient-16"/><linearGradient id="linear-gradient-201" x1="932.3" y1="523.13" x2="937.44" y2="523.13" xlink:href="#linear-gradient-16"/><linearGradient id="linear-gradient-202" x1="943.25" y1="517.31" x2="948.45" y2="517.31" xlink:href="#linear-gradient-16"/><linearGradient id="linear-gradient-203" x1="954.52" y1="512.39" x2="959.81" y2="512.39" xlink:href="#linear-gradient-16"/><linearGradient id="linear-gradient-204" x1="966.2" y1="508.62" x2="971.6" y2="508.62" xlink:href="#linear-gradient-16"/><linearGradient id="linear-gradient-205" x1="978.31" y1="506.39" x2="983.78" y2="506.39" xlink:href="#linear-gradient-16"/><linearGradient id="linear-gradient-206" x1="990.65" y1="505.99" x2="996.1" y2="505.99" xlink:href="#linear-gradient-16"/><linearGradient id="linear-gradient-207" x1="1002.83" y1="508.67" x2="1008.08" y2="508.67" xlink:href="#linear-gradient-16"/></defs><title>Монтажная область 2 copy 5</title><g class="cls-1"><g id="Layer_6" data-name="Layer 6"><path class="cls-2" d="M1130.9,12.93C538.66,12.93,58.56,493,58.56,1085.28c0,275.08,103.59,526,273.87,715.78H1929.37c170.28-189.83,273.87-440.7,273.87-715.78C2203.24,493,1723.14,12.93,1130.9,12.93Z"/><path class="cls-3" d="M2027.25,762.11a12.6,12.6,0,0,0-12.58-12.37h-416.1c-7,0-14.34,5.68-14.34,12.64v971.08c0,5.19,2.94,10.17,6.62,13.83a20.55,20.55,0,0,0,14.28,5.71l420.65-1.15a19.81,19.81,0,0,0,14-5.87,19.61,19.61,0,0,0,5.62-14Z"/><polygon class="cls-4" points="1788.29 818.55 1652.18 818.08 1652.23 801.05 1788.19 801.48 1788.29 818.55"/><polygon class="cls-4" points="1788.67 881.28 1651.99 880.66 1652.04 863.49 1788.56 864.07 1788.67 881.28"/><polygon class="cls-4" points="1789.04 944.53 1651.8 943.75 1651.86 926.44 1788.94 927.18 1789.04 944.53"/><polygon class="cls-4" points="1789.42 1008.3 1651.62 1007.37 1651.67 989.91 1789.32 990.81 1789.42 1008.3"/><polygon class="cls-4" points="1789.81 1072.61 1651.42 1071.51 1651.48 1053.91 1789.7 1054.96 1789.81 1072.61"/><polygon class="cls-4" points="1790.58 1202.84 1651.04 1201.41 1651.09 1183.52 1790.47 1184.89 1790.58 1202.84"/><polygon class="cls-4" points="1791.77 1402.34 1650.44 1400.4 1650.5 1382.04 1791.66 1383.93 1791.77 1402.34"/><polygon class="cls-4" points="1790.19 1137.45 1651.23 1136.19 1651.28 1118.44 1790.09 1119.66 1790.19 1137.45"/><polygon class="cls-4" points="1790.97 1268.78 1650.84 1267.18 1650.89 1249.13 1790.86 1250.68 1790.97 1268.78"/><polygon class="cls-4" points="1791.37 1335.27 1650.64 1333.51 1650.7 1315.31 1791.26 1317.03 1791.37 1335.27"/><polygon class="cls-4" points="1792.17 1469.97 1650.24 1467.86 1650.3 1449.35 1792.06 1451.41 1792.17 1469.97"/><polygon class="cls-4" points="1792.57 1538.19 1650.04 1535.89 1650.1 1517.22 1792.46 1519.47 1792.57 1538.19"/><polygon class="cls-4" points="1792.98 1607 1649.84 1604.52 1649.89 1585.69 1792.87 1588.11 1792.98 1607"/><polygon class="cls-4" points="1793.4 1676.4 1649.63 1673.73 1649.68 1654.74 1793.28 1657.35 1793.4 1676.4"/><polygon class="cls-4" points="1966.75 819.17 1829.78 818.7 1829.63 801.61 1966.45 802.05 1966.75 819.17"/><polygon class="cls-4" points="1967.86 882.1 1830.33 881.47 1830.18 864.25 1967.56 864.83 1967.86 882.1"/><polygon class="cls-4" points="1968.98 945.55 1830.87 944.77 1830.72 927.4 1968.67 928.14 1968.98 945.55"/><polygon class="cls-4" points="1970.11 1009.53 1831.43 1008.59 1831.28 991.08 1969.8 991.98 1970.11 1009.53"/><polygon class="cls-4" points="1971.25 1074.05 1831.99 1072.94 1831.83 1055.28 1970.94 1056.34 1971.25 1074.05"/><polygon class="cls-4" points="1973.56 1204.71 1833.12 1203.27 1832.96 1185.31 1973.24 1186.7 1973.56 1204.71"/><polygon class="cls-4" points="1977.09 1404.88 1834.85 1402.93 1834.69 1384.51 1976.76 1386.41 1977.09 1404.88"/><polygon class="cls-4" points="1972.4 1139.1 1832.55 1137.83 1832.39 1120.03 1972.08 1121.25 1972.4 1139.1"/><polygon class="cls-4" points="1974.72 1270.87 1833.69 1269.26 1833.53 1251.15 1974.4 1252.71 1974.72 1270.87"/><polygon class="cls-4" points="1975.9 1337.59 1834.27 1335.81 1834.11 1317.55 1975.58 1319.28 1975.9 1337.59"/><polygon class="cls-4" points="1978.29 1472.75 1835.43 1470.62 1835.27 1452.04 1977.96 1454.12 1978.29 1472.75"/><polygon class="cls-4" points="1979.5 1541.2 1836.03 1538.89 1835.86 1520.15 1979.16 1522.41 1979.5 1541.2"/><polygon class="cls-4" points="1980.72 1610.25 1836.62 1607.75 1836.46 1588.85 1980.38 1591.3 1980.72 1610.25"/><polygon class="cls-4" points="1981.95 1679.89 1837.22 1677.21 1837.06 1658.15 1981.61 1660.78 1981.95 1679.89"/><path class="cls-3" d="M813,888.11a19.51,19.51,0,0,0-20.31-19.24l-400,16a12.6,12.6,0,0,0-12.08,12.88L400.84,1753l404.51-4.94a19.53,19.53,0,0,0,19.29-19.8Z"/><polygon class="cls-5" points="489.69 1021.55 430.57 1021.61 427.63 936.23 487.12 936.23 489.69 1021.55"/><polygon class="cls-5" points="581.8 1021.32 525.57 1021.37 523.24 936.23 579.83 936.23 581.8 1021.32"/><polygon class="cls-5" points="675.96 1021.09 617.49 1021.14 615.75 936.23 674.59 936.23 675.96 1021.09"/><polygon class="cls-5" points="769.61 1020.86 711.46 1020.91 710.31 936.23 768.83 936.23 769.61 1020.86"/><polygon class="cls-5" points="493.86 1160.4 435.37 1160.79 432.49 1077.26 491.35 1077.02 493.86 1160.4"/><polygon class="cls-5" points="585.02 1159.81 529.37 1160.17 527.08 1076.88 583.08 1076.65 585.02 1159.81"/><polygon class="cls-5" points="678.2 1159.21 620.34 1159.58 618.63 1076.5 676.86 1076.27 678.2 1159.21"/><polygon class="cls-5" points="770.89 1158.6 713.33 1158.98 712.21 1076.12 770.12 1075.89 770.89 1158.6"/><polygon class="cls-5" points="497.95 1296.24 440.06 1296.85 437.24 1215.03 495.49 1214.56 497.95 1296.24"/><polygon class="cls-5" points="588.16 1295.3 533.09 1295.88 530.85 1214.28 586.27 1213.83 588.16 1295.3"/><polygon class="cls-5" points="680.4 1294.34 623.12 1294.94 621.45 1213.54 679.08 1213.08 680.4 1294.34"/><polygon class="cls-5" points="772.14 1293.38 715.17 1293.97 714.06 1212.8 771.38 1212.33 772.14 1293.38"/><polygon class="cls-5" points="501.95 1429.34 444.66 1430.16 441.89 1349.99 499.54 1349.3 501.95 1429.34"/><polygon class="cls-5" points="591.25 1428.06 536.74 1428.84 534.54 1348.88 589.39 1348.22 591.25 1428.06"/><polygon class="cls-5" points="682.55 1426.75 625.85 1427.56 624.21 1347.81 681.25 1347.12 682.55 1426.75"/><polygon class="cls-5" points="773.36 1425.45 716.97 1426.26 715.88 1346.71 772.62 1346.03 773.36 1425.45"/><polygon class="cls-5" points="505.88 1559.77 449.16 1560.8 446.45 1482.24 503.52 1481.33 505.88 1559.77"/><polygon class="cls-5" points="594.27 1558.17 540.31 1559.14 538.16 1480.78 592.46 1479.92 594.27 1558.17"/><polygon class="cls-5" points="684.66 1556.53 628.53 1557.55 626.92 1479.38 683.39 1478.48 684.66 1556.53"/><polygon class="cls-5" points="774.56 1554.9 718.73 1555.91 717.67 1477.94 773.84 1477.05 774.56 1554.9"/><polygon class="cls-5" points="509.73 1687.62 453.58 1688.84 450.92 1611.84 507.41 1610.73 509.73 1687.62"/><polygon class="cls-5" points="597.24 1685.7 543.81 1686.87 541.71 1610.06 595.46 1609 597.24 1685.7"/><polygon class="cls-5" points="686.72 1683.75 631.15 1684.96 629.58 1608.34 685.48 1607.24 686.72 1683.75"/><polygon class="cls-5" points="775.74 1681.81 720.46 1683.01 719.42 1606.57 775.03 1605.48 775.74 1681.81"/><path class="cls-6" d="M1628.74,1696.83c-.31,30.06-26.13,54.43-57.7,54.5l-763,1.66c-31.79.07-58.17-24.28-58.93-54.46L713.6,277.46a59.05,59.05,0,0,1,59.59-60.95l809.87,3.87a60.44,60.44,0,0,1,60,61.27Z"/><path class="cls-7" d="M1560,363.66c.22-32.46-26.41-59-59.51-59.11l-642.79-2.82c-33.3-.15-59.73,26.21-59,58.79l26.42,1208.25c.65,29.59,26.82,53.49,58.45,53.44l610.68-1c31.45,0,57.1-24,57.31-53.45Z"/><path class="cls-8" d="M1275.92,258.58a11.28,11.28,0,0,1-11.32,11.35l-167.29-.76a11.63,11.63,0,0,1-11.51-11.47h0a11.19,11.19,0,0,1,11.25-11.38l167.48.79a11.49,11.49,0,0,1,11.39,11.47Z"/><g class="cls-9"><polygon class="cls-10" points="957.61 1220.68 861.24 1125.01 864.82 1326.85 957.4 1220.91 957.61 1220.68"/><path class="cls-11" d="M1004.15,1266.9,868,1422.85l-1.38,1.6L870.5,1548c.31,11.85,6.66,23.26,16.7,31.69a58,58,0,0,0,32.38,12.93L1112,1374Z"/><polygon class="cls-12" points="889.94 1062.64 999.94 1172.3 1046.35 1218.56 1154.24 1326.11 1331.61 1124.66 1331.59 1124.64 1224.11 1015.7 1224.43 1015.69 1225.01 1015.38 1225.01 1015.36 1178.17 968.45 1177.73 968.5 1177.62 968.54 1177.54 968.5 1177.47 968.45 1067.41 857 848.09 635.19 856.36 999.04 889.94 1062.64"/><polygon class="cls-13" points="1004.45 1592.9 1332.69 1593.15 1157.74 1419.42 1004.45 1592.9"/><path class="cls-14" d="M1199.91,1371.66l222.24,221.55,20.31,0a57.28,57.28,0,0,0,36.49-12.75c9.87-8.2,15.67-19.34,16.09-31l9.24-249.81-127-128.77Z"/><polygon class="cls-15" points="1410.37 1112.37 1420.13 1122.31 1507.4 1211.24 1514.49 1015.61 1420.21 1122.31 1410.37 1112.37"/><path class="cls-16" d="M1063.67,759.47l176.38-205.11L1054.22,362.1l-153.39-1c-32.65-.21-58.17,25.63-57.37,57.95l2.92,119.27Z"/><polygon class="cls-17" points="1403.47 364.35 1148.29 362.71 1283.79 503.48 1403.47 364.35"/><polygon class="cls-18" points="1286.91 602.87 1110.57 807.19 1220.49 919.07 1266.75 966.16 1372.83 1075.7 1514.95 912.2 1514.95 912.18 1519.64 845.19 1520.03 844.82 1286.91 602.87"/><path class="cls-19" d="M1491.24,366.1,1330.68,552.17l193.86,201.35,12.2-329A57.29,57.29,0,0,0,1491.24,366.1Z"/></g><polygon class="cls-3" points="957.61 1220.68 861.24 1125.01 864.82 1326.85 957.4 1220.91 957.61 1220.68"/><path class="cls-3" d="M1004.15,1266.9,868,1422.85l-1.38,1.6L870.5,1548c.31,11.85,6.66,23.26,16.7,31.69a58,58,0,0,0,32.38,12.93L1112,1374Z"/><polygon class="cls-3" points="889.94 1062.64 999.94 1172.3 1046.35 1218.56 1154.24 1326.11 1331.61 1124.66 1331.59 1124.64 1224.11 1015.7 1224.43 1015.69 1225.01 1015.38 1225.01 1015.36 1178.17 968.45 1177.73 968.5 1177.62 968.54 1177.54 968.5 1177.47 968.45 1067.41 857 848.09 635.19 856.36 999.04 889.94 1062.64"/><polygon class="cls-3" points="1004.45 1592.9 1332.69 1593.15 1157.74 1419.42 1004.45 1592.9"/><path class="cls-3" d="M1199.91,1371.66l222.24,221.55,20.31,0a57.28,57.28,0,0,0,36.49-12.75c9.87-8.2,15.67-19.34,16.09-31l9.24-249.81-127-128.77Z"/><polygon class="cls-3" points="1410.37 1112.37 1420.13 1122.31 1507.4 1211.24 1514.49 1015.61 1420.21 1122.31 1410.37 1112.37"/><path class="cls-3" d="M1063.67,759.47l176.38-205.11L1054.22,362.1l-153.39-1c-32.65-.21-58.17,25.63-57.37,57.95l2.92,119.27Z"/><polygon class="cls-3" points="1403.47 364.35 1148.29 362.71 1283.79 503.48 1403.47 364.35"/><polygon class="cls-3" points="1286.91 602.87 1110.57 807.19 1220.49 919.07 1266.75 966.16 1372.83 1075.7 1514.95 912.2 1514.95 912.18 1519.64 845.19 1520.03 844.82 1286.91 602.87"/><path class="cls-3" d="M1491.24,366.1,1330.68,552.17l193.86,201.35,12.2-329A57.29,57.29,0,0,0,1491.24,366.1Z"/><path class="cls-20" d="M1098.79,449.17c-68.61-11.44-61.12,70.77-40.56,128.29s28,55,34.31,31.26C1092.54,608.72,1167.4,460.6,1098.79,449.17Zm-12.51,66.11a21.8,21.8,0,1,1,21.8-21.8A21.8,21.8,0,0,1,1086.28,515.28Z"/><path class="cls-21" d="M1356,1157.87c-77.36-12.89-68.91,79.81-45.74,144.67s31.64,62,38.69,35.25C1349,1337.79,1433.36,1170.77,1356,1157.87Zm-14.1,74.54a24.58,24.58,0,1,1,24.58-24.58A24.58,24.58,0,0,1,1341.9,1232.41Z"/><path class="cls-22" d="M1902,422c3-48.65-1.78-241.63-12.57-288.27s-71.62-46.23-118.82-45-194.33-3.65-247.76,0-45.43,71-36,165,15.63,132.6,24.14,191.64,131.74,57.22,175.91,55.77S1896.82,505.3,1902,422Z"/><path class="cls-23" d="M1506.78,280.57a1.24,1.24,0,0,1-1.23-1.11c-.73-7-1.49-14.38-2.27-22.18l-.57-5.77c-2.06-20.52-4-39.91-5-57.14a1.24,1.24,0,1,1,2.47-.14c1,17.18,2.91,36.54,5,57l.57,5.78c.78,7.79,1.54,15.16,2.27,22.16a1.24,1.24,0,0,1-1.1,1.36Z"/><path class="cls-23" d="M1499,195.53a1.23,1.23,0,0,1-1.23-1.16c-2.93-51.62,2.69-86.52,39.61-89.05,14.78-1,38-1.4,73.21-1.22a1.24,1.24,0,1,1,0,2.47h0c-35.1-.18-58.31.21-73,1.22-34.9,2.39-40.15,36.28-37.31,86.44a1.24,1.24,0,0,1-1.17,1.3Z"/><path class="cls-23" d="M1878.06,196.73a1.24,1.24,0,0,1-1.23-1.14c-1.79-22.42-3.79-38.47-5.92-47.71-9.89-42.7-68.48-41.13-107.25-40.09-3.59.09-8,.15-13.08.18h0a1.24,1.24,0,0,1,0-2.48c5.07,0,9.45-.08,13-.18,39.57-1,99.38-2.65,109.72,42,2.16,9.36,4.17,25.53,6,48.07a1.24,1.24,0,0,1-1.14,1.33Z"/><path class="cls-23" d="M1758.19,481.6a1.25,1.25,0,0,1-1.23-1.14,1.23,1.23,0,0,1,1.13-1.33c80.07-6.82,121.88-29.83,124.27-68.4,1.49-24.23.86-86.15-1.47-144a1.23,1.23,0,0,1,1.18-1.28,1.21,1.21,0,0,1,1.29,1.18c2.34,58,3,120,1.46,144.3-2.47,40-45,63.78-126.52,70.71Z"/><path class="cls-24" d="M1640,417.27a11.56,11.56,0,0,1-7.06-2.4l-60.21-46.43a11.44,11.44,0,0,1-4.49-9.15V193.9a8,8,0,0,1,11.79-7l55.52,30.18a9.18,9.18,0,0,0,8,.34l77.39-34a11.53,11.53,0,0,1,10,.33l76.33,39.67a11.63,11.63,0,0,1,6.22,10.6l-5,171.69a8,8,0,0,1-12.64,6.28l-62.62-44.64a9.06,9.06,0,0,0-10.11-.29l-76.95,48.48A11.57,11.57,0,0,1,1640,417.27Zm-63.78-228.89a5.5,5.5,0,0,0-5.51,5.52V359.29a9,9,0,0,0,3.53,7.19l60.21,46.43a9.12,9.12,0,0,0,10.39.5l76.94-48.48a11.52,11.52,0,0,1,12.87.37l62.62,44.63a5.52,5.52,0,0,0,8.73-4.34l5-171.68a9.14,9.14,0,0,0-4.89-8.33h0l-76.33-39.68a9,9,0,0,0-7.84-.25l-77.4,34a11.61,11.61,0,0,1-10.17-.43L1578.85,189A5.52,5.52,0,0,0,1576.22,188.38Z"/><path class="cls-24" d="M1639.94,415.73a1.23,1.23,0,0,1-1.23-1.23V220.39a1.24,1.24,0,0,1,2.47,0V414.5A1.23,1.23,0,0,1,1639.94,415.73Z"/><path class="cls-24" d="M1728.12,365c-.68,0-1.23-.24-1.24-.92l-2.15-179.78a1.18,1.18,0,0,1,1.23-1.17,1.29,1.29,0,0,1,1.25,1.26l2.14,179.64c0,.68-.54,1-1.22,1Z"/><path class="cls-22" d="M1869.59,1050.78c-38.63-4.79-192.54-11.55-230.14-6.13s-39.75,49.9-40.68,84.47-10.86,141.88-10.12,181.14,54.72,37,129.92,35.11,106.26-4.38,153.64-7.46,51-93.27,51.61-125.64S1935.71,1059,1869.59,1050.78Z"/><path class="cls-24" d="M1679.61,1334.6c-2.7,0-5.33,0-7.91,0a1.24,1.24,0,0,1,0-2.48h0c13.72.21,29.21-.18,45.61-.6l4.65-.11c6.23-.16,12.13-.32,17.74-.49a1.24,1.24,0,0,1,.08,2.48l-17.76.48-4.64.11C1704.05,1334.28,1691.31,1334.6,1679.61,1334.6Z"/><path class="cls-24" d="M1671.72,1334.55h0c-41.37-.61-69-6.63-69.54-34-.2-10.87.44-27.91,2-53.62a1.23,1.23,0,0,1,1.31-1.16,1.25,1.25,0,0,1,1.16,1.31c-1.58,25.64-2.22,42.62-2,53.43.47,25.38,27.17,31,67.1,31.56a1.24,1.24,0,0,1,0,2.48Z"/><path class="cls-24" d="M1612.25,1145.94h-.06a1.23,1.23,0,0,1-1.17-1.3c.19-3.78.32-6.9.39-9.52.78-29.11,1.95-73.1,38.19-78.32,7.55-1.09,20.52-1.7,38.56-1.82h0a1.24,1.24,0,0,1,0,2.47c-17.93.12-30.79.72-38.22,1.8-34.18,4.92-35.33,47.65-36.08,75.93-.07,2.65-.2,5.78-.39,9.59A1.24,1.24,0,0,1,1612.25,1145.94Z"/><path class="cls-24" d="M1910.18,1160.23a1.24,1.24,0,0,1-1.23-1.2c-2.15-58.72-18.7-90.41-49.2-94.19-19.23-2.38-68.58-5.21-114.78-6.58a1.24,1.24,0,0,1-1.2-1.27,1.22,1.22,0,0,1,1.27-1.2c46.27,1.37,95.72,4.21,115,6.6,31.88,3.95,49.16,36.43,51.36,96.55a1.25,1.25,0,0,1-1.19,1.29Z"/><g class="cls-25"><path class="cls-26" d="M1760.57,1147.82a21.13,21.13,0,1,1,21.12-21.13A21.16,21.16,0,0,1,1760.57,1147.82Zm0-39.78a18.65,18.65,0,1,0,18.65,18.65A18.67,18.67,0,0,0,1760.57,1108Z"/><path class="cls-26" d="M1756.68,1288.1c-3.89,0-7.48-.69-10-2.44-10.92-7.64-6.2-40.27,5.3-64.34,7.84-16.37,9.65-29,5.24-36.43-3-5-8.91-7.85-17.64-8.35a1.37,1.37,0,0,1-1.2-1c-.19-.9.24-1.48,3.06-3,2.51-1.31,24.88-12.38,38.19,1.88,11.73,12.57-.38,36.37-9.23,53.75-2.39,4.7-4.46,8.76-5.75,12-4.42,11-4.5,23.68-.19,30.74a12.32,12.32,0,0,0,9.81,6.13c2,.2,4.46.64,4.92,2.39.3,1.13-.35,2.25-1.91,3.34C1773.8,1285.23,1764.63,1288.1,1756.68,1288.1Zm-13.37-113.68c7.68,1.08,13.07,4.17,16,9.22,4.84,8.2,3.07,21.6-5.13,38.75-11.85,24.77-14.88,55.11-6.12,61.24,4.52,3.16,14.35,2.15,21.59-.13,4.34-1.38,6.43-2.77,7-3.4a7.72,7.72,0,0,0-2.62-.57,14.84,14.84,0,0,1-11.69-7.31c-5.47-9-3.83-23.35,0-32.94,1.34-3.33,3.43-7.44,5.85-12.19,8.51-16.73,20.17-39.64,9.62-50.94-3.78-4.06-8.86-6.21-15.08-6.38C1755,1169.55,1747.31,1172.46,1743.31,1174.42Z"/></g><path class="cls-27" d="M692.91,1337.61l1.33,3.49a1.36,1.36,0,1,1-2.55.93l-1.23-3.49a1.36,1.36,0,0,1,.76-1.79c.73-.26,1.69.12,1.69.85Z"/><path class="cls-28" d="M697.85,1349.15l1.14,3.44a1.47,1.47,0,0,1-2.74,1l-1.42-3.44a1.5,1.5,0,0,1,1-1.8c.71-.29.8.06,2,.77Z"/><path class="cls-29" d="M702.13,1360.49l1.54,3.37a1.36,1.36,0,1,1-2.48,1.14l-1.55-3.37a1.37,1.37,0,1,1,2.49-1.14Z"/><path class="cls-30" d="M707.43,1371.59l1.71,3.29a1.36,1.36,0,1,1-2.41,1.25l-1.71-3.3a1.36,1.36,0,1,1,2.41-1.25h0Z"/><path class="cls-31" d="M713.28,1382.41l1.87,3.2a1.34,1.34,0,0,1-2.32,1.35l-1.87-3.2a1.33,1.33,0,0,1,.48-1.84,1.35,1.35,0,0,1,1.84.48Z"/><path class="cls-32" d="M719.67,1392.9l2.05,3.1a1.33,1.33,0,1,1-2.22,1.46l-2-3.09a1.33,1.33,0,1,1,2.22-1.47Z"/><path class="cls-33" d="M726.64,1403l2.21,3a1.32,1.32,0,0,1-.27,1.84,1.3,1.3,0,0,1-1.84-.27l-2.22-3a1.32,1.32,0,0,1,.27-1.84,1.3,1.3,0,0,1,1.84.27Z"/><path class="cls-34" d="M734.17,1412.73l2.39,2.84a1.3,1.3,0,1,1-2,1.67l-2.4-2.83a1.3,1.3,0,1,1,2-1.68Z"/><path class="cls-35" d="M742.29,1421.94l2.56,2.68a1.28,1.28,0,1,1-1.85,1.78l-2.57-2.67a1.29,1.29,0,0,1,1.86-1.79Z"/><path class="cls-36" d="M751,1430.61l2.74,2.5a1.29,1.29,0,0,1,.08,1.8,1.27,1.27,0,0,1-1.8.08l-2.74-2.49a1.28,1.28,0,1,1,1.72-1.89Z"/><path class="cls-37" d="M760.23,1438.67l2.9,2.3a1.26,1.26,0,1,1-1.56,2l-2.91-2.29a1.27,1.27,0,0,1,1.57-2Z"/><path class="cls-38" d="M770,1446.05l3.06,2.09a1.25,1.25,0,0,1-1.41,2.06l-3.06-2.08a1.25,1.25,0,0,1,1.4-2.07Z"/><path class="cls-39" d="M780.33,1452.7l3.21,1.86a1.23,1.23,0,1,1-1.23,2.13l-3.22-1.85a1.24,1.24,0,0,1,1.24-2.14Z"/><path class="cls-40" d="M791.11,1458l3.33,1.91a1.4,1.4,0,0,1,.57,1.78,1.23,1.23,0,0,1-1.62.64l-3.35-1.57a1.58,1.58,0,0,1-.57-1.91,1.76,1.76,0,0,1,1.63-.85Z"/><path class="cls-41" d="M802.29,1464.15l3.45,1.09a1.07,1.07,0,0,1,.68,1.43,1.16,1.16,0,0,1-1.56.61l-3.45-1.38c-.63-.24-.93-.69-.69-1.32s.94-1.67,1.57-.43Z"/><path class="cls-42" d="M813.82,1467.86l3.54,1.07a1.18,1.18,0,1,1-.71,2.26l-3.54-1.09a1.18,1.18,0,0,1-.79-1.47c.2-.63.87-.77,1.5-.77Z"/><path class="cls-43" d="M825.63,1471.57l3.61.62a1.08,1.08,0,0,1,.88,1.31,1.14,1.14,0,0,1-1.41.83l-3.61-.85c-.64-.15-1-.59-.89-1.22s.78-.69,1.42-.69Z"/><path class="cls-44" d="M837.65,1474l3.66.37a1.07,1.07,0,0,1,1,1.23,1.13,1.13,0,0,1-1.33.92l-3.66-.6c-.64-.1-1.08-.5-1-1.14s.7-.78,1.34-.78Z"/><path class="cls-45" d="M849.82,1475.28l3.69.32a1.15,1.15,0,1,1-.2,2.29l-3.7-.33a1.13,1.13,0,0,1-1-1.24,1.18,1.18,0,0,1,1.25-1Z"/><path class="cls-46" d="M862.08,1476.51l3.71-.11a1.05,1.05,0,0,1,1.11,1.06,1.11,1.11,0,0,1-1.17,1.06l-3.71-.12c-.63,0-1.12-.34-1.11-1s.54-.92,1.17-.92Z"/><path class="cls-47" d="M874.36,1476.51l3.71-.35a1.06,1.06,0,0,1,1.17,1,1.07,1.07,0,0,1-1.07,1.12l-3.71.15c-.62,0-1.15-.28-1.17-.9a1,1,0,0,1,1.07-1Z"/><path class="cls-48" d="M886.62,1475.28l3.68-.42a1.12,1.12,0,0,1,.26,2.22l-3.68.43a1.12,1.12,0,0,1-1.24-1,1.08,1.08,0,0,1,1-1.25Z"/><path class="cls-49" d="M898.77,1474l3.64-.94a1,1,0,1,1,.42,2l-3.64.68c-.59.12-1.17,0-1.29-.65a.86.86,0,0,1,.87-1.07Z"/><path class="cls-50" d="M910.75,1470.33l3.58-.7a1.18,1.18,0,0,1,1.33.89,1.16,1.16,0,0,1-.75,1.41l-3.57,1c-.58.17-1.18-.44-1.34-1s.17-.37.75-1.61Z"/><path class="cls-51" d="M922.48,1467.86l3.47-1.58a1,1,0,0,1,1.38.49,1,1,0,0,1-.63,1.3l-3.48,1.26c-.55.21-1.17.2-1.38-.36s.08-1.11.63-1.11Z"/><path class="cls-52" d="M933.85,1462.91l3.35-1.69a1,1,0,0,1,1.41.45,1,1,0,0,1-.51,1.37l-3.34,1.57a1,1,0,0,1-1.41-.39c-.26-.53,0-1.31.5-1.31Z"/><path class="cls-53" d="M944.83,1457.14l3.27-1.75a1,1,0,0,1,1,1.83l-3.26,1.77a1.05,1.05,0,0,1-1-1.85Z"/><path class="cls-54" d="M955.65,1451.22l3.22-1.84a1,1,0,1,1,1,1.78l-3.21,1.85a1,1,0,1,1-1-1.79Z"/><path class="cls-55" d="M966.24,1444.94l3.13-2a1,1,0,1,1,1.09,1.71l-3.12,2a1,1,0,0,1-1.41-.31,1,1,0,0,1,.31-1.41Z"/><path class="cls-56" d="M976.47,1438.12l3-2.2a1,1,0,0,1,1.41.22,1,1,0,0,1-.22,1.4l-3,2.2a1,1,0,1,1-1.2-1.62Z"/><path class="cls-57" d="M986.13,1430.56l2.77-2.47a1,1,0,1,1,1.31,1.47l-2.76,2.47a1,1,0,1,1-1.32-1.47Z"/><path class="cls-58" d="M994.89,1422l2.41-2.82a1,1,0,0,1,1.48,1.26l-2.4,2.83a1,1,0,0,1-1.49-1.27Z"/><path class="cls-59" d="M1002.18,1412.3l1.8-3.24a1,1,0,1,1,1.69.93l-1.8,3.25a1,1,0,0,1-1.31.37,1,1,0,0,1-.38-1.31Z"/><path class="cls-60" d="M1006.94,1401.27l.92-3.61a1,1,0,0,1,1.17-.71,1,1,0,0,1,.72,1.14l-.83,3.61a1,1,0,0,1-1.21.72,1.11,1.11,0,0,1-.77-1.15Z"/><path class="cls-61" d="M1008.17,1389.32a1,1,0,0,0,.14-.58c0-.17.06-.38.05-.59s0-.2,0-.3l0-.34-.18-1.85a.94.94,0,0,1,1.86-.2s.11.93.21,1.85l0,.34,0,.38c0,.22,0,.42,0,.59l0,.58c0,.52-.53,1-1,1s-1.17-.36-1.17-.88Z"/><path class="cls-62" d="M1005.7,1377.52l-1.17-3.42a1,1,0,0,1,.62-1.2,1,1,0,0,1,1.27.49l1.48,3.42c.2.47-.27,1-.74,1.21s-.22,0-1.46-.49Z"/><path class="cls-63" d="M1000.32,1367.07l-2.49-2.75a.91.91,0,0,1,.07-1.28.9.9,0,0,1,1.28.06l2.49,2.75a.9.9,0,0,1-.06,1.28.92.92,0,0,1-1.29-.06Z"/><path class="cls-64" d="M991.29,1359.06l-3.22-1.8a.86.86,0,0,1-.33-1.2.88.88,0,0,1,1.21-.33l3.23,1.83a.86.86,0,0,1,.34,1.19c-.25.43-.79.31-1.22.31Z"/><path class="cls-65" d="M980.25,1354.12l-3.6-.8a.85.85,0,0,1-.66-1,.87.87,0,0,1,1.06-.63l3.61.86a.82.82,0,0,1,.66,1c-.12.48-.59.6-1.07.6Z"/><path class="cls-66" d="M968.28,1352.88l-3.71-.08a1,1,0,0,1-.89-.93.91.91,0,0,1,.84-.93l3.71-.14c.48,0,.88.54.9,1s-.37,1.06-.85,1.06Z"/><path class="cls-67" d="M956.26,1354.12l-3.54,1a.89.89,0,0,1-.5-1.7l3.55-1.09a.89.89,0,0,1,1.06.65c.14.45-.11,1.15-.57,1.15Z"/><path class="cls-68" d="M945.1,1359.06l-3.1,1.79a.88.88,0,0,1-1.16-.37.9.9,0,0,1,.24-1.22l3.09-2.08c.39-.26.91.09,1.17.48s.15.17-.24,1.4Z"/><path class="cls-69" d="M935.78,1366.21l-2.33,2.88a.82.82,0,0,1-1.16.12.83.83,0,0,1-.13-1.16l2.33-2.88a.84.84,0,0,1,1.17-.13.83.83,0,0,1,.12,1.17Z"/><path class="cls-70" d="M929.05,1376.33l-1.26,3.46a.76.76,0,0,1-1,.46.81.81,0,0,1-.44-1l1.35-3.46a.72.72,0,0,1,1-.46c.42.16.39.63.39,1Z"/><path class="cls-71" d="M926.58,1388l-.41,3.7a.92.92,0,0,1-.95.76.85.85,0,0,1-.81-.84l.17-3.7c0-.45.59-.79,1-.76a1,1,0,0,1,1,.84Z"/><path class="cls-72" d="M926.58,1400.11l.76,3.64a.77.77,0,1,1-1.52.3l-.73-3.63a.77.77,0,0,1,.59-.93.72.72,0,0,1,.9.62Z"/><path class="cls-73" d="M930.29,1411.89l1.13,3.46a.83.83,0,0,1-.55,1,.84.84,0,0,1-1.06-.44l-1.39-3.45c-.16-.4.25-.85.65-1s1.22,0,1.22.44Z"/><path class="cls-74" d="M935.23,1423.08l1.58,3.26a.8.8,0,0,1-.4,1,.81.81,0,0,1-1.07-.31l-1.8-3.25c-.21-.37.11-.83.48-1s1.21-.07,1.21.3Z"/><path class="cls-75" d="M941.41,1433.67l1.89,3.09a.76.76,0,0,1-.28,1,.8.8,0,0,1-1.08-.21l-2.08-3.08c-.23-.34,0-.81.36-1s1.19-.13,1.19.21Z"/><path class="cls-76" d="M947.59,1443.74l2.55,2.94a.71.71,0,0,1,0,1,.64.64,0,0,1-.95-.13l-2.23-2.94c-.25-.32-.46-.78-.14-1s.76-.19.76.14Z"/><path class="cls-77" d="M956.25,1453.35l2.23,2.82a.73.73,0,0,1-.17,1,.78.78,0,0,1-1.06-.08l-2.44-2.81c-.26-.3-.06-.75.25-1s0-.23,1.19.07Z"/><path class="cls-78" d="M964.06,1462.58l2.54,2.71a.71.71,0,0,1,0,1,.72.72,0,0,1-1,0l-2.54-2.71a.7.7,0,0,1,0-1,.71.71,0,0,1,1,0Z"/><path class="cls-79" d="M972.62,1471.48l2.63,2.61a.69.69,0,0,1,0,1,.68.68,0,0,1-1,0l-2.64-2.61a.69.69,0,0,1,1-1Z"/><path class="cls-80" d="M981.47,1480.08l2.71,2.53a.68.68,0,0,1,0,1,.67.67,0,0,1-1,0l-2.72-2.53a.68.68,0,0,1,.93-1Z"/><path class="cls-81" d="M990.58,1488.4l2.79,2.44a.66.66,0,0,1-.86,1l-2.81-2.43a.67.67,0,0,1-.07-.94.68.68,0,0,1,1-.07Z"/><path class="cls-82" d="M1000,1496.37l2.9,2.32a.65.65,0,0,1,.1.91.66.66,0,0,1-.92.11l-2.89-2.32a.66.66,0,0,1-.11-.92.65.65,0,0,1,.92-.1Z"/><path class="cls-83" d="M1009.72,1504l3,2.2a.64.64,0,0,1,.13.89.62.62,0,0,1-.88.14l-3-2.2a.64.64,0,0,1,.75-1Z"/><path class="cls-84" d="M1019.76,1511.13l3.07,2.07a.62.62,0,0,1-.69,1l-3.08-2.06a.63.63,0,0,1-.17-.87.62.62,0,0,1,.87-.17Z"/><path class="cls-85" d="M1030.09,1517.86l3.16,1.93a.62.62,0,0,1,.21.84.61.61,0,0,1-.84.2l-3.17-1.92a.62.62,0,0,1-.2-.85.6.6,0,0,1,.84-.2Z"/><path class="cls-86" d="M1040.72,1524.12l3.25,1.78a.6.6,0,1,1-.57,1l-3.26-1.78a.6.6,0,1,1,.58-1.05Z"/><path class="cls-87" d="M1675.8,541.54l-.43,3.63a1.26,1.26,0,0,1-1.5,1.1,1.35,1.35,0,0,1-1-1.64l.75-3.64c.15-.75.61-1.25,1.37-1.1s2.06.88.83,1.64Z"/><path class="cls-88" d="M1673.33,553.69l-.77,3.58a1.29,1.29,0,0,1-1.6,1,1.36,1.36,0,0,1-.94-1.69l1-3.58a1.22,1.22,0,0,1,1.52-1c.74.2.82,1,.82,1.69Z"/><path class="cls-89" d="M1669.62,565.64l-.89,3.51a1.22,1.22,0,0,1-1.58.86,1.32,1.32,0,0,1-.78-1.73l1.21-3.51c.24-.72.74-1.11,1.46-.87s1.81,1,.58,1.74Z"/><path class="cls-90" d="M1665.94,577.33l-1.44,3.42a1.35,1.35,0,0,1-2.49-1l1.42-3.42a1.36,1.36,0,0,1,2.51,1Z"/><path class="cls-91" d="M1660.83,588.69l-1.68,3.3a1.34,1.34,0,0,1-2.39-1.21l1.67-3.3a1.34,1.34,0,0,1,2.4,1.21Z"/><path class="cls-92" d="M1654.88,599.64,1653,602.8a1.32,1.32,0,0,1-2.26-1.37l1.92-3.17a1.33,1.33,0,1,1,2.27,1.37Z"/><path class="cls-93" d="M1648.11,610.09l-2.17,3a1.31,1.31,0,0,1-2.12-1.53l2.16-3a1.31,1.31,0,1,1,2.13,1.53Z"/><path class="cls-94" d="M1640.54,620l-2.4,2.83a1.29,1.29,0,0,1-2-1.67l2.39-2.83a1.3,1.3,0,1,1,2,1.67Z"/><path class="cls-95" d="M1632.23,629.26l-2.61,2.63a1.28,1.28,0,0,1-1.82-1.79l2.6-2.64a1.28,1.28,0,0,1,1.83,1.8Z"/><path class="cls-96" d="M1623.23,637.87l-2.81,2.42a1.26,1.26,0,1,1-1.65-1.9l2.79-2.44a1.27,1.27,0,0,1,1.79.13,1.26,1.26,0,0,1-.12,1.78Z"/><path class="cls-97" d="M1613.61,645.77l-3,2.22a1.25,1.25,0,1,1-1.5-2l3-2.22a1.25,1.25,0,0,1,1.5,2Z"/><path class="cls-98" d="M1603.46,653l-3.11,2a1.23,1.23,0,1,1-1.34-2.07l3.11-2a1.24,1.24,0,1,1,1.34,2.08Z"/><path class="cls-99" d="M1592.86,659.47l-3.24,1.8a1.22,1.22,0,1,1-1.19-2.13l3.23-1.81a1.23,1.23,0,1,1,1.2,2.14Z"/><path class="cls-100" d="M1581.87,665.28l-3.34,1.61a1.21,1.21,0,0,1-1.61-.57,1.19,1.19,0,0,1,.56-1.6l3.34-1.62a1.21,1.21,0,1,1,1,2.18Z"/><path class="cls-101" d="M1570.57,670.42l-3.43,1.43a1.19,1.19,0,1,1-.91-2.2l3.42-1.42a1.19,1.19,0,0,1,1.56.64c.26.61,0,1.55-.64,1.55Z"/><path class="cls-102" d="M1559,675.37l-3.49,1a1.25,1.25,0,0,1-.79-2.36l3.49-1.27a1.29,1.29,0,0,1,1.51.89c.22.62-.1,1.7-.71,1.7Z"/><path class="cls-103" d="M1547.24,679.08l-3.55,1a1.19,1.19,0,0,1-.68-2.27l3.55-1.1a1.21,1.21,0,0,1,1.45.85c.19.62-.15,1.53-.77,1.53Z"/><path class="cls-104" d="M1535.31,682.78l-3.59.71a1.24,1.24,0,0,1-1.4-.94,1.2,1.2,0,0,1,.82-1.45l3.59-1c.61-.16,1.24.42,1.4,1s-.2,1.61-.82,1.61Z"/><path class="cls-105" d="M1523.3,685.26l-3.6.91a1.13,1.13,0,0,1-1.37-.82,1.12,1.12,0,0,1,.84-1.35l3.6-.88a1.12,1.12,0,0,1,1.37.8c.15.61-.22,1.34-.83,1.34Z"/><path class="cls-106" d="M1511.28,687.73l-3.6,1.11a1,1,0,1,1-.53-2l3.61-.84c.6-.15,1.21,0,1.35.59a.85.85,0,0,1-.82,1.13Z"/><path class="cls-107" d="M1499.28,691.44l-3.6.73a1.16,1.16,0,0,1-1.34-.88,1.13,1.13,0,0,1,.8-1.37l3.6-.92a1.2,1.2,0,0,1,1.35,1c.14.59-.22,1.49-.81,1.49Z"/><path class="cls-108" d="M1487.31,693.91l-3.59,1.06a1,1,0,1,1-.55-2l3.58-.93a1,1,0,0,1,1.34.66.93.93,0,0,1-.78,1.23Z"/><path class="cls-109" d="M1475.39,697.62l-3.56.87a1.12,1.12,0,0,1-.59-2.16l3.57-1a1.16,1.16,0,0,1,1.33.87c.16.57-.17,1.46-.74,1.46Z"/><path class="cls-110" d="M1463.55,701.33l-3.54.83a1.16,1.16,0,0,1-1.33-.83,1.15,1.15,0,0,1,.7-1.4l3.54-1.13c.56-.18,1.16.39,1.34,1s-.14.34-.7,1.58Z"/><path class="cls-111" d="M1451.81,705l-3.51,1a1.14,1.14,0,0,1-.68-2.16l3.51-1.23c.55-.19,1.14.33,1.33.88s-.1.32-.65,1.56Z"/><path class="cls-112" d="M1440.19,708.75l-3.46,1.29a1,1,0,0,1-.74-1.95l3.46-1.34a1.06,1.06,0,0,1,1.34.63c.2.53-.06,1.37-.6,1.37Z"/><path class="cls-113" d="M1428.75,713.69l-3.4,1.27a1.09,1.09,0,0,1-.81-2l3.39-1.52c.52-.23,1.12.21,1.35.73s0,.31-.53,1.54Z"/><path class="cls-114" d="M1417.56,718.64l-3.31,1.55a1,1,0,0,1-.9-1.89l3.31-1.69a1.05,1.05,0,0,1,1.35.56c.25.49,0,1.47-.44,1.47Z"/><path class="cls-115" d="M1406.72,724.18l-3.18,1.91a1,1,0,0,1-1-1.7l3.18-1.91a1,1,0,0,1,1,1.7Z"/><path class="cls-116" d="M1396.38,730.79l-3,2.19a1,1,0,0,1-1.15-1.57l3-2.2a1,1,0,0,1,1.36.22,1,1,0,0,1-.21,1.36Z"/><path class="cls-117" d="M1386.77,738.39l-2.72,2.52a1,1,0,0,1-1.36,0,1,1,0,0,1,0-1.35l2.72-2.53a1,1,0,0,1,1.31,1.41Z"/><path class="cls-118" d="M1378.25,747.13,1376,750a.94.94,0,1,1-1.48-1.17l2.29-2.91a.95.95,0,1,1,1.49,1.17Z"/><path class="cls-119" d="M1371.66,757.14l-1.87,3.29a1,1,0,0,1-1.34.4,1,1,0,0,1-.44-1.25l1.68-3.3a1.11,1.11,0,0,1,1.41-.4,1.33,1.33,0,0,1,.56,1.26Z"/><path class="cls-120" d="M1366.71,768.31l-1,3.58a1,1,0,0,1-1.16.65.92.92,0,0,1-.66-1.11l.92-3.59a1,1,0,0,1,1.19-.66,1.09,1.09,0,0,1,.72,1.12Z"/><path class="cls-121" d="M1364.24,780.25l-.06,3.7a.87.87,0,0,1-.9.87.9.9,0,0,1-.85-.94l.15-3.7a.84.84,0,0,1,.86-.87.86.86,0,0,1,.8.94Z"/><path class="cls-122" d="M1364.24,792.43l.43,1.17a.81.81,0,0,1-.63,1,.82.82,0,0,1-.93-.76l-.13-1.17c-.07-.48,0-.93.51-1s.75.27.75.76Z"/><path class="cls-22" d="M762.19,877.31c-48.75,0-241.06,16.68-287,30.34S433.52,982,437.69,1029,446,1223.2,453,1276.3s73.7,41,166.87,25.79,131.38-23.79,189.78-35.92,49-135,44.8-179S845.62,877.31,762.19,877.31Z"/><path class="cls-24" d="M559.77,1294.84a1.24,1.24,0,0,1-.15-2.47c17.1-2,36.31-5.16,56.65-8.48l5.7-.93c7.73-1.26,15-2.47,22-3.63a1.23,1.23,0,0,1,1.42,1,1.24,1.24,0,0,1-1,1.43c-7,1.16-14.26,2.37-22,3.63l-5.7.93c-20.37,3.32-39.61,6.46-56.75,8.5Z"/><path class="cls-24" d="M525.3,1297.25c-32.14,0-53.08-8.76-56.71-36.46-1.92-14.7-3.75-37.89-5.74-73a1.24,1.24,0,1,1,2.47-.14c2,35,3.81,58.18,5.72,72.81,4.54,34.68,38.7,37.83,88.58,31.9a1.25,1.25,0,0,1,1.38,1.09,1.23,1.23,0,0,1-1.08,1.37A299.94,299.94,0,0,1,525.3,1297.25Z"/><path class="cls-24" d="M456.84,1049.11a1.23,1.23,0,0,1-1.23-1.15c-.34-5.07-.67-9.44-1-13-3.5-39.44-8.78-99,35.16-112.11,9.2-2.74,25.22-5.74,47.61-8.93a1.23,1.23,0,1,1,.34,2.44c-22.26,3.18-38.16,6.16-47.25,8.86-42,12.5-36.82,70.88-33.4,109.52.32,3.57.65,8,1,13a1.23,1.23,0,0,1-1.15,1.32Z"/><path class="cls-24" d="M829.28,1018.44a1.24,1.24,0,0,1-1.22-1.05c-11.74-79.5-37.29-119.81-75.94-119.81-24.27,0-86,4.45-143.68,10.36a1.24,1.24,0,0,1-.25-2.46c57.71-5.91,119.59-10.37,143.93-10.37,40.06,0,66.44,41,78.39,121.92a1.24,1.24,0,0,1-1,1.4Z"/><path class="cls-24" d="M575.91,1227.61a13.49,13.49,0,0,1-13.47-13.9l5.14-174.18a5.52,5.52,0,0,1,4.81-5.33l130.44-17a5.52,5.52,0,0,1,6,3.91l49.64,167.05a13.48,13.48,0,0,1-11.2,17.22l-169.63,22.12A12.87,12.87,0,0,1,575.91,1227.61Zm127.64-208-.4,0-130.44,17a3,3,0,0,0-2.66,2.94l-5.14,174.18A11,11,0,0,0,577.34,1225L747,1202.92a11,11,0,0,0,9.15-14.06h0l-49.64-167A3,3,0,0,0,703.55,1019.62Z"/><path class="cls-24" d="M597.83,1059.24a1.23,1.23,0,0,1-1.22-1.07l-8.38-64.25a28.84,28.84,0,0,1,24.85-32.3l31.8-4.15a28.85,28.85,0,0,1,32.31,24.85l8.38,64.25a1.24,1.24,0,0,1-2.45.32l-8.38-64.25a26.39,26.39,0,0,0-29.54-22.72l-31.8,4.15a26.38,26.38,0,0,0-22.72,29.53l8.38,64.25a1.22,1.22,0,0,1-1.07,1.38Z"/><path class="cls-24" d="M564.53,1200.73a1.24,1.24,0,0,1-.16-2.46l188.29-24.56a1.24,1.24,0,0,1,.32,2.46l-188.29,24.55Z"/><path class="cls-24" d="M604.75,1054.79a6.36,6.36,0,1,1-7.13-5.49A6.38,6.38,0,0,1,604.75,1054.79Z"/><path class="cls-24" d="M691.25,1043.51a6.36,6.36,0,1,1-7.13-5.49A6.36,6.36,0,0,1,691.25,1043.51Z"/><path class="cls-123" d="M1353.11,877.13s-5.51-10-4.92-18-4.4-19.79.92-18.92,6.41.16,7.85,9.78S1371.39,895.11,1353.11,877.13Z"/><path class="cls-124" d="M1096.33,1793c19.37-.54,29.39-2.82,34.56-4.94,0,1.93,0,3.89-.06,5.92a3.82,3.82,0,0,1-3.65,3.89l-106.34-.69c-3.4,0-5.38-4-3.91-7.07C1030.88,1791.25,1066.39,1793.83,1096.33,1793Z"/><path class="cls-125" d="M1126.36,1752.22A19.5,19.5,0,0,0,1107,1738l-8.88.28c-47.27,11.33-71.19,37.46-80.58,50.59a3.83,3.83,0,0,0-.42.8c13.94,1.15,49.45,3.73,79.39,2.89,19.37-.54,29.39-2.82,34.57-4.94A133.77,133.77,0,0,0,1126.36,1752.22Z"/><path class="cls-126" d="M1083.14,1707.76l7.43,35.75a5.84,5.84,0,0,0,5,4.81,49.37,49.37,0,0,0,11.5-.18c3.84-.56,6.5-4.46,5.82-8.64l-5.16-31.74Z"/><path class="cls-127" d="M1237,1793c-19.37-.54-29.39-2.82-34.57-4.94,0,1.93,0,3.89.06,5.92a3.83,3.83,0,0,0,3.65,3.89l106.35-.69c3.39,0,5.37-4,3.9-7.07C1302.49,1791.25,1267,1793.83,1237,1793Z"/><path class="cls-128" d="M1316.43,1790.1a4.1,4.1,0,0,0-.42-.8c-9.39-13.12-33.31-39.25-80.58-50.59l-22.67-.71s-10.1,17.55-10.29,50c5.18,2.12,15.2,4.4,34.57,4.94C1267,1793.83,1302.49,1791.25,1316.43,1790.1Z"/><path class="cls-129" d="M1208.55,1703.63c.26,1.69,3.36,27.38,4.57,37.34a4.93,4.93,0,0,0,4.16,4.46c3.86.46,10.11.88,15.57-.24a6.72,6.72,0,0,0,5.09-6.73v-40.33Z"/><path class="cls-130" d="M1190.36,1234.83s54.69,207.84,53.7,469.4a10.1,10.1,0,0,1-8,9.86c-6.87,1.45-17,3.17-25.35,2.94a9.39,9.39,0,0,1-9-7.85c-7.67-45-51.68-298.31-76.75-339.44,0,0-16.5,225.64-11.23,342.7a5.55,5.55,0,0,1-4.89,5.77,93.62,93.62,0,0,1-20.36,0,7.42,7.42,0,0,1-6.61-6.31c-5.46-38.06-36.9-264.61-35.57-427.8.08-9.21,24.34-49.22,24.34-49.22Z"/><path class="cls-131" d="M1019.88,1054.07c-14.87-40.69-9.48-89.82-9.42-90.31l4.1.47c-.06.48-5.34,48.67,9.19,88.42Z"/><path class="cls-132" d="M1401,1071.08c12.28-66.77-5.34-176.82-5.34-176.82l-24,24.87s-4,89.83-21.13,127C1361.73,1047.48,1383.52,1052.5,1401,1071.08Z"/><path class="cls-22" d="M1350.49,1046.14c-3.22,7-6.91,12.16-11.12,14.47-15.42,8.47-45.34-39.85-67.64-81.72-16-30.1-28.15-56.86-28.15-56.86-16-18.12-55.75-20.61-92.7-18.3a567,567,0,0,0-76.44,10.52l-.15,0c-17.71,2.33-33.08,4.28-44.19,5.69a53.07,53.07,0,0,0-33.43,18c-33.95,39.29-108.46,146.88-20.76,255.28,11.21-6.23,27.17-16.21,38-27.78-9.7-27.36-10.49-62.3,9.83-105.18a102,102,0,0,0,2.59,10.08c28.05,88.78,29.53,162.68,29.46,179.69a5.59,5.59,0,0,0,3.54,5.26c36.87,14.78,107.89,6,131.7,2.44a8,8,0,0,0,6.73-9.11c-7.11-51.5,12.29-123.19,32.15-179.35,116.54,115.49,158.16,71.88,171,1.82C1383.52,1052.5,1361.73,1047.48,1350.49,1046.14Z"/><path class="cls-133" d="M1079.05,1240c-10.12-5.68-49.37-30.06-65.15-74.52-10.83,11.56-26.78,21.55-38,27.78,16.76,20.71,39.44,41.46,69.46,61.76h0c1.07,23.11,18.83,31.66,22.89,39.14s-1.71,5.78.85,15.18,29.51-15,35.93-20.52,2.56-21,2.56-21a87.73,87.73,0,0,1,2.14-9.62C1111.44,1251.79,1079.18,1240,1079.05,1240Z"/><path class="cls-134" d="M1093.71,847.54l-7.11,72.63s40.86,12.31,70.58-8.66l-20.89-66Z"/><path class="cls-135" d="M1163.07,785.65c.48,1.26,2.53,90.52,2.53,90.52l-51,.09L1100.09,792S1154.94,764.55,1163.07,785.65Z"/><path class="cls-136" d="M1117.57,802.49a7.31,7.31,0,0,0-2.29,6l4.11,44.34a7.27,7.27,0,0,0,.45,1.95c1.36,3.47,6.57,14.16,17.42,8.23,9.25-5.06,17.83-9.58,24.79-9.8a7.32,7.32,0,0,1,7.49,7.22c.17,8.37.15,25.28-2,40.3a7.3,7.3,0,0,1-7.7,6.22c-10-.63-29.53-2.45-45.2-7.49a7.3,7.3,0,0,1-5-5.65c-2.16-11.7-8.35-44.48-11.52-53.47-3-8.34-14.4-11.23-19.75-12.14a7.39,7.39,0,0,1-4.94-3.23c-3.39-5.16-8.27-16.31,5.16-24.77a7.32,7.32,0,0,0,2.27-10c-3.64-6.07-6.26-15.42,4.36-23.42s21.17-4.28,27.55-.2a7.6,7.6,0,0,0,9.11-.54,4.85,4.85,0,0,1,4.7-1,7.12,7.12,0,0,0,8.8-5c1.74-6.67,6.45-14.16,18.76-14.84,22.58-1.23,30.53,22.29,28,37.7s-27.07,15.37-40.4,10.93C1132,790.56,1122.14,798.2,1117.57,802.49Z"/><path class="cls-137" d="M1099.86,856.74s3.22-27-7.35-31.09-23.44,2.25-16.32,19.69C1085.06,867,1099.86,856.74,1099.86,856.74Z"/><path class="cls-138" d="M1230.76,1066.82h-.16a1.28,1.28,0,0,1-1.12-1.43c.07-.57,7-56.64,3.23-72.79a1.28,1.28,0,0,1,1-1.54,1.27,1.27,0,0,1,1.54,1c3.86,16.59-2.89,71.36-3.18,73.69A1.29,1.29,0,0,1,1230.76,1066.82Z"/><path class="cls-139" d="M1393.29,817.61a5.05,5.05,0,0,0-6.19-4.74l-36.67,8.34a2.87,2.87,0,0,0-2.22,3.12l10.66,95.32a1.56,1.56,0,0,0,1.73,1.37l32-3.88a5.07,5.07,0,0,0,4.46-5.24Z"/><path class="cls-140" d="M1383,823.11a2.87,2.87,0,0,0-3.57-2.63l-24.13,6a2.88,2.88,0,0,0-2.15,3.11l9.15,81.18a1.56,1.56,0,0,0,.62,1.07,1.59,1.59,0,0,0,1.2.28l22.25-4a1.54,1.54,0,0,0,1.27-1.61Z"/><path class="cls-141" d="M1369.11,820.92c.06.29-.34.61-.88.73l-8.07,1.67c-.55.11-1,0-1.1-.32l-.06-.28c-.06-.28.34-.61.89-.72l8.06-1.67c.55-.12,1,0,1.1.31Z"/><path class="cls-142" d="M1406,841.83c-5.93-2.19-17.52-22.25-19.74-15.65s.93,15.65,0,18.45-7.36,18.41-4.47,25.58c2.08,5.18,5.52,21.11,7.27,29.58a6.06,6.06,0,0,0,11.86,0C1401.19,898.67,1412,844,1406,841.83Z"/><path class="cls-143" d="M1746.79,1363.32l-2,3.09h0a1.37,1.37,0,0,1-2.3-1.5l2-3.11v0a1.4,1.4,0,0,1,2.35,1.51Z"/><path class="cls-144" d="M1739.66,1373.52l-2.24,3a1.29,1.29,0,0,1-2.07-1.55l2.2-3a1.32,1.32,0,1,1,2.12,1.57Z"/><path class="cls-145" d="M1732,1383.28l-2.39,2.83a1.21,1.21,0,0,1-1.87-1.55l2.35-2.87a1.25,1.25,0,0,1,1.75-.17,1.24,1.24,0,0,1,.17,1.74Z"/><path class="cls-146" d="M1723.83,1392.64l-2.52,2.72a1.14,1.14,0,0,1-1.68-1.54l2.49-2.75a1.16,1.16,0,0,1,1.72,1.56Z"/><path class="cls-147" d="M1715.22,1401.59l-2.65,2.58a1.05,1.05,0,0,1-1.48-1.5l2.62-2.62a1.08,1.08,0,0,1,1.52,1.53Z"/><path class="cls-148" d="M1706.18,1410.09l-2.78,2.45a1,1,0,0,1-1.33-1.51l2.77-2.46a1,1,0,0,1,1.43.08,1,1,0,0,1-.08,1.44Z"/><path class="cls-149" d="M1696.69,1418.09l-2.93,2.28a1,1,0,1,1-1.18-1.51l2.91-2.3a1,1,0,0,1,1.21,1.53Z"/><path class="cls-150" d="M1686.72,1425.5l-3.06,2.08a.92.92,0,0,1-1-1.52l3.05-2.1a.93.93,0,1,1,1.06,1.54Z"/><path class="cls-151" d="M1676.27,1432.22l-3.2,1.85a.88.88,0,1,1-.89-1.52l3.2-1.87a.89.89,0,1,1,.9,1.54Z"/><path class="cls-152" d="M1665.35,1438.14l-3.35,1.59a.84.84,0,0,1-.73-1.51l3.34-1.62a.87.87,0,0,1,1.14.4.85.85,0,0,1-.4,1.13Z"/><path class="cls-153" d="M1654,1443.13l-3.47,1.29a.81.81,0,0,1-.56-1.51l3.46-1.3a.82.82,0,0,1,1,.48c.15.42-.06,1-.48,1Z"/><path class="cls-154" d="M1642.17,1447.08l-3.58,1a.8.8,0,0,1-1-.56.81.81,0,0,1,.56-1l3.58-1a.79.79,0,0,1,1,.56.8.8,0,0,1-.57,1Z"/><path class="cls-155" d="M1630,1449.84l-3.66.57a.78.78,0,0,1-.9-.65.8.8,0,0,1,.66-.9l3.66-.58a.79.79,0,1,1,.24,1.56Z"/><path class="cls-156" d="M1617.69,1451.3l-3.7.17a.78.78,0,0,1-.82-.74.77.77,0,0,1,.74-.81l3.7-.18a.78.78,0,0,1,.08,1.56Z"/><path class="cls-157" d="M1605.25,1451.4l-3.7-.24a.77.77,0,0,1,.1-1.54l3.7.23a.78.78,0,0,1-.1,1.55Z"/><path class="cls-158" d="M1592.88,1450.13l-3.66-.64a.76.76,0,1,1,.27-1.5l3.65.63a.77.77,0,0,1-.26,1.51Z"/><path class="cls-159" d="M1580.71,1447.54l-3.56-1a.75.75,0,0,1,.41-1.45l3.56,1a.76.76,0,1,1-.41,1.46Z"/><path class="cls-160" d="M1568.88,1443.75l-3.45-1.35a.74.74,0,0,1-.43-1,.75.75,0,0,1,1-.43l3.46,1.34a.75.75,0,0,1-.55,1.4Z"/><path class="cls-161" d="M1557.46,1438.92l-3.38-1.52a.76.76,0,1,1,.62-1.38h0l3.38,1.54a.75.75,0,0,1,.37,1A.74.74,0,0,1,1557.46,1438.92Z"/><path class="cls-162" d="M1546.18,1433.85l-3.38-1.52a.78.78,0,0,1,.64-1.43h0l3.37,1.54a.77.77,0,0,1-.64,1.41Z"/><path class="cls-163" d="M1534.91,1428.77l-3.38-1.52a.8.8,0,1,1,.66-1.46h0l3.38,1.53a.8.8,0,0,1,.39,1.06A.78.78,0,0,1,1534.91,1428.77Z"/><path class="cls-164" d="M1523.63,1423.71l-3.39-1.51a.84.84,0,0,1-.41-1.1.82.82,0,0,1,1.09-.41h0l3.38,1.52a.82.82,0,0,1-.67,1.5Z"/><path class="cls-165" d="M1512.34,1418.68l-3.39-1.5a.85.85,0,1,1,.69-1.56h0l3.39,1.51a.85.85,0,0,1-.69,1.55Z"/><path class="cls-166" d="M1501,1413.69l-3.4-1.48a.88.88,0,0,1,.7-1.61h0l3.39,1.5a.86.86,0,0,1,.44,1.15A.85.85,0,0,1,1501,1413.69Z"/><path class="cls-167" d="M1489.69,1408.78l-3.41-1.46a.9.9,0,0,1,.71-1.65h0l3.41,1.47a.88.88,0,0,1,.46,1.17A.89.89,0,0,1,1489.69,1408.78Z"/><path class="cls-168" d="M1478.31,1404l-3.43-1.41a.93.93,0,0,1-.5-1.21.92.92,0,0,1,1.21-.5h0l3.43,1.43a.92.92,0,1,1-.71,1.69Z"/><path class="cls-169" d="M1466.87,1399.33l-3.46-1.35a1,1,0,1,1,.72-1.82h0l3.45,1.39a1,1,0,0,1-.71,1.78Z"/><path class="cls-170" d="M1455.34,1394.91l-3.48-1.27a1,1,0,1,1,.71-2h0l3.47,1.31a1,1,0,0,1-.71,1.9Z"/><path class="cls-171" d="M1443.72,1390.78l-3.52-1.18a1.09,1.09,0,0,1-.69-1.38,1.1,1.1,0,0,1,1.39-.69h0l3.5,1.2a1.09,1.09,0,0,1,.67,1.37A1.07,1.07,0,0,1,1443.72,1390.78Z"/><path class="cls-172" d="M1432,1387l-3.57-1a1.15,1.15,0,0,1,.64-2.21h0l3.56,1.07a1.13,1.13,0,0,1-.64,2.17Z"/><path class="cls-173" d="M1420.11,1383.78l-3.61-.85a1.21,1.21,0,0,1-.9-1.45,1.22,1.22,0,0,1,1.46-.9h0l3.6.89a1.19,1.19,0,0,1-.56,2.31Z"/><path class="cls-174" d="M1408.1,1381.21l-3.66-.61a1.27,1.27,0,1,1,.42-2.5h0l3.66.66a1.24,1.24,0,0,1-.43,2.45Z"/><path class="cls-175" d="M1396,1379.53l-3.69-.31a1.37,1.37,0,0,1-1.25-1.48,1.35,1.35,0,0,1,1.47-1.24h0l3.69.37a1.34,1.34,0,0,1-.25,2.66Z"/><path class="cls-176" d="M1383.74,1378.89l-3.71,0a1.29,1.29,0,1,1,0-2.56h0l3.71-.16a1.34,1.34,0,1,1,0,2.68Z"/><path class="cls-177" d="M1371.54,1379.44l-3.68.41a1.55,1.55,0,0,1-.35-3.09h0l3.69-.35a1.53,1.53,0,0,1,.31,3Z"/><path class="cls-178" d="M1359.47,1381.22l-3.62.78a1.65,1.65,0,0,1-.7-3.23h0l3.64-.72a1.62,1.62,0,0,1,.65,3.18Z"/><path class="cls-22" d="M457.8,114.34c0,38.93,12.22,192.51,22.21,229.15s54.41,33.32,88.84,30,142.14-6.67,181-12.22,30-58.85,18.88-133.25S751.32,123.09,742.44,76.45s-98.83-39.11-131-35.78S457.8,47.72,457.8,114.34Z"/><path class="cls-24" d="M762.52,277.22a1.23,1.23,0,0,1-1.23-1.1c-1.49-13.64-3.78-29-6.21-45.21l-.68-4.57c-.92-6.17-1.81-12-2.66-17.56a1.23,1.23,0,0,1,2.44-.37c.86,5.55,1.74,11.39,2.66,17.56l.69,4.57c2.43,16.26,4.72,31.62,6.22,45.31a1.25,1.25,0,0,1-1.1,1.37Z"/><path class="cls-24" d="M685,353.63a1.24,1.24,0,0,1-.07-2.47c25.28-1.56,42.7-3.05,53.26-4.56,25.14-3.59,27.41-30.77,23.08-70.48a1.24,1.24,0,0,1,2.46-.27c4.48,41.14,1.91,69.32-25.19,73.2-10.77,1.53-27.76,3-53.46,4.58Z"/><path class="cls-24" d="M544.59,362c-23.46,0-47-5.32-53.77-30.09-2-7.35-4.21-20.15-6.54-38a1.24,1.24,0,1,1,2.45-.32c2.32,17.77,4.5,30.45,6.48,37.7,9.08,33.32,51.64,29.2,79.8,26.47,2.63-.25,5.76-.51,9.56-.79a1.25,1.25,0,0,1,1.32,1.15,1.23,1.23,0,0,1-1.14,1.32c-3.78.27-6.89.53-9.51.78C564.58,361,554.59,362,544.59,362Z"/><path class="cls-24" d="M479.32,238.46a1.24,1.24,0,0,1-1.23-1.13c-4.33-46.08-7.59-95.5-7.59-115,0-32.12,30.12-53.27,89.51-62.84A1.24,1.24,0,1,1,560.4,62c-58,9.35-87.43,29.67-87.43,60.4,0,19.38,3.26,68.7,7.58,114.72a1.23,1.23,0,0,1-1.11,1.35Z"/><path class="cls-179" d="M643.36,393.68l.6,3.64a1.42,1.42,0,0,1-2.79.49h0l-.66-3.64a1.46,1.46,0,0,1,1.22-1.63c.77-.13,1.72.37,1.72,1.13h0Z"/><path class="cls-180" d="M645.93,405.72l.68,3.61a1.43,1.43,0,0,1-1.12,1.66,1.41,1.41,0,0,1-1.68-1l-.85-3.61a1.47,1.47,0,0,1,1.17-1.66c.75-.17,1.8.29,1.8,1Z"/><path class="cls-181" d="M648.4,417.68l1,3.58a1.34,1.34,0,1,1-2.59.71l-1-3.58a1.33,1.33,0,0,1,.91-1.68c.73-.2,1.62.24,1.62,1Z"/><path class="cls-182" d="M652.11,429.54l.93,3.55a1.4,1.4,0,0,1-2.69.79l-1.1-3.55a1.43,1.43,0,0,1,1-1.69c.72-.22,1.83.18,1.83.9Z"/><path class="cls-183" d="M655.82,441.28l1,3.51a1.38,1.38,0,0,1-.91,1.7,1.36,1.36,0,0,1-1.73-.83L653,442.15a1.41,1.41,0,0,1,1-1.7c.7-.25,1.84.13,1.84.83Z"/><path class="cls-184" d="M659.53,452.89l1.37,3.46a1.32,1.32,0,0,1-.74,1.72,1.3,1.3,0,0,1-1.69-.77l-1.32-3.46a1.29,1.29,0,0,1,.71-1.72c.69-.26,1.67.08,1.67.77Z"/><path class="cls-185" d="M664.47,464.34l1.3,3.41a1.37,1.37,0,0,1-2.53,1l-1.48-3.41a1.4,1.4,0,0,1,.84-1.73c.67-.28,1.87,0,1.87.7Z"/><path class="cls-186" d="M669.42,475.6l1.44,3.35a1.33,1.33,0,0,1-.69,1.73,1.35,1.35,0,0,1-1.77-.62l-1.61-3.35a1.36,1.36,0,0,1,.75-1.73c.65-.31,1.88,0,1.88.61Z"/><path class="cls-187" d="M674.56,486.64l1.73,3.27a1.29,1.29,0,1,1-2.27,1.21l-1.74-3.28a1.29,1.29,0,0,1,2.28-1.21Z"/><path class="cls-188" d="M680.49,497.41l1.89,3.19a1.27,1.27,0,0,1-2.19,1.3l-1.89-3.19a1.27,1.27,0,0,1,2.19-1.3Z"/><path class="cls-189" d="M687,507.86,689,511a1.26,1.26,0,0,1-2.09,1.4l-2.06-3.08a1.26,1.26,0,0,1,2.09-1.41Z"/><path class="cls-190" d="M694,517.93l2.24,3a1.24,1.24,0,0,1-2,1.5L692,519.44a1.25,1.25,0,1,1,2-1.51Z"/><path class="cls-191" d="M701.62,527.54l2.43,2.8A1.23,1.23,0,0,1,702.2,532l-2.44-2.79a1.23,1.23,0,1,1,1.86-1.62Z"/><path class="cls-192" d="M709.9,536.59l2.63,2.61a1.22,1.22,0,1,1-1.71,1.73l-2.64-2.6a1.22,1.22,0,0,1,1.71-1.74Z"/><path class="cls-193" d="M718.84,545l2.83,2.39a1.2,1.2,0,1,1-1.54,1.84l-2.85-2.38a1.21,1.21,0,1,1,1.55-1.85Z"/><path class="cls-194" d="M728.45,552.57l3,2.12a1.19,1.19,0,0,1-1.36,1.95l-3-2.11a1.2,1.2,0,1,1,1.37-2Z"/><path class="cls-195" d="M738.71,559.24l3.22,1.82a1.18,1.18,0,1,1-1.15,2.05l-3.23-1.81a1.18,1.18,0,0,1,1.15-2.06Z"/><path class="cls-196" d="M749.57,565.33l3.39,1.26a1,1,0,0,1,.6,1.41,1.13,1.13,0,0,1-1.52.55l-3.4-1.51a.94.94,0,0,1-.61-1.32c.26-.59.94-1.62,1.53-.39Z"/><path class="cls-197" d="M761,569l3.53,1.29a1.23,1.23,0,0,1,.75,1.52,1.17,1.17,0,0,1-1.44.79l-3.54-1.1a1.33,1.33,0,0,1-.75-1.6A1.46,1.46,0,0,1,761,569Z"/><path class="cls-198" d="M772.74,572.75l3.63.72a1.1,1.1,0,0,1,.88,1.32,1.12,1.12,0,0,1-1.34.86l-3.63-.76a1.1,1.1,0,0,1-.89-1.3c.13-.62.74-.84,1.35-.84Z"/><path class="cls-199" d="M784.81,575.22l3.69.22a1,1,0,0,1,1,1.14,1.09,1.09,0,0,1-1.24.93l-3.7-.45c-.61-.07-1.06-.43-1-1s.63-.79,1.25-.79Z"/><path class="cls-200" d="M797,575.22l3.71.37a1.26,1.26,0,0,1,1.09,1.28A1.18,1.18,0,0,1,800.7,578L797,578c-.62,0-1.1-.8-1.09-1.41s.51-1.37,1.13-1.37Z"/><path class="cls-201" d="M809.29,575.22l3.7-.06a1.19,1.19,0,0,1,1.17,1.12,1.13,1.13,0,0,1-1,1.22l-3.71.32a1.27,1.27,0,0,1-1.17-1.22c0-.6.4-1.38,1-1.38Z"/><path class="cls-202" d="M821.48,574l3.66-.44a1.14,1.14,0,0,1,1.24,1,1.12,1.12,0,0,1-.88,1.29l-3.66.65a1.22,1.22,0,0,1-1.25-1.06c-.1-.59.3-1.41.89-1.41Z"/><path class="cls-203" d="M833.52,571.51l3.59-.71a1.15,1.15,0,0,1,1.3.88,1.12,1.12,0,0,1-.76,1.35l-3.59,1a1.21,1.21,0,0,1-1.31-1c-.15-.57.2-1.51.77-1.51Z"/><path class="cls-204" d="M845.33,569l3.52-1.43a1,1,0,1,1,.67,1.81L846,570.59c-.55.19-1.15.12-1.34-.43a.78.78,0,0,1,.66-1.12Z"/><path class="cls-205" d="M856.88,564.1l3.43-1.3a1.08,1.08,0,0,1,.8,2l-3.43,1.44a1.1,1.1,0,0,1-1.36-.68c-.22-.53,0-1.47.56-1.47Z"/><path class="cls-206" d="M868.17,559.15l3.35-1.46a1,1,0,0,1,1.36.55,1.06,1.06,0,0,1-.48,1.4l-3.34,1.62a1.1,1.1,0,0,1-1.38-.61c-.24-.51,0-1.5.49-1.5Z"/><path class="cls-207" d="M879.21,554.2l3.28-1.86a1,1,0,0,1,1.37.36,1,1,0,0,1-.42,1.33l-3.28,1.73a1,1,0,0,1-1.37-.3c-.26-.5-.08-1.26.42-1.26Z"/><path class="cls-208" d="M890.06,548l3.22-1.81a1,1,0,0,1,1,1.75l-3.22,1.84a1,1,0,0,1-1.37-.39c-.27-.48-.11-1.39.37-1.39Z"/><path class="cls-209" d="M900.75,541.84,904,540a1,1,0,0,1,1,1.72l-3.19,1.89a1,1,0,0,1-1.35-.37c-.28-.47-.13-1.38.34-1.38Z"/><path class="cls-210" d="M911.38,535.66l3.19-1.94a1,1,0,0,1,1.33.32,1,1,0,0,1-.33,1.32l-3.19,1.91a1,1,0,0,1-1.33-.31c-.28-.46-.13-1.3.33-1.3Z"/><path class="cls-211" d="M922,529.48l3.21-2a1,1,0,0,1,1.31.3.93.93,0,0,1-.35,1.28L923,531a.94.94,0,0,1-1.32-.25c-.26-.46-.11-1.22.35-1.22Z"/><path class="cls-212" d="M932.79,523.3l3.26-1.86A.91.91,0,1,1,937,523l-3.25,1.77a.93.93,0,0,1-1.29-.29c-.25-.46-.08-1.21.38-1.21Z"/><path class="cls-213" d="M943.77,517.11l3.35-1.49a1,1,0,0,1,.81,1.76L944.59,519a1,1,0,0,1-1.25-.55c-.22-.46,0-1.36.43-1.36Z"/><path class="cls-214" d="M955.1,512.17l3.46-1.33a.93.93,0,0,1,.67,1.73l-3.46,1.36a.94.94,0,0,1-1.19-.54c-.19-.48,0-1.22.52-1.22Z"/><path class="cls-215" d="M966.88,508.46l3.58-1.12a.86.86,0,0,1,1.11.56.85.85,0,0,1-.64,1.05l-3.59.94a.83.83,0,0,1-1.11-.48.71.71,0,0,1,.64-1Z"/><path class="cls-216" d="M979.11,506l3.69-.58a.81.81,0,0,1,1,.69.83.83,0,0,1-.79.92l-3.69.35c-.49.05-.93-.11-1-.6s.31-.78.8-.78Z"/><path class="cls-217" d="M991.62,504.75l3.69.57a1,1,0,0,1,.78,1.06.9.9,0,0,1-1,.84l-3.69-.33a1.09,1.09,0,0,1,.17-2.14Z"/><path class="cls-218" d="M1004,507.22l3.53,1.18a.89.89,0,0,1,.55,1.11.86.86,0,0,1-1.08.57l-3.53-1.11a.92.92,0,0,1-.56-1.14,1,1,0,0,1,1.08-.61Z"/><path class="cls-219" d="M628.73,109.57c-68.61-11.44-61.11,70.77-40.56,128.29s28.05,55,34.31,31.26C622.48,269.12,697.34,121,628.73,109.57Zm-12.51,66.1A21.8,21.8,0,1,1,638,153.88,21.79,21.79,0,0,1,616.22,175.67Z"/></g></g></svg>