<svg xmlns="http://www.w3.org/2000/svg" xmlns:xlink="http://www.w3.org/1999/xlink" viewBox="0 0 2187.11 1798.87"><defs><style>.cls-1{fill:#ebf2f9;}.cls-2{fill:#6e97f0;}.cls-3{fill:#89aef9;}.cls-4{fill:#a9c2ff;}.cls-5,.cls-6{fill:#4c86e3;}.cls-6{opacity:0.4;}.cls-7{fill:#6b98f6;}.cls-8{fill:#5d7afb;}.cls-9{fill:#e6f2ff;}.cls-10{fill:#ffae73;}.cls-11{fill:#1e3865;}.cls-12{fill:#214d9a;}.cls-13{fill:#f9924f;}.cls-14{fill:#ff912b;}.cls-15{fill:#fc7600;}.cls-16,.cls-23{fill:#fff;}.cls-17{fill:url(#linear-gradient);}.cls-18{fill:url(#linear-gradient-2);}.cls-19{fill:url(#linear-gradient-3);}.cls-20{fill:url(#linear-gradient-4);}.cls-21{fill:#bdd0fb;}.cls-22,.cls-23{opacity:0.6;}.cls-24{fill:url(#linear-gradient-5);}.cls-25{fill:url(#linear-gradient-6);}.cls-26{fill:url(#linear-gradient-7);}.cls-27{fill:url(#linear-gradient-8);}.cls-28{fill:url(#linear-gradient-9);}.cls-29{fill:url(#linear-gradient-10);}.cls-30{fill:#0b3563;}.cls-31{fill:#134482;}.cls-32{fill:#173157;}.cls-33{fill:#c23b35;}.cls-34{fill:#f48f4e;}</style><linearGradient id="linear-gradient" x1="-1825.11" y1="2901.36" x2="-2658.14" y2="3995.53" gradientTransform="translate(3348.06 -2600.74) rotate(-1.75)" gradientUnits="userSpaceOnUse"><stop offset="0" stop-color="#09005d"/><stop offset="1" stop-color="#1a0f91"/></linearGradient><linearGradient id="linear-gradient-2" x1="878.13" y1="927.64" x2="973.7" y2="927.64" gradientTransform="translate(-214.66 735.26) rotate(-26.69)" gradientUnits="userSpaceOnUse"><stop offset="0" stop-color="#dae3fe"/><stop offset="1" stop-color="#e9effd"/></linearGradient><linearGradient id="linear-gradient-3" x1="938.02" y1="804.41" x2="957.17" y2="804.41" xlink:href="#linear-gradient-2"/><linearGradient id="linear-gradient-4" x1="-224.18" y1="148.13" x2="-872.08" y2="1210.78" gradientTransform="translate(3348.06 -2600.74) rotate(-1.75)" gradientUnits="userSpaceOnUse"><stop offset="0" stop-color="#4042e2"/><stop offset="1" stop-color="#4f52ff"/></linearGradient><linearGradient id="linear-gradient-5" x1="-2849.23" y1="2268.87" x2="-3088.99" y2="2584.28" gradientTransform="translate(4816.36 -1055.86) rotate(18.36)" xlink:href="#linear-gradient"/><linearGradient id="linear-gradient-6" x1="1509.98" y1="245.49" x2="1565.84" y2="245.49" xlink:href="#linear-gradient-2"/><linearGradient id="linear-gradient-7" x1="-2042.07" y1="2723.09" x2="-2283.8" y2="3041.08" xlink:href="#linear-gradient"/><linearGradient id="linear-gradient-8" x1="1474.03" y1="276.98" x2="1493.63" y2="276.98" xlink:href="#linear-gradient-2"/><linearGradient id="linear-gradient-9" x1="1419.12" y1="266.99" x2="1475.69" y2="266.99" xlink:href="#linear-gradient-2"/><linearGradient id="linear-gradient-10" x1="-2072.53" y1="2742.54" x2="-2239.44" y2="3049.03" xlink:href="#linear-gradient-4"/></defs><title>Монтажная область 2 copy 15</title><g id="Layer_9" data-name="Layer 9"><path class="cls-1" d="M1091.29,5C499.05,5,19,485.13,19,1077.36c0,275.09,103.59,526,273.88,715.79H1889.76c170.28-189.83,273.87-440.7,273.87-715.79C2163.63,485.13,1683.53,5,1091.29,5Z"/><path class="cls-2" d="M1047.28,1108.51l-54.39,646.76s-5.7,39.2,23.46,39.27c47.95.12,238.66,0,238.66,0s-36.09-8.16-35.65-26.52c.51-21.64,63.57-665.63,63.57-665.63Z"/><path class="cls-3" d="M1273,1783.07c-9.43,0-194.06.34-240.75-.26-20.35-.25-23.92-18.09-24.09-29.64a58.36,58.36,0,0,1,.62-9.63l1.41-16.81,3.61-42.84,3.18-37.86,4.09-48.64,3.45-41.05,38.65-459.57,235.65-6.12s-26.56,269.51-45.34,465.69c-2.1,21.85-4.1,42.81-5.94,62.38q-.9,9.36-1.73,18.3c-1.75,18.56-3.34,35.6-4.72,50.65-.73,7.93-1.41,15.3-2,22.06-2.39,26.45-3.8,43.35-3.82,46.56a27,27,0,0,0,.46,5.23C1239.54,1782.14,1269.42,1783.07,1273,1783.07Z"/><polygon class="cls-4" points="474.99 756.56 607.49 1288.77 625.63 1361.66 687.34 1609.54 1833.81 1609.54 1606.36 756.56 474.99 756.56"/><polygon class="cls-3" points="474.99 756.56 456.63 762.68 662.93 1628.06 687.34 1609.55 474.99 756.56"/><polygon class="cls-2" points="662.93 1628.06 1802.34 1628.06 1833.8 1609.55 687.34 1609.55 662.93 1628.06"/><rect class="cls-4" x="1063.05" y="1783.07" width="246.7" height="11.72" transform="translate(2372.81 3577.86) rotate(180)"/><polygon class="cls-5" points="1247.04 1628.05 1245.77 1637.02 1013.76 1683.89 1016.94 1646.03 1018.46 1628.05 1247.04 1628.05"/><path class="cls-6" d="M1273,1783.07c-9.43,0-194.06.34-240.75-.26-20.35-.25-23.92-18.09-24.09-29.64L1239,1709.73c-2.39,26.45-3.8,43.35-3.82,46.56a27,27,0,0,0,.46,5.23C1239.54,1782.14,1269.42,1783.07,1273,1783.07Z"/><polygon class="cls-4" points="474.99 756.56 1606.35 756.56 1789.92 1442.09 645.65 1442.09 474.99 756.56"/><polygon class="cls-7" points="1736.56 1412.38 677.25 1412.38 639.4 1261.59 624.76 1203.24 618.79 1179.44 579.88 1024.47 577.86 1016.41 557.3 934.49 548.1 897.84 540.25 866.58 521.85 793.28 1565.88 793.28 1586.09 866.58 1594.7 897.84 1604.81 934.49 1671.37 1175.95 1671.37 1175.97 1677.02 1196.42 1679.64 1205.92 1725.6 1372.62 1736.56 1412.38"/><polygon class="cls-8" points="1586.09 866.58 540.25 866.58 521.86 793.28 1565.89 793.28 1586.09 866.58"/><path class="cls-9" d="M565.05,826.41c-1.27-5.06,1.81-9.17,6.87-9.17s10.19,4.11,11.45,9.17-1.82,9.16-6.88,9.16S566.31,831.47,565.05,826.41Z"/><path class="cls-9" d="M595.49,826.41c-1.26-5.06,1.82-9.17,6.88-9.17s10.18,4.11,11.45,9.17-1.82,9.16-6.88,9.16S596.75,831.47,595.49,826.41Z"/><path class="cls-9" d="M628.27,826.41c-1.26-5.06,1.82-9.17,6.88-9.17s10.19,4.11,11.45,9.17-1.82,9.16-6.88,9.16S629.53,831.47,628.27,826.41Z"/><path class="cls-10" d="M690.54,900.39a6.23,6.23,0,0,0-1.11,6.66s0,0,0,0c1.6,4.44,6.91,9.4,13.07,14.35.78.64,1.48,1.21,2.09,1.75l.48.42c.12.11.24.23.36.33,5.74,5.3,3.58,6.51,13.9,17.27,11.77,12.25,19.87,12.47,22.18,11.36,2-.95-2-7.45-6.4-14.76l-.64-1.06c-.58-1-1.16-2-1.75-2.93-5.14-8.79-3.82-12.91-2.59-26,1-10.63,16.55-59.37,16.55-59.37l-22.56-3.89s-6.8,38.81-14.29,44.79c-4,3.18-8.48,3.22-12.33,5.58-.27.16-.54.33-.8.51A29.42,29.42,0,0,0,690.54,900.39Z"/><path class="cls-11" d="M690.54,900.39a6.23,6.23,0,0,0-1.11,6.66s0,0,0,0c2,4.44,7.13,9.37,13.09,14.31.78.64,1.46,1.24,2.07,1.79l.48.42c.12.11.24.23.36.33,5.74,5.3,3.58,6.51,13.9,17.27,11.77,12.25,19.87,12.47,22.18,11.36,2-.95-2-7.45-6.4-14.76a50.16,50.16,0,0,1-21-15.46c-6.83-8.72-11.46-19.83-16.11-26.66l-1.32-.24A29.42,29.42,0,0,0,690.54,900.39Z"/><path class="cls-10" d="M872.45,886.37c1.4,7,11.32,5.8,22.41,3.1s8.46.51,24.24-1.23,20.57-7.63,21-10c.43-2.08-7.37-2.82-15.73-3.79l-3.17-.38c-9.44-1.19-16.36-7.28-24.93-12.29-8.13-4.74-20.25-24.06-20.25-24.06l-21.64,1.7s11.35,17.26,15.74,24.76c2.58,4.41,2.44,10.25,2.12,14.75A27.88,27.88,0,0,0,872.45,886.37Z"/><path class="cls-11" d="M894.86,889.47c11.09-2.71,8.46.51,24.24-1.23s20.57-7.63,21-10c.43-2.08-7.37-2.82-15.73-3.79l-.08.16a44.5,44.5,0,0,1-22.61,7c-10.7.26-22-2.81-29.44-2.7a27.88,27.88,0,0,0,.16,7.41C873.85,893.33,883.77,892.17,894.86,889.47Z"/><path class="cls-11" d="M789.55,747.94,769.3,802.38l-26.44,71.08a42.78,42.78,0,0,1-14-1.29c-6.32-1.83-13.57-6.61-13.57-6.61s7.37-76.33,21.06-120.14c3.51-11.25,7.45-20.35,11.79-25.47C769.32,694.89,789.55,747.94,789.55,747.94Z"/><path class="cls-12" d="M769,661.46c-11.52-3.72-41.57-.07-74.17,5.81A22.1,22.1,0,0,1,672,657h0l-82-6.44s-27.09,60-12.28,98.28c2.17,5.62,6.95,9.13,14.33,9.25h0s49.57.09,65.43.09c40.79,0,86.35-28,92.24-29.19,9.64-1.92,13.49,17.37,23.13,37.62s90.62,89.72,90.62,89.72,12.45.12,17.59-1.8c5.53-2.07,7.56-4.77,7.56-4.77S798.9,671.11,769,661.46Z"/><path class="cls-11" d="M663.38,416.06A29.14,29.14,0,0,0,647.71,412a42.48,42.48,0,0,1-7.56-.46c-31.31-4.6-50.18,40.87-51.29,54.61-2,25.23-15.38,29.07-34.17,44.87C517,542.65,528,579.47,548.63,593.16c12.36,8.21,34.14,0,34.14,0,.31.21,59.58-33.11,88.8-49.19C715.37,537.77,681,426.54,663.38,416.06Z"/><path class="cls-10" d="M647.09,530.28c.13.09-14.37,5-24.07.73-9.12-4-16-19-15.89-19.05,4.15-.19,8.71-3.82,12.22-27.62l1.77.63,29.71,10.71s-2.16,9.53-3.55,18.6C646.1,521.9,645.47,529.2,647.09,530.28Z"/><path class="cls-13" d="M650.83,495.68s-1.19,5.14-2.92,14.75c-17.07-3.08-24.39-16.23-26.79-25.46Z"/><path class="cls-10" d="M655.25,505.14s-40.65-5.47-36.85-30.73,1.1-43,27.22-40.56,29.69,12.82,30.48,21.56S665.92,505.91,655.25,505.14Z"/><path class="cls-11" d="M674.62,441.56s-26,22.42-43.73,24.22-24.4-3.88-24.4-3.88a69.25,69.25,0,0,0,16.72-22.63,12.45,12.45,0,0,1,10.26-7.34C646.11,430.85,670.07,430.36,674.62,441.56Z"/><path class="cls-11" d="M658.35,439.55s8.71,8.42,11.45,14.67c2.64,6,3.43,20.43,1.32,26.15,0,0,13.57-26.37,5.9-39.18C668.88,427.6,658.35,439.55,658.35,439.55Z"/><path class="cls-14" d="M681.3,590.18c-1.26,82.28-.36,65.08-9.36,72.89-2.17,1.88-8.27,3-16.3,3.52-25.23,1.67-69.58-2.5-71.26-7.16-5.82-16.14-1.71-21.15-6.55-45.85-.51-2.63-1.14-5.48-1.87-8.57-4-17-8-22.74,6.39-50,13-24.69,26.57-44.72,27.79-44,34.36,20.41,37.14,3.27,37.14,3.27S681.92,550,681.3,590.18Z"/><path class="cls-12" d="M769.3,802.38l-26.44,71.08a42.78,42.78,0,0,1-14-1.29c-6.32-1.83-13.57-6.61-13.57-6.61s7.37-76.33,21.06-120.14Z"/><path class="cls-14" d="M647.28,514.28s35.35,6,39.5,21.24,17.78,107.64,17.78,107.64-10,9.73-18.27,1.42-26.11-86.47-26.11-86.47Z"/><path class="cls-15" d="M655.64,666.59c-25.23,1.67-69.58-2.5-71.26-7.16-5.82-16.14-1.71-21.15-6.55-45.85L590,579.31s-2,38.16,9.22,48.2,46.07,19.39,51.54,27.78A30.57,30.57,0,0,1,655.64,666.59Z"/><path class="cls-10" d="M626.74,650.53s24.9-5.53,28.91-3.32,13.83,10.26,15.06,13.06-8.94-2.13-12.25-3c-2.14-.57-7.78,1.39-10.58,2.32-11.74,3.91-18.94,1.89-18.94,1.89Z"/><path class="cls-14" d="M610.12,511s-33.42,2-45,18.18C548.82,551.9,516.48,648.7,535,661.62c20.85,14.55,94.91,3.84,94.91,3.84s2.47-11.52-1-17.1-59.14-14.59-61.71-17.16,32.16-50.14,32.16-57.85S610.12,511,610.12,511Z"/><path class="cls-10" d="M656.85,654.14s5.22,6.73,6.93,7.53a5.07,5.07,0,0,0,2.81.61L663.08,656Z"/><path class="cls-10" d="M655.65,647.21l15.16,7.37a2.68,2.68,0,0,1-2.51,1c-1.87-.09-6.58-1.81-6.58-1.81Z"/><polygon class="cls-11" points="785.13 664.57 626.74 664.51 626.74 668.01 783.73 668.06 785.13 664.57"/><polygon class="cls-11" points="663.77 668.02 783.73 668.06 819.84 578.35 700.07 578.3 663.77 668.02"/><path class="cls-16" d="M753.46,623.19c.91-3.16-.92-5.71-4.07-5.72a8.19,8.19,0,0,0-7.35,5.71c-.91,3.16.92,5.71,4.07,5.72A8.18,8.18,0,0,0,753.46,623.19Z"/><path class="cls-17" d="M1014.59,357.35l525.3-16.08a54.46,54.46,0,0,1,55.93,50l62.09,760.41a40.15,40.15,0,0,1-38.07,43.37l-601.73,29.37a38.11,38.11,0,0,1-40-36.9L954.7,421A61.8,61.8,0,0,1,1014.59,357.35Z"/><path class="cls-18" d="M1108.4,1212.79a6.07,6.07,0,0,1-2.63.64l-67.39,1.19A46.23,46.23,0,0,1,991.52,1170l-3.12-101.71a6.1,6.1,0,0,1,12.2-.38l3.11,101.71a34,34,0,0,0,34.45,32.83l67.39-1.19a6.11,6.11,0,0,1,2.85,11.56Z"/><path class="cls-19" d="M996.28,1042a6.1,6.1,0,0,1-8.84-5.27l-.51-16.47a6.1,6.1,0,1,1,12.2-.37l.51,16.47A6.11,6.11,0,0,1,996.28,1042Z"/><path class="cls-20" d="M1016,351.12c72,7.54,319.64,30.08,523.11,8.18a16.59,16.59,0,0,1,18.34,15.1l64.07,763.75a19.1,19.1,0,0,1-17.32,20.62c-85.63,7.71-438.29,38.14-564.69,28.8a15.15,15.15,0,0,1-14-14.56L996.21,369.64A18,18,0,0,1,1016,351.12Z"/><path class="cls-21" d="M1024.3,370.73c69.32,7.25,307.6,28.94,503.41,7.87a16,16,0,0,1,17.66,14.53l61.65,735a18.37,18.37,0,0,1-16.67,19.85c-82.4,7.41-421.78,36.7-543.43,27.71a14.56,14.56,0,0,1-13.46-14l-28.21-773.12A17.27,17.27,0,0,1,1024.3,370.73Z"/><g class="cls-22"><path class="cls-16" d="M1499.09,444c5.84-.18,10.48-2.71,10.31-5.62s-5.1-5.23-11-5.15l-180.61,2.3c-5.85.08-9.41,3.3-7.92,7.16s7.5,6.87,13.34,6.69Z"/></g><g class="cls-22"><path class="cls-16" d="M1318.74,465c-5.85.07-9.41,3.29-7.92,7.15s7.5,6.87,13.34,6.69L1500,473.43c5.84-.18,10.48-2.71,10.31-5.61s-5.1-5.23-11-5.16Z"/></g><g class="cls-22"><path class="cls-16" d="M1319.65,494.82c-5.85.07-9.41,3.29-7.92,7.15s7.5,6.87,13.35,6.69l175.82-5.38c5.85-.18,10.48-2.7,10.31-5.61s-5.1-5.23-11-5.16Z"/></g><g class="cls-22"><path class="cls-16" d="M1521.19,564.35c5.84-.18,10.39-2.7,10.11-5.61s-5.29-5.18-11.14-5l-435,9.88c-5.84.13-8,3.35-4.76,7.16s10.64,6.77,16.49,6.59Z"/></g><g class="cls-22"><path class="cls-16" d="M1086.05,593c-5.84.13-8,3.36-4.76,7.16s10.65,6.77,16.49,6.6l424.31-13c5.84-.18,10.4-2.7,10.11-5.61s-5.29-5.17-11.14-5Z"/></g><path class="cls-16" d="M1161,657.31a17.57,17.57,0,0,0-6.46-.74c-.09,0-.16,0-.25,0-1.8.15-3.88.37-6.1.58-11,1.14-26.07,3.4-39.7,5.5-7.51,1.07-14.31,2.08-19.23,2.75a13.13,13.13,0,0,0-8.9,5.08,10.82,10.82,0,0,0-2,8.39l8.32,49.19c1.29,7.64,8.67,13,17.17,12.6l59.07-3.2c0,.06.09,0,.15,0,8.24-.53,14.69-7,14.38-14.53-.86-23-1.9-44.51-5.71-55.69A15.66,15.66,0,0,0,1161,657.31Zm6.13,11.44c3.58,10.55,6,34.42,6.85,57,.22,4.94-3.85,10-8.48,12.34l-.12.06-60.41.39c-6.11.29-12-4.74-12.9-9.94l-8.62-50a6.49,6.49,0,0,1,1-5,8.09,8.09,0,0,1,5.48-3.33c5-.7,11.76-1.75,19.34-2.85,12-1.83,26.21-4,37-5.31,3.15-.3,5.94-.59,8.41-.78a12.52,12.52,0,0,1,5.84.82A11.22,11.22,0,0,1,1167.1,668.75Z"/><path class="cls-23" d="M1096.48,674.73c12.34-1.63,39.12-6.07,51.89-7,5.42-.41,10.37,2.56,11.94,7.18,3,9,3.86,27.17,4.49,44,.19,5-4.17,9.33-9.81,9.63l-47.2,2.53c-5.81.31-10.87-3.35-11.74-8.46l-6.64-39.32C1088.72,679.17,1091.9,675.33,1096.48,674.73Z"/><g class="cls-22"><path class="cls-16" d="M1217.36,682.56c-5.84.23-9.11,5-7.27,10.5l2.94,8.83a14.58,14.58,0,0,0,14,9.42l285.7-18A10.39,10.39,0,0,0,1522.4,682l-.07-.81a11.27,11.27,0,0,0-11.53-10.17Z"/></g><path class="cls-14" d="M1099.48,682.34h0a9.08,9.08,0,0,1,12.71,2.61l13,20.14a2.92,2.92,0,0,0,5.18-.56l24.82-66.11a3.23,3.23,0,0,1,6.25,1c.95,19.69-1.91,57.4-31.36,90.67,0,0-17.74-5.64-33.62-35.38A9.52,9.52,0,0,1,1099.48,682.34Z"/><path class="cls-16" d="M1169,783.83a17.84,17.84,0,0,0-6.47-.74c-.09,0-.15,0-.24,0-1.8.16-3.88.37-6.11.59-11,1.17-26.06,3.39-39.72,5.44-7.48,1.13-14.28,2.13-19.21,2.81a13.12,13.12,0,0,0-8.89,5.07,10.89,10.89,0,0,0-2.06,8.34l8.35,49.24c1.25,7.58,8.66,13,17.17,12.6l59.07-3.2c.06,0,.09,0,.15,0,8.24-.53,14.69-7,14.38-14.52-.87-23-1.91-44.52-5.75-55.76A15.43,15.43,0,0,0,1169,783.83Zm6.13,11.45c3.58,10.54,4.64,31.69,5.48,54.3.21,4.94-4.26,9.22-9.88,9.56a.07.07,0,0,1-.09,0l-59.07,3.2c-6.07.34-11.32-3.34-12.2-8.55l-8.26-49.22a5.89,5.89,0,0,1,1.17-4.72,8.31,8.31,0,0,1,5.55-3.17c5-.65,11.82-1.65,19.4-2.75,12-1.83,26.25-3.94,37-5.23,3.16-.3,6-.61,8.42-.77a12.72,12.72,0,0,1,5.75.8A11.46,11.46,0,0,1,1175.08,795.28Z"/><path class="cls-23" d="M1104.45,801.24c12.35-1.63,39.13-6.06,51.9-7,5.41-.41,10.37,2.57,11.94,7.18,3,9,3.86,27.17,4.49,44,.19,5-4.18,9.34-9.82,9.64l-47.2,2.52c-5.8.31-10.87-3.34-11.73-8.46l-6.64-39.32C1096.7,805.69,1099.87,801.85,1104.45,801.24Z"/><g class="cls-22"><path class="cls-16" d="M1225.34,809.07c-5.84.23-9.11,5-7.27,10.51l2.93,8.83a14.59,14.59,0,0,0,14,9.42l285.69-18a10.37,10.37,0,0,0,9.71-11.26l-.07-.8a11.26,11.26,0,0,0-11.52-10.18Z"/></g><path class="cls-14" d="M1107.45,808.85h0a9.09,9.09,0,0,1,12.72,2.61l12.95,20.14a2.91,2.91,0,0,0,5.18-.55l24.83-66.12a3.23,3.23,0,0,1,6.25,1c.95,19.68-1.91,57.39-31.36,90.66,0,0-17.74-5.64-33.62-35.38A9.53,9.53,0,0,1,1107.45,808.85Z"/><path class="cls-16" d="M1171.14,905.73a19.1,19.1,0,0,0-6.74-.82c-1.86.18-3.91.31-6.16.61-11.16,1.17-26.7,3.49-39.66,5.41-7.49,1.13-14.28,2.14-19.31,2.78a13.28,13.28,0,0,0-8.8,5.1,10.75,10.75,0,0,0-2.06,8.34l8.32,49.19c1.28,7.64,8.66,13,17.17,12.59l59.1-3.13a.21.21,0,0,1,.15,0c8.24-.53,14.7-7,14.38-14.53-.86-23-1.94-44.57-5.75-55.75A15.68,15.68,0,0,0,1171.14,905.73Zm6.07,11.33c3.6,10.61,4.68,31.75,5.5,54.37.17,5-4.46,9.09-10,9.56l-59,3.16c-6.11.29-11.35-3.4-12.24-8.6l-8.32-49.19a6,6,0,0,1,1.2-4.67,8.22,8.22,0,0,1,5.61-3.2c5-.61,11.82-1.65,19.31-2.78,12-1.77,26.34-3.9,37.08-5.16,3.12-.37,6-.68,8.39-.83a13.13,13.13,0,0,1,5.92.86A11.1,11.1,0,0,1,1177.21,917.06Z"/><path class="cls-23" d="M1106.59,923.07c12.34-1.62,39.12-6.06,51.9-7,5.41-.4,10.37,2.57,11.93,7.19,3,9,3.86,27.16,4.49,44,.19,5-4.17,9.34-9.81,9.64l-47.2,2.52c-5.81.31-10.87-3.34-11.74-8.46l-6.64-39.31C1098.83,927.52,1102,923.68,1106.59,923.07Z"/><g class="cls-22"><path class="cls-16" d="M1227.48,930.9c-5.85.23-9.12,5-7.27,10.51l2.93,8.83a14.58,14.58,0,0,0,14,9.42l285.7-18a10.4,10.4,0,0,0,9.71-11.27l-.07-.8a11.28,11.28,0,0,0-11.53-10.18Z"/></g><path class="cls-14" d="M1109.59,930.68h0a9.08,9.08,0,0,1,12.71,2.61l13,20.14a2.91,2.91,0,0,0,5.18-.55l24.83-66.11a3.23,3.23,0,0,1,6.25,1c.94,19.68-1.92,57.4-31.37,90.67,0,0-17.74-5.64-33.61-35.38A9.52,9.52,0,0,1,1109.59,930.68Z"/><path class="cls-16" d="M1172.38,1031.43a18.84,18.84,0,0,0-6.8-.8c-1.87.19-4,.34-6.17.62-10.94,1.13-26,3.36-39.6,5.38-7.55,1.16-14.34,2.16-19.3,2.78a13.13,13.13,0,0,0-8.86,5.13,10.91,10.91,0,0,0-2.06,8.33l8.32,49.2c1.28,7.63,8.66,13,17.17,12.59l59.1-3.13c.06,0,.06,0,.15,0,8.24-.53,14.66-7.07,14.4-14.61-.83-22.92-2-44.49-5.77-55.67A15.52,15.52,0,0,0,1172.38,1031.43Zm6,11.36c3.6,10.61,4.67,31.75,5.5,54.37.19,4.87-4.19,9.18-9.87,9.55a.07.07,0,0,0-.09,0l-59.1,3.14c-6.07.34-11.32-3.34-12.2-8.55l-8.26-49.22a6,6,0,0,1,1.2-4.66,8,8,0,0,1,5.55-3.17c5-.7,11.82-1.65,19.37-2.81,12-1.77,26.28-3.88,37.07-5.17,3.13-.37,5.93-.64,8.39-.83a14.28,14.28,0,0,1,5.87.89A11.11,11.11,0,0,1,1178.39,1042.79Z"/><path class="cls-23" d="M1107.78,1048.78c12.35-1.63,39.13-6.07,51.9-7,5.41-.41,10.37,2.56,11.94,7.18,3,9,3.86,27.17,4.49,44,.19,5-4.18,9.33-9.82,9.63l-47.2,2.53c-5.8.31-10.87-3.35-11.73-8.46l-6.65-39.32C1100,1053.22,1103.2,1049.38,1107.78,1048.78Z"/><g class="cls-22"><path class="cls-16" d="M1228.67,1056.61c-5.84.23-9.11,5-7.27,10.5l2.93,8.83a14.59,14.59,0,0,0,14,9.42l285.69-18a10.38,10.38,0,0,0,9.71-11.26l-.07-.8a11.26,11.26,0,0,0-11.52-10.18Z"/></g><path class="cls-14" d="M1110.78,1056.39h0a9.07,9.07,0,0,1,12.71,2.61l13,20.14a2.92,2.92,0,0,0,5.18-.56l24.83-66.11a3.23,3.23,0,0,1,6.25,1c1,19.69-1.92,57.4-31.36,90.67,0,0-17.74-5.64-33.62-35.38A9.53,9.53,0,0,1,1110.78,1056.39Z"/><path class="cls-14" d="M1112.72,76.68h0A24.55,24.55,0,0,1,1143,94.45l15.62,62.85a7.88,7.88,0,0,0,13.74,3.11L1293.54,12.8c6-7.37,17.77-1.14,15.13,8-14.74,51.22-55,145.26-159.35,204.77,0,0-40.5-29.91-55.21-119.9A25.76,25.76,0,0,1,1112.72,76.68Z"/><path class="cls-24" d="M1306.64,244.49c-19.36-12.62-35.85-11.86-47.36-8.11a23.23,23.23,0,0,0-15.74,24.85l5.92,47.84.79,6.68,59.71,3.48a83.73,83.73,0,0,0,5.7-9.94C1323.6,293.48,1334.14,262.36,1306.64,244.49ZM1266.49,275a14.87,14.87,0,1,1,15.29,14.37A14.87,14.87,0,0,1,1266.49,275Z"/><path class="cls-25" d="M1288.11,241a46.16,46.16,0,0,0-22.47,1.58,23.64,23.64,0,0,0-16,25.3l.82,6.59a2.89,2.89,0,0,0,2,2.46,2.26,2.26,0,0,0,1.26.12,2.88,2.88,0,0,0,2.59-3.26l-.77-6.61a17.67,17.67,0,0,1,12-19,40.39,40.39,0,0,1,19.6-1.42,2.86,2.86,0,0,0,3.4-2.39A2.91,2.91,0,0,0,1288.11,241ZM1254,279.52a3,3,0,0,0-2.55,3.32l1,8.66a2.91,2.91,0,0,0,2,2.46,2.63,2.63,0,0,0,1.26.12,2.87,2.87,0,0,0,2.58-3.26l-1.07-8.72A2.9,2.9,0,0,0,1254,279.52Z"/><path class="cls-26" d="M1170,353.6l-.84-27.49A16.77,16.77,0,0,1,1186,308.82l189.71.69a16.33,16.33,0,0,1,16.2,14.85l2.39,26.36Z"/><path class="cls-27" d="M1242.29,321.56a5.9,5.9,0,0,1-2.55.64l-8.15.25a6.1,6.1,0,1,1-.37-12.19l8.14-.25a6.1,6.1,0,0,1,2.93,11.55Z"/><path class="cls-28" d="M1179,346a3,3,0,0,1-2-2.71l-.34-11.12a17.1,17.1,0,0,1,16.57-17.62l30-.92a3,3,0,0,1,.18,5.91l-30,.91A11.22,11.22,0,0,0,1182.53,332l.34,11.12a3,3,0,0,1-2.86,3A2.87,2.87,0,0,1,1179,346Z"/><path class="cls-29" d="M1110.28,345.36l331.39-10.15a24.49,24.49,0,0,1,24.76,19.57l.33,1.62a21,21,0,0,1-20,25.25l-340,10.41a13.68,13.68,0,0,1-14.1-13.92l.27-15.24A17.85,17.85,0,0,1,1110.28,345.36Z"/><path class="cls-30" d="M1565.26,1006.4c-16.16-5.37-27.35,1.4-27.35,1.4-46.52,1.91-48.25,49.6-42.79,67.35,7.67,24.93-19.47,44.58,10.63,54.67,34.93,11.7,64.24-2.18,62.24,3.85C1678.44,1142.37,1602,1018.6,1565.26,1006.4Z"/><path class="cls-14" d="M1517,1238.34a121.78,121.78,0,0,1-12.44,18.82c-9.66,12.1-60.39-16.63-56-18.82s29.86-75.62,35.93-84.85,26.76-14,26.76-14Z"/><path class="cls-31" d="M1688.19,1733.64s14,12.78,11.27,21.86-15.37,15.13-17.08,26.22-8.53,17.15-14.68,17.15h-29.31s-4.52-7.81,6.41-10.16,15-15.39,14.36-27.5,1-28.24,1-28.24l23.22-5.38Z"/><path class="cls-32" d="M1569.69,1739.07s5,54.12-1.11,57.15l-78.67-.16s0-9.08,12.64-11.1,34.83-9.41,38.58-25.89S1569.69,1739.07,1569.69,1739.07Z"/><path class="cls-14" d="M1630.2,1201.83a313.94,313.94,0,0,1,0,36.36c-.78,13.15-14.08,30.76-16,35.11-4.73,10.93-10.07,12.71-10.07,12.71l-41.3,10.12-14.52,3.55-45.8-13.67s-20.86-58.23-12.48-91,21.17-55.53,21.17-55.53,31.12-7,86-3.11Z"/><path class="cls-15" d="M1634.13,1238.65c-.78,13.15-18,30.3-19.9,34.65-4.73,10.93-10.07,12.71-10.07,12.71l-41.3,10.12-7.46-21.37s60.35-15.86,50.64-71.71Z"/><path class="cls-11" d="M1505.45,1294.84s-22.68,70.6-24.13,94.63,43.35,341.43,45.15,352.51c1.7,10.44,14.66,17.09,14.66,17.09s6,3.52,14.47,1.12c11.81-3.34,15.54-7.33,15.54-7.33s17.65-226.37,6.73-307.23a1281.37,1281.37,0,0,1-11-150.79Z"/><path class="cls-12" d="M1601.54,1292.74s34.6,46.42,37.82,77.79,5.06,141.6,11.93,172.19,32.12,89.46,32.12,184.87c0,0-2.62,5.47-10.73,8.38a90.3,90.3,0,0,1-9.43,2.61,14.84,14.84,0,0,1-16.59-7.88c-17.07-34.36-71.43-145.19-74.22-168.2-2-16.28-19.14-124-56.58-187.27-9-15.18,5.51-75.55,5.51-75.55Z"/><path class="cls-11" d="M1501.83,1284s9.1,7.2,27.19,7.56c21.6.44,75.14-5.51,75.14-5.51a44.25,44.25,0,0,1,2.28,13.67s-65.38,16.49-103.27,2.41C1503.17,1302.08,1498.29,1292.88,1501.83,1284Z"/><path class="cls-16" d="M1523.84,1310.13c-5.44,0-9.86-5-9.86-11.16s4.42-11.16,9.86-11.16,9.86,5,9.86,11.16S1529.27,1310.13,1523.84,1310.13Zm0-19.05c-3.64,0-6.59,3.54-6.59,7.89s3,7.89,6.59,7.89,6.59-3.54,6.59-7.89S1527.47,1291.08,1523.84,1291.08Z"/><polygon class="cls-33" points="1571.07 1330.42 1472.8 1331.35 1424.45 1217.7 1522.72 1216.78 1571.07 1330.42"/><path class="cls-10" d="M1558.22,1279.07l-7.2-8.85s-4.88-4.35-8.41-5.09-11-5-11.74-3.83,5.74,9.87,5.74,9.87l.33,0c-7.42,5.58-26.15.65-28.46,2.93-2.8,2.76,3.86,8.72,7.43,12.07s13.79,8.94,21.76,6.46c5.82-1.82,15-3.66,15-3.66Z"/><path class="cls-10" d="M1431.84,1237.69s6.17-7,10.1-3.65-1,19.93-4.77,18.25S1429.69,1239.75,1431.84,1237.69Z"/><path class="cls-14" d="M1597.26,1136.37s28.13,3.11,48.32,39.79c15.92,28.92,43.13,82.25,32.86,97.31-4.5,6.61-47.72,30.14-131.08,16.69,0,0,1.32-10.53,8-15.4,0,0,70.15-22.53,70-27-.23-8.47-9.48-15.79-48.66-55C1566.11,1182.1,1597.26,1136.37,1597.26,1136.37Z"/><path class="cls-10" d="M1575.61,1137.86c1-1.3-.28-5.43-1.83-13.13-1.39-7-3.77-17.75-3.72-29.88l-2.07.34-34.87,5.87s.79,9.32.82,18.1v.22c0,7.63-2.06,19.16.51,20.66C1547.67,1147.78,1571.89,1142.85,1575.61,1137.86Z"/><path class="cls-34" d="M1533.12,1101.06s.7,13.14.72,21.93c19.51-.47,29.92-19.41,34.15-27.8Z"/><path class="cls-10" d="M1531,1116.74s45.7-6.51,41.21-34.91-1.62-48.37-31-45.42-33.31,14.69-34.12,24.53S1519,1117.7,1531,1116.74Z"/><path class="cls-30" d="M1520.37,1039s17.79,31.33,37.73,33.2,27.43-4.58,27.43-4.58a55,55,0,0,1-22.85-29.22S1527.26,1021.67,1520.37,1039Z"/><path class="cls-30" d="M1523.89,1041.23s-8.7,4.94-11.44,12.3a46.54,46.54,0,0,0-2,27s-13-21.15-4.48-35.64C1515,1029.57,1523.89,1041.23,1523.89,1041.23Z"/></g></svg>