<svg xmlns="http://www.w3.org/2000/svg" xmlns:xlink="http://www.w3.org/1999/xlink" viewBox="0 0 2176.85 1804.85"><defs><style>.cls-1,.cls-20,.cls-5{fill:#f99746;}.cls-1{opacity:0.57;}.cls-2{fill:#ebf2f9;}.cls-3{opacity:0.66;}.cls-4{opacity:0.3;}.cls-5{stroke:#fff;stroke-miterlimit:10;stroke-width:2px;}.cls-6{fill:url(#linear-gradient);}.cls-7{fill:url(#linear-gradient-2);}.cls-8{fill:#91b3fa;}.cls-9{fill:url(#linear-gradient-3);}.cls-10{opacity:0.53;}.cls-11,.cls-23,.cls-26,.cls-28{fill:#fff;}.cls-12{fill:url(#linear-gradient-4);}.cls-13{fill:url(#linear-gradient-5);}.cls-14{fill:url(#linear-gradient-6);}.cls-15{fill:url(#linear-gradient-7);}.cls-16{fill:url(#linear-gradient-8);}.cls-17{fill:url(#linear-gradient-9);}.cls-18{fill:url(#linear-gradient-10);}.cls-19{clip-path:url(#clip-path);}.cls-21{clip-path:url(#clip-path-2);}.cls-22{clip-path:url(#clip-path-3);}.cls-23{opacity:0.44;}.cls-24{opacity:0.48;}.cls-25{fill:url(#linear-gradient-11);}.cls-26{opacity:0.5;}.cls-27{fill:url(#linear-gradient-12);}.cls-28{opacity:0.91;}.cls-29{fill:url(#linear-gradient-13);}.cls-30{fill:url(#linear-gradient-14);}.cls-31{fill:url(#linear-gradient-15);}.cls-32{fill:url(#linear-gradient-16);}.cls-33{fill:url(#linear-gradient-17);}.cls-34{fill:url(#linear-gradient-18);}.cls-35{fill:url(#linear-gradient-19);}.cls-36{fill:url(#linear-gradient-20);}.cls-37{fill:url(#linear-gradient-21);}.cls-38{fill:url(#linear-gradient-22);}.cls-39{fill:url(#linear-gradient-23);}.cls-40{fill:url(#linear-gradient-24);}.cls-41{fill:url(#linear-gradient-25);}.cls-42{fill:url(#linear-gradient-26);}.cls-43{fill:url(#linear-gradient-27);}.cls-44{fill:url(#linear-gradient-28);}.cls-45{fill:url(#linear-gradient-29);}.cls-46{fill:url(#linear-gradient-30);}.cls-47{fill:url(#linear-gradient-31);}</style><linearGradient id="linear-gradient" x1="1204.07" y1="1329.46" x2="1049.15" y2="1988.85" gradientUnits="userSpaceOnUse"><stop offset="0" stop-color="#09005d"/><stop offset="1" stop-color="#1a0f91"/></linearGradient><linearGradient id="linear-gradient-2" x1="1127.19" y1="240.84" x2="1075.55" y2="1472.23" xlink:href="#linear-gradient"/><linearGradient id="linear-gradient-3" x1="1122.65" y1="1247.63" x2="1130.59" y2="1732.24" xlink:href="#linear-gradient"/><linearGradient id="linear-gradient-4" x1="1186.66" y1="1040.61" x2="1351.51" y2="718.85" gradientUnits="userSpaceOnUse"><stop offset="0" stop-color="#4f52ff"/><stop offset="1" stop-color="#4042e2"/></linearGradient><linearGradient id="linear-gradient-5" x1="1259.62" y1="1077.99" x2="1424.47" y2="756.23" xlink:href="#linear-gradient-4"/><linearGradient id="linear-gradient-6" x1="1249.7" y1="1072.91" x2="1414.55" y2="751.15" xlink:href="#linear-gradient-4"/><linearGradient id="linear-gradient-7" x1="1378.26" y1="1138.77" x2="1543.1" y2="817.02" xlink:href="#linear-gradient-4"/><linearGradient id="linear-gradient-8" x1="1361.86" y1="1130.37" x2="1526.71" y2="808.61" xlink:href="#linear-gradient-4"/><linearGradient id="linear-gradient-9" x1="1426.63" y1="1163.56" x2="1591.48" y2="841.8" xlink:href="#linear-gradient-4"/><linearGradient id="linear-gradient-10" x1="1492.77" y1="1197.44" x2="1657.62" y2="875.69" xlink:href="#linear-gradient-4"/><clipPath id="clip-path"><path class="cls-1" d="M493.63,650.28a90.1,90.1,0,1,0,90.1,90.1A90.09,90.09,0,0,0,493.63,650.28Zm0,141.43A51.33,51.33,0,1,1,545,740.38,51.34,51.34,0,0,1,493.63,791.71Z"/></clipPath><clipPath id="clip-path-2"><path class="cls-1" d="M713.27,650.28a90.1,90.1,0,1,0,90.1,90.1A90.09,90.09,0,0,0,713.27,650.28Zm0,141.43a51.33,51.33,0,1,1,51.33-51.33A51.34,51.34,0,0,1,713.27,791.71Z"/></clipPath><clipPath id="clip-path-3"><path class="cls-1" d="M932.91,650.28a90.1,90.1,0,1,0,90.1,90.1A90.1,90.1,0,0,0,932.91,650.28Zm0,141.43a51.33,51.33,0,1,1,51.33-51.33A51.34,51.34,0,0,1,932.91,791.71Z"/></clipPath><linearGradient id="linear-gradient-11" x1="1608.04" y1="980.5" x2="1754.66" y2="980.5" gradientTransform="translate(2555.47 -758.53) rotate(86.44)" gradientUnits="userSpaceOnUse"><stop offset="0" stop-color="#dae3fe"/><stop offset="1" stop-color="#e9effd"/></linearGradient><linearGradient id="linear-gradient-12" x1="1607.72" y1="744.87" x2="1754.34" y2="744.87" gradientTransform="translate(1019.06 -970.5) rotate(45)" xlink:href="#linear-gradient-11"/><linearGradient id="linear-gradient-13" x1="1766.41" y1="1137.77" x2="1539.51" y2="1353.1" gradientUnits="userSpaceOnUse"><stop offset="0" stop-color="#fdf53f"/><stop offset="1" stop-color="#d93c65"/></linearGradient><linearGradient id="linear-gradient-14" x1="7192.26" y1="1721.22" x2="6886.75" y2="2053.52" gradientTransform="matrix(-1, 0, 0, 1, 8802.59, 0)" xlink:href="#linear-gradient"/><linearGradient id="linear-gradient-15" x1="7093.1" y1="1745.9" x2="7120.24" y2="1745.9" gradientTransform="matrix(-1, 0, 0, 1, 8802.59, 0)" gradientUnits="userSpaceOnUse"><stop offset="0" stop-color="#febbba"/><stop offset="1" stop-color="#ff928e"/></linearGradient><linearGradient id="linear-gradient-16" x1="7028.75" y1="1538.4" x2="7118.48" y2="1538.4" gradientTransform="matrix(-1, 0, 0, 1, 8802.59, 0)" xlink:href="#linear-gradient"/><linearGradient id="linear-gradient-17" x1="7123.73" y1="1658.21" x2="6818.22" y2="1990.52" gradientTransform="matrix(-1, 0, 0, 1, 8802.59, 0)" xlink:href="#linear-gradient"/><linearGradient id="linear-gradient-18" x1="6995.3" y1="1744.51" x2="7018.73" y2="1744.51" xlink:href="#linear-gradient-15"/><linearGradient id="linear-gradient-19" x1="6970.04" y1="1535.47" x2="7097.43" y2="1535.47" gradientTransform="matrix(-1, 0, 0, 1, 8802.59, 0)" xlink:href="#linear-gradient"/><linearGradient id="linear-gradient-20" x1="7204.77" y1="1037.94" x2="7343.4" y2="1037.94" xlink:href="#linear-gradient-15"/><linearGradient id="linear-gradient-21" x1="8800.28" y1="1014.7" x2="8893.31" y2="1226.36" gradientTransform="translate(-7310.21)" xlink:href="#linear-gradient-15"/><linearGradient id="linear-gradient-22" x1="7342.74" y1="944.21" x2="7381.55" y2="884.53" xlink:href="#linear-gradient-15"/><linearGradient id="linear-gradient-23" x1="6901.4" y1="1234.31" x2="7076.85" y2="1234.31" xlink:href="#linear-gradient-15"/><linearGradient id="linear-gradient-24" x1="7129.92" y1="1109.57" x2="7226.4" y2="1511.54" gradientTransform="matrix(-1, 0, 0, 1, 8802.59, 0)" xlink:href="#linear-gradient"/><linearGradient id="linear-gradient-25" x1="7190.32" y1="1046.21" x2="7169.78" y2="1136.44" gradientTransform="matrix(-1, 0, 0, 1, 8802.59, 0)" xlink:href="#linear-gradient-4"/><linearGradient id="linear-gradient-26" x1="7179.57" y1="1084.06" x2="7169.75" y2="1143.02" gradientTransform="matrix(-1, 0, 0, 1, 8802.59, 0)" xlink:href="#linear-gradient-4"/><linearGradient id="linear-gradient-27" x1="7063.82" y1="1215.92" x2="7118.48" y2="1215.92" xlink:href="#linear-gradient-15"/><linearGradient id="linear-gradient-28" x1="7036.12" y1="1046.75" x2="7105.48" y2="1046.75" xlink:href="#linear-gradient-15"/><linearGradient id="linear-gradient-29" x1="1638.69" y1="-454.26" x2="1549.53" y2="-336.31" gradientTransform="matrix(-0.81, -0.58, -0.58, 0.81, 2770.9, 2278.01)" xlink:href="#linear-gradient-15"/><linearGradient id="linear-gradient-30" x1="1570.59" y1="-425.93" x2="1677.1" y2="-425.93" gradientTransform="matrix(-0.81, -0.58, -0.58, 0.81, 2770.9, 2278.01)" xlink:href="#linear-gradient"/><linearGradient id="linear-gradient-31" x1="1508.1" y1="-360.85" x2="1579.62" y2="-434.22" gradientTransform="matrix(-0.81, -0.58, -0.58, 0.81, 2770.9, 2278.01)" xlink:href="#linear-gradient-15"/></defs><title>Монтажная область 2 copy 9</title><g id="Layer_9" data-name="Layer 9"><path class="cls-2" d="M1094.09,8.13C501.86,8.13,21.75,488.23,21.75,1080.47c0,275.08,103.6,526,273.88,715.78H1892.56c170.28-189.82,273.88-440.7,273.88-715.78C2166.44,488.23,1686.33,8.13,1094.09,8.13Z"/><g class="cls-3"><g class="cls-4"><path class="cls-5" d="M740.57,348.09a5.85,5.85,0,0,1-8.05-2c-3.26-5.38-6.8-10.71-10.52-15.82a5.86,5.86,0,0,1,1.2-8.13l.09-.07a5.87,5.87,0,0,1,8.2,1.29c3.91,5.39,7.64,11,11.07,16.67a5.85,5.85,0,0,1-1.48,7.7A4.59,4.59,0,0,1,740.57,348.09Zm-38.4-41.47c-4.39-4.56-9-9-13.74-13.13a5.87,5.87,0,0,1,7.74-8.82c5,4.37,9.84,9,14.45,13.81a5.86,5.86,0,0,1-.16,8.3c-.17.16-.35.31-.53.45A5.87,5.87,0,0,1,702.17,306.62Zm-38.3-31.81c-5.27-3.46-10.76-6.73-16.31-9.72a5.87,5.87,0,0,1,5.57-10.33c5.84,3.15,11.63,6.6,17.18,10.24a5.87,5.87,0,0,1,1.69,8.12,5.8,5.8,0,0,1-1.37,1.46A5.86,5.86,0,0,1,663.87,274.81Zm-44.44-22.44c-5.92-2.2-12-4.16-18.09-5.84a5.87,5.87,0,0,1,3.12-11.31c6.41,1.77,12.81,3.84,19,6.15a5.87,5.87,0,0,1-4.08,11Zm-48.34-12c-6.24-.82-12.61-1.39-18.93-1.69a5.86,5.86,0,1,1,.55-11.71c6.64.3,13.34.9,19.92,1.77a5.87,5.87,0,0,1-1.54,11.63Zm-49.78-1c-6.28.58-12.62,1.44-18.83,2.55a5.87,5.87,0,0,1-2.07-11.55c6.54-1.17,13.21-2.07,19.82-2.68a5.86,5.86,0,1,1,1.08,11.68Zm-183.14,118a5.85,5.85,0,0,1-2.36-7.95c3.16-5.84,6.61-11.62,10.27-17.17a5.87,5.87,0,0,1,9.8,6.45c-3.47,5.28-6.76,10.76-9.76,16.3a5.81,5.81,0,0,1-1.61,1.89A5.88,5.88,0,0,1,338.17,357.36ZM472.58,249.47c-6,2-12,4.2-17.78,6.67a5.86,5.86,0,1,1-4.59-10.79c6.11-2.6,12.41-5,18.72-7a5.86,5.86,0,0,1,5.36,10.25A5.7,5.7,0,0,1,472.58,249.47ZM366.33,314.69a5.87,5.87,0,0,1-.52-8.28c4.39-5,9-9.84,13.84-14.44a5.87,5.87,0,1,1,8.12,8.47c-4.56,4.38-9,9-13.16,13.72a5.47,5.47,0,0,1-.86.81A5.88,5.88,0,0,1,366.33,314.69Zm61-44.52c-5.4,3.25-10.73,6.78-15.84,10.48a5.87,5.87,0,0,1-7-9.42l.1-.07c5.39-3.91,11-7.62,16.68-11a5.87,5.87,0,0,1,6.57,9.7C427.68,269.94,427.5,270.06,427.32,270.17Z"/><path class="cls-5" d="M328.26,394.73a5.8,5.8,0,0,0,2-2.86c.94-2.87,1.95-5.78,3-8.63a5.87,5.87,0,0,0-11-4.08c-1.11,3-2.18,6-3.16,9.08a5.86,5.86,0,0,0,9.12,6.49Z"/></g><g class="cls-4"><path class="cls-5" d="M343.65,572.91a5.87,5.87,0,0,0,1.63-7.43c-1.42-2.67-2.81-5.41-4.13-8.15a5.86,5.86,0,1,0-10.57,5.08c1.39,2.88,2.85,5.77,4.35,8.58a5.84,5.84,0,0,0,8.72,1.92Z"/><path class="cls-5" d="M673.77,654.71a5.87,5.87,0,1,1-6.62-9.69c5.09-3.48,10.12-7.23,15-11.18a5.87,5.87,0,1,1,7.4,9.11c-2.11,1.71-4.25,3.39-6.4,5C680.07,650.29,676.92,652.56,673.77,654.71Zm30.88-33.28a5.85,5.85,0,0,1-.27-8.29c4.25-4.54,8.36-9.3,12.21-14.16a5.86,5.86,0,0,1,9.2,7.27c-4,5.12-8.37,10.14-12.85,14.92a5.73,5.73,0,0,1-.74.66A5.85,5.85,0,0,1,704.65,621.43ZM646.2,670.89c-5.85,2.91-11.89,5.61-18,8A5.87,5.87,0,0,1,623.9,668c5.78-2.29,11.52-4.85,17.06-7.61a5.87,5.87,0,0,1,6.17,9.92A6.31,6.31,0,0,1,646.2,670.89ZM735.84,582a5.86,5.86,0,0,1-2.08-8c3.15-5.36,6.11-10.91,8.79-16.5a5.87,5.87,0,0,1,10.58,5.07c-2.83,5.89-6,11.74-9.26,17.38a5.86,5.86,0,0,1-8,2.08ZM597.79,688.61c-6.34,1.55-12.83,2.86-19.29,3.87a5.87,5.87,0,1,1-1.83-11.59c6.15-1,12.31-2.2,18.33-3.67a5.86,5.86,0,0,1,4.93,10.37A5.73,5.73,0,0,1,597.79,688.61Zm-51.12,6.68c-6.54.13-13.16,0-19.67-.43a5.87,5.87,0,1,1,.74-11.71c6.19.4,12.48.53,18.69.41a5.86,5.86,0,0,1,3.66,10.54A5.78,5.78,0,0,1,546.67,695.29Zm-51.37-4.62c-6.41-1.3-12.84-2.88-19.11-4.7a5.87,5.87,0,0,1,3.28-11.27c5.95,1.73,12.06,3.24,18.16,4.47a5.87,5.87,0,0,1-2.33,11.5ZM446.17,675c-6-2.66-11.9-5.62-17.62-8.78a5.87,5.87,0,0,1,5.67-10.27c5.43,3,11.06,5.81,16.74,8.34A5.87,5.87,0,1,1,446.17,675Zm-44.5-26.14c-5.23-3.91-10.35-8.09-15.24-12.44a5.87,5.87,0,0,1,7.79-8.77c4.64,4.13,9.52,8.1,14.48,11.82a5.87,5.87,0,0,1,1.18,8.21,6.38,6.38,0,0,1-1.15,1.17A5.89,5.89,0,0,1,401.67,648.81ZM364,613.57c-3.13-3.65-6.19-7.44-9.08-11.27q-1.57-2.07-3.1-4.18a5.8,5.8,0,0,1,1.32-8.19,5.86,5.86,0,0,1,8.19,1.32c1,1.33,1.94,2.66,2.94,4,2.76,3.64,5.66,7.24,8.64,10.72a5.87,5.87,0,0,1-.63,8.27l-.29.22A5.86,5.86,0,0,1,364,613.57Z"/><path class="cls-5" d="M763,535.53a5.89,5.89,0,0,0,2-2.88c1-3,1.89-6.13,2.74-9.22a5.87,5.87,0,0,0-11.31-3.12c-.81,2.94-1.69,5.89-2.61,8.76a5.86,5.86,0,0,0,9.13,6.46Z"/></g><path class="cls-5" d="M717,446.07a2.75,2.75,0,0,0-1.75-2.66l-31.13-12a145.34,145.34,0,0,0-16.42-44.14l15.68-29.43a2.74,2.74,0,0,0-.41-3.16l-27.25-29.31a2.73,2.73,0,0,0-3.12-.64l-30.49,13.51a145.11,145.11,0,0,0-42.84-19.58l-9.72-31.92a2.74,2.74,0,0,0-2.52-1.94l-40-1.45a2.73,2.73,0,0,0-2.66,1.75l-12,31.13a145.27,145.27,0,0,0-44.14,16.42L438.8,317a2.74,2.74,0,0,0-3.15.41l-29.32,27.26a2.76,2.76,0,0,0-.64,3.12l13.51,30.49a145.4,145.4,0,0,0-19.57,42.83l-31.92,9.73a2.73,2.73,0,0,0-1.94,2.52l-1.46,40a2.75,2.75,0,0,0,1.75,2.66l31.14,12a145.31,145.31,0,0,0,16.41,44.14l-15.68,29.43a2.74,2.74,0,0,0,.41,3.16L425.6,594a2.71,2.71,0,0,0,3.11.64l30.49-13.51A145.22,145.22,0,0,0,502,600.73l9.72,31.92a2.74,2.74,0,0,0,2.53,1.94l40,1.45a2.72,2.72,0,0,0,2.65-1.75l12-31.13a145.27,145.27,0,0,0,44.14-16.42l29.43,15.69a2.76,2.76,0,0,0,3.16-.41L675,574.76a2.76,2.76,0,0,0,.64-3.12l-13.51-30.49a145.68,145.68,0,0,0,19.58-42.83l31.92-9.73a2.76,2.76,0,0,0,1.94-2.52Z"/><path class="cls-5" d="M560,495a40.19,40.19,0,1,1,5-3.21A40.88,40.88,0,0,1,560,495Zm-49-43.9a30.85,30.85,0,1,0,14.78-18.42,33.22,33.22,0,0,0-3.84,2.49A30.57,30.57,0,0,0,511.05,451.06Z"/><path class="cls-5" d="M599.4,538.57a100.1,100.1,0,0,0,7.79-6.53h0c.79-.74,1.56-1.48,2.32-2.24a98.91,98.91,0,0,0,10.33-12l.13-.18.36-.49.68-1a2.34,2.34,0,0,0,0-2.76,2.15,2.15,0,0,0-.53-.51,2.34,2.34,0,0,0-3.26.58A94.36,94.36,0,0,1,516,550.73,94.21,94.21,0,1,1,632,440a2.35,2.35,0,0,0,4.59-1,98.94,98.94,0,1,0-175.76,80.19c2,2.69,4.22,5.29,6.54,7.8a99,99,0,0,0,132,11.61Z"/><g class="cls-4"><path class="cls-5" d="M994,350.13a3.62,3.62,0,0,0,1.2-4.17c-1.09-2.88-2.29-5.76-3.55-8.57a3.62,3.62,0,0,0-6.61,3c1.2,2.68,2.34,5.43,3.38,8.17a3.63,3.63,0,0,0,4.68,2.1A3.3,3.3,0,0,0,994,350.13Z"/><path class="cls-5" d="M981.45,325.3a3.61,3.61,0,0,1-5-1.21,151.82,151.82,0,0,0-8.55-12.57c-.65-.85-1.3-1.7-2-2.54a3.63,3.63,0,0,1,.6-5.09,3.75,3.75,0,0,1,5.09.6c.69.88,1.38,1.76,2.05,2.65a159.19,159.19,0,0,1,9,13.18,3.63,3.63,0,0,1-.91,4.77Zm-27.76-30a150.25,150.25,0,0,0-13.85-12.11,3.62,3.62,0,0,1,4.43-5.73,155.9,155.9,0,0,1,14.52,12.69,3.62,3.62,0,0,1,0,5.12,3.25,3.25,0,0,1-.39.35A3.63,3.63,0,0,1,953.69,295.27ZM924.6,272.86a149.57,149.57,0,0,0-16.41-8.34,3.62,3.62,0,0,1,2.88-6.65,156.88,156.88,0,0,1,17.2,8.74,3.62,3.62,0,0,1-3.67,6.25Zm-33.72-14.58a147.21,147.21,0,0,0-17.94-4.06,3.63,3.63,0,0,1,1.16-7.16,156.53,156.53,0,0,1,18.82,4.27,3.62,3.62,0,1,1-2,6.95Zm-36.25-5.91a152.5,152.5,0,0,0-18.39.42,3.62,3.62,0,0,1-.6-7.22,158.82,158.82,0,0,1,19.27-.44,3.63,3.63,0,0,1,2.05,6.51A3.58,3.58,0,0,1,854.63,252.37Zm-36.58,3.08a147.88,147.88,0,0,0-17.72,4.88,3.62,3.62,0,1,1-2.35-6.85,154.29,154.29,0,0,1,18.58-5.13,3.63,3.63,0,0,1,2.93,6.44A3.73,3.73,0,0,1,818.05,255.45Zm-34.71,11.92a147.72,147.72,0,0,0-16,9.09,3.62,3.62,0,1,1-4-6.07,156,156,0,0,1,16.76-9.53,3.62,3.62,0,0,1,3.79,6.14A4.6,4.6,0,0,1,783.34,267.37Zm-49.17,33a3.62,3.62,0,0,1-.2-5.12,159.88,159.88,0,0,1,12-11.67q1-.84,1.92-1.65a3.62,3.62,0,1,1,4.67,5.54c-.6.51-1.21,1-1.82,1.57a151,151,0,0,0-11.48,11.13,3.22,3.22,0,0,1-.48.43A3.61,3.61,0,0,1,734.17,300.36Z"/></g><g class="cls-4"><path class="cls-5" d="M941.58,527.55a155.46,155.46,0,0,1-15.91,10.31,3.62,3.62,0,0,1-3.57-6.31,150.24,150.24,0,0,0,15.19-9.83,3.62,3.62,0,0,1,4.33,5.8ZM951,515.24a3.61,3.61,0,0,1,.15-5.12,153.14,153.14,0,0,0,12.42-13.18,3.62,3.62,0,0,1,5.56,4.65,160.12,160.12,0,0,1-13,13.81l-.3.25A3.62,3.62,0,0,1,951,515.24ZM908.6,546.17a157,157,0,0,1-18,6.16,3.63,3.63,0,0,1-1.93-7,149.65,149.65,0,0,0,17.12-5.87,3.62,3.62,0,0,1,3.57,6.24A4,4,0,0,1,908.6,546.17Zm66.81-58.8a3.61,3.61,0,0,1-1.08-5,149.81,149.81,0,0,0,8.86-15.78,3.62,3.62,0,1,1,6.52,3.15,154.28,154.28,0,0,1-9.29,16.55,3.61,3.61,0,0,1-5,1.08ZM872.1,556.26a157.19,157.19,0,0,1-18.89,1.66,3.63,3.63,0,0,1-.2-7.25,148.7,148.7,0,0,0,18-1.58,3.62,3.62,0,0,1,2.72,6.47A3.56,3.56,0,0,1,872.1,556.26Zm-37.85,1a159.58,159.58,0,0,1-18.75-2.91,3.62,3.62,0,1,1,1.54-7.08,151.54,151.54,0,0,0,17.89,2.77,3.63,3.63,0,0,1-.68,7.22Zm-37-8.06a158.11,158.11,0,0,1-17.51-7.32,3.63,3.63,0,0,1,3.2-6.51,148.79,148.79,0,0,0,16.69,7,3.63,3.63,0,0,1,2.23,4.62,3.53,3.53,0,0,1-1.23,1.69A3.62,3.62,0,0,1,797.23,549.24Z"/><path class="cls-5" d="M995.74,453.74A3.57,3.57,0,0,0,997,452c1-2.93,1.92-5.91,2.73-8.85a3.63,3.63,0,0,0-7-1.93c-.77,2.81-1.65,5.65-2.6,8.45a3.63,3.63,0,0,0,2.27,4.6A3.59,3.59,0,0,0,995.74,453.74Z"/></g><path class="cls-5" d="M966.06,391.48a1.84,1.84,0,0,0-1.17-1.78l-20.84-8a97,97,0,0,0-11-29.53l10.49-19.7a1.83,1.83,0,0,0-.27-2.11l-18.24-19.61a1.82,1.82,0,0,0-2.09-.43l-20.4,9a97,97,0,0,0-28.66-13.1l-6.51-21.36a1.84,1.84,0,0,0-1.69-1.3l-26.76-1a1.82,1.82,0,0,0-1.78,1.17l-8,20.83a97.11,97.11,0,0,0-29.54,11l-19.69-10.5a1.82,1.82,0,0,0-2.11.28L758.16,323.6a1.84,1.84,0,0,0-.43,2.08l9,20.41a97.42,97.42,0,0,0-13.1,28.66l-21.36,6.51a1.82,1.82,0,0,0-1.3,1.68l-1,26.77a1.85,1.85,0,0,0,1.17,1.78l20.84,8a97.18,97.18,0,0,0,11,29.54l-10.49,19.69a1.83,1.83,0,0,0,.27,2.11l18.24,19.61a1.82,1.82,0,0,0,2.09.43l20.4-9A97,97,0,0,0,822.2,495l6.51,21.36a1.84,1.84,0,0,0,1.69,1.3l26.76,1a1.82,1.82,0,0,0,1.78-1.17l8-20.83a97.11,97.11,0,0,0,29.54-11l19.69,10.5a1.83,1.83,0,0,0,2.12-.28l19.61-18.23a1.86,1.86,0,0,0,.43-2.09l-9-20.4a97.6,97.6,0,0,0,13.1-28.67l21.36-6.5a1.84,1.84,0,0,0,1.3-1.69Z"/><path class="cls-5" d="M861.23,424.62a27.33,27.33,0,1,1,3.41-2.21A28,28,0,0,1,861.23,424.62Zm-30.86-14.33a20.17,20.17,0,0,0,27.38,8h0a20.16,20.16,0,1,0-27.38-8Z"/><path class="cls-5" d="M888.65,455a67.4,67.4,0,0,0,5.31-4.46,68.53,68.53,0,0,0,9.18-10.45l.36-.51a3.63,3.63,0,0,0-.08-4.26,3.85,3.85,0,0,0-.82-.79,3.63,3.63,0,0,0-5,.9,61.64,61.64,0,0,1-8.53,9.8h0l-.53.48a60.33,60.33,0,0,1-26.34,14.09,61.4,61.4,0,0,1-16.34,1.74h-.13l-.42,0A61,61,0,1,1,892.16,359c1.41,1.51,2.74,3.1,4,4.74a60.76,60.76,0,0,1,11,24.08,3.42,3.42,0,0,0,.66,1.43,3.62,3.62,0,0,0,6.43-2.94,68.28,68.28,0,0,0-12.32-26.94c-1.4-1.84-2.88-3.61-4.46-5.31A68.26,68.26,0,0,0,793,441.63,69.28,69.28,0,0,0,797.5,447,68.35,68.35,0,0,0,888.65,455Z"/></g><polygon class="cls-6" points="966.91 1417.81 931.5 1662.16 1342.31 1662.16 1288.8 1417.81 966.91 1417.81"/><path class="cls-7" d="M276.84,635.41V1362.7A110.33,110.33,0,0,0,384.33,1473c265.64,6.85,1194.73,23.46,1447.61,19.73a81.18,81.18,0,0,0,79.92-78.87c4.88-169,12.8-575.25-16.51-763.88a83.54,83.54,0,0,0-79.88-70.71c-222.57-7.12-1207.47-29.73-1460.23-24A80.2,80.2,0,0,0,276.84,635.41Z"/><path class="cls-8" d="M322.48,631.87v691a63.93,63.93,0,0,0,63,63.92l1410.12,17.42a62.21,62.21,0,0,0,63.14-62l2.36-684.8a45.5,45.5,0,0,0-44.39-45.66L373,582.58A49.3,49.3,0,0,0,322.48,631.87Z"/><path class="cls-8" d="M1869.32,1432.51h0L322.44,1406.15a2,2,0,0,1-1.92-2,2,2,0,0,1,2-1.92l1546.84,26.36a2,2,0,0,1,0,3.91Z"/><path class="cls-8" d="M1111.16,1464.7a18,18,0,1,1,18-18A18.07,18.07,0,0,1,1111.16,1464.7Zm0-32.19a14.14,14.14,0,1,0,14.13,14.14A14.15,14.15,0,0,0,1111.16,1432.51Z"/><path class="cls-9" d="M1430.79,1727.13H829.56c-16.34,0-28.6-11.62-25.44-24.11l7.71-30.51c2.32-9.18,12.42-15.92,24.41-16.29l579.61-18.09c12.52-.39,23.62,6.26,26.34,15.8l13.91,48.59C1459.72,1715.15,1447.39,1727.13,1430.79,1727.13Z"/><path class="cls-8" d="M1153.21,1664.48a2,2,0,0,1,0-3.91l24.83-.36a2,2,0,0,1,2,1.92,2,2,0,0,1-1.93,2l-24.84.36Z"/><path class="cls-8" d="M826.38,1710.31a1.73,1.73,0,0,1-.32,0,2,2,0,0,1-1.62-2.23l3.55-22.2A24.75,24.75,0,0,1,852.11,1665l263.43-3.85h0a2,2,0,0,1,0,3.91l-263.44,3.85a20.84,20.84,0,0,0-20.31,17.59l-3.55,22.19A2,2,0,0,1,826.38,1710.31Z"/><g class="cls-10"><rect class="cls-11" x="1105.32" y="680.17" width="37.09" height="654.17"/><rect class="cls-11" x="1167.29" y="680.17" width="37.09" height="654.17"/><rect class="cls-11" x="1229.26" y="680.17" width="37.09" height="654.17"/><rect class="cls-11" x="1291.24" y="680.17" width="37.09" height="654.17"/><rect class="cls-11" x="1353.21" y="680.17" width="37.09" height="654.17"/><rect class="cls-11" x="1415.18" y="680.17" width="37.09" height="654.17"/><rect class="cls-11" x="1477.15" y="680.17" width="37.09" height="654.17"/></g><rect class="cls-12" x="1105.32" y="991.99" width="37.09" height="342.35"/><rect class="cls-13" x="1167.29" y="1109.65" width="37.09" height="224.69"/><rect class="cls-14" x="1229.26" y="818.86" width="37.09" height="515.49"/><rect class="cls-15" x="1291.24" y="1210.5" width="37.09" height="123.84"/><rect class="cls-16" x="1353.21" y="887.77" width="37.09" height="446.57"/><rect class="cls-17" x="1415.18" y="965.09" width="37.09" height="369.25"/><rect class="cls-18" x="1477.15" y="1049.14" width="37.09" height="285.2"/><path class="cls-1" d="M493.63,650.28a90.1,90.1,0,1,0,90.1,90.1A90.09,90.09,0,0,0,493.63,650.28Zm0,141.43A51.33,51.33,0,1,1,545,740.38,51.34,51.34,0,0,1,493.63,791.71Z"/><g class="cls-19"><rect class="cls-20" x="367.8" y="720.56" width="267.64" height="113.27"/></g><path class="cls-1" d="M713.27,650.28a90.1,90.1,0,1,0,90.1,90.1A90.09,90.09,0,0,0,713.27,650.28Zm0,141.43a51.33,51.33,0,1,1,51.33-51.33A51.34,51.34,0,0,1,713.27,791.71Z"/><g class="cls-21"><rect class="cls-20" x="587.44" y="676.78" width="267.64" height="157.05"/></g><path class="cls-1" d="M932.91,650.28a90.1,90.1,0,1,0,90.1,90.1A90.1,90.1,0,0,0,932.91,650.28Zm0,141.43a51.33,51.33,0,1,1,51.33-51.33A51.34,51.34,0,0,1,932.91,791.71Z"/><g class="cls-22"><rect class="cls-20" x="807.08" y="777.2" width="267.64" height="56.63"/></g><path class="cls-23" d="M1002.1,1338l-578-4.34a20.75,20.75,0,0,1-20.6-20.76V1015.91a20.75,20.75,0,0,1,20.75-20.75h578a20.75,20.75,0,0,1,20.76,20.75v301.3A20.75,20.75,0,0,1,1002.1,1338Z"/><path class="cls-23" d="M912.45,1129.23l-74.32-78.58L731.56,1166.56l-75.19-81.13-70.53,79.72-54.08-65.71-106.57,111v80.24a19.3,19.3,0,0,0,19.16,19.3l537.55,4a19.31,19.31,0,0,0,19.45-19.31V1076.39Z"/><rect class="cls-11" x="912.9" y="1127.05" width="1.96" height="186.94"/><rect class="cls-11" x="837.15" y="1050.65" width="1.96" height="262.25"/><rect class="cls-11" x="730.58" y="1165.15" width="1.96" height="146.96"/><rect class="cls-11" x="657.39" y="1088.3" width="1.96" height="223.81"/><rect class="cls-11" x="584.87" y="1162.76" width="1.96" height="149.35"/><rect class="cls-11" x="531.93" y="1093.87" width="1.96" height="216.8"/><circle class="cls-1" cx="532.91" cy="1093.87" r="16.33" transform="translate(-681.63 1167.61) rotate(-67.5)"/><path class="cls-1" d="M596.6,1162.76A10.76,10.76,0,1,1,585.84,1152,10.75,10.75,0,0,1,596.6,1162.76Z"/><path class="cls-1" d="M669.12,1088.3a10.76,10.76,0,1,1-10.76-10.76A10.76,10.76,0,0,1,669.12,1088.3Z"/><path class="cls-1" d="M742.32,1165.15a10.76,10.76,0,1,1-10.76-10.76A10.75,10.75,0,0,1,742.32,1165.15Z"/><path class="cls-1" d="M848.88,1050.65a10.76,10.76,0,1,1-10.75-10.75A10.75,10.75,0,0,1,848.88,1050.65Z"/><path class="cls-1" d="M924.64,1127.05a10.76,10.76,0,1,1-10.76-10.76A10.75,10.75,0,0,1,924.64,1127.05Z"/><g class="cls-24"><path class="cls-11" d="M570.53,945.72H412.09c-6.63,0-12,3.74-12,8.36s5.37,8.35,12,8.35H570.53c6.63,0,12-3.74,12-8.35S577.16,945.72,570.53,945.72Z"/><path class="cls-11" d="M570.53,908.71H412.09c-6.63,0-12,3.75-12,8.36s5.37,8.36,12,8.36H570.53c6.63,0,12-3.74,12-8.36S577.16,908.71,570.53,908.71Z"/><path class="cls-11" d="M570.53,871.71H412.09c-6.63,0-12,3.74-12,8.36s5.37,8.35,12,8.35H570.53c6.63,0,12-3.74,12-8.35S577.16,871.71,570.53,871.71Z"/></g><g class="cls-24"><path class="cls-11" d="M790.77,945.72H632.33c-6.63,0-12,3.74-12,8.36s5.37,8.35,12,8.35H790.77c6.63,0,12-3.74,12-8.35S797.4,945.72,790.77,945.72Z"/><path class="cls-11" d="M790.77,908.71H632.33c-6.63,0-12,3.75-12,8.36s5.37,8.36,12,8.36H790.77c6.63,0,12-3.74,12-8.36S797.4,908.71,790.77,908.71Z"/><path class="cls-11" d="M790.77,871.71H632.33c-6.63,0-12,3.74-12,8.36s5.37,8.35,12,8.35H790.77c6.63,0,12-3.74,12-8.35S797.4,871.71,790.77,871.71Z"/></g><g class="cls-24"><path class="cls-11" d="M1011,945.72H852.57c-6.63,0-12,3.74-12,8.36s5.37,8.35,12,8.35H1011c6.63,0,12-3.74,12-8.35S1017.64,945.72,1011,945.72Z"/><path class="cls-11" d="M1011,908.71H852.57c-6.63,0-12,3.75-12,8.36s5.37,8.36,12,8.36H1011c6.63,0,12-3.74,12-8.36S1017.64,908.71,1011,908.71Z"/><path class="cls-11" d="M1011,871.71H852.57c-6.63,0-12,3.74-12,8.36s5.37,8.35,12,8.35H1011c6.63,0,12-3.74,12-8.35S1017.64,871.71,1011,871.71Z"/></g><circle class="cls-25" cx="1681.35" cy="980.5" r="73.31" transform="translate(598.27 2597.67) rotate(-86.44)"/><path class="cls-8" d="M1724.91,965a47.09,47.09,0,1,1-43.56-29.2c.79,0,1.58,0,2.37.07V923.93c-.79,0-1.58,0-2.37,0a58.95,58.95,0,1,0,54.51,36.36Z"/><path class="cls-26" d="M1741.6,1084.86H1622.14a13.58,13.58,0,1,0,0,27.15H1741.6a13.58,13.58,0,1,0,0-27.15Z"/><circle class="cls-27" cx="1681.03" cy="744.87" r="73.31" transform="translate(-34.34 1406.84) rotate(-45)"/><path class="cls-8" d="M1706,787.11a47.09,47.09,0,1,1-25.09-86.93c.8,0,1.59,0,2.38.06V688.3c-.79,0-1.58,0-2.38,0a59,59,0,1,0,31,109.24Z"/><path class="cls-26" d="M1741.92,849.23H1622.45a13.58,13.58,0,0,0,0,27.16h119.47a13.58,13.58,0,0,0,0-27.16Z"/><circle class="cls-28" cx="1681.61" cy="1217.32" r="73.31" transform="translate(362.15 2820.04) rotate(-86.44)"/><path class="cls-29" d="M1721.53,1243.8a47.09,47.09,0,1,1-38.94-73.57c.8,0,1.59,0,2.38.06v-11.93c-.79,0-1.58-.06-2.38-.06a59,59,0,1,0,48.61,92.5Z"/><path class="cls-26" d="M1621.87,1346.44h119.47a13.58,13.58,0,1,0,0-27.15H1621.87a13.58,13.58,0,0,0,0,27.15Z"/><path class="cls-30" d="M1706.9,1746s3.16,17.91,4.71,35.64a12.21,12.21,0,0,1-11.68,13.24c-23.61,1-74.12,2.9-92.24,2.09a4,4,0,0,1-3.5-5.45,8.85,8.85,0,0,1,4.55-4.79l83.43-38.35Z"/><path class="cls-31" d="M1709.49,1735.45l-2.54,21.42s-14.62,6.81-24.6-.86l6.05-23.87Z"/><path class="cls-32" d="M1707.58,1332.66c1.1,5.6,5.89,279.2-23.35,401.81a4.15,4.15,0,0,0,2.44,4.84,72.4,72.4,0,0,0,23.82,4.84,7.17,7.17,0,0,0,7.11-5.14c8.36-28.45,48.42-171,53.64-307.14,5.84-152.14,0-5.18,0-5.18l-3.42-94Z"/><path class="cls-33" d="M1802.87,1755.32s5,9,9.91,33.07a7.45,7.45,0,0,1-6.56,8.92c-7.8.77-19.8,1.75-29.41,1.69a7.44,7.44,0,0,1-7.36-8.29c1.07-8.77,4.38-23.16,14.63-34.38Z"/><path class="cls-34" d="M1807.29,1727.76l-5.94,32.4s-5.87,4.37-17.49,1.2l2.83-34.86Z"/><path class="cls-35" d="M1823.34,1341.06c23.91,144.35-5.19,356.78-15,398.36a6.47,6.47,0,0,1-5.24,4.92,43.52,43.52,0,0,1-18.7-.74,6,6,0,0,1-4.28-5.47c-1.31-33.62,1.06-240-21.23-321.53a18.46,18.46,0,0,0-7.15-10.22l-43.25-30.76-3.32-49.71Z"/><path class="cls-20" d="M1670.92,1067.53c71.68-1.18,150.78,18.82,150.78,18.82,21.36,124.68,3.73,268.48,3.73,268.48-55.49,14.56-118.09-8.89-118.09-8.89-9.23-52.12-52.26-198.77-52.26-198.77-35-4.35-63.88-14.46-87.64-27.81,18.13-21,26.67-47.74,30.38-63.55C1623.17,1063.69,1648.81,1067.9,1670.92,1067.53Z"/><path class="cls-36" d="M1459.19,962c7-8.51,16-4.48,16-4.48,10.55,44.56,65.86,80.69,122.68,98.34-3.71,15.81-12.25,42.54-30.38,63.55C1473.14,1066.33,1459.19,962,1459.19,962Z"/><path class="cls-37" d="M1460.89,964.11c-.73,2.34,7.8,5.91,12.82-3.67.18-4.59,3-24.26.23-28-14.61-19.92-42.94-44.89-42.94-44.89a6.74,6.74,0,0,0-.85,9.36l13.75,14.32c-2.88,5.19-6.38,9.58-8,15.86a19.29,19.29,0,0,0,1.92,14.17c2.42,4.35,5.71,10,8.82,14.42C1452.5,964.05,1460.89,964.11,1460.89,964.11Z"/><path class="cls-38" d="M1449.91,920.52l12.52,10.61,3.93,10.57-11.16,12.39s-3.76-21-6.55-25.51S1447.31,921.85,1449.91,920.52Z"/><path class="cls-20" d="M1794.2,1155.76l27.5-69.41s67,45.5,78,103.18c-12.65.93-35.67,4.22-58.2,15.6C1836.5,1177.89,1794.2,1155.76,1794.2,1155.76Z"/><path class="cls-39" d="M1735.69,1221.07s75.17,42.49,100.54,6.21c5.26-7.53,6.52-15,5.23-22.15,22.53-11.38,45.55-14.67,58.2-15.6a79.58,79.58,0,0,1-8.65,54.57c-44.43,81.28-165.27-4.49-165.27-4.49Z"/><path class="cls-40" d="M1744.72,1274.82l-41-143.27a4.18,4.18,0,0,0-3.54-3c-7.43-.87-29-3.3-53.84-5.41-30-2.53-64.74-4.58-85.53-2.84a4.2,4.2,0,0,0-3.43,6c11.82,23.91,60.45,121.19,84.8,153.06a4.17,4.17,0,0,0,3.38,1.66l95.19-.88A4.2,4.2,0,0,0,1744.72,1274.82Z"/><path class="cls-41" d="M1642.07,1110.71l-29.75-5a2.13,2.13,0,0,0-2.38,2.77l3,8.92a2.12,2.12,0,0,0,1.74,1.45l28.62,3.82a2.13,2.13,0,0,0,2.37-2.6l-1.83-7.79A2.11,2.11,0,0,0,1642.07,1110.71Z"/><path class="cls-42" d="M1664.34,1135.89l-2.45-12.76a3,3,0,0,0-2.6-2.38l-60.08-6.1a3,3,0,0,0-3.17,3.63l3.82,15.9a3,3,0,0,0,2.72,2.26l58.71,3A3,3,0,0,0,1664.34,1135.89Z"/><path class="cls-43" d="M1734.81,1240.21s5.72-23.5,3.41-31.84-6.77-19.06-21.66-16.68-32.45,8.66-32.45,8.66.89,10.86,12.2,7.35l-7,5.43s1,8.7,10.56,4l-6.53,7.2s4.1,7.15,11.14,2.56S1714.87,1243,1734.81,1240.21Z"/><path class="cls-44" d="M1743.53,1009.34l22.81,66a2.38,2.38,0,0,1-1.09,2.86c-6.21,3.44-28.61,13.37-55.61-3.74a11.2,11.2,0,0,1-5.15-8l-7.39-57.09Z"/><path class="cls-45" d="M1692.47,941.21c-.69.95-22.12,75.66-22.12,75.66l42.91,11.33,30.84-67.79S1704,925.24,1692.47,941.21Z"/><path class="cls-46" d="M1727.06,965.43a6.38,6.38,0,0,1,.59,5.59l-13.24,36.42a6,6,0,0,1-.82,1.54c-1.91,2.63-8.65,10.48-16.48,3.09-6.67-6.3-12.89-12-18.71-13.72a6.36,6.36,0,0,0-7.9,4.42c-2,7-5.71,21.25-7.23,34.37a6.34,6.34,0,0,0,5.11,6.94c8.57,1.67,25.4,4.45,39.71,3.67a6.37,6.37,0,0,0,5.43-3.67c4.4-9.37,16.85-35.6,21.5-42.47,4.32-6.38,14.6-6.28,19.31-5.87a6.4,6.4,0,0,0,4.87-1.62c4-3.6,10.57-11.91,1.12-22a6.38,6.38,0,0,1,.29-8.88c4.4-4.3,8.67-11.6,1.5-20.68s-16.88-8.28-23.15-6.25a6.62,6.62,0,0,1-7.56-2.47,4.2,4.2,0,0,0-3.72-1.91,6.19,6.19,0,0,1-6.3-6.18c0-6-2.3-13.35-12.52-16.64-18.74-6-30.63,12-31.91,25.56s19.4,18.91,31.6,18.11C1717.51,952.2,1724.16,960.81,1727.06,965.43Z"/><path class="cls-47" d="M1730,1015s3.26-23.49,13-24.55,19.25,7.07,9.4,20.18C1740.18,1027,1730,1015,1730,1015Z"/></g></svg>