<svg xmlns="http://www.w3.org/2000/svg" viewBox="0 0 2374.47 1805.51"><defs><style>.cls-1{fill:#ebf2f9;}.cls-2{fill:#adcbf9;}.cls-3{fill:#2b478b;}.cls-4,.cls-7{fill:#d86713;}.cls-5{fill:#ee9849;}.cls-6{fill:#f1a34f;}.cls-7{opacity:0.4;}.cls-8{fill:#699dee;}.cls-9{fill:#e9f3fe;}.cls-10{fill:#afcdfb;}.cls-11{fill:#fca56b;}.cls-12{fill:#e58638;}.cls-13{fill:#163560;}.cls-14{fill:#1c468a;}.cls-15{fill:#ffb27d;}.cls-16{fill:#588fe0;}.cls-17{fill:#b74b42;}.cls-18{fill:#ffc08d;}.cls-19{fill:#ffe6d2;}.cls-20{fill:#cae0ff;}.cls-21{fill:#b84c42;}.cls-22{fill:#f99746;}.cls-23{fill:#ffb93e;}.cls-24{fill:#e2915a;}.cls-25{fill:#fff;}</style></defs><title>Монтажная область 2 copy</title><g id="Layer_4" data-name="Layer 4"><path class="cls-1" d="M1086.7,15.24C494.47,15.24,14.36,495.35,14.36,1087.58c0,275.08,103.6,526,273.88,715.79H1885.17C2055.45,1613.54,2159,1362.66,2159,1087.58,2159,495.35,1678.94,15.24,1086.7,15.24Z"/><path class="cls-2" d="M1065.21,821.8l-30.16-.69c9.69,12.56,11.87,24.13,5.84,33.92-6,10-20.47,18.19-42,24.42A389.79,389.79,0,0,0,482.23,384.37c-5.74,2.47-11.47,5-17,7.71l-.05,0c-16.75-5.11-33.07-9.3-48.81-12.49-79.47-16.12-135.86-5-158.77,31.39-21.8,34.58-9.93,86.64,33.33,147.36l0,0c-5.83,10.78-11.07,21.85-15.92,33.32-3.66,8.61-6.92,17.21-9.89,26-81.27,4.84-124.78,19.15-140.6,45-18.39,30.16,6.72,70.64,87.11,110,11.08,5.44,22.94,10.78,35.4,16.12a380.94,380.94,0,0,0,28,106,389.59,389.59,0,0,0,716.17,3.66c39.65-8.21,65.76-21.06,76.14-38.07C1074.51,848.7,1073.62,835.64,1065.21,821.8Zm-93,63.78c-26.4,4.74-59.33,7.51-97.79,7.91-59.69.73-128.23-4-200.47-13.51q9.12-19.85,17.85-40.73a551.4,551.4,0,0,0,64.92,17.65c23.77,4.82,45.46,7.2,64.82,7.2,45.38,0,77.89-13.1,94-38.59a66.86,66.86,0,0,0,6.46-13.35H898.77c-.38.7-.79,1.4-1.21,2.08-11.93,18.93-38.59,28.71-76,28.7-17.9,0-38.28-2.23-60.67-6.78a530.06,530.06,0,0,1-61.1-16.52q8.36-20.91,16.21-42.56c14.11-38.88,26.18-77.43,35.94-114.44,44.51,6.56,92.28,9.86,143,9.86q47.4,0,98.21-3.83a368.53,368.53,0,0,1,7.56,74.62A364.7,364.7,0,0,1,972.17,885.58Zm-482,193.08c-11.26-4.08-17-20.22-19.78-33.05-4.44-20.28-5.24-48.75-2.32-82.35,1.48-17,3.85-35.06,7.05-54a1001.58,1001.58,0,0,1,136.26,47.15c-10,17.27-20.15,33.29-30.28,47.8-19.29,27.66-38.16,49-54.57,61.72C516.19,1074,501.46,1082.74,490.21,1078.66ZM621.6,938.37a1021.45,1021.45,0,0,0-142.73-49.43q2.55-13.16,5.6-26.76,20.16,4.59,40.87,8.86c40.39,8.26,80.68,15.28,120.12,21C637.65,908.15,629.68,923.65,621.6,938.37Zm-87.36-82q-23.42-4.81-46.1-10c7.12-29.61,15.86-60.47,26.06-91.92,53,32.6,107,59.13,158.06,77.95-6.4,15.3-13,30.22-19.71,44.65C613.76,871.48,574.06,864.57,534.24,856.41ZM404.69,456.76A239.82,239.82,0,0,0,419,482c26.81,41.44,62.23,71.49,87.22,89.39A426.85,426.85,0,0,0,552.14,600c-14.81,32.28-28.92,66.73-41.9,102.5q-3.63,10-7.07,20C425.68,672,360.08,614.1,317,558.09l0,0A367.45,367.45,0,0,1,354,506c5.73-6.73,11.66-13.25,17.89-19.58l2.57-2.57A369.48,369.48,0,0,1,404.69,456.76ZM736,400.87c11.25,4.08,17,20.23,19.78,33.05,4.44,20.28,5.24,48.75,2.32,82.35-3.2,36.78-10.57,78.55-21.53,123q-19.85-3.42-38.75-7.75c-43.5-10-83.16-23.69-118.57-40.88,21.13-44.07,43.47-83.37,65.81-115.39,19.3-27.66,38.17-49,54.58-61.72,8.55-6.63,20.07-13.73,30.16-13.73A17.94,17.94,0,0,1,736,400.87ZM691.81,651.33q19.34,4.49,39.67,8C722,695.13,710.25,732.4,696.6,770q-7.89,21.76-16.32,42.79c-51.27-18.83-105.7-45.76-159.21-79q4.15-12.12,8.57-24.32c12.68-35,26.45-68.62,40.88-100.14C606.89,627,647.45,641,691.81,651.33ZM893.26,483.84a365.34,365.34,0,0,1,95.11,164.48c-84.56,6.19-162,4.25-231.33-5.78,11-44.91,18.4-87.16,21.64-124.48,3.59-41.21,3.15-90-13.56-117.49q5.82,2.22,11.57,4.66A364.12,364.12,0,0,1,893.26,483.84ZM633.91,376.36A367.73,367.73,0,0,1,708.75,384c-28.82,12.55-58.24,47.46-80.58,79.48-22.86,32.77-45.69,72.88-67.24,117.77a407.1,407.1,0,0,1-41.23-25.61c-61.32-43.51-88.34-90.41-98.16-111.6a367.45,367.45,0,0,1,47.38-28.59h0q10.1-5.1,20.57-9.57l1.52-.65.35-.15q2.24-.94,4.48-1.84l1.2-.48A364.46,364.46,0,0,1,633.91,376.36ZM275.48,422.27c11.93-18.93,38.58-28.7,76-28.7,17.9,0,38.28,2.23,60.67,6.78q12.75,2.58,26,6.07h0a383.09,383.09,0,0,0-79.78,61.49c-5,4.94-9.88,10.08-14.63,15.42-5.93,6.53-11.57,13.35-17,20.27a393.12,393.12,0,0,0-24.12,34.51l0,0C269.58,489.05,259.64,447.41,275.48,422.27Zm20.27,178.24C299,593,302.37,585.58,306,578.37v0C351.36,635,418.15,692.9,496.2,743.12c-11.07,33.68-20.51,66.78-28.13,98.5-56.78-13.74-109.4-29.28-155.51-45.92-9.69-3.46-19.09-7-28.09-10.58-5.34-2.08-10.58-4.25-15.72-6.43-.79-7.91-1.38-15.92-1.58-23.93-.1-3.85-.2-7.61-.2-11.47,0-4.45.1-9,.2-13.44A371.12,371.12,0,0,1,284,632.55c1.68-5.34,3.46-10.58,5.44-15.82C291.4,611.29,293.47,605.85,295.75,600.51ZM229.6,761.09c-70.11-34.21-102.14-67.24-87.81-90.67,11.57-19,53.69-31.84,118.16-36.58a378.73,378.73,0,0,0-14.63,82.26c-.6,8.31-.89,16.61-1,25v2.17c0,8.41.3,16.81.79,25.12C239.78,766,234.64,763.56,229.6,761.09Zm53.19,42c9.49,3.56,19.19,7.12,29.17,10.58,45.91,15.91,97.37,30.7,152.42,43.81q-3,13.38-5.54,26.37-6.75-1.65-13.5-3.19c-76.1-17.32-133.21-20.84-159.68-21.44a358.93,358.93,0,0,1-14.44-60.58Zm13,83c-.83-2-1.63-3.93-2.42-5.9,28.23,1.14,80.57,5.41,147.43,20.63,4.78,1.09,9.56,2.23,14.34,3.39-3.44,20.08-6,39.26-7.55,57.28-3,34.15-3.18,73.51,6.34,101.63a368.73,368.73,0,0,1-158.14-177Zm480.94,195.29a368.18,368.18,0,0,1-254,11.7c27.15-14.22,54.42-46.89,75.42-77,10.83-15.53,21.65-32.71,32.34-51.26A1037,1037,0,0,1,806.9,1066.92Q792.17,1074.78,776.69,1081.36Zm116.57-78.61a363.75,363.75,0,0,1-66.76,52.89,1058.91,1058.91,0,0,0-186-108.9c8.94-16.39,17.76-33.7,26.37-51.78,59.56,7.89,116.83,12.63,169.1,13.85,13.65.4,26.9.4,39.75.3,33.32-.39,63-2.37,88.4-5.93A364.59,364.59,0,0,1,893.26,1002.75Z"/><path class="cls-3" d="M1851.87,1698.27c-8.31-32.23-64.48-7.27-110.73,19.77q-3.24-5.11-6.7-10.12c33.12-20.54,79.62-54.71,61.92-75.5-17.48-20.54-51.66,26-73,60.26-57.26-74.31-142.17-127.2-142.17-127.2s354.35-294.42,89.56-449.75-465.95,391.21-465.95,391.21-180.93-167.55-353.69-105.67c-177.42,63.54-66.55,181.31-220.62,213.16C612.32,1545,578.79,1447,532.93,1441.28c-60.55-7.59-35.07,68.2,56.94,178.92-17.83,1.6-38.15,2.42-61.37,2.35-247.11-.74-183.7,177.19-183.7,177.19l1428.76,3.3c-1.94-17.51-7-34.73-14.37-51.4C1808.13,1744,1859.69,1728.61,1851.87,1698.27Z"/><path class="cls-4" d="M1112.64,1013.54l-62.31,740.85s-6.53,44.91,26.88,45c54.92.13,273.37,0,273.37,0s-41.34-9.35-40.84-30.39c.59-24.79,72.83-762.46,72.83-762.46Z"/><path class="cls-5" d="M1368.3,1785.93c-10.8,0-219.44.69-272.93,0-23.31-.29-27.4-20.72-27.59-34a65.48,65.48,0,0,1,.71-11l1.62-19.26,4.13-49.08,3.64-43.36,4.69-55.72,4-47,44.27-526.42,269.93-7s-30.42,308.71-51.94,533.43c-2.4,25-4.69,49-6.8,71.45-.69,7.16-1.34,14.15-2,21-2,21.26-3.81,40.79-5.4,58-.84,9.08-1.61,17.52-2.31,25.26-2.74,30.3-4.35,49.66-4.38,53.33a31.45,31.45,0,0,0,.53,6C1332.86,1785.16,1364.25,1785.93,1368.3,1785.93Z"/><polygon class="cls-6" points="457.1 610.4 608.87 1220.03 629.65 1303.52 700.33 1587.46 2013.57 1587.46 1753.04 610.4 457.1 610.4"/><polygon class="cls-5" points="457.1 610.4 436.06 617.41 672.37 1608.67 700.34 1587.47 457.1 610.4"/><polygon class="cls-4" points="672.37 1608.67 1977.53 1608.67 2013.57 1587.47 700.34 1587.47 672.37 1608.67"/><rect class="cls-6" x="1130.7" y="1786.23" width="282.59" height="13.43"/><polygon class="cls-4" points="1341.45 1608.67 1339.99 1618.93 1074.24 1672.62 1077.88 1629.26 1079.62 1608.67 1341.45 1608.67"/><path class="cls-7" d="M1368.3,1785.93c-10.8,0-219.44.69-272.93,0-23.31-.29-27.4-20.72-27.59-34l264.5-49.76c-2.74,30.3-4.35,49.66-4.38,53.33a31.45,31.45,0,0,0,.53,6C1332.86,1785.16,1364.25,1785.93,1368.3,1785.93Z"/><polygon class="cls-7" points="1277.22 1389.67 700.34 1587.47 629.65 1303.52 1277.22 1389.67"/><polygon class="cls-8" points="457.1 610.4 1753.04 610.4 1963.3 1395.65 652.58 1395.65 457.1 610.4"/><path class="cls-4" d="M1391.77,1494.92c-3.75-19.26-22.39-34.87-41.65-34.87s-31.83,15.61-28.09,34.87,22.39,34.87,41.65,34.87S1395.51,1514.18,1391.77,1494.92Z"/><polygon class="cls-9" points="1902.18 1361.62 688.79 1361.62 551.38 814.21 540.84 772.23 531.85 736.43 510.78 652.47 1706.68 652.47 1729.82 736.43 1739.7 772.23 1751.27 814.21 1902.18 1361.62"/><polygon class="cls-10" points="1729.82 736.43 531.85 736.43 510.78 652.47 1706.68 652.47 1729.82 736.43"/><path class="cls-9" d="M568.13,679.91c-5.8,0-9.32,4.7-7.88,10.5s7.32,10.5,13.12,10.5,9.32-4.7,7.87-10.5S573.93,679.91,568.13,679.91Z"/><path class="cls-9" d="M603,679.91c-5.79,0-9.32,4.7-7.87,10.5s7.31,10.5,13.11,10.5,9.32-4.7,7.88-10.5S608.8,679.91,603,679.91Z"/><path class="cls-9" d="M653.67,690.41c-1.45-5.8-7.32-10.5-13.11-10.5s-9.33,4.7-7.88,10.5,7.31,10.5,13.11,10.5S655.11,696.21,653.67,690.41Z"/><path class="cls-11" d="M466.39,819.39s3.71-11.69-2.12-22.2,3.59-17.81,1.21-21-17.87-2.85-23.16,12.42S446,821.11,446,821.11Z"/><path class="cls-12" d="M401.35,903.4a18.69,18.69,0,0,0,23.86-15.16l15.44-67.13s3.21-5.2,14.34-4.75c12.11.49,15.39,6.5,15.39,6.5s7.49,118.19-27.5,134.87S368.27,893.53,401.35,903.4Z"/><path class="cls-13" d="M473.89,1801H375.34c-7-6.34-9.32-43.66-9.32-43.66s30.55-27.53,40.54-5.74c9.49,20.7,35.72,31.72,51.38,34.44C471.44,1788.39,473.57,1798.29,473.89,1801Z"/><path class="cls-13" d="M354.51,1801H256c-7-6.34-9.33-43.66-9.33-43.66s30.56-27.53,40.54-5.74c9.49,20.7,35.72,31.72,51.38,34.44C352.05,1788.39,354.19,1798.29,354.51,1801Z"/><path class="cls-13" d="M425.38,1285.09s-14,89.65-66.32,248.81S299.64,1762,299.64,1762l-56.1-1.58s-.48-173.94,23.62-254,5.2-288.53,5.2-288.53Z"/><path class="cls-14" d="M452.68,1222.81s2,135.11-21.4,301-15.45,236.31-15.45,236.31l-56,1.86S326.39,1596,336,1513s-45.82-284.91-45.82-284.91Z"/><path class="cls-15" d="M344.29,906.64,370.7,926.2l38.16-8c-.53-3.48-3-17.9-5.34-31-.14-.77-.28-1.54-.41-2.29-2-11.12-3.66-20.67-3.66-20.67l-35.64-17.76-13.29-6.63c0,.24,1,12.34,1.17,14.11C354.18,885.32,344.29,906.64,344.29,906.64Z"/><path class="cls-5" d="M406.19,896.77c-.83-.35-51.91-15.42-57.46-13.59s-8.84,12.57-8.84,12.57l83.55,18.89S416.87,901.27,406.19,896.77Z"/><path class="cls-5" d="M268.65,1239.49c8.66,39.5,152.75,44.18,189.89,8.33,4.23-4.09,4.43-23.1,2.84-48.74-3.12-50.08-13.12-125.42-13.51-163.91-.19-18.59-2.75-37.61-6.15-54.87a445.43,445.43,0,0,0-18.28-65.67s-70.38-22.75-83.55-18.88C276.45,914.39,260,1200,268.65,1239.49Z"/><path class="cls-12" d="M461.38,1199.08c-3.12-50.08-13.12-125.42-13.51-163.91-.19-18.59-2.75-37.61-6.15-54.87l-42.34-7.47S358,1141.9,461.38,1199.08Z"/><path class="cls-11" d="M354.36,854.5c7.83,15,37,27.93,49.16,32.69-.14-.77-.28-1.54-.41-2.29-2-11.12-3.66-20.67-3.66-20.67l-35.64-17.76C355.93,846.35,351.13,848.34,354.36,854.5Z"/><path class="cls-15" d="M416.77,862.15s-64.3,20.06-76.18-20.18S312.42,777.22,353,762.71s53.1-1.52,60.33,10.95S433.2,855.89,416.77,862.15Z"/><path class="cls-13" d="M407.57,773.94s-4.1,46.83-13.79,44.79-18.46-3.54-17,10.58,14.84,30.41-15,32.91-72.75-74.47-64.55-89C320.85,731.13,441.76,722.65,407.57,773.94Z"/><path class="cls-2" d="M498,763.89l-62.3,16.64,1.93,25.69,63.52-.44c5-.38,8.4-10.07,7.53-21.63S503,763.51,498,763.89Z"/><path class="cls-8" d="M442.25,793c-.53-7.1-3.46-12.66-6.54-12.43s-5.16,6.17-4.62,13.27,3.46,12.65,6.55,12.42S442.79,800.05,442.25,793Z"/><path class="cls-8" d="M465.35,792.11l-19.27.36c-.6,4,.44,5.79.44,5.79l19.21,1.29Z"/><path class="cls-2" d="M534.3,763l-71.53,19.11L465,811.58l72.93-.51c5.77-.43,9.65-11.55,8.65-24.83S540.07,762.55,534.3,763Z"/><path class="cls-8" d="M470.28,796.36c-.61-8.15-4-14.53-7.52-14.27s-5.91,7.09-5.3,15.23,4,14.53,7.52,14.26S470.9,804.5,470.28,796.36Z"/><path class="cls-15" d="M481.39,819.29s-6.75-10.24-4-21.95-8.29-16.16-6.87-19.86,16.43-7.6,25.67,5.65,5.32,32.26,5.32,32.26Z"/><path class="cls-5" d="M393.42,917.43s37.35-6.81,71.86-6.3a18.69,18.69,0,0,0,18.85-21.07l-6-67.52s4.32-7.17,15.15-9.75c11.79-2.82,15.58,3.54,15.58,3.54S549.16,926.57,520,952.13s-139.49,41.59-139.49,41.59Z"/><path class="cls-5" d="M2351.76,457c-3.85,88.77-24.5,197.44-90.15,284.86q-3.63,4.82-7.28,9.54-11,14.26-22.46,27.74a24.82,24.82,0,0,1-33.81,3.73L1906.63,564a22.6,22.6,0,0,1-7.3-9.35,22.86,22.86,0,0,1-1.75-7.64,22.59,22.59,0,0,1,3.71-13.61q10.26-15.57,21.48-31,3.52-4.83,7.14-9.65c65.65-87.42,164.25-137.55,248.43-166a795.67,795.67,0,0,1,114.32-29.22,51.78,51.78,0,0,1,14.19-.6,45.64,45.64,0,0,1,18.87,6.09c12.1,7.15,20.51,19.92,22.24,36A797.39,797.39,0,0,1,2351.76,457Z"/><path class="cls-16" d="M1922.57,502.72q-12.75,17.5-24.25,35.22a17.43,17.43,0,0,0,4.17,23.42l298.8,224.4a20.29,20.29,0,0,0,27.58-3q12.86-15,25.26-31Z"/><path class="cls-17" d="M2181.56,591.25a88.4,88.4,0,0,1-70.49-141.48h0a88.39,88.39,0,1,1,83.12,140.58A89.73,89.73,0,0,1,2181.56,591.25Zm.33-156.26a68.07,68.07,0,0,0-54.4,27.11h0a67.82,67.82,0,1,0,54.4-27.11Z"/><path class="cls-18" d="M2332.4,323.55a50.14,50.14,0,0,0-6.68-20.48,45.64,45.64,0,0,0-18.87-6.09c.05.39.1.77.14,1.16a796,796,0,0,1,3.8,117.93c-3.85,88.77-24.5,197.44-90.15,284.86-2.41,3.22-4.84,6.39-7.28,9.54-1.62,2.1-3.26,4.18-4.89,6.25L2237,738.18l1.79-2.29q3.66-4.74,7.28-9.55c65.65-87.42,86.3-196.09,90.15-284.86A796,796,0,0,0,2332.4,323.55Z"/><path class="cls-16" d="M2348,339.11c-3.06-28.52-27.06-46.55-55.3-41.53a795.67,795.67,0,0,0-114.32,29.22L2351.76,457A797.39,797.39,0,0,0,2348,339.11Z"/><path class="cls-17" d="M1946.83,622.4c-28.41-18.87-73.14-1.51-99.9,38.78s3,107.12,3,107.12,73.14,1.51,99.9-38.78S1975.25,641.28,1946.83,622.4Z"/><path class="cls-17" d="M2106.57,739.74c-28.42-18.88-73.14-1.52-99.9,38.77s3,107.12,3,107.12,73.14,1.51,99.9-38.77S2135,758.61,2106.57,739.74Z"/><path class="cls-5" d="M1916.63,667.57c-19.61-13-50.48-1-69,26.77s2.07,73.93,2.07,73.93,50.48,1.05,69-26.76S1936.24,680.6,1916.63,667.57Z"/><path class="cls-5" d="M2076.7,784.77c-19.61-13-50.48-1-68.95,26.77s2.07,73.93,2.07,73.93,50.48,1,69-26.76S2096.31,797.8,2076.7,784.77Z"/><path class="cls-19" d="M2142.1,546.82l91.64-16.19a59.77,59.77,0,0,1-91.64,16.19Z"/><path class="cls-19" d="M2241.12,499.79l-116.06,22a59.77,59.77,0,1,1,116.06-22Z"/><polygon class="cls-10" points="668.47 1069.03 734.3 1314.74 792.78 1314.74 726.94 1069.03 668.47 1069.03"/><polygon class="cls-10" points="746.77 1043.95 819.33 1314.74 877.81 1314.74 805.25 1043.95 746.77 1043.95"/><polygon class="cls-10" points="819.33 1000.74 903.47 1314.74 961.94 1314.74 877.81 1000.74 819.33 1000.74"/><polygon class="cls-10" points="957.85 968.92 899.37 968.92 983.5 1282.91 1041.98 1282.91 957.85 968.92"/><path class="cls-10" d="M677.12,1045l62.67-48.17,4.73,17.69a11,11,0,0,0,6.11,6.88c3,1.31,6,1,7.86-.77l66.94-64,9.37,8.42c1.13,1,2.66.55,2.51-.77l-3-26.79a2.15,2.15,0,0,0-2-1.79l-27.8-.89c-1.35,0-1.69,1.53-.55,2.55l8.36,7.52L755.73,999l-4.33-16.19a11,11,0,0,0-5.8-6.74c-2.81-1.34-5.79-1.23-7.75.26l-72.45,55.69c-3,2.28-2.75,7,.48,10.61a10.4,10.4,0,0,0,7.45,3.55A6.16,6.16,0,0,0,677.12,1045Z"/><path class="cls-20" d="M659,1247.54l2.47,9.56A26.44,26.44,0,0,1,659,1247.54Z"/><path class="cls-20" d="M1902.25,1361.56H688.74L661.43,1257.1c25.15,54,229.58-5.09,275.41-37.95,83.78-60.49,84.4-120,171.11-160.47,117.42-54.77,234.83,31,329.26,7.56,289.61-71.74,529.68-306.42,537.09-313.83-81.31,188.24-279.42,287.3-127.14,349C2005.16,1165.45,1902.25,1361.56,1902.25,1361.56Z"/><path class="cls-10" d="M684.85,830.3q-5.26-3.19-21.36-8.78a82.31,82.31,0,0,1-10.7-4.28,10.21,10.21,0,0,1-5.21-6.17c-1-3.24-.63-5.76,1.08-7.54s4.2-2.67,7.45-2.67a29.34,29.34,0,0,1,9.13,2.08q5.82,2.09,8,2.08a5.43,5.43,0,0,0,4.41-1.71q1.44-1.71.54-4.67-1.08-3.54-5.48-6.25-7.93-5-19.95-5-11.65,0-17.73,6.18-6.65,6.64-3.2,17.92,3.71,12.12,15.94,18.29l21.65,7.83q11.65,4.27,14,11.87,1.59,5.22-1.13,9a9.21,9.21,0,0,1-8,3.74,35.42,35.42,0,0,1-9.83-1.43q-.27-.12-6.63-2.26a25.35,25.35,0,0,0-6-1.67,5.58,5.58,0,0,0-4.57,1.79c-1,1.19-1.16,2.81-.53,4.87q1.92,6.32,13.32,9.75a54.85,54.85,0,0,0,16.38,2.62q13.2,0,19.58-7.12,6.84-7.6,2.88-20.54A31.06,31.06,0,0,0,684.85,830.3Z"/><path class="cls-10" d="M722.46,802.05h12.2q9.44,0,7.33-6.9t-11.77-7h-39q-9.63,0-7.49,7t11.62,6.9h12L727,866.14q3,9.75,10.42,9.75,7.67,0,4.68-9.75Z"/><path class="cls-10" d="M827.94,864.71,782,796q-5.94-8.93-13.9-8.92-7.74,0-8.35,9.63l-4.5,68.13a11.77,11.77,0,0,0,.6,4.28,9.08,9.08,0,0,0,3.59,4.94,9.93,9.93,0,0,0,5.75,1.84q5,0,5.35-6.29l.56-14.28h35l9,13.88q4.29,6.69,9.73,6.69a6,6,0,0,0,4.7-1.84,4.78,4.78,0,0,0,.72-4.82A18.14,18.14,0,0,0,827.94,864.71ZM771.56,842l1.4-36.62a5.55,5.55,0,0,1,.2-1.18L797.57,842Z"/><path class="cls-10" d="M890.45,861.5l-28.94-23.9q22.9-1.67,16.19-23.66a34,34,0,0,0-14.65-19.5,41.6,41.6,0,0,0-22.85-6.3h-17q-9.41,0-6.37,9.89l20.89,68.32q3,9.78,10.42,9.78,7.67,0,4.7-9.7L844.14,838l.77.59,37.62,32.94q5.36,4.63,9.17,4.64a5.34,5.34,0,0,0,4.44-1.85,5,5,0,0,0,.55-4.81Q895.53,865.66,890.45,861.5ZM851,828.09a51,51,0,0,1-10.13-.72l-7.81-25.56H844.2q14.09,0,18,12.78Q866.33,828.09,851,828.09Z"/><path class="cls-10" d="M914.13,802.05h12.2q9.43,0,7.33-6.9t-11.77-7h-39q-9.63,0-7.49,7t11.62,6.9h12l19.59,64.09q3,9.75,10.42,9.75,7.66,0,4.69-9.75Z"/><path class="cls-10" d="M1006.13,865.52a11.56,11.56,0,0,0-4.23-5.82,10.65,10.65,0,0,0-6.56-2.44,5.76,5.76,0,0,0-5.07,2.44,6.43,6.43,0,0,0-.66,5.82,11.47,11.47,0,0,0,4.22,5.81,10.69,10.69,0,0,0,6.56,2.45,5.77,5.77,0,0,0,5.07-2.45A6.43,6.43,0,0,0,1006.13,865.52Z"/><path class="cls-10" d="M996.86,838.65,983.6,795.26q-2.88-9.42-10.21-9.42t-4.33,9.42l13.26,43.39q3,9.76,10.32,9.77T996.86,838.65Z"/><path class="cls-10" d="M1729.75,1361.56H1140.66c25.15-20.68,59.56-56.47,77.76-107.85,30.86-86.71,136.24-50.92,229.28-65.88,93.19-15,281.17-204.7,287.6-182.84,3.44,11.7-38.57,165.86,23.15,183.3C1819.39,1205.42,1842.69,1301.69,1729.75,1361.56Z"/><path class="cls-15" d="M1948.36,1298.67l5.76,9.33c3,3.44,3.8,5.36,6.17,6.53,5.72,2.82,16.28,10,17.08,25.22,0,0-.18,8.59-5.94,5.8s-3.24-2.52-11.43-6.27-11.22-15.68-11.93-19.75l-6.68-8.77Z"/><path class="cls-15" d="M1779,1796.36a7.87,7.87,0,0,1-5.14,6.83h0c-5.47,2.4-14.64,1.86-24.56.52-1.27-.17-2.41-.31-3.43-.4l-.8-.06-.61,0c-9.87-.65-9.1,2.39-28,2.3-21.5-.12-28.78-7.36-29.76-10.44-.83-2.62,8.58-4.65,19.11-7l1.53-.35,4.22-1c12.54-3,25-6.66,29.08-18.72,4.35-12.78,3.32-50.72,3.32-50.72h38.08s-10,41.91-8.95,54c.57,6.45,3.65,8.28,4.84,13.87.09.39.17.79.24,1.18A37.93,37.93,0,0,1,1779,1796.36Z"/><path class="cls-13" d="M1823.35,1386.32c-3.22,18-7.8,36.68-11.78,56.07-6.4,31.18-11.23,64.3-6.29,100a123.48,123.48,0,0,1,1.06,15.1c1,63-27.21,177.26-27.21,177.26s-7.65,3.3-20.47,2.67c-6.6-.33-16.73-4.58-16.73-4.58s-2.66-70.83-2.82-166.07c-.12-69-13.68-160-16.41-213.37-1.66-32.32,1.94-75.39,1.94-75.39s56.14-45.14,76.3-22C1820.87,1278.75,1835.37,1318.83,1823.35,1386.32Z"/><path class="cls-13" d="M1805.28,1542.35a123.48,123.48,0,0,1,1.06,15.1c-42-60.92-51.35-193.75-51.35-193.75l46.18,22.41s5.07,24.91,10.4,56.28C1805.17,1473.57,1800.34,1506.69,1805.28,1542.35Z"/><path class="cls-15" d="M1900.51,1796.36a7.89,7.89,0,0,1-5.14,6.83h0c-5.47,2.4-14.64,1.86-24.55.52-1.27-.17-2.41-.31-3.43-.4l-.8-.06-.62,0c-9.87-.65-9.1,2.39-28,2.3-21.5-.12-28.77-7.36-29.76-10.44-.83-2.62,8.59-4.65,19.11-7l1.54-.35,4.21-1c12.55-3,25-6.66,29.08-18.72,4.36-12.78-1.87-50.13-1.87-50.13l35.28-3s-2.19,42.56-1.14,54.64c.56,6.45,3.84,10,5,15.58.09.39.16.79.23,1.18A37.52,37.52,0,0,1,1900.51,1796.36Z"/><path class="cls-14" d="M1895.53,1737.94s-9.06,4.29-15.59,5.59-20.1-1.24-20.1-1.24a919.43,919.43,0,0,0-19.17-118.71c-12.58-55.1-31.3-120.22-57.39-181.88-5.57-13.16-28.56-75.5-32.46-91.23-11.79-47.52,0-42.4,0-42.4L1854,1296s12.7,6.53,18.55,73.64c1.75,20.1,2,106.88,4.61,123.34,2.49,15.58,5.42,28.53,8.85,37C1905.11,1576.9,1895.53,1737.94,1895.53,1737.94Z"/><path class="cls-21" d="M1900.51,1796.36a7.89,7.89,0,0,1-5.14,6.83h0c-5.78,2.06-14.81,1.62-24.53.46-1.27-.15-2.41-.26-3.45-.34l-.8-.06-.62,0c-9.87-.65-9.1,2.39-28,2.3-21.5-.12-28.77-7.36-29.76-10.44-.83-2.62,8.59-4.65,19.11-7a63.52,63.52,0,0,0,32.49,5.76c14.47-1.39,29.26-7.19,39.64-8.64.09.39.16.79.23,1.18A37.52,37.52,0,0,1,1900.51,1796.36Z"/><path class="cls-21" d="M1779,1796.36a7.87,7.87,0,0,1-5.14,6.83h0c-5.78,2.06-14.81,1.62-24.53.46-1.28-.15-2.42-.26-3.46-.34l-.8-.06-.61,0c-9.87-.65-9.1,2.39-28,2.3-21.5-.12-28.78-7.36-29.76-10.44-.83-2.62,8.58-4.65,19.11-7a63.5,63.5,0,0,0,32.48,5.76c14.48-1.39,29.26-7.19,39.64-8.64.09.39.17.79.24,1.18A37.93,37.93,0,0,1,1779,1796.36Z"/><path class="cls-17" d="M1737.8,987.31c-3.48-28.44,5.4-73.94,62.16-66.67s74.64,63.05,63.19,87.85,16.48,30.78,25.24,57.45c7.53,22.91,10.16,51.36,22.34,64.12,39.29,41.16-37.72,104.46-84.14,91.11-84.56-24.31-95.45-27.94-92.45-94.38,1.54-34,28-47.23,11.21-57.08C1704.73,1045.92,1745.68,1051.65,1737.8,987.31Z"/><path class="cls-15" d="M1821.23,1061.73l-15.64,40.41-33.75,1.64L1755,1078.64c10.62-8.08,15.11-20.2,16.76-31.05a88.63,88.63,0,0,0,.6-20.8c-.23-2.17-.45-3.44-.45-3.44l42-12.79.15-.08c.52,11.15,1.12,19.91,1.79,26.71C1818.31,1061.21,1821.23,1061.73,1821.23,1061.73Z"/><path class="cls-15" d="M1754.86,1060.31c2.18,0,39-7.5,101.27,8.43,0,0-34.08,156.18-22.5,185.61a311.06,311.06,0,0,1,16,55.56L1724,1311.47s1.76-101-4-136.79S1754.86,1060.31,1754.86,1060.31Z"/><path class="cls-22" d="M1915.18,1223.75c-6.29-43.42-29.62-132.57-45.28-147.15-13.86-12.89-43.74-14.07-43.74-14.07h0c-6.2,9.72-27.45,33.87-53.82,29.52-14.22-2.35-17.11-27.93-17.43-31.35l.09-.39-.13,0v0l-.3.07c-4.15.61-37.21,6-47,22.87-14.48,24.93-30.26,99.73-45.75,98.62-7.12-.51-78.7-27.41-78.7-27.41s-11.93,11.17-9.64,24.88c0,0,35.34,23.67,65.23,38.77,4.14,2.09,8.18,4,12,5.69,10.78,4.73,19.86,7.47,24.81,6.3a16.31,16.31,0,0,0,4.51-1.89c6.48-3.74,14-12,21.3-21.34,4.82-6.24,9.51-13,13.64-19.25l.26-.4c1.77,23.78,3.55,49.66,1.71,69.93-1.4,15.43-2.42,48.84.23,57.48,5.51,18,46.07,22.75,83.92,20.87,17.84-.89,30.45-1.91,39.62-4,13.31-3,19.4-8.41,23.78-19,4.17-10.07-15.14-57.31-17-78-1.67-18.74,1.2-34,5.93-49,13.36,30.86,26.95,52.94,28.74,57.72,3.74,10.07,60.79,73.74,60.79,73.74a27.22,27.22,0,0,0,8.27-3.33,19.25,19.25,0,0,0,5.66-5.73C1946.8,1284,1915.18,1223.75,1915.18,1223.75Z"/><path class="cls-23" d="M1864.46,1312.5c-4.38,10.56-10.47,15.92-23.78,19-17.79-3.42-29.52-36.16-35.56-52.27-7-18.56,29.3-114,39.32-113.16,7.44.65,8.72,13.28,9,19.49-4.82,15.14-7.62,30.06-5.93,49C1849.32,1255.19,1868.63,1302.43,1864.46,1312.5Z"/><path class="cls-15" d="M1583.6,1162s-6.11-15-12.83-15.57-28.1-4-29.63-.92,0,14,4.59,18,33,10.39,33,10.39Z"/><path class="cls-12" d="M1714.94,1187.62c-4.13,6.27-8.82,13-13.64,19.25-6.91,8.51-14.55,16.74-21.3,21.34a16.31,16.31,0,0,1-4.51,1.89c-5,1.17-14-1.57-24.81-6.3a117.86,117.86,0,0,0,18.91-.28c10.84-.92,14-12.66,31.13-30.27C1711,1182.73,1714.09,1184.35,1714.94,1187.62Z"/><path class="cls-24" d="M1814,1010.56c-6.36,10.4-21.7,31.8-42.2,37a88.63,88.63,0,0,0,.6-20.8c-.23-2.17-.45-3.44-.45-3.44Z"/><path class="cls-15" d="M1760.88,1026.21s50.55,10.15,56.39-21.43,16.29-51.53-15.74-59.35-40.54,3.07-45,13.14S1747.88,1022.76,1760.88,1026.21Z"/><path class="cls-17" d="M1785.58,937.55s-.88,10.71,15.74,28.88,13.39,54.93,13.39,54.93,27.29-57,12.35-73.83S1785.58,937.55,1785.58,937.55Z"/><path class="cls-17" d="M1805.91,923.61s-25.13-8.41-50.07,16.17c-10.74,10.58-9.12,31.4-3.37,43.47,0,0,8.84-25.87,24.93-31.52S1805.91,923.61,1805.91,923.61Z"/><path class="cls-25" d="M1776.63,1010.67s-1.35,3.75-10.87,2.05c0,0-8-1.43-7.26-5.63C1758.5,1007.09,1766.66,1005,1776.63,1010.67Z"/></g></svg>