<svg xmlns="http://www.w3.org/2000/svg" xmlns:xlink="http://www.w3.org/1999/xlink" viewBox="0 0 2217.19 1797.96"><defs><style>.cls-1{isolation:isolate;}.cls-2{fill:#ebf2f9;}.cls-3,.cls-6{fill:#2b478b;stroke:#fff;stroke-miterlimit:10;stroke-width:4px;}.cls-4{opacity:0.18;}.cls-5{opacity:0.68;}.cls-6{mix-blend-mode:soft-light;}.cls-7{fill:#91b3fa;}.cls-8{fill:#7d97f4;}.cls-9{fill:#bdd0fb;}.cls-10{fill:url(#linear-gradient);}.cls-11{fill:#f99746;}.cls-12{fill:url(#linear-gradient-2);}.cls-13{fill:url(#linear-gradient-3);}.cls-14{fill:url(#linear-gradient-4);}.cls-15{fill:url(#linear-gradient-5);}.cls-16{fill:url(#linear-gradient-6);}.cls-17{fill:url(#linear-gradient-7);}.cls-18{fill:url(#linear-gradient-8);}.cls-19{fill:url(#linear-gradient-9);}.cls-20{fill:url(#linear-gradient-10);}.cls-21{fill:url(#linear-gradient-11);}.cls-22{fill:url(#linear-gradient-12);}.cls-23{fill:url(#linear-gradient-13);}.cls-24{fill:url(#linear-gradient-14);}.cls-25{fill:url(#linear-gradient-15);}.cls-26{fill:url(#linear-gradient-16);}.cls-27{fill:url(#linear-gradient-17);}.cls-28{fill:#fff;}.cls-29{fill:url(#linear-gradient-18);}.cls-30{fill:#ed7d2b;}.cls-31{fill:#a9afba;}.cls-31,.cls-37{opacity:0.55;}.cls-31,.cls-33,.cls-39,.cls-45,.cls-46{mix-blend-mode:multiply;}.cls-32{fill:url(#linear-gradient-19);}.cls-34{fill:#cccfd6;}.cls-35{fill:#e6e8eb;}.cls-36,.cls-37{fill:#64739a;}.cls-37{mix-blend-mode:screen;}.cls-38{fill:#444248;}.cls-39{fill:#76848b;opacity:0.5;}.cls-40{fill:#9aa0ae;}.cls-41,.cls-45{fill:#c78b5b;}.cls-42{fill:#e5be84;}.cls-43{fill:#ead1b7;}.cls-44{fill:#f7eee5;}.cls-45,.cls-46{opacity:0.32;}.cls-46{fill:#b05c18;}.cls-47{fill:url(#linear-gradient-20);}.cls-48{fill:#1f5aa9;}.cls-49{opacity:0.8;}.cls-50{fill:url(#linear-gradient-21);}.cls-51{fill:url(#linear-gradient-22);}.cls-52{fill:url(#linear-gradient-23);}.cls-53{fill:url(#linear-gradient-24);}.cls-54{fill:#e87d2d;}.cls-55{fill:url(#linear-gradient-25);}.cls-56{fill:url(#linear-gradient-26);}.cls-57{fill:url(#linear-gradient-27);}.cls-58{fill:url(#linear-gradient-28);}</style><linearGradient id="linear-gradient" x1="1040.37" y1="862.75" x2="1286.57" y2="862.75" gradientUnits="userSpaceOnUse"><stop offset="0" stop-color="#a22b25"/><stop offset="1" stop-color="#c0423c"/></linearGradient><linearGradient id="linear-gradient-2" x1="1067.52" y1="481.48" x2="879.8" y2="903.85" gradientUnits="userSpaceOnUse"><stop offset="0" stop-color="#ff928e"/><stop offset="1" stop-color="#feb3b1"/></linearGradient><linearGradient id="linear-gradient-3" x1="1187.5" y1="578.7" x2="1130.54" y2="638.19" xlink:href="#linear-gradient-2"/><linearGradient id="linear-gradient-4" x1="1206.15" y1="543.09" x2="1018.43" y2="965.47" xlink:href="#linear-gradient-2"/><linearGradient id="linear-gradient-5" x1="790.44" y1="519.36" x2="640.63" y2="701.67" xlink:href="#linear-gradient-2"/><linearGradient id="linear-gradient-6" x1="1096.36" y1="570.17" x2="1025.96" y2="701.94" xlink:href="#linear-gradient-2"/><linearGradient id="linear-gradient-7" x1="1031.89" y1="228.29" x2="779.15" y2="621.84" gradientUnits="userSpaceOnUse"><stop offset="0" stop-color="#e1473d"/><stop offset="1" stop-color="#e9605a"/></linearGradient><linearGradient id="linear-gradient-8" x1="1026.85" y1="225.06" x2="774.12" y2="618.61" xlink:href="#linear-gradient-7"/><linearGradient id="linear-gradient-9" x1="696.99" y1="337.78" x2="758.36" y2="483.99" xlink:href="#linear-gradient-2"/><linearGradient id="linear-gradient-10" x1="603.41" y1="233.46" x2="664.78" y2="327.32" gradientUnits="userSpaceOnUse"><stop offset="0" stop-color="#09005d"/><stop offset="1" stop-color="#1a0f91"/></linearGradient><linearGradient id="linear-gradient-11" x1="648.76" y1="358.03" x2="710.13" y2="504.23" xlink:href="#linear-gradient-2"/><linearGradient id="linear-gradient-12" x1="1072.61" y1="945.9" x2="1056.14" y2="891.56" xlink:href="#linear-gradient"/><linearGradient id="linear-gradient-13" x1="1591.65" y1="621.7" x2="1560.12" y2="517.71" xlink:href="#linear-gradient"/><linearGradient id="linear-gradient-14" x1="1976.35" y1="550.05" x2="1803.05" y2="921.94" xlink:href="#linear-gradient-10"/><linearGradient id="linear-gradient-15" x1="1652.35" y1="791.19" x2="1821.22" y2="881.1" xlink:href="#linear-gradient-7"/><linearGradient id="linear-gradient-16" x1="1811.2" y1="1090.06" x2="1761.98" y2="927.72" xlink:href="#linear-gradient"/><linearGradient id="linear-gradient-17" x1="-9129.55" y1="-5610.1" x2="-9170.48" y2="-5745.09" gradientTransform="matrix(-0.76, -0.66, -0.66, 0.76, -9071.85, -1217.04)" xlink:href="#linear-gradient"/><linearGradient id="linear-gradient-18" x1="-9209.57" y1="-5650.92" x2="-9223.99" y2="-5698.47" gradientTransform="matrix(-0.76, -0.66, -0.66, 0.76, -9071.85, -1217.04)" xlink:href="#linear-gradient"/><linearGradient id="linear-gradient-19" x1="1241.95" y1="1463.06" x2="2061.96" y2="1463.06" gradientUnits="userSpaceOnUse"><stop offset="0" stop-color="#4f52ff"/><stop offset="1" stop-color="#4042e2"/></linearGradient><linearGradient id="linear-gradient-20" x1="282.87" y1="1680.76" x2="606.72" y2="1680.76" gradientTransform="translate(96.8 -125.11) rotate(-1.25)" xlink:href="#linear-gradient-19"/><linearGradient id="linear-gradient-21" x1="1029.3" y1="103.47" x2="890.15" y2="339.7" gradientTransform="matrix(0.93, 0, 0, 1.2, -402.72, 1037.23)" xlink:href="#linear-gradient-19"/><linearGradient id="linear-gradient-22" x1="1082.68" y1="139.3" x2="988.83" y2="350.72" gradientTransform="matrix(0.93, 0, 0, 1.2, -402.72, 1037.23)" xlink:href="#linear-gradient-19"/><linearGradient id="linear-gradient-23" x1="1151.38" y1="161.05" x2="1090.97" y2="356.28" gradientTransform="matrix(0.93, 0, 0, 1.2, -402.72, 1037.23)" xlink:href="#linear-gradient-19"/><linearGradient id="linear-gradient-24" x1="1217.42" y1="155.66" x2="1204.47" y2="372.46" gradientTransform="matrix(0.93, 0, 0, 1.2, -402.72, 1037.23)" xlink:href="#linear-gradient-19"/><linearGradient id="linear-gradient-25" x1="915.43" y1="299.86" x2="934.13" y2="177.61" gradientTransform="matrix(0.93, 0, 0, 1.2, -402.72, 1037.23)" xlink:href="#linear-gradient-19"/><linearGradient id="linear-gradient-26" x1="1018.55" y1="315.63" x2="1037.24" y2="193.38" gradientTransform="matrix(0.93, 0, 0, 1.2, -402.72, 1037.23)" xlink:href="#linear-gradient-19"/><linearGradient id="linear-gradient-27" x1="1121.66" y1="331.4" x2="1140.36" y2="209.14" gradientTransform="matrix(0.93, 0, 0, 1.2, -402.72, 1037.23)" xlink:href="#linear-gradient-19"/><linearGradient id="linear-gradient-28" x1="1225.16" y1="347.22" x2="1243.85" y2="224.97" gradientTransform="matrix(0.93, 0, 0, 1.2, -402.72, 1037.23)" xlink:href="#linear-gradient-19"/></defs><title>Монтажная область 2 copy 2</title><g class="cls-1"><g id="Layer_6" data-name="Layer 6"><path class="cls-2" d="M1121.83,1.29C529.6,1.29,49.49,481.4,49.49,1073.63c0,275.08,103.59,526,273.88,715.79H1920.3c170.28-189.83,273.87-440.71,273.87-715.79C2194.17,481.4,1714.07,1.29,1121.83,1.29Z"/><ellipse class="cls-3" cx="1175.32" cy="1142.23" rx="645.54" ry="696.8" transform="translate(-17.35 2266.32) rotate(-87.49)"/><g class="cls-4"><ellipse class="cls-3" cx="1137.61" cy="1095.65" rx="546.77" ry="516.52"/></g><g class="cls-5"><path class="cls-6" d="M1353.33,1145.35c0,56.94-2.13,113.9-6.55,170.69s-11.43,113.39-21.49,169.49c-5.09,28-11,55.94-18,83.57a809.82,809.82,0,0,1-25.14,81.78c-5,13.38-10.43,26.61-16.56,39.54a307.67,307.67,0,0,1-20.87,37.56,191.43,191.43,0,0,1-12.86,17.34,125.08,125.08,0,0,1-15.25,15.46,80.09,80.09,0,0,1-18.4,11.86,55,55,0,0,1-21.48,5.07,53.4,53.4,0,0,1-11.08-.87,57.5,57.5,0,0,1-10.64-3.12,75.56,75.56,0,0,1-18.84-11.21,118.66,118.66,0,0,1-15.59-15.13,182.32,182.32,0,0,1-13.13-17.15,296.61,296.61,0,0,1-21.22-37.38c-6.22-12.89-11.75-26.09-16.79-39.45a787.67,787.67,0,0,1-25.38-81.71c-7.08-27.62-13-55.51-18.15-83.54-10.23-56.06-17.2-112.67-21.9-169.44S997,1205,996.7,1148c0-.89-.13-1.78-.12-2.67l0-2.67,0-5.34.12-10.68.35-21.35q.45-21.35,1.25-42.7,1.6-42.67,4.73-85.29c4.21-56.78,10.5-113.45,19.85-169.65,4.7-28.09,10.17-56.06,16.75-83.79a807,807,0,0,1,23.78-82.11c4.78-13.44,10-26.73,16-39.71a289.35,289.35,0,0,1,20.44-37.68c7.85-12,16.87-23.36,28.1-32.49a71.75,71.75,0,0,1,18.58-11.13,55.12,55.12,0,0,1,10.48-3,52.21,52.21,0,0,1,10.88-.77,56.32,56.32,0,0,1,21.11,4.95,82.39,82.39,0,0,1,18.34,11.45c11.2,9.11,20.46,20.24,28.69,31.93a306.73,306.73,0,0,1,21.79,36.9c6.46,12.73,12.22,25.8,17.54,39a783.42,783.42,0,0,1,27,81.11c7.61,27.47,14.06,55.24,19.64,83.18a1617.63,1617.63,0,0,1,23.81,169.16C1350.88,1031.42,1353.25,1088.39,1353.33,1145.35Zm-8.42,0q0-42.55-1.64-85.08c-1.13-28.34-2.79-56.67-5.14-84.93-4.63-56.54-11.69-112.91-22.17-168.65-5.23-27.87-11.32-55.59-18.57-83a770.07,770.07,0,0,0-25.91-80.92c-5.15-13.19-10.73-26.21-17-38.89a302,302,0,0,0-21.16-36.69c-8-11.6-17-22.62-27.78-31.59a79.86,79.86,0,0,0-17.6-11.25,52.64,52.64,0,0,0-20.1-4.89,49.36,49.36,0,0,0-20.27,3.81,69.31,69.31,0,0,0-17.73,10.9c-10.78,9-19.51,20.21-27.1,32.06A286.64,286.64,0,0,0,1083,603.65c-5.76,12.92-10.8,26.16-15.4,39.55a800.26,800.26,0,0,0-22.74,81.87c-6.25,27.66-11.39,55.57-15.76,83.59-8.7,56.07-14.35,112.59-17.93,169.22q-2.67,42.47-3.78,85-.58,21.28-.78,42.55l-.12,21.28v10.64l0,5.32v2.66c0,.89-.11,1.77-.11,2.66q-.23,85.1,6,170c4.25,56.56,10.76,113,20.5,168.86,4.88,27.92,10.59,55.71,17.42,83.21a781.46,781.46,0,0,0,24.55,81.27c4.89,13.27,10.26,26.36,16.29,39.12a291.6,291.6,0,0,0,20.56,36.87,177.28,177.28,0,0,0,12.63,16.78,113.37,113.37,0,0,0,14.85,14.63,70.83,70.83,0,0,0,17.58,10.67,48.5,48.5,0,0,0,19.89,3.78,50.47,50.47,0,0,0,19.69-4.81,75.47,75.47,0,0,0,17.23-11.3,121.88,121.88,0,0,0,14.54-15,187.12,187.12,0,0,0,12.4-17,303.29,303.29,0,0,0,20.23-37.07c6-12.8,11.25-25.92,16.09-39.21a796.29,796.29,0,0,0,24.25-81.37c6.74-27.52,12.36-55.32,17.19-83.26,9.67-55.88,16.1-112.31,20.38-168.87S1344.93,1202.09,1344.91,1145.35Z"/><path class="cls-6" d="M1640.55,1145.35a845.66,845.66,0,0,1-7.28,109.7,795.4,795.4,0,0,1-22.14,107.69A734.31,734.31,0,0,1,1573.55,1466a661.75,661.75,0,0,1-53.29,96.1,572.49,572.49,0,0,1-69.5,85.07,486.35,486.35,0,0,1-85.58,68.76,414.27,414.27,0,0,1-99.74,45.7,375,375,0,0,1-217,.09,414.54,414.54,0,0,1-99.82-45.62A486.74,486.74,0,0,1,863,1647.42a572.74,572.74,0,0,1-69.64-85.05c-41-60.91-71.13-128.87-91.09-199.47A794.55,794.55,0,0,1,680,1255.13a824.07,824.07,0,0,1,.07-219.56,793.87,793.87,0,0,1,22.27-107.73c20-70.58,50.17-138.49,91.22-199.34a572.05,572.05,0,0,1,69.64-85,486.71,486.71,0,0,1,85.66-68.61,414.34,414.34,0,0,1,99.72-45.54,374.72,374.72,0,0,1,216.69.09,414.07,414.07,0,0,1,99.64,45.62,486.25,486.25,0,0,1,85.54,68.66,571.36,571.36,0,0,1,69.51,85,660.15,660.15,0,0,1,53.34,96A733.26,733.26,0,0,1,1611,928a794.55,794.55,0,0,1,22.21,107.66A843.46,843.46,0,0,1,1640.55,1145.35Zm-9.66,0a817.81,817.81,0,0,0-28.27-215c-19.13-69.9-48.09-137.37-87.95-198.05a567,567,0,0,0-67.93-84.81c-25.37-25.91-53.41-49.31-84-68.8a406.29,406.29,0,0,0-98.45-45.7,365.51,365.51,0,0,0-214.54.09,406.2,406.2,0,0,0-98.37,45.78,474.86,474.86,0,0,0-83.92,68.85,566.11,566.11,0,0,0-67.79,84.83A655,655,0,0,0,748,828.07,739.52,739.52,0,0,0,711.9,930.48a830.8,830.8,0,0,0,.14,429.69,737.35,737.35,0,0,0,36.21,102.35A654.26,654.26,0,0,0,799.89,1558a566.2,566.2,0,0,0,67.8,84.74,474.33,474.33,0,0,0,83.89,68.74,405.63,405.63,0,0,0,98.27,45.7,365.23,365.23,0,0,0,214.26.09,406.09,406.09,0,0,0,98.35-45.62,475.15,475.15,0,0,0,84-68.69,565.75,565.75,0,0,0,67.93-84.72c39.9-60.61,68.9-128,88.08-197.91A817.41,817.41,0,0,0,1630.89,1145.35Z"/><path class="cls-6" d="M592.66,895.11l72.62-.64,72.61-.54,145.23-.66c48.41-.28,96.81-.25,145.22-.34l145.23-.2,145.23.23,72.61.12,36.31.07,36.3.17,145.23.73,72.61.58,36.31.3,36.31.39a.43.43,0,0,1,0,.85l-36.31.39-36.31.29-72.61.58-145.23.73-36.3.18-36.31.06-72.61.13-145.23.22-145.23-.19c-48.41-.09-96.81-.06-145.22-.35l-145.23-.66L665.28,897l-72.62-.63a.64.64,0,0,1,0-1.27Z"/><path class="cls-6" d="M761.14,651.86l25.78-.36,25.78-.27,51.55-.54L967.36,650c68.73-.45,137.47-.5,206.21-.55l103.11.14,51.55.19,25.78.09,25.77.18,103.11.73,51.55.58,25.78.29,25.78.39a.43.43,0,0,1,0,.86l-25.78.38-25.78.3-51.55.58-103.11.73-25.77.17-25.78.1-51.55.19-103.11.14c-68.74,0-137.48-.1-206.21-.55l-103.11-.66-51.55-.54-25.78-.27-25.78-.37a.62.62,0,0,1-.62-.64A.64.64,0,0,1,761.14,651.86Z"/><path class="cls-6" d="M542.19,1138.35l78.93-.64,78.92-.53,157.84-.67c52.62-.28,105.23-.25,157.85-.34l157.84-.2,157.84.23,78.93.13,39.46.06,39.46.18,157.84.72,78.92.58,39.46.3,39.47.39a.43.43,0,0,1,0,.85l-39.47.39-39.46.29-78.92.59-157.84.72-39.46.18-39.46.06-78.93.13-157.84.22-157.84-.19c-52.62-.09-105.23-.06-157.85-.34L700,1140.79l-78.92-.53-78.93-.64a.64.64,0,0,1,0-1.27Z"/><path class="cls-6" d="M592.66,1381.59l72.62-.63,72.61-.54,145.23-.67c48.41-.28,96.81-.25,145.22-.34l145.23-.19,145.23.22,72.61.13,36.31.06,36.3.18,145.23.72,72.61.59,36.31.29,36.31.39a.43.43,0,0,1,.42.43.42.42,0,0,1-.42.42l-36.31.39-36.31.3-72.61.58-145.23.73-36.3.17-36.31.06-72.61.13-145.23.23-145.23-.2c-48.41-.09-96.81-.06-145.22-.34L737.89,1384l-72.61-.54-72.62-.64a.64.64,0,0,1-.63-.64A.65.65,0,0,1,592.66,1381.59Z"/><path class="cls-6" d="M1606.78,1627.7H781.92a2.23,2.23,0,0,1,0-4.46h824.86a2.23,2.23,0,0,1,0,4.46Z"/></g><circle class="cls-3" cx="1570.87" cy="1232.11" r="36.33"/><path class="cls-3" d="M790.39,1535.08a2.23,2.23,0,0,1-.54-4.39c2.15-.53,4.29-1.1,6.37-1.7a2.23,2.23,0,0,1,1.23,4.28c-2.13.61-4.33,1.2-6.53,1.74A2,2,0,0,1,790.39,1535.08Zm21.17-6.76a2.22,2.22,0,0,1-.83-4.29c2-.82,4.08-1.68,6-2.58a2.23,2.23,0,0,1,1.83,4.06c-2,.92-4.13,1.81-6.23,2.65A2.17,2.17,0,0,1,811.56,1528.32Zm19.93-9.8a2.23,2.23,0,0,1-1.14-4.14c1.88-1.12,3.75-2.29,5.55-3.49a2.22,2.22,0,1,1,2.47,3.7c-1.87,1.25-3.8,2.46-5.74,3.62A2.25,2.25,0,0,1,831.49,1518.52Zm18.06-12.93a2.2,2.2,0,0,1-1.69-.78,2.23,2.23,0,0,1,.24-3.14c1.66-1.41,3.3-2.89,4.88-4.38a2.22,2.22,0,1,1,3.06,3.23c-1.64,1.55-3.33,3.08-5,4.54A2.22,2.22,0,0,1,849.55,1505.59Zm15.61-15.82a2.26,2.26,0,0,1-1.43-.51,2.23,2.23,0,0,1-.28-3.14c1.38-1.67,2.76-3.4,4.07-5.15a2.23,2.23,0,0,1,3.56,2.68c-1.36,1.81-2.78,3.6-4.21,5.32A2.22,2.22,0,0,1,865.16,1489.77ZM878,1471.61a2.17,2.17,0,0,1-1.14-.32,2.23,2.23,0,0,1-.77-3c1.11-1.85,2.2-3.78,3.24-5.73a2.23,2.23,0,1,1,3.92,2.12c-1.07,2-2.2,4-3.33,5.89A2.24,2.24,0,0,1,878,1471.61Zm10-19.87a2.26,2.26,0,0,1-.87-.18,2.22,2.22,0,0,1-1.18-2.91c.84-2,1.66-4.07,2.44-6.13a2.23,2.23,0,0,1,4.17,1.58c-.8,2.11-1.64,4.22-2.51,6.28A2.23,2.23,0,0,1,888,1451.74Zm7.39-21a2.27,2.27,0,0,1-.62-.09,2.23,2.23,0,0,1-1.52-2.76c.61-2.1,1.19-4.25,1.74-6.38a2.22,2.22,0,1,1,4.31,1.1c-.55,2.18-1.15,4.37-1.77,6.52A2.23,2.23,0,0,1,895.37,1430.75Zm5.08-21.69a2.69,2.69,0,0,1-.4,0,2.23,2.23,0,0,1-1.79-2.59c.39-2.15.77-4.35,1.11-6.53a2.23,2.23,0,1,1,4.4.68c-.35,2.23-.73,4.47-1.13,6.65A2.23,2.23,0,0,1,900.45,1409.06Zm3.07-22.06h-.22a2.22,2.22,0,0,1-2-2.43c.21-2.19.4-4.41.56-6.61a2.23,2.23,0,1,1,4.44.33c-.16,2.22-.35,4.48-.57,6.71A2.22,2.22,0,0,1,903.52,1387Zm1.29-22.24h0a2.22,2.22,0,0,1-2.18-2.27q.07-3.37.07-6.58a2.26,2.26,0,0,1,2.23-2.26,2.2,2.2,0,0,1,2.22,2.2v.06c0,2.17,0,4.4-.07,6.67A2.23,2.23,0,0,1,904.81,1364.76Zm-.32-22.27a2.23,2.23,0,0,1-2.22-2.12q-.18-3.48-.4-6.62a2.23,2.23,0,1,1,4.45-.31c.15,2.11.28,4.36.4,6.71a2.23,2.23,0,0,1-2.12,2.34Zm-1.9-22.19a2.23,2.23,0,0,1-2.21-2c-.52-4.13-.93-6.48-.94-6.51a2.23,2.23,0,0,1,4.39-.77c0,.1.43,2.47,1,6.72a2.22,2.22,0,0,1-1.93,2.49Z"/><path class="cls-3" d="M1508.31,1199.21a2.24,2.24,0,0,1-1.8-.91c-1.32-1.8-2.64-3.59-4-5.35a2.23,2.23,0,1,1,3.56-2.67c1.34,1.78,2.66,3.57,4,5.38a2.23,2.23,0,0,1-.48,3.12A2.19,2.19,0,0,1,1508.31,1199.21Zm-13.44-17.75a2.22,2.22,0,0,1-1.76-.85q-2.05-2.64-4.13-5.22a2.23,2.23,0,1,1,3.48-2.78c1.39,1.74,2.77,3.49,4.16,5.26a2.22,2.22,0,0,1-1.75,3.59Zm-14-17.29a2.23,2.23,0,0,1-1.71-.79c-1.43-1.71-2.87-3.4-4.3-5.07a2.23,2.23,0,0,1,3.38-2.9c1.44,1.68,2.89,3.39,4.33,5.11a2.22,2.22,0,0,1-1.7,3.65Zm-14.62-16.78a2.2,2.2,0,0,1-1.65-.73l-4.49-4.91a2.22,2.22,0,1,1,3.26-3q2.26,2.44,4.53,4.94a2.22,2.22,0,0,1-1.65,3.72ZM1451,1131.18a2.2,2.2,0,0,1-1.59-.67c-1.56-1.59-3.12-3.17-4.68-4.72a2.23,2.23,0,1,1,3.14-3.16q2.37,2.36,4.72,4.76a2.23,2.23,0,0,1-1.59,3.79Zm-15.9-15.58a2.23,2.23,0,0,1-1.52-.6c-1.63-1.53-3.25-3-4.88-4.52a2.23,2.23,0,0,1,3-3.29q2.46,2.25,4.92,4.56a2.24,2.24,0,0,1,.1,3.15A2.21,2.21,0,0,1,1435.08,1115.6Zm-532.62-2.27a2.23,2.23,0,0,1-1.45-3.92c.08-.06,1.87-1.6,5.3-4.3a2.23,2.23,0,1,1,2.75,3.5c-3.34,2.64-5.13,4.17-5.15,4.18A2.23,2.23,0,0,1,902.46,1113.33Zm516.06-12.59a2.21,2.21,0,0,1-1.45-.54c-1.69-1.45-3.39-2.87-5.08-4.28a2.23,2.23,0,0,1,2.85-3.43q2.57,2.15,5.13,4.33a2.23,2.23,0,0,1-1.45,3.92Zm-498.34-1a2.23,2.23,0,0,1-1.3-4q2.57-1.85,5.48-3.89a2.23,2.23,0,0,1,2.55,3.65c-1.92,1.34-3.73,2.63-5.43,3.85A2.18,2.18,0,0,1,920.18,1099.71Zm18.39-12.62a2.19,2.19,0,0,1-1.86-1,2.22,2.22,0,0,1,.64-3.08c1.82-1.19,3.71-2.4,5.65-3.63a2.23,2.23,0,0,1,2.39,3.76q-2.89,1.83-5.6,3.6A2.19,2.19,0,0,1,938.57,1087.09Zm462.7-.42a2.16,2.16,0,0,1-1.36-.47q-2.64-2-5.28-4a2.23,2.23,0,1,1,2.67-3.56q2.67,2,5.34,4.08a2.22,2.22,0,0,1-1.37,4Zm-443.78-11.36a2.21,2.21,0,0,1-1.91-1.09,2.24,2.24,0,0,1,.77-3.06q2.83-1.68,5.79-3.39a2.23,2.23,0,1,1,2.23,3.86q-2.94,1.69-5.74,3.36A2.26,2.26,0,0,1,957.49,1075.31Zm425.85-1.82a2.22,2.22,0,0,1-1.27-.4c-1.83-1.27-3.65-2.52-5.48-3.75a2.22,2.22,0,1,1,2.48-3.69q2.78,1.86,5.54,3.78a2.23,2.23,0,0,1-1.27,4.06Zm-406.46-9.17a2.22,2.22,0,0,1-1.06-4.18q2.92-1.58,5.93-3.15a2.23,2.23,0,1,1,2.07,3.94c-2,1-4,2.09-5.88,3.13A2.24,2.24,0,0,1,976.88,1064.32Zm387.85-3a2.2,2.2,0,0,1-1.17-.34c-1.89-1.16-3.78-2.31-5.68-3.43a2.23,2.23,0,0,1,2.28-3.83c1.91,1.13,3.83,2.29,5.74,3.47a2.23,2.23,0,0,1-1.17,4.13Zm-368-7.13a2.23,2.23,0,0,1-1-4.23q3-1.46,6-2.89a2.23,2.23,0,1,1,1.9,4q-3,1.42-6,2.87A2.29,2.29,0,0,1,996.71,1054.16Zm348.75-4a2.21,2.21,0,0,1-1-.26q-2.94-1.59-5.87-3.1a2.23,2.23,0,0,1,2-4q3,1.53,5.94,3.14a2.22,2.22,0,0,1-1.06,4.18Zm-328.5-5.29a2.23,2.23,0,0,1-.89-4.27q3.06-1.32,6.18-2.63a2.23,2.23,0,0,1,1.71,4.11q-3.09,1.29-6.12,2.61A2.31,2.31,0,0,1,1017,1044.86Zm308.61-4.67a2.22,2.22,0,0,1-.94-.21c-2-.93-4-1.84-6.05-2.73a2.23,2.23,0,0,1,1.8-4.08q3.06,1.35,6.12,2.77a2.23,2.23,0,0,1-.93,4.25Zm-288-3.72a2.23,2.23,0,0,1-.79-4.31c2.08-.79,4.17-1.57,6.29-2.34a2.23,2.23,0,0,1,1.53,4.18c-2.1.76-4.18,1.54-6.24,2.32A2.21,2.21,0,0,1,1037.59,1036.47Zm267.5-5a2.13,2.13,0,0,1-.81-.16q-3.1-1.2-6.21-2.34a2.23,2.23,0,0,1,1.54-4.18q3.14,1.15,6.29,2.37a2.23,2.23,0,0,1-.81,4.31Zm-246.5-2.44a2.22,2.22,0,0,1-.69-4.34c2.11-.7,4.25-1.38,6.39-2a2.23,2.23,0,1,1,1.33,4.25q-3.19,1-6.34,2A2.37,2.37,0,0,1,1058.59,1029Zm225.51-5a2.18,2.18,0,0,1-.67-.1q-3.18-1-6.35-1.93a2.22,2.22,0,1,1,1.25-4.27c2.15.62,4.29,1.28,6.43,2a2.23,2.23,0,0,1-.66,4.35Zm-204.18-1.45a2.22,2.22,0,0,1-.58-4.37q3.23-.88,6.49-1.72a2.22,2.22,0,1,1,1.1,4.31c-2.15.56-4.29,1.12-6.42,1.7A2,2,0,0,1,1079.92,1022.64Zm182.74-4.54a2.31,2.31,0,0,1-.52-.06q-3.24-.79-6.47-1.51a2.23,2.23,0,0,1,1-4.35q3.27.74,6.55,1.53a2.23,2.23,0,0,1-.53,4.39Zm-161.11-.76a2.22,2.22,0,0,1-.47-4.4q3.27-.71,6.57-1.37a2.23,2.23,0,0,1,.88,4.37c-2.18.43-4.35.89-6.51,1.35A1.93,1.93,0,0,1,1101.55,1017.34Zm139.33-3.79a1.64,1.64,0,0,1-.38,0q-3.29-.57-6.55-1.07a2.23,2.23,0,0,1,.68-4.41c2.2.35,4.42.71,6.63,1.1a2.23,2.23,0,0,1-.38,4.42Zm-117.45-.33a2.23,2.23,0,0,1-.35-4.43q3.3-.52,6.64-1a2.23,2.23,0,0,1,.63,4.41q-3.3.46-6.57,1Zm95.41-2.78h-.24q-3.3-.36-6.6-.64a2.23,2.23,0,0,1,.39-4.44q3.33.28,6.69.65a2.23,2.23,0,0,1-.24,4.44Zm-73.34-.1a2.23,2.23,0,0,1-.22-4.44c2.22-.23,4.45-.43,6.69-.62a2.23,2.23,0,0,1,.37,4.44c-2.21.18-4.42.39-6.61.61Zm51.15-1.55h-.1c-2.22-.09-4.43-.17-6.63-.22a2.23,2.23,0,1,1,.1-4.45q3.35.07,6.72.22a2.23,2.23,0,0,1-.09,4.45Zm-28.94,0a2.23,2.23,0,0,1-.09-4.45q3.35-.14,6.72-.21a2.23,2.23,0,0,1,.09,4.46q-3.33.06-6.63.2Z"/><circle class="cls-3" cx="893.51" cy="1170.87" r="36.33" transform="translate(-380.06 431.06) rotate(-22.5)"/><path class="cls-3" d="M1351.57,1024.8a2.23,2.23,0,0,1-2-1.32c-.89-2-1.81-4-2.76-6a2.23,2.23,0,1,1,4-1.91c1,2,1.9,4.08,2.81,6.13a2.23,2.23,0,0,1-2,3.12Zm-9.88-19.94a2.21,2.21,0,0,1-2-1.16c-1.06-1.91-2.16-3.85-3.27-5.76a2.23,2.23,0,0,1,3.85-2.24c1.13,1.94,2.25,3.91,3.32,5.86a2.22,2.22,0,0,1-.88,3A2.19,2.19,0,0,1,1341.69,1004.86Zm-11.52-19a2.21,2.21,0,0,1-1.86-1c-1.21-1.83-2.47-3.67-3.73-5.48a2.23,2.23,0,0,1,3.65-2.55c1.28,1.84,2.56,3.71,3.79,5.57a2.22,2.22,0,0,1-.63,3.08A2.12,2.12,0,0,1,1330.17,985.82Zm-13.05-18a2.22,2.22,0,0,1-1.75-.85c-1.35-1.71-2.75-3.45-4.16-5.16a2.22,2.22,0,0,1,3.43-2.83c1.44,1.73,2.86,3.5,4.23,5.24a2.22,2.22,0,0,1-.37,3.12A2.25,2.25,0,0,1,1317.12,967.78Zm-14.45-16.93a2.24,2.24,0,0,1-1.64-.71c-1.49-1.61-3-3.23-4.55-4.81a2.23,2.23,0,1,1,3.19-3.11c1.56,1.61,3.12,3.26,4.63,4.89a2.22,2.22,0,0,1-1.63,3.74Zm-15.75-15.73a2.25,2.25,0,0,1-1.51-.59c-1.62-1.5-3.28-3-4.92-4.44a2.22,2.22,0,1,1,2.94-3.34c1.67,1.46,3.35,3,5,4.51a2.22,2.22,0,0,1-1.51,3.86ZM1270,920.67a2.25,2.25,0,0,1-1.38-.48c-1.73-1.37-3.5-2.73-5.25-4a2.23,2.23,0,0,1,2.67-3.57c1.78,1.34,3.58,2.72,5.34,4.11a2.23,2.23,0,0,1-1.38,4Zm-337-2.11a2.22,2.22,0,0,1-1.35-4c1.76-1.36,3.58-2.71,5.39-4a2.23,2.23,0,0,1,2.62,3.6c-1.78,1.3-3.57,2.63-5.3,4A2.25,2.25,0,0,1,933,918.56Zm319-11a2.21,2.21,0,0,1-1.23-.37c-1.84-1.23-3.71-2.44-5.56-3.62a2.23,2.23,0,1,1,2.39-3.76c1.88,1.19,3.77,2.43,5.64,3.67a2.23,2.23,0,0,1,.61,3.09A2.2,2.2,0,0,1,1252,907.58Zm-300.8-1.8a2.23,2.23,0,0,1-1.2-4.1c1.87-1.2,3.79-2.4,5.72-3.57a2.23,2.23,0,0,1,2.3,3.81c-1.89,1.15-3.78,2.33-5.62,3.51A2.29,2.29,0,0,1,951.18,905.78ZM1233,896a2.17,2.17,0,0,1-1.09-.29c-1.92-1.07-3.88-2.14-5.82-3.16a2.23,2.23,0,1,1,2.08-3.94c2,1,4,2.12,5.91,3.22A2.23,2.23,0,0,1,1233,896Zm-262.6-1.41a2.22,2.22,0,0,1-1-4.19c2-1,4-2.08,6-3.09a2.22,2.22,0,1,1,2,4c-2,1-4,2-5.89,3A2.17,2.17,0,0,1,970.4,894.55Zm242.75-8.67a2.2,2.2,0,0,1-.93-.2c-2-.92-4-1.82-6.06-2.68a2.23,2.23,0,1,1,1.76-4.09c2,.87,4.12,1.79,6.15,2.72a2.23,2.23,0,0,1-.92,4.25Zm-222.68-1a2.23,2.23,0,0,1-.89-4.28c2-.88,4.15-1.75,6.22-2.59a2.23,2.23,0,0,1,1.66,4.13c-2,.82-4.09,1.68-6.11,2.55A2.15,2.15,0,0,1,990.47,884.92Zm202.08-7.46a2.22,2.22,0,0,1-.76-.14c-2.08-.75-4.18-1.48-6.26-2.17a2.23,2.23,0,0,1,1.41-4.23c2.11.71,4.25,1.45,6.36,2.22a2.23,2.23,0,0,1-.75,4.32Zm-181.31-.55a2.23,2.23,0,0,1-.72-4.34c2.1-.71,4.25-1.42,6.4-2.09a2.23,2.23,0,1,1,1.33,4.25c-2.11.66-4.22,1.35-6.29,2.06A2.27,2.27,0,0,1,1011.24,876.91Zm160.08-6.14a1.93,1.93,0,0,1-.58-.08c-2.12-.57-4.28-1.12-6.42-1.63a2.23,2.23,0,1,1,1-4.33c2.18.52,4.37,1.08,6.53,1.66a2.23,2.23,0,0,1-.58,4.38Zm-138.75-.21a2.22,2.22,0,0,1-.55-4.38c2.17-.56,4.37-1.09,6.54-1.59a2.23,2.23,0,1,1,1,4.34c-2.14.49-4.31,1-6.44,1.56A2.08,2.08,0,0,1,1032.57,870.56Zm117-4.64a1.87,1.87,0,0,1-.4,0c-2.16-.38-4.36-.75-6.53-1.08a2.23,2.23,0,0,1,.67-4.4c2.21.33,4.44.71,6.65,1.1a2.23,2.23,0,0,1-.39,4.42Zm-95.26,0a2.23,2.23,0,0,1-.38-4.42c2.2-.38,4.44-.74,6.64-1.07a2.22,2.22,0,0,1,.66,4.4c-2.17.33-4.37.68-6.54,1.06ZM1076.4,863a2.22,2.22,0,0,1-.2-4.44c2.21-.21,4.47-.39,6.71-.55a2.23,2.23,0,0,1,.3,4.44c-2.2.16-4.42.34-6.6.54Zm51.14,0h-.21c-2.17-.21-4.39-.39-6.6-.54a2.23,2.23,0,1,1,.3-4.44c2.25.15,4.51.34,6.71.54a2.23,2.23,0,0,1-.2,4.45Zm-28.91-1.15a2.23,2.23,0,0,1,0-4.45c2.25,0,4.49,0,6.73,0a2.23,2.23,0,1,1,0,4.45q-3.3,0-6.62,0Z"/><circle class="cls-7" cx="1691.85" cy="909.09" r="329.94" transform="translate(-147.3 1462.59) rotate(-45)"/><circle class="cls-8" cx="1691.85" cy="909.09" r="318.97" transform="translate(-147.3 1462.59) rotate(-45)"/><circle class="cls-9" cx="1698.8" cy="916.04" r="269.97" transform="translate(-150.17 1469.54) rotate(-45)"/><circle class="cls-7" cx="600.75" cy="909.09" r="329.94" transform="translate(-466.87 691.06) rotate(-45)"/><circle class="cls-8" cx="600.75" cy="909.09" r="318.97"/><path class="cls-9" d="M306.72,895.55h-.12a2.22,2.22,0,0,1-2.1-2.34A297.66,297.66,0,0,1,308.83,856a2.23,2.23,0,1,1,4.38.79,292.67,292.67,0,0,0-4.26,36.7A2.24,2.24,0,0,1,306.72,895.55Z"/><path class="cls-9" d="M337.8,778.69a2.3,2.3,0,0,1-1-.24,2.23,2.23,0,0,1-1-3,296.67,296.67,0,0,1,264.94-163h.15a299.66,299.66,0,0,1,53.51,4.84,2.23,2.23,0,1,1-.8,4.38,295.43,295.43,0,0,0-52.71-4.77h-.15a292.22,292.22,0,0,0-261,160.6A2.25,2.25,0,0,1,337.8,778.69Z"/><circle class="cls-9" cx="607.7" cy="916.05" r="269.97" transform="translate(-469.75 698.01) rotate(-45)"/><path class="cls-10" d="M1123.19,870.69s-12.76-33.58-27.67-30.51-31.2,14.53-31.2,14.53l-24,32.38s67.21,26.48,90.85,11.3c0,0,68.65,11.86,155.35-2.36-12.55-26.5-20-53-24.43-73.61C1218.23,847.27,1170.94,865.84,1123.19,870.69Z"/><path class="cls-11" d="M1486.83,627.07s-98.29,123.8-224.69,195.35c4.4,20.59,11.88,47.11,24.43,73.61,65.57-10.76,141.45-36.44,205.79-93.5Z"/><path class="cls-11" d="M750.16,643.44l6.1,163.89a452.77,452.77,0,0,0,49.55,14.07c9.83-31.65,31.47-70.48,49.19-99.36C789.89,699,750.16,643.44,750.16,643.44Z"/><path class="cls-12" d="M1075.24,640.65C985.92,737.09,913.63,742.76,855,722c-17.72,28.88-39.36,67.71-49.19,99.36C1044.33,874,1100.5,654.71,1100.5,654.71Z"/><path class="cls-13" d="M1093.35,630.41s10.29-11,29.33-7.58,36,10.09,47.86,0,16,3.45,16,3.45l-35.52,27Z"/><path class="cls-14" d="M1072.1,649.3s7.05-29.48,28.3-25.44,69.47,30.27,81.9,25.44,28.33-16.4,36.48-12.31l-14.36,17.86s36.92-21.31,43.28-8.22l-61.44,34.58S1096.37,672.21,1072.1,649.3Z"/><path class="cls-11" d="M759.69,890.84c64.95-77.32,89.87-159.82,12.48-239.23S632.66,613.2,632.66,613.2c-172.84,105.25-192.77,391.92-193.1,514.05a268.77,268.77,0,0,0,168,58.77,273.92,273.92,0,0,0,30.89-1.77C633.8,1103.16,699,963.13,759.69,890.84Z"/><path class="cls-15" d="M744.63,494.69c-.06,5.19-74,110.27-74,110.27s13.28,26.15,76.67,47.38L802,539.83Z"/><path class="cls-16" d="M715.53,855.47S855.89,973,1007.46,921.73a36.13,36.13,0,0,1,28.46,2.14l43.57,23A38.89,38.89,0,0,0,1131,932.45c6.06-10.12,11.22-21.69,12.25-32.77L1058,865.16l6.29-10.45s-41.63-3.53-52.53,26.31c0,0-79.29,33-213-114.1C798.78,766.92,738.1,818.51,715.53,855.47Z"/><path class="cls-17" d="M708,855a3.1,3.1,0,0,1-1.74-.54c-59.27-40-87.16-104.69-87.43-105.34a3.11,3.11,0,1,1,5.72-2.42c.27.63,27.48,63.63,85.19,102.62A3.11,3.11,0,0,1,708,855Z"/><path class="cls-18" d="M796,765.63a3.1,3.1,0,0,1-2.61-1.43c-.18-.28-18.25-28.4-52.65-90-10.48-18.76-24.23-30.64-40.87-35.3-27.6-7.72-54.23,7.09-54.49,7.24a3.11,3.11,0,0,1-3.07-5.4c1.17-.67,29.06-16.24,59.18-7.83,18.32,5.11,33.35,18,44.67,38.26,34.31,61.43,52.27,89.39,52.45,89.67a3.11,3.11,0,0,1-2.61,4.79Z"/><path class="cls-19" d="M802.87,434.47s26.33,60.47,28.1,92.21,8.6,52.34-28.1,58.73-67.61-11.89-84.36-43.51c0,0-26.24-48.71-20.35-68.66S802.87,434.47,802.87,434.47Z"/><path class="cls-20" d="M731.05,519.17l2.09-.92a5,5,0,0,0,2.46-6.92c-5.17-10-15.26-32.91-2.23-38.26,16.8-6.88,83.33-20.45,97.68-44.06,13.8-22.69,1.58-52-16.79-60.31a2.54,2.54,0,0,0-3.31,1.08l-1.53,2.9a2.49,2.49,0,0,1-4.6-.47h0a2.49,2.49,0,0,0-4.5-.65c-4.41,7.07-16.32,18.52-48.18,24.4-45.27,8.35-75.2,26.67-75.95,58a2.5,2.5,0,0,1-3.86,2.06c-3.34-2-8.69-3-15.84,3-12.43,10.46-7.35,37.58,19.91,59.89a2.47,2.47,0,0,1-.12,4c-4.94,3.22-12.3,10.87,6.78,21.08,19.75,10.55,34.49,9.68,40.16,8.75a2.48,2.48,0,0,0,2-3l-6.06-27.5a2.5,2.5,0,0,1,2.44-3Z"/><path class="cls-21" d="M732.19,525s-10-38.62-27.36-27.79,9,43.28,22.91,44.72Z"/><path class="cls-22" d="M1035.92,923.87s35.67,34.89,42.55,29.81c2.45-1.8,8.63-8.37,14.62-15.68a15.3,15.3,0,0,0,1-18l-8.41-13a24.33,24.33,0,0,0-36.3-5.29A44.14,44.14,0,0,0,1035.92,923.87Z"/><path class="cls-11" d="M1750.56,625.29c-138.64-40.54-263.73,1.78-263.73,1.78l-10,64.49c-8.89,57.43,1.25,116.36,29.76,167,77,136.74,89.11,269.82,91,307.85a270.53,270.53,0,0,0,233.07-14.75C1920.3,791.09,1750.56,625.29,1750.56,625.29Z"/><path class="cls-23" d="M1508.13,544.76l32.43,77.92a15.54,15.54,0,0,0,11.73,9.33c18.7,3.21,63.93,8.22,93.63-11.31a7.56,7.56,0,0,0,2-10.62l-59.92-86Z"/><path class="cls-9" d="M1565.35,917.16a7.19,7.19,0,0,0-4.55,10.29l93.83,179.92A7.2,7.2,0,0,0,1663,1111l306.93-88.62a7.21,7.21,0,0,0,4.92-8.92l-52.87-183a7.21,7.21,0,0,0-8.76-5Z"/><path class="cls-7" d="M1585.15,896a7.54,7.54,0,0,0-5.33,9.94l75.11,204a7.53,7.53,0,0,0,9.16,4.64l306-88.35a7.54,7.54,0,0,0,5.27-8.84L1933,821.07a7.55,7.55,0,0,0-9.12-5.74Z"/><path class="cls-24" d="M1611.8,875.42a9.32,9.32,0,0,0-7.68,11.31l51,220.26a9.33,9.33,0,0,0,11.67,6.85l301.36-87a9.32,9.32,0,0,0,6.44-11.28l-46.35-179.79a9.32,9.32,0,0,0-10.42-6.89Z"/><path class="cls-11" d="M1878.52,953.2c23.39-176.69-112.77-312.55-112.77-312.55l-15.19-15.36L1684.74,735.1c61.5,76.66,90.74,146.91,104.1,202.09C1806.55,932,1849.2,923.88,1878.52,953.2Z"/><path class="cls-25" d="M1788.84,939.42a2.24,2.24,0,0,1-2.17-1.71c-16.56-68.41-51.44-136.12-103.67-201.22a2.23,2.23,0,0,1,3.48-2.79c52.64,65.62,87.81,133.91,104.52,203a2.22,2.22,0,0,1-1.64,2.68A1.86,1.86,0,0,1,1788.84,939.42Z"/><path class="cls-26" d="M1788.84,937.19c12.41,51.28,11.11,89.55,9.22,107.81a14.22,14.22,0,0,1-13.16,12.75c-7.84.55-18.52,1.27-28.06,1.82-10.49.61-22.13-6-29.92-11.56a4.68,4.68,0,0,0-6.9,5.92c5.81,11.37,20.56,21.48,30.73,27.43a4.86,4.86,0,0,1-1.12,8.87l-43.47,12.32c71.42,67.28,118.58-8,118.58-8,31.53-48.72,47.83-96.36,53.78-141.35C1849.2,923.88,1806.55,932,1788.84,937.19Z"/><path class="cls-27" d="M1532.57,432.64c-1.24,1.44-46.7,118.54-46.7,118.54l67.42,24.53,59.57-104.59S1553.42,408.62,1532.57,432.64Z"/><path class="cls-28" d="M1584.69,476.7a10.31,10.31,0,0,1,.14,9.08l-26.66,56.68a10.22,10.22,0,0,1-1.53,2.37c-3.46,3.94-15.47,15.59-27,2.54-9.82-11.12-19-21.2-28.09-24.82a10.29,10.29,0,0,0-13.37,6c-4.23,11-12.3,33.38-16.68,54.26a10.26,10.26,0,0,0,7.2,11.92c13.55,4,40.24,10.89,63.38,11.73a10.31,10.31,0,0,0,9.28-5.1c8.46-14.45,32.34-54.84,40.84-65.21,7.89-9.63,24.42-8,31.93-6.61a10.33,10.33,0,0,0,8.08-1.9c7-5.21,18.76-17.62,5-35.24a10.31,10.31,0,0,1,1.76-14.26c7.72-6.27,15.66-17.39,5.44-33.06-10.35-15.86-26-15.8-36.34-13.45a10.69,10.69,0,0,1-11.8-5.08,6.82,6.82,0,0,0-5.71-3.63c-15.17-1.51-5.75-20-10.69-28.67-6.94-12.1-22.23-3.67-29.56,4-4.07,4.24-7.59,9-11.84,13.06a51.29,51.29,0,0,1-24,12.91,8.12,8.12,0,0,0-3.88,1.56,5.09,5.09,0,0,0-.87,5.58,13.85,13.85,0,0,0,3.7,4.69,64.29,64.29,0,0,0,43.34,17.66C1571.27,454,1580.7,468.84,1584.69,476.7Z"/><path class="cls-29" d="M1579.43,554.86s11.4-35.25,27.32-35.52,29.94,14.2,12.16,33.86C1596.8,577.65,1579.43,554.86,1579.43,554.86Z"/><path class="cls-11" d="M1512,422.24c60.48-102,199.49.07,128.38,85C1592.27,471.79,1538.49,420,1512,422.24Z"/><path class="cls-30" d="M1596.38,470.77,1497,462.88a7.22,7.22,0,0,1-5.88-4c-8.14-16.52-20.68-27.41-36.72-33.83a2,2,0,0,1,.73-3.88l61.21-1.19h.2c30.29,3.81,56.31,23.4,80.83,48.61A1.28,1.28,0,0,1,1596.38,470.77Z"/><rect class="cls-7" x="1269.95" y="1431.33" width="764.01" height="356.9"/><rect class="cls-31" x="1269.95" y="1431.33" width="764.01" height="103.06"/><polygon class="cls-32" points="2061.96 1497.79 1241.95 1497.79 1263.99 1428.33 2039.92 1428.33 2061.96 1497.79"/><g class="cls-33"><rect class="cls-34" x="1310.24" y="1569.46" width="129.72" height="55.99"/><rect class="cls-34" x="1310.24" y="1671.19" width="129.72" height="55.99"/><rect class="cls-34" x="1473.29" y="1569.46" width="129.72" height="55.99"/></g><rect class="cls-35" x="1312.57" y="1566.12" width="129.72" height="55.99"/><rect class="cls-36" x="1318.87" y="1573.12" width="117.12" height="42"/><polygon class="cls-37" points="1435.99 1615.12 1318.87 1615.12 1318.87 1573.12 1435.99 1615.12"/><rect class="cls-34" x="1374.86" y="1573.12" width="5.13" height="42"/><rect class="cls-34" x="1318.87" y="1591.55" width="117.12" height="5.13"/><rect class="cls-35" x="1312.57" y="1667.84" width="129.72" height="55.99"/><rect class="cls-36" x="1318.87" y="1674.84" width="117.12" height="42"/><polygon class="cls-37" points="1435.99 1716.84 1318.87 1716.84 1318.87 1674.84 1435.99 1716.84"/><rect class="cls-34" x="1374.86" y="1674.84" width="5.13" height="42"/><rect class="cls-34" x="1318.87" y="1693.27" width="117.12" height="5.13"/><rect class="cls-35" x="1475.62" y="1566.12" width="129.72" height="55.99"/><rect class="cls-36" x="1481.92" y="1573.12" width="117.12" height="42"/><polygon class="cls-37" points="1599.04 1615.12 1481.92 1615.12 1481.92 1573.12 1599.04 1615.12"/><rect class="cls-34" x="1537.91" y="1573.12" width="5.13" height="42"/><rect class="cls-34" x="1481.92" y="1591.55" width="117.12" height="5.13"/><rect class="cls-34" x="1489.67" y="1659.13" width="96.48" height="129.1"/><rect class="cls-38" x="1498.57" y="1667.84" width="78.69" height="120.39"/><rect class="cls-35" x="1691.88" y="1566.12" width="279.24" height="222.11"/><rect class="cls-36" x="1699.86" y="1566.12" width="263.28" height="222.11"/><polygon class="cls-39" points="1921.92 1765.78 1921.92 1718.71 1911.48 1718.71 1911.48 1697.58 1895.6 1697.58 1895.6 1681.58 1842.56 1681.58 1842.56 1697.1 1803.55 1697.1 1803.55 1765.78 1921.92 1765.78"/><polygon class="cls-39" points="1755.4 1704.63 1755.4 1683.5 1739.53 1683.5 1739.53 1667.5 1699.86 1667.5 1699.86 1751.7 1765.85 1751.7 1765.85 1704.63 1755.4 1704.63"/><polygon class="cls-39" points="1963.14 1688.47 1955.87 1688.47 1955.87 1699.66 1940 1699.66 1940 1714.44 1929.55 1714.44 1929.55 1747.37 1963.14 1747.37 1963.14 1688.47"/><rect class="cls-38" x="1689.7" y="1559.28" width="283.6" height="11.82"/><rect class="cls-38" x="1699.86" y="1754.84" width="263.28" height="33.39"/><rect class="cls-34" x="1699.86" y="1571.1" width="263.28" height="88.04"/><rect class="cls-40" x="1699.86" y="1581.05" width="263.28" height="4.98"/><rect class="cls-40" x="1699.86" y="1594.19" width="263.28" height="4.98"/><rect class="cls-40" x="1699.86" y="1607.34" width="263.28" height="4.98"/><rect class="cls-40" x="1699.86" y="1620.48" width="263.28" height="4.98"/><rect class="cls-40" x="1699.86" y="1633.62" width="263.28" height="4.98"/><rect class="cls-40" x="1699.86" y="1646.76" width="263.28" height="4.98"/><rect class="cls-41" x="1738.85" y="1679.28" width="39.89" height="57.95"/><rect class="cls-42" x="1752.42" y="1679.28" width="39.47" height="57.95"/><rect class="cls-43" x="1769.65" y="1679.28" width="9.26" height="11.95"/><rect class="cls-43" x="1769.65" y="1725.28" width="9.26" height="11.95"/><rect class="cls-44" x="1754.68" y="1727.71" width="12.22" height="7.38"/><rect class="cls-38" x="1755.24" y="1728.74" width="1.3" height="5.31"/><rect class="cls-38" x="1757.32" y="1728.74" width="0.46" height="5.31"/><rect class="cls-38" x="1759.64" y="1728.74" width="1.06" height="5.31"/><rect class="cls-38" x="1758.3" y="1728.74" width="0.65" height="5.31"/><rect class="cls-38" x="1761.5" y="1728.74" width="0.44" height="5.31"/><rect class="cls-38" x="1763.57" y="1728.74" width="0.88" height="5.31"/><rect class="cls-38" x="1764.75" y="1728.74" width="0.44" height="5.31"/><rect class="cls-38" x="1762.58" y="1728.74" width="0.6" height="5.31"/><rect class="cls-38" x="1765.66" y="1728.74" width="0.65" height="5.31"/><rect class="cls-45" x="1757.07" y="1699.9" width="34.81" height="37.33"/><rect class="cls-41" x="1699.83" y="1702.12" width="38.07" height="37.29"/><rect class="cls-42" x="1710.64" y="1702.12" width="37.83" height="37.29"/><rect class="cls-43" x="1724.48" y="1702.12" width="10.15" height="9.6"/><rect class="cls-43" x="1724.48" y="1729.82" width="10.15" height="9.6"/><rect class="cls-44" x="1712.45" y="1731.77" width="9.81" height="5.93"/><rect class="cls-38" x="1712.9" y="1732.6" width="1.04" height="4.27"/><rect class="cls-38" x="1714.57" y="1732.6" width="0.37" height="4.27"/><rect class="cls-38" x="1716.43" y="1732.6" width="0.85" height="4.27"/><rect class="cls-38" x="1715.36" y="1732.6" width="0.52" height="4.27"/><rect class="cls-38" x="1717.93" y="1732.6" width="0.35" height="4.27"/><rect class="cls-38" x="1719.59" y="1732.6" width="0.71" height="4.27"/><rect class="cls-38" x="1720.54" y="1732.6" width="0.35" height="4.27"/><rect class="cls-38" x="1718.79" y="1732.6" width="0.48" height="4.27"/><rect class="cls-38" x="1721.27" y="1732.6" width="0.52" height="4.27"/><rect class="cls-45" x="1713.26" y="1711.27" width="35.21" height="28.15"/><rect class="cls-41" x="1766.62" y="1702.84" width="32.22" height="31.48"/><rect class="cls-42" x="1775.83" y="1702.84" width="31.93" height="31.48"/><rect class="cls-43" x="1789.25" y="1702.84" width="5.09" height="8.1"/><rect class="cls-43" x="1789.25" y="1726.22" width="5.09" height="8.1"/><rect class="cls-44" x="1797.22" y="1727.87" width="8.28" height="5"/><rect class="cls-38" x="1797.6" y="1728.57" width="0.88" height="3.6"/><rect class="cls-38" x="1799.01" y="1728.57" width="0.31" height="3.6"/><rect class="cls-38" x="1800.58" y="1728.57" width="0.72" height="3.6"/><rect class="cls-38" x="1799.67" y="1728.57" width="0.44" height="3.6"/><rect class="cls-38" x="1801.84" y="1728.57" width="0.3" height="3.6"/><rect class="cls-38" x="1803.25" y="1728.57" width="0.6" height="3.6"/><rect class="cls-38" x="1804.05" y="1728.57" width="0.3" height="3.6"/><rect class="cls-38" x="1802.57" y="1728.57" width="0.41" height="3.6"/><rect class="cls-38" x="1804.66" y="1728.57" width="0.44" height="3.6"/><rect class="cls-41" x="1777.07" y="1733.95" width="32.22" height="31.48"/><rect class="cls-42" x="1786.27" y="1733.95" width="31.93" height="31.48"/><rect class="cls-43" x="1797.96" y="1733.95" width="8.57" height="8.1"/><rect class="cls-43" x="1797.96" y="1757.33" width="8.57" height="8.1"/><rect class="cls-44" x="1787.81" y="1758.98" width="8.28" height="5.01"/><rect class="cls-38" x="1788.18" y="1759.68" width="0.88" height="3.6"/><rect class="cls-38" x="1789.6" y="1759.68" width="0.31" height="3.6"/><rect class="cls-38" x="1791.17" y="1759.68" width="0.72" height="3.6"/><rect class="cls-38" x="1790.26" y="1759.68" width="0.44" height="3.6"/><rect class="cls-38" x="1792.43" y="1759.68" width="0.3" height="3.6"/><rect class="cls-38" x="1793.84" y="1759.68" width="0.6" height="3.6"/><rect class="cls-38" x="1794.64" y="1759.68" width="0.3" height="3.6"/><rect class="cls-38" x="1793.16" y="1759.68" width="0.41" height="3.6"/><rect class="cls-38" x="1795.25" y="1759.68" width="0.44" height="3.6"/><rect class="cls-41" x="1719.32" y="1716.45" width="50.12" height="48.98"/><rect class="cls-42" x="1733.64" y="1716.45" width="49.68" height="48.98"/><rect class="cls-43" x="1751.81" y="1716.45" width="13.33" height="12.6"/><rect class="cls-43" x="1751.81" y="1752.83" width="13.33" height="12.6"/><rect class="cls-44" x="1736.02" y="1755.39" width="12.89" height="7.79"/><rect class="cls-38" x="1736.61" y="1756.48" width="1.37" height="5.6"/><rect class="cls-38" x="1738.8" y="1756.48" width="0.48" height="5.6"/><rect class="cls-38" x="1741.25" y="1756.48" width="1.12" height="5.6"/><rect class="cls-38" x="1739.84" y="1756.48" width="0.68" height="5.6"/><rect class="cls-38" x="1743.21" y="1756.48" width="0.46" height="5.6"/><rect class="cls-38" x="1745.4" y="1756.48" width="0.93" height="5.6"/><rect class="cls-38" x="1746.64" y="1756.48" width="0.46" height="5.6"/><rect class="cls-38" x="1744.35" y="1756.48" width="0.64" height="5.6"/><rect class="cls-38" x="1747.6" y="1756.48" width="0.68" height="5.6"/><rect class="cls-41" x="1699.83" y="1733.95" width="16.76" height="31.48"/><rect class="cls-42" x="1699.83" y="1733.95" width="25.68" height="31.48"/><rect class="cls-43" x="1705.26" y="1733.95" width="8.57" height="8.1"/><rect class="cls-43" x="1705.26" y="1757.33" width="8.57" height="8.1"/><rect class="cls-44" x="1699.83" y="1758.98" width="3.56" height="5.01"/><rect class="cls-38" x="1701.14" y="1759.68" width="0.6" height="3.6"/><rect class="cls-38" x="1701.94" y="1759.68" width="0.3" height="3.6"/><rect class="cls-38" x="1700.46" y="1759.68" width="0.41" height="3.6"/><rect class="cls-38" x="1702.55" y="1759.68" width="0.44" height="3.6"/><rect class="cls-45" x="1716.74" y="1733.95" width="8.77" height="31.48"/><path class="cls-45" d="M1795.28,1702.84h-3.39v-23.56h-53v22.84h-39v62.78C1731.22,1743.57,1763.78,1724,1795.28,1702.84Z"/><rect class="cls-41" x="1930.89" y="1710.11" width="28.48" height="27.82"/><rect class="cls-42" x="1939.02" y="1710.11" width="24.12" height="27.82"/><rect class="cls-43" x="1950.89" y="1710.11" width="4.5" height="7.16"/><rect class="cls-43" x="1950.89" y="1730.77" width="4.5" height="7.16"/><rect class="cls-38" x="1958.27" y="1732.85" width="0.78" height="3.18"/><rect class="cls-38" x="1959.51" y="1732.85" width="0.27" height="3.18"/><rect class="cls-38" x="1960.9" y="1732.85" width="0.64" height="3.18"/><rect class="cls-38" x="1960.1" y="1732.85" width="0.39" height="3.18"/><rect class="cls-38" x="1962.02" y="1732.85" width="0.26" height="3.18"/><rect class="cls-38" x="1962.66" y="1732.85" width="0.36" height="3.18"/><rect class="cls-41" x="1940.12" y="1737.6" width="23.02" height="27.82"/><rect class="cls-42" x="1948.26" y="1737.6" width="14.88" height="27.82"/><rect class="cls-43" x="1958.58" y="1737.6" width="4.56" height="7.16"/><rect class="cls-43" x="1958.58" y="1758.27" width="4.56" height="7.16"/><rect class="cls-44" x="1949.61" y="1759.72" width="7.32" height="4.42"/><rect class="cls-38" x="1949.94" y="1760.34" width="0.78" height="3.18"/><rect class="cls-38" x="1951.19" y="1760.34" width="0.27" height="3.18"/><rect class="cls-38" x="1952.58" y="1760.34" width="0.64" height="3.18"/><rect class="cls-38" x="1951.78" y="1760.34" width="0.39" height="3.18"/><rect class="cls-38" x="1953.7" y="1760.34" width="0.26" height="3.18"/><rect class="cls-38" x="1954.94" y="1760.34" width="0.53" height="3.18"/><rect class="cls-38" x="1955.65" y="1760.34" width="0.26" height="3.18"/><rect class="cls-38" x="1954.34" y="1760.34" width="0.36" height="3.18"/><rect class="cls-38" x="1956.19" y="1760.34" width="0.39" height="3.18"/><rect class="cls-41" x="1889.07" y="1722.14" width="44.3" height="43.29"/><rect class="cls-42" x="1901.73" y="1722.14" width="43.91" height="43.29"/><rect class="cls-43" x="1917.8" y="1722.14" width="11.78" height="11.14"/><rect class="cls-43" x="1917.8" y="1754.29" width="11.78" height="11.14"/><rect class="cls-44" x="1903.84" y="1756.55" width="11.39" height="6.88"/><rect class="cls-38" x="1904.36" y="1757.52" width="1.21" height="4.95"/><rect class="cls-38" x="1906.3" y="1757.52" width="0.42" height="4.95"/><rect class="cls-38" x="1908.46" y="1757.52" width="0.99" height="4.95"/><rect class="cls-38" x="1907.21" y="1757.52" width="0.6" height="4.95"/><rect class="cls-38" x="1910.19" y="1757.52" width="0.41" height="4.95"/><rect class="cls-38" x="1912.13" y="1757.52" width="0.82" height="4.95"/><rect class="cls-38" x="1913.23" y="1757.52" width="0.41" height="4.95"/><rect class="cls-38" x="1911.2" y="1757.52" width="0.56" height="4.95"/><rect class="cls-38" x="1914.07" y="1757.52" width="0.6" height="4.95"/><polygon class="cls-46" points="1943.75 1710.11 1943.75 1734.72 1934.57 1734.72 1934.57 1765.43 1963.14 1765.43 1963.14 1710.11 1943.75 1710.11"/><rect class="cls-11" x="1529.74" y="1339.25" width="411.87" height="92.08"/><path class="cls-28" d="M1596.7,1403.65h-12.08l-4.42-20.83h-.2l-4.42,20.83H1563.5l-8-34.2h11.43l3.93,19.39h.19l3.88-19.39h10.84l4.12,19.39h.2l3.68-19.39h10.93Z"/><path class="cls-28" d="M1643.18,1403.65h-11.63l-1.44-4.82h-12l-1.44,4.82h-11.23l12.47-34.2h12.78ZM1624.05,1379l-3.63,12.17h7.4l-3.57-12.17Z"/><path class="cls-28" d="M1673.16,1389.34l7.6,14.31h-12.32l-6.07-12.48h-4.07v12.48h-11v-34.2h20.92c7.6,0,11.53,4.93,11.53,10.49A9.8,9.8,0,0,1,1673.16,1389.34Zm-7.66-12.08h-7.2v6.31h7.2a3.09,3.09,0,0,0,3.08-3.18A3,3,0,0,0,1665.5,1377.26Z"/><path class="cls-28" d="M1686,1403.65v-34.2h29.57v8.21H1697v4.72h15.91v7.85H1697v5.22h18.94v8.2Z"/><path class="cls-28" d="M1755.92,1403.65h-11v-13h-12.08v13h-11v-34.2h11v12.48h12.08v-12.48h11Z"/><path class="cls-28" d="M1798.77,1386.55c0,11.68-6.81,17.69-18.49,17.69s-18.43-6-18.43-17.69,6.75-17.69,18.43-17.69S1798.77,1374.87,1798.77,1386.55Zm-25.69-1.59v3.18c0,4.67,2.38,7.9,7.2,7.9s7.26-3.23,7.26-7.9V1385c0-4.67-2.44-7.9-7.26-7.9S1773.08,1380.29,1773.08,1385Z"/><path class="cls-28" d="M1838.74,1389.88c0,9.44-6.26,14.36-17,14.36s-17-4.92-17-14.36v-20.43h11v20.28c0,3.68,2,6.31,6,6.31s6.07-2.63,6.07-6.31v-20.28h11Z"/><path class="cls-28" d="M1875.57,1379.39v.6h-10.28v-.2c0-1.79-1.24-3.48-4.42-3.48s-4.53,1-4.53,2.24c0,5.12,19.93,1.09,20.18,13.77,0,8.49-6.46,11.92-15.06,11.92-9.59,0-16.9-2.43-16.9-12.17H1855c0,3.68,2.14,4.32,5.52,4.32,2,0,4.82-.15,4.82-2.28,0-4.92-20.18-1-20.18-14.32,0-8,7.26-10.93,15.36-10.93S1875.43,1372.09,1875.57,1379.39Z"/><path class="cls-28" d="M1882,1403.65v-34.2h29.57v8.21H1893v4.72h15.9v7.85H1893v5.22h18.93v8.2Z"/><path class="cls-47" d="M439.8,1307.68a24.36,24.36,0,0,0-22.22,24.21c-.21,77.08-.58,343,4.45,437.05a18.91,18.91,0,0,0,18.68,17.9c49.37.53,191.41,1.5,272-3.65a31.84,31.84,0,0,0,29.83-31.81c-.1-82.85-1.45-319.53-13.29-419.75a17.34,17.34,0,0,0-15.84-15.24C666.44,1312.64,512.79,1301.33,439.8,1307.68Z"/><path class="cls-7" d="M437.4,1352.09c-1,65.93-3.73,285.26,1.09,366.21.71,11.84,9.9,21.18,21.25,21.57,46.72,1.63,166.54,4.78,234.82-2.73,12.29-1.35,21.69-12,22-24.91,1.71-67.29,6.32-271.57,1.63-351.61-.74-12.77-10.5-23-22.73-23.79-50.59-3.41-180.51-11.27-238.57-6.43C446,1331.3,437.57,1340.67,437.4,1352.09Z"/><path class="cls-48" d="M550.3,1319.14a3.42,3.42,0,0,0,3.31,3.35c9,.27,34.32,1,45.64,1.46a3.43,3.43,0,0,0,3.47-4.15,3.5,3.5,0,0,0-3.19-3.07c-7.66-.53-30.76-2-46-1.08C550.37,1315.83,550.2,1319.39,550.3,1319.14Z"/><g class="cls-49"><path class="cls-28" d="M638.77,1597.8a4.11,4.11,0,0,0-3.37-1.35L514.94,1599l-3-9.66a3.12,3.12,0,0,0-3.12-2.17l-16.54.43a3.11,3.11,0,0,0-3.21,3,2.93,2.93,0,0,0,3.21,2.89l14.13-.33L532,1674.9a3.38,3.38,0,0,0,3.18,2.34l84.55,1.14c2,0,3.6-1.22,3.6-3.1a3.34,3.34,0,0,0-3.6-3.18l-82.08-.89L531,1650l90.21.13a4.18,4.18,0,0,0,4-2.88l14.23-46A3.6,3.6,0,0,0,638.77,1597.8Z"/><path class="cls-28" d="M547.5,1682.28a12.2,12.2,0,0,0-12.58,12.07A12.84,12.84,0,0,0,547.5,1707a12.21,12.21,0,0,0,12.73-12.07A12.84,12.84,0,0,0,547.5,1682.28Zm0,18.09a6,6,0,0,1-5.89-5.88,5.69,5.69,0,0,1,5.89-5.63,6,6,0,0,1,5.92,5.88A5.7,5.7,0,0,1,547.5,1700.37Z"/><path class="cls-28" d="M603.86,1683.16c-7.3-.12-13.2,5.43-13.2,12.36s5.9,12.71,13.2,12.91,13.36-5.35,13.36-12.36S611.21,1683.27,603.86,1683.16Zm0,18.53a6.21,6.21,0,0,1-6.18-6,5.9,5.9,0,0,1,6.18-5.76,6.21,6.21,0,0,1,6.22,6A5.91,5.91,0,0,1,603.86,1701.69Z"/></g><path class="cls-11" d="M431,1306.78a4.1,4.1,0,0,0-3.68,1.88c-17,27.76-34,56.52-51,83.06l49.24.5c13.12-26.58,26.27-56.22,39.41-85.09Z"/><path class="cls-50" d="M474.82,1393.36l-49.24-.49q19.69-42.78,39.41-85.54l36.4.36Q488.1,1350.53,474.82,1393.36Z"/><path class="cls-11" d="M524.07,1393.86l-49.25-.5q13.29-42.83,26.57-85.67l36.4.37Q530.92,1351,524.07,1393.86Z"/><path class="cls-51" d="M573.31,1394.36l-49.24-.5q6.85-42.9,13.72-85.8l36.39.37Z"/><path class="cls-11" d="M622.56,1394.86l-49.25-.5.87-85.93,36.4.37Q616.57,1351.84,622.56,1394.86Z"/><path class="cls-52" d="M671.81,1395.36l-49.25-.5q-6-43-12-86.06l36.4.37Q659.4,1352.27,671.81,1395.36Z"/><path class="cls-11" d="M721.05,1395.86l-49.24-.5q-12.42-43.09-24.83-86.19l36.4.37Q702.22,1352.7,721.05,1395.86Z"/><path class="cls-53" d="M721,1311.63a4.08,4.08,0,0,0-3.64-2l-34-.34c12.55,29.13,25.1,59,37.68,85.87l47.88.49c.55,0,.86-.81.52-1.36C753.31,1367.84,737.18,1339.25,721,1311.63Z"/><path class="cls-54" d="M376.8,1391.73a1.36,1.36,0,0,0-1.18,1.5l-.14,13.37c-.13,12.4,11.67,21.87,25.23,22h.53c13.56.13,24.53-9.11,24.66-21.51l.15-14.88Z"/><path class="cls-55" d="M426.05,1392.23l-.15,14.88c-.13,12.4,10.26,21.86,23.59,22H450c13.34.13,24-9.11,24.14-21.51l.15-14.89Z"/><path class="cls-54" d="M474.3,1392.71l-.15,14.89c-.12,12.4,11.4,21.87,25,22h.53c13.56.14,24.08-9.11,24.21-21.51l.15-14.88Z"/><path class="cls-56" d="M524,1393.22l-.15,14.88c-.13,12.4,10.71,21.86,24,22h.52c13.34.14,24.29-9.1,24.42-21.5l.15-14.89Z"/><path class="cls-54" d="M573,1393.71l-.15,14.89c-.13,12.4,11.11,21.86,24.68,22H598c13.56.13,23.64-9.12,23.76-21.52l.15-14.88Z"/><path class="cls-57" d="M622,1394.21l-.15,14.88c-.12,12.4,11.16,21.87,24.49,22h.52c13.34.14,24.56-9.11,24.69-21.5l.15-14.89Z"/><path class="cls-54" d="M671.65,1394.71l-.15,14.89c-.13,12.39,10.84,21.86,24.41,22h.52c13.57.14,24.64-9.1,24.77-21.5l.15-14.89Z"/><path class="cls-58" d="M721.35,1395.21l-.15,14.89c-.13,12.4,10.16,21.86,23.49,22h.52c13.33.13,24.12-9.11,24.24-21.51l.15-14.89Z"/><path class="cls-54" d="M778.19,1598.87a1.62,1.62,0,0,1-1.61-1.56,110.81,110.81,0,0,1,3.71-29.34c5.51-20,16.57-31.85,32-34.27a24.28,24.28,0,0,1,20,5.3c18.64,15.32,20.41,56.45,20.47,58.2a1.61,1.61,0,0,1-3.21.12c0-.41-1.78-41.43-19.31-55.84a21.19,21.19,0,0,0-17.45-4.6c-34.24,5.39-33,59.78-33,60.33a1.61,1.61,0,0,1-1.56,1.66Z"/><path class="cls-11" d="M710.44,1775l27.64-190.6,103.82-1.74,33.47,202.93H719.43A9.19,9.19,0,0,1,710.44,1775Z"/><path class="cls-54" d="M862.07,1584.38l-20.17-1.74,33.47,202.93h20a6.48,6.48,0,0,0,6.26-7.84Z"/><path class="cls-54" d="M828.82,1598.43a1.61,1.61,0,0,1-1.61-1.55c0-.41-1.78-41.43-19.31-55.84a21.18,21.18,0,0,0-17.44-4.6c-34.22,5.39-33,59.78-33,60.33a1.61,1.61,0,0,1-3.22.1,110.76,110.76,0,0,1,3.71-29.33c5.51-20,16.57-31.85,32-34.28a24.3,24.3,0,0,1,20,5.3c18.64,15.33,20.41,56.46,20.47,58.2a1.6,1.6,0,0,1-1.54,1.67Z"/></g></g></svg>