<svg id="Слой_1" data-name="Слой 1" xmlns="http://www.w3.org/2000/svg" viewBox="0 0 2196.77 1801.37"><defs><style>.cls-1{fill:#ebf2f9;}.cls-2{fill:#233862;}.cls-3{fill:#e2915a;}.cls-4{fill:#f99746;}.cls-5{fill:#ed7d2b;}.cls-6{fill:#ffb27d;}.cls-7{fill:#fff;}.cls-8{fill:#2b478b;}.cls-9{fill:#ed975d;}.cls-10{fill:#e9f3fe;}.cls-11{fill:#22407a;}.cls-12{fill:#d9e9f9;}</style></defs><title>Монтажная область 2</title><path class="cls-1" d="M1094.78,6.58C502.54,6.58,22.44,486.68,22.44,1078.92c0,275.08,103.59,526,273.87,715.78H1893.24c170.29-189.82,273.88-440.7,273.88-715.78C2167.12,486.68,1687,6.58,1094.78,6.58Z"/><path class="cls-2" d="M1330.68,673.43,1277.8,773.77l-27.13-9.86,8.81,26.77-53,159.72S1177.13,747.46,1330.68,673.43Z"/><path class="cls-2" d="M1242.46,762.14s-58.48,215.59-64.12,421.31c0,0,48.51,16.91,124.7,3.52C1379.63,1173.52,1242.46,762.14,1242.46,762.14Z"/><path class="cls-3" d="M962.44,1061.09c15.69-.3,37.79,1.64,45.09-6.35,8.27-9,18-7.72,18-7.72l-2-10.35-2.37-12.36s-.89-1.12-4.11-1.08c0,0-11.37.49-16.8-1.45-13.21-4.73-65.8,26.78-64,35.52C937,1060.57,955.75,1061.21,962.44,1061.09Z"/><path class="cls-2" d="M1249.05,757.92S1160.22,941.4,1132.73,961.1s-125.49,62.28-125.49,62.28-2.57,6.1-.19,15c2.48,9.3,7.37,11.93,7.37,11.93s137-12.24,168.87-32.06,102.09-98.86,102.09-98.86Z"/><path class="cls-2" d="M1509.06,1786.68h52.58c6.62-3.59,12.51-11.82,14.38-24.09,2.57-16.94,21.55-26.17,25.66-40s-16.94-33.35-16.94-33.35l-3.52-4.53-3.66-4.71-34.9,8.22s-.86,8.31-1.39,18.9a241,241,0,0,0-.15,24.2c1,18.47-5.16,38.37-21.58,42C1507.41,1775.91,1508,1783.11,1509.06,1786.68Z"/><path class="cls-2" d="M1203.94,1786.68h120.23c5.79-7.06,3.65-33.1,2.78-41.6-.18-1.71-.3-2.71-.3-2.71s-41.06-32.84-46.7-7.69c-.17.79-.38,1.56-.61,2.32-7.11,23.52-39,34.21-57.38,37.18C1210,1776.12,1205.57,1782.34,1203.94,1786.68Z"/><path class="cls-4" d="M1226.85,1115.54s6.23,77.79,13.56,171.29c10,127,21.93,283,23.12,312.58,2,51.32,10.27,133.41,10.27,133.41s19.49,19.51,58.49,11.29c0,0,34.76-117.19,44.69-241.19.16-2,.31-4.08.46-6.13,9.24-126.22,23.6-392,23.6-392Z"/><path class="cls-5" d="M1226.85,1115.54s6.23,77.79,13.56,171.29L1377,1502.92c.16-2,.31-4.08.46-6.13,9.24-126.22,23.6-392,23.6-392Z"/><path class="cls-4" d="M1255.32,1124.78s112.37,281.7,186.26,414.09,97,169.33,97,169.33,42.33-16.94,46.18-28.48c0,0-28.25-255.58-77.74-317.88-28-35.2-60.8-140.85-62.34-177.8s-10-110.06-10-110.06Z"/><path class="cls-6" d="M1283.29,714.12c43.91,13.85,119.89-23.54,119.89-23.54s-40.48-30.39-38.36-93.57l-34,27.36L1307.8,643a277.41,277.41,0,0,0,2.62,30.15q.69,5.26,1.63,11.33a8.13,8.13,0,0,1-3.68,8.19A103.81,103.81,0,0,0,1283.29,714.12Z"/><path class="cls-7" d="M1222,1122a7.1,7.1,0,0,0,4.62,1.76c16.49-.22,64.57,8.93,105.26,4.76,34.3-3.3,64.66-13.46,97.27-28.07,4.33-1.94,14.29-7.26,14.07-12.1-.15-5.3-.68-13-1.34-22.66-2.3-33.66-6.33-91.54-2.41-158.32.71-12.43,1.08-24.77,1.13-36.91.33-90.5-17.61-170.11-53.68-197.05,0,0-25.14,14.11-42.54,19.67-17.05,5.45-25.84,4.35-34.68-1.51,0,0-17.22,8.56-24.58,16.58-17,18.57-30.35,43.23-39.14,78.63-7.49,30.13-14.49,74.05-16.91,130.34C1228,942.65,1220.9,1121.14,1222,1122Z"/><path class="cls-8" d="M1435.26,823l-48.34-149.54S1270.87,717.2,1265.5,881.06c-2.11,37.34-11.07,190.37,5.14,317.19,0,0,90.41,35.22,201.26-34.29Z"/><path class="cls-9" d="M1307.8,643a277.41,277.41,0,0,0,2.62,30.15c25.55-4.38,54.54-45.69,54.54-45.69-13-3.75-24.4-4.43-34.09-3Z"/><path class="cls-6" d="M1288.78,641.78s79.09,13.14,86.52-36.24,22.63-80.94-27.55-91.42-62.85,6.89-69.34,22.77S1268.4,637.09,1288.78,641.78Z"/><path class="cls-2" d="M1635.84,1280.6l-161.49,23a38.71,38.71,0,0,1-43.66-32.76l-10-70a38.72,38.72,0,0,1,32.77-43.66l161.49-23a38.72,38.72,0,0,1,43.66,32.77l10,70A38.71,38.71,0,0,1,1635.84,1280.6Z"/><path class="cls-8" d="M1442,1197.78l10.09,70.79a38.82,38.82,0,0,0,22.81,30,38.33,38.33,0,0,0,12.58,3.18h0a37.79,37.79,0,0,0,8.41-.27l161.2-23a38.84,38.84,0,0,0,32.88-43.81l-10.08-70.8A38.85,38.85,0,0,0,1636.1,1131l-55.51,7.91-2.15-15.1A12.79,12.79,0,0,0,1564,1113l-6.09.86-33.76,4.82-8.39,1.2a12.78,12.78,0,0,0-10.85,14.45l2.15,15.1-32.16,4.58c-1.27.18-2.51.43-3.73.72h0a38.87,38.87,0,0,0-26.75,23.37h0A38.34,38.34,0,0,0,1442,1197.78ZM1572.66,1140l-57.68,8.22-2.15-15.1a4.77,4.77,0,0,1,4.05-5.39l14.48-2.07,26.58-3.79,7.17-1a4.56,4.56,0,0,1,1.43,0,4.77,4.77,0,0,1,4,4Z"/><path class="cls-6" d="M1513,1072.22s8.48,11.3,8.82,15.81c2.28,30.6-11.7,34.83,24.49,51.82,0,0,15.45,5.9,15.72-6.1s-10.73-12.19-8.72-29c2.32-19.38,2.08-19.55-10.63-29.67l-8.42-13.92Z"/><path class="cls-8" d="M1534.61,1080.88c-13.64,2.66-28.42,1.58-28.42,1.58s-40.48-125-45.69-136.47-120.23-146.62-120.23-146.62l46.65-125.94s27.37,16,56.3,65.93c35.74,61.67,75,161,82,177.11,20.88,48.25,28.12,156.44,28.12,156.44A52.11,52.11,0,0,1,1534.61,1080.88Z"/><path class="cls-4" d="M1375.36,600.79s-8.11-1.36-6.8-12.54,1.29-25.79-7.8-23.06-9.54,10-13.28,5.75-3.8-22.16-30.84-23.4-38,8.16-50.62,2.63-13.24-24.56-13.24-24.56,3.58,6.79,9,9c0,0-21-28.7,3.31-48.38s49.06-6.8,63.12-5.95c31,1.88,51,3.74,61.11,24.09S1395.24,581.2,1375.36,600.79Z"/><path class="cls-6" d="M1526.42,1085.68s-8.17,8.51-8.68,12c-1.66,11.37-5.46,16.28-3.55,17.52,4,2.57,9.19-5.85,11.69-13.4S1526.42,1085.68,1526.42,1085.68Z"/><path class="cls-2" d="M1386.92,673.43,1334,773.77l-27.12-9.86,8.81,26.77-53,159.72S1233.38,747.46,1386.92,673.43Z"/><path class="cls-7" d="M1283.29,613.76s3.08,8.14,10.78,8.36,13.64-7.26,13.64-7.26S1291,611,1283.29,613.76Z"/><path class="cls-2" d="M629.62,1778.23c.2,10,1.45,19.41,5.07,23.14h145c-1.84-5.25-7.06-13.14-22-15.56-16.92-2.74-43.29-10.88-58.69-27.16a43.62,43.62,0,0,1-11.36-20.58c-6.83-30.37-56.42,9.31-56.42,9.31A246.1,246.1,0,0,0,629.62,1778.23Z"/><path class="cls-4" d="M872.49,1371.87l160.59-37.2a39.14,39.14,0,0,0,29.2-46.81l-16.13-69.59a39.12,39.12,0,0,0-46.8-29.2l-160.6,37.21a39.11,39.11,0,0,0-29.19,46.8l16.12,69.6A39.12,39.12,0,0,0,872.49,1371.87Z"/><path class="cls-5" d="M1015.55,1205.41h0a39.3,39.3,0,0,0-33.74-12.27h0c-1.25.16-2.51.38-3.78.67l-32,7.42-3.48-15a12.92,12.92,0,0,0-15.5-9.66l-8.35,1.93-33.57,7.77-6.06,1.41a12.92,12.92,0,0,0-9.66,15.5l3.48,15L817.68,1231a39.28,39.28,0,0,0-29.31,47l16.32,70.41a39.27,39.27,0,0,0,47,29.3l160.3-37.14a38.06,38.06,0,0,0,8-2.81h0a38.54,38.54,0,0,0,10.7-7.59,39.24,39.24,0,0,0,10.56-36.58L1025,1223.13A38.71,38.71,0,0,0,1015.55,1205.41Zm-138.26-4.08a4.83,4.83,0,0,1,2.26-5.25,5,5,0,0,1,1.35-.54l7.13-1.65,26.43-6.12,14.4-3.34a4.84,4.84,0,0,1,5.79,3.61l3.48,15-57.36,13.28Z"/><path class="cls-6" d="M910.24,1114.83s-4.85,17.2-3.19,22.68c11.28,37.14,30.79,61.44-21.65,55.17,0,0,2.17-2.15-7.87-21-11.58-21.79-11.38-22.11-1-39.86l3.58-20.26Z"/><path class="cls-6" d="M976.21,1070.6c-15.83-1-35.12-5.1-42.16-13.47-8-9.49-15.93-12-15.93-12l2.43-10.36,2.91-12.38s.95-1.1,4.2-.93c0,0,12.41,2.81,17-.75s13-1.39,18.23,2.05c6.6,4.39,15.51,3.68,15.29,5.83,0,0-13.08,6.43-11.86,7.51,12,10.64,43.54,14.87,41.5,23.19C1007,1062.52,983,1071,976.21,1070.6Z"/><path class="cls-6" d="M755.59,666.13l-.05,8.61s2.34,26.92-30.8,30.85-60.32,3.42-59.42-17.35c3-16.08,8.33-41,8.55-54.35a93,93,0,0,0-1.17-16.12l64.22-1.28,18.91,3.09Z"/><path class="cls-3" d="M755.83,619.58l-.24,46.55a54.23,54.23,0,0,1-23.15,5.11c-29.52,0-48.6-21.64-58.57-37.35a93,93,0,0,0-1.17-16.12l64.22-1.28Z"/><path class="cls-6" d="M667.78,607.44c7.45,40.1,59.19,38.78,81.55,36.26,6.29-.7,10.25-1.5,10.25-1.5,7.1-1.89,11.06-13.07,12.9-27.71,3.65-29-1-71.5-5.86-82.38-7.36-16.36-21.24-34.07-73.35-21.29S658.22,556.06,667.78,607.44Z"/><path class="cls-2" d="M847,1771.56c.2,10,1.46,19.42,5.08,23.14h145c-1.85-5.25-7.07-13.14-22-15.56-16.91-2.73-43.29-10.88-58.68-27.15a43.73,43.73,0,0,1-11.37-20.58c-6.82-30.38-56.41,9.3-56.41,9.3A245.08,245.08,0,0,0,847,1771.56Z"/><path class="cls-8" d="M750.54,1443.18a228.62,228.62,0,0,1,3.64,26.79c4.61,89.93,75.7,295.55,88.42,300.35,19.67,7.42,50.66-8.36,66.87-13.52,6.71-2.15,11.25-8.93,9.75-15.8-35.2-161.84-48.14-394.9-52.85-532.87-2.38-69.5-14.31-117.51-14.31-117.51s-173.38-46.26-174.41,12.26C676.73,1154.66,735.08,1357.75,750.54,1443.18Z"/><path class="cls-2" d="M750.54,1443.18l115.83-235c-2.38-69.5-14.31-117.51-14.31-117.51s-173.38-46.26-174.41,12.26C676.73,1154.66,735.08,1357.75,750.54,1443.18Z"/><path class="cls-8" d="M789.12,1103.09,697.46,1767.4s-40.25,9.71-71.56,1.94c0,0-26.83-353.31-24.6-438.73s-19.26-228.56,4.91-244.34S789.12,1103.09,789.12,1103.09Z"/><path class="cls-5" d="M768.63,538.39c-14.32,4.51-44.59-.1-57.25,10.14s-.6,27.13-15.07,33.15l0,0a7.14,7.14,0,0,1-8.31-2.09c-4-5-9.55-10-14.62-7.92-4.16,1.7-4.37,7.07-2.53,12.29a14.54,14.54,0,0,1-1.56,13.13,7.18,7.18,0,0,0-1.57,5.29c1.2,6.62,4.48,15.23,5.69,19.63l.33,4.62s-24.23-26.23-34.44-48.3c-7-15.15-6.86-71.76,27.4-88.31a1.15,1.15,0,0,1-.33-.37c-.74-1.33-2.8-1-2.8-1,3-1.32,7.52-.48,7.52-.48s.08-.28.5-.6c.59-4,4.62-6.86,4.62-6.86a13.5,13.5,0,0,0-2.19,5.41c9-4.74,36.7-15.25,58.65-5.7a182.78,182.78,0,0,0,37.72,11.69,15.73,15.73,0,0,1,12.74,16C782.67,519,778.89,534.65,768.63,538.39Z"/><path class="cls-10" d="M657.5,699.78l21.11,452.8s176.13,2.87,171.1-37-63.49-401.95-63.49-401.95"/><path class="cls-11" d="M715.56,983.41s-8.94,120.94-26.11,196.87c0,0-102.78,5.45-127.18-34.23,0,0,19.31-163.38,19.31-196.51,0-11.65-.89-27.48-2.32-45.18-2.13-26.82-5.45-57.87-8.6-84.93-4.37-37.68-8.39-67.62-8.39-67.62L647,682.94Z"/><path class="cls-11" d="M919.51,1126.51s-19.18,12-49.37,8c-11,27-36.92,36.11-36.92,33.68,0-.3-5.82-50.91-12.7-110.56q-1-8.94-2.07-18.09c-.05-.52-.12-1-.18-1.56-1.16-10-2.31-20.1-3.48-30.16C806.52,936,798.57,867.1,798.57,867.1c-18-110.33-33.28-183.25-33.28-183.25,38.45,4,64.39,17.7,74.75,35.63C870.73,772.68,893,905.72,906,1005.31c0,.26.06.51.1.76,2.24,17.19,4.21,33.38,5.89,48,.11.91.21,1.81.31,2.7C917.06,1098.48,919.51,1126.51,919.51,1126.51Z"/><path class="cls-7" d="M741.2,614s1.67,5.17,14.73,3.28c0,0,11-1.58,10.15-7.35C766.08,610,755.06,606.72,741.2,614Z"/><path class="cls-12" d="M652.51,682.4c-.21-4.32,20.25-10.29,20.25-10.29s23.43,32.48,62,33c0,0-11,21.41-24,27C710.83,732.1,653.79,708.06,652.51,682.4Z"/><path class="cls-12" d="M734.79,704.39s20.45-12.12,20.52-25.26c0,0,13.2-1.65,19,4.75,0,0,4.85,22.52-1.58,35.6C772.7,719.48,743.25,715,734.79,704.39Z"/><path class="cls-5" d="M720.91,702.44l27.72-6.64s3.63.31,3.53,4.83-7.81,17.71-11.23,18.77S714.35,711.58,720.91,702.44Z"/><path class="cls-10" d="M655.74,680.17c-.21-4.32,13.64-13.22,13.64-13.22s26.81,31.33,65.41,31.89c0,0-11,21.41-24,26.95C710.83,725.79,657,705.83,655.74,680.17Z"/><path class="cls-10" d="M734.79,698.84s20.68-11,20.75-24.1c0,0,12.48,5.49,18.25,11.9,0,0,5.34,14.21-1.09,27.29C772.7,713.93,743.25,709.45,734.79,698.84Z"/><path class="cls-5" d="M785.47,1078.52c-1.07,13-6,25.13-13.94,34l-12.42,14c-3.12,3.53-8,3.1-10.53-.91l-15-23.52a36.12,36.12,0,0,1-5.16-22.38c1.6-18,4.58-52.53,7-85.9,2-27,3.63-53.31,3.89-69.28.82-51-5.86-213.48-5.86-213.48l10,.52s24.15,62.82,36.29,148.54c3,21.1,5.24,43.57,6.24,66.86C786,927,790.3,1019.84,785.47,1078.52Z"/><path class="cls-5" d="M785.47,1078.52c-1.07,13-6,25.13-13.94,34l-12.42,14c-3.12,3.53-8,3.1-10.53-.91l-15-23.52a36.12,36.12,0,0,1-5.16-22.38c1.6-18,4.58-52.53,7-85.9,27.92-38.28,39.59-90.85,44.29-133.7,3,21.1,5.24,43.57,6.24,66.86C786,927,790.3,1019.84,785.47,1078.52Z"/><path class="cls-2" d="M669.38,667s54.89,229.91,46.16,316.52c0,0-20.19-92.55-68.76-168.36,0,0,17.73-15.59,16.77-21.34,0,0-13.16-3.9-25.93-1.27,0,0,1.42-99.11,9.38-109.58S669.38,667,669.38,667Z"/><path class="cls-2" d="M755.54,674.74c-8.23.67,54.4,224.67,59,296.47,0,0-5.5-128.13-5-165.05,0,0-22.8-12.08-22.8-16.31s24.32-15.68,24.32-15.68-15.4-78.91-23.8-87.61S755.54,674.74,755.54,674.74Z"/><path class="cls-6" d="M870.18,1143.59s-3.8,5.15-1.39,18.07,1.08,20.06,4.43,17.83,10.25-17.74,10.25-17.74Z"/><path class="cls-2" d="M708.86,1018.84c-63.91-9.54-106.64-69.26-129.6-114.48-2.13-26.82-5.45-57.87-8.6-84.93l15-42.66Z"/><path class="cls-2" d="M912.27,1056.74c-12.73,3-51.33,10.16-91.75.86q-1-8.94-2.07-18.09c-.05-.52-.12-1-.18-1.56q2-7.79,4-15.56c22.87,8.19,74,26.12,89.7,31.65C912.07,1055,912.17,1055.85,912.27,1056.74Z"/><path class="cls-11" d="M647,682.92s-56.16,7.1-81.79,42.87,29.41,230.65,143.65,293.05c54.95,30,213.52,36.78,213.52,36.78s8.71.87,12.17-16.68c1.21-6.12,0-16.55,0-16.55s-180.5-67.68-196.36-80.71S647,682.92,647,682.92Z"/></svg>