<svg xmlns="http://www.w3.org/2000/svg" xmlns:xlink="http://www.w3.org/1999/xlink" viewBox="0 0 691.55 278.3"><defs><style>.cls-1{isolation:isolate;}.cls-2,.cls-36{fill:#231f20;}.cls-2{opacity:0.18;}.cls-2,.cls-60,.cls-63,.cls-68,.cls-69{mix-blend-mode:multiply;}.cls-19,.cls-20,.cls-21,.cls-24,.cls-25,.cls-26,.cls-28,.cls-3,.cls-32,.cls-38,.cls-47,.cls-6{fill:#fff;}.cls-13,.cls-3,.cls-6,.cls-7{stroke:#263238;}.cls-14,.cls-3{stroke-miterlimit:10;}.cls-17,.cls-4{fill:#dee6f5;}.cls-5{fill:#2b3379;}.cls-10,.cls-6,.cls-7{stroke-linecap:round;}.cls-10,.cls-13,.cls-6,.cls-7{stroke-linejoin:round;}.cls-10,.cls-13,.cls-14,.cls-7{fill:none;}.cls-8{opacity:0.15;}.cls-9{fill:#2b347a;}.cls-10{stroke:#fff;}.cls-11{opacity:0.05;}.cls-12{fill:#263238;}.cls-14{stroke:#2b3379;stroke-width:6px;}.cls-15,.cls-16{fill:#bdc9e7;}.cls-16,.cls-27,.cls-32{opacity:0.6;}.cls-17,.cls-26,.cls-39{opacity:0.3;}.cls-18{fill:#2d3588;}.cls-20,.cls-40{opacity:0.7;}.cls-21,.cls-34{opacity:0.4;}.cls-22{fill:#010101;}.cls-23{fill:#5274b8;}.cls-24,.cls-30,.cls-31,.cls-60,.cls-63,.cls-66,.cls-68,.cls-69,.cls-70{opacity:0.5;}.cls-25{opacity:0.9;}.cls-28{opacity:0.8;}.cls-29,.cls-38{opacity:0.2;}.cls-33{fill:#f58a7d;}.cls-35{fill:#f89750;}.cls-37{fill:#ce7a63;}.cls-41{fill:url(#linear-gradient);}.cls-42{fill:url(#linear-gradient-2);}.cls-43{fill:url(#linear-gradient-3);}.cls-44{fill:url(#linear-gradient-4);}.cls-45{fill:url(#linear-gradient-5);}.cls-46{fill:url(#linear-gradient-6);}.cls-47{opacity:0.58;}.cls-48{fill:url(#linear-gradient-7);}.cls-49{fill:url(#linear-gradient-8);}.cls-50{fill:url(#linear-gradient-9);}.cls-51{fill:url(#linear-gradient-10);}.cls-52{fill:url(#linear-gradient-11);}.cls-53{fill:url(#linear-gradient-12);}.cls-54{fill:url(#linear-gradient-13);}.cls-55{fill:url(#linear-gradient-14);}.cls-56{fill:url(#linear-gradient-15);}.cls-57{fill:url(#linear-gradient-16);}.cls-58{fill:url(#linear-gradient-17);}.cls-59{fill:url(#linear-gradient-18);}.cls-60{fill:#1b2540;}.cls-61{fill:#ebaf7f;}.cls-62{fill:#e48855;}.cls-63{fill:#871b1b;}.cls-64,.cls-69{fill:#c7762e;}.cls-65,.cls-66{fill:#f4ad49;}.cls-66,.cls-70{mix-blend-mode:screen;}.cls-67,.cls-68{fill:#e38b3b;}.cls-70{fill:#f47949;}.cls-71{fill:#911c1d;}.cls-72{fill:#5e2c15;}.cls-73{fill:#f48051;}</style><linearGradient id="linear-gradient" x1="172.5" y1="139.33" x2="175.85" y2="138.17" gradientUnits="userSpaceOnUse"><stop offset="0" stop-color="#f9baba"/><stop offset="1" stop-color="#f5928f"/></linearGradient><linearGradient id="linear-gradient-2" x1="-1046.4" y1="108.47" x2="-1051.38" y2="93.52" gradientTransform="translate(1290.1)" xlink:href="#linear-gradient"/><linearGradient id="linear-gradient-3" x1="229.66" y1="82.91" x2="247.57" y2="90.7" xlink:href="#linear-gradient"/><linearGradient id="linear-gradient-4" x1="228.55" y1="85.48" x2="246.46" y2="93.27" xlink:href="#linear-gradient"/><linearGradient id="linear-gradient-5" x1="1361.19" y1="264.06" x2="1367.46" y2="264.06" gradientTransform="matrix(-1, 0, 0, 1, 1622.81, 0)" xlink:href="#linear-gradient"/><linearGradient id="linear-gradient-6" x1="1321.33" y1="258.83" x2="1328.82" y2="258.83" gradientTransform="matrix(-1, 0, 0, 1, 1622.81, 0)" xlink:href="#linear-gradient"/><linearGradient id="linear-gradient-7" x1="272.02" y1="144.68" x2="255.05" y2="177.32" xlink:href="#linear-gradient"/><linearGradient id="linear-gradient-8" x1="-1173.14" y1="252.03" x2="-1175.93" y2="276.37" gradientTransform="translate(1290.1)" xlink:href="#linear-gradient"/><linearGradient id="linear-gradient-9" x1="-1037.68" y1="227.91" x2="-1040.46" y2="252.26" gradientTransform="translate(1160.57 -38.12) rotate(-3.61)" xlink:href="#linear-gradient"/><linearGradient id="linear-gradient-10" x1="122.27" y1="103.17" x2="141.68" y2="91.62" xlink:href="#linear-gradient"/><linearGradient id="linear-gradient-11" x1="143.44" y1="95.39" x2="132.11" y2="78.74" xlink:href="#linear-gradient"/><linearGradient id="linear-gradient-12" x1="137.94" y1="99.13" x2="126.62" y2="82.49" xlink:href="#linear-gradient"/><linearGradient id="linear-gradient-13" x1="187.97" y1="107.04" x2="147.21" y2="127.32" xlink:href="#linear-gradient"/><linearGradient id="linear-gradient-14" x1="187.37" y1="101.96" x2="173.43" y2="116.52" xlink:href="#linear-gradient"/><linearGradient id="linear-gradient-15" x1="188.16" y1="106.8" x2="147.41" y2="127.08" xlink:href="#linear-gradient"/><linearGradient id="linear-gradient-16" x1="205.19" y1="141.2" x2="86.92" y2="119.81" xlink:href="#linear-gradient"/><linearGradient id="linear-gradient-17" x1="147.24" y1="89.33" x2="95.52" y2="168.6" gradientUnits="userSpaceOnUse"><stop offset="0" stop-color="#e1483d"/><stop offset="1" stop-color="#e9625a"/></linearGradient><linearGradient id="linear-gradient-18" x1="146.53" y1="88.86" x2="94.81" y2="168.14" xlink:href="#linear-gradient-17"/></defs><title>Artboard 1 copy 3</title><g class="cls-1"><g id="Layer_4" data-name="Layer 4"><ellipse class="cls-2" cx="132.88" cy="274.72" rx="29" ry="3.58"/><ellipse class="cls-2" cx="276.84" cy="274.72" rx="39.22" ry="3.58"/><ellipse class="cls-2" cx="391.67" cy="272.61" rx="39.22" ry="3.58"/><ellipse class="cls-2" cx="576.29" cy="272.61" rx="39.22" ry="3.58"/><rect class="cls-3" x="246.85" y="3.66" width="247.34" height="181.72"/><rect class="cls-4" x="246.85" y="3.66" width="40.75" height="181.72"/><rect class="cls-5" x="246.85" y="3.66" width="247.34" height="14.92"/><path class="cls-6" d="M258.27,39a4.11,4.11,0,1,0-4.11,4.11A4.11,4.11,0,0,0,258.27,39Z"/><line class="cls-7" x1="261.69" y1="39.33" x2="281.89" y2="39.33"/><path class="cls-6" d="M258.27,57.81a4.11,4.11,0,1,0-4.11,4.11A4.11,4.11,0,0,0,258.27,57.81Z"/><line class="cls-7" x1="261.69" y1="58.15" x2="281.89" y2="58.15"/><path class="cls-6" d="M258.27,76.63a4.11,4.11,0,1,0-4.11,4.11A4.11,4.11,0,0,0,258.27,76.63Z"/><line class="cls-7" x1="261.69" y1="76.98" x2="281.89" y2="76.98"/><path class="cls-6" d="M258.27,95.46a4.11,4.11,0,1,0-4.11,4.11A4.11,4.11,0,0,0,258.27,95.46Z"/><line class="cls-7" x1="261.69" y1="95.8" x2="281.89" y2="95.8"/><path class="cls-6" d="M258.27,114.28a4.11,4.11,0,1,0-4.11,4.11A4.1,4.1,0,0,0,258.27,114.28Z"/><line class="cls-7" x1="261.69" y1="114.63" x2="281.89" y2="114.63"/><g class="cls-8"><rect class="cls-9" x="292.73" y="127.71" width="161.91" height="5.81"/><rect class="cls-9" x="292.73" y="137.96" width="161.91" height="5.81"/><rect class="cls-9" x="292.73" y="148.2" width="161.91" height="5.81"/><rect class="cls-9" x="292.73" y="158.45" width="161.91" height="5.81"/></g><rect class="cls-4" x="360.12" y="142.61" width="9.28" height="27.11"/><rect class="cls-4" x="349.8" y="131.42" width="9.28" height="38.31"/><rect class="cls-4" x="339.49" y="145.19" width="9.28" height="24.53"/><rect class="cls-4" x="329.17" y="159.83" width="9.28" height="9.9"/><rect class="cls-4" x="318.86" y="140.46" width="9.28" height="29.27"/><rect class="cls-4" x="308.54" y="146.48" width="9.28" height="23.24"/><rect class="cls-4" x="298.23" y="161.12" width="9.28" height="8.61"/><rect class="cls-4" x="381.75" y="142.61" width="9.28" height="27.11"/><rect class="cls-4" x="392.07" y="131.42" width="9.28" height="38.31"/><rect class="cls-4" x="402.38" y="145.19" width="9.28" height="24.53"/><rect class="cls-4" x="412.7" y="159.83" width="9.28" height="9.9"/><rect class="cls-4" x="423.01" y="140.46" width="9.28" height="29.27"/><rect class="cls-4" x="433.33" y="146.48" width="9.28" height="23.24"/><rect class="cls-4" x="443.65" y="161.12" width="9.28" height="8.61"/><line class="cls-7" x1="252.3" y1="140.96" x2="282.41" y2="140.96"/><line class="cls-7" x1="252.3" y1="146.36" x2="282.41" y2="146.36"/><line class="cls-7" x1="252.3" y1="151.77" x2="282.41" y2="151.77"/><line class="cls-7" x1="252.3" y1="157.17" x2="282.41" y2="157.17"/><line class="cls-7" x1="252.3" y1="162.58" x2="282.41" y2="162.58"/><line class="cls-7" x1="252.3" y1="167.98" x2="282.41" y2="167.98"/><line class="cls-10" x1="257.76" y1="8.42" x2="270.98" y2="8.42"/><line class="cls-10" x1="257.76" y1="12.01" x2="270.98" y2="12.01"/><line class="cls-10" x1="257.76" y1="15.6" x2="270.98" y2="15.6"/><rect class="cls-11" x="376.33" y="52.25" width="77.22" height="31.27"/><polygon class="cls-5" points="453.55 78.11 453.55 83.52 376.33 83.52 376.33 66.14 388.68 62.67 406.05 62.67 413.01 71.55 425.36 71.55 435.01 78.11 453.55 78.11"/><line class="cls-7" x1="430.38" y1="58.04" x2="448.91" y2="58.04"/><path class="cls-12" d="M435.18,70.22v1.59h-.86V70.22h-2.53v-.79L434.22,64h1v5.48h.63v.79Zm-2.59-.79h1.73V65.59Z"/><path class="cls-12" d="M437.35,67.15a1.26,1.26,0,0,1,1.17-.65c1,0,1.46.74,1.46,1.86V69.9c0,1.2-.57,2-1.77,2s-1.77-.79-1.77-2v-.53h.82V70c0,.71.3,1.14.92,1.14s.93-.43.93-1.14V68.43c0-.71-.3-1.14-.93-1.14a.85.85,0,0,0-.88.85v.18h-.82l.21-4.37h3.1v.78h-2.31Z"/><path class="cls-12" d="M443,65.17v2.48c0,.77-.36,1.27-1.12,1.27s-1.12-.5-1.12-1.27V65.17c0-.75.36-1.27,1.12-1.27S443,64.42,443,65.17Zm-1.68,0V67.7c0,.42.16.71.56.71s.56-.29.56-.71V65.14c0-.43-.17-.72-.56-.72S441.34,64.71,441.34,65.14ZM445.62,64l-3.1,7.86H442l3.1-7.86Zm1.26,4.15v2.47c0,.77-.34,1.27-1.12,1.27s-1.12-.5-1.12-1.27V68.1c0-.75.36-1.26,1.12-1.26S446.88,67.35,446.88,68.1Zm-1.68,0v2.55c0,.42.17.72.56.72s.56-.3.56-.72V68.07c0-.43-.17-.71-.56-.71S445.2,67.64,445.2,68.07Z"/><rect class="cls-4" x="340.28" y="56.76" width="5.08" height="5.08"/><line class="cls-13" x1="348.53" y1="59.3" x2="369.17" y2="59.3"/><rect class="cls-4" x="340.28" y="65.96" width="5.08" height="5.08"/><line class="cls-13" x1="348.53" y1="68.5" x2="369.17" y2="68.5"/><rect class="cls-4" x="340.28" y="75.17" width="5.08" height="5.08"/><line class="cls-13" x1="348.53" y1="77.71" x2="369.17" y2="77.71"/><path class="cls-14" d="M319,83.6a18.09,18.09,0,0,0,7-28.06"/><path class="cls-14" d="M296.76,76.82A18.13,18.13,0,0,0,319,83.6"/><path class="cls-14" d="M326,55.54a18.1,18.1,0,0,0-29.22,21.28"/><line class="cls-14" x1="304.27" y1="64.95" x2="320.11" y2="64.95"/><line class="cls-14" x1="304.27" y1="69.63" x2="320.11" y2="69.63"/><path class="cls-4" d="M483.35,88.44A11.21,11.21,0,0,0,463.08,95h22.41A10.69,10.69,0,0,0,483.35,88.44Z"/><path class="cls-4" d="M474.28,95l9.07-6.58A10.69,10.69,0,0,1,485.49,95Z"/><path class="cls-4" d="M474.28,95l3.47-10.66a10.73,10.73,0,0,1,5.6,4.08Z"/><path class="cls-4" d="M474.28,95l-3.46-10.66a10.82,10.82,0,0,1,6.93,0Z"/><path class="cls-4" d="M474.28,95l-9.06-6.58a10.73,10.73,0,0,1,5.6-4.08Z"/><path class="cls-4" d="M474.28,95h-11.2a10.69,10.69,0,0,1,2.14-6.58Z"/><path class="cls-4" d="M475.64,95a1.36,1.36,0,1,0-1.36,1.36A1.35,1.35,0,0,0,475.64,95Z"/><line class="cls-4" x1="474.28" y1="95.02" x2="478.89" y2="88.31"/><path class="cls-4" d="M483.35,110.87a11.21,11.21,0,0,0-20.27,6.59h22.41A10.74,10.74,0,0,0,483.35,110.87Z"/><path class="cls-4" d="M474.28,117.46l9.07-6.59a10.74,10.74,0,0,1,2.14,6.59Z"/><path class="cls-4" d="M474.28,117.46l3.47-10.66a10.77,10.77,0,0,1,5.6,4.07Z"/><path class="cls-4" d="M474.28,117.46l-3.46-10.66a10.82,10.82,0,0,1,6.93,0Z"/><path class="cls-4" d="M474.28,117.46l-9.06-6.59a10.77,10.77,0,0,1,5.6-4.07Z"/><path class="cls-4" d="M474.28,117.46h-11.2a10.74,10.74,0,0,1,2.14-6.59Z"/><path class="cls-4" d="M475.64,117.46a1.36,1.36,0,1,0-1.36,1.36A1.35,1.35,0,0,0,475.64,117.46Z"/><line class="cls-4" x1="474.28" y1="117.46" x2="469.78" y2="111.09"/><path class="cls-4" d="M465.22,133.31a11.21,11.21,0,0,1,20.27,6.59H463.08A10.72,10.72,0,0,1,465.22,133.31Z"/><path class="cls-4" d="M474.28,139.9l-9.06-6.59a10.72,10.72,0,0,0-2.14,6.59Z"/><path class="cls-4" d="M474.28,139.9l-3.46-10.66a10.77,10.77,0,0,0-5.6,4.07Z"/><path class="cls-4" d="M474.28,139.9l3.47-10.66a10.82,10.82,0,0,0-6.93,0Z"/><path class="cls-4" d="M474.28,139.9l9.07-6.59a10.77,10.77,0,0,0-5.6-4.07Z"/><path class="cls-4" d="M474.28,139.9h11.21a10.72,10.72,0,0,0-2.14-6.59Z"/><path class="cls-4" d="M472.93,139.9a1.36,1.36,0,1,1,1.35,1.36A1.36,1.36,0,0,1,472.93,139.9Z"/><line class="cls-4" x1="474.28" y1="139.9" x2="466.04" y2="136.59"/><path class="cls-4" d="M483.35,155.75a11.21,11.21,0,0,0-20.27,6.59h22.41A10.72,10.72,0,0,0,483.35,155.75Z"/><path class="cls-4" d="M474.28,162.34l9.07-6.59a10.72,10.72,0,0,1,2.14,6.59Z"/><path class="cls-4" d="M474.28,162.34l3.47-10.66a10.77,10.77,0,0,1,5.6,4.07Z"/><path class="cls-4" d="M474.28,162.34l-3.46-10.66a10.82,10.82,0,0,1,6.93,0Z"/><path class="cls-4" d="M474.28,162.34l-9.06-6.59a10.77,10.77,0,0,1,5.6-4.07Z"/><path class="cls-4" d="M474.28,162.34h-11.2a10.72,10.72,0,0,1,2.14-6.59Z"/><path class="cls-4" d="M475.64,162.34a1.36,1.36,0,1,0-1.36,1.36A1.36,1.36,0,0,0,475.64,162.34Z"/><line class="cls-4" x1="474.28" y1="162.34" x2="464.09" y2="162.32"/><rect class="cls-15" x="414.28" y="19.28" width="249.89" height="184.41" rx="3.88"/><rect class="cls-16" x="414.28" y="19.28" width="249.89" height="184.41" rx="3.88"/><path class="cls-17" d="M463,19.28H419A4.67,4.67,0,0,0,414.28,24V199a4.67,4.67,0,0,0,4.67,4.67h44Z"/><path class="cls-18" d="M659.49,19.28H419A4.67,4.67,0,0,0,414.28,24v12.2H664.17V24A4.67,4.67,0,0,0,659.49,19.28Z"/><path class="cls-19" d="M422.44,25.26a.82.82,0,0,1,0-1.63h6.44a.82.82,0,1,1,0,1.63Z"/><path class="cls-19" d="M422.44,28.53a.82.82,0,0,1-.81-.82.81.81,0,0,1,.81-.81h6.44a.82.82,0,0,1,.82.81.82.82,0,0,1-.82.82Z"/><path class="cls-19" d="M422.44,31.8a.82.82,0,0,1,0-1.64h6.44a.82.82,0,0,1,0,1.64Z"/><rect class="cls-20" x="471.57" y="47" width="21.06" height="58.36" rx="2.07"/><rect class="cls-21" x="497.9" y="47" width="21.06" height="58.36" rx="2.07"/><rect class="cls-20" x="524.23" y="47" width="21.06" height="58.36" rx="2.07"/><rect class="cls-21" x="550.56" y="47" width="21.06" height="58.36" rx="2.07"/><rect class="cls-20" x="576.89" y="47" width="21.06" height="58.36" rx="2.07"/><rect class="cls-21" x="603.22" y="47" width="21.06" height="58.36" rx="2.07"/><rect class="cls-20" x="629.55" y="47" width="21.06" height="58.36" rx="2.07"/><path class="cls-22" d="M526.51,141.15h-.75v1h-1v-1h-2.48v-.72l2.17-2.92h1.12l-2,2.77h1.24v-.86h1v.86h.75Z"/><path class="cls-22" d="M529.83,139.63a1.28,1.28,0,0,1,.46,1,1.43,1.43,0,0,1-.21.76,1.48,1.48,0,0,1-.64.56,2.42,2.42,0,0,1-1.06.2,3.83,3.83,0,0,1-1-.12,2.57,2.57,0,0,1-.8-.37l.42-.82a1.85,1.85,0,0,0,.61.31,2.38,2.38,0,0,0,.7.11,1,1,0,0,0,.63-.16.48.48,0,0,0,.23-.44.5.5,0,0,0-.24-.45,1.65,1.65,0,0,0-.83-.15H527l.24-2.59H530v.85h-1.92l-.07.88h.37A2.21,2.21,0,0,1,529.83,139.63Z"/><path class="cls-22" d="M530.9,139.65a1.5,1.5,0,0,1,0-1.85,1.09,1.09,0,0,1,.83-.35,1.06,1.06,0,0,1,.82.35,1.5,1.5,0,0,1,0,1.85,1.06,1.06,0,0,1-.82.35A1.09,1.09,0,0,1,530.9,139.65Zm1.18-.38a.9.9,0,0,0,.13-.54.91.91,0,0,0-.13-.55.41.41,0,0,0-.35-.19.42.42,0,0,0-.35.19,1,1,0,0,0-.13.55.94.94,0,0,0,.13.54.42.42,0,0,0,.35.19A.41.41,0,0,0,532.08,139.27Zm2.39-1.76h.79l-3.15,4.61h-.78Zm-.2,4.5a1,1,0,0,1-.41-.44,1.57,1.57,0,0,1-.14-.67,1.54,1.54,0,0,1,.14-.67,1,1,0,0,1,.41-.45,1.15,1.15,0,0,1,.59-.15,1.06,1.06,0,0,1,.82.34,1.5,1.5,0,0,1,0,1.85,1.15,1.15,0,0,1-1.41.19Zm.94-.57a1,1,0,0,0,.13-.54,1,1,0,0,0-.13-.55.42.42,0,0,0-.35-.18.4.4,0,0,0-.35.18.93.93,0,0,0-.14.55.89.89,0,0,0,.14.54.39.39,0,0,0,.35.19A.41.41,0,0,0,535.21,141.44Z"/><path class="cls-22" d="M598,139.4a1.41,1.41,0,0,1,.57.51,1.34,1.34,0,0,1,.21.75,1.38,1.38,0,0,1-.23.81,1.52,1.52,0,0,1-.63.54,2.1,2.1,0,0,1-.88.18,2,2,0,0,1-1.52-.59,2.42,2.42,0,0,1-.54-1.69,2.79,2.79,0,0,1,.3-1.34,1.93,1.93,0,0,1,.82-.85,2.54,2.54,0,0,1,1.23-.29,3.36,3.36,0,0,1,.71.08,2.12,2.12,0,0,1,.57.23l-.39.79a1.49,1.49,0,0,0-.87-.23,1.21,1.21,0,0,0-.92.34,1.44,1.44,0,0,0-.37,1,1.54,1.54,0,0,1,1.14-.4A1.91,1.91,0,0,1,598,139.4Zm-.46,1.81a.63.63,0,0,0,.21-.5.64.64,0,0,0-.21-.5.84.84,0,0,0-.57-.19.85.85,0,0,0-.58.2.61.61,0,0,0-.22.49.62.62,0,0,0,.22.5.89.89,0,0,0,.59.19A.81.81,0,0,0,597.49,141.21Z"/><path class="cls-22" d="M602.14,139.63a1.28,1.28,0,0,1,.46,1,1.43,1.43,0,0,1-.21.76,1.48,1.48,0,0,1-.64.56,2.42,2.42,0,0,1-1.06.2,3.83,3.83,0,0,1-1-.12,2.57,2.57,0,0,1-.8-.37l.42-.82a1.85,1.85,0,0,0,.61.31,2.38,2.38,0,0,0,.7.11,1,1,0,0,0,.63-.16.48.48,0,0,0,.23-.44.5.5,0,0,0-.24-.45,1.65,1.65,0,0,0-.83-.15h-1.18l.24-2.59h2.81v.85H600.4l-.07.88h.37A2.21,2.21,0,0,1,602.14,139.63Z"/><path class="cls-22" d="M603.21,139.65a1.5,1.5,0,0,1,0-1.85,1.09,1.09,0,0,1,.83-.35,1.06,1.06,0,0,1,.82.35,1.5,1.5,0,0,1,0,1.85,1.06,1.06,0,0,1-.82.35A1.09,1.09,0,0,1,603.21,139.65Zm1.18-.38a.9.9,0,0,0,.13-.54.91.91,0,0,0-.13-.55.42.42,0,0,0-.7,0,1,1,0,0,0-.13.55.94.94,0,0,0,.13.54.42.42,0,0,0,.7,0Zm2.39-1.76h.79l-3.15,4.61h-.78Zm-.2,4.5a1,1,0,0,1-.41-.44,1.44,1.44,0,0,1-.14-.67,1.41,1.41,0,0,1,.14-.67,1,1,0,0,1,.41-.45,1.14,1.14,0,0,1,.58-.15,1.07,1.07,0,0,1,.83.34,1.5,1.5,0,0,1,0,1.85,1.08,1.08,0,0,1-.83.35A1.06,1.06,0,0,1,606.58,142Zm.94-.57a1,1,0,0,0,.12-.54,1,1,0,0,0-.12-.55.43.43,0,0,0-.36-.18.39.39,0,0,0-.34.18.93.93,0,0,0-.14.55.89.89,0,0,0,.14.54.38.38,0,0,0,.34.19A.41.41,0,0,0,607.52,141.44Z"/><path class="cls-22" d="M480.13,112.66v4.61h-1.06v-3.76h-.93v-.85Z"/><path class="cls-22" d="M481.22,112.66h2.1a2.79,2.79,0,0,1,1.32.29,2.07,2.07,0,0,1,.9.8,2.3,2.3,0,0,1,.32,1.21,2.28,2.28,0,0,1-.32,1.21,2.09,2.09,0,0,1-.9.81,2.92,2.92,0,0,1-1.32.29h-2.1Zm2,3.73a1.59,1.59,0,0,0,1.11-.38,1.39,1.39,0,0,0,.41-1.05,1.37,1.37,0,0,0-.41-1,1.55,1.55,0,0,0-1.11-.39h-1v2.86Z"/><path class="cls-22" d="M505.35,112.66v4.61h-1.06v-3.76h-.93v-.85Z"/><path class="cls-22" d="M513.41,112.66l-1.51,4.61h-1.14l-1-3.12-1,3.12h-1.14L506,112.66h1.11l1,3.24,1.09-3.24h1l1.06,3.26,1.07-3.26Z"/><path class="cls-22" d="M532.37,112.66v4.61H531.3v-3.76h-.92v-.85Z"/><path class="cls-22" d="M537.65,117.27V114.5l-1.36,2.28h-.48l-1.35-2.22v2.71h-1v-4.61h.88l1.73,2.86,1.69-2.86h.88v4.61Z"/><rect class="cls-23" x="552.54" y="109.82" width="17.11" height="10.53" rx="3.55"/><path class="cls-19" d="M559.34,115a1.2,1.2,0,0,1,.32.87,1.38,1.38,0,0,1-.21.74,1.44,1.44,0,0,1-.64.54,2.41,2.41,0,0,1-1.06.21,3.82,3.82,0,0,1-1-.13,2.47,2.47,0,0,1-.8-.37l.41-.81a2,2,0,0,0,.61.3,2.45,2.45,0,0,0,.71.11,1.13,1.13,0,0,0,.63-.15.52.52,0,0,0,.23-.44c0-.38-.29-.57-.86-.57h-.49v-.7l1-1.08h-2v-.85h3.22v.69l-1,1.18A1.53,1.53,0,0,1,559.34,115Z"/><path class="cls-19" d="M564.64,117.27V114.5l-1.35,2.28h-.48l-1.35-2.22v2.71h-1v-4.61h.88l1.72,2.86,1.7-2.86h.88v4.61Z"/><path class="cls-22" d="M585.46,114.55a1.5,1.5,0,0,1,.58.51,1.37,1.37,0,0,1,.21.75,1.45,1.45,0,0,1-.23.81,1.65,1.65,0,0,1-.63.54,2.15,2.15,0,0,1-.89.19,1.94,1.94,0,0,1-1.51-.6,2.37,2.37,0,0,1-.55-1.69,2.79,2.79,0,0,1,.3-1.34,2,2,0,0,1,.82-.85,2.6,2.6,0,0,1,1.23-.29,3.29,3.29,0,0,1,.71.08,1.88,1.88,0,0,1,.57.24l-.39.78a1.55,1.55,0,0,0-.86-.23,1.25,1.25,0,0,0-.93.34,1.44,1.44,0,0,0-.37,1,1.54,1.54,0,0,1,1.14-.4A1.91,1.91,0,0,1,585.46,114.55Zm-.46,1.82a.65.65,0,0,0,.21-.51.64.64,0,0,0-.21-.5.93.93,0,0,0-1.14,0,.62.62,0,0,0-.23.49.65.65,0,0,0,.22.5.85.85,0,0,0,.59.19A.84.84,0,0,0,585,116.37Z"/><path class="cls-22" d="M591.12,117.27V114.5l-1.36,2.28h-.48l-1.35-2.22v2.71h-1v-4.61h.89l1.72,2.86,1.7-2.86h.87l0,4.61Z"/><path class="cls-22" d="M612.27,112.66v4.61h-1.06v-3.76h-.92v-.85Z"/><path class="cls-22" d="M615.58,115.63v1.64h-1.07v-1.65l-1.78-3h1.13l1.23,2,1.23-2h1Z"/><path class="cls-22" d="M639.28,115a1.2,1.2,0,0,1,.32.87,1.38,1.38,0,0,1-.21.74,1.44,1.44,0,0,1-.64.54,2.41,2.41,0,0,1-1.06.21,3.82,3.82,0,0,1-1-.13,2.47,2.47,0,0,1-.8-.37l.41-.81a2,2,0,0,0,.61.3,2.45,2.45,0,0,0,.71.11,1.15,1.15,0,0,0,.63-.15.52.52,0,0,0,.23-.44c0-.38-.29-.57-.86-.57h-.49v-.7l1-1.08h-2v-.85h3.22v.69l-1,1.18A1.55,1.55,0,0,1,639.28,115Z"/><path class="cls-22" d="M642.53,115.63v1.64h-1.06v-1.65l-1.79-3h1.13l1.23,2,1.24-2h1Z"/><circle class="cls-23" cx="438.63" cy="51.05" r="7.16" transform="translate(288.17 466.22) rotate(-76.72)"/><rect class="cls-24" x="419.88" y="63.27" width="37.51" height="10.18" rx="1.54"/><polygon class="cls-23" points="424.74 69.88 423.25 70.66 423.54 69 422.32 67.82 424 67.58 424.74 66.06 425.49 67.58 427.16 67.82 425.95 69 426.24 70.66 424.74 69.88"/><polygon class="cls-23" points="431.69 69.88 430.19 70.66 430.48 69 429.27 67.82 430.94 67.58 431.69 66.06 432.44 67.58 434.11 67.82 432.9 69 433.18 70.66 431.69 69.88"/><polygon class="cls-23" points="438.63 69.88 437.14 70.66 437.43 69 436.22 67.82 437.89 67.58 438.63 66.06 439.38 67.58 441.05 67.82 439.84 69 440.13 70.66 438.63 69.88"/><polygon class="cls-25" points="445.58 69.88 444.08 70.66 444.37 69 443.16 67.82 444.83 67.58 445.58 66.06 446.33 67.58 448 67.82 446.79 69 447.07 70.66 445.58 69.88"/><polygon class="cls-25" points="452.52 69.88 451.03 70.66 451.31 69 450.11 67.82 451.78 67.58 452.52 66.06 453.27 67.58 454.94 67.82 453.73 69 454.02 70.66 452.52 69.88"/><circle class="cls-12" cx="438.63" cy="90.47" r="7.16" transform="translate(249.8 496.59) rotate(-76.72)"/><circle class="cls-20" cx="438.63" cy="90.47" r="7.16" transform="translate(249.8 496.59) rotate(-76.72)"/><rect class="cls-24" x="419.88" y="102.69" width="37.51" height="10.18" rx="1.54"/><polygon class="cls-23" points="424.74 109.3 423.25 110.08 423.54 108.42 422.32 107.24 424 106.99 424.74 105.48 425.49 106.99 427.16 107.24 425.95 108.42 426.24 110.08 424.74 109.3"/><polygon class="cls-23" points="431.69 109.3 430.19 110.08 430.48 108.42 429.27 107.24 430.94 106.99 431.69 105.48 432.44 106.99 434.11 107.24 432.9 108.42 433.18 110.08 431.69 109.3"/><polygon class="cls-25" points="438.63 109.3 437.14 110.08 437.43 108.42 436.22 107.24 437.89 106.99 438.63 105.48 439.38 106.99 441.05 107.24 439.84 108.42 440.13 110.08 438.63 109.3"/><polygon class="cls-25" points="445.58 109.3 444.08 110.08 444.37 108.42 443.16 107.24 444.83 106.99 445.58 105.48 446.33 106.99 448 107.24 446.79 108.42 447.07 110.08 445.58 109.3"/><polygon class="cls-25" points="452.52 109.3 451.03 110.08 451.31 108.42 450.11 107.24 451.78 106.99 452.52 105.48 453.27 106.99 454.94 107.24 453.73 108.42 454.02 110.08 452.52 109.3"/><circle class="cls-23" cx="438.63" cy="129.89" r="7.16" transform="translate(36.63 348.21) rotate(-45)"/><circle class="cls-26" cx="438.63" cy="129.89" r="7.16" transform="translate(36.63 348.21) rotate(-45)"/><rect class="cls-24" x="419.88" y="142.11" width="37.51" height="10.18" rx="1.54"/><polygon class="cls-23" points="424.74 148.71 423.25 149.5 423.54 147.84 422.32 146.66 424 146.41 424.74 144.9 425.49 146.41 427.16 146.66 425.95 147.84 426.24 149.5 424.74 148.71"/><polygon class="cls-23" points="431.69 148.71 430.19 149.5 430.48 147.84 429.27 146.66 430.94 146.41 431.69 144.9 432.44 146.41 434.11 146.66 432.9 147.84 433.18 149.5 431.69 148.71"/><polygon class="cls-23" points="438.63 148.71 437.14 149.5 437.43 147.84 436.22 146.66 437.89 146.41 438.63 144.9 439.38 146.41 441.05 146.66 439.84 147.84 440.13 149.5 438.63 148.71"/><polygon class="cls-23" points="445.58 148.71 444.08 149.5 444.37 147.84 443.16 146.66 444.83 146.41 445.58 144.9 446.33 146.41 448 146.66 446.79 147.84 447.07 149.5 445.58 148.71"/><polygon class="cls-25" points="452.52 148.71 451.03 149.5 451.31 147.84 450.11 146.66 451.78 146.41 452.52 144.9 453.27 146.41 454.94 146.66 453.73 147.84 454.02 149.5 452.52 148.71"/><circle class="cls-12" cx="438.63" cy="169.31" r="7.16" transform="translate(8.75 359.75) rotate(-45)"/><circle class="cls-24" cx="438.63" cy="169.31" r="7.16" transform="translate(8.75 359.75) rotate(-45)"/><rect class="cls-24" x="419.88" y="181.53" width="37.51" height="10.18" rx="1.54"/><polygon class="cls-23" points="424.74 188.13 423.25 188.92 423.54 187.25 422.32 186.08 424 185.83 424.74 184.32 425.49 185.83 427.16 186.08 425.95 187.25 426.24 188.92 424.74 188.13"/><polygon class="cls-23" points="431.69 188.13 430.19 188.92 430.48 187.25 429.27 186.08 430.94 185.83 431.69 184.32 432.44 185.83 434.11 186.08 432.9 187.25 433.18 188.92 431.69 188.13"/><polygon class="cls-25" points="438.63 188.13 437.14 188.92 437.43 187.25 436.22 186.08 437.89 185.83 438.63 184.32 439.38 185.83 441.05 186.08 439.84 187.25 440.13 188.92 438.63 188.13"/><polygon class="cls-23" points="438.63 188.13 437.14 188.92 437.43 187.25 436.22 186.08 437.89 185.83 438.63 184.32 438.63 188.13"/><polygon class="cls-25" points="445.58 188.13 444.08 188.92 444.37 187.25 443.16 186.08 444.83 185.83 445.58 184.32 446.33 185.83 448 186.08 446.79 187.25 447.07 188.92 445.58 188.13"/><polygon class="cls-25" points="452.52 188.13 451.03 188.92 451.31 187.25 450.11 186.08 451.78 185.83 452.52 184.32 453.27 185.83 454.94 186.08 453.73 187.25 454.02 188.92 452.52 188.13"/><rect class="cls-23" x="471.57" y="175.73" width="7.67" height="14.51"/><rect class="cls-23" x="490.08" y="170.18" width="7.67" height="20.05"/><rect class="cls-23" x="508.59" y="160" width="7.67" height="30.24"/><rect class="cls-12" x="480.83" y="167.39" width="7.67" height="22.85"/><rect class="cls-12" x="499.34" y="165.09" width="7.67" height="25.15"/><rect class="cls-12" x="517.84" y="165.68" width="7.67" height="24.55"/><g class="cls-27"><rect class="cls-19" x="480.83" y="167.39" width="7.67" height="22.85"/><rect class="cls-19" x="499.34" y="165.09" width="7.67" height="25.15"/><rect class="cls-19" x="517.84" y="165.68" width="7.67" height="24.55"/></g><rect class="cls-23" x="527.1" y="157.09" width="7.67" height="33.14"/><polygon class="cls-23" points="608.49 190.24 545.3 190.24 549.58 175.72 558.38 167.39 567.64 180.21 576.89 165.09 586.15 175.12 595.4 165.68 604.65 157.09 608.49 157.09 608.49 190.24"/><polygon class="cls-28" points="608.49 190.24 545.3 190.24 549.58 180.55 558.38 173.42 567.64 180.21 576.89 172.32 586.15 175.12 595.4 172.92 604.65 169.14 608.49 157.09 608.49 190.24"/><path class="cls-23" d="M634.77,142.44h15.4a15.4,15.4,0,0,0-30.8,0h15.4Z"/><path class="cls-24" d="M634.77,142.44h15.4a15.4,15.4,0,0,0-30.8,0h15.4Z"/><path class="cls-20" d="M645.66,131.55a15.4,15.4,0,0,0-26.29,10.89h15.4Z"/><path class="cls-29" d="M623.88,131.53l10.89,10.89V127A15.35,15.35,0,0,0,623.88,131.53Z"/><path class="cls-23" d="M623.88,131.53l10.89,10.89V127A15.35,15.35,0,0,0,623.88,131.53Z"/><path class="cls-24" d="M623.88,131.53l10.89,10.89V127A15.35,15.35,0,0,0,623.88,131.53Z"/><path d="M643.27,135.06,642.16,134l-7,7a1.5,1.5,0,0,0-.42-.09,1.61,1.61,0,1,0,1.61,1.61,1.86,1.86,0,0,0-.08-.41Z"/><path class="cls-23" d="M634.77,166.65h15.4a15.4,15.4,0,1,0-30.8,0h15.4Z"/><path class="cls-24" d="M634.77,166.65h15.4a15.4,15.4,0,1,0-30.8,0h15.4Z"/><path class="cls-20" d="M645.66,155.76a15.4,15.4,0,0,0-26.29,10.89h15.4Z"/><path class="cls-23" d="M623.88,155.74l10.89,10.89v-15.4A15.35,15.35,0,0,0,623.88,155.74Z"/><path class="cls-24" d="M623.88,155.74l10.89,10.89v-15.4A15.35,15.35,0,0,0,623.88,155.74Z"/><path d="M635.55,165.25V156.3H634v8.95a1.59,1.59,0,0,0-.83,1.38,1.61,1.61,0,0,0,3.22,0A1.59,1.59,0,0,0,635.55,165.25Z"/><path class="cls-23" d="M634.77,190.86h15.4a15.4,15.4,0,1,0-30.8,0h15.4Z"/><path class="cls-24" d="M634.77,190.86h15.4a15.4,15.4,0,1,0-30.8,0h15.4Z"/><path class="cls-20" d="M645.66,180a15.4,15.4,0,0,0-26.29,10.89h15.4Z"/><path class="cls-23" d="M623.88,180l10.89,10.89V175.43A15.36,15.36,0,0,0,623.88,180Z"/><path class="cls-24" d="M623.88,180l10.89,10.89V175.43A15.36,15.36,0,0,0,623.88,180Z"/><path d="M643.27,183.47l-1.11-1.11-7,6.95a2,2,0,0,0-.42-.08,1.61,1.61,0,1,0,1.61,1.61,2,2,0,0,0-.08-.42Z"/><path class="cls-12" d="M547.13,139.55a1.24,1.24,0,0,1,0-2.48h38.46a1.24,1.24,0,0,1,0,2.48Z"/><path class="cls-12" d="M547.13,148.52a1.25,1.25,0,0,1,0-2.49h31a1.25,1.25,0,1,1,0,2.49Z"/><path class="cls-12" d="M547.13,144a1.24,1.24,0,0,1,0-2.48h27.8a1.24,1.24,0,1,1,0,2.48Z"/><g class="cls-30"><path class="cls-19" d="M547.13,139.55a1.24,1.24,0,0,1,0-2.48h38.46a1.24,1.24,0,0,1,0,2.48Z"/><path class="cls-19" d="M547.13,148.52a1.25,1.25,0,0,1,0-2.49h31a1.25,1.25,0,1,1,0,2.49Z"/><path class="cls-19" d="M547.13,144a1.24,1.24,0,0,1,0-2.48h27.8a1.24,1.24,0,1,1,0,2.48Z"/></g><path class="cls-12" d="M472.82,139.55a1.24,1.24,0,1,1,0-2.48h38.45a1.24,1.24,0,1,1,0,2.48Z"/><path class="cls-12" d="M472.82,148.52a1.25,1.25,0,1,1,0-2.49h22.52a1.25,1.25,0,0,1,0,2.49Z"/><path class="cls-12" d="M472.82,144a1.24,1.24,0,1,1,0-2.48h32.61a1.24,1.24,0,1,1,0,2.48Z"/><g class="cls-30"><path class="cls-19" d="M472.82,139.55a1.24,1.24,0,1,1,0-2.48h38.45a1.24,1.24,0,1,1,0,2.48Z"/><path class="cls-19" d="M472.82,148.52a1.25,1.25,0,1,1,0-2.49h22.52a1.25,1.25,0,0,1,0,2.49Z"/><path class="cls-19" d="M472.82,144a1.24,1.24,0,1,1,0-2.48h32.61a1.24,1.24,0,1,1,0,2.48Z"/></g><path class="cls-23" d="M563.68,122.33h-13.9a1.37,1.37,0,0,1-1.35-1.24l-1.81-20.7a1.12,1.12,0,0,1,1.13-1.24h13.9a1.39,1.39,0,0,1,1.36,1.24l1.81,20.7A1.12,1.12,0,0,1,563.68,122.33Z"/><path class="cls-23" d="M564.48,122.33h-13.9a1.37,1.37,0,0,1-1.35-1.24l-1.81-20.7a1.12,1.12,0,0,1,1.13-1.24h13.9a1.39,1.39,0,0,1,1.36,1.24l1.81,20.7A1.12,1.12,0,0,1,564.48,122.33Z"/><path class="cls-31" d="M564.48,122.33h-13.9a1.37,1.37,0,0,1-1.35-1.24l-1.81-20.7a1.12,1.12,0,0,1,1.13-1.24h13.9a1.39,1.39,0,0,1,1.36,1.24l1.81,20.7A1.12,1.12,0,0,1,564.48,122.33Z"/><path class="cls-32" d="M562.52,100h-13.9a.39.39,0,0,0-.4.44l1.81,20.7a.49.49,0,0,0,.48.44h13.9a.4.4,0,0,0,.41-.44L563,100.39A.51.51,0,0,0,562.52,100Z"/><path class="cls-26" d="M564.82,121.09,563,100.67,550.2,121.41a.45.45,0,0,0,.31.12h13.9A.4.4,0,0,0,564.82,121.09Z"/><path class="cls-25" d="M560.33,110.74h-7.19a.93.93,0,0,1-.91-.83l-.37-4.25a.75.75,0,0,1,.76-.83h7.2a.92.92,0,0,1,.9.83l.37,4.25A.75.75,0,0,1,560.33,110.74Z"/><path class="cls-25" d="M561,118.14h-7.2a.93.93,0,0,1-.9-.83l-.37-4.25a.76.76,0,0,1,.75-.84h7.2a.94.94,0,0,1,.91.84l.37,4.25A.75.75,0,0,1,561,118.14Z"/><path class="cls-12" d="M553.26,106.54a.29.29,0,0,1-.28-.26.23.23,0,0,1,.23-.25H559a.28.28,0,0,1,.28.25.23.23,0,0,1-.23.26Z"/><path class="cls-12" d="M553.42,108.36a.28.28,0,0,1-.28-.25.23.23,0,0,1,.23-.25h4.8a.28.28,0,0,1,.28.25.23.23,0,0,1-.23.25Z"/><path class="cls-12" d="M553.34,107.45a.28.28,0,0,1-.28-.25.23.23,0,0,1,.23-.26h3.82a.3.3,0,0,1,.28.26.23.23,0,0,1-.23.25Z"/><g class="cls-30"><path class="cls-19" d="M553.26,106.54a.29.29,0,0,1-.28-.26.23.23,0,0,1,.23-.25H559a.28.28,0,0,1,.28.25.23.23,0,0,1-.23.26Z"/><path class="cls-19" d="M553.42,108.36a.28.28,0,0,1-.28-.25.23.23,0,0,1,.23-.25h4.8a.28.28,0,0,1,.28.25.23.23,0,0,1-.23.25Z"/><path class="cls-19" d="M553.34,107.45a.28.28,0,0,1-.28-.25.23.23,0,0,1,.23-.26h3.82a.3.3,0,0,1,.28.26.23.23,0,0,1-.23.25Z"/></g><path class="cls-12" d="M553.91,114a.28.28,0,0,1-.27-.25.23.23,0,0,1,.23-.26h5.78a.3.3,0,0,1,.28.26.23.23,0,0,1-.23.25Z"/><path class="cls-12" d="M554,115a.27.27,0,0,1-.27-.25.23.23,0,0,1,.23-.26h3.82a.28.28,0,0,1,.27.26.22.22,0,0,1-.23.25Z"/><g class="cls-30"><path class="cls-19" d="M553.91,114a.28.28,0,0,1-.27-.25.23.23,0,0,1,.23-.26h5.78a.3.3,0,0,1,.28.26.23.23,0,0,1-.23.25Z"/><path class="cls-19" d="M554,115a.27.27,0,0,1-.27-.25.23.23,0,0,1,.23-.26h3.82a.28.28,0,0,1,.27.26.22.22,0,0,1-.23.25Z"/></g><path class="cls-33" d="M591.92,91.68c-2.37,5.59-3.25,8-7.17,9.92-5.47,1.43-12.26-1.25-11.61-7.44.59-5.57,4.35-13.76,10.77-14.09a8.29,8.29,0,0,1,8,11.61Z"/><path class="cls-29" d="M578.89,99s-4.06.82-5.67-2.73c.55,2.85,2.91,4.67,5.77,5.38l1-.68-.53-1.45Z"/><path class="cls-33" d="M586.28,108.25s-3.51-1.72-1-8.42c0,0-2.8-2.78-5.72-1.6s-.47,7.35-3.9,8.3C575.68,106.53,577.47,109,586.28,108.25Z"/><path class="cls-23" d="M574,106.81s2.1-3.27,7.75-2.62,4.53,4.06,4.53,4.06Z"/><path class="cls-26" d="M574,106.81s2.1-3.27,7.75-2.62,4.53,4.06,4.53,4.06Z"/><path class="cls-12" d="M578.55,90.16a9.23,9.23,0,0,1,1.64-4.62c1.62-2.4.7-4,.79-5.48s7.89-3,10.89,2.15c0,0,5.39,4.66,1.59,10.26s-5.33,9.87-9.92,9.16S581.55,93.32,578.55,90.16Z"/><path class="cls-34" d="M591.87,82.21A7.39,7.39,0,0,0,586,78.66c-1.19,2.66,2,5.6,2,5.6s-4.62,1.14-3.88,4.93S590.15,91,590.15,91s-3.4,3.29-.91,5.24a1.76,1.76,0,0,0,1.55.4c.8-1.25,1.65-2.65,2.67-4.15C597.26,86.87,591.87,82.21,591.87,82.21Z"/><path class="cls-23" d="M591.87,82.21a7.13,7.13,0,0,0-1.2-1.52,6.53,6.53,0,0,0-3.56,5.81c0,5.38,4.77,6.4,6,6.5l.35-.53C597.26,86.87,591.87,82.21,591.87,82.21Z"/><path class="cls-33" d="M578.94,88.4a4.64,4.64,0,0,0-1.89,3c-.26,1.62,1.25,2.26,2.68,1.66s3-2,2.59-3.6A2.11,2.11,0,0,0,578.94,88.4Z"/><path class="cls-12" d="M589.87,84.69s-4.14-4.61-.67-7.28c2.8-2.16,4.95,3.3,4.95,3.3s-.45-6.1,3.84-5.4,1.7,6,1.7,6,3.8-2.4,5.4.2-3.06,4.3-3.06,4.3,5.26,3.1,2.76,5.25-4.9-.42-4.9-.42,1.5,4.16-1.3,4.81c-2.53.6-3.29-3.25-3.29-3.25s-1.9,4.6-4.2,2.8.1-4.84.1-4.84S587,92,586.28,88.5,589.87,84.69,589.87,84.69Z"/><path class="cls-33" d="M597.1,121.45s7.6,16.34,3.94,17.82-14.83,4-14.83,4l-5.38,1.94-3.12-2,.79-5.25,7.87,1.72,9.44-4.22-4.46-9.93Z"/><path class="cls-18" d="M593.47,112.68a.53.53,0,0,1,.87.15c1.74,4,9.93,23.42,7.65,26.24-1.7,2.1-9.93,3.2-9.93,3.2l-1.75-4.7,5-2.3-5.61-12.79S589.09,117.59,593.47,112.68Z"/><path class="cls-29" d="M589.69,122.48l3,6.82c2.48-14.74.79-16.62.79-16.62C589.09,117.59,589.69,122.48,589.69,122.48Z"/><polygon class="cls-33" points="590.85 252.63 595.14 267.2 599.49 266.95 598.57 251.13 590.85 252.63"/><path class="cls-35" d="M568.29,144.72s-5.28,10.63-.2,30.19,25.43,87.67,25.43,87.67l5.73-.68s.36-24.45-7.7-44.18c0,0-3.87-33.53-2-41.42,1.32-5.51,2.12-10.11-.16-18.46a57.58,57.58,0,0,0-3.67-10.39c-1.49-3-1-4.12-1-4.12Z"/><path class="cls-31" d="M593.52,262.58l5.73-.68s0-.95,0-2.6l-6.43.87C593.26,261.72,593.52,262.58,593.52,262.58Z"/><path class="cls-34" d="M575.06,199.83c7.36-20.43,5.33-35.26,5.33-35.26l-4.59-.6-3.6,6.4-2.51,10.48C571.11,186,573,192.62,575.06,199.83Z"/><path class="cls-36" d="M595,266.79l5.17-.73a.49.49,0,0,1,.51.32l2.47,4.73a.81.81,0,0,1-.48,1l-.17,0c-2.16.22-4.09.34-6.76.66-3.17.39-2.32.67-6,1.17-2.24.3-3-2.19-2-2.43,4.28-1.08,4.57-2.44,6.06-4.2A1.87,1.87,0,0,1,595,266.79Z"/><polygon class="cls-12" points="592.26 261.52 600.2 260.53 600.08 262.89 593.08 263.76 592.26 261.52"/><polygon class="cls-33" points="568.89 253.62 570.76 268.14 575.16 268.14 576.29 253.88 568.89 253.62"/><path class="cls-35" d="M561.3,143.09a13.74,13.74,0,0,1-1.06,3.81A51.54,51.54,0,0,0,556.93,173C559.26,193,570,263.31,570,263.31h5.78s4-23.89-.71-44.92c0,0-1.66-29.62.81-37.34,1.71-5.38,6.57-10.58,5.33-21.94s-4.26-15.25-4.26-15.25Z"/><path class="cls-31" d="M569.6,260.7l.39,2.61h5.78s.16-.95.37-2.61Z"/><path class="cls-36" d="M570.67,267.68l5.14.11a.48.48,0,0,1,.46.39l1,4.85a.79.79,0,0,1-.61.94.52.52,0,0,1-.17,0c-2.14-.08-4.05-.23-6.72-.27-3.14-.06-2.35.33-6,.32-2.23,0-2.6-2.56-1.65-2.66,4.34-.47,5.61-1.77,7.31-3.29A2,2,0,0,1,570.67,267.68Z"/><polygon class="cls-12" points="568.89 262.08 576.9 262.08 576.46 264.41 569.39 264.41 568.89 262.08"/><path class="cls-18" d="M589.59,153.16c-8.19-11.29,6.1-36.38,4.43-41.07s-27.71-12.5-31.13.8-1.6,22.4-2.12,28.18c-.76,8.49-4.25,11.89-4.25,11.89S574.6,159.76,589.59,153.16Z"/><path class="cls-29" d="M561.08,123.22a91.05,91.05,0,0,0-.27,11.72c9.68-11.23,7.54-21.85,7.54-21.85l-.79.5-3.5,2.89S562.67,119.46,561.08,123.22Z"/><path class="cls-33" d="M546,121.54s2.71,14.15,5.8,16.6,13.79-15,13.79-15l-5.28-3.17L553,129.8l-4.33-10.14.86-5.42-1.41-3.31A1.16,1.16,0,0,0,546,111l-1.6,3.54a3.11,3.11,0,0,0-.09,2.34Z"/><path class="cls-18" d="M553,128.9l-2.53-6.13-3.38,5s1.68,11.94,6,10.82c4.1-1.06,13.38-15,15.39-20.4s-.71-10.63-.71-10.63-3.29-.85-7.52,9.07C556.55,125.15,553,128.9,553,128.9Z"/><path class="cls-35" d="M373.94,102.71a1.91,1.91,0,0,0-2.88.55c-3.25,5.85-12.57,23.52-9.6,28.44,3.58,5.92,20.55,5.44,20.55,5.44l.82-5-10.89-5.64s3.36-6.7,4.38-9C377.89,114,380.23,108,373.94,102.71Z"/><path class="cls-34" d="M371.94,126.48s3.36-6.7,4.38-9c1.13-2.53,2.67-6.35,1.06-10.28l-2.78-3-2.66.85s-5.4,26,0,31.36c1.86.29,3.69.46,5.27.55,1.91-1.1,3.29-3.49,4.21-5.64Z"/><path class="cls-37" d="M371.85,83.82c2.7,6.38,3.71,9.15,8.19,11.33,6.23,1.63,14-1.43,13.24-8.49-.67-6.36-5-15.7-12.29-16.07a9.44,9.44,0,0,0-9.92,9A9.33,9.33,0,0,0,371.85,83.82Z"/><path class="cls-29" d="M386.72,92.15s4.63.94,6.47-3.11c-.63,3.25-3.33,5.33-6.58,6.14l-1.12-.78.6-1.65Z"/><path class="cls-37" d="M377.73,104.09s4.48-2.19,1.25-10.73c0,0,3.57-3.54,7.29-2s.59,9.37,5,10.58C391.24,101.9,389,105.06,377.73,104.09Z"/><path class="cls-12" d="M378.58,99.79s-.81-2.9,4.16-4.12,9.09.28,9.76,2.45S378.58,99.79,378.58,99.79Z"/><path class="cls-38" d="M378.58,99.79s-.81-2.9,4.16-4.12,9.09.28,9.76,2.45S378.58,99.79,378.58,99.79Z"/><path class="cls-12" d="M388.61,82.26a1.81,1.81,0,0,0,0-2.86c-1.63-1.49-4-2.77-3.31-4.83s-2.49-3.49-2.49-3.49,3.12-2,1.29-3.67-2.67,1.42-7.07,3.16c-5.07,2-10.74,6.83-7.27,13.15s6.52,11.62,10.67,10.6,6.11-9,6.11-9Z"/><path class="cls-37" d="M387.47,80.09a5.27,5.27,0,0,1,2.16,3.46c.3,1.86-1.42,2.58-3.06,1.9-1.48-.62-3.4-2.33-2.95-4.11A2.41,2.41,0,0,1,387.47,80.09Z"/><polygon class="cls-37" points="397.23 258.04 398.8 268.71 405.22 268.47 405.7 257.44 397.23 258.04"/><path class="cls-36" d="M404.86,267.71l-6.32.14a.59.59,0,0,0-.57.47l-1.21,6a1,1,0,0,0,.76,1.16.65.65,0,0,0,.2,0c2.63-.09,5-.28,8.25-.33,3.87-.07,2.9.41,7.45.39,2.74,0,3.18-3.14,2-3.27-5.33-.57-6.9-2.17-9-4A2.41,2.41,0,0,0,404.86,267.71Z"/><polygon class="cls-37" points="365.95 258.04 365.54 267.49 372.2 268.37 374.42 257.44 365.95 258.04"/><path class="cls-36" d="M371.81,266.66l-6.31-.4a.58.58,0,0,0-.6.42l-1.71,5.84a1,1,0,0,0,.65,1.22.78.78,0,0,0,.21,0c2.63.13,5,.14,8.25.36,3.86.25,2.85.65,7.38,1,2.74.22,3.44-2.86,2.29-3.09-5.26-1-6.69-2.74-8.61-4.77A2.34,2.34,0,0,0,371.81,266.66Z"/><polygon class="cls-37" points="381.22 132.38 385.14 133.32 391.78 131.65 392.85 134.58 393.68 138.69 388.4 139.59 384.06 136.97 378.53 136.86 381.22 132.38"/><path class="cls-35" d="M371.84,103.78l3.24,45.52,34.8.27s4.24-12.57-1-30.38L403.75,102a4.24,4.24,0,0,0-3.05-2.92c-5.16-1.28-17.7-2.8-27.49,2.26A2.52,2.52,0,0,0,371.84,103.78Z"/><path class="cls-18" d="M374.3,149.66a91.16,91.16,0,0,0-2.43,19.56,36.38,36.38,0,0,0,.19,3.72,54.27,54.27,0,0,1,.23,9l-.05.78c-.53,8.66-.62,17.51-.61,23.35v.12a35.73,35.73,0,0,1-1.78,11.25c-.18.56-.36,1.14-.54,1.73C364.4,236,364.82,263,364.82,263l9.54.54L400.61,148H376.25A2,2,0,0,0,374.3,149.66Z"/><path class="cls-29" d="M388.56,167.15l-3.27-.75-2-2.44a149.58,149.58,0,0,0,5.5,36.09L394,177.33Z"/><polygon class="cls-23" points="363.98 261.1 364.12 263.91 374.97 264.35 375.45 261.5 363.98 261.1"/><polygon class="cls-39" points="363.98 261.1 364.12 263.91 374.97 264.35 375.45 261.5 363.98 261.1"/><path class="cls-18" d="M383.88,148c-2.22,13.35-.85,21,.63,24.94.14.39.29.74.43,1.06a27,27,0,0,1,2.18,7.6c0,.13,0,.25.05.38a238.52,238.52,0,0,0,5.6,27.24l0,.08a20.8,20.8,0,0,1,.53,8.12c-.12.89-.22,1.84-.29,2.84-1,15.55,4.06,43.88,4.06,43.88l9.34-.86,4.08-113.93a1.27,1.27,0,0,0-1.23-1.35Z"/><polygon class="cls-23" points="395.89 262.72 396.68 265.46 407.18 264.55 407.33 261.66 395.89 262.72"/><polygon class="cls-39" points="395.89 262.72 396.68 265.46 407.18 264.55 407.33 261.66 395.89 262.72"/><g class="cls-40"><rect class="cls-19" x="384.07" y="149.95" width="17.63" height="2.45"/><polygon class="cls-19" points="381.74 149.95 374.97 149.95 374.6 152.39 381.74 152.39 381.74 149.95"/><rect class="cls-19" x="404.08" y="149.95" width="5.37" height="2.45"/></g><path class="cls-34" d="M408.88,119.19l-2.77-9.27-1.89-2.64-2.45-1.88-1.16,2.85A23.13,23.13,0,0,0,410,123.64C409.7,122.2,409.32,120.72,408.88,119.19Z"/><path class="cls-37" d="M425.47,103.77l1.69-3.67-.3-5.7a2.87,2.87,0,0,1,.68-2l1-1.12a2.82,2.82,0,0,1,4.29,0l.56.65a2.92,2.92,0,0,1,.68,1.91L434,97.07a2.81,2.81,0,0,1-.73,1.83l-2.7,3-1.18,5.41Z"/><path class="cls-35" d="M403.59,100,420,113.17l5.74-11.1,4.92,2.06s-3.5,19.72-8,20-15.73-5-20.35-11.32c-3.37-4.6-1.84-9.86-.76-12.39A1.31,1.31,0,0,1,403.59,100Z"/><path class="cls-41" d="M182.22,133.35s-1.61-4.24-3.49-3.86a12.88,12.88,0,0,0-3.94,1.84l-3,4.09s8.48,3.34,11.47,1.42a65.09,65.09,0,0,0,19.6-.3,43.3,43.3,0,0,1-3.08-9.29A45.7,45.7,0,0,1,182.22,133.35Z"/><path class="cls-18" d="M228.13,102.59s-12.41,15.63-28.37,24.66a43.3,43.3,0,0,0,3.08,9.29c8.28-1.35,17.86-4.6,26-11.8Z"/><path class="cls-18" d="M243.6,171.86c-2.43-11.53-4.85-18.2-13-40.05-2.56-6.87-4.88-13.83-3.75-21.08l1.26-8.14a61,61,0,0,1,33.29-.22s23.88,10.37,7.66,61.6C261.77,172.15,253.21,174.48,243.6,171.86Z"/><path class="cls-42" d="M230.81,92.2l4.1,9.84a2,2,0,0,0,1.48,1.18c2.36.4,8.07,1,11.82-1.43a1,1,0,0,0,.25-1.34L240.9,89.59Z"/><path class="cls-43" d="M235.05,77.15c-.17.17-7.26,14.08-7.26,14.08l8,3.87,8.67-12.18S237.93,74.44,235.05,77.15Z"/><path class="cls-35" d="M240.85,84.38l-4,6.67a1,1,0,0,1-.22.28c-.48.44-2.11,1.73-3.37,0a11.43,11.43,0,0,0-3.16-3.42,1.29,1.29,0,0,0-1.73.57,48,48,0,0,0-2.74,6.5,1.28,1.28,0,0,0,.74,1.57,35.36,35.36,0,0,0,7.69,2.24,1.27,1.27,0,0,0,1.21-.51c1.23-1.68,4.69-6.38,5.87-7.56s3.12-.68,4-.42a1.25,1.25,0,0,0,1-.13,2.82,2.82,0,0,0,1.07-4.29,1.29,1.29,0,0,1,.39-1.75,2.82,2.82,0,0,0,1.09-4A4,4,0,0,0,244.4,78a1.33,1.33,0,0,1-1.39-.78.85.85,0,0,0-.66-.52,1.24,1.24,0,0,1-1-1.46,3.28,3.28,0,0,0-1.83-3.76c-3.47-1.9-6.5,1.2-7.27,3.82s3.1,4.47,5.54,4.78c1.79.23,2.77,2.18,3.16,3.2A1.29,1.29,0,0,1,240.85,84.38Z"/><path class="cls-44" d="M239.44,92.69s1.73-4,3.7-3.89,3.52,2.13,1.08,4.34C241.18,95.89,239.44,92.69,239.44,92.69Z"/><path class="cls-36" d="M242,273.43c3.82.33,10.44.87,15.65,1.1a15,15,0,0,0,6-.59c0,.12,0,.23,0,.33a1.08,1.08,0,0,1-1,1,183.26,183.26,0,0,1-20.49,0,.77.77,0,0,1-.63-1.15A7,7,0,0,1,242,273.43Z"/><path class="cls-36" d="M257.69,274.53c-5.21-.23-11.83-.77-15.65-1.1,3.75-4.6,15.65-7.7,15.65-7.7h3.37a14.17,14.17,0,0,1,2.62,8.21A15,15,0,0,1,257.69,274.53Z"/><path class="cls-45" d="M261.62,260.25l-.31,6.22a1.44,1.44,0,0,1-1.22,1.34,5.56,5.56,0,0,1-2.52-.21,1.69,1.69,0,0,1-1.13-1.29l-1.09-6.06Z"/><path class="cls-36" d="M305.28,274.48a3,3,0,0,0,2.71-2v0a2.15,2.15,0,0,1-1.45,2.45,9.53,9.53,0,0,1-4,.63,4,4,0,0,1-3-1.39h0C300.77,274.79,302.52,274.87,305.28,274.48Z"/><path class="cls-36" d="M297.48,260.21h2.77c4.22-.09,6.87,8.82,7.74,12.26a3,3,0,0,1-2.71,2c-2.76.39-4.51.31-5.76-.3-2.28-3-3.41-7.4-3.95-10A3.49,3.49,0,0,1,297.48,260.21Z"/><path class="cls-46" d="M299.89,254.43l1.54,6.12a1.66,1.66,0,0,1-.86,1.88,5.86,5.86,0,0,1-3.19.78,1.41,1.41,0,0,1-1.13-.93L294,255.84Z"/><path class="cls-18" d="M301.73,256.2c-1.91,1.7-8.14,1.92-8.14,1.92-22.44-53.85-31.79-68.67-31.79-68.67,3.24,20.32.7,72.5.7,72.5-3.71,1.63-8.48,0-8.48,0-.3-33.28-5-69-11-91.91,15.17-.34,23.41-3.65,26-5.73C281.67,184.69,301.73,256.2,301.73,256.2Z"/><path class="cls-35" d="M239.17,185.09,242,202.44a5.71,5.71,0,0,0,6.35,4.75l41.76-5.09a4.13,4.13,0,0,0,3.63-4,77.16,77.16,0,0,0-2-19.74Z"/><path class="cls-19" d="M249.48,206a.12.12,0,0,1,0-.24l.95-.11a.11.11,0,0,1,.13.1.11.11,0,0,1-.1.13l-.95.12Zm-2.21-.06h0a5.2,5.2,0,0,1-.92-.3.12.12,0,0,1-.07-.15.14.14,0,0,1,.16-.07,4.63,4.63,0,0,0,.89.29.12.12,0,0,1,.09.14A.13.13,0,0,1,247.27,206Zm5.36-.32a.13.13,0,0,1-.12-.11.12.12,0,0,1,.11-.13l.94-.12a.12.12,0,0,1,.13.11.12.12,0,0,1-.1.13l-1,.11Zm3.15-.39a.12.12,0,0,1-.12-.1.12.12,0,0,1,.11-.14l.94-.11a.11.11,0,0,1,.13.1.1.1,0,0,1-.1.13l-.94.12Zm3.15-.38a.12.12,0,0,1,0-.24l.94-.12a.12.12,0,0,1,.14.11.13.13,0,0,1-.11.13l-.94.12Zm3.15-.39a.11.11,0,0,1-.11-.1.12.12,0,0,1,.1-.14l.95-.11a.12.12,0,0,1,.13.1.12.12,0,0,1-.11.14l-.94.11Zm-17.53-.06a.12.12,0,0,1-.09,0,5.49,5.49,0,0,1-.61-.76.12.12,0,1,1,.2-.13,5.71,5.71,0,0,0,.58.72.12.12,0,0,1,0,.17A.13.13,0,0,1,244.55,204.44Zm20.69-.32a.13.13,0,0,1-.12-.11.12.12,0,0,1,.1-.13l.95-.12a.13.13,0,0,1,.13.11.12.12,0,0,1-.1.13l-.95.12Zm3.15-.39a.12.12,0,0,1-.12-.1.11.11,0,0,1,.1-.13l.95-.12a.12.12,0,0,1,.13.1.12.12,0,0,1-.1.14l-1,.11Zm3.15-.38a.13.13,0,0,1-.12-.11.12.12,0,0,1,.11-.13l.94-.11a.1.1,0,0,1,.13.1.11.11,0,0,1-.1.13l-.95.12Zm3.15-.39a.12.12,0,0,1-.12-.1.12.12,0,0,1,.11-.13l.94-.12a.12.12,0,0,1,.14.11.13.13,0,0,1-.11.13l-.94.11Zm3.15-.38a.1.1,0,0,1-.11-.1.12.12,0,0,1,.1-.14l.94-.11a.12.12,0,0,1,.14.1.11.11,0,0,1-.11.13l-.94.12Zm3.16-.38a.12.12,0,0,1,0-.24l.95-.12a.13.13,0,0,1,.13.11.12.12,0,0,1-.1.13l-.95.11Zm3.15-.39a.12.12,0,0,1-.12-.1.12.12,0,0,1,.1-.14l.95-.11a.11.11,0,0,1,.13.1.11.11,0,0,1-.1.13l-.95.12Zm-41-.15a.13.13,0,0,1-.11-.1l-.15-.94a.11.11,0,0,1,.09-.14.12.12,0,0,1,.14.1l.15.94a.11.11,0,0,1-.09.13Zm44.18-.23a.13.13,0,0,1-.12-.11.12.12,0,0,1,.1-.13l1-.12a.12.12,0,0,1,.13.11.12.12,0,0,1-.1.13l-.95.12Zm3.07-.69a.11.11,0,0,1-.1-.06.12.12,0,0,1,0-.16,3.65,3.65,0,0,0,.74-.55.12.12,0,0,1,.17.17,4.17,4.17,0,0,1-.79.59Zm-47.75-2.22a.12.12,0,0,1-.12-.1l-.15-.94a.12.12,0,0,1,.1-.14.12.12,0,0,1,.14.1l.15.94a.12.12,0,0,1-.1.14Zm49.62-.24h0a.13.13,0,0,1-.09-.15,3.85,3.85,0,0,0,.11-.83v-.08a.12.12,0,0,1,.12-.12h0a.12.12,0,0,1,.12.12v.09a4.43,4.43,0,0,1-.12.88A.12.12,0,0,1,292.24,198.28Zm-50.12-2.89a.13.13,0,0,1-.12-.1l-.15-.94a.12.12,0,0,1,.1-.14.11.11,0,0,1,.13.1l.15.94a.11.11,0,0,1-.1.13Zm50.25-.28a.12.12,0,0,1-.12-.12c0-.3,0-.62,0-1a.13.13,0,0,1,.12-.12.12.12,0,0,1,.12.12c0,.33,0,.64,0,1a.11.11,0,0,1-.11.12Zm-50.76-2.86a.12.12,0,0,1-.12-.1l-.15-.94a.13.13,0,0,1,.1-.14.12.12,0,0,1,.14.1l.15.94a.12.12,0,0,1-.1.14Zm50.68-.31a.12.12,0,0,1-.12-.12c0-.31,0-.63,0-.95a.12.12,0,1,1,.23,0c0,.32,0,.64.05.95a.13.13,0,0,1-.12.13Zm-51.18-2.82a.13.13,0,0,1-.12-.1l-.15-.94a.12.12,0,0,1,.1-.14.11.11,0,0,1,.13.1l.16.94a.12.12,0,0,1-.1.13Zm51-.35a.11.11,0,0,1-.12-.11l-.09-.95a.14.14,0,0,1,.11-.13.11.11,0,0,1,.13.11c0,.32.06.63.08.95a.12.12,0,0,1-.1.13ZM240.6,186a.12.12,0,0,1-.11-.1l-.17-1.06.49-.06a.11.11,0,0,1,.13.1.12.12,0,0,1-.1.13l-.25,0,.13.82a.12.12,0,0,1-.1.14Zm51.17-.37a.13.13,0,0,1-.12-.11c0-.31-.08-.62-.12-.94a.12.12,0,0,1,.1-.13.12.12,0,0,1,.14.1l.12.94a.12.12,0,0,1-.1.14Zm-48.74-.9a.12.12,0,0,1-.12-.1.12.12,0,0,1,.1-.14l.94-.12a.12.12,0,0,1,0,.24l-1,.12Zm3.15-.4a.12.12,0,0,1-.12-.11.11.11,0,0,1,.1-.13l.94-.12a.12.12,0,0,1,.14.1.12.12,0,0,1-.1.14l-.95.12Zm3.14-.4a.12.12,0,0,1-.11-.11.11.11,0,0,1,.1-.13l.94-.12a.12.12,0,0,1,.14.1.11.11,0,0,1-.11.13l-.94.12Zm3.15-.41a.1.1,0,0,1-.11-.1.1.1,0,0,1,.1-.13l.94-.13a.13.13,0,0,1,.14.11.12.12,0,0,1-.11.13l-.94.12Zm3.15-.4a.1.1,0,0,1-.11-.1.12.12,0,0,1,.1-.14l.94-.12a.12.12,0,0,1,.14.1.13.13,0,0,1-.11.14l-.94.12Zm3.15-.4a.12.12,0,0,1,0-.24l.94-.12a.12.12,0,0,1,.14.1.12.12,0,0,1-.11.13l-.94.13Zm32.53-.23a.14.14,0,0,1-.12-.1c-.05-.31-.11-.62-.17-.93a.12.12,0,0,1,.1-.14.11.11,0,0,1,.13.09c.07.31.12.63.18.94a.12.12,0,0,1-.1.14Zm-29.38-.18a.12.12,0,0,1-.12-.1.12.12,0,0,1,.11-.13l.94-.12a.11.11,0,0,1,.14.1.13.13,0,0,1-.11.13l-.94.12Zm3.15-.4a.12.12,0,0,1-.12-.1.12.12,0,0,1,.11-.14l.94-.12a.11.11,0,0,1,.13.11.11.11,0,0,1-.1.13l-.94.12Zm3.15-.4a.13.13,0,0,1-.12-.11.12.12,0,0,1,.11-.13l.94-.12a.11.11,0,0,1,.13.1.12.12,0,0,1-.1.14l-.94.12Zm3.15-.41a.12.12,0,0,1-.12-.1.12.12,0,0,1,.11-.13l.94-.12a.1.1,0,0,1,.13.1.11.11,0,0,1-.1.13l-.94.12Zm3.15-.4a.12.12,0,0,1-.12-.1.12.12,0,0,1,.1-.14l.95-.12a.12.12,0,0,1,.13.11.11.11,0,0,1-.1.13l-.94.12Zm3.15-.4a.13.13,0,0,1-.12-.11.12.12,0,0,1,.1-.13l1-.12a.11.11,0,0,1,.13.1.12.12,0,0,1-.1.14l-.95.12Zm3.15-.4a.13.13,0,0,1-.12-.11.12.12,0,0,1,.1-.13l.95-.12a.11.11,0,0,1,.13.1.11.11,0,0,1-.1.13l-.95.12Zm3.15-.41a.12.12,0,0,1-.12-.1.11.11,0,0,1,.1-.13l.95-.13a.12.12,0,0,1,.13.11.12.12,0,0,1-.1.13l-.95.12Zm6.69-.11a.12.12,0,0,1-.12-.09l-.15-.62-.11,0a.12.12,0,0,1-.13-.11.12.12,0,0,1,.1-.13l.31,0,0,.1.18.72a.12.12,0,0,1-.09.15Zm-3.54-.29a.12.12,0,0,1-.12-.1.12.12,0,0,1,.1-.14l.95-.12a.11.11,0,0,1,.13.1.12.12,0,0,1-.1.14l-.95.12Z"/><path class="cls-35" d="M249.78,170.87l0-1.36a1,1,0,0,1,.7-.7c1.28-.38,4.45-1.15,6.16-.19l.43,1.53Z"/><path class="cls-35" d="M253.68,169.06a1.84,1.84,0,0,1-.9.11.81.81,0,0,1-.72-.71l-.54-4.21,2.14-.27.54,4.21A.83.83,0,0,1,253.68,169.06Z"/><path class="cls-35" d="M270.53,168.22l0-1.36a1.05,1.05,0,0,1,.71-.71c1.27-.37,4.45-1.15,6.15-.19l.43,1.54Z"/><path class="cls-35" d="M274.42,166.4a2,2,0,0,1-.9.12.84.84,0,0,1-.72-.71l-.59-4.65,2.14-.28.59,4.65A.8.8,0,0,1,274.42,166.4Z"/><path class="cls-35" d="M251.43,165.31l22.94-3.71a1.11,1.11,0,0,0,.94-1,9.25,9.25,0,0,0-.3-2.93,2.68,2.68,0,0,0-2.86-1.92c-4.31.45-15.25,1.85-21,5a2.12,2.12,0,0,0-1.09,1.62,5.24,5.24,0,0,0,.25,2.35A1,1,0,0,0,251.43,165.31Z"/><path class="cls-47" d="M250.87,164.38a.31.31,0,0,1-.31-.24,5.75,5.75,0,0,1-.09-1.83,2.17,2.17,0,0,1,1.27-1.67,26.08,26.08,0,0,1,5.65-1.82.31.31,0,0,1,.36.27.32.32,0,0,1-.26.36,26,26,0,0,0-5.5,1.77,1.51,1.51,0,0,0-.89,1.17,5.11,5.11,0,0,0,.08,1.61.32.32,0,0,1-.24.38Z"/><path class="cls-35" d="M239,171.71c7.43-1,39.58-5.5,49.07-5.57a1.9,1.9,0,0,1,1.82,1.27,63,63,0,0,1,3.34,13.85,1.69,1.69,0,0,1-1.17,1.77l-20.82,6.76-7.58,1-23.33-1.61a1.79,1.79,0,0,1-1.64-1.46c-.52-2.88-1.62-9.64-1.39-14.11A2,2,0,0,1,239,171.71Z"/><path class="cls-19" d="M263.63,189h0l-.95-.06a.14.14,0,0,1-.11-.13.12.12,0,0,1,.13-.11l.95.06a.14.14,0,0,1,.11.13A.12.12,0,0,1,263.63,189Zm.87-.11a.12.12,0,0,1-.12-.1.12.12,0,0,1,.1-.14l.95-.12a.12.12,0,0,1,.13.11.12.12,0,0,1-.1.13l-.95.12Zm-4-.11h0l-1-.06a.13.13,0,0,1-.11-.13.13.13,0,0,1,.13-.11l1,.07a.12.12,0,0,1,0,.23Zm-3.16-.22h0l-1-.06a.12.12,0,0,1-.11-.13c0-.06.06-.1.12-.11l.95.07a.11.11,0,0,1,.11.12A.1.1,0,0,1,257.3,188.58Zm10.35-.07a.13.13,0,0,1-.12-.11.12.12,0,0,1,.1-.13l.95-.12a.11.11,0,0,1,.13.1.12.12,0,0,1-.1.14l-.95.12Zm-13.52-.14h0l-1-.07a.12.12,0,0,1-.11-.13c0-.06.07-.1.13-.11l.95.07a.12.12,0,0,1,.11.12A.13.13,0,0,1,254.13,188.37Zm-3.17-.22h0l-.95-.07a.12.12,0,0,1-.11-.13.15.15,0,0,1,.13-.11l.95.07a.12.12,0,0,1,.11.13A.13.13,0,0,1,251,188.15Zm19.84-.05a.12.12,0,0,1-.12-.1.12.12,0,0,1,.1-.13h.06l.83-.27a.12.12,0,0,1,.07.23l-.93.28Zm-23-.17h0l-.95-.07a.12.12,0,0,1-.11-.12.15.15,0,0,1,.13-.12l1,.07a.11.11,0,0,1,.11.13A.11.11,0,0,1,247.79,187.93Zm-3.16-.22h0l-1-.07a.11.11,0,0,1-.11-.12.11.11,0,0,1,.12-.11l.95.06a.12.12,0,0,1,.11.13A.11.11,0,0,1,244.63,187.71Zm-3.17-.22h0l-1-.07,0-.09a.13.13,0,0,1,.09-.15.16.16,0,0,1,.1,0l.86.06a.13.13,0,0,1,.11.13A.13.13,0,0,1,241.46,187.49Zm32.36-.36a.11.11,0,0,1-.11-.08.12.12,0,0,1,.07-.15l.91-.29a.12.12,0,0,1,.15.07.11.11,0,0,1-.08.15l-.9.3Zm3-1a.11.11,0,0,1-.11-.08.12.12,0,0,1,.07-.15l.91-.29a.12.12,0,1,1,.07.22l-.9.3Zm-36.68-.94a.13.13,0,0,1-.12-.1c0-.31-.1-.62-.15-1a.12.12,0,0,1,.1-.13.12.12,0,0,1,.14.1c.05.32.1.64.15.94a.12.12,0,0,1-.1.13Zm39.7,0a.11.11,0,0,1-.11-.08.12.12,0,0,1,.07-.15l.91-.3a.12.12,0,0,1,.07.23l-.9.3Zm3-1a.11.11,0,0,1-.11-.08.11.11,0,0,1,.07-.15l.91-.3a.12.12,0,0,1,.07.23l-.9.29Zm3-1a.12.12,0,0,1,0-.23l.91-.3a.12.12,0,1,1,.07.23l-.9.29Zm3-1a.11.11,0,0,1-.11-.09.11.11,0,0,1,.07-.15l.91-.29a.12.12,0,0,1,.15.08.12.12,0,0,1-.08.15l-.9.29Zm-49.22-.17a.12.12,0,0,1-.12-.1l-.12-1a.13.13,0,0,1,.11-.13.12.12,0,0,1,.13.1l.12,1a.12.12,0,0,1-.1.13Zm51.63-1.2a.13.13,0,0,1-.12-.11c0-.31-.08-.63-.13-.94a.12.12,0,0,1,.24,0c.05.32.09.63.13.95a.11.11,0,0,1-.11.13Zm-52-2a.12.12,0,0,1-.12-.11c0-.31,0-.63-.08-.95a.12.12,0,0,1,.11-.12c.08,0,.13,0,.13.11,0,.31.05.63.08.94a.12.12,0,0,1-.11.13Zm51.48-1.18a.12.12,0,0,1-.12-.1c-.06-.31-.12-.62-.19-.93a.12.12,0,0,1,.09-.14.13.13,0,0,1,.15.09c.06.31.12.62.19.94a.13.13,0,0,1-.1.14Zm-51.67-2a.11.11,0,0,1-.12-.11c0-.26,0-.52,0-.76v-.2a.12.12,0,0,1,.12-.12h0a.12.12,0,0,1,.12.12v.2c0,.24,0,.49,0,.75a.12.12,0,0,1-.12.12Zm51-1.11a.14.14,0,0,1-.12-.09c-.07-.31-.15-.62-.23-.92a.12.12,0,0,1,.08-.15.13.13,0,0,1,.15.09c.08.3.16.61.23.92a.12.12,0,0,1-.08.15Zm-49.81-1.1a.11.11,0,0,1-.11-.1.12.12,0,0,1,.1-.14l.94-.13a.12.12,0,1,1,0,.24l-.94.13Zm3.15-.44a.12.12,0,0,1-.12-.1.12.12,0,0,1,.1-.13l.95-.13a.11.11,0,0,1,.13.1.11.11,0,0,1-.1.13l-.94.13Zm3.15-.43a.12.12,0,0,1-.12-.1.12.12,0,0,1,.1-.13l.95-.13a.12.12,0,0,1,.13.1.11.11,0,0,1-.1.13l-1,.13Zm3.15-.42a.11.11,0,0,1-.12-.1.12.12,0,0,1,.1-.14l.94-.12a.11.11,0,0,1,.14.1.12.12,0,0,1-.1.13l-1,.13Zm3.14-.42a.1.1,0,0,1-.11-.1.12.12,0,0,1,.1-.14l.94-.12a.12.12,0,1,1,0,.24l-.94.12Zm36.38-.25a.14.14,0,0,1-.12-.09c-.09-.32-.19-.62-.28-.91a.12.12,0,0,1,.08-.15.12.12,0,0,1,.15.08c.09.29.19.59.28.91a.12.12,0,0,1-.08.15Zm-33.23-.16a.1.1,0,0,1-.11-.1.12.12,0,0,1,.1-.14L257,171a.12.12,0,1,1,0,.24l-.94.12Zm3.15-.4a.12.12,0,0,1,0-.24l.94-.12a.12.12,0,0,1,.14.1.12.12,0,0,1-.11.13l-.94.12Zm3.15-.4a.11.11,0,0,1-.11-.11.11.11,0,0,1,.1-.13l.94-.11a.11.11,0,0,1,.14.1.13.13,0,0,1-.11.13l-.94.12Zm3.15-.39a.12.12,0,0,1,0-.23l.95-.12a.12.12,0,0,1,.13.11.12.12,0,0,1-.11.13l-.94.11Zm3.16-.37a.13.13,0,0,1-.12-.11.12.12,0,0,1,.1-.13l.95-.11a.11.11,0,0,1,.13.1.12.12,0,0,1-.1.14l-.95.11Zm3.15-.36a.12.12,0,0,1,0-.24l.95-.11a.12.12,0,0,1,.13.11.13.13,0,0,1-.11.13l-.94.11Zm3.16-.35a.12.12,0,0,1-.12-.1.12.12,0,0,1,.11-.14l.94-.1a.13.13,0,0,1,.14.11.13.13,0,0,1-.11.13l-.95.1Zm3.16-.32a.13.13,0,0,1-.12-.11.12.12,0,0,1,.11-.13l.95-.09a.12.12,0,0,1,.13.11.14.14,0,0,1-.11.13l-.95.09Zm10.17-.28a.13.13,0,0,1-.12-.08l-.12-.34h-.43a.12.12,0,0,1-.12-.12.12.12,0,0,1,.11-.12h.47a.17.17,0,0,1,.18.11l.14.39a.12.12,0,0,1-.07.15Zm-7,0a.13.13,0,0,1-.12-.11.12.12,0,0,1,.11-.13l.95-.08a.12.12,0,0,1,.13.11.14.14,0,0,1-.11.13l-.95.08Zm3.17-.25a.11.11,0,0,1-.12-.11.12.12,0,0,1,.11-.13l.95-.05a.12.12,0,0,1,.13.11.12.12,0,0,1-.12.12l-.95.06Z"/><path class="cls-19" d="M271,193.07l-6.64.85a1.73,1.73,0,0,1-1.9-1.29l-1.59-6.29a1.74,1.74,0,0,1,1.47-2.14l8-1a1.72,1.72,0,0,1,2,1.65l.25,6.46A1.72,1.72,0,0,1,271,193.07Z"/><path class="cls-35" d="M270,192l-5.05.64a1.31,1.31,0,0,1-1.45-1l-1.2-4.79a1.3,1.3,0,0,1,1.11-1.62l6.07-.78a1.32,1.32,0,0,1,1.49,1.25l.18,4.92A1.32,1.32,0,0,1,270,192Z"/><path class="cls-48" d="M266,141.06a51.71,51.71,0,0,1,1.37,15.12,1.8,1.8,0,0,1-1.66,1.61l-3.54.23a6.67,6.67,0,0,1-3.78-1.46.59.59,0,0,0-.87.74,7,7,0,0,0,2.16,2.32c.5.39,2.16,1.06,2,1.81a1.24,1.24,0,0,1-.33.63,7.48,7.48,0,0,1-3.7,2.12,1,1,0,0,0-.48.25c0,.89,2.71,1.88,3.42,2.12a7.87,7.87,0,0,0,3.3.38,9.77,9.77,0,0,0,6.81-4.5,48.46,48.46,0,0,0,6.79-19.25C273.87,139.48,268.28,140.41,266,141.06Z"/><path class="cls-18" d="M277.57,143.76c2.95-22.3-14.24-39.45-14.24-39.45l-10.22,11.92c7.76,9.68,11.45,18.54,13.14,25.51C268.48,141.09,273.87,140.06,277.57,143.76Z"/><path class="cls-18" d="M266,141.63a.63.63,0,0,1-.61-.48c-2.08-8.59-6.46-17.09-13-25.27a.63.63,0,0,1,1-.79c6.68,8.32,11.14,17,13.26,25.76a.63.63,0,0,1-.47.76A.39.39,0,0,1,266,141.63Z"/><path class="cls-36" d="M127.5,273.85a1.31,1.31,0,0,0,0-.33c-1.65-6.52-9.81-10.58-9.81-10.58l-3.23.26c-1.86,5.74-1.62,9.27-1.33,10.84,0,0,0,.08,0,.13A76.41,76.41,0,0,0,127.5,273.85Z"/><path class="cls-36" d="M113.14,274.17a1.39,1.39,0,0,0,1,1c3.8.8,9.83.16,12.37-.17a1.19,1.19,0,0,0,1-1.18A76.41,76.41,0,0,1,113.14,274.17Z"/><path class="cls-49" d="M113.13,258.38,114.5,265a1.07,1.07,0,0,0,.92.89,9.53,9.53,0,0,0,2.12,0,1.35,1.35,0,0,0,1.07-1.6l-1-5.85Z"/><path class="cls-36" d="M141.51,274.08a19.28,19.28,0,0,1-6.37-.91c0,.36,0,.72,0,1.09a.71.71,0,0,0,.67.72l19.62-.13a.9.9,0,0,0,.72-1.3C153.59,273.76,147,274.24,141.51,274.08Z"/><path class="cls-36" d="M156.16,273.55l-.08-.15c-1.73-2.42-6.15-7.24-14.86-9.33l-4.19-.13s-1.86,3.24-1.89,9.23a19.28,19.28,0,0,0,6.37.91C147,274.24,153.59,273.76,156.16,273.55Z"/><path class="cls-50" d="M136.07,257.79c.07.31.94,5,1.28,6.83a.9.9,0,0,0,.81.77,9.63,9.63,0,0,0,2.87-.23,1.25,1.25,0,0,0,.86-1.3l-.47-7.42Z"/><path class="cls-18" d="M132.9,171.14s5.76,39.54,9.91,86.59a1.79,1.79,0,0,1-1.48,1.82,22.52,22.52,0,0,1-4.68.54,1.74,1.74,0,0,1-1.65-1.45c-1.42-8.29-11.51-52.81-14.16-62.61,0,0-3,41.62-2.07,63.21a1,1,0,0,1-.9,1.07,17.82,17.82,0,0,1-3.76,0,1.38,1.38,0,0,1-1.22-1.17c-1-7-6.8-48.8-6.56-78.91,0-1.69,2-15.64,2-15.64Z"/><path class="cls-35" d="M107.46,173.42a1.63,1.63,0,0,1-1.07-1.37c-.76-7.42-4.47-53.45,18.92-72.38,0,0,1.34-3.51,12.37,5.12s5.12,17.67,2.48,30.14c-3.19,15.09-8.8,27.42-6.32,36.71a1.29,1.29,0,0,1-.79,1.54A36.49,36.49,0,0,1,107.46,173.42Z"/><path class="cls-51" d="M134.43,85.88c0,.66-9.34,13.92-9.34,13.92s1.67,3.3,9.68,6l6.9-14.2Z"/><path class="cls-52" d="M141.79,78.28s3.32,7.63,3.54,11.64,1.09,6.61-3.54,7.41-8.54-1.5-10.65-5.49c0,0-3.32-6.15-2.57-8.67S141.79,78.28,141.79,78.28Z"/><path class="cls-18" d="M132.72,89l.26-.11a.64.64,0,0,0,.31-.88c-.65-1.26-1.92-4.15-.28-4.83,2.12-.87,10.52-2.58,12.33-5.56A5.53,5.53,0,0,0,143.22,70a.31.31,0,0,0-.41.13l-.2.37a.31.31,0,0,1-.58-.06h0a.32.32,0,0,0-.57-.08c-.55.89-2.06,2.34-6.08,3.08-5.71,1-9.49,3.37-9.58,7.31a.31.31,0,0,1-.49.26c-.42-.25-1.1-.37-2,.39-1.57,1.32-.93,4.74,2.51,7.55a.32.32,0,0,1,0,.51c-.63.41-1.56,1.37.85,2.66a8.11,8.11,0,0,0,5.07,1.1.31.31,0,0,0,.26-.37l-.77-3.48a.32.32,0,0,1,.31-.38Z"/><path class="cls-53" d="M132.86,89.7s-1.26-4.87-3.45-3.5,1.13,5.46,2.89,5.64Z"/><path class="cls-35" d="M141.22,108.79l.65,17.29a48.43,48.43,0,0,0,5.23,1.49,52,52,0,0,1,5.19-10.49A25.62,25.62,0,0,1,141.22,108.79Z"/><path class="cls-54" d="M175.52,108.5c-9.42,10.17-17.05,10.77-23.23,8.58a52,52,0,0,0-5.19,10.49c25.16,5.55,31.09-17.59,31.09-17.59Z"/><path class="cls-55" d="M177.44,107.42a3.43,3.43,0,0,1,3.09-.8c2,.36,3.8,1.06,5.05,0s1.69.36,1.69.36l-3.75,2.85Z"/><path class="cls-56" d="M175.19,109.41s.75-3.11,3-2.68,7.33,3.19,8.64,2.68,3-1.73,3.85-1.3L189.15,110s3.9-2.24,4.57-.86l-6.48,3.65S177.75,111.83,175.19,109.41Z"/><path class="cls-57" d="M130.76,131.42s17.72,14.84,36.85,8.37a4.53,4.53,0,0,1,3.59.27l5.51,2.9a4.9,4.9,0,0,0,6.5-1.82,10.27,10.27,0,0,0,1.55-4.14L174,132.65l.79-1.32s-5.26-.45-6.63,3.32c0,0-10,4.16-26.89-14.4C141.27,120.25,133.61,126.76,130.76,131.42Z"/><path class="cls-58" d="M129.81,131.27a.34.34,0,0,1-.17-.05,34.2,34.2,0,0,1-11-13.26.32.32,0,0,1,.16-.4.31.31,0,0,1,.4.16,33.53,33.53,0,0,0,10.79,13,.3.3,0,0,1,.08.42A.33.33,0,0,1,129.81,131.27Z"/><path class="cls-59" d="M140.92,120a.31.31,0,0,1-.26-.14s-2.3-3.58-6.64-11.35a8.73,8.73,0,0,0-5.21-4.5,10.24,10.24,0,0,0-7,.92.3.3,0,1,1-.3-.52,10.58,10.58,0,0,1,7.41-1,9.35,9.35,0,0,1,5.58,4.79c4.33,7.76,6.6,11.29,6.62,11.33a.3.3,0,0,1-.09.42A.29.29,0,0,1,140.92,120Z"/><path class="cls-2" d="M75.08,273.65c0,1.75-16.81,3.17-37.54,3.17S0,275.4,0,273.65s16.81-3.17,37.54-3.17S75.08,271.9,75.08,273.65Z"/><polygon class="cls-18" points="61.91 266.16 49.36 266.16 25.42 196.05 26.52 151.84 41.69 147.07 46.74 176.84 61.91 266.16"/><path class="cls-60" d="M52.63,266.16H49.36L25.42,196.05l1.1-44.21,15.17-4.77,5.05,29.77h0A91.31,91.31,0,0,0,44,237.37Z"/><path class="cls-36" d="M50.26,267.08a6.64,6.64,0,0,0,0,6.15H70.41s.66-1.13,0-1.72-7.32-.77-10.3-5.35h-10Z"/><rect class="cls-36" x="49.93" y="272.85" width="20.78" height="0.81"/><path class="cls-18" d="M14.24,148.31s-2.12,8.33-.57,14.74l.5,50.28-3.8,52.83H22.19l16-102.29,3.53-16.8Z"/><path class="cls-36" d="M11.48,267.08a6.64,6.64,0,0,0,0,6.15H31.63s.66-1.13,0-1.72-7.33-.77-10.3-5.35h-10Z"/><rect class="cls-36" x="11.14" y="272.85" width="20.78" height="0.81"/><path class="cls-61" d="M28.1,106.94c2.11,1.78,5,4.27,7.82,4.69a3.86,3.86,0,0,0,3.42-1c.07-.2.15-.39.22-.59-.39-.59-.81-1.22-1.24-1.92-1.17-1.88-2.14-3.35-3.7-4.2V90.72h-7.8v12.22q-1.09.06-2.34.21A25.27,25.27,0,0,0,28.1,106.94Z"/><path class="cls-62" d="M34.62,99.09v2.19a6.43,6.43,0,0,1-.87-.25A9.19,9.19,0,0,1,28.92,97a9,9,0,0,0,2.94,1.75A6.71,6.71,0,0,0,34.62,99.09Z"/><path class="cls-35" d="M42.72,139.88c-.36,5-.67,8.82-.67,8.82s-2.78.58-7,1l-.56.06c-5.66.52-13.64.72-20.84-1.05l3.73-15.62,1.23-11.19,2-18.22a16.63,16.63,0,0,1,6.2-.79s6,4.92,7.77,4.51h0a1,1,0,0,0,.5-.3c.52-.59.14-1.78-.18-2.54-.17-.39-.32-.66-.32-.66l.28.08a4,4,0,0,1,1.54.76,126.32,126.32,0,0,1,7.14,10.43C44.24,116.42,43.39,130.37,42.72,139.88Z"/><path class="cls-35" d="M26.58,103.1s-.41-3.72,0-3.76,6.63,2.55,7.08,3.48a32.88,32.88,0,0,1,1.12,4.49S32.92,108.69,26.58,103.1Z"/><path class="cls-35" d="M34.82,107.31l-.25-4.66,0-1.37a7,7,0,0,1,2.26,1.19c.45.59.3,3.19.3,3.19A2.26,2.26,0,0,1,34.82,107.31Z"/><path class="cls-35" d="M35.07,149.69l-.56.06c1.93-10.44.67-33.57.09-42.36h0a1,1,0,0,0,.5-.3C35.69,115.64,37,139,35.07,149.69Z"/><path class="cls-63" d="M42.72,139.88c-.36,5-.67,8.82-.67,8.82s-2.78.58-7,1l-.56.06c-5.66.52-13.64.72-20.84-1.05l3.73-15.62,1.23-11.19a17.82,17.82,0,0,1,4.8-1,19.88,19.88,0,0,0,19.29,19Z"/><polygon class="cls-64" points="73.97 131.68 73.97 134.36 33.92 134.36 40.42 132.17 41.87 131.68 73.97 131.68"/><rect class="cls-65" x="33.93" y="134.36" width="34.78" height="33.16"/><rect class="cls-64" x="35.5" y="162.3" width="14.61" height="2.03"/><rect class="cls-64" x="35.5" y="159.94" width="9.8" height="1.48"/><path class="cls-64" d="M66,139.15a2.66,2.66,0,1,1-2.66-2.66A2.66,2.66,0,0,1,66,139.15Z"/><rect class="cls-66" x="33.93" y="134.36" width="1.57" height="33.16" transform="translate(69.42 301.88) rotate(180)"/><polygon class="cls-67" points="73.97 131.68 73.97 164.47 68.7 167.52 68.7 134.36 70.11 133.65 73.97 131.68"/><path class="cls-68" d="M74,158.32v6.15l-5.27,3.05V134.36l1.41-.71a105.81,105.81,0,0,0,.66,15.1,23.77,23.77,0,0,0,1.59,6.93A11.53,11.53,0,0,0,74,158.32Z"/><path class="cls-69" d="M74,131.68v.37a136.69,136.69,0,0,1-33.55.12l1.45-.49Z"/><path class="cls-61" d="M39.65,164.38s2.73.2,2.89-.19S40,162.92,40,162.92l-2.35-1.55c-1.58-1.87-3.17-3.78-4.77-5.7l-.32.22a32.62,32.62,0,0,1-3.89,2.75c-.49.46-1,.91-1.52,1.36,2,1.8,4.1,3.59,6.21,5.39.73,1,2.46,3.09,2.46,3.09a5.76,5.76,0,0,0,1.83,0,7.73,7.73,0,0,0,1.9-.17,1.76,1.76,0,0,0,1.42-.47,4.15,4.15,0,0,0,3.33-.42H42.72Z"/><path class="cls-35" d="M37.54,159.44l-1.17,1-4.14,3.43-1,.81S8.57,144.44,7.61,141c-.41-1.43-.15-4.24.28-7A76.13,76.13,0,0,1,11,121.61c1.78-5.25,4.75-13.47,6.8-16,.09-.12.19-.23.27-.32l.34-.33c4.28-3.84,11-.16,10.51,5.56a8.13,8.13,0,0,1-.39,2L28,114.11l0,0L26.73,118l-5.92,20.27Z"/><polygon class="cls-63" points="37.54 159.44 36.37 160.42 17.21 137.55 18.69 136.53 16.48 133.02 20.16 134.36 27.95 114.15 26.73 117.95 20.81 138.22 37.54 159.44"/><path class="cls-70" d="M32.23,163.85l-1,.81S8.57,144.44,7.61,141c-.41-1.43-.15-4.24.28-7A76.13,76.13,0,0,1,11,121.61c1.78-5.25,4.75-13.47,6.8-16-1.95,6-10.21,31.92-9.34,34.8S28.72,160.72,32.23,163.85Z"/><path class="cls-71" d="M30.19,150.12c-1-1.07-1.92-2.16-2.85-3.27s-1.84-2.23-2.74-3.36-1.79-2.27-2.65-3.43l-1.28-1.74c-.42-.6-.84-1.18-1.24-1.78.49.52,1,1.07,1.45,1.61l1.4,1.65c.94,1.1,1.84,2.23,2.74,3.36s1.78,2.27,2.64,3.43S29.38,148.92,30.19,150.12Z"/><path class="cls-71" d="M28,114.11c-.48,2-1,4.06-1.56,6.08s-1.13,4-1.69,6-1.19,4-1.82,6l-.95,3c-.33,1-.65,2-1,3,.23-1,.5-2,.75-3l.8-3c.55-2,1.13-4,1.7-6s1.19-4,1.81-6S27.27,116.09,28,114.11Z"/><path class="cls-61" d="M44.33,89.66a6.81,6.81,0,0,0-1.13-2,5.94,5.94,0,0,1-.73-1.24,29.57,29.57,0,0,0-1.67-8.12c-.8-1.56-5.06-3-9.26-2.18s-7.68,3.6-7.87,5.34c-.07.66-.38,3.31,1.86,9.81a14.07,14.07,0,0,0,2.91,5.21,9.07,9.07,0,0,0,3.42,2.21,6.31,6.31,0,0,0,3.48.29l.8-.15a6.55,6.55,0,0,0,3.76-2.07,9.34,9.34,0,0,0,2.53-5.56,2.57,2.57,0,0,0,1.6-.56A1,1,0,0,0,44.33,89.66Z"/><path class="cls-72" d="M33.89,82.25a9.51,9.51,0,0,1-2.06,7,3.17,3.17,0,0,0-2.13-2.53,1.79,1.79,0,0,0-1.64.17,1.92,1.92,0,0,0-.52,1.9,3.9,3.9,0,0,0,2.13,2.72,11,11,0,0,1-.92,2.22,3.39,3.39,0,0,1-1.54,1.63,12.66,12.66,0,0,1-3.06-8.6c.07-1.65-.4-3.46.26-5A8.73,8.73,0,0,1,27.63,78a14.23,14.23,0,0,1,4.58-1.87A5.62,5.62,0,0,1,33.74,76a2.18,2.18,0,0,1,1.4.56,2.54,2.54,0,0,1,.64,1.8A4.73,4.73,0,0,1,33.89,82.25Z"/><path class="cls-73" d="M28.78,75.47s-.65-.42-.09-.88,1.63-.36,1.46.37Z"/><path class="cls-35" d="M24.13,88.19s-3.32-6.87,2.12-11.29,14.1-3,15.66,3l-6.12,3.37Z"/><path class="cls-35" d="M29.67,75s6.49,3.4,6,8.31l7.57-3.11S39.87,71.42,29.67,75Z"/><path class="cls-72" d="M23.21,84.88a1,1,0,0,1,1.12-.12,1.42,1.42,0,0,1,.71.91l.19.77-1.52.66A7.39,7.39,0,0,1,23.21,84.88Z"/><path class="cls-35" d="M31.54,85.05s11-4.5,11-6.11c0,0,5.21-2.11,7,.17S30,85.7,30,85.7Z"/></g></g></svg>