<svg xmlns="http://www.w3.org/2000/svg" viewBox="0 0 2179.84 1804.38"><defs><style>.cls-1{fill:#ebf2f9;}.cls-2{fill:#007cff;}.cls-3{opacity:0.2;}.cls-3,.cls-6,.cls-7,.cls-8{isolation:isolate;}.cls-4{fill:#f7a96d;}.cls-5{fill:#1a2e35;}.cls-6,.cls-9{fill:#fff;}.cls-6,.cls-7{opacity:0.1;}.cls-34,.cls-8{opacity:0.5;}.cls-10{fill:#25468f;}.cls-11{fill:#fddcc3;}.cls-12{fill:#143674;}.cls-13{fill:#eec09d;}.cls-14{fill:#ff7b35;}.cls-15{fill:#5c9cf4;}.cls-16{fill:#3986e3;}.cls-17{fill:#ffae73;}.cls-18{fill:#1e3865;}.cls-19{fill:#ff912b;}.cls-20{fill:#fddbba;}.cls-21{fill:#154079;}.cls-22{fill:#f70;}.cls-23{fill:#f99352;}.cls-24{fill:#2a3967;}.cls-25{fill:#fb5910;}.cls-26{fill:#fd801a;}.cls-27{fill:#c8dffd;}.cls-28{fill:#9ec6f0;}.cls-29{fill:#dfefff;}.cls-30{fill:#123d76;}.cls-31{fill:#ffa05e;}.cls-32{fill:#0b3563;}.cls-33{fill:#0b4d87;}.cls-35{fill:#accefc;}</style></defs><title>Монтажная область 2 copy 16</title><g id="Layer_9" data-name="Layer 9"><path class="cls-1" d="M1089.05,16.26C496.81,16.26,16.71,496.36,16.71,1088.6c0,275.08,103.59,526,273.88,715.78H1887.52c170.28-189.82,273.87-440.7,273.87-715.78C2161.39,496.36,1681.29,16.26,1089.05,16.26Z"/></g><g id="Layer_10" data-name="Layer 10"><polygon class="cls-2" points="295.23 1757.24 295.23 172.87 825.48 108.97 1058.51 153.37 1134.67 167.84 1298.17 198.99 1407.14 177.51 1483.3 162.51 1841.98 91.92 1841.98 1676.29 1483.3 1746.96 1407.14 1761.96 1298.17 1783.44 825.48 1693.42 794.72 1697.15 702.95 1708.2 295.23 1757.24"/><polygon class="cls-3" points="295.23 1757.24 295.23 172.87 825.48 108.97 1058.51 153.37 1134.67 167.84 1298.17 198.99 1407.14 177.51 1483.3 162.51 1841.98 91.92 1841.98 1676.29 1483.3 1746.96 1407.14 1761.96 1298.17 1783.44 825.48 1693.42 794.72 1697.15 702.95 1708.2 295.23 1757.24"/><path class="cls-4" d="M1407.14,979.33V861.52a18.73,18.73,0,0,0-22.31-18.43L295.23,1052.67v-77.6L727.55,892a18.82,18.82,0,0,0,14.54-23.45L659,566.28a18.69,18.69,0,0,0-21.63-13.41l-342.15,66v-77.6l396.91-76.53a18.8,18.8,0,0,1,21.63,13.48L817.87,857a18.79,18.79,0,0,0,21.62,13.48l203.79-39.22a18.75,18.75,0,0,0,15.23-18.43v-445a18.71,18.71,0,0,0-15.38-18.43L797.76,304.15a19.45,19.45,0,0,0-6.32-.07L295.23,382.14V305.07l497.2-78.21a17.41,17.41,0,0,1,6.32.08l237.6,43.71a18.72,18.72,0,0,0,22.16-18.43V153.37l76.16,14.47v623a18.85,18.85,0,0,0,22.39,18.51l234.85-45.24a18.69,18.69,0,0,0,15.23-18.43V177.51l76.16-15V723.84a18.84,18.84,0,0,0,22.39,18.43L1664,711.8a18.76,18.76,0,0,0,15.23-18.42V304.76a18.67,18.67,0,0,1,15-18.35L1842,255.87v77.76L1770.4,348.4a18.83,18.83,0,0,0-15,18.43V671.52A18.77,18.77,0,0,0,1777.71,690L1842,677.61v77.53l-343.45,66a18.85,18.85,0,0,0-15.23,18.51v531.24a18.82,18.82,0,0,0,21.93,18.51l336.75-56v77.22l-342.92,57a18.87,18.87,0,0,0-15.76,18.58V1747l-76.16,15V1094.7a18.73,18.73,0,0,0-21.93-18.5l-282.45,48.66a18.89,18.89,0,0,0-13.48,9.82L794.72,1697.15l-91.77,11,112.56-215c7.16-13.64-4.27-29.55-19.5-27.27l-500.78,76.23v-77l571.91-87a18.91,18.91,0,0,0,13.86-9.9L1039.32,1066a18.67,18.67,0,0,1,13.4-9.74l338.89-58.41A18.79,18.79,0,0,0,1407.14,979.33Z"/><path class="cls-5" d="M1298,1744.65,832.61,1656l-5.83-1.11-5.88.71-30.73,3.73-91.77,11-365.1,43.92V206.63l490.87-59.15,227.23,43.3,76.14,14.46L1291,236.39l7.25,1.38,7.24-1.43,109-21.47,76.15-15,313.25-61.65V1645l-328,64.62-76.16,15L1298,1744.65m.13,38.79,109-21.48,76.16-15L1842,1676.29V91.91l-358.68,70.6-76.16,15-109,21.48-163.5-31.15-76.16-14.47-233-44.4-530.25,63.9V1757.24l407.72-49,91.77-11,30.76-3.73,472.69,90Z"/><path class="cls-6" d="M1298,1744.65,832.61,1656l-5.83-1.11-5.88.71-30.73,3.73-91.77,11-365.1,43.92V206.63l490.87-59.15,227.23,43.3,76.14,14.46L1291,236.39l7.25,1.38,7.24-1.43,109-21.47,76.15-15,313.25-61.65V1645l-328,64.62-76.16,15L1298,1744.65m.13,38.79,109-21.48,76.16-15L1842,1676.29V91.91l-358.68,70.6-76.16,15-109,21.48-163.5-31.15-76.16-14.47-233-44.4-530.25,63.9V1757.24l407.72-49,91.77-11,30.76-3.73,472.69,90Z"/><polygon class="cls-7" points="1298.17 1783.44 1298.17 198.99 825.48 108.97 825.48 1693.42 1298.17 1783.44"/><g class="cls-8"><path class="cls-9" d="M1651,748.49a7.61,7.61,0,0,1,1.34,15.11l-199.51,35.79V1027.1a7.62,7.62,0,0,1-6.32,7.5l-373,64.39L889.47,1448.23a7.61,7.61,0,1,1-13.47-7.1l185.86-352.56a7.64,7.64,0,0,1,5.45-4l370.33-63.94V793a7.6,7.6,0,0,1,6.27-7.49l205.78-36.91A7,7,0,0,1,1651,748.49Z"/><path class="cls-9" d="M868.4,1444.68A14.34,14.34,0,1,1,882.73,1459,14.34,14.34,0,0,1,868.4,1444.68Z"/><path class="cls-9" d="M1636.7,756.11A14.34,14.34,0,1,1,1651,770.44,14.34,14.34,0,0,1,1636.7,756.11Z"/></g><path class="cls-9" d="M890.13,1220.1h0a85.84,85.84,0,0,0-121.41,0h0a85.85,85.85,0,0,0,0,121.4l60.71,60.7,60.7-60.7A85.85,85.85,0,0,0,890.13,1220.1Zm-85.38,85.38a34.9,34.9,0,1,1,49.36,0A34.89,34.89,0,0,1,804.75,1305.48Z"/><path class="cls-3" d="M890.13,1220.1A85.53,85.53,0,0,0,828.88,1195v51a34.86,34.86,0,1,1,0,69.7v86l.55.55,60.7-60.7A85.85,85.85,0,0,0,890.13,1220.1Z"/><path class="cls-9" d="M1711.74,517.26h0a85.86,85.86,0,0,0-121.41,0h0a85.85,85.85,0,0,0,0,121.4l60.71,60.7,60.7-60.7A85.85,85.85,0,0,0,1711.74,517.26Zm-85.38,85.38a34.9,34.9,0,1,1,49.36,0A34.9,34.9,0,0,1,1626.36,602.64Z"/><path class="cls-3" d="M1711.74,517.26a85.57,85.57,0,0,0-61.25-25.12v51a34.86,34.86,0,1,1,0,69.7v86l.55.54,60.7-60.7A85.85,85.85,0,0,0,1711.74,517.26Z"/><rect class="cls-10" x="303.21" y="1658.8" width="695.55" height="142.87" rx="70.81" transform="translate(1301.98 3460.46) rotate(180)"/><path class="cls-11" d="M688.07,1711.22l-.5,31.23a50,50,0,0,0,49.22,50.81l369.27,5.9.1-6.22a63.65,63.65,0,0,1-34.31-57.52l.18-11a63.63,63.63,0,0,1,36.12-56.39v-.13L738.89,1662A50,50,0,0,0,688.07,1711.22Z"/><path class="cls-12" d="M1115.73,1801.66h-389c-25.1,0-44.75-31.39-44.75-71.48s19.65-71.48,44.75-71.48h389a5.85,5.85,0,0,1,0,11.7h-389c-17.92,0-33.05,27.38-33.05,59.78S708.78,1790,726.7,1790h389a5.85,5.85,0,1,1,0,11.69Z"/><rect class="cls-13" x="744.06" y="1696.76" width="334.55" height="0.92"/><rect class="cls-13" x="946.85" y="1709.81" width="127" height="0.84"/><rect class="cls-13" x="852.3" y="1754.18" width="221.56" height="0.84"/><path class="cls-14" d="M785.61,1697.23s17.16,7.18,19.2,31.43,0,37.16,0,37.16L784.09,1756l-20.92,9.86v-37.9s-.77-30.69-29.32-30.69Z"/><rect class="cls-15" x="282.84" y="1551.26" width="519.09" height="107.54" rx="46.35" transform="translate(1084.77 3210.05) rotate(180)"/><path class="cls-11" d="M570.06,1590.67l-.37,23.47a37.48,37.48,0,0,0,36.73,38.19L882,1656.76l.08-4.67a47.92,47.92,0,0,1-25.61-43.24l.14-8.26a47.85,47.85,0,0,1,27-42.39v-.09L608,1553.67A37.46,37.46,0,0,0,570.06,1590.67Z"/><path class="cls-16" d="M889.22,1658.65H598.88c-18.72,0-33.39-23.61-33.39-53.73s14.67-53.73,33.39-53.73H889.22a4.4,4.4,0,0,1,0,8.79H598.88c-13.36,0-24.66,20.58-24.66,44.94s11.3,44.93,24.66,44.93H889.22a4.4,4.4,0,0,1,0,8.8Z"/><rect class="cls-13" x="651.88" y="1579.83" width="209.64" height="0.63"/><rect class="cls-13" x="763.19" y="1589.6" width="94.78" height="0.63"/><rect class="cls-13" x="692.62" y="1622.95" width="165.35" height="0.63"/><path class="cls-17" d="M1793.77,1462.09s5.34,16.45,4.89,20.22-3.82,16.61-6.21,19.9-3.58-13.4-5.47-15.91-.39,6.28-1.73,7.1-4.12-6.47-5.32-9,2.93-12,2.94-18.65S1793.77,1462.09,1793.77,1462.09Z"/><path class="cls-18" d="M1668.15,1331.42c-1.48-18.86,19-31.79,35.19-22l1,.61c24.22,15.59,76.49,88.34,80.08,95.63s14.22,65.27,14.22,65.27-13.12,4.8-19.26-.18c0,0-21.28-55-24.42-57.74s-85.11-48.73-85.81-66C1669,1342.5,1668.59,1337,1668.15,1331.42Z"/><rect class="cls-19" x="1501.38" y="1274.64" width="21.67" height="109" transform="translate(754.19 3194.3) rotate(-109.2)"/><polygon class="cls-20" points="1436.81 1355.4 1464.31 1357.3 1457.18 1336.83 1436.81 1355.4"/><path class="cls-20" d="M1558.84,1302.8h21.67a0,0,0,0,1,0,0v5.4a7.27,7.27,0,0,1-7.27,7.27h-6.67a7.72,7.72,0,0,1-7.72-7.72v-5a0,0,0,0,1,0,0Z" transform="translate(849.42 3221.98) rotate(-109.2)"/><path class="cls-21" d="M1814.41,1757.25s9.77,8.91,7.86,15.24-10.72,10.56-11.91,18.3-5.95,12-10.24,12h-20.44s-3.16-5.45,4.46-7.09,10.5-10.74,10-19.18a149.61,149.61,0,0,1,.72-19.7l16.2-3.76Z"/><path class="cls-21" d="M1694.6,1780.3s1.75,20.28-2.54,22.39l-54.87-.11s0-6.33,8.81-7.74,24.3-6.57,26.92-18.06S1694.6,1780.3,1694.6,1780.3Z"/><path class="cls-19" d="M1648.27,1493.77s2.89,35.56,6.29,78.3c4.63,58,10.19,129.37,10.74,142.88,1,23.46,4.76,61,4.76,61s9,8.92,27.16,5.16c0,0,16.13-53.57,20.74-110.24.08-.93.15-1.87.22-2.81,4.29-57.69,11-179.19,11-179.19Z"/><path class="cls-22" d="M1648.27,1493.77s2.89,35.56,6.29,78.3l63.4,98.78c.08-.93.15-1.87.22-2.81,4.29-57.69,11-179.19,11-179.19Z"/><path class="cls-19" d="M1661.49,1498s52.16,128.76,86.46,189.27,45,77.41,45,77.41,19.66-7.74,21.44-13c0,0-13.12-116.82-36.09-145.3-13-16.1-28.22-64.39-28.94-81.27s-4.64-50.31-4.64-50.31Z"/><path class="cls-17" d="M1706.47,1304.84s-35,17.73-55.43,11.81a48.23,48.23,0,0,1,13.56-11.29c-.79-4.07-1.41-7.6-1.78-10.6a96.52,96.52,0,0,1-1.07-10.85l13.4-11,12.71-10.5C1687.41,1291.27,1706.47,1304.84,1706.47,1304.84Z"/><path class="cls-10" d="M1741.18,1485c-14.11,8.54-27.47,15-43.1,18.56-18.44,4.38-41.11,3.09-48.69,4.24a3.12,3.12,0,0,1-2.21-.56c-.6-.3-4-22.8-7.3-51.19-.15-1.14-.3-2.3-.37-3.45l0-.38c-1.3-11.1-2.44-22.76-3.43-34.45-.81-9.09-1.48-18.09-1.94-26.53-.58-10.57-.82-20.28-.58-28.27.11-3.65.32-6.93.64-9.78,2-16.58,9.91-28.44,17.36-37.26l6.18-7a33.87,33.87,0,0,0,21.38-5.46c7.55-5,15.73-10.85,17.27-10,11.57,6.33,21,23.27,27.68,44.93a247.64,247.64,0,0,1,8.71,41.6c.61,4.65,1.12,9.42,1.52,14.17.08.88.14,1.75.21,2.62.91,13,2.39,25.15,4,36,2.21,14.65,4.72,26.93,6.5,35.58.9,4.4,1.58,7.8,2,10.24C1747.34,1480.73,1743.08,1483.78,1741.18,1485Z"/><path class="cls-23" d="M1688.31,1273.44s-8.6,16.44-25.49,21.32a96.52,96.52,0,0,1-1.07-10.85l13.4-11Z"/><path class="cls-17" d="M1655.53,1283.57s33.77,4.84,36.52-15.92,9-34.12-12.48-38.08-26.7,3.41-29.33,10.12S1646.81,1281.77,1655.53,1283.57Z"/><path class="cls-24" d="M1703.48,1226.61c.3-.35,1-.65,2.56-.77a6.29,6.29,0,0,0-2.94-.76c-.38-2.18-1.61-6-5.38-6.88a4.69,4.69,0,0,1,2.34,3.35c-4.43-4.38-13.81-7.45-39.58-4.9-33.94,3.36-22.31,24.91-17.85,27.42s15.39-4.83,23.61-4.34,10,12.31,12.82,13.88,1.66-1.29,5.39-3.06,4.22,4.45,3.21,8.53,4.27,9.32,4.27,9.32l5.12-5.73c5.11-5.73,9.56-29.67,7.09-34.71Z"/><path class="cls-18" d="M1692.75,1364.79s-28.47,21.67-58.66,26.42c-.58-10.57-.82-20.28-.58-28.27Z"/><path class="cls-17" d="M1517.87,1336.83c-.45-.48-6.25-19.89-16.29-18.48-6.55.93-17.26,4.72-14.42,13.35,1.12,3.4,21.08,15.09,21.08,15.09Z"/><path class="cls-10" d="M1696.28,1322.93c16.23,9.71,14.92,33.9-2.45,41.42l-1.07.44c-26.74,10.73-106.29,11.92-124.34,9.94-19.58-2.14-61.45-26.2-61.45-26.2s3.68-13.47,11.3-15.59c0,0,44.22,12.53,61.21,13.51,10.76.61,89-41.18,103.47-31.77C1686.78,1317.17,1691.46,1320,1696.28,1322.93Z"/><path class="cls-14" d="M-53.06,1769a31.76,31.76,0,0,0,.25,4A33,33,0,0,0-49,1784.9a33.6,33.6,0,0,0,5.68,7.59,33.11,33.11,0,0,0,23.45,9.7H446.4a33.16,33.16,0,0,0,0-66.32H-19.91A33.16,33.16,0,0,0-53.06,1769Z"/><path class="cls-14" d="M-17.5,1729.87H142.38a5.1,5.1,0,0,0,5.09-5.08h0a5.1,5.1,0,0,0-5.09-5.09H-17.5a5.1,5.1,0,0,0-5.08,5.09h0A5.09,5.09,0,0,0-17.5,1729.87Z"/><rect class="cls-25" x="-8.66" y="1729.87" width="17.33" height="6" transform="translate(0 3465.75) rotate(180)"/><path class="cls-25" d="M-49,1784.9a33.6,33.6,0,0,0,5.68,7.59,33.11,33.11,0,0,0,23.45,9.7H78.87V1784.9Z"/><path class="cls-19" d="M541.29,1759.32v19.43a23.44,23.44,0,0,1-23.44,23.44H32.11a23.44,23.44,0,0,1-23.44-23.44v-19.43a23.44,23.44,0,0,1,23.44-23.45H517.85A23.44,23.44,0,0,1,541.29,1759.32Z"/><path class="cls-26" d="M540.47,1784.9a23.43,23.43,0,0,1-22.62,17.29H32.11A23.42,23.42,0,0,1,9.49,1784.9Z"/><path class="cls-27" d="M493,1769.16c0,10.3,3.75,19.5,9.65,25.6l.39.4a23.52,23.52,0,0,0,16.64,7.27c9.84,0,34.21-14.84,49.31-24.69,7.53-4.91,12.76-8.58,12.76-8.58s-5.23-3.68-12.76-8.59c-15.1-9.86-39.47-24.7-49.31-24.7a22.11,22.11,0,0,0-8.16,1.58,26.76,26.76,0,0,0-11.24,8.88,36.61,36.61,0,0,0-6.76,16.22,1.8,1.8,0,0,0,0,.22A40.34,40.34,0,0,0,493,1769.16Z"/><path class="cls-28" d="M493,1769.16c0,10.3,3.75,19.5,9.65,25.6L577.45,1769l-83.91-6.27A40.34,40.34,0,0,0,493,1769.16Z"/><path class="cls-29" d="M500.32,1746.33l74.58,20.36-63.34-29.24A26.76,26.76,0,0,0,500.32,1746.33Z"/><path class="cls-19" d="M564.17,1769.16c0,3.95,2,7.33,4.86,8.58,7.53-4.91,12.76-8.58,12.76-8.58s-5.23-3.68-12.76-8.59C566.2,1761.81,564.17,1765.19,564.17,1769.16Z"/><path class="cls-18" d="M347.56,1804.38h0a8.58,8.58,0,0,0,7.82-5.43l201-617.44c1-3-.93-5.49-4.26-5.51h0a8.57,8.57,0,0,0-7.82,5.44l-201,617.44C342.32,1801.9,344.23,1804.36,347.56,1804.38Z"/><path class="cls-18" d="M185.59,1803.44h0a8.6,8.6,0,0,0,7.82-5.44l201-617.44c1-3-.92-5.49-4.26-5.51h0a8.61,8.61,0,0,0-7.82,5.44l-201,617.44C180.35,1801,182.25,1803.42,185.59,1803.44Z"/><path class="cls-18" d="M360,1266.59l162.65,1a8.13,8.13,0,0,0,7.38-5.13h0c.93-2.84-.88-5.18-4-5.19l-162.65-1a8.13,8.13,0,0,0-7.38,5.13h0C355,1264.24,356.85,1266.58,360,1266.59Z"/><path class="cls-18" d="M324.9,1374.4l162.65.95a8.13,8.13,0,0,0,7.38-5.13h0c.93-2.84-.88-5.18-4-5.2l-162.65-1a8.13,8.13,0,0,0-7.38,5.13h0C320,1372,321.76,1374.38,324.9,1374.4Z"/><path class="cls-18" d="M291.1,1478.22l162.65,1a8.15,8.15,0,0,0,7.39-5.13h0c.92-2.84-.89-5.18-4-5.19l-162.65-.95a8.15,8.15,0,0,0-7.39,5.13h0C286.16,1475.87,288,1478.21,291.1,1478.22Z"/><path class="cls-18" d="M253.06,1595.11l162.65,1a8.13,8.13,0,0,0,7.38-5.13h0c.92-2.84-.88-5.18-4-5.2l-162.65-1a8.12,8.12,0,0,0-7.38,5.13h0C248.11,1592.75,249.92,1595.09,253.06,1595.11Z"/><path class="cls-18" d="M213.24,1717.45l162.65,1a8.15,8.15,0,0,0,7.38-5.13h0c.92-2.84-.89-5.18-4-5.2l-162.65-1a8.13,8.13,0,0,0-7.38,5.14h0C208.29,1715.1,210.1,1717.43,213.24,1717.45Z"/><path class="cls-17" d="M514.06,1041.7s1.92-4.33,3.17-6.38,6.56-8,7.47-6.68,4.53,10.5,2.6,13.06.13,7-9.45,9.71Z"/><path class="cls-22" d="M407.68,1014.39s49,40.9,68.11,37.12c14.94-3,37.87-10.83,37.87-10.83l4.58,11.73s-20.56,27.9-42,28.08C442.73,1080.77,418,1066,418,1066Z"/><path class="cls-30" d="M321.74,1445.84s1.42,23,5.86,23.28c.59,0,22.52,0,22.52,0l28-.16s-.19-6.75-8.37-8.17-21.87-7.18-26.83-18C337.7,1431.46,321.74,1445.84,321.74,1445.84Z"/><path class="cls-10" d="M320.12,1447.43s8.51,2.85,15.16,2.85a55.53,55.53,0,0,0,14.14-2s1.6-15.49,10.42-49.63c4.62-17.89,11.22-40.89,20.61-69.48,26-79,33.86-125.21,34.58-129.59,0-.23.05-.34.05-.34l-.08,0-79.82-35s9.87,108.88-2.72,150.67a178.05,178.05,0,0,0-4.57,20C319.94,1380.22,320.12,1447.43,320.12,1447.43Z"/><path class="cls-18" d="M359.84,1398.63c4.62-17.89,11.22-40.89,20.61-69.48,26-79,33.86-125.21,34.58-129.59,0-.13,0-.25,0-.38l-79.82-35s9.87,108.88-2.72,150.67C330.7,1320.65,359.84,1398.63,359.84,1398.63Z"/><path class="cls-30" d="M384.08,1445.84s1.42,23,5.86,23.28c.59,0,22.52,0,22.52,0l28-.16s-.18-6.75-8.36-8.17-21.88-7.18-26.84-18C400,1431.46,384.08,1445.84,384.08,1445.84Z"/><path class="cls-10" d="M429.34,1166.7s1,70.55-11.17,157.18-8.07,123.41-8.07,123.41-8.39,2.71-11.77,3a53.52,53.52,0,0,1-17.47-2s-17.47-86.66-12.46-130-23.93-148.78-23.93-148.78Z"/><path class="cls-17" d="M372.74,1001.59l15.58,10.21,14.19-4c2.6-3.7,3.28-10.83,3.32-17a104.8,104.8,0,0,0-.56-11.33l-21-9.27-7.84-3.46c0,.12.61,6.44.69,7.36C378.57,990.45,372.74,1001.59,372.74,1001.59Z"/><path class="cls-19" d="M429.7,1186.31c-19.4,18.73-92.8,15.58-97.32-5s4.93-175.62,38.06-185.36c6.88-2,43.63,9.86,43.63,9.86a232.39,232.39,0,0,1,9.55,34.29c.73,3.74,2.88,43.35,4.48,80.4.75,17.33,1.38,34.11,1.7,46.39C430.1,1178.34,430.11,1185.9,429.7,1186.31Z"/><path class="cls-31" d="M378.68,974.36c4.26,7.21,19.22,13.52,27.15,16.41a104.8,104.8,0,0,0-.56-11.33l-21-9.27C379.61,970.1,376.78,971.14,378.68,974.36Z"/><path class="cls-17" d="M413.2,978.16s-33.87,10.57-40.12-10.62-14.84-34.11,6.52-41.75,28-.8,31.78,5.76S421.85,974.87,413.2,978.16Z"/><path class="cls-32" d="M410.05,929.51s-2.16,24.67-7.26,23.6-10.72-3.37-10,4.07-5,20.18-12.32,20.15c-15.77-.07-32.91-40.54-28.59-48.22C364.37,907,428.05,902.5,410.05,929.51Z"/><path class="cls-22" d="M405.06,996.43c-.43-.18-25.21-11.29-28.11-10.34s-6.51,9.81-6.51,9.81l43.63,9.86S410.64,998.78,405.06,996.43Z"/><path class="cls-33" d="M559.32,1116.47,420.43,1247.24c-2.73,2.56-6.16,3.38-7.63,1.81l-4.69-5c-1.47-1.56-.45-4.94,2.27-7.5L549.27,1105.8c2.73-2.57,6.16-3.38,7.63-1.82l4.69,5C563.07,1110.53,562,1113.9,559.32,1116.47Z"/><path class="cls-14" d="M481.38,1189.85l-60.95,57.39c-2.73,2.56-6.16,3.38-7.63,1.81l-4.69-5c-1.47-1.56-.45-4.94,2.27-7.5l60.95-57.39Z"/><path class="cls-33" d="M527.4,1067.09a108.87,108.87,0,1,0,180.44-109.4q-.84-.84-1.71-1.65a108.87,108.87,0,0,0-178.73,111Zm31.11-100.47a100.28,100.28,0,1,1,4.32,141.74A100.17,100.17,0,0,1,558.51,966.62Z"/><g class="cls-34"><path class="cls-35" d="M704.57,1104a100.29,100.29,0,1,1-4.33-141.73A99.84,99.84,0,0,1,704.57,1104Z"/></g><path class="cls-22" d="M429.8,1166.84c-76.53-54.54-70.16-127.31-70.16-127.31,28,15.78,55.72,50.66,68.46,80.92C428.85,1137.78,429.48,1154.56,429.8,1166.84Z"/><path class="cls-19" d="M505.34,1142c5.39-1.24,9-5.32,9.77-6,0,0,2.3.15-.38,5.06-.22.41-.72,1.47-1.09,2.21a.48.48,0,0,0,.4.69c3.11.24,6.24-1,12.24.26.83.17,1.07,2.15,1,3a7.62,7.62,0,0,1-1.61,5.22c-1,1.28-3.67,2.65-9.67,5.07-2.29.92-8.83.22-15-1.88l-4.9-2.27,1.52-9.11,1.23.26C500.88,1144.89,503.3,1142.5,505.34,1142Z"/><path class="cls-19" d="M383.39,1005.76s-68.77,13.1,20.23,112.68c14.23,15.92,91.13,36.66,91.13,36.66s7.8-6.64,3.87-12c0,0-52.95-38.45-64.6-44.56-5.24-2.75-20.34-61.37-28.88-75.49S383.39,1005.76,383.39,1005.76Z"/><path class="cls-17" d="M515.92,1042.91a35.06,35.06,0,0,0,2.69-6.57c.44-2.27,3.27-8.88,4.44-10,.47-.47,2,.13,2.19,2.14a11.6,11.6,0,0,1-1.11,4.35c-1.23,3.07-1,7.25-1.45,8.64C521.61,1044.89,515.92,1042.91,515.92,1042.91Z"/></g></svg>