<svg xmlns="http://www.w3.org/2000/svg" viewBox="0 0 2182.48 1831.01"><defs><style>.cls-1{fill:#ebf2f9;}.cls-2{fill:#cbe4ff;}.cls-3{fill:#f0f8ff;}.cls-4{fill:#ff9841;}.cls-5{fill:#f77d1e;}.cls-6{fill:#97c7fa;}.cls-7{fill:#9dd3ff;}.cls-8{fill:#94d29d;}.cls-9{fill:#ffa347;}.cls-10{fill:#67b375;}.cls-11{fill:#f5892a;}.cls-12{fill:#ff862e;}.cls-13{fill:#003261;}.cls-14{fill:#00448c;}.cls-15{fill:#ffb27b;}.cls-16{fill:#ffa668;}.cls-17{fill:#ff7a70;}.cls-18{fill:#eb8d5a;}.cls-19{fill:#e3f0fd;}.cls-20{fill:#2f9aa9;}.cls-21{fill:#e05344;}</style></defs><title>Монтажная область 2 copy 4</title><g id="Layer_5" data-name="Layer 5"><path class="cls-1" d="M1090.71,21.36C498.47,21.36,18.37,501.47,18.37,1093.7c0,275.09,103.59,526,273.87,715.79H1889.18c170.28-189.83,273.87-440.7,273.87-715.79C2163.05,501.47,1683,21.36,1090.71,21.36Z"/><rect class="cls-2" x="1164.35" y="245.32" width="740.25" height="1116.39"/><rect class="cls-3" x="1235.88" y="307.77" width="595.99" height="664.3"/><circle class="cls-3" cx="1355.73" cy="1184.31" r="107.19" transform="translate(-440.35 1305.52) rotate(-45)"/><path class="cls-4" d="M1446.33,1184.31a90.61,90.61,0,1,0-35.65,72l-55-72,84.67,32.32A90.47,90.47,0,0,0,1446.33,1184.31Z"/><circle class="cls-3" cx="1720.93" cy="1184.31" r="107.19" transform="translate(172.91 2587.11) rotate(-76.72)"/><path class="cls-4" d="M1720.93,1093.7a90.6,90.6,0,0,0-64.57,154.17l64.57-63.56,84.67,32.32a90.68,90.68,0,0,0-84.67-122.93Z"/><path class="cls-5" d="M1707.69,1138.31h-38.57a2.77,2.77,0,0,0-2.76,2.76h0a2.76,2.76,0,0,0,2.76,2.75h38.57a2.75,2.75,0,0,0,2.75-2.75h0A2.76,2.76,0,0,0,1707.69,1138.31Z"/><path class="cls-5" d="M1707.69,1147h-38.57a2.76,2.76,0,1,0,0,5.51h38.57a2.76,2.76,0,0,0,0-5.51Z"/><path class="cls-5" d="M1685.05,1155.76h-15.93a2.76,2.76,0,1,0,0,5.51h15.93a2.76,2.76,0,0,0,0-5.51Z"/><path class="cls-5" d="M1341.75,1138.31h-38.57a2.77,2.77,0,0,0-2.76,2.76h0a2.76,2.76,0,0,0,2.76,2.75h38.57a2.75,2.75,0,0,0,2.75-2.75h0A2.76,2.76,0,0,0,1341.75,1138.31Z"/><path class="cls-5" d="M1341.75,1147h-38.57a2.76,2.76,0,1,0,0,5.51h38.57a2.76,2.76,0,0,0,0-5.51Z"/><path class="cls-5" d="M1319.11,1155.76h-15.93a2.76,2.76,0,1,0,0,5.51h15.93a2.76,2.76,0,0,0,0-5.51Z"/><rect class="cls-6" x="1288.95" y="545.18" width="62.89" height="391.77"/><rect class="cls-6" x="1391.98" y="435.97" width="62.89" height="500.98"/><rect class="cls-6" x="1504.41" y="639.92" width="62.89" height="297.03"/><rect class="cls-6" x="1613.8" y="502.86" width="62.89" height="434.09"/><rect class="cls-6" x="1723.77" y="698.06" width="62.89" height="238.89"/><path class="cls-6" d="M1673.71,446.38h-53.26a5.51,5.51,0,0,0,0,11h53.26a5.51,5.51,0,1,0,0-11Z"/><path class="cls-6" d="M1632.58,466.43h-12.13a5.51,5.51,0,0,0,0,11h12.13a5.51,5.51,0,0,0,0-11Z"/><path class="cls-6" d="M1454.24,361.06H1401a5.51,5.51,0,0,0,0,11h53.26a5.51,5.51,0,0,0,0-11Z"/><path class="cls-6" d="M1413.11,381.11H1401a5.53,5.53,0,0,0-5.51,5.51h0a5.53,5.53,0,0,0,5.51,5.51h12.13a5.53,5.53,0,0,0,5.51-5.51h0A5.53,5.53,0,0,0,1413.11,381.11Z"/><path class="cls-6" d="M1562.48,581.45h-53.26a5.51,5.51,0,0,0,0,11h53.26a5.51,5.51,0,0,0,0-11Z"/><path class="cls-6" d="M1521.35,601.5h-12.13a5.53,5.53,0,0,0-5.51,5.51h0a5.53,5.53,0,0,0,5.51,5.51h12.13a5.53,5.53,0,0,0,5.51-5.51h0A5.53,5.53,0,0,0,1521.35,601.5Z"/><path class="cls-6" d="M1781.85,639.92h-53.27a5.51,5.51,0,1,0,0,11h53.27a5.51,5.51,0,0,0,0-11Z"/><path class="cls-6" d="M1740.71,660h-12.13a5.51,5.51,0,0,0,0,11h12.13a5.51,5.51,0,0,0,0-11Z"/><rect class="cls-7" x="428.98" y="597.01" width="642.84" height="361.9"/><rect class="cls-2" x="449.88" y="597.01" width="642.84" height="361.9"/><circle class="cls-3" cx="625.69" cy="769.79" r="116.23" transform="translate(-361.06 667.9) rotate(-45)"/><path class="cls-3" d="M1020.46,704.86H827.91a12.72,12.72,0,0,0-12.69,12.68h0a12.73,12.73,0,0,0,12.69,12.69h192.55a12.73,12.73,0,0,0,12.69-12.69h0A12.72,12.72,0,0,0,1020.46,704.86Z"/><path class="cls-3" d="M1020.46,757.1H827.91a12.73,12.73,0,0,0-12.69,12.69h0a12.73,12.73,0,0,0,12.69,12.69h192.55a12.73,12.73,0,0,0,12.69-12.69h0A12.73,12.73,0,0,0,1020.46,757.1Z"/><path class="cls-3" d="M1020.46,809.34H827.91a12.69,12.69,0,1,0,0,25.38h192.55a12.69,12.69,0,1,0,0-25.38Z"/><path class="cls-8" d="M519.27,768.1H625.7V661.68A106.43,106.43,0,0,0,519.27,768.1Z"/><path class="cls-9" d="M732.11,771.52H519.27A106.43,106.43,0,0,0,625.69,878h0A106.43,106.43,0,0,0,732.11,771.52Z"/><path class="cls-10" d="M607.31,713.39H549.56a6,6,0,1,0,0,12h57.75a6,6,0,1,0,0-12Z"/><path class="cls-10" d="M562.71,735.13H549.56a6,6,0,1,0,0,12h13.15a6,6,0,1,0,0-12Z"/><path class="cls-11" d="M693.06,797.54H635.3a6,6,0,0,0,0,12h57.76a6,6,0,1,0,0-12Z"/><path class="cls-11" d="M648.46,819.28H635.3a6,6,0,0,0-6,6h0a6,6,0,0,0,6,6h13.16a6,6,0,0,0,6-6h0A6,6,0,0,0,648.46,819.28Z"/><path class="cls-7" d="M383.7,1023.72v370.12h642.84V1023.72Z"/><path class="cls-2" d="M404.61,1023.72v370.12h642.84V1023.72Z"/><circle class="cls-3" cx="580.41" cy="1197.35" r="116.23" transform="translate(-633.33 1742.65) rotate(-88.33)"/><path class="cls-3" d="M782.62,1157.8H975.17a12.69,12.69,0,1,0,0-25.38H782.62a12.69,12.69,0,0,0,0,25.38Z"/><path class="cls-3" d="M975.17,1184.66H782.62a12.69,12.69,0,0,0,0,25.38H975.17a12.69,12.69,0,1,0,0-25.38Z"/><path class="cls-3" d="M975.17,1236.91H782.62a12.71,12.71,0,0,0-12.68,12.68h0a12.72,12.72,0,0,0,12.68,12.69H975.17a12.73,12.73,0,0,0,12.69-12.69h0A12.72,12.72,0,0,0,975.17,1236.91Z"/><path class="cls-9" d="M580.41,1199.24,474,1197.88c0,.45,0,.91,0,1.36a106.43,106.43,0,0,0,163.52,89.81Z"/><rect class="cls-11" x="520.6" y="1232.75" width="69.71" height="11.95" rx="5.97"/><path class="cls-11" d="M539.73,1254.49H526.57a6,6,0,0,0,0,12h13.16a6,6,0,0,0,0-12Z"/><rect class="cls-7" x="383.7" y="202.32" width="642.85" height="335.39"/><rect class="cls-2" x="404.61" y="202.32" width="642.84" height="335.39"/><circle class="cls-3" cx="580.41" cy="374.94" r="116.23" transform="translate(-95.13 520.23) rotate(-45)"/><path class="cls-8" d="M580.41,268.53a106.42,106.42,0,0,0-51.07,199.79c17-31.58,51.07-93.38,51.07-93.38l50.39,93.75a106.43,106.43,0,0,0-50.39-200.16Z"/><rect class="cls-3" x="769.94" y="310.01" width="217.93" height="25.37" rx="12.69"/><path class="cls-3" d="M975.18,362.25H782.62a12.69,12.69,0,0,0,0,25.38H975.18a12.69,12.69,0,0,0,0-25.38Z"/><path class="cls-3" d="M975.18,414.5H782.62a12.69,12.69,0,0,0,0,25.37H975.18a12.69,12.69,0,0,0,0-25.37Z"/><path class="cls-10" d="M584.33,324.12H526.58a6,6,0,1,0,0,11.95h57.75a6,6,0,1,0,0-11.95Z"/><path class="cls-10" d="M539.73,345.86H526.58a6,6,0,0,0-6,6h0a6,6,0,0,0,6,6h13.15a6,6,0,0,0,6-6h0A6,6,0,0,0,539.73,345.86Z"/><path class="cls-12" d="M1718.64,713.22s97.3,100.44,102,138.32-46.3,97.12-46.3,97.12Z"/><path class="cls-13" d="M1677,1755.22s-3.32,53.4-13.65,54.17c-1.37.1-52.39.1-52.39.1l-65.14-.38s.43-15.69,19.47-19,50.9-16.7,62.44-41.86C1639.9,1721.76,1677,1755.22,1677,1755.22Z"/><path class="cls-13" d="M1822.11,1755.22s-3.31,53.4-13.64,54.17c-1.38.1-52.4.1-52.4.1l-65.33-.23s.62-15.84,19.66-19.16,50.91-16.7,62.44-41.86C1785,1721.76,1822.11,1755.22,1822.11,1755.22Z"/><path class="cls-13" d="M1604.9,1182.6s17,109,80.58,302.36,72.21,277.16,72.21,277.16a280.16,280.16,0,0,0,35.35,2.49c11.48,0,32.83-4.41,32.83-4.41s.58-211.37-28.71-308.63-6.32-350.62-6.32-350.62Z"/><path class="cls-14" d="M1571.73,1106.92s-2.42,164.18,26,365.77,18.78,287.16,18.78,287.16,23.38,4.19,31.6,4.47c8.79.29,36.43-2.2,36.43-2.2s40.66-201.67,29-302.57,55.67-346.23,55.67-346.23Z"/><path class="cls-15" d="M1703.43,722.71l-32.09,23.76L1625,736.71c.64-4.23,3.7-21.76,6.49-37.63.17-.94.33-1.88.49-2.79,2.39-13.51,4.45-25.12,4.45-25.12l43.32-21.58,16.15-8.05c0,.28-1.25,15-1.42,17.14C1691.42,696.8,1703.43,722.71,1703.43,722.71Z"/><path class="cls-12" d="M1628.21,710.71c1-.42,63.09-18.74,69.83-16.51s10.74,15.27,10.74,15.27l-101.53,22.95S1615.24,716.18,1628.21,710.71Z"/><path class="cls-4" d="M1795.35,1127.19c-10.52,48-185.62,53.69-230.75,10.12-5.14-5-5.39-28.07-3.45-59.22,3.78-60.87,15.95-152.42,16.42-199.2.23-22.59,3.33-45.69,7.47-66.67a540.75,540.75,0,0,1,22.21-79.8s85.52-27.65,101.53-22.95C1785.88,732.12,1805.88,1079.19,1795.35,1127.19Z"/><path class="cls-12" d="M1561.15,1078.09c3.78-60.87,15.95-152.42,16.42-199.2.23-22.59,3.33-45.69,7.47-66.67l51.45-9.08S1686.79,1008.6,1561.15,1078.09Z"/><path class="cls-15" d="M1589,993.25s3.5,8.38-3.86,14-12.14,14.75-10.46,21.41,17.85,17.53,23.45,15.78,17-10.53,15.77-14,7.66-30.85-6-41.37S1589,993.25,1589,993.25Z"/><path class="cls-4" d="M1646.53,720.1s-50.17,9.39-90.15,68.31-66.28,102.72-58.92,124,74.5,94.88,86.07,94.88,30.25-8.42,31.3-27.36c0,0-47.26-70.83-37.95-81.44,4-4.54,61.36-51.12,69.55-30.08C1660,903.19,1646.53,720.1,1646.53,720.1Z"/><path class="cls-16" d="M1691.2,659.35c-9.51,18.2-45,33.94-59.74,39.73.17-.94.33-1.88.49-2.79,2.39-13.51,4.45-25.12,4.45-25.12l43.32-21.58C1689.29,649.44,1695.12,651.86,1691.2,659.35Z"/><path class="cls-15" d="M1622.45,672.16s64.12,20,76-20.12,28.09-64.56-12.35-79-53-1.51-60.15,10.92S1606.07,665.92,1622.45,672.16Z"/><path class="cls-13" d="M1628.42,580.06s4.09,46.69,13.75,44.66,18.41-3.53,17,10.55-14.81,30.32,14.95,32.81,72.54-74.25,64.36-88.78C1714.9,537.38,1594.33,528.92,1628.42,580.06Z"/><polygon class="cls-15" points="606.95 1665.17 663.89 1745.86 686.08 1717.37 651.81 1654.08 606.95 1665.17"/><path class="cls-15" d="M739.13,1786.38s-40.59-46.09-53-69l-30.18,15.46,67.46,63.35,15.78-2.07Z"/><path class="cls-13" d="M764,1809.36H707.71c-5-4.47-9.69-13.47-15.49-25.28-3.31-6.76-10.75-10.49-18.37-12.53v37.81H662.2l-10.79-40.21c-7.19-13.47-1.79-25.82,3.26-36.47,5.88,0,22.94,4.24,52.92,38.69,9.85,11.31,20.72,15.35,31.54,15a2.39,2.39,0,0,0,.44.24C756.64,1794.45,762.21,1804.08,764,1809.36Z"/><polygon class="cls-15" points="354.83 1661.58 374.84 1745.86 404.82 1745.69 405.92 1661.58 354.83 1661.58"/><path class="cls-13" d="M458.93,554.11c-10.35-5.88-22.75-6.52-31.42-6,2.23-2.3,6.62-3.14,6.62-3.14-5.37-.8-17.38,4.53-17.38,4.53-74.81-28.82-86.57,81.33-85,106.92s-25.13,34-64.06,54.11c-74.26,38.47-80.78,90-80.78,90,.57.34,1.18.73,1.82,1.17,3.69-6.24,11.27-18,17.67-19.73-.25.56-7.56,16.14-10.29,25.06C218,823.68,259,860.6,287.57,886.78c-.13-5.11.07-12.38,1.94-16.21L293,891.82c15.29,14,25.83,23.93,25.83,23.93C317,895.07,412.4,785.94,462.18,753.26c12.12-17.85,16.43-49.36,16.75-51.84-2.09,25-6.37,39-10.19,46.9C510.9,709.52,486.35,569.7,458.93,554.11Z"/><path class="cls-15" d="M459.23,754.88c.25.11-24,12.72-42.3,7.73-17.18-4.69-28.41-27-28.17-27,7.27-1.44,9.37-11.44,9.22-54.41l3.29.64,55.31,11s-1.26,17.4-1.3,33.8C455.25,740.35,456.08,753.41,459.23,754.88Z"/><path class="cls-17" d="M396.68,572.15s27.29-29,61.55-1.49C458.23,570.66,438.29,567.22,396.68,572.15Z"/><path class="cls-18" d="M456.58,692.78s-1.26,17.4-1.3,33.8c-30.95-.87-47.31-29.1-54-44.76Z"/><path class="cls-13" d="M395.55,675.8s-16.22-25.63-20.11-47.54c-2.78-15.65,5.19-73.64,63.47-65.29a79.24,79.24,0,0,1,32.84,12.41c12.65,8.55,30.91,27,10.49,77.61l-5.3,17.09Z"/><path class="cls-13" d="M677,1695.25l-29.32.9-31.73,1s-73.31-81.62-114.43-212.45q-1.44-4.56-3-9.24c-22.51-65.62-69.16-148-93.74-222.53-3.92-11.88-7.43-23.06-10.58-33.64-1-3.38-2-6.71-2.93-10-18.12-63-23.37-104.28-28.2-148.44l177.53,1.42S569.26,1363.8,677,1695.25Z"/><path class="cls-19" d="M516.26,960.24c-.43,84.48,12.15,120.72,12.15,120.72s-74.48,38.62-163,10.19c-1.05-.33-73.29-17.16-73.29-17.16,1.48-3.42,14.65-60.35,16.09-63.49,18.69-41,32.88-58.92,35.1-71.51,4.11-23.51,4.2-47.84,2.15-70.78A578.35,578.35,0,0,0,324,757.06c24.12-5.6,47.33-15.18,72.43-24.78,5.77,7.33,22.8,14.75,38.11,14.4,17.63-.4,23.14-8,22.49-16.58,18.79,10.67,33.73,20.82,33.73,20.82,16,28.31,48.35,55.8,50.7,99.23C542.05,860.83,516.28,957.87,516.26,960.24Z"/><path class="cls-20" d="M363.07,969.65c-7.76,11-22.64,77.75-59.65,86.14,19.07-47.58,33.55-68.44,35.81-83.07,4.2-27.31,4.29-55.56,2.2-82.21,12.39-21.72,21.64-36.61,21.64-36.61,1-3.51,19.69-61.39,25.69-9.66S371.74,957.37,363.07,969.65Z"/><path class="cls-15" d="M466.92,708.31s-73.24,1.2-73.29-44.41S384.1,587.71,430.85,585s55.86,14.7,59.58,29.92S486,706.81,466.92,708.31Z"/><path class="cls-13" d="M488.25,589.57c-11.3-13.7-19.84-10.72-24.64-6.61-15.83-23.65-65.85,10.55-65.85,10.55-4.89,32.73-28.5,51.48-28.5,51.48s13.35,8.25,44.12.34c24.22-6.23,41.79-40.7,48.18-55.1,4.36,3.87,13.55,12.81,16.3,21.57,3.65,11.62,5.29,35.53,12.26,34.72C490.12,646.52,505.23,610.14,488.25,589.57Z"/><path class="cls-15" d="M373.84,1741.15A81.25,81.25,0,0,1,370,1775.7s-4.91,22.35,17.11,22.77,27.41-1.66,24.92-15.37-7.23-37.41-7.23-37.41Z"/><path class="cls-13" d="M414.13,1809.44l-.08,0H368.51l-.07,0c-2.5-11.69,1.58-33.71,1.58-33.71,24.93,23.83,40.53-.6,40.53-.6C414.59,1785.32,414.13,1809.44,414.13,1809.44Z"/><path class="cls-4" d="M761.29,784s-48.08,26.88-65.24,34.63c-6.11,2.75-17.18,7.9-28.48,13.18-6.82,3.19-13.73,6.43-19.71,9.25a24.78,24.78,0,0,1-29.36-6.34c-26-30.39-93.39-96.27-163-104.52l-.24-.11,0,.08h-.09l.39.75c3.91,9.72,42.05,105,43.23,125.1,1.24,21.19,5,346.41,5,346.41s-2.49,15,26.17,8.72,36.14-12.46,36.14-12.46S538.73,998.08,546.21,928.3c1.47-13.7.14-29.08-2.92-45,42.37,25.66,92.32,37.07,92.32,37.07s18.64-8.13,47.59-26.06c12.15-7.55,26.25-19.57,40.12-32.29,16.76-15.36,45.61-52.49,45.61-52.49Z"/><path class="cls-14" d="M647.72,1696.15l-31.73,1s-73.31-81.62-114.43-212.45q-1.44-4.56-3-9.24c-22.51-65.62-69.16-148-93.74-222.53-3.92-11.88-7.43-23.06-10.58-33.64-1-3.38-2-6.71-2.93-10l26.14-19.84s78.49,127.1,102.79,246.71C541.31,1540,625.84,1665.06,647.72,1696.15Z"/><path class="cls-13" d="M420.14,1447.28c.45,58.17-2.49,191.9-10.07,247.26H382c-15.54,0-23.29-.22-23.29-.22-19-96.26-32.52-175.91-42.36-244.55-8.08-56.32-15.26-104.6-20.78-146.17-5.55-41.83-9.42-76.86-10.8-106.45q-.32-7-.46-13.6t-.08-12.89l153.4-15C435.65,1257.62,419.89,1413.48,420.14,1447.28Z"/><path class="cls-14" d="M382,1694.54c-15.54,0-23.29-.22-23.29-.22-19-96.26-32.52-175.91-42.36-244.55-8.08-56.32-15.26-104.6-20.78-146.17-5.55-41.83-9.42-76.86-10.8-106.45l56.28,33.1s-35.92,12.68-22.21,108.63S362.88,1681,382,1694.54Z"/><path class="cls-4" d="M389.2,1196.2s-10.8,39-48.18,34.06-90.54-27.42-90.54-27.42,16-50.47,35.84-116.79c24.05-80.28,53.81-183.78,67.84-249.06,3.94-18.3,6.63-33.57,7.63-44.52l31.66-60.19s45.6,103.81,48.09,130S389.2,1196.2,389.2,1196.2Z"/><path class="cls-15" d="M522.71,891.46c-18,2.37-24.89,11.93-27.11,24.83-1.2,7-4.79,13.84-7.83,18.7-17.93,1-60.61,3.28-96.47,5.55l-2.95,47c29.45-3.67,65.65-11.15,107.31-25.41,3.2-.54,7.2-2.53,12.22-6.63,25.81-21.15,40.46-56.55,40.51-61.62S540.7,889.1,522.71,891.46Z"/><path class="cls-21" d="M387.55,917.08c-1.67,42.37-11.64,124.61-100.52,168.63-.24.11-.48.24-.71.34,24.05-80.28,53.81-183.78,67.84-249.06C370.49,861.38,388.46,893.76,387.55,917.08Z"/><path class="cls-4" d="M393.45,732.28s-76,5.39-94.31,46.09-24.09,176.11-.83,216c0,0,32,9.12,88.66-1.47l2.1-.4s18.07-44.24,1.87-53c0,0-47.77,2.49-42.78-13.29S393.45,732.28,393.45,732.28Z"/><path class="cls-15" d="M812.83,752.07C771.93,746.81,761.6,784,761.6,784l7.64,25.55c12.61,1.74,23.64-1.55,33.81-16.09s13-9,19.42-19.79C831.24,759,817.52,753.54,812.83,752.07Z"/><path class="cls-15" d="M696.05,818.64c-6.11,2.75-17.18,7.9-28.48,13.18,6,10.74,13.62,30.26,15.63,62.52,12.15-7.55,27.89-20.1,41.32-33.29,21.55-21.15,44.41-51.49,44.41-51.49L761.29,784S713.21,810.89,696.05,818.64Z"/></g></svg>