<svg xmlns="http://www.w3.org/2000/svg" viewBox="0 0 2438.81 1830.13"><defs><style>.cls-1{fill:#ebf2f9;}.cls-2,.cls-3{fill:#2b478b;}.cls-3{stroke:#f7941e;stroke-miterlimit:10;stroke-width:5px;}.cls-4{fill:#ffa412;}.cls-5{fill:#ffb93e;}.cls-6{fill:#e2810e;}.cls-7{fill:#ffeddc;}.cls-8{fill:#db6a1d;}.cls-9{fill:#e5c1a1;}.cls-10{fill:#f9ddbf;}.cls-11{fill:#233862;}.cls-12{fill:#ed7d2b;}.cls-13{fill:#ffb27d;}.cls-14{fill:#f99746;}.cls-15{fill:#ed975d;}.cls-16{fill:#ffbf9d;}.cls-17{fill:#fff;}.cls-18{fill:#ebf3fa;}</style></defs><title>Монтажная область 2 copy 3</title><g id="Layer_3" data-name="Layer 3"><path class="cls-1" d="M1347.08,25.35c-592.24,0-1072.34,480.1-1072.34,1072.34,0,275.08,103.59,526,273.87,715.78H2145.54c170.29-189.82,273.88-440.7,273.88-715.78C2419.42,505.45,1939.32,25.35,1347.08,25.35Z"/><polygon class="cls-2" points="2206.72 863.68 1935.27 953.46 1989.76 998.87 1989.76 998.87 1754.88 1244.76 1548.99 1067.98 727.14 1741.38 734.38 1741.49 939.11 1741.49 1546.97 1243.43 1764.03 1429.8 2093.26 1085.14 2093.26 1085.13 2152.09 1134.15 2206.72 863.68"/><polygon class="cls-3" points="890.57 1388.51 826.73 1812.85 261.02 1727.72 261.01 1727.71 22.66 1691.85 86.5 1267.53 531.56 1334.49 890.57 1388.51"/><path class="cls-3" d="M837.46,1429l-49.57,329.43L65.18,1649.72l49.57-329.43Zm-53.52,287.5,37.38-248.44A30.88,30.88,0,0,0,795.38,1433l-641-96.45a31.42,31.42,0,0,0-35.76,26.4L81.37,1610.37a31.16,31.16,0,0,0,26.18,35.46L749,1742.35A30.73,30.73,0,0,0,783.94,1716.54Z"/><path class="cls-3" d="M438,1628a89.63,89.63,0,1,1,102-75.3A89.64,89.64,0,0,1,438,1628Z"/><polygon class="cls-3" points="942.64 1390.49 606.09 1656.71 251.19 1208.03 251.18 1208.02 101.64 1018.98 438.18 752.77 717.4 1105.75 942.64 1390.49"/><path class="cls-3" d="M876.17,1383.79,614.89,1590.47l-453.41-573.2L422.75,810.59ZM640.65,1557.15l197-155.86a30.88,30.88,0,0,0,5.06-43.38L440.59,849.51a31.43,31.43,0,0,0-44.15-5.16L200.18,999.6a31.17,31.17,0,0,0-5.11,43.78l402.42,508.74A30.73,30.73,0,0,0,640.65,1557.15Z"/><circle class="cls-3" cx="518.82" cy="1200.54" r="89.63" transform="translate(-514.06 398.28) rotate(-28.79)"/><path class="cls-4" d="M1670.18,917.77a9.31,9.31,0,0,1,1.27-2h0a9.15,9.15,0,0,1,1.24-1.25l1.87-1.9.49.36c9.57-4.68,29.33.29,49.31,13.34,24.16,15.77,39.67,37.48,35.2,49l.68.5-2.69,2.68-.39.39-.08.08h0a10.52,10.52,0,0,1-2.33,1.62h0c-9.45,4.95-29.42,0-49.63-13.17C1680.49,951.37,1664.86,929.13,1670.18,917.77Z"/><path class="cls-5" d="M1727.25,923.41c-24.61-16.07-48.88-19.88-54.2-8.51s10.32,33.6,34.93,49.66,48.87,19.88,54.19,8.52S1751.86,939.48,1727.25,923.41Z"/><path class="cls-4" d="M1709.34,961.35c-10.3-6.75-19.18-14.88-25-22.9-5.95-8.2-8-15.39-5.79-20.23a9.37,9.37,0,0,1,6.33-5c9.08-2.62,25.17,2.38,41,12.74h0c10.31,6.75,19.18,14.88,25,22.9,5.95,8.2,8,15.39,5.78,20.23a9.37,9.37,0,0,1-6.33,5,19.24,19.24,0,0,1-5.41.69C1735.59,974.78,1722.37,969.88,1709.34,961.35Zm-23.95-46.44a7.64,7.64,0,0,0-5.19,4.07c-1.91,4.16.14,10.87,5.61,18.41,5.69,7.85,14.4,15.82,24.52,22.45C1723,968.1,1736.05,973,1745,973a17.58,17.58,0,0,0,4.85-.61,7.64,7.64,0,0,0,5.19-4.07c1.91-4.16-.13-10.87-5.61-18.41-5.68-7.85-14.39-15.82-24.51-22.45-12.62-8.26-25.73-13.13-34.65-13.13A17.65,17.65,0,0,0,1685.39,914.91Z"/><path class="cls-4" d="M1818.82,340.38a6.6,6.6,0,0,1,.9-1.44h0a5.7,5.7,0,0,1,.88-.89l1.32-1.35.35.26c6.79-3.33,20.82.2,35,9.46,17.15,11.2,28.16,26.62,25,34.81l.48.36-1.9,1.9-.29.28,0,.05h0a7.26,7.26,0,0,1-1.65,1.15h0c-6.7,3.51-20.88,0-35.23-9.35C1826.14,364.23,1815,348.44,1818.82,340.38Z"/><path class="cls-5" d="M1859.33,344.38c-17.47-11.41-34.69-14.11-38.47-6s7.32,23.85,24.79,35.26,34.7,14.11,38.48,6S1876.8,355.79,1859.33,344.38Z"/><path class="cls-4" d="M1846.62,371.31a69,69,0,0,1-17.74-16.25c-4.23-5.83-5.69-10.93-4.11-14.36a6.66,6.66,0,0,1,4.49-3.59c6.45-1.85,17.87,1.7,29.11,9.05h0a68.8,68.8,0,0,1,17.74,16.26c4.22,5.82,5.68,10.92,4.11,14.36a6.68,6.68,0,0,1-4.5,3.58,13.76,13.76,0,0,1-3.84.49C1865.25,380.85,1855.87,377.37,1846.62,371.31Zm-17-33a5.44,5.44,0,0,0-3.69,2.88c-1.35,3,.1,7.72,4,13.08,4,5.57,10.22,11.22,17.4,15.93,9,5.87,18.26,9.32,24.6,9.32a12.57,12.57,0,0,0,3.45-.43,5.43,5.43,0,0,0,3.68-2.89c1.36-2.95-.1-7.71-4-13.07a67.37,67.37,0,0,0-17.41-15.93c-9-5.87-18.26-9.33-24.59-9.33A12.19,12.19,0,0,0,1829.62,338.35Z"/><path class="cls-4" d="M1881.54,798.08a7.25,7.25,0,0,0-.93-1.48h0a7.11,7.11,0,0,0-.9-.92l-1.37-1.38-.36.26c-7-3.42-21.43.21-36,9.74-17.66,11.53-29,27.4-25.72,35.83l-.5.37,2,2,.29.29,0,0h0a7.68,7.68,0,0,0,1.7,1.18h0c6.9,3.62,21.49,0,36.26-9.62C1874,822.64,1885.43,806.39,1881.54,798.08Z"/><path class="cls-5" d="M1839.84,802.2c18-11.74,35.71-14.52,39.6-6.22s-7.54,24.56-25.52,36.3-35.71,14.52-39.6,6.22S1821.85,813.94,1839.84,802.2Z"/><path class="cls-4" d="M1826.93,839.74a14.25,14.25,0,0,1-4-.5,6.89,6.89,0,0,1-4.63-3.69c-1.62-3.53-.12-8.78,4.23-14.78s10.74-11.8,18.26-16.73h0c11.56-7.57,23.32-11.23,30-9.31a6.81,6.81,0,0,1,4.62,3.68c1.63,3.54.12,8.79-4.23,14.79-4.24,5.85-10.73,11.8-18.26,16.73C1843.4,836.16,1833.74,839.74,1826.93,839.74Zm39.94-44.19c-6.52,0-16.1,3.56-25.31,9.59-7.4,4.85-13.76,10.67-17.92,16.4-4,5.52-5.49,10.42-4.1,13.46a5.58,5.58,0,0,0,3.79,3,12.91,12.91,0,0,0,3.55.45c6.52,0,16.1-3.56,25.32-9.6a69.49,69.49,0,0,0,17.92-16.4c4-5.51,5.49-10.42,4.09-13.46a5.59,5.59,0,0,0-3.79-3A12.87,12.87,0,0,0,1866.87,795.55Z"/><path class="cls-4" d="M1677.81,475.68a3.81,3.81,0,0,1,.57-.9h0a4.15,4.15,0,0,1,.55-.56l.83-.84.22.16c4.25-2.08,13,.12,21.92,5.92,10.74,7,17.63,16.67,15.64,21.8l.31.22-1.2,1.19-.17.18,0,0h0a5.56,5.56,0,0,1-1,.72h0c-4.2,2.2-13.07,0-22.06-5.85C1682.39,490.61,1675.45,480.73,1677.81,475.68Z"/><path class="cls-5" d="M1703.18,478.19c-10.94-7.15-21.73-8.84-24.09-3.79s4.58,14.94,15.52,22.08,21.73,8.83,24.09,3.78S1714.12,485.33,1703.18,478.19Z"/><path class="cls-4" d="M1695.22,495.05a42.94,42.94,0,0,1-11.11-10.18c-2.65-3.65-3.56-6.84-2.57-9a4.14,4.14,0,0,1,2.81-2.24c4-1.17,11.19,1.06,18.22,5.66h0a42.94,42.94,0,0,1,11.11,10.18c2.65,3.65,3.56,6.84,2.57,9a4.18,4.18,0,0,1-2.81,2.25,8.93,8.93,0,0,1-2.41.3C1706.88,501,1701,498.84,1695.22,495.05Zm-10.65-20.64a3.37,3.37,0,0,0-2.3,1.8c-.85,1.85.06,4.84,2.49,8.19a42.31,42.31,0,0,0,10.9,10c5.61,3.67,11.43,5.83,15.4,5.83a7.56,7.56,0,0,0,2.16-.27,3.37,3.37,0,0,0,2.3-1.8c.85-1.85-.06-4.84-2.49-8.19a42.31,42.31,0,0,0-10.9-10c-5.61-3.67-11.43-5.83-15.4-5.83A7.93,7.93,0,0,0,1684.57,474.41Z"/><path class="cls-4" d="M859.91,820.53a7.94,7.94,0,0,0-1.07-1.69h0a8.6,8.6,0,0,0-1-1.05l-1.58-1.6-.41.31c-8-3.94-24.65.23-41.44,11.2-20.31,13.25-33.34,31.5-29.58,41.2l-.57.43,2.26,2.25.33.33.06.06,0,0a9.9,9.9,0,0,0,2,1.36h0c7.94,4.16,24.72,0,41.7-11.07C851.24,848.77,864.38,830.09,859.91,820.53Z"/><path class="cls-5" d="M812,825.28c20.68-13.51,41.07-16.71,45.55-7.16s-8.67,28.24-29.35,41.74S787.08,876.57,782.6,867,791.27,838.78,812,825.28Z"/><path class="cls-4" d="M797.1,868.44a16.42,16.42,0,0,1-4.55-.57,7.87,7.87,0,0,1-5.32-4.24c-1.86-4.07-.14-10.11,4.87-17s12.34-13.57,21-19.24h0c13.29-8.71,26.82-12.91,34.45-10.72a7.88,7.88,0,0,1,5.32,4.25c1.86,4.06.13,10.1-4.87,17-4.88,6.73-12.34,13.57-21,19.24C816.05,864.33,804.94,868.44,797.1,868.44ZM843,817.62c-7.49,0-18.51,4.09-29.11,11-8.51,5.58-15.82,12.27-20.61,18.87-4.59,6.34-6.31,12-4.71,15.47a6.42,6.42,0,0,0,4.36,3.42,15,15,0,0,0,4.08.51c7.5,0,18.52-4.09,29.12-11,8.51-5.57,15.82-12.27,20.6-18.86,4.6-6.35,6.32-12,4.72-15.48a6.47,6.47,0,0,0-4.36-3.42A15.05,15.05,0,0,0,843,817.62Z"/><path class="cls-4" d="M640.72,561.31a4.39,4.39,0,0,0-.63-1h0a4.93,4.93,0,0,0-.6-.61l-.92-.93-.24.18c-4.68-2.29-14.35.14-24.13,6.52-11.83,7.72-19.41,18.35-17.23,24l-.33.24L598,591l.19.2,0,0h0a4.92,4.92,0,0,0,1.14.79h0c4.63,2.42,14.4,0,24.29-6.45C635.67,577.75,643.32,566.87,640.72,561.31Z"/><path class="cls-5" d="M612.79,564.07c12-7.87,23.92-9.73,26.52-4.17s-5,16.44-17.09,24.3-23.92,9.73-26.52,4.17S600.75,571.93,612.79,564.07Z"/><path class="cls-4" d="M604.14,589.2a9.91,9.91,0,0,1-2.65-.33,4.58,4.58,0,0,1-3.09-2.47c-1.09-2.37-.08-5.89,2.83-9.9a47.23,47.23,0,0,1,12.23-11.2h0c7.74-5.07,15.61-7.52,20.06-6.24a4.59,4.59,0,0,1,3.1,2.47c1.08,2.37.08,5.88-2.84,9.9a47.41,47.41,0,0,1-12.23,11.2C615.18,586.81,608.71,589.2,604.14,589.2Zm26.76-29.59c-4.37,0-10.78,2.38-17,6.42a46.82,46.82,0,0,0-12,11c-2.67,3.69-3.67,7-2.74,9a3.74,3.74,0,0,0,2.54,2,8.6,8.6,0,0,0,2.38.3c4.36,0,10.78-2.39,17-6.43a46.61,46.61,0,0,0,12-11c2.68-3.69,3.68-7,2.74-9a3.69,3.69,0,0,0-2.54-2A8.58,8.58,0,0,0,630.9,559.61Z"/><path class="cls-4" d="M838.57,636.5a5.86,5.86,0,0,1,.8-1.26h0a6.3,6.3,0,0,1,.77-.78l1.17-1.19.31.23c6-2.93,18.33.18,30.82,8.33,15.1,9.86,24.8,23.44,22,30.65l.43.31-1.68,1.68-.25.24-.05,0h0a6.82,6.82,0,0,1-1.45,1h0c-5.91,3.09-18.39,0-31-8.23C845,657.5,835.24,643.6,838.57,636.5Z"/><path class="cls-5" d="M874.24,640c-15.38-10-30.55-12.43-33.87-5.32s6.44,21,21.82,31,30.55,12.42,33.88,5.32S889.62,650.07,874.24,640Z"/><path class="cls-4" d="M863.05,663.74a60.59,60.59,0,0,1-15.62-14.31c-3.72-5.13-5-9.62-3.62-12.65a5.86,5.86,0,0,1,4-3.15c5.67-1.64,15.73,1.49,25.62,8h0A60.58,60.58,0,0,1,889,655.91c3.72,5.13,5,9.62,3.62,12.64a5.9,5.9,0,0,1-4,3.16,12.62,12.62,0,0,1-3.39.43C879.45,672.13,871.19,669.07,863.05,663.74Zm-15-29a4.78,4.78,0,0,0-3.24,2.55c-1.2,2.6.08,6.79,3.5,11.51a59.47,59.47,0,0,0,15.33,14c7.88,5.17,16.07,8.21,21.65,8.21a10.9,10.9,0,0,0,3-.38,4.77,4.77,0,0,0,3.24-2.54c1.19-2.6-.08-6.79-3.5-11.51a59.5,59.5,0,0,0-15.33-14c-7.89-5.16-16.08-8.21-21.66-8.21A11.26,11.26,0,0,0,848.08,634.71Z"/><path class="cls-5" d="M2014.2,1787.89v18.61a6.35,6.35,0,0,1-1.47,4,8.51,8.51,0,0,1-4,2.68,8.87,8.87,0,0,1-1.56.37,9.34,9.34,0,0,1-1.51.11H1652.56c-4.55,0-8.3-3-8.53-6.8,0-.12,0-.25,0-.37v-18.61c0-.13,0-.25,0-.37.23-3.78,4-6.81,8.53-6.81h353.09a9.33,9.33,0,0,1,1.51.12,9.84,9.84,0,0,1,1.56.36,8.53,8.53,0,0,1,4,2.69A6.33,6.33,0,0,1,2014.2,1787.89Z"/><path class="cls-4" d="M1840.81,1813.67H1651.64a7.46,7.46,0,0,1-7.61-6.8c0-.12,0-.25,0-.37v-18.61c0-.13,0-.25,0-.37a7.46,7.46,0,0,1,7.61-6.81h165.94A57.76,57.76,0,0,0,1840.81,1813.67Z"/><rect class="cls-4" x="1967.22" y="1780.71" width="4.01" height="32.96"/><rect class="cls-4" x="1953.63" y="1780.71" width="4.01" height="32.96"/><rect class="cls-4" x="1937.34" y="1780.71" width="4.01" height="32.96"/><rect class="cls-4" x="1912.37" y="1780.71" width="4.01" height="32.96"/><rect class="cls-4" x="1885.97" y="1780.71" width="4.01" height="32.96"/><rect class="cls-4" x="1845.49" y="1780.71" width="4.01" height="32.96"/><rect class="cls-4" x="1807.59" y="1780.71" width="4.01" height="32.96"/><rect class="cls-4" x="1773.75" y="1780.71" width="4.01" height="32.96"/><rect class="cls-4" x="1980.15" y="1780.71" width="4.01" height="32.96"/><rect class="cls-4" x="1988.69" y="1780.71" width="4.01" height="32.96"/><rect class="cls-4" x="1996.94" y="1780.71" width="4.01" height="32.96"/><path class="cls-4" d="M2007.16,1780.83v32.73a9.34,9.34,0,0,1-1.51.11h-2.5v-33h2.5A9.33,9.33,0,0,1,2007.16,1780.83Z"/><path class="cls-4" d="M2012.73,1783.88v26.63a8.51,8.51,0,0,1-4,2.68v-32A8.53,8.53,0,0,1,2012.73,1783.88Z"/><path class="cls-5" d="M1976.45,1754.92v18.62a6.3,6.3,0,0,1-1.47,4,8.46,8.46,0,0,1-4,2.69,9.86,9.86,0,0,1-1.56.37,10.62,10.62,0,0,1-1.51.11H1614.81c-4.55,0-8.3-3-8.54-6.8,0-.13,0-.25,0-.37v-18.62c0-.12,0-.24,0-.37.24-3.77,4-6.8,8.54-6.8H1967.9l.68,0a2.66,2.66,0,0,1,.28,0,3.16,3.16,0,0,1,.32,0l.23,0a9.86,9.86,0,0,1,1.56.37l.22.08.22.08.43.17.25.12.21.1.41.22a3.87,3.87,0,0,1,.43.27,2.75,2.75,0,0,1,.33.23h0l.22.16a6.48,6.48,0,0,1,.62.54c.06.06.12.11.17.17l.17.17c.1.12.21.24.31.37A6.3,6.3,0,0,1,1976.45,1754.92Z"/><path class="cls-4" d="M1803.06,1780.71H1613.89a7.47,7.47,0,0,1-7.62-6.8c0-.13,0-.25,0-.37v-18.62c0-.12,0-.24,0-.37a7.47,7.47,0,0,1,7.62-6.8h165.93c.08.27.15.54.23.81A57.71,57.71,0,0,0,1803.06,1780.71Z"/><rect class="cls-4" x="1929.47" y="1747.75" width="4.01" height="32.96"/><rect class="cls-4" x="1915.88" y="1747.75" width="4.01" height="32.96"/><rect class="cls-4" x="1899.59" y="1747.75" width="4.01" height="32.96"/><rect class="cls-4" x="1874.62" y="1747.75" width="4.01" height="32.96"/><rect class="cls-4" x="1848.22" y="1747.75" width="4.01" height="32.96"/><rect class="cls-4" x="1807.74" y="1747.75" width="4.01" height="32.96"/><rect class="cls-4" x="1769.84" y="1747.75" width="4.01" height="32.96"/><rect class="cls-4" x="1736" y="1747.75" width="4.01" height="32.96"/><rect class="cls-4" x="1942.4" y="1747.75" width="4.01" height="32.96"/><rect class="cls-4" x="1950.94" y="1747.75" width="4.01" height="32.96"/><rect class="cls-4" x="1959.19" y="1747.75" width="4.01" height="32.96"/><path class="cls-4" d="M1969.41,1747.86v32.74a10.62,10.62,0,0,1-1.51.11h-2.51v-33h2.51A10.62,10.62,0,0,1,1969.41,1747.86Z"/><path class="cls-4" d="M1975,1750.92v26.62a8.53,8.53,0,0,1-4,2.69v-32A8.46,8.46,0,0,1,1975,1750.92Z"/><path class="cls-5" d="M1994.69,1722.77v18.62a6.3,6.3,0,0,1-1.47,4,8.53,8.53,0,0,1-4,2.69,9.86,9.86,0,0,1-1.56.37,10.59,10.59,0,0,1-1.5.11h-353.1a9.77,9.77,0,0,1-3.94-.81,7.31,7.31,0,0,1-4.56-5.67,1.82,1.82,0,0,1,0-.32c0-.13,0-.25,0-.37v-18.62c0-.12,0-.24,0-.37.23-3.77,4-6.8,8.53-6.8h353.1a10.59,10.59,0,0,1,1.5.11,8.87,8.87,0,0,1,1.56.37,8.46,8.46,0,0,1,4,2.69A6.3,6.3,0,0,1,1994.69,1722.77Z"/><path class="cls-4" d="M1821.3,1748.56H1632.14a7.92,7.92,0,0,1-3.52-.81,7.21,7.21,0,0,1-4.07-5.67,1.82,1.82,0,0,1,0-.32c0-.13,0-.25,0-.37v-18.62c0-.12,0-.24,0-.37a7.46,7.46,0,0,1,7.62-6.8h165.93a57.86,57.86,0,0,0,22.07,32.15Z"/><rect class="cls-4" x="1947.71" y="1715.6" width="4.01" height="32.96"/><rect class="cls-4" x="1934.13" y="1715.6" width="4.01" height="32.96"/><rect class="cls-4" x="1917.84" y="1715.6" width="4.01" height="32.96"/><rect class="cls-4" x="1892.87" y="1715.6" width="4.01" height="32.96"/><rect class="cls-4" x="1866.46" y="1715.6" width="4.01" height="32.96"/><rect class="cls-4" x="1825.98" y="1715.6" width="4.01" height="32.96"/><rect class="cls-4" x="1788.08" y="1715.6" width="4.01" height="32.96"/><rect class="cls-4" x="1754.24" y="1715.6" width="4.01" height="32.96"/><rect class="cls-4" x="1960.64" y="1715.6" width="4.01" height="32.96"/><rect class="cls-4" x="1969.18" y="1715.6" width="4.01" height="32.96"/><rect class="cls-4" x="1977.43" y="1715.6" width="4.01" height="32.96"/><path class="cls-4" d="M1987.65,1715.71v32.73a9.29,9.29,0,0,1-1.5.12h-2.51v-33h2.51A10.59,10.59,0,0,1,1987.65,1715.71Z"/><path class="cls-4" d="M1993.22,1718.76v26.63a8.55,8.55,0,0,1-4,2.69v-32A8.53,8.53,0,0,1,1993.22,1718.76Z"/><path class="cls-5" d="M2003.15,1689.81v18.61a6.33,6.33,0,0,1-1.47,4,8.51,8.51,0,0,1-4,2.68,8.87,8.87,0,0,1-1.56.37,9.33,9.33,0,0,1-1.51.12H1641.51c-4.55,0-8.3-3-8.53-6.81,0-.12,0-.24,0-.37v-18.61c0-.13,0-.25,0-.37.21-3.5,3.43-6.35,7.52-6.75a8.31,8.31,0,0,1,1-.06H1994.6a9.33,9.33,0,0,1,1.51.12,8.87,8.87,0,0,1,1.56.37,8.51,8.51,0,0,1,4,2.68A6.33,6.33,0,0,1,2003.15,1689.81Z"/><path class="cls-4" d="M1829.76,1715.6H1640.59a7.46,7.46,0,0,1-7.61-6.81c0-.12,0-.24,0-.37v-18.61c0-.13,0-.25,0-.37a7.38,7.38,0,0,1,6.71-6.75,6.69,6.69,0,0,1,.9-.06h165.94s0,0,0,.06A57.85,57.85,0,0,0,1829.76,1715.6Z"/><rect class="cls-4" x="1956.17" y="1682.63" width="4.01" height="32.96"/><rect class="cls-4" x="1942.58" y="1682.63" width="4.01" height="32.96"/><rect class="cls-4" x="1926.29" y="1682.63" width="4.01" height="32.96"/><rect class="cls-4" x="1901.32" y="1682.63" width="4.01" height="32.96"/><rect class="cls-4" x="1874.92" y="1682.63" width="4.01" height="32.96"/><rect class="cls-4" x="1834.44" y="1682.63" width="4.01" height="32.96"/><rect class="cls-4" x="1796.54" y="1682.63" width="4.01" height="32.96"/><rect class="cls-4" x="1762.7" y="1682.63" width="4.01" height="32.96"/><rect class="cls-4" x="1969.1" y="1682.63" width="4.01" height="32.96"/><rect class="cls-4" x="1977.64" y="1682.63" width="4.01" height="32.96"/><rect class="cls-4" x="1985.89" y="1682.63" width="4.01" height="32.96"/><path class="cls-4" d="M1996.11,1682.75v32.73a9.33,9.33,0,0,1-1.51.12h-2.5v-33h2.5A9.33,9.33,0,0,1,1996.11,1682.75Z"/><path class="cls-4" d="M2001.68,1685.8v26.63a8.51,8.51,0,0,1-4,2.68v-32A8.44,8.44,0,0,1,2001.68,1685.8Z"/><path class="cls-5" d="M1977.19,1656.9v18.61a6.35,6.35,0,0,1-1.47,4,8.51,8.51,0,0,1-4,2.68,8.87,8.87,0,0,1-1.56.37c-.16,0-.33,0-.5.06l-.27,0h-.28l-.46,0H1615.55c-4.55,0-8.3-3-8.53-6.81,0-.12,0-.25,0-.37V1656.9c0-.13,0-.25,0-.37a2.83,2.83,0,0,1,0-.3c.34-3,3-5.55,6.4-6.29l.26,0a10.27,10.27,0,0,1,1.85-.17h353.09c.26,0,.52,0,.77,0l.34,0h0l.4.06a8.87,8.87,0,0,1,1.56.37,8.44,8.44,0,0,1,4,2.68A6.33,6.33,0,0,1,1977.19,1656.9Z"/><path class="cls-4" d="M1803.8,1682.69H1614.63a7.46,7.46,0,0,1-7.61-6.81c0-.12,0-.25,0-.37V1656.9c0-.13,0-.25,0-.37a2.83,2.83,0,0,1,0-.3,7.37,7.37,0,0,1,5.92-6.33,1.65,1.65,0,0,1,.32-.06,7.53,7.53,0,0,1,1.35-.12h165.94l.06.24a57.78,57.78,0,0,0,23.09,32.67Z"/><rect class="cls-4" x="1930.21" y="1649.72" width="4.01" height="32.96"/><rect class="cls-4" x="1916.62" y="1649.72" width="4.01" height="32.96"/><rect class="cls-4" x="1900.33" y="1649.72" width="4.01" height="32.96"/><rect class="cls-4" x="1875.36" y="1649.72" width="4.01" height="32.96"/><rect class="cls-4" x="1848.96" y="1649.72" width="4.01" height="32.96"/><rect class="cls-4" x="1808.48" y="1649.72" width="4.01" height="32.96"/><rect class="cls-4" x="1770.58" y="1649.72" width="4.01" height="32.96"/><rect class="cls-4" x="1736.74" y="1649.72" width="4.01" height="32.96"/><rect class="cls-4" x="1943.14" y="1649.72" width="4.01" height="32.96"/><rect class="cls-4" x="1951.68" y="1649.72" width="4.01" height="32.96"/><rect class="cls-4" x="1959.93" y="1649.72" width="4.01" height="32.96"/><path class="cls-4" d="M1970.15,1649.84v32.73a10.62,10.62,0,0,1-1.51.11h-2.5v-33h2.5A9.33,9.33,0,0,1,1970.15,1649.84Z"/><path class="cls-4" d="M1975.72,1652.89v26.63a8.51,8.51,0,0,1-4,2.68v-32A8.53,8.53,0,0,1,1975.72,1652.89Z"/><path class="cls-5" d="M1976.45,1624.17v18.61a6.35,6.35,0,0,1-1.47,4,8.51,8.51,0,0,1-4,2.68,8.07,8.07,0,0,1-1.22.31h0l-.33.06a9.33,9.33,0,0,1-1.51.12H1614.81a8.17,8.17,0,0,1-1.11-.07l-.42-.05c-3.84-.59-6.8-3.35-7-6.69,0-.12,0-.25,0-.37v-18.61c0-.13,0-.25,0-.37.24-3.78,4-6.81,8.54-6.81H1967.9c.23,0,.46,0,.68,0l.28,0,.32,0a1.81,1.81,0,0,1,.23,0,8.87,8.87,0,0,1,1.56.37l.22.07.22.08.43.17.46.23c.14.06.27.14.41.21l.43.27c.12.08.23.15.33.23l0,0,.22.16c.22.17.43.35.62.53l.17.17.17.18.31.36A6.33,6.33,0,0,1,1976.45,1624.17Z"/><path class="cls-4" d="M1803.06,1650H1613.89l-.45,0a3.88,3.88,0,0,1-.48,0,7.4,7.4,0,0,1-6.69-6.75c0-.12,0-.25,0-.37v-18.61c0-.13,0-.25,0-.37a7.47,7.47,0,0,1,7.62-6.81h165.93c.08.27.15.54.23.81a57.72,57.72,0,0,0,22.67,31.92Z"/><rect class="cls-4" x="1929.47" y="1616.99" width="4.01" height="32.96"/><rect class="cls-4" x="1915.88" y="1616.99" width="4.01" height="32.96"/><rect class="cls-4" x="1899.59" y="1616.99" width="4.01" height="32.96"/><rect class="cls-4" x="1874.62" y="1616.99" width="4.01" height="32.96"/><rect class="cls-4" x="1848.22" y="1616.99" width="4.01" height="32.96"/><rect class="cls-4" x="1807.74" y="1616.99" width="4.01" height="32.96"/><rect class="cls-4" x="1769.84" y="1616.99" width="4.01" height="32.96"/><rect class="cls-4" x="1736" y="1616.99" width="4.01" height="32.96"/><rect class="cls-4" x="1942.4" y="1616.99" width="4.01" height="32.96"/><rect class="cls-4" x="1950.94" y="1616.99" width="4.01" height="32.96"/><rect class="cls-4" x="1959.19" y="1616.99" width="4.01" height="32.96"/><path class="cls-4" d="M1969.41,1617.11v32.73a9.33,9.33,0,0,1-1.51.12h-2.51v-33h2.51A9.33,9.33,0,0,1,1969.41,1617.11Z"/><path class="cls-4" d="M1975,1620.16v26.63a8.51,8.51,0,0,1-4,2.68v-32A8.51,8.51,0,0,1,1975,1620.16Z"/><path class="cls-5" d="M1994.69,1592v18.61a6.35,6.35,0,0,1-1.47,4,8.51,8.51,0,0,1-4,2.68,8.87,8.87,0,0,1-1.56.37,9.3,9.3,0,0,1-1.5.11h-353.1a9.77,9.77,0,0,1-3.94-.81,7.31,7.31,0,0,1-4.56-5.67,1.73,1.73,0,0,1,0-.32c0-.12,0-.25,0-.37V1592c0-.13,0-.25,0-.37.23-3.78,4-6.81,8.53-6.81h353.1a9.29,9.29,0,0,1,1.5.12,8.87,8.87,0,0,1,1.56.37,8.44,8.44,0,0,1,4,2.68A6.33,6.33,0,0,1,1994.69,1592Z"/><path class="cls-4" d="M1821.3,1617.8H1632.14a7.92,7.92,0,0,1-3.52-.81,7.21,7.21,0,0,1-4.07-5.67,1.73,1.73,0,0,1,0-.32c0-.12,0-.25,0-.37V1592c0-.13,0-.25,0-.37a7.47,7.47,0,0,1,7.62-6.81h165.93a57.83,57.83,0,0,0,22.07,32.15C1820.52,1617.27,1820.91,1617.54,1821.3,1617.8Z"/><rect class="cls-4" x="1947.71" y="1584.84" width="4.01" height="32.96"/><rect class="cls-4" x="1934.13" y="1584.84" width="4.01" height="32.96"/><rect class="cls-4" x="1917.84" y="1584.84" width="4.01" height="32.96"/><rect class="cls-4" x="1892.87" y="1584.84" width="4.01" height="32.96"/><rect class="cls-4" x="1866.46" y="1584.84" width="4.01" height="32.96"/><rect class="cls-4" x="1825.98" y="1584.84" width="4.01" height="32.96"/><rect class="cls-4" x="1788.08" y="1584.84" width="4.01" height="32.96"/><rect class="cls-4" x="1754.24" y="1584.84" width="4.01" height="32.96"/><rect class="cls-4" x="1960.64" y="1584.84" width="4.01" height="32.96"/><rect class="cls-4" x="1969.18" y="1584.84" width="4.01" height="32.96"/><rect class="cls-4" x="1977.43" y="1584.84" width="4.01" height="32.96"/><path class="cls-4" d="M1987.65,1585v32.73a9.29,9.29,0,0,1-1.5.12h-2.51v-33h2.51A9.29,9.29,0,0,1,1987.65,1585Z"/><path class="cls-4" d="M1993.22,1588v26.63a8.53,8.53,0,0,1-4,2.68v-32A8.53,8.53,0,0,1,1993.22,1588Z"/><path class="cls-5" d="M2023.54,1559.05v18.62a6.35,6.35,0,0,1-1.46,4,8.46,8.46,0,0,1-4,2.69,9.86,9.86,0,0,1-1.56.37,10.73,10.73,0,0,1-1.51.11H1661.91c-4.56,0-8.31-3-8.54-6.8,0-.13,0-.25,0-.37v-18.62c0-.12,0-.24,0-.37.21-3.49,3.44-6.34,7.53-6.75a8.44,8.44,0,0,1,1,0H2015a10.73,10.73,0,0,1,1.51.11,9.86,9.86,0,0,1,1.56.37,8.46,8.46,0,0,1,4,2.69A6.35,6.35,0,0,1,2023.54,1559.05Z"/><path class="cls-4" d="M1850.16,1584.84H1661a7.47,7.47,0,0,1-7.62-6.8c0-.13,0-.25,0-.37v-18.62c0-.12,0-.24,0-.37a7.4,7.4,0,0,1,6.72-6.75,6.6,6.6,0,0,1,.9,0h165.94v0A57.74,57.74,0,0,0,1850.16,1584.84Z"/><rect class="cls-4" x="1976.57" y="1551.88" width="4.01" height="32.96"/><rect class="cls-4" x="1962.98" y="1551.88" width="4.01" height="32.96"/><rect class="cls-4" x="1946.69" y="1551.88" width="4.01" height="32.96"/><rect class="cls-4" x="1921.72" y="1551.88" width="4.01" height="32.96"/><rect class="cls-4" x="1895.32" y="1551.88" width="4.01" height="32.96"/><rect class="cls-4" x="1854.84" y="1551.88" width="4.01" height="32.96"/><rect class="cls-4" x="1816.94" y="1551.88" width="4.01" height="32.96"/><rect class="cls-4" x="1783.1" y="1551.88" width="4.01" height="32.96"/><rect class="cls-4" x="1989.5" y="1551.88" width="4.01" height="32.96"/><rect class="cls-4" x="1998.04" y="1551.88" width="4.01" height="32.96"/><rect class="cls-4" x="2006.29" y="1551.88" width="4.01" height="32.96"/><path class="cls-4" d="M2016.51,1552v32.74a10.62,10.62,0,0,1-1.51.11h-2.51v-33H2015A10.62,10.62,0,0,1,2016.51,1552Z"/><path class="cls-4" d="M2022.08,1555.05v26.62a8.46,8.46,0,0,1-4,2.69v-32A8.46,8.46,0,0,1,2022.08,1555.05Z"/><path class="cls-5" d="M1977.19,1526.14v18.62a6.32,6.32,0,0,1-1.47,4,8.53,8.53,0,0,1-4,2.69,8.85,8.85,0,0,1-1.56.36l-.5.07-.39,0H1615.55c-4.55,0-8.3-3-8.53-6.81,0-.12,0-.24,0-.36v-18.62c0-.12,0-.25,0-.37.23-3.77,4-6.8,8.53-6.8H1969.1a9.64,9.64,0,0,1,2.61.47,5.4,5.4,0,0,1,.74.28,2.94,2.94,0,0,1,.44.2l0,0c.15.07.29.15.43.23l.07,0,.38.23a6.88,6.88,0,0,1,.85.62l.25.21,0,0,.14.14,0,0a3.2,3.2,0,0,1,.25.27c.12.12.23.25.34.38A6.35,6.35,0,0,1,1977.19,1526.14Z"/><path class="cls-4" d="M1803.8,1551.93H1614.63a7.46,7.46,0,0,1-7.61-6.81c0-.12,0-.24,0-.36v-18.62c0-.12,0-.25,0-.37a7.46,7.46,0,0,1,7.61-6.8h165.94c.06.25.14.5.22.76a57.62,57.62,0,0,0,22.93,32.15Z"/><rect class="cls-4" x="1930.21" y="1518.97" width="4.01" height="32.96"/><rect class="cls-4" x="1916.62" y="1518.97" width="4.01" height="32.96"/><rect class="cls-4" x="1900.33" y="1518.97" width="4.01" height="32.96"/><rect class="cls-4" x="1875.36" y="1518.97" width="4.01" height="32.96"/><rect class="cls-4" x="1848.96" y="1518.97" width="4.01" height="32.96"/><rect class="cls-4" x="1808.48" y="1518.97" width="4.01" height="32.96"/><rect class="cls-4" x="1770.58" y="1518.97" width="4.01" height="32.96"/><rect class="cls-4" x="1736.74" y="1518.97" width="4.01" height="32.96"/><rect class="cls-4" x="1943.14" y="1518.97" width="4.01" height="32.96"/><rect class="cls-4" x="1951.68" y="1518.97" width="4.01" height="32.96"/><rect class="cls-4" x="1959.93" y="1518.97" width="4.01" height="32.96"/><path class="cls-4" d="M1970.15,1519.08v32.73a9.33,9.33,0,0,1-1.51.12h-2.5v-33h2.5A10.62,10.62,0,0,1,1970.15,1519.08Z"/><path class="cls-4" d="M1975.72,1522.13v26.63a8.53,8.53,0,0,1-4,2.69v-32A8.51,8.51,0,0,1,1975.72,1522.13Z"/><path class="cls-5" d="M2003.15,1493.94v18.61a6.33,6.33,0,0,1-1.47,4,8.51,8.51,0,0,1-4,2.68,8.87,8.87,0,0,1-1.56.37,9.33,9.33,0,0,1-1.51.12H1641.51a9.93,9.93,0,0,1-3.82-.76,7.36,7.36,0,0,1-4.69-5.75c0-.1,0-.2,0-.3s0-.24,0-.37v-18.61c0-.13,0-.25,0-.37.21-3.49,3.43-6.35,7.52-6.75a8.31,8.31,0,0,1,1-.06H1994.6a9.33,9.33,0,0,1,1.51.12,8.87,8.87,0,0,1,1.56.37,8.51,8.51,0,0,1,4,2.68A6.35,6.35,0,0,1,2003.15,1493.94Z"/><path class="cls-4" d="M1829.76,1519.73H1640.59a8,8,0,0,1-3.4-.76,7.24,7.24,0,0,1-4.19-5.75c0-.1,0-.2,0-.3s0-.24,0-.37v-18.61c0-.13,0-.25,0-.37a7.38,7.38,0,0,1,6.71-6.75,6.69,6.69,0,0,1,.9-.06h165.94s0,0,0,.06a57.89,57.89,0,0,0,22.13,32.15Z"/><rect class="cls-4" x="1956.17" y="1486.76" width="4.01" height="32.96"/><rect class="cls-4" x="1942.58" y="1486.76" width="4.01" height="32.96"/><rect class="cls-4" x="1926.29" y="1486.76" width="4.01" height="32.96"/><rect class="cls-4" x="1901.32" y="1486.76" width="4.01" height="32.96"/><rect class="cls-4" x="1874.92" y="1486.76" width="4.01" height="32.96"/><rect class="cls-4" x="1834.44" y="1486.76" width="4.01" height="32.96"/><rect class="cls-4" x="1796.54" y="1486.76" width="4.01" height="32.96"/><rect class="cls-4" x="1762.7" y="1486.76" width="4.01" height="32.96"/><rect class="cls-4" x="1969.1" y="1486.76" width="4.01" height="32.96"/><rect class="cls-4" x="1977.64" y="1486.76" width="4.01" height="32.96"/><rect class="cls-4" x="1985.89" y="1486.76" width="4.01" height="32.96"/><path class="cls-4" d="M1996.11,1486.88v32.73a9.33,9.33,0,0,1-1.51.12h-2.5v-33h2.5A9.33,9.33,0,0,1,1996.11,1486.88Z"/><path class="cls-4" d="M2001.68,1489.93v26.63a8.51,8.51,0,0,1-4,2.68v-32A8.51,8.51,0,0,1,2001.68,1489.93Z"/><path class="cls-5" d="M2014.2,1461v18.61a6.33,6.33,0,0,1-1.47,4,8.51,8.51,0,0,1-4,2.68,8.87,8.87,0,0,1-1.56.37c-.16,0-.33,0-.5.06l-.27,0h-.28l-.46,0H1652.56c-4.55,0-8.3-3-8.53-6.81,0-.12,0-.25,0-.37V1461c0-.13,0-.25,0-.37.23-3.78,4-6.81,8.53-6.81h353.09a9.33,9.33,0,0,1,1.51.12,8.87,8.87,0,0,1,1.56.37,8.51,8.51,0,0,1,4,2.68A6.33,6.33,0,0,1,2014.2,1461Z"/><path class="cls-4" d="M1840.81,1486.82H1651.64A7.46,7.46,0,0,1,1644,1480c0-.12,0-.25,0-.37V1461c0-.13,0-.25,0-.37a7.46,7.46,0,0,1,7.61-6.81h165.94a57.73,57.73,0,0,0,23.15,32.91Z"/><rect class="cls-4" x="1967.22" y="1453.85" width="4.01" height="32.96"/><rect class="cls-4" x="1953.63" y="1453.85" width="4.01" height="32.96"/><rect class="cls-4" x="1937.34" y="1453.85" width="4.01" height="32.96"/><rect class="cls-4" x="1912.38" y="1453.85" width="4.01" height="32.96"/><rect class="cls-4" x="1885.97" y="1453.85" width="4.01" height="32.96"/><rect class="cls-4" x="1845.49" y="1453.85" width="4.01" height="32.96"/><rect class="cls-4" x="1807.59" y="1453.85" width="4.01" height="32.96"/><rect class="cls-4" x="1773.75" y="1453.85" width="4.01" height="32.96"/><rect class="cls-4" x="1980.15" y="1453.85" width="4.01" height="32.96"/><rect class="cls-4" x="1988.69" y="1453.85" width="4.01" height="32.96"/><rect class="cls-4" x="1996.94" y="1453.85" width="4.01" height="32.96"/><path class="cls-4" d="M2007.16,1454v32.73a9.34,9.34,0,0,1-1.51.11h-2.5v-33h2.5A9.33,9.33,0,0,1,2007.16,1454Z"/><path class="cls-4" d="M2012.73,1457v26.63a8.51,8.51,0,0,1-4,2.68v-32A8.44,8.44,0,0,1,2012.73,1457Z"/><path class="cls-5" d="M1993.8,1423.94v18.61a6.33,6.33,0,0,1-1.47,4,8.51,8.51,0,0,1-4,2.68,8.87,8.87,0,0,1-1.56.37,9.33,9.33,0,0,1-1.51.12H1632.16c-4.55,0-8.3-3-8.53-6.81,0-.12,0-.24,0-.37v-18.61c0-.13,0-.25,0-.37.23-3.78,4-6.81,8.53-6.81h353.09a9.33,9.33,0,0,1,1.51.12,8.87,8.87,0,0,1,1.56.37,8.51,8.51,0,0,1,4,2.68A6.33,6.33,0,0,1,1993.8,1423.94Z"/><path class="cls-4" d="M1820.41,1449.73H1631.24a7.46,7.46,0,0,1-7.61-6.81c0-.12,0-.24,0-.37v-18.61c0-.13,0-.25,0-.37a7.46,7.46,0,0,1,7.61-6.81h165.94A57.81,57.81,0,0,0,1820.41,1449.73Z"/><rect class="cls-4" x="1946.82" y="1416.76" width="4.01" height="32.96"/><rect class="cls-4" x="1933.24" y="1416.76" width="4.01" height="32.96"/><rect class="cls-4" x="1916.95" y="1416.76" width="4.01" height="32.96"/><rect class="cls-4" x="1891.98" y="1416.76" width="4.01" height="32.96"/><rect class="cls-4" x="1865.57" y="1416.76" width="4.01" height="32.96"/><rect class="cls-4" x="1825.09" y="1416.76" width="4.01" height="32.96"/><rect class="cls-4" x="1787.19" y="1416.76" width="4.01" height="32.96"/><rect class="cls-4" x="1753.35" y="1416.76" width="4.01" height="32.96"/><rect class="cls-4" x="1959.75" y="1416.76" width="4.01" height="32.96"/><rect class="cls-4" x="1968.29" y="1416.76" width="4.01" height="32.96"/><rect class="cls-4" x="1976.54" y="1416.76" width="4.01" height="32.96"/><path class="cls-4" d="M1986.76,1416.88v32.73a9.33,9.33,0,0,1-1.51.12h-2.5v-33h2.5A9.33,9.33,0,0,1,1986.76,1416.88Z"/><path class="cls-4" d="M1992.33,1419.93v26.63a8.51,8.51,0,0,1-4,2.68v-32A8.51,8.51,0,0,1,1992.33,1419.93Z"/><path class="cls-5" d="M1956.05,1391v18.62a6.3,6.3,0,0,1-1.47,4,8.46,8.46,0,0,1-4,2.69,8.87,8.87,0,0,1-1.56.37,10.62,10.62,0,0,1-1.51.11H1594.41c-4.55,0-8.3-3-8.53-6.8,0-.12,0-.25,0-.37V1391c0-.12,0-.24,0-.37.23-3.77,4-6.8,8.53-6.8H1947.5l.68,0,.29,0,.31,0,.23,0a9.86,9.86,0,0,1,1.56.37l.23.08.21.08.43.17.25.12.21.1.41.22.44.27.33.23h0l.22.17a6.4,6.4,0,0,1,.62.53c.06.06.12.11.17.17s.11.11.17.17.21.24.31.37A6.3,6.3,0,0,1,1956.05,1391Z"/><path class="cls-4" d="M1782.66,1416.76H1593.49a7.46,7.46,0,0,1-7.61-6.8c0-.12,0-.25,0-.37V1391c0-.12,0-.24,0-.37a7.46,7.46,0,0,1,7.61-6.8h165.93c.08.27.15.54.24.81A57.64,57.64,0,0,0,1782.66,1416.76Z"/><rect class="cls-4" x="1909.07" y="1383.8" width="4.01" height="32.96"/><rect class="cls-4" x="1895.48" y="1383.8" width="4.01" height="32.96"/><rect class="cls-4" x="1879.19" y="1383.8" width="4.01" height="32.96"/><rect class="cls-4" x="1854.22" y="1383.8" width="4.01" height="32.96"/><rect class="cls-4" x="1827.82" y="1383.8" width="4.01" height="32.96"/><rect class="cls-4" x="1787.34" y="1383.8" width="4.01" height="32.96"/><rect class="cls-4" x="1749.44" y="1383.8" width="4.01" height="32.96"/><rect class="cls-4" x="1715.6" y="1383.8" width="4.01" height="32.96"/><rect class="cls-4" x="1922" y="1383.8" width="4.01" height="32.96"/><rect class="cls-4" x="1930.54" y="1383.8" width="4.01" height="32.96"/><rect class="cls-4" x="1938.79" y="1383.8" width="4.01" height="32.96"/><path class="cls-4" d="M1949,1383.91v32.74a10.62,10.62,0,0,1-1.51.11H1945v-33h2.5A10.62,10.62,0,0,1,1949,1383.91Z"/><path class="cls-4" d="M1954.58,1387v26.62a8.46,8.46,0,0,1-4,2.69v-32A8.46,8.46,0,0,1,1954.58,1387Z"/><path class="cls-5" d="M1974.29,1358.82v18.62a6.35,6.35,0,0,1-1.46,4,8.55,8.55,0,0,1-4,2.69,9,9,0,0,1-1.57.37,10.59,10.59,0,0,1-1.5.11h-353.1a9.81,9.81,0,0,1-3.94-.81,7.33,7.33,0,0,1-4.56-5.67,1.82,1.82,0,0,1,0-.32c0-.13,0-.25,0-.37v-18.62c0-.12,0-.24,0-.37.23-3.77,4-6.8,8.53-6.8h353.1a10.59,10.59,0,0,1,1.5.11,10,10,0,0,1,1.57.37,8.55,8.55,0,0,1,4,2.69A6.35,6.35,0,0,1,1974.29,1358.82Z"/><path class="cls-4" d="M1800.9,1384.61H1611.74a8,8,0,0,1-3.52-.81,7.21,7.21,0,0,1-4.07-5.67,1.82,1.82,0,0,1,0-.32c0-.13,0-.25,0-.37v-18.62c0-.12,0-.24,0-.37a7.46,7.46,0,0,1,7.62-6.8h165.93a57.86,57.86,0,0,0,22.07,32.15Z"/><rect class="cls-4" x="1927.31" y="1351.65" width="4.01" height="32.96"/><rect class="cls-4" x="1913.73" y="1351.65" width="4.01" height="32.96"/><rect class="cls-4" x="1897.44" y="1351.65" width="4.01" height="32.96"/><rect class="cls-4" x="1872.47" y="1351.65" width="4.01" height="32.96"/><rect class="cls-4" x="1846.06" y="1351.65" width="4.01" height="32.96"/><rect class="cls-4" x="1805.58" y="1351.65" width="4.01" height="32.96"/><rect class="cls-4" x="1767.69" y="1351.65" width="4.01" height="32.96"/><rect class="cls-4" x="1733.84" y="1351.65" width="4.01" height="32.96"/><rect class="cls-4" x="1940.24" y="1351.65" width="4.01" height="32.96"/><rect class="cls-4" x="1948.79" y="1351.65" width="4.01" height="32.96"/><rect class="cls-4" x="1957.03" y="1351.65" width="4.01" height="32.96"/><path class="cls-4" d="M1967.25,1351.76v32.74a10.59,10.59,0,0,1-1.5.11h-2.51v-33h2.51A10.59,10.59,0,0,1,1967.25,1351.76Z"/><path class="cls-4" d="M1972.83,1354.82v26.62a8.55,8.55,0,0,1-4,2.69v-32A8.55,8.55,0,0,1,1972.83,1354.82Z"/><path class="cls-5" d="M1982.75,1325.86v18.62a6.32,6.32,0,0,1-1.47,4,8.53,8.53,0,0,1-4,2.69,9.84,9.84,0,0,1-1.56.36,9.33,9.33,0,0,1-1.51.12H1621.11c-4.55,0-8.3-3-8.53-6.81,0-.12,0-.24,0-.36v-18.62c0-.12,0-.25,0-.37.21-3.49,3.43-6.34,7.52-6.75a8.44,8.44,0,0,1,1,0H1974.2a10.62,10.62,0,0,1,1.51.11,8.87,8.87,0,0,1,1.56.37,8.51,8.51,0,0,1,4,2.68A6.35,6.35,0,0,1,1982.75,1325.86Z"/><path class="cls-4" d="M1809.36,1351.65H1620.19a7.46,7.46,0,0,1-7.61-6.81c0-.12,0-.24,0-.36v-18.62c0-.12,0-.25,0-.37a7.4,7.4,0,0,1,6.71-6.75,6.7,6.7,0,0,1,.9,0h165.94v0A57.82,57.82,0,0,0,1809.36,1351.65Z"/><rect class="cls-4" x="1935.77" y="1318.68" width="4.01" height="32.96"/><rect class="cls-4" x="1922.19" y="1318.68" width="4.01" height="32.96"/><rect class="cls-4" x="1905.89" y="1318.68" width="4.01" height="32.96"/><rect class="cls-4" x="1880.93" y="1318.68" width="4.01" height="32.96"/><rect class="cls-4" x="1854.52" y="1318.68" width="4.01" height="32.96"/><rect class="cls-4" x="1814.04" y="1318.68" width="4.01" height="32.96"/><rect class="cls-4" x="1776.14" y="1318.68" width="4.01" height="32.96"/><rect class="cls-4" x="1742.3" y="1318.68" width="4.01" height="32.96"/><rect class="cls-4" x="1948.7" y="1318.68" width="4.01" height="32.96"/><rect class="cls-4" x="1957.24" y="1318.68" width="4.01" height="32.96"/><rect class="cls-4" x="1965.49" y="1318.68" width="4.01" height="32.96"/><path class="cls-4" d="M1975.71,1318.8v32.73a9.33,9.33,0,0,1-1.51.12h-2.5v-33h2.5A9.33,9.33,0,0,1,1975.71,1318.8Z"/><path class="cls-4" d="M1981.28,1321.85v26.63a8.51,8.51,0,0,1-4,2.68v-32A8.51,8.51,0,0,1,1981.28,1321.85Z"/><path class="cls-5" d="M1956.79,1293v18.61a6.33,6.33,0,0,1-1.47,4,8.51,8.51,0,0,1-4,2.68,8.87,8.87,0,0,1-1.56.37l-.5.07-.27,0-.28,0H1595.15c-4.55,0-8.3-3-8.53-6.81,0-.12,0-.24,0-.37V1293c0-.13,0-.25,0-.37s0-.2,0-.3c.34-3,3-5.55,6.4-6.28l.26-.06a10.27,10.27,0,0,1,1.85-.17h353.1l.76,0,.34,0h0l.4.06a8.87,8.87,0,0,1,1.56.37,8.51,8.51,0,0,1,4,2.68A6.33,6.33,0,0,1,1956.79,1293Z"/><path class="cls-4" d="M1783.4,1318.74H1594.23a7.46,7.46,0,0,1-7.61-6.81c0-.12,0-.24,0-.37V1293c0-.13,0-.25,0-.37s0-.2,0-.3a7.38,7.38,0,0,1,5.92-6.33l.32-.06a7.53,7.53,0,0,1,1.35-.12h165.94a2.17,2.17,0,0,0,.07.24,57.73,57.73,0,0,0,23.08,32.68Z"/><rect class="cls-4" x="1909.81" y="1285.77" width="4.01" height="32.96"/><rect class="cls-4" x="1896.23" y="1285.77" width="4.01" height="32.96"/><rect class="cls-4" x="1879.94" y="1285.77" width="4.01" height="32.96"/><rect class="cls-4" x="1854.97" y="1285.77" width="4.01" height="32.96"/><rect class="cls-4" x="1828.56" y="1285.77" width="4.01" height="32.96"/><rect class="cls-4" x="1788.08" y="1285.77" width="4.01" height="32.96"/><rect class="cls-4" x="1750.18" y="1285.77" width="4.01" height="32.96"/><rect class="cls-4" x="1716.34" y="1285.77" width="4.01" height="32.96"/><rect class="cls-4" x="1922.74" y="1285.77" width="4.01" height="32.96"/><rect class="cls-4" x="1931.28" y="1285.77" width="4.01" height="32.96"/><rect class="cls-4" x="1939.53" y="1285.77" width="4.01" height="32.96"/><path class="cls-4" d="M1949.75,1285.89v32.73a9.29,9.29,0,0,1-1.5.12h-2.51v-33h2.51A9.29,9.29,0,0,1,1949.75,1285.89Z"/><path class="cls-4" d="M1955.32,1288.94v26.63a8.51,8.51,0,0,1-4,2.68v-32A8.51,8.51,0,0,1,1955.32,1288.94Z"/><path class="cls-5" d="M1956.05,1260.22v18.61a6.33,6.33,0,0,1-1.47,4,8.51,8.51,0,0,1-4,2.68,8.07,8.07,0,0,1-1.22.31h0l-.34.06a9.33,9.33,0,0,1-1.51.12H1594.41a8.17,8.17,0,0,1-1.11-.07l-.42,0c-3.84-.58-6.8-3.34-7-6.69,0-.12,0-.24,0-.37v-18.61c0-.13,0-.25,0-.37.23-3.78,4-6.81,8.53-6.81H1947.5c.23,0,.46,0,.68,0l.29,0,.31,0,.23,0a8.87,8.87,0,0,1,1.56.37l.23.07.21.08.43.18.46.22.41.21.44.28.33.22v0l.22.16a6.48,6.48,0,0,1,.62.54l.17.16.17.18.31.36A6.35,6.35,0,0,1,1956.05,1260.22Z"/><path class="cls-4" d="M1782.66,1286H1593l-.48,0a7.38,7.38,0,0,1-6.68-6.75c0-.12,0-.24,0-.37v-18.61c0-.13,0-.25,0-.37a7.46,7.46,0,0,1,7.61-6.81h165.93c.08.27.15.54.24.82a57.63,57.63,0,0,0,22.66,31.91Z"/><rect class="cls-4" x="1909.07" y="1253.05" width="4.01" height="32.96"/><rect class="cls-4" x="1895.48" y="1253.05" width="4.01" height="32.96"/><rect class="cls-4" x="1879.19" y="1253.05" width="4.01" height="32.96"/><rect class="cls-4" x="1854.22" y="1253.05" width="4.01" height="32.96"/><rect class="cls-4" x="1827.82" y="1253.05" width="4.01" height="32.96"/><rect class="cls-4" x="1787.34" y="1253.05" width="4.01" height="32.96"/><rect class="cls-4" x="1749.44" y="1253.05" width="4.01" height="32.96"/><rect class="cls-4" x="1715.6" y="1253.05" width="4.01" height="32.96"/><rect class="cls-4" x="1922" y="1253.05" width="4.01" height="32.96"/><rect class="cls-4" x="1930.54" y="1253.05" width="4.01" height="32.96"/><rect class="cls-4" x="1938.79" y="1253.05" width="4.01" height="32.96"/><path class="cls-4" d="M1949,1253.16v32.73a9.33,9.33,0,0,1-1.51.12H1945v-33h2.5A9.33,9.33,0,0,1,1949,1253.16Z"/><path class="cls-4" d="M1954.58,1256.21v26.63a8.51,8.51,0,0,1-4,2.68v-32A8.51,8.51,0,0,1,1954.58,1256.21Z"/><path class="cls-5" d="M1974.29,1228.07v18.61a6.37,6.37,0,0,1-1.46,4,8.61,8.61,0,0,1-4,2.68,9,9,0,0,1-1.57.37,9.29,9.29,0,0,1-1.5.12h-353.1a9.81,9.81,0,0,1-3.94-.82,7.3,7.3,0,0,1-4.56-5.67,1.66,1.66,0,0,1,0-.32c0-.12,0-.24,0-.37v-18.61c0-.13,0-.25,0-.37.23-3.78,4-6.81,8.53-6.81h353.1a9.29,9.29,0,0,1,1.5.12,9,9,0,0,1,1.57.37,8.61,8.61,0,0,1,4,2.68A6.37,6.37,0,0,1,1974.29,1228.07Z"/><path class="cls-4" d="M1800.9,1253.86H1611.74a8,8,0,0,1-3.52-.82,7.18,7.18,0,0,1-4.07-5.67,1.66,1.66,0,0,1,0-.32c0-.12,0-.24,0-.37v-18.61c0-.13,0-.25,0-.37a7.47,7.47,0,0,1,7.62-6.81h165.93a57.83,57.83,0,0,0,22.07,32.15C1800.12,1253.32,1800.51,1253.59,1800.9,1253.86Z"/><rect class="cls-4" x="1927.31" y="1220.9" width="4.01" height="32.96"/><rect class="cls-4" x="1913.73" y="1220.9" width="4.01" height="32.96"/><rect class="cls-4" x="1897.44" y="1220.9" width="4.01" height="32.96"/><rect class="cls-4" x="1872.47" y="1220.9" width="4.01" height="32.96"/><rect class="cls-4" x="1846.06" y="1220.9" width="4.01" height="32.96"/><rect class="cls-4" x="1805.58" y="1220.9" width="4.01" height="32.96"/><rect class="cls-4" x="1767.69" y="1220.9" width="4.01" height="32.96"/><rect class="cls-4" x="1733.84" y="1220.9" width="4.01" height="32.96"/><rect class="cls-4" x="1940.24" y="1220.9" width="4.01" height="32.96"/><rect class="cls-4" x="1948.79" y="1220.9" width="4.01" height="32.96"/><rect class="cls-4" x="1957.03" y="1220.9" width="4.01" height="32.96"/><path class="cls-4" d="M1967.25,1221v32.73a9.29,9.29,0,0,1-1.5.12h-2.51v-33h2.51A9.29,9.29,0,0,1,1967.25,1221Z"/><path class="cls-4" d="M1972.83,1224.06v26.63a8.61,8.61,0,0,1-4,2.68v-32A8.61,8.61,0,0,1,1972.83,1224.06Z"/><path class="cls-5" d="M2003.14,1195.1v18.62a6.34,6.34,0,0,1-1.46,4,8.51,8.51,0,0,1-4,2.68,8.87,8.87,0,0,1-1.56.37,10.62,10.62,0,0,1-1.51.11H1641.51c-4.56,0-8.31-3-8.54-6.8,0-.12,0-.25,0-.37V1195.1c0-.12,0-.24,0-.36.22-3.49,3.44-6.35,7.53-6.76.33,0,.67,0,1,0H1994.6a10.62,10.62,0,0,1,1.51.11,9.86,9.86,0,0,1,1.56.37,8.53,8.53,0,0,1,4,2.69A6.29,6.29,0,0,1,2003.14,1195.1Z"/><path class="cls-4" d="M1829.76,1220.89H1640.59a7.47,7.47,0,0,1-7.62-6.8c0-.12,0-.25,0-.37V1195.1c0-.12,0-.24,0-.36a7.41,7.41,0,0,1,6.72-6.76,8.72,8.72,0,0,1,.9,0h165.94a.43.43,0,0,0,0,0A57.79,57.79,0,0,0,1829.76,1220.89Z"/><rect class="cls-4" x="1956.17" y="1187.93" width="4.01" height="32.96"/><rect class="cls-4" x="1942.58" y="1187.93" width="4.01" height="32.96"/><rect class="cls-4" x="1926.29" y="1187.93" width="4.01" height="32.96"/><rect class="cls-4" x="1901.32" y="1187.93" width="4.01" height="32.96"/><rect class="cls-4" x="1874.92" y="1187.93" width="4.01" height="32.96"/><rect class="cls-4" x="1834.44" y="1187.93" width="4.01" height="32.96"/><rect class="cls-4" x="1796.54" y="1187.93" width="4.01" height="32.96"/><rect class="cls-4" x="1762.7" y="1187.93" width="4.01" height="32.96"/><rect class="cls-4" x="1969.1" y="1187.93" width="4.01" height="32.96"/><rect class="cls-4" x="1977.64" y="1187.93" width="4.01" height="32.96"/><rect class="cls-4" x="1985.89" y="1187.93" width="4.01" height="32.96"/><path class="cls-4" d="M1996.11,1188v32.74a10.62,10.62,0,0,1-1.51.11h-2.5v-33h2.5A10.62,10.62,0,0,1,1996.11,1188Z"/><path class="cls-4" d="M2001.68,1191.1v26.62a8.46,8.46,0,0,1-4,2.69v-32A8.53,8.53,0,0,1,2001.68,1191.1Z"/><path class="cls-5" d="M1296.47,1787.88v18.62a6.39,6.39,0,0,1-1.46,4,8.56,8.56,0,0,1-4,2.68,9,9,0,0,1-1.57.37,10.59,10.59,0,0,1-1.5.11H934.83c-4.55,0-8.3-3-8.53-6.8,0-.12,0-.25,0-.37v-18.62c0-.12,0-.24,0-.36.23-3.78,4-6.81,8.53-6.81h353.1a9.29,9.29,0,0,1,1.5.12,10,10,0,0,1,1.57.36,8.58,8.58,0,0,1,4,2.69A6.37,6.37,0,0,1,1296.47,1787.88Z"/><path class="cls-4" d="M1123.08,1813.67H933.92a7.47,7.47,0,0,1-7.62-6.8c0-.12,0-.25,0-.37v-18.62c0-.12,0-.24,0-.36a7.47,7.47,0,0,1,7.62-6.81h165.93A57.82,57.82,0,0,0,1123.08,1813.67Z"/><rect class="cls-4" x="1249.49" y="1780.71" width="4.01" height="32.96"/><rect class="cls-4" x="1235.91" y="1780.71" width="4.01" height="32.96"/><rect class="cls-4" x="1219.62" y="1780.71" width="4.01" height="32.96"/><rect class="cls-4" x="1194.65" y="1780.71" width="4.01" height="32.96"/><rect class="cls-4" x="1168.24" y="1780.71" width="4.01" height="32.96"/><rect class="cls-4" x="1127.77" y="1780.71" width="4.01" height="32.96"/><rect class="cls-4" x="1089.87" y="1780.71" width="4.01" height="32.96"/><rect class="cls-4" x="1056.02" y="1780.71" width="4.01" height="32.96"/><rect class="cls-4" x="1262.42" y="1780.71" width="4.01" height="32.96"/><rect class="cls-4" x="1270.97" y="1780.71" width="4.01" height="32.96"/><rect class="cls-4" x="1279.21" y="1780.71" width="4.01" height="32.96"/><path class="cls-4" d="M1289.43,1780.83v32.73a10.59,10.59,0,0,1-1.5.11h-2.51v-33h2.51A9.29,9.29,0,0,1,1289.43,1780.83Z"/><path class="cls-4" d="M1295,1783.88v26.63a8.56,8.56,0,0,1-4,2.68v-32A8.58,8.58,0,0,1,1295,1783.88Z"/><path class="cls-5" d="M1258.72,1754.92v18.62a6.3,6.3,0,0,1-1.47,4,8.47,8.47,0,0,1-4,2.69,10,10,0,0,1-1.57.37,10.59,10.59,0,0,1-1.5.11H897.08c-4.55,0-8.3-3-8.53-6.8,0-.13,0-.25,0-.37v-18.62c0-.12,0-.24,0-.37.23-3.77,4-6.8,8.53-6.8h353.1l.67,0,.29,0,.32,0,.22,0a9,9,0,0,1,1.57.37l.22.08.21.08.43.17.25.12.22.1.4.22a4,4,0,0,1,.44.27l.33.23h0l.21.16a6.48,6.48,0,0,1,.62.54c.06.06.12.11.17.17l.17.17a3.57,3.57,0,0,1,.31.37A6.3,6.3,0,0,1,1258.72,1754.92Z"/><path class="cls-4" d="M1085.33,1780.71H896.17a7.46,7.46,0,0,1-7.62-6.8c0-.13,0-.25,0-.37v-18.62c0-.12,0-.24,0-.37a7.46,7.46,0,0,1,7.62-6.8H1062.1c.07.27.15.54.23.81A57.67,57.67,0,0,0,1085.33,1780.71Z"/><rect class="cls-4" x="1211.74" y="1747.75" width="4.01" height="32.96"/><rect class="cls-4" x="1198.16" y="1747.75" width="4.01" height="32.96"/><rect class="cls-4" x="1181.87" y="1747.75" width="4.01" height="32.96"/><rect class="cls-4" x="1156.9" y="1747.75" width="4.01" height="32.96"/><rect class="cls-4" x="1130.49" y="1747.75" width="4.01" height="32.96"/><rect class="cls-4" x="1090.01" y="1747.75" width="4.01" height="32.96"/><rect class="cls-4" x="1052.11" y="1747.75" width="4.01" height="32.96"/><rect class="cls-4" x="1018.27" y="1747.75" width="4.01" height="32.96"/><rect class="cls-4" x="1224.67" y="1747.75" width="4.01" height="32.96"/><rect class="cls-4" x="1233.21" y="1747.75" width="4.01" height="32.96"/><rect class="cls-4" x="1241.46" y="1747.75" width="4.01" height="32.96"/><path class="cls-4" d="M1251.68,1747.86v32.73a9.29,9.29,0,0,1-1.5.12h-2.51v-33h2.51A10.59,10.59,0,0,1,1251.68,1747.86Z"/><path class="cls-4" d="M1257.25,1750.91v26.63a8.55,8.55,0,0,1-4,2.69v-32A8.53,8.53,0,0,1,1257.25,1750.91Z"/><path class="cls-5" d="M1277,1722.77v18.62a6.35,6.35,0,0,1-1.46,4,8.46,8.46,0,0,1-4,2.69,10.12,10.12,0,0,1-1.56.37,10.84,10.84,0,0,1-1.51.11H915.32a9.76,9.76,0,0,1-3.93-.81,7.32,7.32,0,0,1-4.57-5.67l0-.32c0-.13,0-.25,0-.37v-18.62c0-.12,0-.25,0-.37.23-3.77,4-6.8,8.53-6.8h353.1a10.84,10.84,0,0,1,1.51.11,9.09,9.09,0,0,1,1.56.37,8.46,8.46,0,0,1,4,2.69A6.35,6.35,0,0,1,1277,1722.77Z"/><path class="cls-4" d="M1103.57,1748.56H914.41a7.88,7.88,0,0,1-3.51-.81,7.2,7.2,0,0,1-4.08-5.67l0-.32c0-.13,0-.25,0-.37v-18.62c0-.12,0-.25,0-.37a7.47,7.47,0,0,1,7.62-6.8h165.93a58,58,0,0,0,22.07,32.15Z"/><rect class="cls-4" x="1229.98" y="1715.6" width="4.01" height="32.96"/><rect class="cls-4" x="1216.4" y="1715.6" width="4.01" height="32.96"/><rect class="cls-4" x="1200.11" y="1715.6" width="4.01" height="32.96"/><rect class="cls-4" x="1175.14" y="1715.6" width="4.01" height="32.96"/><rect class="cls-4" x="1148.74" y="1715.6" width="4.01" height="32.96"/><rect class="cls-4" x="1108.26" y="1715.6" width="4.01" height="32.96"/><rect class="cls-4" x="1070.36" y="1715.6" width="4.01" height="32.96"/><rect class="cls-4" x="1036.52" y="1715.6" width="4.01" height="32.96"/><rect class="cls-4" x="1242.92" y="1715.6" width="4.01" height="32.96"/><rect class="cls-4" x="1251.46" y="1715.6" width="4.01" height="32.96"/><rect class="cls-4" x="1259.71" y="1715.6" width="4.01" height="32.96"/><path class="cls-4" d="M1269.93,1715.71v32.73a9.42,9.42,0,0,1-1.51.12h-2.51v-33h2.51A10.73,10.73,0,0,1,1269.93,1715.71Z"/><path class="cls-4" d="M1275.5,1718.77v26.62a8.53,8.53,0,0,1-4,2.69v-32A8.46,8.46,0,0,1,1275.5,1718.77Z"/><path class="cls-5" d="M1285.42,1689.81v18.61a6.37,6.37,0,0,1-1.46,4,8.56,8.56,0,0,1-4,2.68,9,9,0,0,1-1.57.37,9.29,9.29,0,0,1-1.5.12H923.78c-4.55,0-8.3-3-8.53-6.81,0-.12,0-.24,0-.37v-18.61c0-.13,0-.25,0-.37.21-3.5,3.44-6.35,7.52-6.76.33,0,.67,0,1,0h353.1a9.29,9.29,0,0,1,1.5.12,9,9,0,0,1,1.57.37,8.56,8.56,0,0,1,4,2.68A6.37,6.37,0,0,1,1285.42,1689.81Z"/><path class="cls-4" d="M1112,1715.6H922.87a7.47,7.47,0,0,1-7.62-6.81c0-.12,0-.24,0-.37v-18.61c0-.13,0-.25,0-.37a7.41,7.41,0,0,1,6.72-6.76,8.72,8.72,0,0,1,.9,0H1088.8l0,0A57.82,57.82,0,0,0,1112,1715.6Z"/><rect class="cls-4" x="1238.44" y="1682.63" width="4.01" height="32.96"/><rect class="cls-4" x="1224.86" y="1682.63" width="4.01" height="32.96"/><rect class="cls-4" x="1208.57" y="1682.63" width="4.01" height="32.96"/><rect class="cls-4" x="1183.6" y="1682.63" width="4.01" height="32.96"/><rect class="cls-4" x="1157.19" y="1682.63" width="4.01" height="32.96"/><rect class="cls-4" x="1116.72" y="1682.63" width="4.01" height="32.96"/><rect class="cls-4" x="1078.82" y="1682.63" width="4.01" height="32.96"/><rect class="cls-4" x="1044.97" y="1682.63" width="4.01" height="32.96"/><rect class="cls-4" x="1251.37" y="1682.63" width="4.01" height="32.96"/><rect class="cls-4" x="1259.92" y="1682.63" width="4.01" height="32.96"/><rect class="cls-4" x="1268.16" y="1682.63" width="4.01" height="32.96"/><path class="cls-4" d="M1278.38,1682.75v32.73a9.3,9.3,0,0,1-1.5.11h-2.51v-33h2.51A9.29,9.29,0,0,1,1278.38,1682.75Z"/><path class="cls-4" d="M1284,1685.8v26.63a8.56,8.56,0,0,1-4,2.68v-32A8.49,8.49,0,0,1,1284,1685.8Z"/><path class="cls-5" d="M1259.46,1656.9v18.61a6.39,6.39,0,0,1-1.46,4,8.56,8.56,0,0,1-4,2.68,9,9,0,0,1-1.57.37l-.49.06-.28,0H897.82c-4.55,0-8.3-3-8.53-6.8,0-.12,0-.25,0-.37V1656.9c0-.13,0-.25,0-.37a2.66,2.66,0,0,1,0-.3c.34-3,3-5.55,6.41-6.29l.26,0a10.07,10.07,0,0,1,1.84-.17h353.1c.26,0,.51,0,.76,0l.34,0h0l.39.06a9,9,0,0,1,1.57.37,8.49,8.49,0,0,1,4,2.68A6.37,6.37,0,0,1,1259.46,1656.9Z"/><path class="cls-4" d="M1086.07,1682.68H896.91a7.47,7.47,0,0,1-7.62-6.8c0-.12,0-.25,0-.37V1656.9c0-.13,0-.25,0-.37a2.66,2.66,0,0,1,0-.3,7.37,7.37,0,0,1,5.92-6.33,1.91,1.91,0,0,1,.33-.06,7.45,7.45,0,0,1,1.35-.12h165.93a2.17,2.17,0,0,0,.07.24,57.73,57.73,0,0,0,23.09,32.67Z"/><rect class="cls-4" x="1212.48" y="1649.72" width="4.01" height="32.96"/><rect class="cls-4" x="1198.9" y="1649.72" width="4.01" height="32.96"/><rect class="cls-4" x="1182.61" y="1649.72" width="4.01" height="32.96"/><rect class="cls-4" x="1157.64" y="1649.72" width="4.01" height="32.96"/><rect class="cls-4" x="1131.23" y="1649.72" width="4.01" height="32.96"/><rect class="cls-4" x="1090.76" y="1649.72" width="4.01" height="32.96"/><rect class="cls-4" x="1052.86" y="1649.72" width="4.01" height="32.96"/><rect class="cls-4" x="1019.01" y="1649.72" width="4.01" height="32.96"/><rect class="cls-4" x="1225.41" y="1649.72" width="4.01" height="32.96"/><rect class="cls-4" x="1233.96" y="1649.72" width="4.01" height="32.96"/><rect class="cls-4" x="1242.2" y="1649.72" width="4.01" height="32.96"/><path class="cls-4" d="M1252.42,1649.83v32.74a10.59,10.59,0,0,1-1.5.11h-2.51v-33h2.51A10.59,10.59,0,0,1,1252.42,1649.83Z"/><path class="cls-4" d="M1258,1652.89v26.63a8.56,8.56,0,0,1-4,2.68v-32A8.58,8.58,0,0,1,1258,1652.89Z"/><path class="cls-5" d="M1258.72,1624.17v18.61a6.35,6.35,0,0,1-1.47,4,8.53,8.53,0,0,1-4,2.68,8.72,8.72,0,0,1-1.22.31h0l-.34.06a9.29,9.29,0,0,1-1.5.12H897.08a8,8,0,0,1-1.1-.07l-.42-.05c-3.84-.59-6.81-3.35-7-6.69,0-.12,0-.25,0-.37v-18.61c0-.13,0-.25,0-.37.23-3.78,4-6.81,8.53-6.81h353.1c.22,0,.45,0,.67,0l.29,0,.32,0a.83.83,0,0,1,.22,0,9,9,0,0,1,1.57.37l.22.07.21.08.43.17.47.23.4.21.44.27.33.23,0,0,.21.16c.22.17.43.35.62.53l.17.17.17.18a3.47,3.47,0,0,1,.31.36A6.33,6.33,0,0,1,1258.72,1624.17Z"/><path class="cls-4" d="M1085.33,1650H896.17l-.45,0a3.89,3.89,0,0,1-.49,0,7.39,7.39,0,0,1-6.68-6.75c0-.12,0-.25,0-.37v-18.61c0-.13,0-.25,0-.37a7.47,7.47,0,0,1,7.62-6.81H1062.1c.07.27.15.54.23.81a57.7,57.7,0,0,0,22.66,31.92Z"/><rect class="cls-4" x="1211.74" y="1616.99" width="4.01" height="32.96"/><rect class="cls-4" x="1198.16" y="1616.99" width="4.01" height="32.96"/><rect class="cls-4" x="1181.87" y="1616.99" width="4.01" height="32.96"/><rect class="cls-4" x="1156.9" y="1616.99" width="4.01" height="32.96"/><rect class="cls-4" x="1130.49" y="1616.99" width="4.01" height="32.96"/><rect class="cls-4" x="1090.01" y="1616.99" width="4.01" height="32.96"/><rect class="cls-4" x="1052.11" y="1616.99" width="4.01" height="32.96"/><rect class="cls-4" x="1018.27" y="1616.99" width="4.01" height="32.96"/><rect class="cls-4" x="1224.67" y="1616.99" width="4.01" height="32.96"/><rect class="cls-4" x="1233.21" y="1616.99" width="4.01" height="32.96"/><rect class="cls-4" x="1241.46" y="1616.99" width="4.01" height="32.96"/><path class="cls-4" d="M1251.68,1617.11v32.73a9.29,9.29,0,0,1-1.5.12h-2.51v-33h2.51A9.29,9.29,0,0,1,1251.68,1617.11Z"/><path class="cls-4" d="M1257.25,1620.16v26.63a8.53,8.53,0,0,1-4,2.68v-32A8.53,8.53,0,0,1,1257.25,1620.16Z"/><path class="cls-5" d="M1277,1592v18.61a6.39,6.39,0,0,1-1.46,4,8.51,8.51,0,0,1-4,2.68,9.09,9.09,0,0,1-1.56.37,10.84,10.84,0,0,1-1.51.11H915.32a9.76,9.76,0,0,1-3.93-.81,7.32,7.32,0,0,1-4.57-5.67l0-.32c0-.12,0-.25,0-.37V1592c0-.13,0-.25,0-.37.23-3.78,4-6.81,8.53-6.81h353.1a9.51,9.51,0,0,1,1.51.12,10.1,10.1,0,0,1,1.56.36,8.53,8.53,0,0,1,4,2.69A6.37,6.37,0,0,1,1277,1592Z"/><path class="cls-4" d="M1103.57,1617.8H914.41a7.88,7.88,0,0,1-3.51-.81,7.2,7.2,0,0,1-4.08-5.67l0-.32c0-.12,0-.25,0-.37V1592c0-.13,0-.25,0-.37a7.47,7.47,0,0,1,7.62-6.81h165.93a57.88,57.88,0,0,0,22.07,32.15C1102.8,1617.27,1103.18,1617.54,1103.57,1617.8Z"/><rect class="cls-4" x="1229.98" y="1584.84" width="4.01" height="32.96"/><rect class="cls-4" x="1216.4" y="1584.84" width="4.01" height="32.96"/><rect class="cls-4" x="1200.11" y="1584.84" width="4.01" height="32.96"/><rect class="cls-4" x="1175.14" y="1584.84" width="4.01" height="32.96"/><rect class="cls-4" x="1148.74" y="1584.84" width="4.01" height="32.96"/><rect class="cls-4" x="1108.26" y="1584.84" width="4.01" height="32.96"/><rect class="cls-4" x="1070.36" y="1584.84" width="4.01" height="32.96"/><rect class="cls-4" x="1036.52" y="1584.84" width="4.01" height="32.96"/><rect class="cls-4" x="1242.92" y="1584.84" width="4.01" height="32.96"/><rect class="cls-4" x="1251.46" y="1584.84" width="4.01" height="32.96"/><rect class="cls-4" x="1259.71" y="1584.84" width="4.01" height="32.96"/><path class="cls-4" d="M1269.93,1585v32.73a9.42,9.42,0,0,1-1.51.12h-2.51v-33h2.51A9.42,9.42,0,0,1,1269.93,1585Z"/><path class="cls-4" d="M1275.5,1588v26.63a8.51,8.51,0,0,1-4,2.68v-32A8.51,8.51,0,0,1,1275.5,1588Z"/><path class="cls-5" d="M1305.82,1559.05v18.62a6.3,6.3,0,0,1-1.47,4,8.46,8.46,0,0,1-4,2.69,9.86,9.86,0,0,1-1.56.37,10.62,10.62,0,0,1-1.51.11H944.18c-4.55,0-8.3-3-8.53-6.8,0-.13,0-.25,0-.37v-18.62c0-.12,0-.24,0-.37.21-3.49,3.43-6.34,7.52-6.75a8.44,8.44,0,0,1,1,0h353.09a10.62,10.62,0,0,1,1.51.11,8.87,8.87,0,0,1,1.56.37,8.46,8.46,0,0,1,4,2.69A6.3,6.3,0,0,1,1305.82,1559.05Z"/><path class="cls-4" d="M1132.43,1584.84H943.26a7.46,7.46,0,0,1-7.61-6.8c0-.13,0-.25,0-.37v-18.62c0-.12,0-.24,0-.37a7.39,7.39,0,0,1,6.71-6.75,6.7,6.7,0,0,1,.9,0H1109.2a.43.43,0,0,1,0,0A57.79,57.79,0,0,0,1132.43,1584.84Z"/><rect class="cls-4" x="1258.84" y="1551.88" width="4.01" height="32.96"/><rect class="cls-4" x="1245.26" y="1551.88" width="4.01" height="32.96"/><rect class="cls-4" x="1228.97" y="1551.88" width="4.01" height="32.96"/><rect class="cls-4" x="1204" y="1551.88" width="4.01" height="32.96"/><rect class="cls-4" x="1177.59" y="1551.88" width="4.01" height="32.96"/><rect class="cls-4" x="1137.11" y="1551.88" width="4.01" height="32.96"/><rect class="cls-4" x="1099.21" y="1551.88" width="4.01" height="32.96"/><rect class="cls-4" x="1065.37" y="1551.88" width="4.01" height="32.96"/><rect class="cls-4" x="1271.77" y="1551.88" width="4.01" height="32.96"/><rect class="cls-4" x="1280.31" y="1551.88" width="4.01" height="32.96"/><rect class="cls-4" x="1288.56" y="1551.88" width="4.01" height="32.96"/><path class="cls-4" d="M1298.78,1552v32.74a10.59,10.59,0,0,1-1.5.11h-2.51v-33h2.51A10.59,10.59,0,0,1,1298.78,1552Z"/><path class="cls-4" d="M1304.35,1555.05v26.62a8.47,8.47,0,0,1-4,2.69v-32A8.47,8.47,0,0,1,1304.35,1555.05Z"/><path class="cls-5" d="M1259.46,1526.14v18.62a6.37,6.37,0,0,1-1.46,4,8.58,8.58,0,0,1-4,2.69,9,9,0,0,1-1.57.36l-.49.07-.4,0H897.82c-4.55,0-8.3-3-8.53-6.81,0-.12,0-.24,0-.36v-18.62c0-.12,0-.25,0-.37.23-3.77,4-6.8,8.53-6.8h353.55a9.78,9.78,0,0,1,2.62.47,6.61,6.61,0,0,1,.74.28,3.49,3.49,0,0,1,.44.2l0,0c.15.07.29.15.43.23l.08,0,.38.23a8.81,8.81,0,0,1,.85.62l.24.21,0,0,.15.14,0,0c.08.09.17.17.25.27l.34.38A6.39,6.39,0,0,1,1259.46,1526.14Z"/><path class="cls-4" d="M1086.07,1551.93H896.91a7.47,7.47,0,0,1-7.62-6.81c0-.12,0-.24,0-.36v-18.62c0-.12,0-.25,0-.37a7.47,7.47,0,0,1,7.62-6.8h165.93c.07.25.14.5.22.76a57.67,57.67,0,0,0,22.94,32.15Z"/><rect class="cls-4" x="1212.48" y="1518.97" width="4.01" height="32.96"/><rect class="cls-4" x="1198.9" y="1518.97" width="4.01" height="32.96"/><rect class="cls-4" x="1182.61" y="1518.97" width="4.01" height="32.96"/><rect class="cls-4" x="1157.64" y="1518.97" width="4.01" height="32.96"/><rect class="cls-4" x="1131.23" y="1518.97" width="4.01" height="32.96"/><rect class="cls-4" x="1090.76" y="1518.97" width="4.01" height="32.96"/><rect class="cls-4" x="1052.86" y="1518.97" width="4.01" height="32.96"/><rect class="cls-4" x="1019.01" y="1518.97" width="4.01" height="32.96"/><rect class="cls-4" x="1225.41" y="1518.97" width="4.01" height="32.96"/><rect class="cls-4" x="1233.96" y="1518.97" width="4.01" height="32.96"/><rect class="cls-4" x="1242.2" y="1518.97" width="4.01" height="32.96"/><path class="cls-4" d="M1252.42,1519.08v32.73a9.29,9.29,0,0,1-1.5.12h-2.51v-33h2.51A10.59,10.59,0,0,1,1252.42,1519.08Z"/><path class="cls-4" d="M1258,1522.13v26.63a8.58,8.58,0,0,1-4,2.69v-32A8.56,8.56,0,0,1,1258,1522.13Z"/><path class="cls-5" d="M1285.42,1493.94v18.61a6.37,6.37,0,0,1-1.46,4,8.56,8.56,0,0,1-4,2.68,9,9,0,0,1-1.57.37,9.29,9.29,0,0,1-1.5.12H923.78A9.85,9.85,0,0,1,920,1519a7.36,7.36,0,0,1-4.7-5.75c0-.1,0-.2,0-.3s0-.24,0-.37v-18.61c0-.12,0-.25,0-.37.21-3.49,3.44-6.35,7.52-6.75a8.43,8.43,0,0,1,1-.06h353.1a9.29,9.29,0,0,1,1.5.12,9,9,0,0,1,1.57.37,8.56,8.56,0,0,1,4,2.68A6.37,6.37,0,0,1,1285.42,1493.94Z"/><path class="cls-4" d="M1112,1519.73H922.87a8,8,0,0,1-3.41-.76,7.24,7.24,0,0,1-4.19-5.75c0-.1,0-.2,0-.3s0-.24,0-.37v-18.61c0-.12,0-.25,0-.37a7.39,7.39,0,0,1,6.72-6.75,6.58,6.58,0,0,1,.9-.06H1088.8l0,.06A57.79,57.79,0,0,0,1111,1519C1111.3,1519.22,1111.66,1519.48,1112,1519.73Z"/><rect class="cls-4" x="1238.44" y="1486.76" width="4.01" height="32.96"/><rect class="cls-4" x="1224.86" y="1486.76" width="4.01" height="32.96"/><rect class="cls-4" x="1208.57" y="1486.76" width="4.01" height="32.96"/><rect class="cls-4" x="1183.6" y="1486.76" width="4.01" height="32.96"/><rect class="cls-4" x="1157.19" y="1486.76" width="4.01" height="32.96"/><rect class="cls-4" x="1116.72" y="1486.76" width="4.01" height="32.96"/><rect class="cls-4" x="1078.82" y="1486.76" width="4.01" height="32.96"/><rect class="cls-4" x="1044.97" y="1486.76" width="4.01" height="32.96"/><rect class="cls-4" x="1251.37" y="1486.76" width="4.01" height="32.96"/><rect class="cls-4" x="1259.92" y="1486.76" width="4.01" height="32.96"/><rect class="cls-4" x="1268.16" y="1486.76" width="4.01" height="32.96"/><path class="cls-4" d="M1278.38,1486.88v32.73a9.29,9.29,0,0,1-1.5.12h-2.51v-33h2.51A9.29,9.29,0,0,1,1278.38,1486.88Z"/><path class="cls-4" d="M1284,1489.93v26.63a8.56,8.56,0,0,1-4,2.68v-32A8.56,8.56,0,0,1,1284,1489.93Z"/><path class="cls-5" d="M1296.47,1461v18.61a6.37,6.37,0,0,1-1.46,4,8.56,8.56,0,0,1-4,2.68,9,9,0,0,1-1.57.37l-.49.06-.28,0h-.28l-.45,0H934.83c-4.55,0-8.3-3-8.53-6.81,0-.12,0-.25,0-.37V1461c0-.13,0-.25,0-.37.23-3.78,4-6.81,8.53-6.81h353.1a9.29,9.29,0,0,1,1.5.12,9,9,0,0,1,1.57.37,8.49,8.49,0,0,1,4,2.68A6.37,6.37,0,0,1,1296.47,1461Z"/><path class="cls-4" d="M1123.08,1486.82H933.92a7.47,7.47,0,0,1-7.62-6.81c0-.12,0-.25,0-.37V1461c0-.13,0-.25,0-.37a7.47,7.47,0,0,1,7.62-6.81h165.93a57.81,57.81,0,0,0,23.16,32.91Z"/><rect class="cls-4" x="1249.49" y="1453.85" width="4.01" height="32.96"/><rect class="cls-4" x="1235.91" y="1453.85" width="4.01" height="32.96"/><rect class="cls-4" x="1219.62" y="1453.85" width="4.01" height="32.96"/><rect class="cls-4" x="1194.65" y="1453.85" width="4.01" height="32.96"/><rect class="cls-4" x="1168.25" y="1453.85" width="4.01" height="32.96"/><rect class="cls-4" x="1127.77" y="1453.85" width="4.01" height="32.96"/><rect class="cls-4" x="1089.87" y="1453.85" width="4.01" height="32.96"/><rect class="cls-4" x="1056.02" y="1453.85" width="4.01" height="32.96"/><rect class="cls-4" x="1262.42" y="1453.85" width="4.01" height="32.96"/><rect class="cls-4" x="1270.97" y="1453.85" width="4.01" height="32.96"/><rect class="cls-4" x="1279.22" y="1453.85" width="4.01" height="32.96"/><path class="cls-4" d="M1289.43,1454v32.73a10.59,10.59,0,0,1-1.5.11h-2.51v-33h2.51A9.29,9.29,0,0,1,1289.43,1454Z"/><path class="cls-4" d="M1295,1457v26.63a8.56,8.56,0,0,1-4,2.68v-32A8.49,8.49,0,0,1,1295,1457Z"/><circle class="cls-6" cx="907.92" cy="1267.53" r="199.06" transform="translate(-630.36 1013.25) rotate(-45)"/><circle class="cls-5" cx="890.56" cy="1267.53" r="199.06" transform="translate(-635.44 1000.97) rotate(-45)"/><path class="cls-4" d="M890.56,1451.25a181.36,181.36,0,1,1,128.24-53.12A180.19,180.19,0,0,1,890.56,1451.25Zm0-351.91c-94,0-170.55,76.51-170.55,170.54s76.51,170.55,170.55,170.55,170.54-76.51,170.54-170.55S984.6,1099.34,890.56,1099.34Z"/><path class="cls-4" d="M915.53,1322.52a30,30,0,0,0-.43-10.53,21.89,21.89,0,0,0-4.45-8.74,41.25,41.25,0,0,0-8.91-7.86,109.2,109.2,0,0,0-13.8-7.73,286.5,286.5,0,0,1-25.48-14,90.45,90.45,0,0,1-19.05-15.51,53,53,0,0,1-11.25-18.9q-3.57-10.47-1.94-24.17a54.63,54.63,0,0,1,6.78-21.15,50.33,50.33,0,0,1,14-15.61,63,63,0,0,1,20.12-9.59,83.87,83.87,0,0,1,25.13-2.89l3.55-29.9,24.06,2.86-3.6,30.31a75.1,75.1,0,0,1,22.65,9.63,56.87,56.87,0,0,1,25.34,36.37,75.42,75.42,0,0,1,1,25.68l-43.45-5.15q2-16.77-4.47-26T902.43,1199a32.73,32.73,0,0,0-11.88.51,22,22,0,0,0-8.66,4.21,20.56,20.56,0,0,0-5.58,7.2,30.22,30.22,0,0,0-2.65,9.46,27.51,27.51,0,0,0,.4,9.54,20.58,20.58,0,0,0,4.26,8.37,41.86,41.86,0,0,0,9,7.86,140,140,0,0,0,14.35,8.29q13.94,7.17,25.21,14.32a91.24,91.24,0,0,1,19,15.64,54.07,54.07,0,0,1,11.25,19q3.55,10.49,1.95,24a54.82,54.82,0,0,1-6.91,21.56A49.76,49.76,0,0,1,938,1364.43a60.71,60.71,0,0,1-20.23,9.21,90,90,0,0,1-25.25,2.67l-3.3,27.8-23.91-2.84,3.29-27.66a101.38,101.38,0,0,1-23.49-8.3,64.4,64.4,0,0,1-19.25-14.54,57.68,57.68,0,0,1-12.07-21.62q-4-12.66-2-29.42l43.46,5.16q-1.18,9.91.82,16.88a28,28,0,0,0,6.18,11.5,27.11,27.11,0,0,0,9.94,6.85,46.55,46.55,0,0,0,11.91,3,39,39,0,0,0,12.62-.34,25.85,25.85,0,0,0,9.55-4,20.66,20.66,0,0,0,6.32-7A25.19,25.19,0,0,0,915.53,1322.52Z"/><path class="cls-7" d="M1288,1037.46s-14.79,20.83-28.36,21.12-34.2-9.65-34.2-9.65-12.45-27.76-4-38.62c0,0,8.47-3.71,17.33,2.85a26.56,26.56,0,0,1,4.58,4.39,14.49,14.49,0,0,0,7.12,4.83c9.68,2.94,21.17-4,25.46,2.7a45.41,45.41,0,0,0,7.48,8.86A34.7,34.7,0,0,0,1288,1037.46Z"/><path class="cls-7" d="M1095.14,1187.69s52.29-126.7,146.41-129.11c0,0,86.88,9.65,91.71,129.11Z"/><path class="cls-8" d="M1215.77,1062.45s37.72,8.39,49.36,3.46c0,0,1.76-15.78-14.12-13.56-10.88,1.51-18-3.72-22.13-5.84C1223,1043.51,1214.2,1055.85,1215.77,1062.45Z"/><path class="cls-9" d="M1248.6,1038.67c-2.41,1.81-9.82-25.51-9.82-25.51a26.56,26.56,0,0,1,4.58,4.39,14.49,14.49,0,0,0,7.12,4.83C1250.51,1023.18,1250.94,1036.91,1248.6,1038.67Z"/><path class="cls-9" d="M1283.42,1033.94c-.53.31-18,10.76-20.34,10.76s12.86-19.62,12.86-19.62A45.41,45.41,0,0,0,1283.42,1033.94Z"/><path class="cls-10" d="M1146.22,1152.3c-1-.83,37-55.91,47.47-56.31s34,12.06,51,13.67,33.51-3.21,36.72,6.84,12.07,45.71,6.64,51.41S1167.1,1170.14,1146.22,1152.3Z"/><g id="man"><path class="cls-11" d="M935.27,1222.66s-2.94-14.48,30.39-59c7.19-9.61,29.11-45.81,29.11-45.81,8.67-2.1,35.66,12.24,42.78,16.61l2.26,1.42s11.55,50.07-13,44.39c-.77-.18-1.54-.32-2.3-.44-23.73-3.7-46.64,19.84-57,34.8C960.69,1224.3,939.78,1223.05,935.27,1222.66Z"/><path class="cls-11" d="M1111.17,1125.35s-2.94-14.48,30.39-59c7.19-9.62,29.12-45.81,29.12-45.81,8.66-2.11,35.65,12.24,42.77,16.61,1.43.88,2.26,1.41,2.26,1.41s11.55,50.07-13,44.4c-.77-.19-1.54-.33-2.3-.45-23.73-3.7-46.64,19.85-57.05,34.8C1136.6,1127,1115.68,1125.75,1111.17,1125.35Z"/><path class="cls-12" d="M1486.62,877.5C1479.8,848.21,1404,756.88,1365.17,778s-18.69,136,21.78,271.51q.93,3.11,1.89,6.16c-81.58-13.39-178.67-17.46-178.67-17.46L1200,1085.42c73.51,20.31,216.32,90.91,276.21,121.31,22.9,10.38,49.79,10.38,55.27-9.77C1549.76,1129.51,1486.62,877.5,1486.62,877.5Z"/><path class="cls-13" d="M1341.86,1299.52s-173.51-78.3-279.32-109.93c-13.11-3.92-25.15-7.1-35.71-9.35l11.12-45.38s10.37-.19,27.19-.16c65.87.18,230.84,3.87,260.31,36.2C1362.43,1211.51,1341.86,1299.52,1341.86,1299.52Z"/><path class="cls-13" d="M1473,226.24c5.7,13.12,10.25,30.33,6.39,39.4-4.37,10.29-3.17,17.73-3.17,17.73l-9.33,2.28-11.14,2.72s-.59-1-1.49-2.59-2.08-3.93-3.26-6.61a9.61,9.61,0,0,0-5.27-7.18c-4.74-2.25-9.73-8-10.65-13.51s-6.58-15.88-5-17c3.9-2.64,9.76,13.44,13.2,14.16,3.12.65,4.11-1.56,4.27-2l0-.09c5.41-13.14-4.58-46.3,3.34-48.15C1453.9,204.77,1470.56,220.65,1473,226.24Z"/><path class="cls-13" d="M872.53,491.06c9.7,10.52,23.6,21.64,33.46,21.78,11.17.15,17.49,4.26,17.49,4.26l5.86-7.61,7-9.09s-.64-.93-1.77-2.41-9-8.12-9.16-13.38-3.36-12.12-8.06-15.2S905.48,457,903.84,458c-4,2.5,8.35,14.36,7.61,17.8-.66,3.11-3.08,3.13-3.54,3.1h-.09c-14.21-.36-40.51-22.91-45.39-16.41C860.61,464.93,868.4,486.59,872.53,491.06Z"/><path class="cls-14" d="M1292.34,899.37c-42.8,11.1-32.06,62.56-25.67,203.81.72,16,2.21,31.42,4.32,46.14-62.72-12.6-159.17-14.49-205.85-14.62,0,0-7.75,17.25-7.42,31,.71,29.35,15.7,48.75,15.7,48.75,105.81,31.64,268.44,85,268.44,85l0-.12c10.84,2.81,21-2.61,29.17-18.15,32.35-62,87.71-474.3,87.71-474.3C1459.27,776.88,1335.13,888.27,1292.34,899.37Z"/><path class="cls-13" d="M1222.47,582.83s15-38.15-14.21-92.57l41.6,9.24,28.26,6.27a270.12,270.12,0,0,1,10.79,27.55c1.61,4.71,7.58,23.61,9.33,29.46,9.94.42-4.39,15.47-24.78,18.43C1250.77,584.51,1222.47,582.83,1222.47,582.83Z"/><path class="cls-15" d="M1278.12,505.77a270.12,270.12,0,0,1,10.79,27.55c-24.28,7.24-67.58-16.36-67.58-16.36,9.76-8.93,19.45-14.46,28.53-17.46Z"/><path class="cls-16" d="M1296.8,491.55s-48.19,53.3-80.92,22.77-61-44.2-31.61-79.52,48-30.2,61.36-22.66S1308.5,476.89,1296.8,491.55Z"/><path class="cls-2" d="M1213.18,511s4.94-5.47-2.21-12.59-15.28-17.38-7.38-20.54,12.27,1.7,12.53-3.36-9.68-17.67,8.61-33.62,31.25-15.46,37-26.35-4.39-24.63-4.39-24.63,1.27,6.77-1.31,11.3c0,0-1.27-31.84-29.29-32.11s-38.22,22.57-47.62,31c-20.69,18.58-33.7,31-29.46,51S1188.31,508.35,1213.18,511Z"/><path class="cls-17" d="M1266.69,480.44l17.88-16.82s7.27,11.15,2.17,16S1266.69,480.44,1266.69,480.44Z"/><path class="cls-2" d="M1506.72,379.63c-7.65-47.31-30.66-99.32-30.66-99.32L1451,279.17s2.78,64.09,2.17,108.91c-.3,21.53-9.71,41-12.27,44.44-7.79,10.41-122.41,120.74-126.25,124.26l-.09.09h0c-12.21,2.07-10.84,22.11-23.38,25.48-20.9,5.6-55.6-4.61-74.17,2.27h0s-148.84.17-171.49-10.68-111-76-111-76L918.2,517s60.62,116.71,108.68,137.7c26.16,11.43,83.62,25.19,130.56,35.35a52.59,52.59,0,0,1,39,35.92c44.16,142.38,21.94,262.45,21.94,262.45s42.31,4.74,95-9.89c68.49-19,118.53-49.85,118.53-49.85,19.3-23.4,7.89-109.21,7.89-109.21s13.33,14.39,17.79,38.43c3.22,17.32,4.95,26.9,6,33a7.82,7.82,0,0,0,12.35,4.93c9.9-7.33,24-18.74,28.44-27.11,15.42-29.27-18.87-148.45-66.24-231.61a46.55,46.55,0,0,1,.89-47.67c29.14-46.74,73.93-120.86,74.48-135.74C1513.87,445.67,1511.13,406.82,1506.72,379.63Z"/><path class="cls-14" d="M1287.92,593.1s40,56.7,10.66,111.49-144.41,47.23-165.72,115.68l13,42.62,48.12-26.07s4-37,51.37-53.08c92.47-31.39,114.73-85.62,95.32-134.13-16.4-41-40.14-60.76-40.14-60.76Z"/><path class="cls-14" d="M1226.19,561.9l46.34,15.31,2.28,8.79L1217,584.63S1220.09,571.34,1226.19,561.9Z"/><path class="cls-14" d="M1294,549.17l1.54,24s6.08,5,6,4.31,13-20.55,13-20.55A133.11,133.11,0,0,0,1294,549.17Z"/><path class="cls-12" d="M1272.53,577.21l23.62-8a3.61,3.61,0,0,1,4.74,3l1.94,15.88a3.6,3.6,0,0,1-2.42,3.85l-10.4,3.52a3.58,3.58,0,0,1-3.33-.53l-15.17-11.43A3.61,3.61,0,0,1,1272.53,577.21Z"/><path class="cls-11" d="M1449.82,275.83l-2.08,19.89s25.11.38,25.11,0,.77-9.86.77-9.86l4.18,11,9.32-3.05-10.67-18S1465.8,280.85,1449.82,275.83Z"/><polygon class="cls-11" points="934.56 497.99 918.2 517.04 923 535.64 929.66 531.08 926.38 517.1 937.84 526.51 952.68 506.91 934.56 497.99"/><path class="cls-18" d="M931,515.47a1.53,1.53,0,1,1,1.52,1.53A1.52,1.52,0,0,1,931,515.47Z"/><path class="cls-18" d="M1468.2,288.37a1.21,1.21,0,1,1,1.21,1.2A1.21,1.21,0,0,1,1468.2,288.37Z"/><path class="cls-18" d="M1428.71,751.59a3.24,3.24,0,1,1,3.24,3.23A3.24,3.24,0,0,1,1428.71,751.59Z"/><path class="cls-18" d="M1403,698.08a3.24,3.24,0,1,1,3.23,3.23A3.24,3.24,0,0,1,1403,698.08Z"/><path class="cls-18" d="M1367.64,657.58a3.24,3.24,0,1,1,3.24,3.24A3.24,3.24,0,0,1,1367.64,657.58Z"/></g></g></svg>