<svg xmlns="http://www.w3.org/2000/svg" viewBox="0 0 3200 2000"><defs><style>.cls-1{fill:#ebf2f9;}.cls-2,.cls-3{fill:#2b478b;}.cls-3{stroke:#f7941e;stroke-miterlimit:10;stroke-width:5px;}.cls-4{fill:#ffa412;}.cls-5{fill:#ffb93e;}.cls-6{fill:#e2810e;}.cls-7{fill:#ffeddc;}.cls-8{fill:#db6a1d;}.cls-9{fill:#e5c1a1;}.cls-10{fill:#f9ddbf;}.cls-11{fill:#233862;}.cls-12{fill:#ed7d2b;}.cls-13{fill:#ffb27d;}.cls-14{fill:#f99746;}.cls-15{fill:#ed975d;}.cls-16{fill:#ffbf9d;}.cls-17{fill:#fff;}.cls-18{fill:#ebf3fa;}</style></defs><title>icons big</title><g id="Layer_3" data-name="Layer 3"><path class="cls-1" d="M1561.87,105.84c-592.24,0-1072.34,480.1-1072.34,1072.34,0,275.08,103.59,526,273.87,715.78H2360.33c170.28-189.83,273.88-440.7,273.88-715.78C2634.21,585.94,2154.1,105.84,1561.87,105.84Z"/><polygon class="cls-2" points="2421.51 944.17 2150.05 1033.94 2204.55 1079.36 2204.55 1079.36 1969.66 1325.25 1763.78 1148.47 941.93 1821.87 949.16 1821.98 1153.9 1821.98 1761.76 1323.92 1978.82 1510.29 2308.05 1165.63 2308.05 1165.62 2366.87 1214.64 2421.51 944.17"/><polygon class="cls-3" points="1105.36 1469 1041.52 1893.33 475.81 1808.21 475.8 1808.2 237.44 1772.34 301.29 1348.02 746.35 1414.98 1105.36 1469"/><path class="cls-3" d="M1052.25,1509.53,1002.68,1839,280,1730.21l49.57-329.43ZM998.73,1797l37.38-248.44a30.88,30.88,0,0,0-25.94-35.13l-641-96.45a31.42,31.42,0,0,0-35.76,26.4l-37.24,247.45a31.18,31.18,0,0,0,26.19,35.46l641.43,96.52A30.74,30.74,0,0,0,998.73,1797Z"/><path class="cls-3" d="M652.77,1708.51a89.63,89.63,0,1,1,102-75.3A89.63,89.63,0,0,1,652.77,1708.51Z"/><polygon class="cls-3" points="1157.42 1470.98 820.88 1737.2 465.97 1288.52 465.97 1288.51 316.43 1099.47 652.97 833.26 932.19 1186.24 1157.42 1470.98"/><path class="cls-3" d="M1091,1464.28,829.68,1671l-453.42-573.2L637.54,891.08ZM855.44,1637.64l197-155.86a30.89,30.89,0,0,0,5.06-43.38L655.38,930a31.44,31.44,0,0,0-44.16-5.16L415,1080.08a31.18,31.18,0,0,0-5.11,43.79l402.42,508.74A30.73,30.73,0,0,0,855.44,1637.64Z"/><circle class="cls-3" cx="733.6" cy="1281.03" r="89.63" transform="translate(-526.28 511.67) rotate(-28.79)"/><path class="cls-4" d="M1885,998.26a9.31,9.31,0,0,1,1.27-2h0a10.46,10.46,0,0,1,1.24-1.25l1.87-1.9.49.36c9.57-4.68,29.33.28,49.32,13.33,24.16,15.78,39.67,37.49,35.2,49l.68.5-2.69,2.68-.4.39-.07.08h0a10.46,10.46,0,0,1-2.32,1.62h0c-9.44,5-29.41,0-49.62-13.17C1895.28,1031.86,1879.64,1009.62,1885,998.26Z"/><path class="cls-5" d="M1942,1003.9c-24.61-16.07-48.88-19.88-54.2-8.51s10.31,33.6,34.92,49.66,48.88,19.88,54.2,8.52S1966.65,1020,1942,1003.9Z"/><path class="cls-4" d="M1924.13,1041.84c-10.3-6.75-19.18-14.88-25-22.9-6-8.2-8-15.39-5.79-20.23a9.41,9.41,0,0,1,6.33-5.05c9.08-2.61,25.17,2.39,41,12.75h0c10.3,6.75,19.18,14.88,25,22.9,5.95,8.2,8,15.39,5.79,20.23a9.37,9.37,0,0,1-6.33,5,19.29,19.29,0,0,1-5.41.69C1950.38,1055.27,1937.16,1050.37,1924.13,1041.84Zm-24-46.44a7.64,7.64,0,0,0-5.19,4.07c-1.91,4.16.14,10.87,5.61,18.41,5.69,7.85,14.39,15.82,24.52,22.45,12.61,8.26,25.72,13.13,34.64,13.13a17.6,17.6,0,0,0,4.86-.61,7.64,7.64,0,0,0,5.19-4.07c1.91-4.16-.14-10.87-5.61-18.41-5.69-7.85-14.4-15.82-24.52-22.45-12.61-8.26-25.72-13.13-34.64-13.13A17.6,17.6,0,0,0,1900.18,995.4Z"/><path class="cls-4" d="M2033.61,420.87a6.24,6.24,0,0,1,.9-1.44h0a7.48,7.48,0,0,1,.88-.9l1.33-1.34.35.26c6.79-3.33,20.82.2,35,9.46,17.15,11.2,28.16,26.62,25,34.81l.48.36-1.91,1.9-.28.28-.05.05h0a7.48,7.48,0,0,1-1.65,1.15h0c-6.71,3.51-20.89,0-35.23-9.35C2040.93,444.72,2029.83,428.93,2033.61,420.87Z"/><path class="cls-5" d="M2074.12,424.87c-17.47-11.41-34.7-14.11-38.47-6s7.32,23.85,24.79,35.26,34.7,14.11,38.47,6S2091.59,436.28,2074.12,424.87Z"/><path class="cls-4" d="M2061.41,451.8c-7.31-4.79-13.62-10.56-17.74-16.25s-5.69-10.93-4.11-14.36a6.66,6.66,0,0,1,4.49-3.59c6.45-1.85,17.87,1.7,29.1,9h0c7.32,4.79,13.62,10.56,17.74,16.26s5.69,10.92,4.11,14.36a6.64,6.64,0,0,1-4.49,3.58,13.86,13.86,0,0,1-3.84.49C2080,461.34,2070.66,457.86,2061.41,451.8Zm-17-33a5.42,5.42,0,0,0-3.68,2.88c-1.35,2.95.1,7.72,4,13.08a67.55,67.55,0,0,0,17.41,15.93c9,5.86,18.26,9.32,24.6,9.32a12.57,12.57,0,0,0,3.45-.43,5.43,5.43,0,0,0,3.68-2.89c1.35-3-.1-7.71-4-13.07a67.37,67.37,0,0,0-17.41-15.93c-8.95-5.87-18.26-9.33-24.6-9.33A12.19,12.19,0,0,0,2044.4,418.84Z"/><path class="cls-4" d="M2096.33,878.57a7.29,7.29,0,0,0-.94-1.48h0a7.11,7.11,0,0,0-.9-.92l-1.37-1.38-.36.26c-7-3.42-21.43.21-36,9.74-17.65,11.53-29,27.4-25.71,35.83l-.5.37,2,2,.29.28.06.06h0a7.62,7.62,0,0,0,1.69,1.18h0c6.91,3.62,21.5,0,36.27-9.62C2088.79,903.13,2100.21,886.88,2096.33,878.57Z"/><path class="cls-5" d="M2054.62,882.69c18-11.74,35.72-14.52,39.61-6.22s-7.54,24.56-25.52,36.3-35.72,14.52-39.6,6.22S2036.64,894.43,2054.62,882.69Z"/><path class="cls-4" d="M2041.71,920.23a14.3,14.3,0,0,1-4-.5,6.87,6.87,0,0,1-4.62-3.69c-1.62-3.54-.12-8.78,4.23-14.78s10.73-11.8,18.26-16.73h0c11.56-7.57,23.32-11.23,30-9.32a6.87,6.87,0,0,1,4.62,3.69c1.62,3.54.12,8.79-4.23,14.79a70.77,70.77,0,0,1-18.26,16.72C2058.19,916.65,2048.53,920.23,2041.71,920.23ZM2081.66,876c-6.52,0-16.1,3.56-25.32,9.59-7.39,4.85-13.75,10.67-17.91,16.4-4,5.52-5.49,10.42-4.1,13.46a5.56,5.56,0,0,0,3.79,3,12.85,12.85,0,0,0,3.55.45c6.52,0,16.1-3.56,25.32-9.6,7.39-4.84,13.76-10.67,17.91-16.4,4-5.51,5.5-10.42,4.1-13.46a5.62,5.62,0,0,0-3.79-3A12.87,12.87,0,0,0,2081.66,876Z"/><path class="cls-4" d="M1892.6,556.17a4.13,4.13,0,0,1,.56-.9h0a3.64,3.64,0,0,1,.55-.56l.83-.84.22.16c4.25-2.09,13,.12,21.92,5.92,10.74,7,17.63,16.67,15.64,21.8l.3.22-1.19,1.19-.18.18,0,0h0a5.56,5.56,0,0,1-1,.72h0c-4.2,2.2-13.08,0-22.06-5.85C1897.18,571.1,1890.23,561.22,1892.6,556.17Z"/><path class="cls-5" d="M1918,558.68c-10.93-7.15-21.72-8.84-24.08-3.79s4.58,14.94,15.52,22.08,21.72,8.83,24.09,3.78S1928.9,565.82,1918,558.68Z"/><path class="cls-4" d="M1910,575.54a42.94,42.94,0,0,1-11.11-10.18c-2.65-3.65-3.56-6.84-2.58-9a4.16,4.16,0,0,1,2.82-2.24c4-1.17,11.19,1.06,18.22,5.66h0A43.1,43.1,0,0,1,1928.47,570c2.64,3.65,3.56,6.84,2.57,9a4.14,4.14,0,0,1-2.81,2.24,8.54,8.54,0,0,1-2.41.31C1921.67,581.51,1915.8,579.33,1910,575.54Zm-10.65-20.64a3.39,3.39,0,0,0-2.31,1.8c-.85,1.85.06,4.84,2.5,8.19a42.26,42.26,0,0,0,10.89,10c5.61,3.67,11.44,5.83,15.4,5.83a7.51,7.51,0,0,0,2.16-.27,3.39,3.39,0,0,0,2.31-1.8c.85-1.85-.06-4.84-2.49-8.19a42.31,42.31,0,0,0-10.9-10c-5.61-3.67-11.43-5.83-15.4-5.83A7.56,7.56,0,0,0,1899.36,554.9Z"/><path class="cls-4" d="M1074.7,901a8.27,8.27,0,0,0-1.07-1.7h0a8.67,8.67,0,0,0-1-1.06l-1.57-1.59-.41.31c-8-3.94-24.65.23-41.45,11.2-20.3,13.25-33.33,31.5-29.57,41.2l-.57.43,2.25,2.25.34.33.06.06,0,0a9.82,9.82,0,0,0,2,1.36h0c7.93,4.16,24.72,0,41.7-11.07C1066,929.26,1079.17,910.57,1074.7,901Z"/><path class="cls-5" d="M1026.74,905.76c20.68-13.5,41.07-16.7,45.54-7.15s-8.66,28.24-29.35,41.74-41.07,16.7-45.54,7.15S1006.06,919.27,1026.74,905.76Z"/><path class="cls-4" d="M1011.89,948.93a16.37,16.37,0,0,1-4.55-.57,7.88,7.88,0,0,1-5.32-4.25c-1.87-4.06-.14-10.1,4.86-17,4.89-6.73,12.35-13.57,21-19.23h0c13.29-8.71,26.81-12.92,34.44-10.72a7.88,7.88,0,0,1,5.32,4.25c1.87,4.06.14,10.1-4.86,17-4.89,6.73-12.34,13.57-21,19.23C1030.84,944.82,1019.73,948.93,1011.89,948.93Zm45.94-50.82c-7.5,0-18.51,4.09-29.11,11-8.51,5.57-15.83,12.27-20.61,18.87-4.6,6.34-6.31,12-4.71,15.47a6.45,6.45,0,0,0,4.36,3.42,15,15,0,0,0,4.08.51c7.5,0,18.52-4.09,29.12-11,8.5-5.57,15.82-12.27,20.6-18.87,4.6-6.34,6.32-12,4.72-15.47a6.47,6.47,0,0,0-4.36-3.42A15.05,15.05,0,0,0,1057.83,898.11Z"/><path class="cls-4" d="M855.5,641.8a3.85,3.85,0,0,0-.62-1h0a5,5,0,0,0-.61-.61l-.91-.93-.24.18c-4.68-2.29-14.35.14-24.14,6.52-11.82,7.72-19.41,18.35-17.22,24l-.33.24,1.31,1.31.2.2,0,0h0a5.08,5.08,0,0,0,1.13.79h0c4.62,2.42,14.4,0,24.28-6.45C850.46,658.24,858.11,647.36,855.5,641.8Z"/><path class="cls-5" d="M827.58,644.56c12-7.87,23.91-9.73,26.52-4.17s-5.05,16.44-17.09,24.3-23.92,9.73-26.52,4.17S815.54,652.42,827.58,644.56Z"/><path class="cls-4" d="M818.93,669.69a9.8,9.8,0,0,1-2.65-.33,4.65,4.65,0,0,1-3.1-2.47c-1.08-2.37-.08-5.89,2.84-9.9a47.27,47.27,0,0,1,12.23-11.21h0c7.74-5.06,15.61-7.51,20.06-6.23A4.55,4.55,0,0,1,851.4,642c1.09,2.36.08,5.88-2.83,9.9a47.41,47.41,0,0,1-12.23,11.2C830,667.3,823.5,669.69,818.93,669.69Zm26.75-29.59c-4.36,0-10.78,2.38-16.95,6.42a46.65,46.65,0,0,0-12,11c-2.68,3.69-3.68,7-2.74,9a3.74,3.74,0,0,0,2.53,2,8.7,8.7,0,0,0,2.38.3c4.37,0,10.78-2.39,17-6.43a46.61,46.61,0,0,0,12-11c2.67-3.69,3.67-7,2.74-9a3.71,3.71,0,0,0-2.54-2A8.65,8.65,0,0,0,845.68,640.1Z"/><path class="cls-4" d="M1053.36,717a5.82,5.82,0,0,1,.79-1.26h0a6.3,6.3,0,0,1,.77-.78l1.17-1.19.31.23c6-2.93,18.33.18,30.82,8.33,15.1,9.86,24.79,23.43,22,30.65l.42.31L1108,755l-.25.24,0,0h0a6.58,6.58,0,0,1-1.45,1h0c-5.9,3.09-18.38,0-31-8.23C1059.8,738,1050,724.09,1053.36,717Z"/><path class="cls-5" d="M1089,720.52c-15.38-10-30.55-12.43-33.88-5.33s6.45,21,21.83,31,30.55,12.42,33.88,5.32S1104.41,730.56,1089,720.52Z"/><path class="cls-4" d="M1077.84,744.23a60.81,60.81,0,0,1-15.63-14.31c-3.72-5.13-5-9.62-3.61-12.65a5.82,5.82,0,0,1,4-3.15c5.68-1.64,15.74,1.49,25.62,8h0a60.46,60.46,0,0,1,15.63,14.31c3.72,5.13,5,9.62,3.61,12.64a5.86,5.86,0,0,1-4,3.16,12.63,12.63,0,0,1-3.39.42C1094.24,752.62,1086,749.56,1077.84,744.23Zm-15-29a4.84,4.84,0,0,0-3.24,2.54c-1.19,2.6.09,6.8,3.51,11.52a59.42,59.42,0,0,0,15.32,14c7.89,5.17,16.08,8.21,21.66,8.21a10.83,10.83,0,0,0,3-.38,4.81,4.81,0,0,0,3.25-2.54c1.19-2.6-.09-6.8-3.51-11.51a59.44,59.44,0,0,0-15.32-14c-7.89-5.16-16.08-8.21-21.66-8.21A11.34,11.34,0,0,0,1062.86,715.2Z"/><path class="cls-5" d="M2229,1868.37V1887a6.34,6.34,0,0,1-1.46,4,8.51,8.51,0,0,1-4,2.68,8.87,8.87,0,0,1-1.56.37,10.62,10.62,0,0,1-1.51.11H1867.35c-4.56,0-8.31-3-8.54-6.8,0-.12,0-.25,0-.37v-18.62c0-.12,0-.24,0-.36.23-3.78,4-6.81,8.54-6.81h353.09a9.33,9.33,0,0,1,1.51.12,8.85,8.85,0,0,1,1.56.36,8.53,8.53,0,0,1,4,2.69A6.29,6.29,0,0,1,2229,1868.37Z"/><path class="cls-4" d="M2055.6,1894.16H1866.43a7.47,7.47,0,0,1-7.62-6.8c0-.12,0-.25,0-.37v-18.62c0-.12,0-.24,0-.36a7.47,7.47,0,0,1,7.62-6.81h165.94A57.74,57.74,0,0,0,2055.6,1894.16Z"/><rect class="cls-4" x="2182.01" y="1861.2" width="4.01" height="32.96"/><rect class="cls-4" x="2168.42" y="1861.2" width="4.01" height="32.96"/><rect class="cls-4" x="2152.13" y="1861.2" width="4.01" height="32.96"/><rect class="cls-4" x="2127.16" y="1861.2" width="4.01" height="32.96"/><rect class="cls-4" x="2100.76" y="1861.2" width="4.01" height="32.96"/><rect class="cls-4" x="2060.28" y="1861.2" width="4.01" height="32.96"/><rect class="cls-4" x="2022.38" y="1861.2" width="4.01" height="32.96"/><rect class="cls-4" x="1988.54" y="1861.2" width="4.01" height="32.96"/><rect class="cls-4" x="2194.94" y="1861.2" width="4.01" height="32.96"/><rect class="cls-4" x="2203.48" y="1861.2" width="4.01" height="32.96"/><rect class="cls-4" x="2211.73" y="1861.2" width="4.01" height="32.96"/><path class="cls-4" d="M2222,1861.32v32.73a10.62,10.62,0,0,1-1.51.11h-2.51v-33h2.51A9.33,9.33,0,0,1,2222,1861.32Z"/><path class="cls-4" d="M2227.52,1864.37V1891a8.51,8.51,0,0,1-4,2.68v-32A8.53,8.53,0,0,1,2227.52,1864.37Z"/><path class="cls-5" d="M2191.23,1835.41V1854a6.35,6.35,0,0,1-1.46,4,8.46,8.46,0,0,1-4,2.69,10.12,10.12,0,0,1-1.56.37,10.84,10.84,0,0,1-1.51.11H1829.6c-4.56,0-8.31-3-8.54-6.8,0-.13,0-.25,0-.37v-18.62c0-.12,0-.25,0-.37.23-3.77,4-6.8,8.54-6.8h353.09c.23,0,.45,0,.67,0l.29,0,.32,0,.23,0a9.09,9.09,0,0,1,1.56.37l.22.08.22.07.43.18.24.11.22.11.4.22a4,4,0,0,1,.44.27l.33.23h0l.22.16c.21.17.42.35.62.54l.17.17.16.17c.11.12.22.24.32.37A6.35,6.35,0,0,1,2191.23,1835.41Z"/><path class="cls-4" d="M2017.84,1861.2H1828.68a7.46,7.46,0,0,1-7.62-6.8c0-.13,0-.25,0-.37v-18.62c0-.12,0-.25,0-.37a7.46,7.46,0,0,1,7.62-6.8h165.93c.08.27.15.54.23.81A57.64,57.64,0,0,0,2017.84,1861.2Z"/><rect class="cls-4" x="2144.25" y="1828.24" width="4.01" height="32.96"/><rect class="cls-4" x="2130.67" y="1828.24" width="4.01" height="32.96"/><rect class="cls-4" x="2114.38" y="1828.24" width="4.01" height="32.96"/><rect class="cls-4" x="2089.41" y="1828.24" width="4.01" height="32.96"/><rect class="cls-4" x="2063.01" y="1828.24" width="4.01" height="32.96"/><rect class="cls-4" x="2022.53" y="1828.24" width="4.01" height="32.96"/><rect class="cls-4" x="1984.63" y="1828.24" width="4.01" height="32.96"/><rect class="cls-4" x="1950.78" y="1828.24" width="4.01" height="32.96"/><rect class="cls-4" x="2157.18" y="1828.24" width="4.01" height="32.96"/><rect class="cls-4" x="2165.73" y="1828.24" width="4.01" height="32.96"/><rect class="cls-4" x="2173.98" y="1828.24" width="4.01" height="32.96"/><path class="cls-4" d="M2184.2,1828.35v32.73a9.51,9.51,0,0,1-1.51.12h-2.51v-33h2.51A10.84,10.84,0,0,1,2184.2,1828.35Z"/><path class="cls-4" d="M2189.77,1831.41V1858a8.58,8.58,0,0,1-4,2.69v-32A8.5,8.5,0,0,1,2189.77,1831.41Z"/><path class="cls-5" d="M2209.48,1803.26v18.62a6.32,6.32,0,0,1-1.47,4,8.53,8.53,0,0,1-4,2.69,8.85,8.85,0,0,1-1.56.36,9.33,9.33,0,0,1-1.51.12H1847.84a9.77,9.77,0,0,1-3.94-.81,7.34,7.34,0,0,1-4.57-5.67l0-.33v-19.35c.24-3.77,4-6.8,8.54-6.8h353.09a10.62,10.62,0,0,1,1.51.11,8.87,8.87,0,0,1,1.56.37,8.46,8.46,0,0,1,4,2.69A6.3,6.3,0,0,1,2209.48,1803.26Z"/><path class="cls-4" d="M2036.09,1829.05H1846.92a7.91,7.91,0,0,1-3.51-.81,7.2,7.2,0,0,1-4.08-5.67l0-.33v-19.35a7.47,7.47,0,0,1,7.62-6.8h165.94a57.86,57.86,0,0,0,22.07,32.15Z"/><rect class="cls-4" x="2162.5" y="1796.09" width="4.01" height="32.96"/><rect class="cls-4" x="2148.91" y="1796.09" width="4.01" height="32.96"/><rect class="cls-4" x="2132.62" y="1796.09" width="4.01" height="32.96"/><rect class="cls-4" x="2107.65" y="1796.09" width="4.01" height="32.96"/><rect class="cls-4" x="2081.25" y="1796.09" width="4.01" height="32.96"/><rect class="cls-4" x="2040.77" y="1796.09" width="4.01" height="32.96"/><rect class="cls-4" x="2002.87" y="1796.09" width="4.01" height="32.96"/><rect class="cls-4" x="1969.03" y="1796.09" width="4.01" height="32.96"/><rect class="cls-4" x="2175.43" y="1796.09" width="4.01" height="32.96"/><rect class="cls-4" x="2183.97" y="1796.09" width="4.01" height="32.96"/><rect class="cls-4" x="2192.22" y="1796.09" width="4.01" height="32.96"/><path class="cls-4" d="M2202.44,1796.2v32.73a9.33,9.33,0,0,1-1.51.12h-2.51v-33h2.51A10.62,10.62,0,0,1,2202.44,1796.2Z"/><path class="cls-4" d="M2208,1799.25v26.63a8.44,8.44,0,0,1-4,2.68v-32A8.51,8.51,0,0,1,2208,1799.25Z"/><path class="cls-5" d="M2217.93,1770.3v18.61a6.37,6.37,0,0,1-1.46,4,8.51,8.51,0,0,1-4,2.68,8.87,8.87,0,0,1-1.56.37,9.33,9.33,0,0,1-1.51.12H1856.3c-4.56,0-8.31-3-8.54-6.81,0-.12,0-.24,0-.37V1770.3c0-.13,0-.25,0-.37.22-3.5,3.44-6.35,7.53-6.76.33,0,.66-.05,1-.05h353.09a9.33,9.33,0,0,1,1.51.12,8.87,8.87,0,0,1,1.56.37,8.51,8.51,0,0,1,4,2.68A6.37,6.37,0,0,1,2217.93,1770.3Z"/><path class="cls-4" d="M2044.55,1796.09H1855.38a7.47,7.47,0,0,1-7.62-6.81c0-.12,0-.24,0-.37V1770.3c0-.13,0-.25,0-.37a7.41,7.41,0,0,1,6.72-6.76,8.72,8.72,0,0,1,.9-.05h165.94a.07.07,0,0,0,0,.05A57.84,57.84,0,0,0,2044.55,1796.09Z"/><rect class="cls-4" x="2170.95" y="1763.12" width="4.01" height="32.96"/><rect class="cls-4" x="2157.37" y="1763.12" width="4.01" height="32.96"/><rect class="cls-4" x="2141.08" y="1763.12" width="4.01" height="32.96"/><rect class="cls-4" x="2116.11" y="1763.12" width="4.01" height="32.96"/><rect class="cls-4" x="2089.71" y="1763.12" width="4.01" height="32.96"/><rect class="cls-4" x="2049.23" y="1763.12" width="4.01" height="32.96"/><rect class="cls-4" x="2011.33" y="1763.12" width="4.01" height="32.96"/><rect class="cls-4" x="1977.49" y="1763.12" width="4.01" height="32.96"/><rect class="cls-4" x="2183.89" y="1763.12" width="4.01" height="32.96"/><rect class="cls-4" x="2192.43" y="1763.12" width="4.01" height="32.96"/><rect class="cls-4" x="2200.68" y="1763.12" width="4.01" height="32.96"/><path class="cls-4" d="M2210.9,1763.24V1796a9.33,9.33,0,0,1-1.51.12h-2.51v-33h2.51A9.33,9.33,0,0,1,2210.9,1763.24Z"/><path class="cls-4" d="M2216.47,1766.29v26.63a8.51,8.51,0,0,1-4,2.68v-32A8.44,8.44,0,0,1,2216.47,1766.29Z"/><path class="cls-5" d="M2192,1737.39V1756a6.34,6.34,0,0,1-1.46,4,8.51,8.51,0,0,1-4,2.68,8.87,8.87,0,0,1-1.56.37c-.17,0-.33,0-.5.06l-.28,0H1830.34c-4.56,0-8.31-3-8.54-6.8,0-.12,0-.25,0-.37v-18.61c0-.13,0-.25,0-.37l0-.31c.34-3,3-5.54,6.4-6.28l.26,0a10.1,10.1,0,0,1,1.85-.17h353.09c.26,0,.52,0,.77,0l.34,0h0l.4.06a8.85,8.85,0,0,1,1.56.36,8.53,8.53,0,0,1,4,2.69A6.32,6.32,0,0,1,2192,1737.39Z"/><path class="cls-4" d="M2018.59,1763.17H1829.42a7.47,7.47,0,0,1-7.62-6.8c0-.12,0-.25,0-.37v-18.61c0-.13,0-.25,0-.37l0-.31a7.35,7.35,0,0,1,5.91-6.32,1.91,1.91,0,0,1,.33-.06,7.53,7.53,0,0,1,1.35-.12h165.94a1.55,1.55,0,0,0,.06.23,57.77,57.77,0,0,0,23.09,32.68Z"/><rect class="cls-4" x="2145" y="1730.21" width="4.01" height="32.96"/><rect class="cls-4" x="2131.41" y="1730.21" width="4.01" height="32.96"/><rect class="cls-4" x="2115.12" y="1730.21" width="4.01" height="32.96"/><rect class="cls-4" x="2090.15" y="1730.21" width="4.01" height="32.96"/><rect class="cls-4" x="2063.75" y="1730.21" width="4.01" height="32.96"/><rect class="cls-4" x="2023.27" y="1730.21" width="4.01" height="32.96"/><rect class="cls-4" x="1985.37" y="1730.21" width="4.01" height="32.96"/><rect class="cls-4" x="1951.53" y="1730.21" width="4.01" height="32.96"/><rect class="cls-4" x="2157.93" y="1730.21" width="4.01" height="32.96"/><rect class="cls-4" x="2166.47" y="1730.21" width="4.01" height="32.96"/><rect class="cls-4" x="2174.72" y="1730.21" width="4.01" height="32.96"/><path class="cls-4" d="M2184.94,1730.33v32.73a10.62,10.62,0,0,1-1.51.11h-2.51v-33h2.51A9.33,9.33,0,0,1,2184.94,1730.33Z"/><path class="cls-4" d="M2190.51,1733.38V1760a8.46,8.46,0,0,1-4,2.69v-32A8.46,8.46,0,0,1,2190.51,1733.38Z"/><path class="cls-5" d="M2191.23,1704.66v18.61a6.39,6.39,0,0,1-1.46,4,8.51,8.51,0,0,1-4,2.68,9.47,9.47,0,0,1-1.22.31h0l-.33.06a10.84,10.84,0,0,1-1.51.11H1829.6a10,10,0,0,1-1.11-.06l-.42-.05c-3.84-.59-6.81-3.35-7-6.69,0-.12,0-.25,0-.37v-18.61c0-.13,0-.25,0-.37.23-3.78,4-6.81,8.54-6.81h353.09c.23,0,.45,0,.67,0l.29,0,.32,0,.23,0a9.09,9.09,0,0,1,1.56.37l.22.07.22.08.43.17.46.23c.14.06.27.14.4.21l.44.27.33.23,0,0,.22.16.62.53.17.17.16.18c.11.11.22.24.32.36A6.37,6.37,0,0,1,2191.23,1704.66Z"/><path class="cls-4" d="M2017.84,1730.44H1828.23l-.49,0a7.4,7.4,0,0,1-6.68-6.75c0-.12,0-.25,0-.37v-18.61c0-.13,0-.25,0-.37a7.47,7.47,0,0,1,7.62-6.81h165.93c.08.27.15.54.23.81a57.7,57.7,0,0,0,22.66,31.92Z"/><rect class="cls-4" x="2144.25" y="1697.48" width="4.01" height="32.96"/><rect class="cls-4" x="2130.67" y="1697.48" width="4.01" height="32.96"/><rect class="cls-4" x="2114.38" y="1697.48" width="4.01" height="32.96"/><rect class="cls-4" x="2089.41" y="1697.48" width="4.01" height="32.96"/><rect class="cls-4" x="2063.01" y="1697.48" width="4.01" height="32.96"/><rect class="cls-4" x="2022.53" y="1697.48" width="4.01" height="32.96"/><rect class="cls-4" x="1984.63" y="1697.48" width="4.01" height="32.96"/><rect class="cls-4" x="1950.78" y="1697.48" width="4.01" height="32.96"/><rect class="cls-4" x="2157.18" y="1697.48" width="4.01" height="32.96"/><rect class="cls-4" x="2165.73" y="1697.48" width="4.01" height="32.96"/><rect class="cls-4" x="2173.98" y="1697.48" width="4.01" height="32.96"/><path class="cls-4" d="M2184.2,1697.6v32.73a9.5,9.5,0,0,1-1.51.11h-2.51v-33h2.51A9.51,9.51,0,0,1,2184.2,1697.6Z"/><path class="cls-4" d="M2189.77,1700.65v26.63a8.56,8.56,0,0,1-4,2.68v-32A8.49,8.49,0,0,1,2189.77,1700.65Z"/><path class="cls-5" d="M2209.48,1672.51v18.61a6.35,6.35,0,0,1-1.47,4,8.51,8.51,0,0,1-4,2.68,8.87,8.87,0,0,1-1.56.37,9.34,9.34,0,0,1-1.51.11H1847.84a9.77,9.77,0,0,1-3.94-.81,7.34,7.34,0,0,1-4.57-5.67l0-.32v-19.35c.24-3.78,4-6.81,8.54-6.81h353.09a9.33,9.33,0,0,1,1.51.12,8.87,8.87,0,0,1,1.56.37,8.44,8.44,0,0,1,4,2.68A6.33,6.33,0,0,1,2209.48,1672.51Z"/><path class="cls-4" d="M2036.09,1698.29H1846.92a7.91,7.91,0,0,1-3.51-.81,7.2,7.2,0,0,1-4.08-5.67l0-.32v-19.35a7.47,7.47,0,0,1,7.62-6.81h165.94a57.83,57.83,0,0,0,22.07,32.15Z"/><rect class="cls-4" x="2162.5" y="1665.33" width="4.01" height="32.96"/><rect class="cls-4" x="2148.91" y="1665.33" width="4.01" height="32.96"/><rect class="cls-4" x="2132.62" y="1665.33" width="4.01" height="32.96"/><rect class="cls-4" x="2107.65" y="1665.33" width="4.01" height="32.96"/><rect class="cls-4" x="2081.25" y="1665.33" width="4.01" height="32.96"/><rect class="cls-4" x="2040.77" y="1665.33" width="4.01" height="32.96"/><rect class="cls-4" x="2002.87" y="1665.33" width="4.01" height="32.96"/><rect class="cls-4" x="1969.03" y="1665.33" width="4.01" height="32.96"/><rect class="cls-4" x="2175.43" y="1665.33" width="4.01" height="32.96"/><rect class="cls-4" x="2183.97" y="1665.33" width="4.01" height="32.96"/><rect class="cls-4" x="2192.22" y="1665.33" width="4.01" height="32.96"/><path class="cls-4" d="M2202.44,1665.45v32.73a9.34,9.34,0,0,1-1.51.11h-2.51v-33h2.51A9.33,9.33,0,0,1,2202.44,1665.45Z"/><path class="cls-4" d="M2208,1668.5v26.63a8.51,8.51,0,0,1-4,2.68v-32A8.44,8.44,0,0,1,2208,1668.5Z"/><path class="cls-5" d="M2238.33,1639.54v18.62a6.35,6.35,0,0,1-1.46,4,8.5,8.5,0,0,1-4,2.69,10,10,0,0,1-1.57.37,10.59,10.59,0,0,1-1.5.11h-353.1c-4.55,0-8.3-3-8.53-6.8,0-.13,0-.25,0-.37v-18.62c0-.12,0-.24,0-.37.21-3.49,3.44-6.34,7.52-6.75a8.44,8.44,0,0,1,1-.05h353.1a10.59,10.59,0,0,1,1.5.11,10,10,0,0,1,1.57.37,8.5,8.5,0,0,1,4,2.69A6.35,6.35,0,0,1,2238.33,1639.54Z"/><path class="cls-4" d="M2064.94,1665.33H1875.78a7.47,7.47,0,0,1-7.62-6.8c0-.13,0-.25,0-.37v-18.62c0-.12,0-.24,0-.37a7.4,7.4,0,0,1,6.71-6.75,6.85,6.85,0,0,1,.91-.05h165.93l0,.05A57.77,57.77,0,0,0,2064.94,1665.33Z"/><rect class="cls-4" x="2191.35" y="1632.37" width="4.01" height="32.96"/><rect class="cls-4" x="2177.77" y="1632.37" width="4.01" height="32.96"/><rect class="cls-4" x="2161.48" y="1632.37" width="4.01" height="32.96"/><rect class="cls-4" x="2136.51" y="1632.37" width="4.01" height="32.96"/><rect class="cls-4" x="2110.11" y="1632.37" width="4.01" height="32.96"/><rect class="cls-4" x="2069.63" y="1632.37" width="4.01" height="32.96"/><rect class="cls-4" x="2031.73" y="1632.37" width="4.01" height="32.96"/><rect class="cls-4" x="1997.88" y="1632.37" width="4.01" height="32.96"/><rect class="cls-4" x="2204.28" y="1632.37" width="4.01" height="32.96"/><rect class="cls-4" x="2212.83" y="1632.37" width="4.01" height="32.96"/><rect class="cls-4" x="2221.08" y="1632.37" width="4.01" height="32.96"/><path class="cls-4" d="M2231.3,1632.48v32.74a10.84,10.84,0,0,1-1.51.11h-2.51v-33h2.51A10.84,10.84,0,0,1,2231.3,1632.48Z"/><path class="cls-4" d="M2236.87,1635.54v26.62a8.46,8.46,0,0,1-4,2.69v-32A8.46,8.46,0,0,1,2236.87,1635.54Z"/><path class="cls-5" d="M2192,1606.63v18.61a6.32,6.32,0,0,1-1.46,4,8.44,8.44,0,0,1-4,2.68,8.87,8.87,0,0,1-1.56.37l-.5.07-.39,0H1830.34c-4.56,0-8.31-3-8.54-6.81,0-.12,0-.24,0-.37v-18.61c0-.12,0-.25,0-.37.23-3.77,4-6.8,8.54-6.8h353.54a9.28,9.28,0,0,1,1.06.1,8.87,8.87,0,0,1,1.56.37,5.4,5.4,0,0,1,.74.28,3.49,3.49,0,0,1,.44.2l.05,0c.15.07.29.15.43.23l.07,0,.38.24a6.61,6.61,0,0,1,.85.62l.24.21,0,0,.15.14,0,0c.08.09.17.17.25.27s.23.25.34.38A6.34,6.34,0,0,1,2192,1606.63Z"/><path class="cls-4" d="M2018.59,1632.42H1829.42a7.47,7.47,0,0,1-7.62-6.81c0-.12,0-.24,0-.37v-18.61c0-.12,0-.25,0-.37a7.47,7.47,0,0,1,7.62-6.8h165.94c.06.25.13.5.21.76a57.72,57.72,0,0,0,22.94,32.15Z"/><rect class="cls-4" x="2145" y="1599.46" width="4.01" height="32.96"/><rect class="cls-4" x="2131.41" y="1599.46" width="4.01" height="32.96"/><rect class="cls-4" x="2115.12" y="1599.46" width="4.01" height="32.96"/><rect class="cls-4" x="2090.15" y="1599.46" width="4.01" height="32.96"/><rect class="cls-4" x="2063.75" y="1599.46" width="4.01" height="32.96"/><rect class="cls-4" x="2023.27" y="1599.46" width="4.01" height="32.96"/><rect class="cls-4" x="1985.37" y="1599.46" width="4.01" height="32.96"/><rect class="cls-4" x="1951.53" y="1599.46" width="4.01" height="32.96"/><rect class="cls-4" x="2157.93" y="1599.46" width="4.01" height="32.96"/><rect class="cls-4" x="2166.47" y="1599.46" width="4.01" height="32.96"/><rect class="cls-4" x="2174.72" y="1599.46" width="4.01" height="32.96"/><path class="cls-4" d="M2184.94,1599.57v32.73a9.33,9.33,0,0,1-1.51.12h-2.51v-33h2.51A9.34,9.34,0,0,1,2184.94,1599.57Z"/><path class="cls-4" d="M2190.51,1602.62v26.63a8.44,8.44,0,0,1-4,2.68v-32A8.51,8.51,0,0,1,2190.51,1602.62Z"/><path class="cls-5" d="M2217.93,1574.43V1593a6.37,6.37,0,0,1-1.46,4,8.51,8.51,0,0,1-4,2.68,8.87,8.87,0,0,1-1.56.37,9.33,9.33,0,0,1-1.51.12H1856.3a9.93,9.93,0,0,1-3.82-.76,7.36,7.36,0,0,1-4.69-5.75l0-.3c0-.12,0-.24,0-.37v-18.61c0-.13,0-.25,0-.37.22-3.5,3.44-6.35,7.53-6.75a8.31,8.31,0,0,1,1-.06h353.09a9.33,9.33,0,0,1,1.51.12,8.87,8.87,0,0,1,1.56.37,8.51,8.51,0,0,1,4,2.68A6.37,6.37,0,0,1,2217.93,1574.43Z"/><path class="cls-4" d="M2044.55,1600.22H1855.38a8,8,0,0,1-3.4-.76,7.24,7.24,0,0,1-4.19-5.75l0-.3c0-.12,0-.24,0-.37v-18.61c0-.13,0-.25,0-.37a7.39,7.39,0,0,1,6.72-6.75,6.58,6.58,0,0,1,.9-.06h165.94a.13.13,0,0,0,0,.06,57.84,57.84,0,0,0,22.13,32.15Z"/><rect class="cls-4" x="2170.95" y="1567.25" width="4.01" height="32.96"/><rect class="cls-4" x="2157.37" y="1567.25" width="4.01" height="32.96"/><rect class="cls-4" x="2141.08" y="1567.25" width="4.01" height="32.96"/><rect class="cls-4" x="2116.11" y="1567.25" width="4.01" height="32.96"/><rect class="cls-4" x="2089.71" y="1567.25" width="4.01" height="32.96"/><rect class="cls-4" x="2049.23" y="1567.25" width="4.01" height="32.96"/><rect class="cls-4" x="2011.33" y="1567.25" width="4.01" height="32.96"/><rect class="cls-4" x="1977.49" y="1567.25" width="4.01" height="32.96"/><rect class="cls-4" x="2183.89" y="1567.25" width="4.01" height="32.96"/><rect class="cls-4" x="2192.43" y="1567.25" width="4.01" height="32.96"/><rect class="cls-4" x="2200.68" y="1567.25" width="4.01" height="32.96"/><path class="cls-4" d="M2210.9,1567.37v32.73a9.33,9.33,0,0,1-1.51.12h-2.51v-33h2.51A9.33,9.33,0,0,1,2210.9,1567.37Z"/><path class="cls-4" d="M2216.47,1570.42v26.63a8.51,8.51,0,0,1-4,2.68v-32A8.51,8.51,0,0,1,2216.47,1570.42Z"/><path class="cls-5" d="M2229,1541.52v18.61a6.34,6.34,0,0,1-1.46,4,8.51,8.51,0,0,1-4,2.68,8.87,8.87,0,0,1-1.56.37c-.17,0-.33,0-.5.06l-.28,0h-.27l-.46,0H1867.35c-4.56,0-8.31-3-8.54-6.81,0-.12,0-.25,0-.37v-18.61c0-.13,0-.25,0-.37.23-3.78,4-6.81,8.54-6.81h353.09a9.33,9.33,0,0,1,1.51.12,8.87,8.87,0,0,1,1.56.37,8.44,8.44,0,0,1,4,2.68A6.32,6.32,0,0,1,2229,1541.52Z"/><path class="cls-4" d="M2055.6,1567.31H1866.43a7.48,7.48,0,0,1-7.62-6.81c0-.12,0-.25,0-.37v-18.61c0-.13,0-.25,0-.37a7.47,7.47,0,0,1,7.62-6.81h165.94a57.73,57.73,0,0,0,23.15,32.91Z"/><rect class="cls-4" x="2182.01" y="1534.34" width="4.01" height="32.96"/><rect class="cls-4" x="2168.42" y="1534.34" width="4.01" height="32.96"/><rect class="cls-4" x="2152.13" y="1534.34" width="4.01" height="32.96"/><rect class="cls-4" x="2127.16" y="1534.34" width="4.01" height="32.96"/><rect class="cls-4" x="2100.76" y="1534.34" width="4.01" height="32.96"/><rect class="cls-4" x="2060.28" y="1534.34" width="4.01" height="32.96"/><rect class="cls-4" x="2022.38" y="1534.34" width="4.01" height="32.96"/><rect class="cls-4" x="1988.54" y="1534.34" width="4.01" height="32.96"/><rect class="cls-4" x="2194.94" y="1534.34" width="4.01" height="32.96"/><rect class="cls-4" x="2203.48" y="1534.34" width="4.01" height="32.96"/><rect class="cls-4" x="2211.73" y="1534.34" width="4.01" height="32.96"/><path class="cls-4" d="M2222,1534.46v32.73a9.34,9.34,0,0,1-1.51.11h-2.51v-33h2.51A9.33,9.33,0,0,1,2222,1534.46Z"/><path class="cls-4" d="M2227.52,1537.51v26.63a8.51,8.51,0,0,1-4,2.68v-32A8.53,8.53,0,0,1,2227.52,1537.51Z"/><path class="cls-5" d="M2208.59,1504.43V1523a6.33,6.33,0,0,1-1.47,4,8.51,8.51,0,0,1-4,2.68,8.87,8.87,0,0,1-1.56.37,9.33,9.33,0,0,1-1.51.12H1847c-4.55,0-8.3-3-8.54-6.81,0-.12,0-.25,0-.37v-18.61c0-.13,0-.25,0-.37.24-3.78,4-6.81,8.54-6.81H2200a9.33,9.33,0,0,1,1.51.12,8.87,8.87,0,0,1,1.56.37,8.51,8.51,0,0,1,4,2.68A6.33,6.33,0,0,1,2208.59,1504.43Z"/><path class="cls-4" d="M2035.2,1530.22H1846a7.47,7.47,0,0,1-7.62-6.81c0-.12,0-.25,0-.37v-18.61c0-.13,0-.25,0-.37a7.47,7.47,0,0,1,7.62-6.81H2012A57.76,57.76,0,0,0,2035.2,1530.22Z"/><rect class="cls-4" x="2161.61" y="1497.25" width="4.01" height="32.96"/><rect class="cls-4" x="2148.02" y="1497.25" width="4.01" height="32.96"/><rect class="cls-4" x="2131.73" y="1497.25" width="4.01" height="32.96"/><rect class="cls-4" x="2106.76" y="1497.25" width="4.01" height="32.96"/><rect class="cls-4" x="2080.36" y="1497.25" width="4.01" height="32.96"/><rect class="cls-4" x="2039.88" y="1497.25" width="4.01" height="32.96"/><rect class="cls-4" x="2001.98" y="1497.25" width="4.01" height="32.96"/><rect class="cls-4" x="1968.14" y="1497.25" width="4.01" height="32.96"/><rect class="cls-4" x="2174.54" y="1497.25" width="4.01" height="32.96"/><rect class="cls-4" x="2183.08" y="1497.25" width="4.01" height="32.96"/><rect class="cls-4" x="2191.33" y="1497.25" width="4.01" height="32.96"/><path class="cls-4" d="M2201.55,1497.37v32.73a9.33,9.33,0,0,1-1.51.12h-2.51v-33H2200A9.33,9.33,0,0,1,2201.55,1497.37Z"/><path class="cls-4" d="M2207.12,1500.42v26.63a8.51,8.51,0,0,1-4,2.68v-32A8.51,8.51,0,0,1,2207.12,1500.42Z"/><path class="cls-5" d="M2170.83,1471.46v18.62a6.29,6.29,0,0,1-1.46,4,8.46,8.46,0,0,1-4,2.69,9.86,9.86,0,0,1-1.56.37,10.62,10.62,0,0,1-1.51.11H1809.2c-4.56,0-8.31-3-8.54-6.8,0-.13,0-.25,0-.37v-18.62c0-.12,0-.24,0-.37.23-3.77,4-6.8,8.54-6.8h353.09l.68,0a2.66,2.66,0,0,1,.28,0,3.16,3.16,0,0,1,.32,0l.23,0a9.86,9.86,0,0,1,1.56.37l.22.08.22.08.43.17.24.12.22.1.4.22.44.27a3.88,3.88,0,0,1,.33.23h0l.22.17a7.87,7.87,0,0,1,.62.53c.06.06.12.11.17.17l.16.17c.11.12.22.24.32.37A6.29,6.29,0,0,1,2170.83,1471.46Z"/><path class="cls-4" d="M1997.45,1497.25H1808.28a7.46,7.46,0,0,1-7.62-6.8c0-.13,0-.25,0-.37v-18.62c0-.12,0-.24,0-.37a7.46,7.46,0,0,1,7.62-6.8h165.93c.08.27.15.54.23.81A57.62,57.62,0,0,0,1997.45,1497.25Z"/><rect class="cls-4" x="2123.86" y="1464.29" width="4.01" height="32.96"/><rect class="cls-4" x="2110.27" y="1464.29" width="4.01" height="32.96"/><rect class="cls-4" x="2093.98" y="1464.29" width="4.01" height="32.96"/><rect class="cls-4" x="2069.01" y="1464.29" width="4.01" height="32.96"/><rect class="cls-4" x="2042.61" y="1464.29" width="4.01" height="32.96"/><rect class="cls-4" x="2002.13" y="1464.29" width="4.01" height="32.96"/><rect class="cls-4" x="1964.23" y="1464.29" width="4.01" height="32.96"/><rect class="cls-4" x="1930.39" y="1464.29" width="4.01" height="32.96"/><rect class="cls-4" x="2136.79" y="1464.29" width="4.01" height="32.96"/><rect class="cls-4" x="2145.33" y="1464.29" width="4.01" height="32.96"/><rect class="cls-4" x="2153.58" y="1464.29" width="4.01" height="32.96"/><path class="cls-4" d="M2163.8,1464.4v32.74a10.73,10.73,0,0,1-1.51.11h-2.51v-33h2.51A10.73,10.73,0,0,1,2163.8,1464.4Z"/><path class="cls-4" d="M2169.37,1467.46v26.62a8.46,8.46,0,0,1-4,2.69v-32A8.46,8.46,0,0,1,2169.37,1467.46Z"/><path class="cls-5" d="M2189.08,1439.31v18.62a6.3,6.3,0,0,1-1.47,4,8.46,8.46,0,0,1-4,2.69,8.87,8.87,0,0,1-1.56.37,10.62,10.62,0,0,1-1.51.11H1827.44a9.77,9.77,0,0,1-3.94-.81,7.34,7.34,0,0,1-4.57-5.67c0-.11,0-.22,0-.32s0-.25,0-.37v-18.62c0-.12,0-.24,0-.37.23-3.77,4-6.8,8.53-6.8h353.09a10.62,10.62,0,0,1,1.51.11,9.86,9.86,0,0,1,1.56.37,8.46,8.46,0,0,1,4,2.69A6.3,6.3,0,0,1,2189.08,1439.31Z"/><path class="cls-4" d="M2015.69,1465.1H1826.52a7.91,7.91,0,0,1-3.51-.81,7.22,7.22,0,0,1-4.08-5.67c0-.11,0-.22,0-.32s0-.25,0-.37v-18.62c0-.12,0-.24,0-.37a7.46,7.46,0,0,1,7.61-6.8h165.94a57.86,57.86,0,0,0,22.07,32.15Z"/><rect class="cls-4" x="2142.1" y="1432.14" width="4.01" height="32.96"/><rect class="cls-4" x="2128.51" y="1432.14" width="4.01" height="32.96"/><rect class="cls-4" x="2112.22" y="1432.14" width="4.01" height="32.96"/><rect class="cls-4" x="2087.26" y="1432.14" width="4.01" height="32.96"/><rect class="cls-4" x="2060.85" y="1432.14" width="4.01" height="32.96"/><rect class="cls-4" x="2020.37" y="1432.14" width="4.01" height="32.96"/><rect class="cls-4" x="1982.47" y="1432.14" width="4.01" height="32.96"/><rect class="cls-4" x="1948.63" y="1432.14" width="4.01" height="32.96"/><rect class="cls-4" x="2155.03" y="1432.14" width="4.01" height="32.96"/><rect class="cls-4" x="2163.57" y="1432.14" width="4.01" height="32.96"/><rect class="cls-4" x="2171.82" y="1432.14" width="4.01" height="32.96"/><path class="cls-4" d="M2182,1432.25V1465a10.62,10.62,0,0,1-1.51.11H2178v-33h2.5A10.62,10.62,0,0,1,2182,1432.25Z"/><path class="cls-4" d="M2187.61,1435.31v26.62a8.46,8.46,0,0,1-4,2.69v-32A8.46,8.46,0,0,1,2187.61,1435.31Z"/><path class="cls-5" d="M2197.53,1406.35V1425a6.32,6.32,0,0,1-1.46,4,8.44,8.44,0,0,1-4,2.68,8.87,8.87,0,0,1-1.56.37,9.33,9.33,0,0,1-1.51.12H1835.9c-4.56,0-8.3-3-8.54-6.81,0-.12,0-.24,0-.37v-18.61c0-.12,0-.25,0-.37.22-3.49,3.44-6.34,7.53-6.75a8.33,8.33,0,0,1,1,0H2189a9.34,9.34,0,0,1,1.51.11,8.87,8.87,0,0,1,1.56.37,8.51,8.51,0,0,1,4,2.68A6.34,6.34,0,0,1,2197.53,1406.35Z"/><path class="cls-4" d="M2024.15,1432.14H1835a7.47,7.47,0,0,1-7.62-6.81c0-.12,0-.24,0-.37v-18.61c0-.12,0-.25,0-.37a7.4,7.4,0,0,1,6.72-6.75,6.6,6.6,0,0,1,.9,0h165.94v0A57.82,57.82,0,0,0,2024.15,1432.14Z"/><rect class="cls-4" x="2150.56" y="1399.17" width="4.01" height="32.96"/><rect class="cls-4" x="2136.97" y="1399.17" width="4.01" height="32.96"/><rect class="cls-4" x="2120.68" y="1399.17" width="4.01" height="32.96"/><rect class="cls-4" x="2095.71" y="1399.17" width="4.01" height="32.96"/><rect class="cls-4" x="2069.31" y="1399.17" width="4.01" height="32.96"/><rect class="cls-4" x="2028.83" y="1399.17" width="4.01" height="32.96"/><rect class="cls-4" x="1990.93" y="1399.17" width="4.01" height="32.96"/><rect class="cls-4" x="1957.09" y="1399.17" width="4.01" height="32.96"/><rect class="cls-4" x="2163.49" y="1399.17" width="4.01" height="32.96"/><rect class="cls-4" x="2172.03" y="1399.17" width="4.01" height="32.96"/><rect class="cls-4" x="2180.28" y="1399.17" width="4.01" height="32.96"/><path class="cls-4" d="M2190.5,1399.29V1432a9.33,9.33,0,0,1-1.51.12h-2.51v-33H2189A9.33,9.33,0,0,1,2190.5,1399.29Z"/><path class="cls-4" d="M2196.07,1402.34V1429a8.51,8.51,0,0,1-4,2.68v-32A8.51,8.51,0,0,1,2196.07,1402.34Z"/><path class="cls-5" d="M2171.57,1373.44v18.61a6.32,6.32,0,0,1-1.46,4,8.51,8.51,0,0,1-4,2.68,8.87,8.87,0,0,1-1.56.37l-.5.07-.28,0h-.27l-.46,0H1809.94c-4.55,0-8.3-3-8.54-6.81,0-.12,0-.24,0-.37v-18.61c0-.13,0-.25,0-.37l0-.3c.34-3,3-5.55,6.4-6.28l.26-.06a10.18,10.18,0,0,1,1.85-.17H2163c.26,0,.52,0,.77,0l.34,0h0l.4.06a8.87,8.87,0,0,1,1.56.37,8.51,8.51,0,0,1,4,2.68A6.32,6.32,0,0,1,2171.57,1373.44Z"/><path class="cls-4" d="M1998.19,1399.23H1809a7.47,7.47,0,0,1-7.62-6.81c0-.12,0-.24,0-.37v-18.61c0-.13,0-.25,0-.37l0-.3a7.37,7.37,0,0,1,5.91-6.33l.33-.06a7.53,7.53,0,0,1,1.35-.12H1975l.06.24a57.8,57.8,0,0,0,23.09,32.68Z"/><rect class="cls-4" x="2124.6" y="1366.26" width="4.01" height="32.96"/><rect class="cls-4" x="2111.01" y="1366.26" width="4.01" height="32.96"/><rect class="cls-4" x="2094.72" y="1366.26" width="4.01" height="32.96"/><rect class="cls-4" x="2069.75" y="1366.26" width="4.01" height="32.96"/><rect class="cls-4" x="2043.35" y="1366.26" width="4.01" height="32.96"/><rect class="cls-4" x="2002.87" y="1366.26" width="4.01" height="32.96"/><rect class="cls-4" x="1964.97" y="1366.26" width="4.01" height="32.96"/><rect class="cls-4" x="1931.13" y="1366.26" width="4.01" height="32.96"/><rect class="cls-4" x="2137.53" y="1366.26" width="4.01" height="32.96"/><rect class="cls-4" x="2146.07" y="1366.26" width="4.01" height="32.96"/><rect class="cls-4" x="2154.32" y="1366.26" width="4.01" height="32.96"/><path class="cls-4" d="M2164.54,1366.38v32.73a9.33,9.33,0,0,1-1.51.12h-2.51v-33H2163A9.33,9.33,0,0,1,2164.54,1366.38Z"/><path class="cls-4" d="M2170.11,1369.43v26.63a8.51,8.51,0,0,1-4,2.68v-32A8.51,8.51,0,0,1,2170.11,1369.43Z"/><path class="cls-5" d="M2170.83,1340.71v18.61a6.32,6.32,0,0,1-1.46,4,8.51,8.51,0,0,1-4,2.68,8.07,8.07,0,0,1-1.22.31h0l-.33.06a9.33,9.33,0,0,1-1.51.12H1809.2a8.07,8.07,0,0,1-1.11-.07l-.42,0c-3.84-.59-6.8-3.35-7-6.69,0-.12,0-.24,0-.37v-18.61c0-.13,0-.25,0-.37.23-3.78,4-6.81,8.54-6.81h353.09c.23,0,.45,0,.68,0l.28,0,.32,0,.23,0a8.87,8.87,0,0,1,1.56.37l.22.07.22.08.43.18.46.22.4.21c.15.09.3.18.44.28l.33.22,0,0,.22.16a8,8,0,0,1,.62.54l.17.16.16.18.32.36A6.32,6.32,0,0,1,2170.83,1340.71Z"/><path class="cls-4" d="M1997.45,1366.5H1807.83l-.49,0a7.4,7.4,0,0,1-6.68-6.75c0-.12,0-.24,0-.37v-18.61c0-.13,0-.25,0-.37a7.47,7.47,0,0,1,7.62-6.81h165.93c.08.27.15.54.23.82a57.65,57.65,0,0,0,22.67,31.91Z"/><rect class="cls-4" x="2123.86" y="1333.53" width="4.01" height="32.96"/><rect class="cls-4" x="2110.27" y="1333.53" width="4.01" height="32.96"/><rect class="cls-4" x="2093.98" y="1333.53" width="4.01" height="32.96"/><rect class="cls-4" x="2069.01" y="1333.53" width="4.01" height="32.96"/><rect class="cls-4" x="2042.61" y="1333.53" width="4.01" height="32.96"/><rect class="cls-4" x="2002.13" y="1333.53" width="4.01" height="32.96"/><rect class="cls-4" x="1964.23" y="1333.53" width="4.01" height="32.96"/><rect class="cls-4" x="1930.39" y="1333.53" width="4.01" height="32.96"/><rect class="cls-4" x="2136.79" y="1333.53" width="4.01" height="32.96"/><rect class="cls-4" x="2145.33" y="1333.53" width="4.01" height="32.96"/><rect class="cls-4" x="2153.58" y="1333.53" width="4.01" height="32.96"/><path class="cls-4" d="M2163.8,1333.65v32.73a9.42,9.42,0,0,1-1.51.12h-2.51v-33h2.51A9.42,9.42,0,0,1,2163.8,1333.65Z"/><path class="cls-4" d="M2169.37,1336.7v26.63a8.51,8.51,0,0,1-4,2.68v-32A8.51,8.51,0,0,1,2169.37,1336.7Z"/><path class="cls-5" d="M2189.08,1308.56v18.61a6.33,6.33,0,0,1-1.47,4,8.51,8.51,0,0,1-4,2.68,8.87,8.87,0,0,1-1.56.37,9.33,9.33,0,0,1-1.51.12H1827.44a9.77,9.77,0,0,1-3.94-.82,7.34,7.34,0,0,1-4.57-5.67c0-.1,0-.21,0-.32s0-.24,0-.37v-18.61c0-.13,0-.25,0-.37.23-3.78,4-6.81,8.53-6.81h353.09a9.33,9.33,0,0,1,1.51.12,8.87,8.87,0,0,1,1.56.37,8.51,8.51,0,0,1,4,2.68A6.33,6.33,0,0,1,2189.08,1308.56Z"/><path class="cls-4" d="M2015.69,1334.35H1826.52a7.92,7.92,0,0,1-3.51-.82,7.22,7.22,0,0,1-4.08-5.67c0-.1,0-.21,0-.32s0-.24,0-.37v-18.61c0-.13,0-.25,0-.37a7.46,7.46,0,0,1,7.61-6.81h165.94a57.83,57.83,0,0,0,22.07,32.15C2014.91,1333.81,2015.3,1334.08,2015.69,1334.35Z"/><rect class="cls-4" x="2142.1" y="1301.38" width="4.01" height="32.96"/><rect class="cls-4" x="2128.51" y="1301.38" width="4.01" height="32.96"/><rect class="cls-4" x="2112.22" y="1301.38" width="4.01" height="32.96"/><rect class="cls-4" x="2087.26" y="1301.38" width="4.01" height="32.96"/><rect class="cls-4" x="2060.85" y="1301.38" width="4.01" height="32.96"/><rect class="cls-4" x="2020.37" y="1301.38" width="4.01" height="32.96"/><rect class="cls-4" x="1982.47" y="1301.38" width="4.01" height="32.96"/><rect class="cls-4" x="1948.63" y="1301.38" width="4.01" height="32.96"/><rect class="cls-4" x="2155.03" y="1301.38" width="4.01" height="32.96"/><rect class="cls-4" x="2163.57" y="1301.38" width="4.01" height="32.96"/><rect class="cls-4" x="2171.82" y="1301.38" width="4.01" height="32.96"/><path class="cls-4" d="M2182,1301.5v32.73a9.33,9.33,0,0,1-1.51.12H2178v-33h2.5A9.33,9.33,0,0,1,2182,1301.5Z"/><path class="cls-4" d="M2187.61,1304.55v26.63a8.51,8.51,0,0,1-4,2.68v-32A8.51,8.51,0,0,1,2187.61,1304.55Z"/><path class="cls-5" d="M2217.93,1275.59v18.62a6.35,6.35,0,0,1-1.46,4,8.5,8.5,0,0,1-4,2.69,9.09,9.09,0,0,1-1.56.37,10.84,10.84,0,0,1-1.51.11h-353.1c-4.55,0-8.3-3-8.53-6.8,0-.12,0-.25,0-.37v-18.62c0-.12,0-.24,0-.36.21-3.5,3.44-6.35,7.52-6.76.33,0,.67,0,1,0h353.1a10.84,10.84,0,0,1,1.51.11,10.12,10.12,0,0,1,1.56.37,8.5,8.5,0,0,1,4,2.69A6.35,6.35,0,0,1,2217.93,1275.59Z"/><path class="cls-4" d="M2044.54,1301.38H1855.38a7.47,7.47,0,0,1-7.62-6.8c0-.12,0-.25,0-.37v-18.62c0-.12,0-.24,0-.36a7.4,7.4,0,0,1,6.72-6.76,8.72,8.72,0,0,1,.9,0h165.93s0,0,0,0A57.77,57.77,0,0,0,2044.54,1301.38Z"/><rect class="cls-4" x="2170.95" y="1268.42" width="4.01" height="32.96"/><rect class="cls-4" x="2157.37" y="1268.42" width="4.01" height="32.96"/><rect class="cls-4" x="2141.08" y="1268.42" width="4.01" height="32.96"/><rect class="cls-4" x="2116.11" y="1268.42" width="4.01" height="32.96"/><rect class="cls-4" x="2089.71" y="1268.42" width="4.01" height="32.96"/><rect class="cls-4" x="2049.23" y="1268.42" width="4.01" height="32.96"/><rect class="cls-4" x="2011.33" y="1268.42" width="4.01" height="32.96"/><rect class="cls-4" x="1977.49" y="1268.42" width="4.01" height="32.96"/><rect class="cls-4" x="2183.89" y="1268.42" width="4.01" height="32.96"/><rect class="cls-4" x="2192.43" y="1268.42" width="4.01" height="32.96"/><rect class="cls-4" x="2200.68" y="1268.42" width="4.01" height="32.96"/><path class="cls-4" d="M2210.9,1268.53v32.74a10.73,10.73,0,0,1-1.51.11h-2.51v-33h2.51A10.73,10.73,0,0,1,2210.9,1268.53Z"/><path class="cls-4" d="M2216.47,1271.59v26.62a8.46,8.46,0,0,1-4,2.69v-32A8.46,8.46,0,0,1,2216.47,1271.59Z"/><path class="cls-5" d="M1511.26,1868.37V1887a6.35,6.35,0,0,1-1.47,4,8.51,8.51,0,0,1-4,2.68,8.87,8.87,0,0,1-1.56.37,10.59,10.59,0,0,1-1.5.11h-353.1c-4.55,0-8.3-3-8.53-6.8,0-.12,0-.25,0-.37v-18.62c0-.12,0-.24,0-.37.23-3.77,4-6.8,8.53-6.8h353.1a10.59,10.59,0,0,1,1.5.11,9.86,9.86,0,0,1,1.56.37,8.53,8.53,0,0,1,4,2.69A6.3,6.3,0,0,1,1511.26,1868.37Z"/><path class="cls-4" d="M1337.87,1894.16H1148.7a7.46,7.46,0,0,1-7.61-6.8c0-.12,0-.25,0-.37v-18.62c0-.12,0-.24,0-.37a7.46,7.46,0,0,1,7.61-6.8h165.94A57.82,57.82,0,0,0,1337.87,1894.16Z"/><rect class="cls-4" x="1464.28" y="1861.2" width="4.01" height="32.96"/><rect class="cls-4" x="1450.7" y="1861.2" width="4.01" height="32.96"/><rect class="cls-4" x="1434.41" y="1861.2" width="4.01" height="32.96"/><rect class="cls-4" x="1409.44" y="1861.2" width="4.01" height="32.96"/><rect class="cls-4" x="1383.03" y="1861.2" width="4.01" height="32.96"/><rect class="cls-4" x="1342.55" y="1861.2" width="4.01" height="32.96"/><rect class="cls-4" x="1304.65" y="1861.2" width="4.01" height="32.96"/><rect class="cls-4" x="1270.81" y="1861.2" width="4.01" height="32.96"/><rect class="cls-4" x="1477.21" y="1861.2" width="4.01" height="32.96"/><rect class="cls-4" x="1485.75" y="1861.2" width="4.01" height="32.96"/><rect class="cls-4" x="1494" y="1861.2" width="4.01" height="32.96"/><path class="cls-4" d="M1504.22,1861.31v32.74a10.59,10.59,0,0,1-1.5.11h-2.51v-33h2.51A10.59,10.59,0,0,1,1504.22,1861.31Z"/><path class="cls-4" d="M1509.79,1864.37V1891a8.51,8.51,0,0,1-4,2.68v-32A8.53,8.53,0,0,1,1509.79,1864.37Z"/><path class="cls-5" d="M1473.51,1835.41V1854a6.32,6.32,0,0,1-1.47,4,8.46,8.46,0,0,1-4,2.69,8.85,8.85,0,0,1-1.56.36,9.33,9.33,0,0,1-1.51.12H1111.87c-4.55,0-8.3-3-8.53-6.81,0-.12,0-.24,0-.36v-18.62c0-.12,0-.25,0-.37.23-3.77,4-6.8,8.53-6.8H1465c.23,0,.46,0,.68,0l.29,0,.31,0,.23,0a8.87,8.87,0,0,1,1.56.37l.23.08.21.08.43.17.25.12.21.1.41.22c.15.08.29.17.44.27l.33.23h0l.22.16a6.48,6.48,0,0,1,.62.54l.17.17.17.17c.1.12.21.24.31.37A6.3,6.3,0,0,1,1473.51,1835.41Z"/><path class="cls-4" d="M1300.12,1861.2H1111a7.46,7.46,0,0,1-7.61-6.81c0-.12,0-.24,0-.36v-18.62c0-.12,0-.25,0-.37a7.46,7.46,0,0,1,7.61-6.8h165.93c.08.27.15.54.24.81A57.67,57.67,0,0,0,1300.12,1861.2Z"/><rect class="cls-4" x="1426.53" y="1828.24" width="4.01" height="32.96"/><rect class="cls-4" x="1412.94" y="1828.24" width="4.01" height="32.96"/><rect class="cls-4" x="1396.65" y="1828.24" width="4.01" height="32.96"/><rect class="cls-4" x="1371.68" y="1828.24" width="4.01" height="32.96"/><rect class="cls-4" x="1345.28" y="1828.24" width="4.01" height="32.96"/><rect class="cls-4" x="1304.8" y="1828.24" width="4.01" height="32.96"/><rect class="cls-4" x="1266.9" y="1828.24" width="4.01" height="32.96"/><rect class="cls-4" x="1233.06" y="1828.24" width="4.01" height="32.96"/><rect class="cls-4" x="1439.46" y="1828.24" width="4.01" height="32.96"/><rect class="cls-4" x="1448" y="1828.24" width="4.01" height="32.96"/><rect class="cls-4" x="1456.25" y="1828.24" width="4.01" height="32.96"/><path class="cls-4" d="M1466.47,1828.35v32.73a9.33,9.33,0,0,1-1.51.12h-2.5v-33h2.5A9.34,9.34,0,0,1,1466.47,1828.35Z"/><path class="cls-4" d="M1472,1831.4V1858a8.44,8.44,0,0,1-4,2.68v-32A8.51,8.51,0,0,1,1472,1831.4Z"/><path class="cls-5" d="M1491.75,1803.26v18.61a6.35,6.35,0,0,1-1.46,4,8.63,8.63,0,0,1-4,2.69,9,9,0,0,1-1.57.36,9.29,9.29,0,0,1-1.5.12h-353.1a9.81,9.81,0,0,1-3.94-.81,7.33,7.33,0,0,1-4.56-5.67,1.84,1.84,0,0,1,0-.33c0-.12,0-.24,0-.37v-18.61c0-.12,0-.25,0-.37.23-3.77,4-6.8,8.53-6.8h353.1a10.59,10.59,0,0,1,1.5.11,9,9,0,0,1,1.57.37,8.61,8.61,0,0,1,4,2.68A6.39,6.39,0,0,1,1491.75,1803.26Z"/><path class="cls-4" d="M1318.36,1829.05H1129.2a8,8,0,0,1-3.52-.81,7.21,7.21,0,0,1-4.07-5.67,1.84,1.84,0,0,1,0-.33c0-.12,0-.24,0-.37v-18.61c0-.12,0-.25,0-.37a7.46,7.46,0,0,1,7.62-6.8h165.93a57.9,57.9,0,0,0,22.07,32.15Z"/><rect class="cls-4" x="1444.77" y="1796.09" width="4.01" height="32.96"/><rect class="cls-4" x="1431.19" y="1796.09" width="4.01" height="32.96"/><rect class="cls-4" x="1414.9" y="1796.09" width="4.01" height="32.96"/><rect class="cls-4" x="1389.93" y="1796.09" width="4.01" height="32.96"/><rect class="cls-4" x="1363.52" y="1796.09" width="4.01" height="32.96"/><rect class="cls-4" x="1323.05" y="1796.09" width="4.01" height="32.96"/><rect class="cls-4" x="1285.15" y="1796.09" width="4.01" height="32.96"/><rect class="cls-4" x="1251.3" y="1796.09" width="4.01" height="32.96"/><rect class="cls-4" x="1457.7" y="1796.09" width="4.01" height="32.96"/><rect class="cls-4" x="1466.24" y="1796.09" width="4.01" height="32.96"/><rect class="cls-4" x="1474.49" y="1796.09" width="4.01" height="32.96"/><path class="cls-4" d="M1484.71,1796.2v32.73a9.29,9.29,0,0,1-1.5.12h-2.51v-33h2.51A10.59,10.59,0,0,1,1484.71,1796.2Z"/><path class="cls-4" d="M1490.29,1799.25v26.63a8.58,8.58,0,0,1-4,2.69v-32A8.56,8.56,0,0,1,1490.29,1799.25Z"/><path class="cls-5" d="M1500.21,1770.3v18.61a6.33,6.33,0,0,1-1.47,4,8.51,8.51,0,0,1-4,2.68,8.87,8.87,0,0,1-1.56.37,9.33,9.33,0,0,1-1.51.12H1138.57c-4.55,0-8.3-3-8.53-6.81,0-.12,0-.25,0-.37V1770.3c0-.13,0-.25,0-.37.21-3.5,3.43-6.35,7.52-6.76.33,0,.67-.05,1-.05h353.09a9.33,9.33,0,0,1,1.51.12,8.87,8.87,0,0,1,1.56.37,8.51,8.51,0,0,1,4,2.68A6.33,6.33,0,0,1,1500.21,1770.3Z"/><path class="cls-4" d="M1326.82,1796.09H1137.65a7.46,7.46,0,0,1-7.61-6.81c0-.12,0-.25,0-.37V1770.3c0-.13,0-.25,0-.37a7.41,7.41,0,0,1,6.71-6.76,8.88,8.88,0,0,1,.9-.05h165.94v.05A57.84,57.84,0,0,0,1326.82,1796.09Z"/><rect class="cls-4" x="1453.23" y="1763.12" width="4.01" height="32.96"/><rect class="cls-4" x="1439.64" y="1763.12" width="4.01" height="32.96"/><rect class="cls-4" x="1423.36" y="1763.12" width="4.01" height="32.96"/><rect class="cls-4" x="1398.39" y="1763.12" width="4.01" height="32.96"/><rect class="cls-4" x="1371.98" y="1763.12" width="4.01" height="32.96"/><rect class="cls-4" x="1331.5" y="1763.12" width="4.01" height="32.96"/><rect class="cls-4" x="1293.6" y="1763.12" width="4.01" height="32.96"/><rect class="cls-4" x="1259.76" y="1763.12" width="4.01" height="32.96"/><rect class="cls-4" x="1466.16" y="1763.12" width="4.01" height="32.96"/><rect class="cls-4" x="1474.7" y="1763.12" width="4.01" height="32.96"/><rect class="cls-4" x="1482.95" y="1763.12" width="4.01" height="32.96"/><path class="cls-4" d="M1493.17,1763.24V1796a9.34,9.34,0,0,1-1.51.11h-2.5v-33h2.5A9.33,9.33,0,0,1,1493.17,1763.24Z"/><path class="cls-4" d="M1498.74,1766.29v26.63a8.51,8.51,0,0,1-4,2.68v-32A8.53,8.53,0,0,1,1498.74,1766.29Z"/><path class="cls-5" d="M1474.25,1737.39V1756a6.35,6.35,0,0,1-1.47,4,8.51,8.51,0,0,1-4,2.68,8.87,8.87,0,0,1-1.56.37l-.49.06-.28,0H1112.61c-4.55,0-8.3-3-8.53-6.8,0-.12,0-.25,0-.37v-18.61c0-.13,0-.25,0-.37a3,3,0,0,1,0-.31c.34-3,3-5.54,6.4-6.28l.26,0a10.27,10.27,0,0,1,1.85-.17H1465.7c.26,0,.52,0,.77,0l.34,0h0l.4.06a8.85,8.85,0,0,1,1.56.36,8.53,8.53,0,0,1,4,2.69A6.31,6.31,0,0,1,1474.25,1737.39Z"/><path class="cls-4" d="M1300.86,1763.17H1111.69a7.46,7.46,0,0,1-7.61-6.8c0-.12,0-.25,0-.37v-18.61c0-.13,0-.25,0-.37a3,3,0,0,1,0-.31,7.37,7.37,0,0,1,5.92-6.32l.32-.06a7.53,7.53,0,0,1,1.35-.12h165.94a1.55,1.55,0,0,0,.07.23,57.7,57.7,0,0,0,23.08,32.68Z"/><rect class="cls-4" x="1427.27" y="1730.21" width="4.01" height="32.96"/><rect class="cls-4" x="1413.69" y="1730.21" width="4.01" height="32.96"/><rect class="cls-4" x="1397.4" y="1730.21" width="4.01" height="32.96"/><rect class="cls-4" x="1372.43" y="1730.21" width="4.01" height="32.96"/><rect class="cls-4" x="1346.02" y="1730.21" width="4.01" height="32.96"/><rect class="cls-4" x="1305.54" y="1730.21" width="4.01" height="32.96"/><rect class="cls-4" x="1267.64" y="1730.21" width="4.01" height="32.96"/><rect class="cls-4" x="1233.8" y="1730.21" width="4.01" height="32.96"/><rect class="cls-4" x="1440.2" y="1730.21" width="4.01" height="32.96"/><rect class="cls-4" x="1448.74" y="1730.21" width="4.01" height="32.96"/><rect class="cls-4" x="1456.99" y="1730.21" width="4.01" height="32.96"/><path class="cls-4" d="M1467.21,1730.32v32.74a10.59,10.59,0,0,1-1.5.11h-2.51v-33h2.51A10.59,10.59,0,0,1,1467.21,1730.32Z"/><path class="cls-4" d="M1472.78,1733.38V1760a8.46,8.46,0,0,1-4,2.69v-32A8.46,8.46,0,0,1,1472.78,1733.38Z"/><path class="cls-5" d="M1473.51,1704.66v18.61a6.35,6.35,0,0,1-1.47,4,8.51,8.51,0,0,1-4,2.68,9.47,9.47,0,0,1-1.22.31h0l-.34.06a10.62,10.62,0,0,1-1.51.11H1111.87a10.18,10.18,0,0,1-1.11-.06l-.42-.05c-3.84-.59-6.8-3.35-7-6.69,0-.12,0-.25,0-.37v-18.61c0-.13,0-.25,0-.37.23-3.78,4-6.81,8.53-6.81H1465l.68,0,.29,0,.31,0,.23,0a8.87,8.87,0,0,1,1.56.37l.23.07.21.08.43.17.46.23c.14.06.27.14.41.21l.44.27.33.23v0l.22.16a6.4,6.4,0,0,1,.62.53l.17.17.17.18.31.36A6.33,6.33,0,0,1,1473.51,1704.66Z"/><path class="cls-4" d="M1300.12,1730.44H1110.5l-.48,0a7.38,7.38,0,0,1-6.68-6.75c0-.12,0-.25,0-.37v-18.61c0-.13,0-.25,0-.37a7.46,7.46,0,0,1,7.61-6.81h165.93c.08.27.15.54.24.81a57.64,57.64,0,0,0,22.66,31.92Z"/><rect class="cls-4" x="1426.53" y="1697.48" width="4.01" height="32.96"/><rect class="cls-4" x="1412.94" y="1697.48" width="4.01" height="32.96"/><rect class="cls-4" x="1396.65" y="1697.48" width="4.01" height="32.96"/><rect class="cls-4" x="1371.68" y="1697.48" width="4.01" height="32.96"/><rect class="cls-4" x="1345.28" y="1697.48" width="4.01" height="32.96"/><rect class="cls-4" x="1304.8" y="1697.48" width="4.01" height="32.96"/><rect class="cls-4" x="1266.9" y="1697.48" width="4.01" height="32.96"/><rect class="cls-4" x="1233.06" y="1697.48" width="4.01" height="32.96"/><rect class="cls-4" x="1439.46" y="1697.48" width="4.01" height="32.96"/><rect class="cls-4" x="1448" y="1697.48" width="4.01" height="32.96"/><rect class="cls-4" x="1456.25" y="1697.48" width="4.01" height="32.96"/><path class="cls-4" d="M1466.47,1697.6v32.73a10.62,10.62,0,0,1-1.51.11h-2.5v-33h2.5A9.33,9.33,0,0,1,1466.47,1697.6Z"/><path class="cls-4" d="M1472,1700.65v26.63a8.51,8.51,0,0,1-4,2.68v-32A8.44,8.44,0,0,1,1472,1700.65Z"/><path class="cls-5" d="M1491.75,1672.5v18.62a6.39,6.39,0,0,1-1.46,4,8.61,8.61,0,0,1-4,2.68,9,9,0,0,1-1.57.37,10.59,10.59,0,0,1-1.5.11h-353.1a9.81,9.81,0,0,1-3.94-.81,7.33,7.33,0,0,1-4.56-5.67,1.73,1.73,0,0,1,0-.32c0-.12,0-.25,0-.37V1672.5c0-.12,0-.24,0-.36.23-3.78,4-6.81,8.53-6.81h353.1a9.29,9.29,0,0,1,1.5.12,10,10,0,0,1,1.57.36,8.63,8.63,0,0,1,4,2.69A6.37,6.37,0,0,1,1491.75,1672.5Z"/><path class="cls-4" d="M1318.36,1698.29H1129.2a8,8,0,0,1-3.52-.81,7.21,7.21,0,0,1-4.07-5.67,1.73,1.73,0,0,1,0-.32c0-.12,0-.25,0-.37V1672.5c0-.12,0-.24,0-.36a7.47,7.47,0,0,1,7.62-6.81h165.93a57.83,57.83,0,0,0,22.07,32.15C1317.58,1697.76,1318,1698,1318.36,1698.29Z"/><rect class="cls-4" x="1444.77" y="1665.33" width="4.01" height="32.96"/><rect class="cls-4" x="1431.19" y="1665.33" width="4.01" height="32.96"/><rect class="cls-4" x="1414.9" y="1665.33" width="4.01" height="32.96"/><rect class="cls-4" x="1389.93" y="1665.33" width="4.01" height="32.96"/><rect class="cls-4" x="1363.52" y="1665.33" width="4.01" height="32.96"/><rect class="cls-4" x="1323.05" y="1665.33" width="4.01" height="32.96"/><rect class="cls-4" x="1285.15" y="1665.33" width="4.01" height="32.96"/><rect class="cls-4" x="1251.3" y="1665.33" width="4.01" height="32.96"/><rect class="cls-4" x="1457.7" y="1665.33" width="4.01" height="32.96"/><rect class="cls-4" x="1466.24" y="1665.33" width="4.01" height="32.96"/><rect class="cls-4" x="1474.49" y="1665.33" width="4.01" height="32.96"/><path class="cls-4" d="M1484.71,1665.45v32.73a9.29,9.29,0,0,1-1.5.12h-2.51v-33h2.51A9.29,9.29,0,0,1,1484.71,1665.45Z"/><path class="cls-4" d="M1490.29,1668.5v26.63a8.56,8.56,0,0,1-4,2.68v-32A8.49,8.49,0,0,1,1490.29,1668.5Z"/><path class="cls-5" d="M1520.6,1639.54v18.62a6.29,6.29,0,0,1-1.46,4,8.46,8.46,0,0,1-4,2.69,9.86,9.86,0,0,1-1.56.37,10.62,10.62,0,0,1-1.51.11H1159c-4.56,0-8.31-3-8.54-6.8,0-.13,0-.25,0-.37v-18.62c0-.12,0-.24,0-.37.22-3.49,3.44-6.34,7.53-6.75a8.44,8.44,0,0,1,1-.05h353.09a10.62,10.62,0,0,1,1.51.11,8.87,8.87,0,0,1,1.56.37,8.46,8.46,0,0,1,4,2.69A6.29,6.29,0,0,1,1520.6,1639.54Z"/><path class="cls-4" d="M1347.22,1665.33H1158.05a7.47,7.47,0,0,1-7.62-6.8c0-.13,0-.25,0-.37v-18.62c0-.12,0-.24,0-.37a7.4,7.4,0,0,1,6.72-6.75,6.6,6.6,0,0,1,.9-.05H1324a.43.43,0,0,1,0,.05A57.79,57.79,0,0,0,1347.22,1665.33Z"/><rect class="cls-4" x="1473.63" y="1632.37" width="4.01" height="32.96"/><rect class="cls-4" x="1460.04" y="1632.37" width="4.01" height="32.96"/><rect class="cls-4" x="1443.75" y="1632.37" width="4.01" height="32.96"/><rect class="cls-4" x="1418.78" y="1632.37" width="4.01" height="32.96"/><rect class="cls-4" x="1392.38" y="1632.37" width="4.01" height="32.96"/><rect class="cls-4" x="1351.9" y="1632.37" width="4.01" height="32.96"/><rect class="cls-4" x="1314" y="1632.37" width="4.01" height="32.96"/><rect class="cls-4" x="1280.16" y="1632.37" width="4.01" height="32.96"/><rect class="cls-4" x="1486.56" y="1632.37" width="4.01" height="32.96"/><rect class="cls-4" x="1495.1" y="1632.37" width="4.01" height="32.96"/><rect class="cls-4" x="1503.35" y="1632.37" width="4.01" height="32.96"/><path class="cls-4" d="M1513.57,1632.48v32.74a10.62,10.62,0,0,1-1.51.11h-2.51v-33h2.51A10.62,10.62,0,0,1,1513.57,1632.48Z"/><path class="cls-4" d="M1519.14,1635.54v26.62a8.53,8.53,0,0,1-4,2.69v-32A8.46,8.46,0,0,1,1519.14,1635.54Z"/><path class="cls-5" d="M1474.25,1606.63v18.61a6.33,6.33,0,0,1-1.47,4,8.44,8.44,0,0,1-4,2.68,8.87,8.87,0,0,1-1.56.37l-.49.07-.4,0H1112.61c-4.55,0-8.3-3-8.53-6.81,0-.12,0-.24,0-.37v-18.61c0-.12,0-.25,0-.37.23-3.77,4-6.8,8.53-6.8h353.55a9.64,9.64,0,0,1,2.61.47,6.09,6.09,0,0,1,.75.28l.43.19,0,0,.43.22.07,0,.39.24a7.39,7.39,0,0,1,.85.62l.24.21,0,0,.15.14,0,0a3.2,3.2,0,0,1,.25.27,4,4,0,0,1,.34.38A6.35,6.35,0,0,1,1474.25,1606.63Z"/><path class="cls-4" d="M1300.86,1632.42H1111.69a7.46,7.46,0,0,1-7.61-6.81c0-.12,0-.24,0-.37v-18.61c0-.12,0-.25,0-.37a7.46,7.46,0,0,1,7.61-6.8h165.94c.07.25.14.5.22.76a57.7,57.7,0,0,0,22.93,32.15Z"/><rect class="cls-4" x="1427.27" y="1599.46" width="4.01" height="32.96"/><rect class="cls-4" x="1413.69" y="1599.46" width="4.01" height="32.96"/><rect class="cls-4" x="1397.4" y="1599.46" width="4.01" height="32.96"/><rect class="cls-4" x="1372.43" y="1599.46" width="4.01" height="32.96"/><rect class="cls-4" x="1346.02" y="1599.46" width="4.01" height="32.96"/><rect class="cls-4" x="1305.54" y="1599.46" width="4.01" height="32.96"/><rect class="cls-4" x="1267.64" y="1599.46" width="4.01" height="32.96"/><rect class="cls-4" x="1233.8" y="1599.46" width="4.01" height="32.96"/><rect class="cls-4" x="1440.2" y="1599.46" width="4.01" height="32.96"/><rect class="cls-4" x="1448.74" y="1599.46" width="4.01" height="32.96"/><rect class="cls-4" x="1456.99" y="1599.46" width="4.01" height="32.96"/><path class="cls-4" d="M1467.21,1599.57v32.73a9.29,9.29,0,0,1-1.5.12h-2.51v-33h2.51A10.59,10.59,0,0,1,1467.21,1599.57Z"/><path class="cls-4" d="M1472.78,1602.62v26.63a8.44,8.44,0,0,1-4,2.68v-32A8.51,8.51,0,0,1,1472.78,1602.62Z"/><path class="cls-5" d="M1500.21,1574.43V1593a6.33,6.33,0,0,1-1.47,4,8.51,8.51,0,0,1-4,2.68,8.87,8.87,0,0,1-1.56.37,9.33,9.33,0,0,1-1.51.12H1138.57a9.93,9.93,0,0,1-3.82-.76,7.36,7.36,0,0,1-4.69-5.76,2.64,2.64,0,0,1,0-.29c0-.12,0-.24,0-.37v-18.61c0-.13,0-.25,0-.37.21-3.5,3.43-6.35,7.52-6.75a8.43,8.43,0,0,1,1-.06h353.09a9.33,9.33,0,0,1,1.51.12,8.87,8.87,0,0,1,1.56.37,8.51,8.51,0,0,1,4,2.68A6.33,6.33,0,0,1,1500.21,1574.43Z"/><path class="cls-4" d="M1326.82,1600.22H1137.65a8,8,0,0,1-3.4-.76,7.24,7.24,0,0,1-4.19-5.76,2.64,2.64,0,0,1,0-.29c0-.12,0-.24,0-.37v-18.61c0-.13,0-.25,0-.37a7.39,7.39,0,0,1,6.71-6.75,6.69,6.69,0,0,1,.9-.06h165.94v.06a57.89,57.89,0,0,0,22.13,32.15Z"/><rect class="cls-4" x="1453.23" y="1567.25" width="4.01" height="32.96"/><rect class="cls-4" x="1439.64" y="1567.25" width="4.01" height="32.96"/><rect class="cls-4" x="1423.36" y="1567.25" width="4.01" height="32.96"/><rect class="cls-4" x="1398.39" y="1567.25" width="4.01" height="32.96"/><rect class="cls-4" x="1371.98" y="1567.25" width="4.01" height="32.96"/><rect class="cls-4" x="1331.5" y="1567.25" width="4.01" height="32.96"/><rect class="cls-4" x="1293.6" y="1567.25" width="4.01" height="32.96"/><rect class="cls-4" x="1259.76" y="1567.25" width="4.01" height="32.96"/><rect class="cls-4" x="1466.16" y="1567.25" width="4.01" height="32.96"/><rect class="cls-4" x="1474.7" y="1567.25" width="4.01" height="32.96"/><rect class="cls-4" x="1482.95" y="1567.25" width="4.01" height="32.96"/><path class="cls-4" d="M1493.17,1567.37v32.73a9.33,9.33,0,0,1-1.51.12h-2.5v-33h2.5A9.33,9.33,0,0,1,1493.17,1567.37Z"/><path class="cls-4" d="M1498.74,1570.42v26.63a8.51,8.51,0,0,1-4,2.68v-32A8.51,8.51,0,0,1,1498.74,1570.42Z"/><path class="cls-5" d="M1511.26,1541.52v18.61a6.35,6.35,0,0,1-1.47,4,8.51,8.51,0,0,1-4,2.68,8.87,8.87,0,0,1-1.56.37l-.49.06-.28,0h-.28l-.45,0h-353.1c-4.55,0-8.3-3-8.53-6.81,0-.12,0-.25,0-.37v-18.61c0-.13,0-.25,0-.37.23-3.78,4-6.81,8.53-6.81h353.1a9.29,9.29,0,0,1,1.5.12,8.87,8.87,0,0,1,1.56.37,8.44,8.44,0,0,1,4,2.68A6.33,6.33,0,0,1,1511.26,1541.52Z"/><path class="cls-4" d="M1337.87,1567.31H1148.71a7.47,7.47,0,0,1-7.62-6.81c0-.12,0-.25,0-.37v-18.61c0-.13,0-.25,0-.37a7.47,7.47,0,0,1,7.62-6.81h165.93a57.71,57.71,0,0,0,23.16,32.91Z"/><rect class="cls-4" x="1464.28" y="1534.34" width="4.01" height="32.96"/><rect class="cls-4" x="1450.7" y="1534.34" width="4.01" height="32.96"/><rect class="cls-4" x="1434.41" y="1534.34" width="4.01" height="32.96"/><rect class="cls-4" x="1409.44" y="1534.34" width="4.01" height="32.96"/><rect class="cls-4" x="1383.03" y="1534.34" width="4.01" height="32.96"/><rect class="cls-4" x="1342.55" y="1534.34" width="4.01" height="32.96"/><rect class="cls-4" x="1304.65" y="1534.34" width="4.01" height="32.96"/><rect class="cls-4" x="1270.81" y="1534.34" width="4.01" height="32.96"/><rect class="cls-4" x="1477.21" y="1534.34" width="4.01" height="32.96"/><rect class="cls-4" x="1485.75" y="1534.34" width="4.01" height="32.96"/><rect class="cls-4" x="1494" y="1534.34" width="4.01" height="32.96"/><path class="cls-4" d="M1504.22,1534.46v32.73a10.59,10.59,0,0,1-1.5.11h-2.51v-33h2.51A9.29,9.29,0,0,1,1504.22,1534.46Z"/><path class="cls-4" d="M1509.79,1537.51v26.63a8.53,8.53,0,0,1-4,2.68v-32A8.55,8.55,0,0,1,1509.79,1537.51Z"/><circle class="cls-6" cx="1122.71" cy="1348.02" r="199.06" transform="translate(-624.36 1188.7) rotate(-45)"/><circle class="cls-5" cx="1105.35" cy="1348.02" r="199.06" transform="translate(-629.45 1176.42) rotate(-45)"/><path class="cls-4" d="M1105.35,1531.74a181.36,181.36,0,1,1,128.24-53.12A180.21,180.21,0,0,1,1105.35,1531.74Zm0-351.91c-94,0-170.55,76.51-170.55,170.54s76.51,170.55,170.55,170.55,170.54-76.51,170.54-170.55S1199.38,1179.83,1105.35,1179.83Z"/><path class="cls-4" d="M1130.31,1403a30,30,0,0,0-.42-10.53,21.79,21.79,0,0,0-4.46-8.74,41.18,41.18,0,0,0-8.9-7.86,108.66,108.66,0,0,0-13.8-7.73,285.09,285.09,0,0,1-25.48-14,89.94,89.94,0,0,1-19-15.51,53.14,53.14,0,0,1-11.26-18.9q-3.56-10.47-1.93-24.17a54.63,54.63,0,0,1,6.78-21.15,50.33,50.33,0,0,1,14-15.61,62.91,62.91,0,0,1,20.12-9.59,83.83,83.83,0,0,1,25.13-2.89l3.54-29.9,24.06,2.86-3.59,30.31a75.15,75.15,0,0,1,22.64,9.63,56.84,56.84,0,0,1,25.35,36.37,75.67,75.67,0,0,1,1,25.68l-43.46-5.15q2-16.77-4.46-26t-18.94-10.68a32.71,32.71,0,0,0-11.88.51,21.85,21.85,0,0,0-8.66,4.21,20.45,20.45,0,0,0-5.58,7.2,30.14,30.14,0,0,0-2.65,9.46,27.76,27.76,0,0,0,.39,9.54,20.61,20.61,0,0,0,4.27,8.37,41.62,41.62,0,0,0,9,7.86,139.68,139.68,0,0,0,14.34,8.29q13.93,7.17,25.22,14.32a91.5,91.5,0,0,1,19,15.64,53.9,53.9,0,0,1,11.24,19q3.57,10.48,2,24a55,55,0,0,1-6.91,21.56,49.76,49.76,0,0,1-14.11,15.47,60.81,60.81,0,0,1-20.23,9.21,90.42,90.42,0,0,1-25.25,2.67l-3.3,27.8-23.91-2.84,3.28-27.66a101.27,101.27,0,0,1-23.49-8.31,64.45,64.45,0,0,1-19.24-14.53,57.68,57.68,0,0,1-12.07-21.62q-4-12.66-2-29.42l43.46,5.16q-1.18,9.91.81,16.88a27.91,27.91,0,0,0,6.19,11.5,27.11,27.11,0,0,0,9.94,6.85,46.55,46.55,0,0,0,11.91,3,38.7,38.7,0,0,0,12.62-.35,25.91,25.91,0,0,0,9.55-4,20.63,20.63,0,0,0,6.31-7A25,25,0,0,0,1130.31,1403Z"/><path class="cls-7" d="M1502.8,1118s-14.8,20.83-28.36,21.12-34.2-9.65-34.2-9.65-12.45-27.76-4-38.62c0,0,8.47-3.72,17.32,2.85a26.24,26.24,0,0,1,4.59,4.39,14.56,14.56,0,0,0,7.12,4.83c9.68,2.94,21.16-4,25.46,2.7a45.41,45.41,0,0,0,7.48,8.86A34.7,34.7,0,0,0,1502.8,1118Z"/><path class="cls-7" d="M1309.93,1268.18s52.29-126.7,146.41-129.11c0,0,86.88,9.65,91.71,129.11Z"/><path class="cls-8" d="M1430.55,1142.94s37.73,8.39,49.37,3.46c0,0,1.76-15.78-14.13-13.57-10.87,1.52-18-3.71-22.12-5.83C1437.77,1124,1429,1136.34,1430.55,1142.94Z"/><path class="cls-9" d="M1463.39,1119.16c-2.42,1.81-9.83-25.51-9.83-25.51a26.24,26.24,0,0,1,4.59,4.39,14.56,14.56,0,0,0,7.12,4.83C1465.29,1103.66,1465.73,1117.4,1463.39,1119.16Z"/><path class="cls-9" d="M1498.21,1114.43c-.53.31-18,10.76-20.34,10.76s12.86-19.62,12.86-19.62A45.41,45.41,0,0,0,1498.21,1114.43Z"/><path class="cls-10" d="M1361,1232.79c-1-.83,37-55.91,47.46-56.31s34,12.06,51,13.67,33.5-3.22,36.72,6.84,12.07,45.71,6.64,51.41S1381.89,1250.63,1361,1232.79Z"/><g id="man"><path class="cls-11" d="M1150.05,1303.15s-2.93-14.48,30.4-59c7.18-9.61,29.11-45.81,29.11-45.81,8.67-2.1,35.66,12.24,42.78,16.61l2.26,1.42s11.54,50.07-13,44.39c-.76-.18-1.53-.32-2.3-.45-23.72-3.69-46.63,19.85-57,34.81C1175.48,1304.79,1154.57,1303.54,1150.05,1303.15Z"/><path class="cls-11" d="M1326,1205.84s-2.94-14.48,30.39-59c7.19-9.61,29.11-45.8,29.11-45.8,8.67-2.11,35.66,12.24,42.78,16.61,1.43.88,2.26,1.41,2.26,1.41s11.55,50.07-13,44.4c-.77-.19-1.54-.33-2.3-.45-23.73-3.7-46.64,19.85-57,34.8C1351.38,1207.49,1330.47,1206.24,1326,1205.84Z"/><path class="cls-12" d="M1701.4,958c-6.81-29.29-82.62-120.62-121.45-99.47s-18.69,136,21.79,271.51q.93,3.1,1.89,6.16c-81.58-13.39-178.67-17.46-178.67-17.46l-10.22,47.18c73.51,20.31,216.32,90.91,276.21,121.31,22.89,10.38,49.79,10.38,55.26-9.77C1764.55,1210,1701.4,958,1701.4,958Z"/><path class="cls-13" d="M1556.65,1380s-173.52-78.3-279.32-109.94c-13.11-3.91-25.16-7.09-35.72-9.34l11.13-45.38s10.36-.19,27.19-.16c65.87.18,230.83,3.87,260.31,36.2C1577.22,1292,1556.65,1380,1556.65,1380Z"/><path class="cls-13" d="M1687.78,306.73c5.69,13.12,10.25,30.32,6.39,39.4-4.38,10.29-3.17,17.73-3.17,17.73l-9.33,2.28-11.14,2.71s-.6-1-1.49-2.58-2.08-3.93-3.27-6.61a9.58,9.58,0,0,0-5.26-7.18c-4.75-2.25-9.73-8-10.65-13.51s-6.59-15.88-5-17c3.89-2.64,9.76,13.44,13.2,14.16,3.11.65,4.11-1.56,4.27-2l0-.09c5.41-13.14-4.59-46.31,3.33-48.15C1668.69,285.26,1685.35,301.14,1687.78,306.73Z"/><path class="cls-13" d="M1087.31,571.55c9.7,10.52,23.6,21.64,33.46,21.78,11.18.15,17.5,4.26,17.5,4.26l5.85-7.61,7-9.09s-.63-.93-1.76-2.41-9-8.12-9.17-13.38-3.36-12.12-8-15.2-11.86-12.44-13.5-11.4c-4,2.5,8.35,14.36,7.61,17.8-.66,3.11-3.08,3.13-3.54,3.1h-.09c-14.21-.36-40.51-22.91-45.39-16.41C1075.39,545.42,1083.18,567.08,1087.31,571.55Z"/><path class="cls-14" d="M1507.12,979.86c-42.79,11.1-32.06,62.56-25.66,203.81.72,16,2.21,31.42,4.32,46.14-62.73-12.6-159.17-14.49-205.85-14.62,0,0-7.75,17.25-7.42,31,.71,29.35,15.7,48.75,15.7,48.75,105.8,31.64,268.44,85,268.44,85l0-.12c10.84,2.81,21-2.61,29.16-18.15,32.36-62,87.72-474.3,87.72-474.3C1674.05,857.37,1549.92,968.76,1507.12,979.86Z"/><path class="cls-13" d="M1437.26,663.32s15-38.15-14.21-92.57l41.6,9.24,28.26,6.27a270.12,270.12,0,0,1,10.79,27.55c1.61,4.71,7.58,23.61,9.33,29.46,9.94.42-4.39,15.47-24.78,18.43C1465.56,665,1437.26,663.32,1437.26,663.32Z"/><path class="cls-15" d="M1492.91,586.26a270.12,270.12,0,0,1,10.79,27.55c-24.28,7.24-67.59-16.36-67.59-16.36,9.77-8.93,19.45-14.47,28.54-17.46Z"/><path class="cls-16" d="M1511.59,572s-48.19,53.31-80.93,22.78-61-44.2-31.6-79.52,48-30.2,61.35-22.66S1523.28,557.38,1511.59,572Z"/><path class="cls-2" d="M1428,591.51s4.94-5.47-2.21-12.59-15.28-17.38-7.38-20.54,12.27,1.7,12.52-3.36-9.68-17.67,8.61-33.62,31.25-15.46,37-26.35-4.4-24.63-4.4-24.63,1.28,6.77-1.31,11.3c0,0-1.26-31.84-29.28-32.12s-38.23,22.58-47.62,31c-20.7,18.58-33.71,31-29.47,51S1403.1,588.84,1428,591.51Z"/><path class="cls-17" d="M1481.48,560.93l17.87-16.83s7.28,11.16,2.17,16S1481.48,560.93,1481.48,560.93Z"/><path class="cls-2" d="M1721.51,460.12c-7.65-47.31-30.66-99.32-30.66-99.32l-25.07-1.14s2.78,64.09,2.17,108.91c-.3,21.53-9.72,41-12.27,44.44-7.79,10.41-122.42,120.74-126.25,124.26l-.09.09h0c-12.2,2.07-10.84,22.11-23.37,25.47-20.9,5.61-55.6-4.6-74.18,2.28h0s-148.83.17-171.48-10.68-111-76-111-76l-16.36,19s60.62,116.71,108.68,137.7c26.16,11.43,83.62,25.19,130.56,35.35a52.62,52.62,0,0,1,39,35.92c44.16,142.38,21.93,262.45,21.93,262.45s42.31,4.74,95-9.89c68.5-19,118.54-49.85,118.54-49.85,19.3-23.4,7.89-109.21,7.89-109.21s13.33,14.39,17.79,38.43c3.22,17.32,4.95,26.9,6,33a7.82,7.82,0,0,0,12.35,4.93c9.89-7.33,24-18.74,28.43-27.11,15.42-29.27-18.87-148.45-66.23-231.61a46.55,46.55,0,0,1,.89-47.67c29.13-46.74,73.92-120.86,74.48-135.74C1728.65,526.16,1725.91,487.31,1721.51,460.12Z"/><path class="cls-14" d="M1502.71,673.59s40,56.7,10.65,111.49S1369,832.31,1347.65,900.76l12.95,42.62,48.12-26.07s4-37,51.37-53.08c92.47-31.39,114.73-85.62,95.32-134.13-16.4-41-40.14-60.76-40.14-60.76Z"/><path class="cls-14" d="M1441,642.39l46.35,15.31,2.28,8.79-57.8-1.37S1434.88,651.83,1441,642.39Z"/><path class="cls-14" d="M1508.78,629.66l1.54,24s6.07,5,6,4.31,13-20.56,13-20.56A133.59,133.59,0,0,0,1508.78,629.66Z"/><path class="cls-12" d="M1487.32,657.7l23.62-8a3.6,3.6,0,0,1,4.73,3l1.95,15.88a3.62,3.62,0,0,1-2.43,3.85L1504.8,676a3.58,3.58,0,0,1-3.33-.53L1486.3,664A3.61,3.61,0,0,1,1487.32,657.7Z"/><path class="cls-11" d="M1664.61,356.32l-2.08,19.89s25.11.38,25.11,0,.76-9.86.76-9.86l4.19,11,9.32-3-10.67-18S1680.58,361.34,1664.61,356.32Z"/><polygon class="cls-11" points="1149.35 578.48 1132.99 597.53 1137.79 616.13 1144.45 611.57 1141.17 597.59 1152.63 607 1167.47 587.4 1149.35 578.48"/><path class="cls-18" d="M1145.78,596a1.52,1.52,0,1,1,1.52,1.53A1.52,1.52,0,0,1,1145.78,596Z"/><path class="cls-18" d="M1683,368.85a1.21,1.21,0,1,1,1.2,1.21A1.2,1.2,0,0,1,1683,368.85Z"/><path class="cls-18" d="M1643.5,832.08a3.24,3.24,0,1,1,3.24,3.23A3.24,3.24,0,0,1,1643.5,832.08Z"/><path class="cls-18" d="M1617.82,778.57a3.23,3.23,0,1,1,3.23,3.23A3.23,3.23,0,0,1,1617.82,778.57Z"/><path class="cls-18" d="M1582.43,738.07a3.24,3.24,0,1,1,3.23,3.24A3.23,3.23,0,0,1,1582.43,738.07Z"/></g></g></svg>