<svg xmlns="http://www.w3.org/2000/svg" viewBox="0 0 2245.5 1822.98"><defs><style>.cls-1{fill:#ebf2f9;}.cls-2{fill:#d4e5f9;}.cls-3{fill:#eef6ff;}.cls-4{fill:#dfebfa;}.cls-5{fill:#fff;}.cls-6{fill:#2b478b;}.cls-7{fill:#dceaff;}.cls-8{fill:#f99746;}.cls-19,.cls-9{fill:#ed7d2b;}.cls-10{fill:#233862;}.cls-11{fill:#afcdfb;}.cls-12{fill:#ffb27d;}.cls-13{fill:#ed975d;}.cls-14{fill:#375a64;}.cls-15{fill:#2b454e;}.cls-16{opacity:0.3;}.cls-17{fill:#1a2e35;}.cls-18,.cls-21{fill:none;stroke-miterlimit:10;}.cls-18{stroke:#1a2e35;}.cls-19,.cls-20{opacity:0.1;}.cls-21{stroke:#c8c8c8;stroke-width:10px;}.cls-22{fill:#c8c8c8;}</style></defs><title>Монтажная область 2 copy 13</title><g id="Layer_9" data-name="Layer 9"><path class="cls-1" d="M1141.3,18.87C549.06,18.87,69,499,69,1091.21c0,275.09,103.59,526,273.87,715.79H1939.77c170.28-189.83,273.87-440.7,273.87-715.79C2213.64,499,1733.54,18.87,1141.3,18.87Z"/><path class="cls-2" d="M2032.29,856.06h-59.81V722.65l-2.77-1.59h-17.83V721H1848.14v.06h-.08v20h.08v13.75h-.08v20h.08v13.81h-.08v20h.08v.07l-11-.07V704h-116.4v13.25h-.06v20h.06v17.57h-.06v20h.06v13.81h-.06v20h.06v12.77h-.06v20h.06v12.77h-.06v20h.06v12h-.06v12.7h.06v1.38H1589.54V1014.7h-49v28.83h-52.85V993.88h-95.08V859h-14.87V845.56h-2.13V859h-12.33v0H1301.6V845.56h-2.13V859H1283.4v67.84l-79.86-.38V968.3h-67.71V709.49H935.22V986.75H874V836.82H673.35v970l1370.81-5.23Z"/><polygon class="cls-2" points="673.54 1013.44 673.54 1104.35 673.54 1239.59 673.54 1800.17 502.63 1800.17 502.63 1239.59 502.63 1104.35 502.63 1013.44 673.54 1013.44"/><rect class="cls-3" x="986.84" y="709.49" width="148.99" height="43.87"/><rect class="cls-3" x="986.84" y="777.01" width="148.99" height="43.87"/><rect class="cls-3" x="986.84" y="845.95" width="148.99" height="43.87"/><rect class="cls-3" x="986.84" y="915.98" width="148.99" height="43.87"/><rect class="cls-3" x="986.84" y="983.55" width="148.99" height="43.87"/><rect class="cls-3" x="1720.77" y="704" width="74.5" height="26.64"/><rect class="cls-3" x="1720.77" y="745" width="74.5" height="26.64"/><rect class="cls-3" x="1720.77" y="786.87" width="74.5" height="26.64"/><rect class="cls-3" x="1720.77" y="829.4" width="74.5" height="26.64"/><rect class="cls-3" x="1720.77" y="870.44" width="74.5" height="26.64"/><rect class="cls-3" x="1720.77" y="915.6" width="74.5" height="26.64"/><rect class="cls-3" x="1720.77" y="956.61" width="74.5" height="26.64"/><rect class="cls-3" x="1720.77" y="998.47" width="74.5" height="26.64"/><rect class="cls-3" x="1720.77" y="1041" width="74.5" height="26.64"/><rect class="cls-3" x="1720.77" y="1082.04" width="74.5" height="26.64"/><rect class="cls-3" x="1848.29" y="721.47" width="74.5" height="26.64"/><rect class="cls-3" x="1848.29" y="762.48" width="74.5" height="26.64"/><rect class="cls-3" x="1848.29" y="804.34" width="74.5" height="26.64"/><rect class="cls-3" x="1848.29" y="846.87" width="74.5" height="26.64"/><rect class="cls-3" x="1848.29" y="887.91" width="74.5" height="26.64"/><rect class="cls-3" x="1848.29" y="930.69" width="74.5" height="26.64"/><rect class="cls-3" x="1848.29" y="971.7" width="74.5" height="26.64"/><rect class="cls-3" x="1848.29" y="1013.56" width="74.5" height="26.64"/><rect class="cls-3" x="1848.29" y="1056.09" width="74.5" height="26.64"/><rect class="cls-3" x="1848.29" y="1097.13" width="74.5" height="26.64"/><rect class="cls-3" x="1848.29" y="1144.19" width="74.5" height="26.64"/><rect class="cls-3" x="1848.29" y="1185.2" width="74.5" height="26.64"/><rect class="cls-3" x="1848.29" y="1227.07" width="74.5" height="26.64"/><rect class="cls-3" x="1848.29" y="1269.6" width="74.5" height="26.64"/><rect class="cls-3" x="1848.29" y="1310.63" width="74.5" height="26.64"/><rect class="cls-4" x="1613.97" y="846.87" width="3.7" height="54.36"/><rect class="cls-4" x="1676.25" y="800.19" width="5.75" height="105.27"/><rect class="cls-4" x="948.54" y="690.1" width="2.4" height="19.38"/><rect class="cls-4" x="999.32" y="690.1" width="2.4" height="19.38"/><rect class="cls-4" x="1115.74" y="690.1" width="2.4" height="19.38"/><rect class="cls-4" x="1732.3" y="689.04" width="1.85" height="14.96"/><rect class="cls-4" x="1819.69" y="689.04" width="1.85" height="14.96"/><rect class="cls-4" x="1070.22" y="690.1" width="2.4" height="19.38"/><rect class="cls-5" x="948.89" y="594.54" width="692.75" height="1207.97" rx="69.56"/><path class="cls-6" d="M1577.43,1810.57H1013.1a72.35,72.35,0,0,1-72.27-72.27V658.75a72.35,72.35,0,0,1,72.27-72.27h564.33a72.35,72.35,0,0,1,72.27,72.27V1738.3A72.35,72.35,0,0,1,1577.43,1810.57ZM1013.1,602.6A56.22,56.22,0,0,0,957,658.75V1738.3a56.22,56.22,0,0,0,56.15,56.15h564.33a56.21,56.21,0,0,0,56.15-56.15V658.75a56.21,56.21,0,0,0-56.15-56.15Z"/><rect class="cls-7" x="981.03" y="732.58" width="231.77" height="98.37"/><rect class="cls-7" x="981.03" y="863.32" width="231.77" height="98.37"/><rect class="cls-7" x="1206.36" y="794.23" width="231.77" height="105.8" transform="translate(2169.38 -475.12) rotate(90)"/><circle class="cls-7" cx="1189.88" cy="1289.24" r="110.21" transform="translate(-370.2 2091.81) rotate(-74.52)"/><rect class="cls-7" x="981.03" y="1289.24" width="631.4" height="17.11"/><rect class="cls-7" x="981.03" y="988.83" width="614.28" height="17.11"/><rect class="cls-7" x="903.41" y="1289.24" width="585.22" height="17.11" transform="translate(2493.82 101.78) rotate(90)"/><rect class="cls-7" x="1311.26" y="1004.72" width="585.22" height="17.11" transform="translate(2617.15 -590.59) rotate(90)"/><rect class="cls-7" x="981.8" y="1152.94" width="857.83" height="17.11" transform="translate(2572.21 -249.22) rotate(90)"/><circle class="cls-5" cx="1189.88" cy="1289.24" r="74.22" transform="translate(-440.08 1938.25) rotate(-69.01)"/><rect class="cls-7" x="1227.02" y="1026.89" width="84.66" height="131.46"/><rect class="cls-7" x="981.03" y="1125.82" width="82.51" height="94.47"/><rect class="cls-7" x="981.03" y="1026.89" width="166.04" height="82.51"/><rect class="cls-7" x="1325.97" y="1026.89" width="59.21" height="81.72"/><rect class="cls-7" x="1325.97" y="1125.82" width="59.21" height="136.56"/><rect class="cls-7" x="1325.97" y="1322.56" width="59.21" height="80.85"/><rect class="cls-7" x="1457.31" y="1026.89" width="47.78" height="235.49"/><rect class="cls-7" x="1520.59" y="1026.89" width="59.21" height="235.49"/><rect class="cls-7" x="1490.78" y="729.39" width="84.27" height="235.49"/><rect class="cls-7" x="1448.24" y="1331.18" width="164.19" height="259.23"/><rect class="cls-7" x="1221.77" y="1492.36" width="163.41" height="98.04"/><rect class="cls-7" x="1221.77" y="1421.91" width="163.41" height="51.97"/><rect class="cls-7" x="981.03" y="1421.91" width="146.78" height="168.5"/><rect class="cls-7" x="981.03" y="1315.52" width="61.8" height="90.8"/><path class="cls-8" d="M1531.18,1730.59a105,105,0,0,1-90-51.17,146.16,146.16,0,0,0-125.68-70.52H981v125c0,21.29,17.63,38.55,39.37,38.55h560.19c17.58,0,31.84-14,31.84-31.18v-10.72Z"/><path class="cls-8" d="M1486.91,1662.25a44.86,44.86,0,1,1,44.86,44.86A44.87,44.87,0,0,1,1486.91,1662.25Z"/><polygon class="cls-5" points="1505.34 1664.31 1548.64 1642.67 1535.31 1690.39 1524.64 1672.15 1505.34 1664.31"/><rect class="cls-5" x="1115.32" y="1700.43" width="245.49" height="10.49"/><rect class="cls-9" x="1003.42" y="1700.43" width="111.9" height="10.49"/><polygon class="cls-10" points="1096.57 1669.56 1180.35 1706.45 1094.79 1744.66 1108.47 1707.11 1096.57 1669.56"/><path class="cls-5" d="M1375.82,1705.68a17.45,17.45,0,1,1,17.45,17.44A17.45,17.45,0,0,1,1375.82,1705.68Z"/><path class="cls-11" d="M1015.52,603.06h559a59,59,0,0,1,59,59v30.53a0,0,0,0,1,0,0H957.16a0,0,0,0,1,0,0V661.42A58.36,58.36,0,0,1,1015.52,603.06Z"/><g id="man"><path class="cls-12" d="M2033.93,1090.06c-3.93,10.54-10.72,22.78-17.86,25.83-8.09,3.45-11.46,8.32-11.46,8.32l-6.53-3.79-7.81-4.53s.19-.87.57-2.28,1-3.36,1.75-5.53a7.54,7.54,0,0,0,.93-6.94c-1.46-3.86-1.17-9.83,1.33-13.47s4.92-12.59,6.42-12.33c3.65.63-1.79,12.94-.23,15.23a2.71,2.71,0,0,0,3.51,1.2l.06,0c10.23-4.5,22.64-28.76,28.14-25.48C2034.8,1067.48,2035.6,1085.56,2033.93,1090.06Z"/><rect class="cls-6" x="1991.94" y="1074.39" width="61.14" height="19.69" rx="2.01" transform="translate(-27.49 2115.55) rotate(-54.9)"/><path class="cls-10" d="M2010.26,1113l7.51,5.28a1.54,1.54,0,0,0,2.14-.37l33.39-47.52a1.52,1.52,0,0,0-.37-2.13l-7.52-5.28a1.52,1.52,0,0,0-2.13.37l-33.4,47.52A1.54,1.54,0,0,0,2010.26,1113Z"/><path class="cls-10" d="M1814.59,1037.68s65.24,113.79,88.91,134.73l86.78-64.7s12.59,3.86,18.1,16.5c0,0-52.69,107.36-104.58,111.92s-124.71-128.69-124.71-128.69Z"/><path class="cls-10" d="M1667,1811.59h-37.69c-4.74-2.57-9-8.47-10.31-17.27-1.84-12.14-15.45-18.76-18.4-28.7s12.15-23.9,12.15-23.9l2.52-3.26,2.63-3.37,25,5.89s.62,6,1,13.55a173,173,0,0,1,.11,17.35c-.74,13.24,3.7,27.51,15.47,30.09C1668.15,1803.87,1667.76,1809,1667,1811.59Z"/><path class="cls-10" d="M1885.72,1811.59h-86.2c-4.15-5.06-2.62-23.73-2-29.82.13-1.23.22-1.94.22-1.94s29.43-23.55,33.47-5.52c.13.56.28,1.12.44,1.66,5.09,16.87,27.94,24.53,41.14,26.66C1881.38,1804,1884.55,1808.48,1885.72,1811.59Z"/><path class="cls-8" d="M1869.29,1330.43s-4.47,55.76-9.72,122.8c-7.14,91.06-15.73,202.91-16.58,224.1-1.46,36.8-7.36,95.65-7.36,95.65s-14,14-41.93,8.09c0,0-24.92-84-32-172.91l-.33-4.4c-6.62-90.49-16.92-281.06-16.92-281.06Z"/><path class="cls-9" d="M1869.29,1330.43s-4.47,55.76-9.72,122.8l-97.91,154.93-.33-4.4c-6.62-90.49-16.92-281.06-16.92-281.06Z"/><path class="cls-8" d="M1848.88,1337.05s-80.56,202-133.54,296.88-69.52,121.39-69.52,121.39-30.35-12.14-33.11-20.41c0,0,20.25-183.23,55.73-227.9,20-25.24,43.59-101,44.7-127.47s7.17-78.91,7.17-78.91Z"/><path class="cls-12" d="M1828.83,1042.63c-31.48,9.94-86-16.87-86-16.87s29-21.79,27.51-67.09l24.34,19.62,16.54,13.32a198.32,198.32,0,0,1-1.88,21.63c-.48,3.62-1.07,7.65-1.82,12.06A75.46,75.46,0,0,1,1828.83,1042.63Z"/><path class="cls-13" d="M1811.26,991.61a198.32,198.32,0,0,1-1.88,21.63c-18.32-3.15-39.1-32.76-39.1-32.76,9.32-2.69,17.49-3.18,24.44-2.19Z"/><path class="cls-12" d="M1820.88,990.87s-52,8.64-56.88-23.83-14.88-53.22,18.11-60.11,41.33,4.53,45.59,15S1834.28,987.78,1820.88,990.87Z"/><path class="cls-6" d="M1872.77,1335.07a5.09,5.09,0,0,1-3.31,1.26c-11.82-.16-46.3,6.41-75.47,3.42-24.59-2.37-46.36-9.65-69.73-20.13-3.11-1.39-10.25-5.2-10.09-8.67.11-3.8.48-9.31,1-16.25,1.65-24.13,4.53-65.63,1.72-113.5-.5-8.92-.77-17.76-.8-26.46-.24-64.89,12.63-122,38.48-141.28,2.21-1.58,15.76,5,28.22,11.19a51.54,51.54,0,0,0,33.89,4.1l10.88,9.62c13.24,12.29,27.75,29,34,54.39,5.37,21.59,8.52,60.54,10.25,100.9.79,18.28,1.42,36.73,1.58,54.23v.63c.16,1.73.16,3.63.16,5.36C1874.19,1298.81,1873.56,1334.44,1872.77,1335.07Z"/><path class="cls-10" d="M1715.13,1294.7c1.65-24.13,4.53-65.63,1.72-113.5-.5-8.92-.77-17.76-.8-26.46,10.77-26.13,19.57-45.08,19.57-45.08h27.15S1782.67,1245.6,1715.13,1294.7Z"/><path class="cls-10" d="M1576.07,1448.77l115.78,16.5a27.76,27.76,0,0,0,31.3-23.5l7.15-50.17a27.76,27.76,0,0,0-23.49-31.3L1591,1343.8a27.75,27.75,0,0,0-31.3,23.49l-7.15,50.18A27.75,27.75,0,0,0,1576.07,1448.77Z"/><path class="cls-6" d="M1713.34,1375.26h0a27.86,27.86,0,0,0-19.18-16.75h0c-.88-.21-1.76-.39-2.68-.52l-23-3.28,1.54-10.83a9.15,9.15,0,0,0-7.78-10.36l-6-.86-24.21-3.45-4.36-.62a9.18,9.18,0,0,0-10.37,7.78l-1.54,10.83-39.79-5.68a27.87,27.87,0,0,0-31.42,23.58l-7.23,50.76a27.86,27.86,0,0,0,23.58,31.41l115.57,16.48a27.17,27.17,0,0,0,6,.19h0a27.35,27.35,0,0,0,9-2.28,27.85,27.85,0,0,0,16.35-21.5l7.23-50.75A27.53,27.53,0,0,0,1713.34,1375.26Zm-90.43-38.1a3.43,3.43,0,0,1,2.84-2.89,3.55,3.55,0,0,1,1,0l5.14.73,19,2.72,10.39,1.48a3.41,3.41,0,0,1,2.9,3.86l-1.54,10.83-41.35-5.9Z"/><path class="cls-12" d="M1664.11,1299.37s-6.08,8.1-6.32,11.34c-1.63,21.93,8.39,25-17.56,37.15,0,0-11.08,4.22-11.27-4.38s7.69-8.74,6.25-20.78c-1.66-13.88-1.49-14,7.62-21.27l6-10Z"/><path class="cls-6" d="M1648.65,1305.58a89.21,89.21,0,0,0,20.37,1.13s29-89.65,32.76-97.84,86.2-105.12,86.2-105.12l-34.35-86s-89.2,149-98.26,169.93c-15,34.59-20.16,112.15-20.16,112.15A37.37,37.37,0,0,0,1648.65,1305.58Z"/><path class="cls-6" d="M1764,963.92s5.33-.9,4.47-8.25-.85-16.95,5.13-15.16,6.27,6.57,8.73,3.78,2.5-14.57,20.28-15.39,25,5.37,33.28,1.74,8.7-16.15,8.7-16.15-2.35,4.46-5.9,5.89c0,0,13.79-18.87-2.18-31.81s-32.26-4.47-41.5-3.91c-20.36,1.23-33.52,2.45-40.17,15.84S1750.89,951,1764,963.92Z"/><path class="cls-12" d="M1654.52,1309s5.86,6.1,6.23,8.64c1.18,8.15,3.9,11.67,2.54,12.56-2.84,1.84-6.59-4.2-8.38-9.61S1654.52,1309,1654.52,1309Z"/></g><path class="cls-8" d="M362.62,747.4c-52.65,0-95.33,44.77-95.33,100s95.33,163.86,95.33,163.86,95.32-108.63,95.32-163.86S415.26,747.4,362.62,747.4Zm0,140.82a48,48,0,1,1,48-48A48,48,0,0,1,362.62,888.22Z"/><path class="cls-5" d="M360.07,1268.22c-15.27-3.6-26.49,8.64-26.49,8.64-.66-22.74,10.54-26.27,10.54-26.27C348.6,1248.53,354.17,1256.22,360.07,1268.22Z"/><path class="cls-5" d="M432.12,1268.18s6.41,13.46,7.73,17a14.27,14.27,0,0,0-12.11,8.11S427.24,1270.35,432.12,1268.18Z"/><path class="cls-8" d="M1413.18,845.58c-30.71,0-55.61,26.11-55.61,58.33s55.61,95.58,55.61,95.58,55.6-63.37,55.6-95.58S1443.88,845.58,1413.18,845.58Zm0,82.14a28,28,0,1,1,28-28A28,28,0,0,1,1413.18,927.72Z"/><path class="cls-8" d="M1419.22,1306.54H1280.05l.14-6.18c0-.24.4-25-10-49.66-13.61-32-38.61-48.84-74.31-50-29-.91-51.9,6.92-68,23.24-28.56,29-26.75,75.76-26.73,76.22l.29,6.33H852.9L560.56,1083H362.15V1071H564.66L857,1294.45h232c.44-14.87,4.22-52.51,30.14-78.87,18.55-18.87,44.47-27.92,77-26.91,51,1.58,74.51,32.23,85.21,57.67,8.2,19.49,10.23,38.6,10.72,48.11h115V1052h12.09Z"/><path class="cls-5" d="M1388,1038.44a25.16,25.16,0,1,1,25.16,25.15A25.15,25.15,0,0,1,1388,1038.44Z"/><path class="cls-8" d="M1413.18,1068.3a29.86,29.86,0,1,1,29.85-29.86A29.89,29.89,0,0,1,1413.18,1068.3Zm0-50.32a20.46,20.46,0,1,0,20.45,20.46A20.49,20.49,0,0,0,1413.18,1018Z"/><circle class="cls-5" cx="362.62" cy="1077.1" r="25.16"/><path class="cls-8" d="M362.62,1107a29.86,29.86,0,1,1,29.85-29.86A29.89,29.89,0,0,1,362.62,1107Zm0-50.31a20.46,20.46,0,1,0,20.45,20.45A20.48,20.48,0,0,0,362.62,1056.65Z"/><path class="cls-5" d="M1071.44,1297.8a25.16,25.16,0,1,1,25.15,25.16A25.16,25.16,0,0,1,1071.44,1297.8Z"/><path class="cls-8" d="M1096.59,1327.66a29.86,29.86,0,1,1,29.86-29.86A29.9,29.9,0,0,1,1096.59,1327.66Zm0-50.32a20.46,20.46,0,1,0,20.46,20.46A20.48,20.48,0,0,0,1096.59,1277.34Z"/><path class="cls-5" d="M1051.22,667.94l-8.27,5.94-8.32-5.87a10.19,10.19,0,0,1,16.59-.07Z"/><path class="cls-5" d="M1043,649.23a24.6,24.6,0,0,0-20.13,10.46l5.25,3.69a18.19,18.19,0,0,1,29.67-.11l5.23-3.75A24.61,24.61,0,0,0,1043,649.23Z"/><path class="cls-5" d="M1043,621.73a52,52,0,0,0-42.6,22.12l5.25,3.69a45.68,45.68,0,0,1,74.5-.28l5.21-3.75A52,52,0,0,0,1043,621.73Z"/><path class="cls-5" d="M1043,636.77a37.22,37.22,0,0,0-30.38,15.7l5.25,3.68a30.87,30.87,0,0,1,50.12-.19l5.21-3.73A37.2,37.2,0,0,0,1043,636.77Z"/><path class="cls-8" d="M1989.77,751.39c-37,0-67,31.46-67,70.27s67,115.14,67,115.14,67-76.34,67-115.14S2026.76,751.39,1989.77,751.39Zm0,99a33.73,33.73,0,1,1,33.73-33.73A33.73,33.73,0,0,1,1989.77,850.34Z"/><polygon class="cls-8" points="2119.36 1541.37 2110.69 1537.69 2175.03 1386.06 2175.03 1181.74 2088.94 1178.93 2088.94 1054.09 2008.03 973.18 2014.69 966.51 2098.36 1050.19 2098.36 1169.81 2184.45 1172.62 2184.45 1387.97 2184.08 1388.86 2119.36 1541.37"/><path class="cls-8" d="M2089.87,1543.39a25.16,25.16,0,1,1,25.15,25.15A25.15,25.15,0,0,1,2089.87,1543.39Z"/><path class="cls-8" d="M2115,1573.25a29.87,29.87,0,1,1,29.87-29.86A29.89,29.89,0,0,1,2115,1573.25Zm0-50.31a20.45,20.45,0,1,0,20.45,20.45A20.47,20.47,0,0,0,2115,1522.94Z"/><path class="cls-8" d="M2154.58,1177.18a25.16,25.16,0,1,1,25.16,25.16A25.17,25.17,0,0,1,2154.58,1177.18Z"/><path class="cls-8" d="M2179.74,1207.05a29.87,29.87,0,1,1,29.87-29.87A29.9,29.9,0,0,1,2179.74,1207.05Zm0-50.32a20.45,20.45,0,1,0,20.45,20.45A20.48,20.48,0,0,0,2179.74,1156.73Z"/><circle class="cls-8" cx="2011.36" cy="969.85" r="10.63"/><path class="cls-5" d="M1383,902a30.23,30.23,0,1,1,30.23,30.22A30.23,30.23,0,0,1,1383,902Z"/><path class="cls-14" d="M458,1526.63s-3.09-16.23-9.27-18.74-9.93,4.79-9.93,4.79-1.45-15.51-10.2-20.15-15.33,4.86-15.33,4.86-6.71-19.68-18.71-19.68-18.06,28.8-18.06,28.8-7.07-8.59-14.34-3.74-7.26,23.86-7.26,23.86Z"/><path class="cls-15" d="M686.81,1526.63H578.31s3.57-17.22,10.76-18.44,10.55,6.77,10.55,6.77-.33-24,13.11-28.11S637.44,1504,637.44,1504s8.42-12.1,19.9-11.32,14.4,20.76,14.4,20.76S682.19,1506.48,686.81,1526.63Z"/><path class="cls-15" d="M369.69,1526.63H312.57s.13-9.57,5.74-12.11,9,2.41,9,2.41,2.29-17.59,12.75-17.59,15.48,15.18,15.48,15.18a7.77,7.77,0,0,1,8.15-3.73C369.46,1511.64,369.69,1526.63,369.69,1526.63Z"/><path class="cls-8" d="M585.6,1352.58l14,350.77h255.5L828.71,1561l-85.15-30.24a17,17,0,0,1-9.66-10.67L683,1372.93Z"/><polygon class="cls-14" points="613.74 1389.51 620.12 1516.06 712.32 1525.78 672.59 1394.14 613.74 1389.51"/><g class="cls-16"><polygon class="cls-5" points="617.23 1458.84 618.68 1487.7 646.33 1518.82 673.03 1521.64 617.23 1458.84"/><polygon class="cls-5" points="632.6 1391 691.73 1457.55 685.51 1436.92 645.61 1392.02 632.6 1391"/><polygon class="cls-5" points="614.5 1404.39 614.67 1407.89 708.68 1513.7 707.16 1508.67 614.5 1404.39"/><polygon class="cls-5" points="619.23 1498.36 619.4 1501.86 633.24 1517.44 636.48 1517.78 619.23 1498.36"/></g><polygon class="cls-17" points="613.74 1389.51 672.59 1394.14 712.32 1525.78 706.15 1525.13 668.6 1400.67 614.02 1395.05 613.74 1389.51"/><line class="cls-18" x1="739.67" y1="1533.89" x2="739.67" y2="1698.01"/><path class="cls-5" d="M839.94,1561.36l-20.77-3.7,12.1,48.16,10.71-1.28a4.84,4.84,0,0,0,3.94-5.32l-2.27-33.34A4.78,4.78,0,0,0,839.94,1561.36Z"/><path class="cls-9" d="M723.76,1491.77c-5,4.76-.48,47.73,3.06,47s11.13-2.36,14.19-5.08,20.32-37.5,16.13-44.7S727.6,1488.08,723.76,1491.77Z"/><path class="cls-19" d="M723.76,1491.77c-5,4.76-.48,47.73,3.06,47s11.13-2.36,14.19-5.08,20.32-37.5,16.13-44.7S727.6,1488.08,723.76,1491.77Z"/><polygon class="cls-20" points="656.9 1553 625.25 1553 625.25 1543.01 656.9 1544.94 656.9 1553"/><polygon class="cls-6" points="592.57 1703.35 67.31 1703.35 95.1 1281.81 573.65 1253.22 592.57 1703.35"/><polygon class="cls-20" points="592.58 1703.34 67.31 1703.34 68.8 1680.71 590.08 1643.89 592.58 1703.34"/><polygon class="cls-10" points="64.65 1722.31 866.87 1722.31 866.87 1695.45 866.87 1695.44 64.65 1695.44 64.65 1722.31"/><polygon class="cls-10" points="883.57 1682.54 803.55 1688.07 803.55 1688.07 803.55 1726.38 889.54 1726.38 889.54 1726.38 883.57 1682.54"/><polygon class="cls-10" points="99.2 1726.38 99.2 1688.87 48.7 1683 42.49 1726.38 99.2 1726.38"/><path class="cls-21" d="M277.53,1730.43s-7.46-62.2-62.15-62.2-62.79,62.2-62.79,62.2"/><path class="cls-17" d="M215.06,1670.25c-78.22,0-78.35,136.8,0,136.8S293.41,1670.25,215.06,1670.25Z"/><path class="cls-22" d="M215.06,1707.6c-35.5,0-35.56,62.1,0,62.1S250.62,1707.6,215.06,1707.6Z"/><path class="cls-21" d="M746.09,1730.43s-7.46-62.2-62.16-62.2-62.78,62.2-62.78,62.2"/><path class="cls-17" d="M683.91,1670.25c-78.21,0-78.34,136.8,0,136.8S762.26,1670.25,683.91,1670.25Z"/><path class="cls-22" d="M683.91,1707.6c-35.5,0-35.56,62.1,0,62.1S719.48,1707.6,683.91,1707.6Z"/></g></svg>