<svg xmlns="http://www.w3.org/2000/svg" xmlns:xlink="http://www.w3.org/1999/xlink" viewBox="0 0 2242.72 1833.19"><defs><style>.cls-1{fill:#ebf2f9;}.cls-2{fill:#91b3fa;}.cls-3{fill:#bdd0fb;}.cls-4{fill:#7d97f4;}.cls-5{fill:#fff;}.cls-6{fill:#2c61bf;}.cls-10,.cls-11,.cls-12,.cls-13,.cls-14,.cls-15,.cls-16,.cls-6,.cls-7,.cls-8,.cls-9{fill-rule:evenodd;}.cls-7{fill:url(#linear-gradient);}.cls-8{fill:#f8c295;}.cls-9{fill:#e66f2d;}.cls-10,.cls-25{fill:#f99746;}.cls-11{fill:#f2b27b;}.cls-12{fill:#fe7b21;}.cls-13{fill:#f8bb88;}.cls-14{fill:#222021;}.cls-15{fill:#fbab1e;}.cls-16{fill:#ffbb71;}.cls-17{fill:#fefced;}.cls-18,.cls-23{fill:#78acea;}.cls-19{fill:#afcdfb;}.cls-20{fill:#5e92dd;opacity:0.4;}.cls-21{fill:#95c0f4;}.cls-22{fill:#8cbaf1;}.cls-23{opacity:0.9;}.cls-24{fill:#fcecdb;}.cls-26{fill:#f9e5d1;}.cls-27{fill:#efcbab;}.cls-28{fill:#e49963;}.cls-29{fill:#4a75cb;}.cls-30{fill:#2b478b;}.cls-31{fill:#163560;}.cls-32{fill:#1c468a;}.cls-33{fill:#ee9849;}.cls-34{fill:#739af0;}.cls-35{fill:#d68d5d;}</style><linearGradient id="linear-gradient" x1="95.17" y1="1457.36" x2="305.13" y2="1457.36" gradientUnits="userSpaceOnUse"><stop offset="0" stop-color="#09005d"/><stop offset="1" stop-color="#1a0f91"/></linearGradient></defs><title>Монтажная область 2 copy 10</title><g id="Layer_9" data-name="Layer 9"><path class="cls-1" d="M1145.67,9.19C553.43,9.19,73.33,489.29,73.33,1081.53c0,275.08,103.59,526,273.87,715.78H1944.14c170.28-189.82,273.87-440.7,273.87-715.78C2218,489.29,1737.91,9.19,1145.67,9.19Z"/><path class="cls-2" d="M897.3,1738.75l-569.13,42.76c-47.64,3.58-88.64-44.12-79.8-101.76L200.9,805.86c-15.9-72.3,24.15-129.25,74.85-129.25h616.6c48.24,0,87.34,51.76,87.34,115.6v831.13C979.69,1684.63,943.54,1735.27,897.3,1738.75Z"/><path class="cls-3" d="M840.33,1647.62l-492.68,37c-41.24,3.1-76.73-38.19-79.69-92.73l-41.1-756.5c-3.15-57.94,31.52-107.24,75.41-107.24H836.05c41.75,0,75.6,44.8,75.6,100.06v719.49C911.65,1600.77,880.36,1644.61,840.33,1647.62Z"/><path class="cls-2" d="M731.07,1403.56l-2.76-5.27a1,1,0,0,1,.37-1.35.93.93,0,0,1,1.29.39h0l0,.06,2.69,5.16,0,0a1,1,0,0,1-.37,1.35A.91.91,0,0,1,731.07,1403.56Z"/><path class="cls-2" d="M723.15,1385.35l-1.65-5.76a1,1,0,0,1,.64-1.26,1,1,0,0,1,1.19.68h0l0,.06,1.61,5.64,0,.06a1,1,0,0,1-.64,1.25A1,1,0,0,1,723.15,1385.35Z"/><path class="cls-2" d="M718.92,1365.83l-.58-6a1,1,0,0,1,.87-1.12,1,1,0,0,1,1.06.91h0v.06l.56,5.87v.06a1,1,0,0,1-.87,1.11A1,1,0,0,1,718.92,1365.83Z"/><path class="cls-2" d="M718.17,1345.83l.41-6a1,1,0,0,1,1-.95,1,1,0,0,1,.91,1.1h0v0l-.4,5.89v0a1,1,0,0,1-1,1A1,1,0,0,1,718.17,1345.83Z"/><path class="cls-2" d="M720.58,1326l1.29-5.85a1,1,0,0,1,1.18-.78,1,1,0,0,1,.74,1.25h0v.05l-1.27,5.75v0a1,1,0,0,1-1.18.78A1,1,0,0,1,720.58,1326Z"/><path class="cls-2" d="M725.8,1306.76l2.08-5.6a1,1,0,0,1,1.29-.6,1.08,1.08,0,0,1,.57,1.37h0l0,0-2,5.51,0,0a1,1,0,0,1-1.29.59A1.07,1.07,0,0,1,725.8,1306.76Z"/><path class="cls-2" d="M733.58,1288.51l2.8-5.23a1,1,0,0,1,1.37-.41,1.1,1.1,0,0,1,.39,1.45h0l0,0-2.77,5.15,0,0a1,1,0,0,1-1.37.4A1.07,1.07,0,0,1,733.58,1288.51Z"/><path class="cls-2" d="M743.73,1271.6c1.14-1.6,2.3-3.19,3.49-4.75a1,1,0,0,1,1.43-.17,1.12,1.12,0,0,1,.16,1.51h0c-1.18,1.54-2.32,3.11-3.44,4.68h0a1,1,0,0,1-1.43.22A1.11,1.11,0,0,1,743.73,1271.6Z"/><path class="cls-2" d="M756,1256.32l4-4.27a1,1,0,0,1,1.46,0,1.14,1.14,0,0,1,0,1.54h0l0,0-3.95,4.22,0,0a1,1,0,0,1-1.45,0A1.12,1.12,0,0,1,756,1256.32Z"/><path class="cls-2" d="M769.84,1242.66l4.41-3.79a1,1,0,0,1,1.47.16,1.13,1.13,0,0,1-.15,1.54h0l0,0-4.37,3.74,0,0a1,1,0,0,1-1.46-.16A1.11,1.11,0,0,1,769.84,1242.66Z"/><path class="cls-2" d="M785,1230.58l4.74-3.32a1,1,0,0,1,1.46.3,1.15,1.15,0,0,1-.29,1.54h0l0,0-4.7,3.28,0,0a1,1,0,0,1-1.46-.31A1.14,1.14,0,0,1,785,1230.58Z"/><path class="cls-2" d="M801,1220l5-2.91a1,1,0,0,1,1.44.44,1.15,1.15,0,0,1-.41,1.52h0l-4.94,2.87,0,0a1,1,0,0,1-1.44-.44A1.13,1.13,0,0,1,801,1220Z"/><path class="cls-2" d="M817.85,1210.79l5.16-2.53a1.06,1.06,0,0,1,1.43.55,1.15,1.15,0,0,1-.52,1.5h0l-5.13,2.5h0a1,1,0,0,1-1.42-.54A1.15,1.15,0,0,1,817.85,1210.79Z"/><path class="cls-2" d="M835.21,1202.77l5.29-2.19a1.07,1.07,0,0,1,1.4.64,1.16,1.16,0,0,1-.61,1.48h0l-5.25,2.17h0a1.06,1.06,0,0,1-1.4-.64A1.16,1.16,0,0,1,835.21,1202.77Z"/><path class="cls-2" d="M853,1195.81l5.38-1.91a1.09,1.09,0,0,1,1.39.73,1.16,1.16,0,0,1-.69,1.46h0l-5.36,1.89h0a1.08,1.08,0,0,1-1.38-.73A1.16,1.16,0,0,1,853,1195.81Z"/><path class="cls-2" d="M871,1189.74l5.46-1.66a1.1,1.1,0,0,1,1.37.79,1.18,1.18,0,0,1-.76,1.44h0l-5.43,1.66h0a1.1,1.1,0,0,1-1.37-.79A1.17,1.17,0,0,1,871,1189.74Z"/><path class="cls-2" d="M889.24,1184.45l5.51-1.44a1.12,1.12,0,0,1,1.36.86,1.18,1.18,0,0,1-.82,1.42h0l-5.49,1.43h0a1.1,1.1,0,0,1-1.35-.85A1.18,1.18,0,0,1,889.24,1184.45Z"/><path class="cls-2" d="M907.67,1179.91l5.56-1.21a1.13,1.13,0,0,1,1.34.92,1.2,1.2,0,0,1-.88,1.4h0l-5.54,1.2h0a1.13,1.13,0,0,1-1.33-.92A1.18,1.18,0,0,1,907.67,1179.91Z"/><path class="cls-2" d="M926.25,1176.11l5.6-1a1.14,1.14,0,0,1,1.31,1,1.19,1.19,0,0,1-.93,1.38h0l-5.58,1h0a1.15,1.15,0,0,1-1.31-1A1.2,1.2,0,0,1,926.25,1176.11Z"/><path class="cls-2" d="M945,1173l5.63-.79a1.16,1.16,0,0,1,1.29,1,1.19,1.19,0,0,1-1,1.35h0l-5.61.77h0a1.14,1.14,0,0,1-1.28-1A1.18,1.18,0,0,1,945,1173Z"/><path class="cls-2" d="M963.74,1170.65l5.65-.58a1.17,1.17,0,0,1,1.26,1.09,1.21,1.21,0,0,1-1,1.34h0l-5.63.57h0a1.17,1.17,0,0,1-1.26-1.09A1.2,1.2,0,0,1,963.74,1170.65Z"/><path class="cls-2" d="M982.59,1168.94l5.66-.39a1.23,1.23,0,0,1,.16,2.45h0l-5.64.38h0a1.19,1.19,0,0,1-1.24-1.15A1.21,1.21,0,0,1,982.59,1168.94Z"/><path class="cls-2" d="M1001.48,1167.86l5.68-.2a1.24,1.24,0,0,1,.08,2.48h0l-5.65.2h0a1.2,1.2,0,0,1-1.21-1.2A1.22,1.22,0,0,1,1001.48,1167.86Z"/><path class="cls-2" d="M1020.4,1167.4l5.67,0a1.21,1.21,0,0,1,1.2,1.24,1.23,1.23,0,0,1-1.19,1.26h0l-5.65,0h0a1.22,1.22,0,0,1-1.19-1.25A1.21,1.21,0,0,1,1020.4,1167.4Z"/><path class="cls-2" d="M1039.32,1167.52l5.67.14a1.26,1.26,0,0,1-.06,2.52h0l-5.65-.15h0a1.26,1.26,0,0,1,.06-2.51Z"/><path class="cls-2" d="M1058.23,1168.18l5.66.3a1.25,1.25,0,0,1,1.15,1.34,1.22,1.22,0,0,1-1.27,1.2h0l-5.65-.3a1.27,1.27,0,0,1,.12-2.54Z"/><path class="cls-2" d="M1077.11,1169.36l5.66.45a1.27,1.27,0,0,1,1.13,1.38,1.24,1.24,0,0,1-1.32,1.18h0l-5.64-.45a1.27,1.27,0,0,1-1.13-1.37A1.25,1.25,0,0,1,1077.11,1169.36Z"/><path class="cls-2" d="M1096,1171l5.65.59a1.27,1.27,0,0,1,1.1,1.41,1.25,1.25,0,0,1-1.35,1.17h0l-5.63-.6a1.29,1.29,0,0,1-1.11-1.41A1.25,1.25,0,0,1,1096,1171Z"/><path class="cls-2" d="M1114.77,1173.15l5.63.72a1.29,1.29,0,0,1,1.08,1.46,1.26,1.26,0,0,1-1.38,1.14h0l-5.62-.73a1.3,1.3,0,0,1-1.09-1.45A1.27,1.27,0,0,1,1114.77,1173.15Z"/><path class="cls-2" d="M1133.52,1175.7l5.62.84a1.32,1.32,0,0,1,1.06,1.5,1.27,1.27,0,0,1-1.42,1.12h0l-5.59-.84a1.31,1.31,0,0,1-1.07-1.49A1.26,1.26,0,0,1,1133.52,1175.7Z"/><path class="cls-2" d="M1152.22,1178.65l5.6,1a1.33,1.33,0,0,1,1,1.53,1.28,1.28,0,0,1-1.45,1.1h0l-5.59-1a1.31,1.31,0,0,1-1-1.52A1.28,1.28,0,0,1,1152.22,1178.65Z"/><path class="cls-2" d="M1170.87,1182l5.58,1.07a1.35,1.35,0,0,1,1,1.56,1.28,1.28,0,0,1-1.48,1.08h0l-5.57-1.07a1.34,1.34,0,0,1-1-1.55A1.29,1.29,0,0,1,1170.87,1182Z"/><path class="cls-2" d="M1189.45,1185.64l5.57,1.17a1.36,1.36,0,0,1,1,1.59,1.29,1.29,0,0,1-1.52,1.06h0l-5.55-1.17a1.35,1.35,0,0,1-1-1.58A1.3,1.3,0,0,1,1189.45,1185.64Z"/><path class="cls-2" d="M1208,1189.64l5.54,1.25a1.37,1.37,0,0,1,1,1.62,1.3,1.3,0,0,1-1.54,1h0l-5.53-1.26a1.37,1.37,0,0,1-1-1.62A1.3,1.3,0,0,1,1208,1189.64Z"/><path class="cls-2" d="M1226.44,1193.93l5.53,1.34a1.37,1.37,0,0,1,1,1.65,1.3,1.3,0,0,1-1.56,1h0l-5.51-1.35a1.37,1.37,0,0,1-1-1.64A1.31,1.31,0,0,1,1226.44,1193.93Z"/><path class="cls-2" d="M1244.84,1198.49l5.51,1.42a1.39,1.39,0,0,1,1,1.68,1.31,1.31,0,0,1-1.59,1h0l-5.49-1.42a1.39,1.39,0,0,1-1-1.67A1.32,1.32,0,0,1,1244.84,1198.49Z"/><path class="cls-2" d="M1263.18,1203.31l5.49,1.49a1.41,1.41,0,0,1,1,1.7,1.32,1.32,0,0,1-1.62,1h0l-5.48-1.49a1.39,1.39,0,0,1-1-1.7A1.32,1.32,0,0,1,1263.18,1203.31Z"/><path class="cls-2" d="M1281.46,1208.36l5.48,1.55a1.43,1.43,0,0,1,.94,1.73,1.33,1.33,0,0,1-1.64,1h0l-5.46-1.56a1.4,1.4,0,0,1-.94-1.72A1.32,1.32,0,0,1,1281.46,1208.36Z"/><path class="cls-2" d="M1299.69,1213.61l5.46,1.62a1.43,1.43,0,0,1,.94,1.75,1.35,1.35,0,0,1-1.67,1h0l-5.45-1.62a1.42,1.42,0,0,1-.94-1.74A1.34,1.34,0,0,1,1299.69,1213.61Z"/><path class="cls-2" d="M1317.87,1219.07l5.45,1.66a1.45,1.45,0,0,1,.92,1.76,1.34,1.34,0,0,1-1.68,1l-5.44-1.66a1.43,1.43,0,0,1-.92-1.75,1.33,1.33,0,0,1,1.67-1Z"/><path class="cls-2" d="M1336,1224.67l5.43,1.7a1.41,1.41,0,0,1,.9,1.75,1.33,1.33,0,0,1-1.67,1l-5.43-1.69a1.44,1.44,0,0,1-.91-1.76,1.34,1.34,0,0,1,1.67-1Z"/><path class="cls-2" d="M1354.11,1230.37l5.42,1.73a1.42,1.42,0,0,1,.89,1.76,1.33,1.33,0,0,1-1.67.94l-5.42-1.73a1.42,1.42,0,0,1-.9-1.75,1.34,1.34,0,0,1,1.67-1Z"/><path class="cls-2" d="M1372.18,1236.17l5.42,1.75a1.41,1.41,0,0,1,.88,1.75,1.33,1.33,0,0,1-1.67.93l-5.42-1.75a1.41,1.41,0,0,1-.88-1.75,1.32,1.32,0,0,1,1.67-.93Z"/><path class="cls-2" d="M1390.23,1242l5.41,1.76a1.41,1.41,0,0,1,.88,1.75,1.33,1.33,0,0,1-1.66.93l-5.42-1.76a1.43,1.43,0,0,1-.88-1.76,1.32,1.32,0,0,1,1.67-.92Z"/><path class="cls-2" d="M1408.27,1247.9l5.41,1.77a1.42,1.42,0,0,1,.88,1.75,1.32,1.32,0,0,1-1.67.92l-5.41-1.77a1.41,1.41,0,0,1-.87-1.75,1.33,1.33,0,0,1,1.66-.92Z"/><path class="cls-2" d="M1426.31,1253.8l5.41,1.76a1.4,1.4,0,0,1,.87,1.74,1.3,1.3,0,0,1-1.65.92l-5.42-1.76a1.4,1.4,0,0,1-.87-1.74,1.31,1.31,0,0,1,1.66-.92Z"/><path class="cls-2" d="M1444.35,1259.67l5.41,1.76a1.4,1.4,0,0,1,.88,1.73,1.31,1.31,0,0,1-1.65.92l-5.42-1.75a1.4,1.4,0,0,1-.87-1.74,1.31,1.31,0,0,1,1.65-.92Z"/><path class="cls-2" d="M1462.4,1265.51l5.42,1.74a1.39,1.39,0,0,1,.87,1.72,1.3,1.3,0,0,1-1.64.92l-5.42-1.73a1.4,1.4,0,0,1-.88-1.73,1.31,1.31,0,0,1,1.65-.92Z"/><path class="cls-2" d="M1480.47,1271.27l5.42,1.72a1.37,1.37,0,0,1,.88,1.71,1.3,1.3,0,0,1-1.63.93l-5.43-1.71a1.4,1.4,0,0,1-.88-1.72,1.31,1.31,0,0,1,1.64-.93Z"/><path class="cls-2" d="M1498.56,1276.94l5.44,1.68a1.39,1.39,0,0,1,.88,1.71,1.3,1.3,0,0,1-1.62.93l-5.44-1.68a1.38,1.38,0,0,1-.89-1.7,1.32,1.32,0,0,1,1.63-.94Z"/><path class="cls-2" d="M1516.69,1282.49l5.44,1.64a1.39,1.39,0,0,1,.9,1.7,1.3,1.3,0,0,1-1.61.94l-5.45-1.64a1.38,1.38,0,0,1-.9-1.69,1.31,1.31,0,0,1,1.61-1Z"/><path class="cls-2" d="M1534.85,1287.9l5.46,1.59a1.38,1.38,0,0,1,.91,1.68,1.29,1.29,0,0,1-1.6.95l-5.47-1.58a1.39,1.39,0,0,1-.9-1.69,1.29,1.29,0,0,1,1.6-.95Z"/><path class="cls-2" d="M1553.06,1293.13l5.47,1.53a1.37,1.37,0,0,1,.92,1.67,1.29,1.29,0,0,1-1.58,1l-5.48-1.53a1.37,1.37,0,0,1-.92-1.67,1.29,1.29,0,0,1,1.58-1Z"/><path class="cls-2" d="M1571.32,1298.16l5.48,1.47a1.35,1.35,0,0,1,.94,1.65,1.29,1.29,0,0,1-1.57,1l-5.5-1.46a1.37,1.37,0,0,1-.93-1.65,1.3,1.3,0,0,1,1.57-1Z"/><path class="cls-2" d="M1589.63,1303l5.51,1.39a1.35,1.35,0,0,1,.95,1.63,1.29,1.29,0,0,1-1.55,1l-5.52-1.4a1.35,1.35,0,0,1-1-1.63,1.28,1.28,0,0,1,1.55-1Z"/><path class="cls-2" d="M1608,1307.52l5.52,1.31a1.35,1.35,0,0,1,1,1.61,1.28,1.28,0,0,1-1.54,1l-5.53-1.31a1.34,1.34,0,0,1-1-1.61,1.27,1.27,0,0,1,1.53-1Z"/><path class="cls-2" d="M1626.43,1311.78,1632,1313a1.34,1.34,0,0,1,1,1.59,1.28,1.28,0,0,1-1.51,1.05l-5.55-1.22a1.34,1.34,0,0,1-1-1.59,1.28,1.28,0,0,1,1.51-1Z"/><path class="cls-2" d="M1644.91,1315.74l5.55,1.12a1.33,1.33,0,0,1,1,1.56,1.28,1.28,0,0,1-1.49,1.07l-5.57-1.12a1.33,1.33,0,0,1-1-1.57,1.27,1.27,0,0,1,1.49-1.06Z"/><path class="cls-2" d="M1663.45,1319.35l5.57,1a1.35,1.35,0,0,1,1,1.54,1.29,1.29,0,0,1-1.47,1.1l-5.59-1a1.34,1.34,0,0,1-1-1.55,1.28,1.28,0,0,1,1.47-1.09Z"/><path class="cls-2" d="M1682.05,1322.6l5.59.89a1.34,1.34,0,0,1,1.07,1.52,1.28,1.28,0,0,1-1.45,1.12l-5.6-.9a1.32,1.32,0,0,1-1.06-1.52,1.27,1.27,0,0,1,1.44-1.11Z"/><path class="cls-2" d="M1700.71,1325.45l5.6.77a1.31,1.31,0,0,1,1.1,1.48,1.29,1.29,0,0,1-1.42,1.16l-5.62-.78a1.32,1.32,0,0,1-1.09-1.49,1.27,1.27,0,0,1,1.42-1.14Z"/><path class="cls-2" d="M1719.42,1327.87l5.62.64a1.32,1.32,0,0,1,1.13,1.46,1.29,1.29,0,0,1-1.39,1.18l-5.64-.64a1.32,1.32,0,0,1-1.12-1.46,1.28,1.28,0,0,1,1.39-1.18Z"/><path class="cls-2" d="M1738.17,1329.85l5.64.5a1.3,1.3,0,0,1,1.15,1.42,1.28,1.28,0,0,1-1.35,1.21l-5.66-.5a1.3,1.3,0,0,1-1.14-1.43,1.27,1.27,0,0,1,1.35-1.2Z"/><path class="cls-2" d="M1757,1331.34l5.65.33h0a1.29,1.29,0,0,1,1.18,1.39,1.27,1.27,0,0,1-1.32,1.24l-5.67-.33a1.3,1.3,0,0,1-1.18-1.39,1.27,1.27,0,0,1,1.32-1.24h0Z"/><path class="cls-2" d="M1775.8,1332.24l5.65.15h0a1.32,1.32,0,0,1-.07,2.63l-5.67-.15a1.29,1.29,0,0,1-1.22-1.35,1.28,1.28,0,0,1,1.28-1.28h0Z"/><path class="cls-2" d="M1794.65,1332.53l5.65,0h0a1.31,1.31,0,0,1,0,2.62l-5.68,0a1.31,1.31,0,0,1,0-2.62h0Z"/><path class="cls-2" d="M1813.49,1332.18l5.65-.23h0a1.31,1.31,0,0,1,.1,2.61l-5.67.23a1.26,1.26,0,0,1-1.29-1.25,1.28,1.28,0,0,1,1.19-1.36h0Z"/><path class="cls-2" d="M1832.31,1331.18l5.64-.43h0a1.26,1.26,0,0,1,1.32,1.2,1.27,1.27,0,0,1-1.14,1.39l-5.67.44a1.26,1.26,0,0,1-1.32-1.2,1.29,1.29,0,0,1,1.14-1.4h0Z"/><path class="cls-2" d="M1851.09,1329.5l5.62-.64h0a1.25,1.25,0,0,1,1.36,1.15,1.28,1.28,0,0,1-1.09,1.43l-5.65.65a1.26,1.26,0,0,1-1.36-1.15,1.29,1.29,0,0,1,1.1-1.43h0Z"/><path class="cls-2" d="M1869.79,1327.1l5.6-.86h0a1.22,1.22,0,0,1,1.39,1.09,1.27,1.27,0,0,1-1,1.46l-5.62.87a1.24,1.24,0,0,1-1.4-1.09,1.3,1.3,0,0,1,1-1.47h0Z"/><path class="cls-2" d="M1888.4,1324l5.55-1.09h0a1.23,1.23,0,0,1,1.43,1,1.28,1.28,0,0,1-1,1.5l-5.59,1.11a1.24,1.24,0,0,1-1.43-1,1.29,1.29,0,0,1,1-1.51h0Z"/><path class="cls-2" d="M1906.86,1320l5.51-1.33h0a1.21,1.21,0,0,1,1.46,1,1.28,1.28,0,0,1-.91,1.54l-5.54,1.34a1.22,1.22,0,0,1-1.46-1,1.29,1.29,0,0,1,.91-1.54h0Z"/><path class="cls-2" d="M1925.14,1315.29l5.45-1.59h0a1.22,1.22,0,0,1,1.5.89,1.29,1.29,0,0,1-.84,1.58l-5.48,1.6a1.21,1.21,0,0,1-1.5-.89,1.29,1.29,0,0,1,.85-1.58h0Z"/><path class="cls-2" d="M1943.2,1309.68l5.37-1.85h0a1.2,1.2,0,0,1,1.53.81,1.29,1.29,0,0,1-.77,1.61l-5.4,1.87a1.21,1.21,0,0,1-1.54-.81,1.3,1.3,0,0,1,.78-1.61h0Z"/><path class="cls-2" d="M1961,1303.17l5.27-2.13h0a1.2,1.2,0,0,1,1.57.73,1.3,1.3,0,0,1-.7,1.65l-5.3,2.15a1.21,1.21,0,0,1-1.57-.73,1.3,1.3,0,0,1,.7-1.65h0Z"/><path class="cls-2" d="M1978.43,1295.73l5.16-2.43h0a1.19,1.19,0,0,1,1.59.64,1.29,1.29,0,0,1-.61,1.67l-5.2,2.45a1.18,1.18,0,0,1-1.59-.64,1.29,1.29,0,0,1,.61-1.67h0Z"/><path class="cls-2" d="M1995.46,1287.3l5-2.72h0a1.17,1.17,0,0,1,1.62.54,1.29,1.29,0,0,1-.51,1.7l-5.06,2.75a1.18,1.18,0,0,1-1.62-.55,1.3,1.3,0,0,1,.52-1.7h0Z"/><path class="cls-2" d="M2012,1277.87l4.85-3,0,0a1.17,1.17,0,0,1,1.64.44,1.3,1.3,0,0,1-.42,1.73l-4.89,3a1.16,1.16,0,0,1-1.64-.44,1.28,1.28,0,0,1,.42-1.72h0Z"/><path class="cls-2" d="M2028,1267.42l4.67-3.34h0a1.16,1.16,0,0,1,1.66.33,1.3,1.3,0,0,1-.31,1.74l-4.71,3.37a1.15,1.15,0,0,1-1.65-.33,1.3,1.3,0,0,1,.31-1.75h0Z"/><path class="cls-2" d="M2043.28,1255.93l4.45-3.65h0a1.15,1.15,0,0,1,1.67.21,1.3,1.3,0,0,1-.21,1.76l-4.49,3.68a1.15,1.15,0,0,1-1.67-.22,1.29,1.29,0,0,1,.21-1.75h0Z"/><path class="cls-2" d="M2057.84,1243.41l4.21-4,0,0a1.15,1.15,0,0,1,1.67.1,1.3,1.3,0,0,1-.1,1.76l-4.24,4a1.14,1.14,0,0,1-1.67-.1,1.29,1.29,0,0,1,.09-1.76h0Z"/><path class="cls-2" d="M2071.56,1229.89l3.94-4.24,0,0a1.14,1.14,0,0,1,1.67,0,1.31,1.31,0,0,1,0,1.76l-4,4.28a1.15,1.15,0,0,1-1.68,0,1.31,1.31,0,0,1,0-1.76h0Z"/><path class="cls-2" d="M2084.36,1215.42l3.64-4.52v0a1.14,1.14,0,0,1,1.66-.14,1.27,1.27,0,0,1,.14,1.74l-3.67,4.56a1.13,1.13,0,0,1-1.66.14,1.27,1.27,0,0,1-.14-1.74h0Z"/><path class="cls-2" d="M2096.15,1200l3.34-4.79,0,0a1.15,1.15,0,0,1,1.64-.26,1.28,1.28,0,0,1,.25,1.72l-3.37,4.83a1.14,1.14,0,0,1-1.64.26,1.26,1.26,0,0,1-.25-1.72h0Z"/><path class="cls-2" d="M2106.93,1183.83l3-5v0a1.14,1.14,0,0,1,1.61-.38,1.26,1.26,0,0,1,.36,1.7l-3.05,5.05a1.15,1.15,0,0,1-1.62.38,1.28,1.28,0,0,1-.36-1.7h0Z"/><path class="cls-2" d="M2116.65,1166.9l2.72-5.2v0a1.13,1.13,0,0,1,1.58-.49,1.26,1.26,0,0,1,.46,1.66l-2.73,5.25a1.14,1.14,0,0,1-1.58.49,1.26,1.26,0,0,1-.47-1.67h0Z"/><path class="cls-2" d="M2125.32,1149.35l2.39-5.38v0a1.15,1.15,0,0,1,1.55-.59,1.25,1.25,0,0,1,.56,1.62l-2.41,5.42a1.14,1.14,0,0,1-1.55.59,1.25,1.25,0,0,1-.56-1.62h0Z"/><path class="cls-2" d="M2132.92,1131.25l2.08-5.52v0a1.15,1.15,0,0,1,1.5-.69,1.25,1.25,0,0,1,.66,1.58l-2.09,5.56a1.14,1.14,0,0,1-1.5.69,1.24,1.24,0,0,1-.66-1.58h0Z"/><path class="cls-2" d="M2139.46,1112.7l1.75-5.64v0a1.15,1.15,0,0,1,1.46-.78,1.24,1.24,0,0,1,.74,1.53l-1.77,5.68a1.13,1.13,0,0,1-1.45.78,1.23,1.23,0,0,1-.74-1.53h0Z"/><path class="cls-2" d="M2144.92,1093.78l1.43-5.75v0a1.15,1.15,0,0,1,1.4-.86,1.22,1.22,0,0,1,.82,1.47l-1.44,5.79a1.14,1.14,0,0,1-1.4.86,1.21,1.21,0,0,1-.83-1.47h0Z"/><path class="cls-2" d="M2149.32,1074.53l1.11-5.82v0a1.15,1.15,0,0,1,1.35-1,1.21,1.21,0,0,1,.9,1.42l-1.12,5.87a1.15,1.15,0,0,1-1.35.94,1.2,1.2,0,0,1-.89-1.42h0Z"/><path class="cls-2" d="M2152.65,1055l.79-5.88v0a1.15,1.15,0,0,1,1.29-1,1.19,1.19,0,0,1,1,1.35l-.79,5.93a1.16,1.16,0,0,1-1.29,1,1.19,1.19,0,0,1-1-1.36h0Z"/><path class="cls-2" d="M2154.9,1035.39l.47-5.92v0a1.16,1.16,0,0,1,1.23-1.1,1.19,1.19,0,0,1,1,1.29l-.47,6a1.15,1.15,0,0,1-1.23,1.09,1.18,1.18,0,0,1-1-1.29h0Z"/><path class="cls-2" d="M2156.08,1015.63l.14-5.94v0a1.13,1.13,0,1,1,2.26.06l-.13,6a1.14,1.14,0,1,1-2.27-.06h0Z"/><path class="cls-2" d="M2156.17,995.84l-.18-5.93v0a1.16,1.16,0,0,1,1.1-1.22,1.15,1.15,0,0,1,1.16,1.15l.18,6a1.13,1.13,0,1,1-2.26.07h0Z"/><path class="cls-2" d="M2155.22,976.08l-.48-5.92v0a1.18,1.18,0,0,1,1-1.28,1.14,1.14,0,0,1,1.21,1.08l.49,5.95a1.18,1.18,0,0,1-1,1.29,1.14,1.14,0,0,1-1.21-1.08h0Z"/><path class="cls-2" d="M2153.27,956.39l-.77-5.88v0a1.18,1.18,0,0,1,1-1.33,1.14,1.14,0,0,1,1.27,1l.78,5.92a1.17,1.17,0,0,1-1,1.33,1.13,1.13,0,0,1-1.26-1h0Z"/><path class="cls-2" d="M2150.35,936.83l-1.06-5.83v0a1.18,1.18,0,0,1,.89-1.38,1.12,1.12,0,0,1,1.3.94l1.07,5.87a1.17,1.17,0,0,1-.89,1.37,1.11,1.11,0,0,1-1.3-.93h0Z"/><path class="cls-2" d="M2146.5,917.45l-1.34-5.77v0a1.17,1.17,0,0,1,.82-1.41,1.1,1.1,0,0,1,1.34.86l1.35,5.8a1.18,1.18,0,0,1-.82,1.42,1.12,1.12,0,0,1-1.35-.86h0Z"/><path class="cls-2" d="M2141.75,898.29l-1.6-5.7v0a1.16,1.16,0,0,1,.75-1.44,1.09,1.09,0,0,1,1.37.78l1.61,5.74a1.19,1.19,0,0,1-.75,1.45,1.11,1.11,0,0,1-1.38-.79h0Z"/><path class="cls-2" d="M2136.13,879.39l-1.84-5.62h0a1.18,1.18,0,0,1,.69-1.48,1.09,1.09,0,0,1,1.4.72l1.86,5.64a1.18,1.18,0,0,1-.68,1.48,1.09,1.09,0,0,1-1.41-.72h0Z"/><path class="cls-2" d="M2129.7,860.78l-2.09-5.52h0a1.18,1.18,0,0,1,.62-1.51,1.08,1.08,0,0,1,1.42.65l2.1,5.55a1.18,1.18,0,0,1-.61,1.51,1.09,1.09,0,0,1-1.43-.65h0Z"/><path class="cls-2" d="M2122.47,842.49l-2.32-5.42v0a1.17,1.17,0,0,1,.55-1.52,1.08,1.08,0,0,1,1.45.58l2.33,5.45a1.17,1.17,0,0,1-.55,1.52,1.07,1.07,0,0,1-1.45-.57h0Z"/><path class="cls-2" d="M2114.48,824.54l-2.54-5.31v0a1.18,1.18,0,0,1,.49-1.54,1.07,1.07,0,0,1,1.47.51l2.55,5.34a1.19,1.19,0,0,1-.48,1.55,1.08,1.08,0,0,1-1.47-.51h0Z"/><path class="cls-2" d="M2105.76,807l-2.75-5.19h0a1.19,1.19,0,0,1,.42-1.56,1.07,1.07,0,0,1,1.49.44l2.77,5.22a1.18,1.18,0,0,1-.43,1.56,1.06,1.06,0,0,1-1.48-.44h0Z"/><path class="cls-2" d="M2096.34,789.81l-3-5.07h0a1.17,1.17,0,0,1,.35-1.57,1.07,1.07,0,0,1,1.5.37l3,5.09a1.16,1.16,0,0,1-.36,1.57,1,1,0,0,1-1.49-.37h0Z"/><path class="cls-2" d="M2086.25,773.08l-3.16-4.93h0a1.16,1.16,0,0,1,.29-1.58,1.05,1.05,0,0,1,1.5.31l3.18,5a1.17,1.17,0,0,1-.29,1.58,1,1,0,0,1-1.5-.31h0Z"/><path class="cls-2" d="M2075.46,756.84l-3.36-4.77v0a1.16,1.16,0,0,1,.22-1.58,1.05,1.05,0,0,1,1.51.23l3.39,4.8a1.17,1.17,0,0,1-.23,1.58,1,1,0,0,1-1.51-.23h0Z"/><path class="cls-2" d="M2064,741.12l-3.57-4.61h0a1.18,1.18,0,0,1,.16-1.59,1,1,0,0,1,1.51.16l3.59,4.63a1.18,1.18,0,0,1-.16,1.59,1,1,0,0,1-1.51-.16h0Z"/><path class="cls-2" d="M2051.88,726l-3.76-4.44h0a1.16,1.16,0,0,1,.08-1.59,1,1,0,0,1,1.51.09l3.79,4.46a1.17,1.17,0,0,1-.09,1.59,1,1,0,0,1-1.51-.09h0Z"/><path class="cls-2" d="M2039.12,711.38l-3.95-4.25h0a1.16,1.16,0,0,1,0-1.58,1,1,0,0,1,1.5,0l4,4.27a1.16,1.16,0,0,1,0,1.58,1,1,0,0,1-1.51,0h0Z"/><path class="cls-2" d="M2025.74,697.44l-4.13-4.06h0a1.15,1.15,0,0,1,0-1.57,1,1,0,0,1,1.5-.06l4.15,4.08a1.14,1.14,0,0,1,0,1.57,1,1,0,0,1-1.5.06h0Z"/><path class="cls-2" d="M2011.76,684.16l-4.3-3.84h0a1.16,1.16,0,0,1-.12-1.57,1,1,0,0,1,1.49-.13l4.34,3.86a1.16,1.16,0,0,1,.12,1.57,1,1,0,0,1-1.49.13h0Z"/><path class="cls-2" d="M1997.2,671.6l-4.48-3.62h0a1.15,1.15,0,0,1-.19-1.56,1,1,0,0,1,1.48-.2l4.5,3.64a1.14,1.14,0,0,1,.19,1.55,1,1,0,0,1-1.47.21h0Z"/><path class="cls-2" d="M1982.08,659.8l-4.65-3.39h0a1.13,1.13,0,0,1-.26-1.53,1,1,0,0,1,1.46-.28l4.67,3.4a1.15,1.15,0,0,1,.26,1.54,1,1,0,0,1-1.46.28h0Z"/><path class="cls-2" d="M1966.41,648.81l-4.8-3.13h0a1.13,1.13,0,0,1-.34-1.51,1,1,0,0,1,1.44-.36l4.83,3.15a1.12,1.12,0,0,1,.34,1.51,1,1,0,0,1-1.44.36h0Z"/><path class="cls-2" d="M1950.22,638.7l-5-2.85h0a1.12,1.12,0,0,1-.41-1.49,1,1,0,0,1,1.41-.43l5,2.86a1.13,1.13,0,0,1,.41,1.49,1,1,0,0,1-1.42.44h0Z"/><path class="cls-2" d="M1933.53,629.52l-5.1-2.56h0a1.12,1.12,0,0,1-.48-1.46,1,1,0,0,1,1.38-.51l5.14,2.58a1.13,1.13,0,0,1,.49,1.46,1,1,0,0,1-1.39.51h0Z"/><path class="cls-2" d="M1916.38,621.34l-5.22-2.25h0a1.12,1.12,0,0,1-.57-1.42,1,1,0,0,1,1.35-.6l5.26,2.26a1.12,1.12,0,0,1,.57,1.42,1,1,0,0,1-1.35.6h0Z"/><path class="cls-2" d="M1898.82,614.23l-5.35-1.92h0a1.1,1.1,0,0,1-.64-1.38,1,1,0,0,1,1.31-.67l5.38,1.92a1.1,1.1,0,0,1,.64,1.38,1,1,0,0,1-1.31.68h0Z"/><path class="cls-2" d="M1880.87,608.25l-5.44-1.56h0a1.08,1.08,0,0,1-.72-1.32,1,1,0,0,1,1.26-.76l5.48,1.57a1.09,1.09,0,0,1,.72,1.33,1,1,0,0,1-1.26.76h0Z"/><path class="cls-2" d="M1862.61,603.46l-5.53-1.19h0a1.07,1.07,0,0,1-.79-1.27,1,1,0,0,1,1.2-.84l5.57,1.2a1.08,1.08,0,0,1,.8,1.27,1,1,0,0,1-1.21.84h0Z"/><path class="cls-2" d="M1844.1,599.93l-5.6-.81h0a1.07,1.07,0,0,1-.87-1.21,1,1,0,0,1,1.15-.91l5.63.81a1.06,1.06,0,0,1,.87,1.21,1,1,0,0,1-1.14.91h0Z"/><path class="cls-2" d="M1825.4,597.7l-5.64-.41h0a1,1,0,0,1-.94-1.14,1,1,0,0,1,1.08-1l5.68.41a1,1,0,0,1,.94,1.14,1,1,0,0,1-1.08,1h0Z"/><path class="cls-2" d="M1806.6,596.87l-5.64,0h0a1.07,1.07,0,0,1,0-2.13l5.69,0a1.07,1.07,0,0,1,0,2.13h0Z"/><path class="cls-2" d="M1787.81,597.57l-5.62.51h0a1,1,0,0,1-1.08-1A1,1,0,0,1,1782,596l5.67-.51a1.06,1.06,0,0,1,.17,2.11h0Z"/><path class="cls-2" d="M1769.12,599.78l-5.58.94h0a1,1,0,0,1-1.15-.88,1.05,1.05,0,0,1,.83-1.2l5.62-1a1,1,0,0,1,1.15.87,1,1,0,0,1-.83,1.21h0Z"/><path class="cls-2" d="M1750.63,603.42l-5.5,1.37h0a1,1,0,0,1-1.2-.78,1.05,1.05,0,0,1,.74-1.27l5.54-1.38a1,1,0,0,1,1.2.78,1.06,1.06,0,0,1-.74,1.27h0Z"/><path class="cls-2" d="M1732.43,608.46l-5.39,1.77h0a1,1,0,0,1-1.24-.68,1,1,0,0,1,.65-1.31l5.43-1.79a1,1,0,0,1,1.24.68,1,1,0,0,1-.65,1.31h0Z"/><path class="cls-2" d="M1714.62,614.84l-5.25,2.17h0a1,1,0,0,1-1.29-.59,1.06,1.06,0,0,1,.56-1.35l5.29-2.19a1,1,0,0,1,1.29.59,1.06,1.06,0,0,1-.56,1.35h0Z"/><path class="cls-2" d="M1697.28,622.52l-5.1,2.56h0a1,1,0,0,1-1.32-.49,1.06,1.06,0,0,1,.47-1.38l5.13-2.58a1,1,0,0,1,1.32.49,1.06,1.06,0,0,1-.47,1.38h0Z"/><path class="cls-2" d="M1680.5,631.48l-4.91,2.93h0a.94.94,0,0,1-1.33-.39,1.06,1.06,0,0,1,.36-1.41l5-3a1,1,0,0,1,1.34.39,1.07,1.07,0,0,1-.37,1.41h0Z"/><path class="cls-2" d="M1664.38,641.67l-4.7,3.3h0a1,1,0,0,1-1.36-.28,1.07,1.07,0,0,1,.27-1.43l4.73-3.32a1,1,0,0,1,1.36.28,1.06,1.06,0,0,1-.27,1.43h0Z"/><path class="cls-2" d="M1649,653.08l-4.45,3.66h0a1,1,0,0,1-1.37-.17,1.06,1.06,0,0,1,.17-1.44l4.48-3.69a1,1,0,0,1,1.37.18,1.07,1.07,0,0,1-.17,1.44h0Z"/><path class="cls-2" d="M1634.51,665.68l-4.17,4v0a1,1,0,0,1-1.38-.06,1.07,1.07,0,0,1,.07-1.45l4.19-4a.92.92,0,0,1,1.37.06,1,1,0,0,1-.06,1.44h0Z"/><path class="cls-2" d="M1621,679.43l-3.85,4.35,0,0a.93.93,0,0,1-1.36.05,1.05,1.05,0,0,1,0-1.44l3.88-4.39a.93.93,0,0,1,1.36,0,1,1,0,0,1,0,1.44h0Z"/><path class="cls-2" d="M1608.58,694.29,1605.1,699v0a.93.93,0,0,1-1.35.17,1,1,0,0,1-.17-1.42l3.51-4.71a.94.94,0,0,1,1.36-.17,1.05,1.05,0,0,1,.16,1.42h0Z"/><path class="cls-2" d="M1597.44,710.21l-3.08,5,0,0a.92.92,0,0,1-1.32.29,1,1,0,0,1-.28-1.39l3.1-5a.93.93,0,0,1,1.33-.29,1,1,0,0,1,.28,1.39h0Z"/><path class="cls-2" d="M1587.69,727.1l-2.63,5.25v0a.93.93,0,0,1-1.29.42,1,1,0,0,1-.4-1.35l2.65-5.3a.93.93,0,0,1,1.29-.42,1,1,0,0,1,.4,1.36h0Z"/><path class="cls-2" d="M1579.48,744.88l-2.14,5.48v0a.94.94,0,0,1-1.24.55,1,1,0,0,1-.52-1.31l2.16-5.54a.93.93,0,0,1,1.24-.54,1,1,0,0,1,.52,1.3h0Z"/><path class="cls-2" d="M1573,763.4l-1.62,5.68v0a1,1,0,0,1-1.18.67,1,1,0,0,1-.63-1.24l1.63-5.74a.94.94,0,0,1,1.18-.67,1,1,0,0,1,.63,1.24h0Z"/><path class="cls-4" d="M697.55,809.87c0,94.19-139.5,264.14-190.3,322.91a24.08,24.08,0,0,1-36.45,0C420,1074,280.5,904.06,280.5,809.87c0-115.17,93.36-208.53,208.53-208.53S697.55,694.7,697.55,809.87Z"/><path class="cls-5" d="M443.74,892.49a26.07,26.07,0,1,1,27.36-24.72A26.09,26.09,0,0,1,443.74,892.49Zm2.11-41.74a15.73,15.73,0,1,0,14.91,16.5A15.74,15.74,0,0,0,445.85,850.75Z"/><path class="cls-5" d="M447.87,810.9a55.68,55.68,0,0,1,52.74,58.36,51.73,51.73,0,0,1-.58,5.61,3.79,3.79,0,0,0,4.09,4.41l8.15-.79a3.82,3.82,0,0,0,3.39-3.35c.21-1.68.37-3.38.46-5.09a71.23,71.23,0,0,0-67.47-74.65,69.5,69.5,0,0,0-8.79.11,3.8,3.8,0,0,0-3.51,4.23l.94,7.93a3.75,3.75,0,0,0,4,3.31A55.24,55.24,0,0,1,447.87,810.9Z"/><path class="cls-5" d="M449.89,770.85a95.83,95.83,0,0,1,90.77,100.44v0a3.76,3.76,0,0,0,4.1,4l8-.79,3.47-3.62A111.16,111.16,0,0,0,435,755.68a3.76,3.76,0,0,0-3.35,4.21l.94,7.91a3.76,3.76,0,0,0,4,3.32A94.7,94.7,0,0,1,449.89,770.85Z"/><path class="cls-5" d="M451.91,730.8c72.86,3.68,129.54,64.43,128.94,136.7a3.8,3.8,0,0,0,4.15,3.85l7.93-.77a3.8,3.8,0,0,0,3.43-3.74c.25-80.19-62.75-147.46-143.66-151.55a150.87,150.87,0,0,0-22.45.57,3.79,3.79,0,0,0-3.35,4.22l.94,7.9a3.78,3.78,0,0,0,4.16,3.3A135.78,135.78,0,0,1,451.91,730.8Z"/><path class="cls-2" d="M404.93,913.48a6.55,6.55,0,0,1-3.91-1.66,6.63,6.63,0,0,1-.52-9.35l184-205.58a6.62,6.62,0,0,1,9.87,8.82l-184,205.59A6.6,6.6,0,0,1,404.93,913.48Z"/><polygon class="cls-6" points="228.28 1748.79 219.56 1783.76 286.09 1783.76 269.37 1748.79 228.28 1748.79"/><path class="cls-6" d="M286.09,1783.76c0,6.09-25.13-46.67-66.53,0v15.61c20.9,9.66,43.21,8.66,66.53,0Z"/><path class="cls-6" d="M286.09,1805.52s-37.12,4.4-66.53,0V1789.9s30.05,17.18,66.53,0Z"/><polygon class="cls-6" points="160.54 1748.79 169.27 1783.76 102.74 1783.76 119.46 1748.79 160.54 1748.79"/><path class="cls-6" d="M102.74,1783.76c0,6.09,25.12-46.67,66.53,0v15.61c-20.9,9.66-43.21,8.66-66.53,0Z"/><path class="cls-6" d="M102.74,1805.52s37.12,4.4,66.53,0V1789.9s-30.06,17.18-66.53,0Z"/><path class="cls-7" d="M195.42,1163.37v-.3l109.72-4.26c-14.21,207.09-20.28,402.84-30.31,596.77l-51.42,0c-.78-164.19-26.7-481.82-23.07-524.66-15.89,187.55-30.86,364.8-37.2,525l-48.06-.93c-8.62-256.28-13-451.68-19.9-595.57l100.25,4Z"/><path class="cls-8" d="M342.22,963.25c-.23.39,1.65,4.14,1.83,4.61,1.87,5.14,3.68,10.31,5.08,15.6,4.34,16.33,10.3,34.84,6,51.81-3.71,14.52-11.86,24.13-23.31,32.73-3.65,2.73-10.37,4.22-14.8,5-.33.06-4.8-.14-4.83-.22-.84-2.54-.37-5.59-.68-8.23-.88-7.32-4.33-18.26-1.47-25.32,2-5,11.47-17.71,11-22.54-.33-3.31-2.95-7.11-4-10.28-2.33-7.15-4.1-14.44-6.81-21.47-1-2.55-5.35-9-5-11.51.17-1.21,7.66-3.16,8.57-3.5,7.32-2.69,20-8.79,28.14-6.06l.29-.57Z"/><path class="cls-8" d="M65,963.25c.23.39-1.65,4.14-1.83,4.61-1.87,5.14-3.68,10.31-5.08,15.6-4.34,16.33-10.31,34.84-6,51.81C55.87,1049.79,64,1059.4,75.47,1068c3.65,2.73,10.37,4.22,14.8,5,.33.06,4.8-.14,4.83-.22.84-2.54.36-5.59.68-8.23.88-7.32,4.33-18.26,1.47-25.32-2-5-11.47-17.71-11-22.54.33-3.31,2.95-7.11,4-10.28,2.33-7.15,4.1-14.44,6.81-21.47,1-2.55,5.35-9,5-11.51-.17-1.21-7.66-3.16-8.57-3.5-7.32-2.69-20-8.79-28.14-6.06l-.29-.57Z"/><path class="cls-9" d="M308.05,850.57c2.44-2.2,52.35,64,63.07,96.66,1.08,5.82-58.92,35.55-67.8,29l4.73-125.65Z"/><path class="cls-9" d="M100.93,852.32c-2.44-2.2-52.31,62.06-63,94.72-2.7,7.24,50.46,32.41,60.8,25.82l2.23-120.54Z"/><path class="cls-10" d="M309.65,851.14c-33.89-16-76.72-26.41-110.46-26-33.52.42-64.81,11.55-98,26.48a4.78,4.78,0,0,0-2.82,4.3c-.46,33.26-4.54,328-4.54,328,59.2,20.87,177.76,10.49,211.34,6.07,4.43-.58,2.15-225.93,4.45-338.84Z"/><path class="cls-11" d="M224.61,806.6c0-5.42-3-2.21-6.88-6a20.08,20.08,0,0,0-14.5-5.8s0,0,0,0c-8.91.17-22.36-1.58-21,7.24,2.2,14.56.25,24-2.42,24.51-4.4.8,6.37,59.3,31.07,46.15,17.87-9.51,24.45-42.35,20.19-46.52-1.39-1.36-7.27-1.94-7.31-11.11Z"/><path class="cls-12" d="M137.63,713.84c-.28.84-.2-1.77-.31-2.65-.19-1.55-.38-3.1-.56-4.66a71.69,71.69,0,0,1-.34-17.07,49.92,49.92,0,0,1,24.91-37.54c32.68-18.63,91.52-13.21,102.72,29,3.13,11.79,3.22,28-.72,39.76-.36,1.1-4.13,1.31-4.89,1.38a157.65,157.65,0,0,1-16.25.74c-9.62-.12-19.19,1.83-28.75,2.66-12.48,1.08-25.06.92-37.58,1.31-2.61.08-5.24.15-7.86.06-2.22-.08-4.46-.25-6.67-.53-4.21-.54-22.73-4.18-22.73-11.83l-1-.59Z"/><path class="cls-13" d="M250.21,740.07c2.09-13.39,25.49-10.29,22.69,6.51-1.28,7.7-15.52,24-22.53,13.35-3.33-5.07-.46-14.43,1.36-19.62l-1.52-.24Z"/><path class="cls-13" d="M152.46,739.48c-2.1-13.38-25.49-10.28-22.7,6.51,1.29,7.7,15.53,24,22.54,13.36,3.32-5.07.46-14.43-1.36-19.62l1.52-.25Z"/><path class="cls-8" d="M142.8,709.52s3.23,62.27,17.78,81.21,38.47,32.19,46.75,30.25,35-22.08,41.93-34.82c6.06-11.17,13.05-64,12.53-75.67,0,0-64.14-51.84-119-1Z"/><path class="cls-14" d="M144,731.63c.37-.09.63-2.18.7-2.44a82,82,0,0,1,3.11-9.27,54.38,54.38,0,0,1,4.16-8.71c.29-.46,2-2.24,2-2.76s-3.71-.27-3.92-.25c-2.18.27-10.91,1.37-11.88,3.78-.64,1.62.46,4.69.89,6.23a72.85,72.85,0,0,0,5,13.38l0,0Z"/><path class="cls-14" d="M260.07,733.3c-.37-.11-.64-2.54-.71-2.85a106,106,0,0,0-3.16-10.78A67.81,67.81,0,0,0,252,709.52c-.29-.53-2-2.61-2-3.21s3.77-.32,4-.29c2.21.32,11.07,1.59,12,4.4.66,1.89-.46,5.47-.89,7.26a94.37,94.37,0,0,1-5,15.57l0,0Z"/><path class="cls-9" d="M138.17,712s6.82,6.92,15.66,7.64c2.61.22,5.48-1.12,7.88-2,4.51-1.6,9-3.3,13.56-4.71,13.11-4.05,26.84-5.94,40.51-4.23a86.34,86.34,0,0,1,19.53,4.8c5.28,2,10.5,6.57,16.41,6.24,5.67-.31,10.69-6.5,14.09-10.66C265.81,709.09,201.19,655.72,138.17,712Z"/><path class="cls-9" d="M209.82,874s13.58-.73,18.18,11.16c.44,1.13,20.84-56.76-2.94-64C227.29,837.77,223.52,855.64,209.82,874Z"/><path class="cls-9" d="M197.76,874s-13.58-.73-18.18,11.16c-.44,1.13-20.84-56.76,2.94-64C180.29,837.77,184.06,855.64,197.76,874Z"/><polygon class="cls-15" points="314.69 942.4 88.61 942.4 88.61 1107.87 314.69 1107.87 314.69 942.4 314.69 942.4"/><path class="cls-8" d="M326.1,1052a21.73,21.73,0,0,1,.31,3q.36,4.26.75,8.54c.67,7.29,1.18,14.62,1.18,22,0,21-18.42,39.52-36.51,27.53-5.43-3.6,15.13-16.61,17.82-18a5.29,5.29,0,0,0,1.08-.48c1-1.12.06-9,.21-10.91.13-1.68,1.31-9.72.22-10.92-2.15-2.37-6.48-1.64-7.36-6.11-1.42-7.24,16.35-16.68,21.1-16.68l1.2,2.06Z"/><path class="cls-8" d="M78.64,1052a22,22,0,0,0-.3,3c-.25,2.84-.49,5.69-.76,8.54-.67,7.29-1.18,14.62-1.18,22,0,21,18.43,39.52,36.51,27.53,5.43-3.6-15.13-16.61-17.82-18a5.29,5.29,0,0,1-1.08-.48c-1-1.12-.06-9-.21-10.91-.13-1.68-1.3-9.72-.21-10.92,2.14-2.37,6.47-1.64,7.35-6.11,1.42-7.24-16.35-16.68-21.1-16.68l-1.2,2.06Z"/><polygon class="cls-16" points="314.69 942.4 290.92 926.41 108.64 926.41 88.61 942.4 314.69 942.4"/><rect class="cls-17" x="189.59" y="943.34" width="25.44" height="65.37"/><rect class="cls-18" x="730.78" y="445.72" width="707.58" height="1342.6" rx="36.21"/><path class="cls-19" d="M1475.75,481.93V1752.11a36.32,36.32,0,0,1-36.21,36.21H804.38a36.32,36.32,0,0,1-36.21-36.21V481.93a36.32,36.32,0,0,1,36.21-36.22h635.16A36.32,36.32,0,0,1,1475.75,481.93Z"/><path class="cls-20" d="M1225.66,496.54H1041.72a7.18,7.18,0,0,1-7.16-7.16h0a7.18,7.18,0,0,1,7.16-7.16h183.94a7.18,7.18,0,0,1,7.15,7.16h0A7.18,7.18,0,0,1,1225.66,496.54Z"/><path class="cls-20" d="M1009.05,496.54h0a7.18,7.18,0,0,1-7.15-7.16h0a7.18,7.18,0,0,1,7.15-7.16h0a7.18,7.18,0,0,1,7.16,7.16h0A7.18,7.18,0,0,1,1009.05,496.54Z"/><path class="cls-21" d="M1176.88,1714.13a46.16,46.16,0,1,1-46.16-46.15A46,46,0,0,1,1176.88,1714.13Z"/><rect class="cls-21" x="810.54" y="528.42" width="627.46" height="1116.86"/><path class="cls-22" d="M1163.5,1746.62a46.15,46.15,0,1,1-57.52-71.45C1110.51,1694.82,1123.92,1727.69,1163.5,1746.62Z"/><path class="cls-23" d="M1429,662H845c-5,0-9,5.26-9,11.69V1047c0,6.42,4.06,11.68,9,11.68H1429c5,0,9-5.26,9-11.68V673.64C1438,667.21,1433.94,662,1429,662Z"/><path class="cls-23" d="M1211.12,1115.51H755.86c-3.87,0-7,5.26-7,11.69v373.34c0,6.42,3.16,11.68,7,11.68h455.26c3.87,0,7-5.26,7-11.68V1127.2C1218.16,1120.77,1215,1115.51,1211.12,1115.51Z"/><path class="cls-24" d="M1651,640v373.34a11.72,11.72,0,0,1-11.7,11.68h-756a11.71,11.71,0,0,1-11.67-11.68V640a11.71,11.71,0,0,1,11.67-11.69h756.05A11.72,11.72,0,0,1,1651,640Z"/><path class="cls-25" d="M1651,640v373.34c0,6.42-6.11,11.68-13.59,11.68H1261.24V628.32h376.12C1644.84,628.32,1651,633.58,1651,640Z"/><path class="cls-24" d="M1445.87,773.23H1312.81a8.49,8.49,0,0,1-8.47-8.47h0a8.49,8.49,0,0,1,8.47-8.47h133.06a8.5,8.5,0,0,1,8.48,8.47h0A8.5,8.5,0,0,1,1445.87,773.23Z"/><path class="cls-24" d="M1311.79,781.71H1413a7.45,7.45,0,0,1,7.45,7.45v2a7.45,7.45,0,0,1-7.45,7.45H1311.79a7.45,7.45,0,0,1-7.45-7.45v-2a7.46,7.46,0,0,1,7.46-7.46Z"/><path class="cls-24" d="M1314.56,678.29a15.52,15.52,0,0,1,24.94-.06c3.19,4.14,4.75,9.31,4.75,15.5s-1.56,11.36-4.75,15.51a15.57,15.57,0,0,1-24.94,0c-3.19-4.15-4.75-9.32-4.75-15.51S1311.37,682.43,1314.56,678.29Zm21.69,2.88q-3.6-5-9.19-5t-9.2,5a21.13,21.13,0,0,0-3.6,12.56,21.58,21.58,0,0,0,3.54,12.62,11,11,0,0,0,9.26,5,10.79,10.79,0,0,0,9.19-5q3.62-5,3.61-12.62A21.07,21.07,0,0,0,1336.25,681.17Z"/><path class="cls-24" d="M1378.56,677.21c2.83,3.42,4.27,8.29,4.27,14.48.24,13.1-6.85,23.92-18.27,23.8a15,15,0,0,1-8.89-2.59v-4.26a14.8,14.8,0,0,0,8.53,2.7c10,0,14.12-9.07,14.3-18-2.22,3.79-6.61,6.25-12.32,6.25a13.73,13.73,0,0,1-9.67-3.72,13,13,0,0,1-3.91-9.68,13.8,13.8,0,0,1,4.09-10.22,14.05,14.05,0,0,1,10.21-4C1371.83,672,1375.74,673.72,1378.56,677.21Zm-18.69,1.8a9.6,9.6,0,0,0-2.88,7.21,8.71,8.71,0,0,0,2.94,6.91,10.63,10.63,0,0,0,7.33,2.59,11.25,11.25,0,0,0,6.85-2.35,11.59,11.59,0,0,0,4.27-5.83c-.72-7.21-4.69-11.42-11.24-11.42A10.05,10.05,0,0,0,1359.87,679Z"/><path class="cls-24" d="M1391.72,687.42a3.15,3.15,0,1,1,0,4.45A3.2,3.2,0,0,1,1391.72,687.42Zm0,22.36a3.15,3.15,0,1,1,0,4.45A3.2,3.2,0,0,1,1391.72,709.78Z"/><path class="cls-24" d="M1412.51,714.77V677.51l-9.43,5.41v-4.27l9.92-5.95h3.9v42.07Z"/><path class="cls-24" d="M1432.22,678.29a15.52,15.52,0,0,1,24.94-.06c3.19,4.14,4.75,9.31,4.75,15.5s-1.56,11.36-4.75,15.51a15.57,15.57,0,0,1-24.94,0c-3.18-4.15-4.74-9.32-4.74-15.51S1429,682.43,1432.22,678.29Zm21.7,2.88q-3.6-5-9.2-5t-9.19,5a21.13,21.13,0,0,0-3.61,12.56,21.58,21.58,0,0,0,3.55,12.62,11,11,0,0,0,9.25,5,10.81,10.81,0,0,0,9.2-5,23.81,23.81,0,0,0,0-25.18Z"/><path class="cls-24" d="M1487.81,714.77V672.7h17.67c8.41,0,13.46,4.69,13.46,11.66,0,7.15-5,11.84-13.46,11.84h-13.22v18.57Zm4.45-22.6h12.92c6,0,9.37-2.82,9.37-7.69s-3.42-7.76-9.37-7.76h-12.92Z"/><path class="cls-24" d="M1527.78,714.77V672.7h4.38l15.21,20.37,15.2-20.37h4.33v42.07h-4.39V679.43l-13.76,18.39H1546l-13.88-18.39v35.34Z"/><path class="cls-26" d="M1095.92,1025H883.21a11.71,11.71,0,0,1-11.67-11.68V759.65C929.52,828.16,1043.06,962.47,1095.92,1025Z"/><path class="cls-25" d="M1065,677.47a77.06,77.06,0,0,0-77.06,77.06c0,42.57,77.06,137.19,77.06,137.19S1142,797.1,1142,754.53A77.06,77.06,0,0,0,1065,677.47Zm0,112.3a36,36,0,1,1,36-36A36,36,0,0,1,1065,789.77Z"/><path class="cls-27" d="M1058.47,955.69H925.41a8.5,8.5,0,0,1-8.48-8.48h0a8.5,8.5,0,0,1,8.48-8.47h133.06a8.49,8.49,0,0,1,8.47,8.47h0A8.5,8.5,0,0,1,1058.47,955.69Z"/><path class="cls-27" d="M924.39,964.16h101.21a7.45,7.45,0,0,1,7.45,7.45v2a7.46,7.46,0,0,1-7.46,7.46H924.39a7.46,7.46,0,0,1-7.46-7.46v-2a7.45,7.45,0,0,1,7.45-7.45Z"/><path class="cls-24" d="M1277.63,1098.53v373.34a11.72,11.72,0,0,1-11.69,11.69h-756a11.72,11.72,0,0,1-11.69-11.69V1098.53a11.71,11.71,0,0,1,11.69-11.67h756A11.72,11.72,0,0,1,1277.63,1098.53Z"/><path class="cls-25" d="M1277.63,1098.53v373.34a11.72,11.72,0,0,1-11.68,11.69H929.68v-396.7H1266A11.71,11.71,0,0,1,1277.63,1098.53Z"/><path class="cls-24" d="M1101.1,1366.06a18.87,18.87,0,0,1-16.27-9.33l-49.69-85a18.86,18.86,0,0,1,32.55-19l31.88,54.5,60-123.51a18.86,18.86,0,1,1,33.92,16.49l-75.45,155.24a18.87,18.87,0,0,1-16.24,10.6Z"/><path class="cls-24" d="M1101.11,1409.77a117,117,0,1,1,117.05-117A117.18,117.18,0,0,1,1101.11,1409.77Zm0-220.38a103.33,103.33,0,1,0,103.33,103.33A103.45,103.45,0,0,0,1101.11,1189.39Z"/><path class="cls-26" d="M719.66,1483.56H509.9a11.72,11.72,0,0,1-11.69-11.69V1183Z"/><path class="cls-25" d="M599.65,1151.61a41.93,41.93,0,1,0,41.92,41.93A41.92,41.92,0,0,0,599.65,1151.61Zm29,43.27h-29a1.34,1.34,0,0,1-1.34-1.34v-31.22a1.34,1.34,0,0,1,2.68,0v29.88h27.7a1.34,1.34,0,0,1,0,2.68Z"/><path class="cls-27" d="M815.36,1177.93H682.29a8.5,8.5,0,0,1-8.47-8.48h0a8.49,8.49,0,0,1,8.47-8.47H815.36a8.49,8.49,0,0,1,8.47,8.47h0A8.5,8.5,0,0,1,815.36,1177.93Z"/><path class="cls-27" d="M681.28,1186.4H782.48a7.45,7.45,0,0,1,7.45,7.45v2a7.46,7.46,0,0,1-7.46,7.46H681.28a7.46,7.46,0,0,1-7.46-7.46v-2a7.45,7.45,0,0,1,7.45-7.45Z"/><path class="cls-25" d="M595.46,1313.88a37.74,37.74,0,0,0-37.73,37.74c0,20.84,37.73,67.18,37.73,67.18s37.74-46.34,37.74-67.18A37.74,37.74,0,0,0,595.46,1313.88Zm0,55a17.64,17.64,0,1,1,17.64-17.63A17.63,17.63,0,0,1,595.46,1368.87Z"/><path class="cls-27" d="M805.24,1341.39H672.18a8.5,8.5,0,0,1-8.48-8.47h0a8.5,8.5,0,0,1,8.48-8.48H805.24a8.5,8.5,0,0,1,8.47,8.48h0A8.49,8.49,0,0,1,805.24,1341.39Z"/><path class="cls-27" d="M671.16,1349.86H772.36a7.45,7.45,0,0,1,7.45,7.45v2a7.46,7.46,0,0,1-7.46,7.46H671.16a7.45,7.45,0,0,1-7.45-7.45v-2A7.45,7.45,0,0,1,671.16,1349.86Z"/><rect class="cls-24" x="1344.25" y="926.81" width="232.27" height="63.71" rx="27.91"/><path class="cls-25" d="M1460,972.59a3.53,3.53,0,0,1-3-1.75L1447.69,955a3.52,3.52,0,0,1,6.08-3.55l6,10.17,11.2-23.05a3.52,3.52,0,1,1,6.32,3.08l-14.07,29a3.54,3.54,0,0,1-3,2Z"/><path class="cls-25" d="M1460,980.74a21.84,21.84,0,1,1,21.84-21.84A21.87,21.87,0,0,1,1460,980.74Zm0-41.12a19.28,19.28,0,1,0,19.28,19.28A19.3,19.3,0,0,0,1460,939.62Z"/><path class="cls-28" d="M1694.26,1122.72s-28,7.19-45.77,1.83-48.4,3.44-53.33,9.93-3.12,9.06,5.67,11.3,40,15.53,60.45,7.84,47.2-8,47.2-8Z"/><path class="cls-29" d="M1936.09,879.65s-31.43,223.41-83.48,243.42c-25.69,9.88-139.19,32.26-172.77,34.51,0,0-8.22-6.68-6.22-33.83,0,0,118.92-43.66,135.81-67.41,25.15-35.33-15.6-144.35,16-177.54S1910.06,831.35,1936.09,879.65Z"/><rect class="cls-30" x="1888.6" y="1385" width="43.47" height="380.44" rx="15.09"/><path class="cls-30" d="M2044.49,1790.45c-14.07-29.1-68.79-50.81-134.15-50.81s-120.09,21.71-134.15,50.81Z"/><path class="cls-30" d="M1812.17,1676.43h196.34a4,4,0,0,1,4,4v7.3a4,4,0,0,1-4,4H1812.17a4,4,0,0,1-4-4v-7.3A4,4,0,0,1,1812.17,1676.43Z"/><path class="cls-31" d="M1925.5,1350.33a392.23,392.23,0,0,1-30.71,43.94c-33.78,42.65-70.56,77.81-77,111a149.23,149.23,0,0,1-5.94,21.28c-2.67,7.61-6,15.62-9.8,23.9-14.33,31.14-35.77,66-57.18,97.75-37,54.83-71.8,100.59-71.8,100.59l-63.81-2.72c2.56-6.4,30.39-82.11,67.62-174.63,15.12-37.56,31.19-77.51,46.71-116,2.06-5.14,4.13-10.27,6.17-15.35,4.75-11.79,9.41-23.39,14-34.69l62.8-156.06s139.73-52.93,154.24-18.63C1972.77,1259,1963,1286.7,1925.5,1350.33Z"/><path class="cls-31" d="M1671.11,1737.23s-3.27,52.66-13.45,53.41c-1.36.11-51.67.11-51.67.11l-64.24-.38s.43-15.47,19.2-18.75,50.2-16.46,61.57-41.28C1634.49,1704.24,1671.11,1737.23,1671.11,1737.23Z"/><path class="cls-31" d="M1818.87,1586.8s44.39,28.52,40.08,37.78c-.57,1.24-25.1,45.17-25.1,45.17l-31.64,55.9s-13.31-7.91-7-25.9,10.09-51.86-6-73.89C1772.21,1602.69,1818.87,1586.8,1818.87,1586.8Z"/><path class="cls-32" d="M1756.37,1225.8s-172.94,107.68-192.52,181.09,233.31,230,233.31,230,27.73-24.47,32.63-42.41c0,0-114.31-137-139.1-167.65-15.23-18.85,225.16-65.27,254.52-110.95s18.86-84.11,18.86-84.11Z"/><rect class="cls-33" x="1717.81" y="1364.51" width="385.05" height="97.89" rx="13.93"/><path class="cls-28" d="M1839.92,841.36a99,99,0,0,0-26.72,24.21c42,10.87,111.67-28.07,111.67-28.07s-27-18.17-37.06-58.1c-.51-2-1-4.08-1.38-6.19a126.9,126.9,0,0,1-2.28-21.87l-19.3,17.29-32.09,28.76s.73,11.93,4.74,32.45C1838.2,833.42,1839,837.27,1839.92,841.36Z"/><path class="cls-34" d="M1969.36,1039.74c-6,80.94,1.9,204-4.93,225.37-5.89,18.4-73,7.46-99.82,1.32-9.92-2.27-21.94-5.52-34.35-9.36-34.61-10.71-72.32-26-76.37-37.38a10,10,0,0,1-.37-1.31,10.47,10.47,0,0,1,.07-4.76c1.35-5.79,6.55-12,7.16-26.39.69-16,.58-34.86,1.18-55.13,0-2.29.07-4.78.32-7v-.83l0-1.3c.58-22.6,1.76-46.37,3.13-69.94.87-14.81,1.88-29.47,3-43.52,3-36.26,7.09-68.5,12.47-88.89,8.8-33.23,28.2-54.9,45.86-70.79l12.77-10.95c14.26,3.11,31.1,1,46.35-6.18,16.49-7.83,22.19-13.44,25.06-11.33C1949.07,850.72,1976.47,940.78,1969.36,1039.74Z"/><path class="cls-29" d="M1830.26,1257.07c-34.61-10.71-72.32-26-76.37-37.38a10,10,0,0,1-.37-1.31c0-1.58,0-3.17.07-4.76,1.35-5.79,6.55-12,7.16-26.39.69-16,.58-34.86,1.18-55.13,0-2.29.07-4.78.32-7v-.83l0-1.3L1893,1063.63S1900.55,1169,1830.26,1257.07Z"/><path class="cls-35" d="M1887.13,776.56h0c-.25-1.1-.48-2.22-.7-3.35l-21.58-4.58-32.09,28.76s.44,7.15,2.5,19.9C1866.84,807.68,1882.58,788.07,1887.13,776.56Z"/><path class="cls-28" d="M1820.07,797.07s68.85,7.77,73-35.18S1909,691,1865.19,684.23,1811.26,693,1806.38,707,1802.27,793.94,1820.07,797.07Z"/><path class="cls-30" d="M1889.93,776.56c-10.4-4-8.77-26.95-16.08-44.79-6-14.62-20.78-27.79-48.09-29.84-43-3.23-19-41-14.42-46.89,0,0,32.89,4.51,66.61,10.08C1948.71,676.81,1896.88,767.68,1889.93,776.56Z"/><path class="cls-28" d="M1872,743.8c5.39-10.31,16.55-13.83,18.75-2.58s-7.92,21.74-11.72,19C1873.91,756.45,1872,743.8,1872,743.8Z"/><rect class="cls-29" x="1527.7" y="1017.81" width="6.34" height="165.94" transform="translate(-265.15 526.68) rotate(-17.99)"/><rect class="cls-29" x="1553.36" y="1168.39" width="174.13" height="10.42" transform="translate(-24.68 35.29) rotate(-1.22)"/><path class="cls-28" d="M1708.66,1157.07s-27,10.23-45.29,6.86-47.73,8.76-51.91,15.75-2.11,9.35,6.88,10.61,41.44,11,61,1.12,46-13.13,46-13.13Z"/><path class="cls-34" d="M1922.22,888.82s-6.61,225.51-56.14,251.14c-24.44,12.65-134.78,47.4-167.91,53.34,0,0-8.91-5.72-9.91-32.94,0,0,113.38-56.5,127.55-82,21.1-37.89-31.42-141.76-3.73-178.22S1891,843.68,1922.22,888.82Z"/></g></svg>