<svg xmlns="http://www.w3.org/2000/svg" xmlns:xlink="http://www.w3.org/1999/xlink" viewBox="0 0 2217.64 1826.04"><defs><style>.cls-1{isolation:isolate;}.cls-2{fill:#ebf2f9;}.cls-3{fill:url(#linear-gradient);}.cls-4{fill:url(#linear-gradient-2);}.cls-5{opacity:0.67;}.cls-6{fill:#91b3fa;}.cls-7{fill:url(#linear-gradient-3);}.cls-8{opacity:0.72;}.cls-9{opacity:0.3;}.cls-10,.cls-22{fill:#f99746;}.cls-10{stroke:#fff;stroke-miterlimit:10;}.cls-11{fill:#7d97f4;}.cls-12{fill:url(#linear-gradient-4);}.cls-13{fill:url(#linear-gradient-5);}.cls-14{fill:url(#linear-gradient-6);}.cls-15{fill:url(#linear-gradient-7);}.cls-16{fill:url(#linear-gradient-8);}.cls-17{fill:url(#linear-gradient-9);}.cls-18{fill:url(#linear-gradient-10);}.cls-19{fill:url(#linear-gradient-11);}.cls-20{fill:url(#linear-gradient-12);}.cls-21{fill:url(#linear-gradient-13);}.cls-23{fill:url(#linear-gradient-14);}.cls-24{fill:url(#linear-gradient-15);}.cls-25{fill:url(#linear-gradient-16);}.cls-26{fill:url(#linear-gradient-17);}.cls-27{fill:url(#linear-gradient-18);}.cls-28{fill:url(#linear-gradient-19);}.cls-29{fill:url(#linear-gradient-20);}.cls-30{fill:url(#linear-gradient-21);}.cls-31{fill:url(#linear-gradient-22);}.cls-32{fill:url(#linear-gradient-23);}.cls-33{fill:#fff;}.cls-34{fill:#2b478b;}.cls-35{fill:#dceaff;}.cls-36{fill:#ed7d2b;}.cls-37{fill:#233862;}.cls-38{fill:#afcdfb;}.cls-39,.cls-44{fill:#c78b5b;}.cls-40{fill:#e5be84;}.cls-41{fill:#ead1b7;}.cls-42{fill:#f7eee5;}.cls-43{fill:#444248;}.cls-44{opacity:0.32;mix-blend-mode:multiply;}</style><linearGradient id="linear-gradient" x1="1434.17" y1="957.33" x2="1456.64" y2="1838.31" gradientUnits="userSpaceOnUse"><stop offset="0" stop-color="#09005d"/><stop offset="1" stop-color="#1a0f91"/></linearGradient><linearGradient id="linear-gradient-2" x1="1954.37" y1="903.64" x2="-167.16" y2="2998.2" gradientUnits="userSpaceOnUse"><stop offset="0" stop-color="#4f52ff"/><stop offset="1" stop-color="#4042e2"/></linearGradient><linearGradient id="linear-gradient-3" x1="1489" y1="1151.49" x2="1443.61" y2="1644.68" gradientTransform="translate(2862.37 3559.39) rotate(-180)" xlink:href="#linear-gradient"/><linearGradient id="linear-gradient-4" x1="1108.31" y1="948.28" x2="1686.01" y2="948.28" gradientUnits="userSpaceOnUse"><stop offset="0" stop-color="#dae3fe"/><stop offset="1" stop-color="#e9effd"/></linearGradient><linearGradient id="linear-gradient-5" x1="1115.23" y1="1016.57" x2="1503.55" y2="1016.57" xlink:href="#linear-gradient-4"/><linearGradient id="linear-gradient-6" x1="1099.24" y1="1112.71" x2="1676.94" y2="1112.71" xlink:href="#linear-gradient-4"/><linearGradient id="linear-gradient-7" x1="1106.16" y1="1181" x2="1494.48" y2="1181" xlink:href="#linear-gradient-4"/><linearGradient id="linear-gradient-8" x1="1481.13" y1="1183.75" x2="1280.53" y2="1566.85" xlink:href="#linear-gradient"/><linearGradient id="linear-gradient-9" x1="1591.54" y1="1336.34" x2="1642.56" y2="1336.34" xlink:href="#linear-gradient"/><linearGradient id="linear-gradient-10" x1="7364.97" y1="1813.91" x2="7441.61" y2="1813.91" gradientTransform="matrix(-1, 0, 0, 1, 9236.29, 0)" xlink:href="#linear-gradient"/><linearGradient id="linear-gradient-11" x1="7372.05" y1="1777.92" x2="7393.64" y2="1777.92" gradientTransform="matrix(-1, 0, 0, 1, 9236.29, 0)" gradientUnits="userSpaceOnUse"><stop offset="0" stop-color="#febbba"/><stop offset="1" stop-color="#ff928e"/></linearGradient><linearGradient id="linear-gradient-12" x1="7234.82" y1="1759.93" x2="7260.62" y2="1759.93" xlink:href="#linear-gradient-11"/><linearGradient id="linear-gradient-13" x1="1948.92" y1="1470.23" x2="1843.33" y2="1783.96" xlink:href="#linear-gradient"/><linearGradient id="linear-gradient-14" x1="1879.97" y1="1450.83" x2="1819.16" y2="1583.17" xlink:href="#linear-gradient-2"/><linearGradient id="linear-gradient-15" x1="7454.86" y1="1198.31" x2="7454.07" y2="1333.37" xlink:href="#linear-gradient-11"/><linearGradient id="linear-gradient-16" x1="6729.01" y1="3291.72" x2="6662.53" y2="3379.67" gradientTransform="matrix(-0.99, -0.14, -0.14, 0.99, 8867.36, -1120.81)" xlink:href="#linear-gradient-11"/><linearGradient id="linear-gradient-17" x1="6678.23" y1="3312.94" x2="6757.65" y2="3312.94" gradientTransform="matrix(-0.99, -0.14, -0.14, 0.99, 8867.36, -1120.81)" xlink:href="#linear-gradient"/><linearGradient id="linear-gradient-18" x1="6631.64" y1="3361.37" x2="6684.96" y2="3306.66" gradientTransform="matrix(-0.99, -0.14, -0.14, 0.99, 8867.36, -1120.81)" xlink:href="#linear-gradient-11"/><linearGradient id="linear-gradient-19" x1="9036.03" y1="-1520.67" x2="8255.24" y2="-951.1" gradientTransform="matrix(-0.79, 0.61, 0.61, 0.79, 9500.12, -2879.42)" xlink:href="#linear-gradient"/><linearGradient id="linear-gradient-20" x1="9063.4" y1="-1393.93" x2="9166.24" y2="-1483.32" gradientTransform="matrix(-0.79, 0.61, 0.61, 0.79, 9500.12, -2879.42)" xlink:href="#linear-gradient"/><linearGradient id="linear-gradient-21" x1="9153.31" y1="-1525.13" x2="8772.53" y2="-1133.8" gradientTransform="matrix(-0.79, 0.61, 0.61, 0.79, 9500.12, -2879.42)" xlink:href="#linear-gradient-11"/><linearGradient id="linear-gradient-22" x1="7665.15" y1="-360.76" x2="7688.53" y2="-498.01" xlink:href="#linear-gradient-11"/><linearGradient id="linear-gradient-23" x1="7545.75" y1="1424.63" x2="7571.65" y2="1424.63" xlink:href="#linear-gradient-11"/></defs><title>Монтажная область 2 copy 11</title><g class="cls-1"><g id="Layer_9" data-name="Layer 9"><path class="cls-2" d="M1104.91,17.19C512.67,17.19,32.57,497.29,32.57,1089.53c0,275.08,103.59,526,273.88,715.78H1903.38c170.28-189.83,273.87-440.7,273.87-715.78C2177.25,497.29,1697.15,17.19,1104.91,17.19Z"/><path class="cls-3" d="M893.9,1736.43A19.6,19.6,0,0,0,913.45,1756H1970.36a19.6,19.6,0,0,0,19.54-19.53l8.79-607.38c0-10.74-12.65-31.7-35.84-30.13L929.92,1072.2a49.23,49.23,0,0,0-50.53,50.37Z"/><path class="cls-4" d="M913.2,1717.7a18.54,18.54,0,0,0,18.49,18.49H1944.87a18.54,18.54,0,0,0,18.49-18.49l8.3-551.38c-1-33.19-30.07-45.11-47.7-44.41l-990-26.56a34.62,34.62,0,0,0-35.52,35.43Z"/><g class="cls-5"><path class="cls-6" d="M1952.41,1455.75h0a2.71,2.71,0,0,1-2.67-2.75l.66-44.71a2.7,2.7,0,0,1,2.7-2.67h0a2.7,2.7,0,0,1,2.67,2.75l-.65,44.71A2.7,2.7,0,0,1,1952.41,1455.75Z"/><path class="cls-6" d="M1954,1346.17h0a2.71,2.71,0,0,1-2.67-2.75l2.51-171.26c0-10.17-3.13-18.3-9.18-24.09-11.28-10.8-29.19-10.25-29.94-10.22l-316.42-8.48a2.7,2.7,0,0,1-2.63-2.78,2.59,2.59,0,0,1,2.78-2.64l316.22,8.49c2-.12,21-.45,33.74,11.72,7.15,6.85,10.8,16.28,10.85,28l-2.51,171.32A2.7,2.7,0,0,1,1954,1346.17Z"/></g><rect class="cls-7" x="808.16" y="1753.01" width="1246.05" height="53.37" rx="5.65" transform="translate(2862.37 3559.39) rotate(180)"/><g class="cls-8"><g class="cls-9"><path class="cls-10" d="M1893.37,798a4.43,4.43,0,0,1-4.24-4.6c.2-4.75.19-9.57,0-14.34a4.41,4.41,0,0,1,4.13-4.61h.09a4.43,4.43,0,0,1,4.62,4.22c.22,5,.23,10.1,0,15.09a4.43,4.43,0,0,1-4.13,4.24Zm-6.89-42.07c-.86-4.7-1.92-9.4-3.17-14a4.42,4.42,0,1,1,8.54-2.32c1.31,4.82,2.43,9.76,3.34,14.7a4.43,4.43,0,0,1-3.56,5.15,4.6,4.6,0,0,1-.52.06A4.43,4.43,0,0,1,1886.48,755.88Zm-10.84-36c-1.88-4.37-4-8.72-6.21-12.91a4.42,4.42,0,1,1,7.8-4.18c2.36,4.42,4.57,9,6.54,13.6a4.42,4.42,0,0,1-2.32,5.81,4.51,4.51,0,0,1-1.46.35A4.44,4.44,0,0,1,1875.64,719.93ZM1857,687.31c-2.81-3.85-5.82-7.62-9-11.2a4.43,4.43,0,0,1,6.68-5.82c3.29,3.78,6.46,7.75,9.41,11.79a4.43,4.43,0,0,1-7.14,5.23Zm-25.41-27.66c-3.59-3.12-7.36-6.13-11.21-8.95a4.42,4.42,0,1,1,5.22-7.14c4,3,8,6.13,11.79,9.41a4.42,4.42,0,1,1-5.8,6.68Zm-30.91-21.35c-4.19-2.25-8.53-4.35-12.9-6.24a4.42,4.42,0,0,1,3.51-8.12c4.6,2,9.17,4.19,13.58,6.56a4.43,4.43,0,0,1-1.82,8.32A4.39,4.39,0,0,1,1800.71,638.3Zm-164.29-2.06a4.42,4.42,0,0,1,1.82-6c4.42-2.35,9-4.55,13.61-6.52a4.43,4.43,0,0,1,3.48,8.14c-4.38,1.87-8.73,4-12.93,6.19a4.17,4.17,0,0,1-1.8.51A4.41,4.41,0,0,1,1636.42,636.24Zm129.45-11.9c-4.58-1.26-9.28-2.34-14-3.2a4.43,4.43,0,0,1,1.61-8.71c4.93.91,9.87,2.05,14.7,3.38a4.42,4.42,0,0,1-.89,8.68A4.57,4.57,0,0,1,1765.87,624.34Zm-94-3.21a4.42,4.42,0,0,1,3.11-5.43c4.84-1.31,9.79-2.42,14.72-3.32a4.43,4.43,0,1,1,1.58,8.71c-4.69.85-9.4,1.91-14,3.15a4.5,4.5,0,0,1-.88.15A4.42,4.42,0,0,1,1671.9,621.13Zm56.89-2.61c-4.75-.2-9.57-.21-14.33,0a4.42,4.42,0,0,1-.47-8.83h.09c5-.21,10.09-.21,15.09,0a4.42,4.42,0,0,1,.1,8.83A3.85,3.85,0,0,1,1728.79,618.52Z"/><path class="cls-10" d="M1614.62,655.61a4.37,4.37,0,0,0,2.47-.94c1.79-1.42,3.63-2.83,5.49-4.18a4.43,4.43,0,0,0-5.22-7.15c-1.95,1.42-3.89,2.9-5.77,4.39a4.42,4.42,0,0,0,3,7.88Z"/></g><g class="cls-9"><path class="cls-10" d="M1550.12,774.09a4.42,4.42,0,0,0,4.12-4c.21-2.27.48-4.58.79-6.85a4.42,4.42,0,1,0-8.76-1.21c-.33,2.4-.61,4.82-.84,7.22a4.41,4.41,0,0,0,4,4.82A3.37,3.37,0,0,0,1550.12,774.09Z"/><path class="cls-10" d="M1723.69,963a4.43,4.43,0,1,1-.13-8.85c4.65-.07,9.37-.33,14.09-.79a4.43,4.43,0,0,1,.86,8.81c-2,.2-4.08.36-6.12.49C1729.49,962.83,1726.57,963,1723.69,963Zm33.28-8.08a4.41,4.41,0,0,1,3.28-5.32c4.57-1.08,9.13-2.37,13.58-3.83a4.43,4.43,0,0,1,2.76,8.41c-4.68,1.54-9.49,2.89-14.3,4a4.9,4.9,0,0,1-.74.11A4.43,4.43,0,0,1,1757,954.91Zm-57.36,6.77c-4.88-.6-9.81-1.42-14.64-2.44a4.42,4.42,0,1,1,1.82-8.66c4.59,1,9.27,1.75,13.9,2.32a4.43,4.43,0,0,1-.25,8.81A4.64,4.64,0,0,1,1699.61,961.68ZM1793,943.07a4.42,4.42,0,0,1,2-5.91c4.21-2.06,8.38-4.32,12.39-6.72A4.43,4.43,0,1,1,1812,938c-4.23,2.52-8.62,4.9-13,7.07a4.55,4.55,0,0,1-1.66.44A4.43,4.43,0,0,1,1793,943.07Zm-131.23,9.61c-4.63-1.66-9.26-3.55-13.75-5.6a4.43,4.43,0,0,1,3.68-8.05c4.27,2,8.66,3.74,13,5.32a4.42,4.42,0,0,1-1.21,8.58A4.32,4.32,0,0,1,1661.79,952.68Zm-34.94-17.09c-4.16-2.64-8.27-5.48-12.19-8.46a4.42,4.42,0,1,1,5.34-7c3.73,2.82,7.63,5.53,11.59,8a4.42,4.42,0,1,1-4.74,7.47Zm-30.38-24.29c-3.49-3.49-6.88-7.16-10.06-10.91a4.43,4.43,0,1,1,6.75-5.73c3,3.57,6.24,7.06,9.56,10.38a4.42,4.42,0,0,1,0,6.25,4.34,4.34,0,0,1-2.85,1.29A4.43,4.43,0,0,1,1596.47,911.3ZM1572.11,881c-2.64-4.17-5.14-8.49-7.43-12.86a4.43,4.43,0,0,1,7.85-4.1c2.16,4.15,4.54,8.26,7,12.21a4.43,4.43,0,0,1-1.36,6.11,4.38,4.38,0,0,1-2.09.68A4.43,4.43,0,0,1,1572.11,881ZM1555,846c-1.66-4.64-3.15-9.4-4.41-14.17a4.42,4.42,0,0,1,8.55-2.27c1.2,4.53,2.61,9.06,4.19,13.46a4.42,4.42,0,0,1-2.68,5.65,4.3,4.3,0,0,1-1.21.26A4.43,4.43,0,0,1,1555,846Zm-9-37.83c-.45-3.6-.8-7.26-1-10.88-.08-1.3-.15-2.61-.2-3.91a4.38,4.38,0,0,1,4.23-4.61,4.43,4.43,0,0,1,4.61,4.24c.05,1.24.12,2.48.19,3.72.22,3.44.55,6.92,1,10.34A4.44,4.44,0,0,1,1551,812l-.28,0A4.42,4.42,0,0,1,1546,808.16Z"/><path class="cls-10" d="M1829.4,925.16a4.39,4.39,0,0,0,2.49-1c1.87-1.5,3.74-3.06,5.56-4.66a4.42,4.42,0,1,0-5.81-6.67c-1.74,1.52-3.51,3-5.29,4.43a4.42,4.42,0,0,0,3.05,7.86Z"/></g><path class="cls-10" d="M1837.76,849.77a2.06,2.06,0,0,0,0-2.4l-14.58-20.52a109.53,109.53,0,0,0,8-34.6l22.12-12a2.06,2.06,0,0,0,1.06-2.15l-4.94-29.79a2.08,2.08,0,0,0-1.7-1.7l-24.8-4.2a109.41,109.41,0,0,0-18.79-30.14l7.17-24.13a2.06,2.06,0,0,0-.78-2.27L1786,668.32a2.06,2.06,0,0,0-2.4,0l-20.52,14.57a109.53,109.53,0,0,0-34.6-8l-12-22.12a2.06,2.06,0,0,0-2.15-1.05l-29.79,4.94a2.06,2.06,0,0,0-1.7,1.69l-4.2,24.8a109.71,109.71,0,0,0-30.14,18.79l-24.13-7.17a2.06,2.06,0,0,0-2.27.78l-17.57,24.55a2.07,2.07,0,0,0,0,2.4L1619.15,743a109.8,109.8,0,0,0-8.05,34.6l-22.12,12a2.06,2.06,0,0,0-1,2.16l4.94,29.78a2.06,2.06,0,0,0,1.69,1.7l24.8,4.2a109.85,109.85,0,0,0,18.79,30.15L1631,881.66a2.06,2.06,0,0,0,.78,2.27l24.55,17.57a2.07,2.07,0,0,0,2.4,0l20.52-14.58a109.53,109.53,0,0,0,34.6,8.05l12,22.12a2.07,2.07,0,0,0,2.16,1l29.78-4.94a2.06,2.06,0,0,0,1.7-1.69l4.2-24.8a109.62,109.62,0,0,0,30.15-18.79l24.12,7.17a2.06,2.06,0,0,0,2.27-.78Z"/><path class="cls-10" d="M1718.66,815.15a30.29,30.29,0,1,1,4.45.05A30.37,30.37,0,0,1,1718.66,815.15Zm-12.52-48a23.27,23.27,0,1,0,17-5.43,24.86,24.86,0,0,0-3.45,0A23.08,23.08,0,0,0,1706.14,767.15Z"/><path class="cls-10" d="M1725.27,859a76,76,0,0,0,7.62-.87h0c.8-.13,1.6-.28,2.39-.44a75.47,75.47,0,0,0,11.5-3.25l.15-.06.43-.16.84-.33a1.78,1.78,0,0,0,1.12-1.75,1.75,1.75,0,0,0-.12-.55,1.78,1.78,0,0,0-2.3-1,71.14,71.14,0,0,1-79.16-18.68,70.68,70.68,0,0,1-17.18-35.78,72,72,0,0,1-.83-7.26,71.08,71.08,0,0,1,141.07-16,69.62,69.62,0,0,1,.82,7.17,70.85,70.85,0,0,1-4.78,30.48,1.69,1.69,0,0,0-.12.76,1.77,1.77,0,0,0,3.41.54,74.43,74.43,0,0,0,5-32q-.24-3.78-.86-7.53a74.63,74.63,0,0,0-148.11,16.78c.17,2.54.46,5.09.88,7.63a74.63,74.63,0,0,0,78.2,62.28Z"/><g class="cls-9"><path class="cls-10" d="M2051.92,904.75a2.73,2.73,0,0,0,2.49-2.13c.51-2.26,1-4.57,1.33-6.86a2.73,2.73,0,1,0-5.39-.88c-.36,2.18-.79,4.38-1.27,6.54a2.73,2.73,0,0,0,2.06,3.27A2.57,2.57,0,0,0,2051.92,904.75Z"/><path class="cls-10" d="M2054.36,883.91a2.74,2.74,0,0,1-2.62-2.84,112.35,112.35,0,0,0-.15-11.46c-.05-.8-.11-1.61-.18-2.41a2.74,2.74,0,0,1,2.5-3,2.83,2.83,0,0,1,3,2.5c.07.84.14,1.68.19,2.52.25,4,.3,8,.15,12a2.73,2.73,0,0,1-2.55,2.63Zm-5-30.45a114.06,114.06,0,0,0-3.67-13.38,2.73,2.73,0,1,1,5.17-1.76,118,118,0,0,1,3.84,14,2.73,2.73,0,0,1-2.11,3.24,2.6,2.6,0,0,1-.39,0A2.72,2.72,0,0,1,2049.41,853.46Zm-9-26.21a113.12,113.12,0,0,0-6.85-12.07,2.73,2.73,0,1,1,4.58-3,117.73,117.73,0,0,1,7.18,12.66,2.73,2.73,0,1,1-4.91,2.39Zm-15.14-23.2a112.24,112.24,0,0,0-9.59-10,2.74,2.74,0,0,1,3.71-4,119,119,0,0,1,10.06,10.52,2.73,2.73,0,0,1-.33,3.85,2.68,2.68,0,0,1-1.58.64A2.73,2.73,0,0,1,2025.3,804.05ZM2005,785.24a113.52,113.52,0,0,0-11.74-7.4,2.73,2.73,0,1,1,2.63-4.79,118.79,118.79,0,0,1,12.3,7.75,2.73,2.73,0,1,1-3.19,4.44Zm-24.29-13.3a113.18,113.18,0,0,0-13.17-4.31,2.73,2.73,0,0,1,1.37-5.29,116.77,116.77,0,0,1,13.82,4.52,2.73,2.73,0,0,1-.84,5.27A2.87,2.87,0,0,1,1980.67,771.94Zm-26.79-7a110.18,110.18,0,0,0-13.84-.94,2.74,2.74,0,0,1,0-5.47,117,117,0,0,1,14.51,1,2.73,2.73,0,0,1-.17,5.43A3.13,3.13,0,0,1,1953.88,765Zm-44.66.28a2.74,2.74,0,0,1,2-3.31,120.26,120.26,0,0,1,12.42-2.33l1.91-.24a2.73,2.73,0,1,1,.62,5.43c-.59.07-1.19.14-1.79.23a113.75,113.75,0,0,0-11.86,2.22,2.67,2.67,0,0,1-.48.08A2.73,2.73,0,0,1,1909.22,765.27Z"/></g><g class="cls-9"><path class="cls-10" d="M1945.08,994.52a119.84,119.84,0,0,1-14.31-.14,2.74,2.74,0,0,1,.39-5.46,112.86,112.86,0,0,0,13.64.14,2.73,2.73,0,0,1,.32,5.46Zm11.07-3.81a2.73,2.73,0,0,1,2.23-3.16,113.94,113.94,0,0,0,13.29-3.12,2.74,2.74,0,0,1,1.57,5.24,120.86,120.86,0,0,1-13.93,3.27l-.3,0A2.73,2.73,0,0,1,1956.15,990.71Zm-39.57,1.78a116.81,116.81,0,0,1-13.85-3.59,2.73,2.73,0,0,1,1.69-5.2,114.87,114.87,0,0,0,13.21,3.43,2.73,2.73,0,0,1-.35,5.41A2.79,2.79,0,0,1,1916.58,992.49Zm66.5-9.16a2.73,2.73,0,0,1,1.41-3.6,112.93,112.93,0,0,0,12.14-6.23,2.73,2.73,0,1,1,2.79,4.7,116.78,116.78,0,0,1-12.74,6.54,2.75,2.75,0,0,1-3.6-1.41Zm-93.65.31a118.4,118.4,0,0,1-12.58-6.82,2.73,2.73,0,0,1,2.89-4.64,113.91,113.91,0,0,0,12,6.51,2.73,2.73,0,0,1-1,5.2A2.68,2.68,0,0,1,1889.43,983.64Zm-24.24-15.1a120.94,120.94,0,0,1-10.59-9.64,2.73,2.73,0,0,1,3.92-3.81,114.32,114.32,0,0,0,10.1,9.19,2.73,2.73,0,1,1-3.43,4.26Zm-19.93-20.48a119.22,119.22,0,0,1-8-11.9,2.73,2.73,0,0,1,4.72-2.76,111.54,111.54,0,0,0,7.6,11.34,2.74,2.74,0,0,1-.52,3.83,2.79,2.79,0,0,1-1.48.56A2.75,2.75,0,0,1,1845.26,948.06Z"/><path class="cls-10" d="M2009.87,970.64a2.67,2.67,0,0,0,1.5-.56c1.85-1.43,3.67-2.92,5.4-4.43a2.74,2.74,0,0,0-3.59-4.13c-1.66,1.45-3.39,2.87-5.15,4.24a2.73,2.73,0,0,0,1.84,4.88Z"/></g><path class="cls-10" d="M2017.13,919.13a1.4,1.4,0,0,0,0-1.61l-9.76-13.73a73.28,73.28,0,0,0,5.39-23.15l14.8-8a1.38,1.38,0,0,0,.71-1.44L2025,851.25a1.37,1.37,0,0,0-1.13-1.14l-16.6-2.81a73.17,73.17,0,0,0-12.57-20.17l4.8-16.15a1.39,1.39,0,0,0-.52-1.52l-16.43-11.75a1.38,1.38,0,0,0-1.61,0l-13.73,9.76a73.21,73.21,0,0,0-23.15-5.39l-8-14.8a1.39,1.39,0,0,0-1.44-.71l-19.93,3.31a1.39,1.39,0,0,0-1.14,1.13l-2.81,16.6a73.55,73.55,0,0,0-20.17,12.57l-16.14-4.8a1.38,1.38,0,0,0-1.52.52l-11.76,16.43a1.4,1.4,0,0,0,0,1.61l9.75,13.73a73.76,73.76,0,0,0-5.39,23.15l-14.8,8a1.37,1.37,0,0,0-.7,1.44l3.3,19.93a1.4,1.4,0,0,0,1.14,1.14l16.59,2.81a73.2,73.2,0,0,0,12.58,20.17l-4.8,16.15a1.39,1.39,0,0,0,.52,1.52l16.43,11.75a1.37,1.37,0,0,0,1.6,0L1911,944a73.34,73.34,0,0,0,23.16,5.39l8,14.8a1.38,1.38,0,0,0,1.45.7l19.93-3.3a1.37,1.37,0,0,0,1.13-1.13l2.81-16.6a73.46,73.46,0,0,0,20.18-12.57l16.14,4.8a1.39,1.39,0,0,0,1.52-.52Z"/><path class="cls-10" d="M1937.4,896.32A20.66,20.66,0,0,1,1918.51,874a20.67,20.67,0,1,1,34,17.49,20.48,20.48,0,0,1-12,4.85A19.56,19.56,0,0,1,1937.4,896.32ZM1924,874.46a15.21,15.21,0,0,0,13.9,16.42h0a15.21,15.21,0,1,0-13.9-16.42Z"/><path class="cls-10" d="M1942,926.83a52.43,52.43,0,0,0,15.33-3.35l.43-.17a2.74,2.74,0,0,0,1.73-2.71,2.83,2.83,0,0,0-.19-.84,2.74,2.74,0,0,0-3.55-1.53,45.87,45.87,0,0,1-9.44,2.61h0l-.53.08a45.56,45.56,0,0,1-22.44-2.1,46.25,46.25,0,0,1-11-5.71l-.08-.06-.25-.18a45.69,45.69,0,0,1-18.62-29.9,44.21,44.21,0,0,1-.54-4.7,46,46,0,0,1,91.33-10.35c.25,1.54.43,3.09.53,4.64a46,46,0,0,1-3.1,19.73,2.87,2.87,0,0,0-.19,1.18,2.73,2.73,0,0,0,5.27.83,51.26,51.26,0,0,0,3.47-22.08,50.25,50.25,0,0,0-.59-5.19,51.49,51.49,0,0,0-102.18,11.58,52.61,52.61,0,0,0,.6,5.26A51.56,51.56,0,0,0,1942,926.83Z"/></g><path class="cls-6" d="M1683.52,755.23l-667.92-4.09a38.23,38.23,0,0,0-38.42,40.13L1021.91,1715a26.47,26.47,0,0,0,26.45,25.19h692.72a26.59,26.59,0,0,0,26.56-25.29l40-822.55Z"/><path class="cls-11" d="M1711.29,888.32a38.23,38.23,0,0,1-36.76-41.23l7.16-90.61L1807.8,891.82Z"/><path class="cls-12" d="M1128.47,926c92.56,2.6,447.92,12.2,537.65,14.62,11.32.3,20.31,7.57,19.88,16h0c-.42,8.06-9.27,14.24-20,14l-537.4-12.66c-10.35-.24-19-6.36-19.92-14.1l-.24-2C1107.32,933,1116.63,925.64,1128.47,926Z"/><path class="cls-13" d="M1117.83,1019.8h0a9.44,9.44,0,0,0,7.33,3.49L1494,1036.23c4.64.17,8.48-2.47,8.66-5.94l.94-18.18c.18-3.61-3.68-6.71-8.51-6.82l-358.72-8.38C1120.34,996.54,1110.18,1009.12,1117.83,1019.8Z"/><path class="cls-14" d="M1119.4,1090.4c92.57,2.6,447.92,12.2,537.65,14.62,11.32.3,20.31,7.57,19.88,16h0c-.41,8.06-9.27,14.24-20,14l-537.41-12.66c-10.35-.24-19-6.35-19.92-14.1l-.24-2C1098.25,1097.45,1107.56,1090.07,1119.4,1090.4Z"/><path class="cls-15" d="M1108.76,1184.23h0a9.46,9.46,0,0,0,7.34,3.49l368.79,12.94c4.63.17,8.48-2.47,8.65-5.94l.94-18.18c.18-3.61-3.68-6.71-8.51-6.82l-358.72-8.38C1111.27,1161,1101.11,1173.55,1108.76,1184.23Z"/><path class="cls-16" d="M1153,1483.3c3.15-40.2,16.77-79.61,38.18-114.18a266.08,266.08,0,0,1,37.86-47.85c3.72-3.51,7.34-7.12,11.14-10.53s7.73-6.7,11.73-9.89,8.14-6.21,12.34-9.13l6.42-4.24,3.21-2.11,1.61-1c.58-.37,1.36-.83,2.06-1.2,11.27-6.23,27.45-6.52,38.38,4.46a29,29,0,0,1,5.9,8.92,34.32,34.32,0,0,1,1.6,4.7,40.07,40.07,0,0,1,1,4.61,65.45,65.45,0,0,1,.12,17.22c-.29,2.73-.73,5.41-1.21,8l-1.47,7.37c-.94,4.92-2,9.81-3.11,14.7-2.16,9.79-4.61,19.51-7.18,29.19A676.89,676.89,0,0,1,1270.08,1495l-6.56,13.52c-2.3,4.45-4.54,8.93-6.88,13.35l-3.56,6.62-1.77,3.3-2,3.46a101.3,101.3,0,0,1-9.26,13.29,62.27,62.27,0,0,1-12.54,11.7,35.42,35.42,0,0,1-18.1,6.45,23.8,23.8,0,0,1-5.13-.19,27.42,27.42,0,0,1-5-1,29.11,29.11,0,0,1-9.09-4.39,35,35,0,0,1-11.87-15.07,47,47,0,0,1-3.42-17.52,70.42,70.42,0,0,1,2-16.57,144.57,144.57,0,0,1,4.4-14.93l2.46-7.24,2.78-7.12a272.69,272.69,0,0,1,68.62-99.49l2.79-2.6,2.9-2.46,5.81-4.91c2-1.58,4-3.1,6-4.66s4-3.13,6.1-4.54c4.15-2.91,8.26-5.87,12.6-8.49l3.21-2,1.61-1c.29-.17.49-.32.84-.52l1.06-.59a25.73,25.73,0,0,1,9.22-2.85,23.42,23.42,0,0,1,18.36,5.72,19,19,0,0,1,5.58,8.87,24.47,24.47,0,0,1,.67,9.5,52.83,52.83,0,0,1-1.6,8.12l-2,7.21-4,14.28c-5.3,19-10.82,38-16.22,57.07l0,0-8.35-1.49a43.76,43.76,0,0,1,5.88-18.67,30.76,30.76,0,0,1,6.76-7.77,26.58,26.58,0,0,1,9.35-4.84,24.63,24.63,0,0,1,10.66-.7,20.38,20.38,0,0,1,5.32,1.61,19.9,19.9,0,0,1,2.49,1.34l1.68,1.06a15.23,15.23,0,0,0,13.38.88,14,14,0,0,0,3-1.69,17.09,17.09,0,0,0,1.3-1.12l.63-.62.76-.81L1367,1420l12.17-13,12.17-13,6.08-6.49a11.76,11.76,0,0,1,6-3.44,11.24,11.24,0,0,1,7,.79,11.66,11.66,0,0,1,5.18,4.56,11,11,0,0,1,1.51,6.92,7.84,7.84,0,0,1-.31,1.71c-.14.52-.34,1.2-.44,1.44l-.73,2-1.38,4.13c-1.78,5.51-3.29,11.12-4.56,16.78s-2.24,11.38-3,17.13c-.08.71-.18,1.46-.24,2.13l0,1.76a6.16,6.16,0,0,0,.11,1.72,9.71,9.71,0,0,0,.27,1.7,14.26,14.26,0,0,0,3.14,6,14.57,14.57,0,0,0,5.61,4,17,17,0,0,0,3.33,1,16.55,16.55,0,0,0,3.44.14,13.42,13.42,0,0,0,6.46-2.06l.75-.43.67-.56,1.38-1.12,3.14-3.08q12.55-12.33,24-25.75a396,396,0,0,0,40.52-57.46l4.31-7.68,2.08-3.87,1-1.94.26-.48c0-.06,0,0,0,0s0,0,0,.09c0,.33.13.39.09.36a.34.34,0,0,0,.2,0c.12,0,.3-.06.3-.09h0l-.37.38-.75.76c-.51.5-1,1-1.48,1.54-1,1-1.92,2.1-2.86,3.17a106.44,106.44,0,0,0-10.08,13.8q-2.23,3.65-4.19,7.46c-.64,1.28-1.27,2.56-1.86,3.85l-.88,2-.43,1-.28.88a18,18,0,0,0,.38,14,18.9,18.9,0,0,0,10.34,9.66,18.55,18.55,0,0,0,7,1.25,19,19,0,0,0,7-1.74l1.67-.76,1.88-1.1c1.26-.74,2.53-1.44,3.76-2.22,2.49-1.5,5-3.07,7.38-4.66a221.2,221.2,0,0,0,51.29-47h0a4.26,4.26,0,0,1,6.67,5.29,230,230,0,0,1-53.28,48.77q-3.78,2.49-7.66,4.84c-1.28.81-2.6,1.54-3.9,2.31l-2,1.14-2.36,1.11a27.46,27.46,0,0,1-10.18,2.49,27.34,27.34,0,0,1-25.37-15.85,26.57,26.57,0,0,1-.63-20.57l.42-1.23.46-1.06,1-2.1q1-2.1,2-4.16,2.1-4.11,4.51-8.05a114.33,114.33,0,0,1,10.9-14.91c1-1.16,2-2.32,3.09-3.43.53-.57,1.06-1.13,1.6-1.67l.82-.83.4-.41c.26-.24.55-.48.84-.71a7.83,7.83,0,0,1,4.39-1.65,8.36,8.36,0,0,1,4.45,1,8.2,8.2,0,0,1,4.22,7.7,7.85,7.85,0,0,1-.51,2.26c-.13.33-.29.7-.43,1l-.26.49-1.07,2-2.12,4-4.41,7.84a403.3,403.3,0,0,1-41.41,58.72q-11.64,13.7-24.5,26.31l-3.22,3.15-2,1.71-1,.84-1.18.69a21.84,21.84,0,0,1-10.3,3.28,25.29,25.29,0,0,1-5.43-.23,25.84,25.84,0,0,1-5.17-1.54,23,23,0,0,1-8.74-6.22,22.62,22.62,0,0,1-5-9.61,16.25,16.25,0,0,1-.45-2.69,13,13,0,0,1-.18-2.7l.1-2.69.27-2.28c.74-6,1.78-12,3.09-17.93s2.9-11.78,4.77-17.55l1.45-4.31.76-2.14a6,6,0,0,0,.2-.69,1.18,1.18,0,0,0,.09-.47,2.44,2.44,0,0,0-.33-1.61,3.19,3.19,0,0,0-1.41-1.22,2.72,2.72,0,0,0-3.27.72l-6.08,6.49-12.17,13-12.17,13-6.09,6.49-.76.81-.95.94a22,22,0,0,1-2.08,1.78,22.72,22.72,0,0,1-4.73,2.73,23.77,23.77,0,0,1-20.9-1.31l-2.09-1.3a9.79,9.79,0,0,0-1.43-.76,11.47,11.47,0,0,0-3.16-1,16.16,16.16,0,0,0-7,.47,19.36,19.36,0,0,0-11.2,8.89,35.29,35.29,0,0,0-4.65,15l-8.35-1.49v0c4.78-19.19,9.46-38.4,14.34-57.57l3.64-14.38,1.79-7.12a42.18,42.18,0,0,0,1.11-6.45,13.37,13.37,0,0,0-.43-5.19,7.38,7.38,0,0,0-2.33-3.43,11.62,11.62,0,0,0-9.21-2.49A13.45,13.45,0,0,0,1304,1362l-.55.33-.72.47-1.5,1-3,2c-4.06,2.6-7.9,5.53-11.78,8.39-2,1.39-3.8,3-5.67,4.48s-3.76,3-5.6,4.57l-5.39,4.81-2.7,2.4-2.61,2.51a256.39,256.39,0,0,0-37.11,44.09,252.37,252.37,0,0,0-26.36,51.11l-2.51,6.74-2.2,6.84a128.3,128.3,0,0,0-3.78,13.57c-2,8.83-2,17.31,1,24.21a18.51,18.51,0,0,0,6.32,7.87,12.38,12.38,0,0,0,4.23,1.94,13.11,13.11,0,0,0,4.54.48,18.72,18.72,0,0,0,9.38-3.62,45.77,45.77,0,0,0,9-8.6,83.55,83.55,0,0,0,7.57-11.09l1.68-3,1.7-3.24,3.41-6.47c2.25-4.33,4.4-8.72,6.6-13.07l6.28-13.22A689.72,689.72,0,0,0,1294,1377.6c2.48-9.43,4.84-18.9,6.91-28.43,1-4.77,2.09-9.53,3-14.32l1.41-7.18c.4-2.25.76-4.45,1-6.64a47.17,47.17,0,0,0,0-12.36c-.62-3.7-1.82-6.68-3.53-8.34a9.53,9.53,0,0,0-3.09-2.17,14,14,0,0,0-4.28-1.08,16.8,16.8,0,0,0-9.27,2c-.39.21-.67.37-1.14.66l-1.5,1-3,1.94-6,3.89c-3.94,2.68-7.69,5.64-11.58,8.39s-7.41,6-11.13,9-7.07,6.44-10.61,9.64a273.8,273.8,0,0,0-79.71,150.74,4.26,4.26,0,0,1-8.45-1Z"/><path class="cls-17" d="M1595.8,1353.91a4.26,4.26,0,0,1-2.27-7.86l42.52-26.64a4.26,4.26,0,1,1,4.52,7.22l-42.52,26.63A4.22,4.22,0,0,1,1595.8,1353.91Z"/><path class="cls-18" d="M1796.85,1810.21c13.13,1.13,35.91,3,53.87,3.77,10.8.47,17-.59,20.6-2,0,.4,0,.78,0,1.14a3.71,3.71,0,0,1-3.53,3.51,633.28,633.28,0,0,1-70.54.07,2.64,2.64,0,0,1-2.15-4A21,21,0,0,1,1796.85,1810.21Z"/><path d="M1850.72,1814c-18-.8-40.74-2.64-53.87-3.77,12.91-15.84,53.87-26.51,53.87-26.51h11.57a48.57,48.57,0,0,1,9,28.26C1867.74,1813.39,1861.52,1814.45,1850.72,1814Z"/><path class="cls-19" d="M1864.24,1764.81l-1.08,21.42a4.91,4.91,0,0,1-4.18,4.61,19.07,19.07,0,0,1-8.69-.72,5.8,5.8,0,0,1-3.89-4.45l-3.74-20.86Z"/><path d="M2014.53,1813.81c5.69-.79,8.27-3.75,9.35-6.91l0,.09c.84,3.33-1.1,6.79-5,8.43a32.48,32.48,0,0,1-13.81,2.16c-4.27-.17-8.2-1.94-10.35-4.77l0,0C1999,1814.89,2005,1815.14,2014.53,1813.81Z"/><path d="M1987.69,1764.67h9.54c14.54-.3,23.66,30.36,26.65,42.23-1.08,3.16-3.66,6.12-9.35,6.91-9.49,1.33-15.51,1.08-19.8-1-7.86-10.34-11.75-25.47-13.62-34.3A12,12,0,0,1,1987.69,1764.67Z"/><path class="cls-20" d="M1996,1744.78l5.3,21.08a5.72,5.72,0,0,1-3,6.48c-3,1.52-7.14,3.12-11,2.66a4.77,4.77,0,0,1-3.89-3.19l-7.78-22.17Z"/><path class="cls-21" d="M2002.32,1750.87c-6.59,5.85-28,6.62-28,6.62-77.24-185.38-108.84-211.71-108.84-211.71,11.16,70,1.8,224.88,1.8,224.88-12.74,5.62-29.18,0-29.18,0a1193.82,1193.82,0,0,0-39.44-293.22c52.21-1.17,80-19,89-26.21C1931.18,1521.39,2002.32,1750.87,2002.32,1750.87Z"/><path class="cls-22" d="M1874.4,1238c9.89,49.29,6.34,137.51,4,177.74-.66,11.31,7.24,27,13.62,37.69a3.36,3.36,0,0,1-1.35,4.72c-10.69,5.49-46.88,22.51-88.83,24.62a6,6,0,0,1-6-4.47c-31.11-116.18-67.26-190.42-67.26-190.42C1768.49,1224.2,1874.4,1238,1874.4,1238Z"/><path class="cls-23" d="M1860.18,1541.39a2.44,2.44,0,0,0,1.29-.37,2.48,2.48,0,0,0,.83-3.39,77.64,77.64,0,0,0-30.63-26.59,2.48,2.48,0,0,0-2.15,4.46,73.93,73.93,0,0,1,28.55,24.7A2.49,2.49,0,0,0,1860.18,1541.39Z"/><path class="cls-22" d="M1936.38,1379.5c-3.17,23-12.55,48-31.31,74.61l-7.13-5.82s8.23-33.4,3.55-71.3C1913.07,1374.73,1926.73,1377.06,1936.38,1379.5Z"/><path class="cls-22" d="M1863.37,1298.86l11-60.82s73.75,56.37,62,141.46c-9.65-2.44-23.31-4.77-34.89-2.51C1898.12,1349.68,1888.05,1320,1863.37,1298.86Z"/><path class="cls-22" d="M1727.43,1288.41l42.61,52.46c4.6,37-10.75,57.39-30,68.59a129.86,129.86,0,0,0-19-36.36C1740.59,1339,1727.43,1288.41,1727.43,1288.41Z"/><path class="cls-22" d="M1721,1373.1a129.86,129.86,0,0,1,19,36.36c-50,35.53-75,13.58-75,13.58v-7a13.74,13.74,0,0,1,10.14-13.33C1695.23,1397.41,1713.8,1385.54,1721,1373.1Z"/><path class="cls-24" d="M1754.81,1212.24l13.74,50.51a9.82,9.82,0,0,0,13.14,6.54,198.81,198.81,0,0,0,19.81-9,13.25,13.25,0,0,0,4.67-19l-28.57-42.59Z"/><path class="cls-25" d="M1724.75,1173.86c-.13.87,11.46,57.64,11.46,57.64l32.28-7.3-3-55.45S1726.84,1159.34,1724.75,1173.86Z"/><path class="cls-26" d="M1758.24,1181.11l3.86,29.06a3.82,3.82,0,0,1,0,1.12c-.32,2.28-2,10-9.85,7.81-7.1-2-13.61-3.74-18.11-2.36a4.09,4.09,0,0,0-2.82,4.73,175.94,175.94,0,0,0,7.43,26.46,4.09,4.09,0,0,0,5,2.41c6.12-1.78,18.93-5.91,28.45-11.64a4.11,4.11,0,0,0,2-3.69c-.31-7.33-1.17-29.64-.45-35.89.68-5.87,7.88-9.38,11-10.64a4.06,4.06,0,0,0,2.24-2.25c1.45-3.63,3.45-12-7.14-15.48a4.1,4.1,0,0,1-2.6-5.3c1.57-4.37,2.23-11-6-14.7s-14.54.7-17.9,4.31a4.1,4.1,0,0,1-5.22.62,3.24,3.24,0,0,0-3.69.12,4,4,0,0,1-5.71-1.73c-2-4.09-6.06-8.48-14.21-7.08-14.47,2.48-16.1,18.51-12.29,27.9s19.35,5.81,27.14,1.08c5.92-3.6,13.6.17,17,2.19A4,4,0,0,1,1758.24,1181.11Z"/><path class="cls-27" d="M1775,1209.72s-6-16.65.16-20.73,15.16-2,13.17,10.1C1785.85,1214.09,1775,1209.72,1775,1209.72Z"/><path class="cls-28" d="M2014.2,1311.94l-542.84,178.15,25.91,80,546-173.81a25.08,25.08,0,0,0,17.25-27.23c-1.64-12.39-7.22-29.42-22.41-49.63A21.48,21.48,0,0,0,2014.2,1311.94Z"/><path class="cls-29" d="M1327.16,1575.87l64.38-38.3c6.21,8.14,11.66,20.66,12,39.61l-74.18,5.63A3.74,3.74,0,0,1,1327.16,1575.87Z"/><path class="cls-30" d="M1471.36,1490.09c33,37.12,25.91,80,25.91,80l-93.74,7.1c-.33-19-5.78-31.47-12-39.61Z"/><path class="cls-6" d="M2023.78,1335.21a1.58,1.58,0,0,0-1.47-2.75l-518.65,171.35a1.58,1.58,0,0,0,1,3l518.65-171.36A1.57,1.57,0,0,0,2023.78,1335.21Z"/><path class="cls-6" d="M2035.75,1365.19a1.58,1.58,0,0,0-1.46-2.75l-518.66,171.35a1.59,1.59,0,0,0,1,3l518.65-171.36A1.63,1.63,0,0,0,2035.75,1365.19Z"/><path class="cls-31" d="M1900.88,1447.28l-33.28-2.71-14.42,13.29s3.41,4.71,14.07,2,25.27-3.37,25.27-3.37,14.72,6.63,14.9-5.78Z"/><path class="cls-32" d="M1687.1,1436.93c-2.88,2.25-12.74-2.44-18.77-5.69a6.93,6.93,0,0,1-3.36-8.2c1.45-4.58,3.87-10.5,6.85-11.24C1676.77,1410.56,1699,1427.67,1687.1,1436.93Z"/><rect class="cls-33" x="233.31" y="596.69" width="692.75" height="1207.97" rx="69.56"/><path class="cls-34" d="M861.85,1812.71H297.52a72.35,72.35,0,0,1-72.27-72.27V660.9a72.35,72.35,0,0,1,72.27-72.27H861.85a72.35,72.35,0,0,1,72.27,72.27V1740.44A72.35,72.35,0,0,1,861.85,1812.71Zm-564.33-1208a56.22,56.22,0,0,0-56.15,56.15V1740.44a56.22,56.22,0,0,0,56.15,56.15H861.85A56.22,56.22,0,0,0,918,1740.44V660.9a56.22,56.22,0,0,0-56.15-56.15Z"/><rect class="cls-35" x="265.45" y="734.73" width="231.77" height="98.37"/><rect class="cls-35" x="265.45" y="865.46" width="231.77" height="98.37"/><rect class="cls-35" x="490.78" y="796.38" width="231.77" height="105.8" transform="translate(1455.94 242.61) rotate(90)"/><circle class="cls-35" cx="474.29" cy="1291.39" r="110.21" transform="translate(-896.84 1403.76) rotate(-74.52)"/><rect class="cls-35" x="265.45" y="1291.39" width="631.4" height="17.11"/><rect class="cls-35" x="265.45" y="990.97" width="614.28" height="17.11"/><rect class="cls-35" x="187.83" y="1291.39" width="585.22" height="17.11" transform="translate(1780.38 819.51) rotate(90)"/><rect class="cls-35" x="595.68" y="1006.87" width="585.22" height="17.11" transform="translate(1903.71 127.14) rotate(90)"/><rect class="cls-35" x="266.22" y="1155.08" width="857.83" height="17.11" transform="translate(1858.77 468.51) rotate(90)"/><circle class="cls-33" cx="474.29" cy="1291.39" r="74.22" transform="translate(-901.3 1271.54) rotate(-69.01)"/><rect class="cls-35" x="511.44" y="1029.04" width="84.66" height="131.46"/><rect class="cls-35" x="265.45" y="1127.97" width="82.51" height="94.47"/><rect class="cls-35" x="265.45" y="1029.04" width="166.04" height="82.51"/><rect class="cls-35" x="610.38" y="1029.04" width="59.21" height="81.72"/><rect class="cls-35" x="610.38" y="1127.97" width="59.21" height="136.56"/><rect class="cls-35" x="610.38" y="1324.71" width="59.21" height="80.85"/><rect class="cls-35" x="741.72" y="1029.04" width="47.78" height="235.49"/><rect class="cls-35" x="805.01" y="1029.04" width="59.21" height="235.49"/><rect class="cls-35" x="775.19" y="731.53" width="84.27" height="235.49"/><rect class="cls-35" x="732.66" y="1333.32" width="164.19" height="259.23"/><rect class="cls-35" x="506.18" y="1494.51" width="163.41" height="98.04"/><rect class="cls-35" x="506.18" y="1424.05" width="163.41" height="51.97"/><rect class="cls-35" x="265.45" y="1424.05" width="146.78" height="168.5"/><rect class="cls-35" x="265.45" y="1317.66" width="61.8" height="90.8"/><path class="cls-22" d="M815.59,1732.73a105,105,0,0,1-90-51.17A146.21,146.21,0,0,0,600,1611H265.45v125c0,21.3,17.62,38.56,39.36,38.56H865c17.58,0,31.83-14,31.83-31.18v-10.73Z"/><path class="cls-22" d="M771.33,1664.4a44.86,44.86,0,1,1,44.86,44.85A44.85,44.85,0,0,1,771.33,1664.4Z"/><polygon class="cls-33" points="789.76 1666.46 833.05 1644.82 819.72 1692.54 809.06 1674.29 789.76 1666.46"/><rect class="cls-33" x="399.74" y="1702.58" width="245.49" height="10.49"/><rect class="cls-36" x="287.84" y="1702.58" width="111.9" height="10.49"/><polygon class="cls-37" points="380.99 1671.7 464.77 1708.59 379.21 1746.8 392.89 1709.25 380.99 1671.7"/><path class="cls-33" d="M660.24,1707.82a17.45,17.45,0,1,1,17.45,17.45A17.45,17.45,0,0,1,660.24,1707.82Z"/><path class="cls-38" d="M299.94,605.2h559a59,59,0,0,1,59,59V694.7a0,0,0,0,1,0,0H241.57a0,0,0,0,1,0,0V663.57a58.36,58.36,0,0,1,58.36-58.36Z"/></g><g id="Layer_10" data-name="Layer 10"><rect class="cls-39" x="493.02" y="1399.25" width="191.42" height="278.11"/><rect class="cls-40" x="558.17" y="1399.25" width="189.41" height="278.11"/><rect class="cls-41" x="640.86" y="1399.25" width="44.44" height="57.33"/><rect class="cls-41" x="640.86" y="1620.02" width="44.44" height="57.33"/><rect class="cls-42" x="569" y="1631.67" width="58.64" height="35.43"/><rect class="cls-43" x="571.69" y="1636.64" width="6.22" height="25.49"/><rect class="cls-43" x="581.69" y="1636.64" width="2.18" height="25.49"/><rect class="cls-43" x="592.81" y="1636.64" width="5.1" height="25.49"/><rect class="cls-43" x="586.38" y="1636.64" width="3.11" height="25.49"/><rect class="cls-43" x="601.73" y="1636.64" width="2.11" height="25.49"/><rect class="cls-43" x="611.69" y="1636.64" width="4.22" height="25.49"/><rect class="cls-43" x="617.36" y="1636.64" width="2.09" height="25.49"/><rect class="cls-43" x="606.91" y="1636.64" width="2.89" height="25.49"/><rect class="cls-43" x="621.69" y="1636.64" width="3.11" height="25.49"/><rect class="cls-44" x="580.5" y="1498.21" width="167.08" height="179.15"/><rect class="cls-39" x="305.79" y="1508.9" width="182.68" height="178.97"/><rect class="cls-40" x="357.64" y="1508.9" width="181.55" height="178.98"/><rect class="cls-41" x="424.06" y="1508.9" width="48.71" height="46.05"/><rect class="cls-41" x="424.06" y="1641.82" width="48.71" height="46.05"/><rect class="cls-42" x="366.34" y="1651.18" width="47.1" height="28.46"/><rect class="cls-43" x="368.49" y="1655.17" width="5" height="20.48"/><rect class="cls-43" x="376.53" y="1655.17" width="1.75" height="20.48"/><rect class="cls-43" x="385.46" y="1655.17" width="4.1" height="20.48"/><rect class="cls-43" x="380.29" y="1655.17" width="2.5" height="20.48"/><rect class="cls-43" x="392.62" y="1655.17" width="1.69" height="20.48"/><rect class="cls-43" x="400.62" y="1655.17" width="3.39" height="20.48"/><rect class="cls-43" x="405.17" y="1655.17" width="1.68" height="20.48"/><rect class="cls-43" x="396.79" y="1655.17" width="2.32" height="20.48"/><rect class="cls-43" x="408.66" y="1655.17" width="2.5" height="20.48"/><rect class="cls-44" x="370.23" y="1552.79" width="168.95" height="135.08"/><rect class="cls-39" x="626.33" y="1512.34" width="154.61" height="151.07"/><rect class="cls-40" x="670.51" y="1512.34" width="153.25" height="151.07"/><rect class="cls-41" x="734.93" y="1512.34" width="24.41" height="38.87"/><rect class="cls-41" x="734.93" y="1624.54" width="24.41" height="38.87"/><rect class="cls-42" x="773.16" y="1632.44" width="39.76" height="24.02"/><rect class="cls-43" x="774.98" y="1635.81" width="4.22" height="17.28"/><rect class="cls-43" x="781.76" y="1635.81" width="1.48" height="17.28"/><rect class="cls-43" x="789.3" y="1635.81" width="3.46" height="17.28"/><rect class="cls-43" x="784.94" y="1635.81" width="2.11" height="17.28"/><rect class="cls-43" x="795.34" y="1635.81" width="1.43" height="17.28"/><rect class="cls-43" x="802.1" y="1635.81" width="2.86" height="17.28"/><rect class="cls-43" x="805.94" y="1635.81" width="1.42" height="17.28"/><rect class="cls-43" x="798.86" y="1635.81" width="1.96" height="17.28"/><rect class="cls-43" x="808.88" y="1635.81" width="2.11" height="17.28"/><rect class="cls-39" x="676.46" y="1661.64" width="154.61" height="151.07"/><rect class="cls-40" x="720.64" y="1661.64" width="153.25" height="151.07"/><rect class="cls-41" x="776.7" y="1661.64" width="41.12" height="38.87"/><rect class="cls-41" x="776.7" y="1773.84" width="41.12" height="38.87"/><rect class="cls-42" x="727.98" y="1781.74" width="39.75" height="24.02"/><rect class="cls-43" x="729.8" y="1785.1" width="4.22" height="17.28"/><rect class="cls-43" x="736.58" y="1785.1" width="1.48" height="17.28"/><rect class="cls-43" x="744.12" y="1785.1" width="3.46" height="17.28"/><rect class="cls-43" x="739.76" y="1785.1" width="2.11" height="17.28"/><rect class="cls-43" x="750.17" y="1785.1" width="1.43" height="17.28"/><rect class="cls-43" x="756.92" y="1785.1" width="2.86" height="17.28"/><rect class="cls-43" x="760.76" y="1785.1" width="1.42" height="17.28"/><rect class="cls-43" x="753.68" y="1785.1" width="1.96" height="17.28"/><rect class="cls-43" x="763.71" y="1785.1" width="2.11" height="17.28"/><rect class="cls-39" x="399.29" y="1577.66" width="240.55" height="235.05"/><rect class="cls-40" x="468.02" y="1577.66" width="238.43" height="235.05"/><rect class="cls-41" x="555.25" y="1577.66" width="63.97" height="60.48"/><rect class="cls-41" x="555.25" y="1752.23" width="63.97" height="60.48"/><rect class="cls-42" x="479.44" y="1764.52" width="61.86" height="37.37"/><rect class="cls-43" x="482.27" y="1769.76" width="6.56" height="26.89"/><rect class="cls-43" x="492.82" y="1769.76" width="2.3" height="26.89"/><rect class="cls-43" x="504.56" y="1769.76" width="5.38" height="26.89"/><rect class="cls-43" x="497.77" y="1769.76" width="3.28" height="26.89"/><rect class="cls-43" x="513.96" y="1769.76" width="2.23" height="26.89"/><rect class="cls-43" x="524.47" y="1769.76" width="4.45" height="26.89"/><rect class="cls-43" x="530.45" y="1769.76" width="2.21" height="26.89"/><rect class="cls-43" x="519.43" y="1769.76" width="3.05" height="26.89"/><rect class="cls-43" x="535.03" y="1769.76" width="3.28" height="26.89"/><rect class="cls-39" x="305.79" y="1661.64" width="80.43" height="151.07"/><rect class="cls-40" x="305.79" y="1661.64" width="123.24" height="151.07"/><rect class="cls-41" x="331.84" y="1661.64" width="41.12" height="38.87"/><rect class="cls-41" x="331.84" y="1773.84" width="41.12" height="38.87"/><rect class="cls-42" x="305.79" y="1781.74" width="17.09" height="24.02"/><rect class="cls-43" x="312.06" y="1785.1" width="2.86" height="17.28"/><rect class="cls-43" x="315.9" y="1785.1" width="1.42" height="17.28"/><rect class="cls-43" x="308.82" y="1785.1" width="1.96" height="17.28"/><rect class="cls-43" x="318.85" y="1785.1" width="2.11" height="17.28"/><rect class="cls-44" x="386.94" y="1661.64" width="42.09" height="151.07"/></g></g></svg>