<svg xmlns="http://www.w3.org/2000/svg" xmlns:xlink="http://www.w3.org/1999/xlink" viewBox="0 0 2220.27 1817.13"><defs><style>.cls-1{isolation:isolate;}.cls-2{fill:#ebf2f9;}.cls-3{fill:#003261;}.cls-32,.cls-4{fill:#fff;}.cls-5{fill:#00448c;}.cls-6{fill:#e1e1e1;}.cls-7{opacity:0.5;}.cls-28,.cls-30,.cls-36,.cls-7{mix-blend-mode:multiply;}.cls-8{fill:#f0f0f0;}.cls-9{fill:#e7e7e7;}.cls-10{fill:#e05344;}.cls-11{opacity:0.2;}.cls-12{fill:#ff9841;}.cls-13{fill:url(#linear-gradient);}.cls-14{fill:url(#linear-gradient-2);}.cls-15{fill:url(#linear-gradient-3);}.cls-16{fill:url(#linear-gradient-4);}.cls-17{fill:url(#linear-gradient-5);}.cls-18{fill:url(#linear-gradient-6);}.cls-19{fill:url(#linear-gradient-7);}.cls-20{fill:#d8dee8;}.cls-21{fill:url(#linear-gradient-8);}.cls-22{fill:url(#linear-gradient-9);}.cls-23{fill:url(#linear-gradient-10);}.cls-24{fill:url(#linear-gradient-11);}.cls-25{fill:url(#linear-gradient-12);}.cls-26{fill:url(#linear-gradient-13);}.cls-27{fill:url(#linear-gradient-14);}.cls-28,.cls-32{opacity:0.3;}.cls-28{fill:url(#linear-gradient-15);}.cls-29{fill:url(#linear-gradient-16);}.cls-30,.cls-36{opacity:0.6;}.cls-30{fill:url(#linear-gradient-17);}.cls-31{fill:url(#linear-gradient-18);}.cls-32{mix-blend-mode:overlay;}.cls-33{fill:url(#linear-gradient-19);}.cls-34{fill:url(#linear-gradient-20);}.cls-35{fill:url(#linear-gradient-21);}.cls-36{fill:url(#linear-gradient-22);}.cls-37{fill:url(#linear-gradient-23);}</style><linearGradient id="linear-gradient" x1="4382.57" y1="1672.32" x2="4552.45" y2="1672.32" gradientTransform="matrix(-1, 0, 0, 1, 4898.81, 0)" gradientUnits="userSpaceOnUse"><stop offset="0" stop-color="#444b8c"/><stop offset="1" stop-color="#26264f"/></linearGradient><linearGradient id="linear-gradient-2" x1="4205.73" y1="1634.37" x2="4296.97" y2="1634.37" gradientTransform="matrix(-1, 0, 0, 1, 4898.81, 0)" gradientUnits="userSpaceOnUse"><stop offset="0" stop-color="#311944"/><stop offset="1" stop-color="#6b3976"/></linearGradient><linearGradient id="linear-gradient-3" x1="4186.52" y1="1634.37" x2="4277.75" y2="1634.37" xlink:href="#linear-gradient-2"/><linearGradient id="linear-gradient-4" x1="4641.24" y1="1694.79" x2="4753.02" y2="1694.79" xlink:href="#linear-gradient-2"/><linearGradient id="linear-gradient-5" x1="4617.7" y1="1694.79" x2="4729.48" y2="1694.79" xlink:href="#linear-gradient-2"/><linearGradient id="linear-gradient-6" x1="4429.58" y1="1732.45" x2="4539.62" y2="1732.45" xlink:href="#linear-gradient-2"/><linearGradient id="linear-gradient-7" x1="4406.41" y1="1732.45" x2="4516.45" y2="1732.45" xlink:href="#linear-gradient-2"/><linearGradient id="linear-gradient-8" x1="4495.77" y1="1728.41" x2="4445.38" y2="1733.86" gradientTransform="matrix(-1, 0, 0, 1, 4898.81, 0)" gradientUnits="userSpaceOnUse"><stop offset="0.01" stop-color="#d8dee8"/><stop offset="1" stop-color="#f4f7fa"/></linearGradient><linearGradient id="linear-gradient-9" x1="3935.91" y1="1624.59" x2="4175.58" y2="1624.59" xlink:href="#linear-gradient"/><linearGradient id="linear-gradient-10" x1="4025.78" y1="1618.76" x2="4310.85" y2="1618.76" xlink:href="#linear-gradient"/><linearGradient id="linear-gradient-11" x1="3992.8" y1="1664.47" x2="4084.04" y2="1664.47" xlink:href="#linear-gradient-2"/><linearGradient id="linear-gradient-12" x1="3973.58" y1="1664.47" x2="4064.82" y2="1664.47" xlink:href="#linear-gradient-2"/><linearGradient id="linear-gradient-13" x1="4062.18" y1="1670.59" x2="3991.37" y2="1661.06" xlink:href="#linear-gradient-8"/><linearGradient id="linear-gradient-14" x1="4236.4" y1="1410.86" x2="4528.73" y2="1410.86" gradientTransform="matrix(-1, 0, 0, 1, 4898.81, 0)" gradientUnits="userSpaceOnUse"><stop offset="0" stop-color="#ffc444"/><stop offset="1" stop-color="#f36f56"/></linearGradient><linearGradient id="linear-gradient-15" x1="3853.29" y1="1415.04" x2="4201.01" y2="1415.04" xlink:href="#linear-gradient-14"/><linearGradient id="linear-gradient-16" x1="4273.55" y1="1545.78" x2="4792.91" y2="1545.78" xlink:href="#linear-gradient-8"/><linearGradient id="linear-gradient-17" x1="4529.86" y1="1555.06" x2="4290.19" y2="1934.54" xlink:href="#linear-gradient-8"/><linearGradient id="linear-gradient-18" x1="4412.26" y1="1453.99" x2="4692.64" y2="1453.99" xlink:href="#linear-gradient"/><linearGradient id="linear-gradient-19" x1="4701.92" y1="1575.48" x2="4699.2" y2="1735.26" xlink:href="#linear-gradient"/><linearGradient id="linear-gradient-20" x1="4553.97" y1="1567.65" x2="4634.77" y2="1710.18" gradientTransform="matrix(-1, 0, 0, 1, 4898.81, 0)" gradientUnits="userSpaceOnUse"><stop offset="0" stop-color="#fcb148"/><stop offset="0.05" stop-color="#fdba46"/><stop offset="0.14" stop-color="#ffc244"/><stop offset="0.32" stop-color="#ffc444"/><stop offset="0.48" stop-color="#fdb946"/><stop offset="0.78" stop-color="#f99c4d"/><stop offset="0.87" stop-color="#f8924f"/><stop offset="1" stop-color="#f8924f"/></linearGradient><linearGradient id="linear-gradient-21" x1="4501.03" y1="1686.58" x2="4792.91" y2="1686.58" xlink:href="#linear-gradient"/><linearGradient id="linear-gradient-22" x1="4577.65" y1="1700.04" x2="4792.91" y2="1700.04" xlink:href="#linear-gradient"/><linearGradient id="linear-gradient-23" x1="4306.33" y1="1465.85" x2="4438.1" y2="1465.85" xlink:href="#linear-gradient"/></defs><title>Монтажная область 2 copy 7</title><g class="cls-1"><g id="Layer_6" data-name="Layer 6"><path class="cls-2" d="M1103.47,20.56C511.23,20.56,31.13,500.66,31.13,1092.9c0,275.08,103.59,525.95,273.87,715.78H1901.94c170.28-189.83,273.87-440.7,273.87-715.78C2175.81,500.66,1695.71,20.56,1103.47,20.56Z"/><path class="cls-3" d="M1222.1,968.72c13.18.26,34.93-16.79,38.22-37.92s9.6-37.83,39.73-49.25,47-16.54,56.66-42.75-5.45-55.76-9.4-78.11,16.47-48.33,46.79-72.91,47.56-50.43,20.58-66-60.31-9-89.58,9.8-52.22,43.5-88.19,40.2-56.11,12.09-63.14,40.31,3.16,64-23.59,72.91V905Z"/><path class="cls-4" d="M1167.8,914.62a2.3,2.3,0,0,1-.58-.07,2.59,2.59,0,0,1-2-3.11c27.41-118.62,151.13-250,218-277.23a2.59,2.59,0,1,1,2,4.79c-65.88,26.88-187.83,156.48-214.89,273.61A2.59,2.59,0,0,1,1167.8,914.62Z"/><path class="cls-4" d="M1236.71,772.81a2.58,2.58,0,0,1-2.55-2.17c-5.29-31.92-20.9-56.92-21.06-57.17a2.59,2.59,0,1,1,4.38-2.77,175.22,175.22,0,0,1,21.79,59.09,2.59,2.59,0,0,1-2.13,3A2.15,2.15,0,0,1,1236.71,772.81Z"/><path class="cls-4" d="M1215.29,808.89a2.59,2.59,0,0,1-.66-5.09c40.71-10.78,92.17-.48,94.34,0a2.59,2.59,0,1,1-1,5.08c-.52-.11-52.46-10.5-92,0A2.63,2.63,0,0,1,1215.29,808.89Z"/><polygon class="cls-5" points="1163.27 301.95 1352.27 192.83 1394.37 217.13 1352.28 290.04 1163.27 399.16 1163.27 301.95"/><polygon class="cls-3" points="1352.27 192.83 1331.23 180.68 1141.82 290.04 1163.27 301.95 1352.27 192.83"/><path class="cls-4" d="M1190.71,350.82a12.85,12.85,0,0,1-5.31.95c-.43,0-.63-.18-.63-.41a1.44,1.44,0,0,1,.19-.69l1.6-3.44a1.68,1.68,0,0,1,.54-.75,1.15,1.15,0,0,1,.62-.12,13.54,13.54,0,0,0,4.17-.69,22.46,22.46,0,0,0,4.8-2.11,17.76,17.76,0,0,0,5-4,7,7,0,0,0,1.68-4.48,2.42,2.42,0,0,0-.64-2,2.67,2.67,0,0,0-1.83-.44,35.7,35.7,0,0,0-3.94.58l-1.11.2a33,33,0,0,1-5.21.59,5.06,5.06,0,0,1-3.41-1.08,4.68,4.68,0,0,1-1.37-3.82,14.21,14.21,0,0,1,3.37-8.76,34.12,34.12,0,0,1,14.64-10.22,9.51,9.51,0,0,1,4.24-.51c.39.06.59.23.59.49a1.38,1.38,0,0,1-.2.64l-1.55,3.42a1.61,1.61,0,0,1-.49.71,1,1,0,0,1-.62.08q-3.11-.21-7.71,2.46a15.37,15.37,0,0,0-4.61,3.77,7.14,7.14,0,0,0-1.55,4.44,2.55,2.55,0,0,0,.65,2,2.67,2.67,0,0,0,1.92.42,40.76,40.76,0,0,0,4.07-.65l1.22-.22a29.82,29.82,0,0,1,5.52-.59,4.15,4.15,0,0,1,3.08,1.17,5.59,5.59,0,0,1,1.09,3.91,14,14,0,0,1-3.13,8.37,28.71,28.71,0,0,1-8.89,7.54A41.5,41.5,0,0,1,1190.71,350.82Z"/><path class="cls-4" d="M1217.57,331.56q-4.3-2-4.31-10.23a28.42,28.42,0,0,1,4.31-15.18,33.94,33.94,0,0,1,12.28-11.6q8-4.59,12.27-2.57t4.31,10.21a28.45,28.45,0,0,1-4.31,15.19A34,34,0,0,1,1229.85,329Q1221.86,333.59,1217.57,331.56Zm20-14.85a22,22,0,0,0,2.67-11c0-4.13-.89-6.76-2.67-7.86s-4.36-.68-7.75,1.28a20.39,20.39,0,0,0-7.78,7.69,21.9,21.9,0,0,0-2.69,11c0,4.13.9,6.76,2.69,7.87s4.39.69,7.78-1.27A20.12,20.12,0,0,0,1237.6,316.71Z"/><path class="cls-4" d="M1258,311.26a6,6,0,0,1-5.19-1.29q-1.85-1.75-1.84-5.53V284.9a3.07,3.07,0,0,1,.4-1.6,4,4,0,0,1,1.39-1.23l2.57-1.48c.65-.38,1.11-.5,1.41-.38s.43.49.43,1.11V301c0,2.52.73,4,2.21,4.44s3.58-.12,6.32-1.71a18.87,18.87,0,0,0,6.28-5.56,12.06,12.06,0,0,0,2.21-7V271.49a3,3,0,0,1,.43-1.61,3.88,3.88,0,0,1,1.41-1.24l2.51-1.46c1.27-.73,1.9-.49,1.9.7v19.54a17.48,17.48,0,0,1-1.86,7.64,27.72,27.72,0,0,1-5.22,7.3,34.84,34.84,0,0,1-7.66,5.93A21.67,21.67,0,0,1,1258,311.26Z"/><path class="cls-4" d="M1294.56,290.45c-.29-.13-.43-.48-.43-1.06V262.92l-8.49,4.9c-.64.37-1.08.5-1.33.38s-.36-.49-.36-1.1v-1.31a3,3,0,0,1,.36-1.54,3.57,3.57,0,0,1,1.33-1.18l23.18-13.38c.64-.37,1.1-.5,1.35-.37s.39.49.39,1.11v1.31a2.8,2.8,0,0,1-.39,1.53,3.83,3.83,0,0,1-1.35,1.17l-8.49,4.9V285.8a3.06,3.06,0,0,1-.4,1.55,4.06,4.06,0,0,1-1.44,1.26l-2.52,1.46C1295.32,290.44,1294.86,290.57,1294.56,290.45Z"/><path class="cls-4" d="M1314.75,278.79c-.27-.14-.4-.49-.4-1.07V248.29a3.09,3.09,0,0,1,.4-1.6,4,4,0,0,1,1.39-1.23l2.57-1.48c.65-.38,1.11-.5,1.41-.38s.43.49.43,1.11v12.21l15.9-9.18V235.52a3,3,0,0,1,.43-1.6,4.08,4.08,0,0,1,1.41-1.25l2.52-1.45c.65-.38,1.11-.5,1.41-.38s.43.49.43,1.1v29.43a3,3,0,0,1-.4,1.55,4.06,4.06,0,0,1-1.44,1.26l-2.52,1.46c-.65.37-1.11.49-1.41.37s-.43-.48-.43-1.06V252.44l-15.9,9.19v12.5a3,3,0,0,1-.41,1.55,3.93,3.93,0,0,1-1.43,1.26l-2.57,1.49C1315.49,278.8,1315,278.92,1314.75,278.79Z"/><polygon class="cls-5" points="1141.4 411.19 952.4 302.07 910.31 326.37 952.4 399.28 1141.4 508.4 1141.4 411.19"/><polygon class="cls-3" points="952.4 302.07 973.45 289.92 1162.86 399.28 1141.4 411.19 952.4 302.07"/><path class="cls-4" d="M970.27,379.68a3.09,3.09,0,0,1-.59-1.28l-8.84-35.7a1.53,1.53,0,0,1-.05-.47c0-.48.35-.52,1.06-.11l4.53,2.62a4,4,0,0,1,1.18.92,2.35,2.35,0,0,1,.45,1l5.6,24.56,6.71-14.93a.77.77,0,0,1,.54-.49,2,2,0,0,1,1,.38l2.58,1.49a3.75,3.75,0,0,1,1,.81,3.48,3.48,0,0,1,.53,1.11l6.78,22.72,5.54-18.13c.07-.31.23-.48.47-.5a2.33,2.33,0,0,1,1.15.42l4.59,2.65c.71.41,1.06.85,1.06,1.34a1.17,1.17,0,0,1,0,.4L996.67,394c-.15.36-.36.55-.64.57a2.54,2.54,0,0,1-1.21-.43l-3-1.75a4.27,4.27,0,0,1-1.21-1,3.64,3.64,0,0,1-.64-1.31l-6.77-23.31-6.72,15.52c-.15.36-.36.56-.64.57a2.44,2.44,0,0,1-1.21-.43l-3.07-1.77A4.64,4.64,0,0,1,970.27,379.68Z"/><path class="cls-4" d="M1011.64,403.39a2.75,2.75,0,0,1-.48-1.58V372.39c0-.62.16-1,.48-1.09s.85.06,1.59.49l23.29,13.44a4.54,4.54,0,0,1,1.54,1.28,2.74,2.74,0,0,1,.42,1.55v1.31c0,.61-.14,1-.42,1.09s-.79,0-1.54-.48l-18.19-10.5v9.4l13.21,7.63a4.74,4.74,0,0,1,1.56,1.29,2.69,2.69,0,0,1,.46,1.57v1.21c0,.62-.16,1-.46,1.08s-.82-.06-1.56-.49l-13.21-7.63V403l18.14,10.47a4.79,4.79,0,0,1,1.57,1.32,2.87,2.87,0,0,1,.44,1.59v1.31c0,.58-.15.92-.44,1s-.83-.09-1.57-.52l-23.24-13.41A4.7,4.7,0,0,1,1011.64,403.39Z"/><path class="cls-4" d="M1049.2,425.49a41.33,41.33,0,0,1-6.13-5.65,2.58,2.58,0,0,1-.73-1.19.48.48,0,0,1,.22-.46l1.86-1.45a.53.53,0,0,1,.61-.08,3.52,3.52,0,0,1,.73.66,44,44,0,0,0,4.81,4.5,43,43,0,0,0,5.54,3.86q3.81,2.19,5.74,2.22c1.29,0,1.93-.78,1.93-2.4a5.56,5.56,0,0,0-.72-2.75,14,14,0,0,0-2.13-2.73q-1.41-1.44-4.54-4.32l-1.28-1.17q-3.64-3.36-6-5.9a27.1,27.1,0,0,1-3.95-5.33,11.18,11.18,0,0,1-1.57-5.51c0-2.94,1.3-4.47,3.89-4.57s6,1.06,10.22,3.5a55.8,55.8,0,0,1,6.69,4.49,34.21,34.21,0,0,1,4.9,4.77,2.41,2.41,0,0,1,.67,1.21.42.42,0,0,1-.22.4l-1.8,1.49c-.22.16-.41.2-.56.11a3.9,3.9,0,0,1-.73-.71,34.94,34.94,0,0,0-8.9-7.12q-3.52-2-5.31-2c-1.2.06-1.79.89-1.79,2.51a5.68,5.68,0,0,0,.75,2.83,13.56,13.56,0,0,0,2.21,2.81Q1055,409,1058.3,412l1.39,1.29q4.1,3.76,6.38,6.28a22.12,22.12,0,0,1,3.56,5,11.49,11.49,0,0,1,1.26,5.26c0,2.78-1.21,4.27-3.61,4.48s-5.83-1-10.27-3.53A68.94,68.94,0,0,1,1049.2,425.49Z"/><path class="cls-4" d="M1085,445.74a2.69,2.69,0,0,1-.51-1.59V417.68L1074.7,412a4.43,4.43,0,0,1-1.54-1.27,2.74,2.74,0,0,1-.42-1.55v-1.31c0-.62.14-1,.42-1.09s.79,0,1.54.47l26.75,15.45A4.59,4.59,0,0,1,1103,424a2.75,2.75,0,0,1,.45,1.59v1.31q0,.92-.45,1.05c-.3.09-.82-.09-1.57-.52l-9.79-5.65v26.46c0,.59-.16.93-.48,1s-.87-.07-1.65-.52l-2.91-1.68A4.76,4.76,0,0,1,1085,445.74Z"/><path class="cls-3" d="M1163.23,201.11c-.1-3.09-2.16-6.16-6.24-8.52-8.38-4.84-22-4.84-30.35,0-4.09,2.36-6.15,5.43-6.25,8.52h0V1341.82h42.92V201.11Z"/><path class="cls-5" d="M1541.75,1062.94,1289.16,990,1027.43,769.19c-6.57-5.54-17.91-6.55-25.35-2.26L376.52,1128.07c-7.43,4.29-8.14,12.26-1.58,17.79l261.74,220.85,252.58,72.9,273.57,230.87,279.89,92.33c8.15,2.69,20.79,1.4,28.23-2.89l28.66-16.54,596.89-344.6c7.44-4.29,6.85-10-1.3-12.64l-279.89-92.33Z"/><polygon class="cls-3" points="1289.16 990.04 636.68 1366.71 889.26 1439.61 1541.74 1062.93 1289.16 990.04"/><path class="cls-3" d="M1162.83,1670.48l279.89,92.33c8.15,2.69,20.79,1.39,28.22-2.9l625.56-361.13c7.44-4.29,6.85-10-1.3-12.64l-279.89-92.33Z"/><polygon class="cls-6" points="1247.04 1014.34 1007.63 812.33 439.39 1140.4 678.8 1342.41 1247.04 1014.34"/><polygon class="cls-6" points="1499.62 1087.23 931.39 1415.31 678.8 1342.41 1247.04 1014.34 1499.62 1087.23"/><g class="cls-7"><polygon class="cls-6" points="1499.62 1087.23 931.39 1415.31 678.8 1342.41 1247.04 1014.34 1499.62 1087.23"/></g><polygon class="cls-6" points="1773.19 1318.11 1204.95 1646.18 931.39 1415.31 1499.62 1087.23 1773.19 1318.11"/><polygon class="cls-6" points="2014.28 1397.64 1446.04 1725.71 1204.95 1646.18 1773.19 1318.11 2014.28 1397.64"/><g class="cls-7"><polygon class="cls-6" points="2014.28 1397.64 1446.04 1725.71 1204.95 1646.18 1773.19 1318.11 2014.28 1397.64"/></g><polygon class="cls-8" points="577.99 1257.35 657.76 1208.74 531.48 1087.23 439.39 1140.4 577.99 1257.35"/><polygon class="cls-8" points="678.8 1196.59 552.52 1075.08 741.94 965.31 868.22 1087.23 678.8 1196.59"/><polygon class="cls-8" points="762.99 953.57 889.26 1075.08 952.4 1038.63 931.35 856.36 762.99 953.57"/><polygon class="cls-8" points="973.45 1026.48 952.4 844.21 1007.63 812.33 1212.84 985.48 973.45 1026.48"/><polygon class="cls-8" points="752.47 1299.88 689.33 1239.12 610.4 1284.69 678.8 1342.41 752.47 1299.88"/><polygon class="cls-8" points="710.37 1226.97 773.52 1287.72 962.73 1178.48 899.72 1117.65 710.37 1226.97"/><polygon class="cls-8" points="983.98 1166.22 920.83 1105.46 978.64 1072.09 1099.73 1050.78 1099.74 1099.38 983.98 1166.22"/><polygon class="cls-8" points="1120.77 1087.23 1120.77 1047.08 1220.81 1029.48 1120.77 1087.23"/><path class="cls-9" d="M1226,1123.68c-23.25-6.71-56.23-4-73.67,6.08s-12.72,23.67,10.53,30.38,56.23,4,73.67-6.07S1249.27,1130.39,1226,1123.68Z"/><path class="cls-9" d="M1157.64,1110.54a70,70,0,0,0-13.06,5.75c-18.34,10.57-18.81,24.35-18.13,29.79a25.4,25.4,0,0,0,3,9.12l-50.72,29.22L984,1166.23l115.74-66.83Z"/><polygon class="cls-9" points="1120.77 1087.23 1185.68 1098.45 1218.96 1103.06 1331.21 1038.63 1247.04 1014.34 1120.77 1087.23"/><path class="cls-9" d="M1499.6,1087.22l-158,91.24-94.14-12.9c15.28-10.26,15.59-22.69,15-27.82a26.1,26.1,0,0,0-2.9-9.07l127.82-73.83Z"/><path class="cls-9" d="M1322.55,1189.45,1247.07,1233l-126.63-24.3,52.74-30.26c.16-.1.26-.15.42-.26h.05a132.1,132.1,0,0,0,17.82,1.19,126.67,126.67,0,0,0,36-4.92h0Z"/><polygon class="cls-9" points="962.73 1178.48 773.52 1287.72 868.22 1305.95 1057.5 1196.67 962.73 1178.48"/><polygon class="cls-9" points="1247.08 1233.04 1120.54 1208.76 931.29 1318.09 1057.63 1342.4 1247.08 1233.04"/><polygon class="cls-9" points="752.47 1299.88 678.8 1342.41 762.98 1366.71 847.16 1318.11 752.47 1299.88"/><polygon class="cls-9" points="1036.59 1354.57 910.24 1330.25 819.1 1382.9 931.39 1415.31 1036.59 1354.57"/><polygon class="cls-8" points="1373.33 1233.05 1443.65 1362.56 1625.88 1257.35 1457.51 1184.44 1373.33 1233.05"/><polygon class="cls-8" points="1036.59 1354.57 1057.64 1391.01 1051.06 1516.31 931.39 1415.31 1036.59 1354.57"/><polygon class="cls-8" points="1057.63 1342.4 1078.68 1378.86 1342.61 1226.48 1322.57 1189.46 1057.63 1342.4"/><polygon class="cls-8" points="1341.56 1178.48 1362.8 1214.83 1533.81 1116.09 1499.62 1087.23 1341.56 1178.48"/><polygon class="cls-8" points="1352.28 1245.2 1089.18 1397.1 1082.43 1542.78 1102.36 1559.6 1422.79 1374.6 1352.28 1245.2"/><polygon class="cls-8" points="1478.56 1172.29 1550.91 1130.52 1670.6 1231.53 1646.93 1245.2 1478.56 1172.29"/><polygon class="cls-8" points="1136.56 1588.46 1226.01 1536.82 1268.1 1609.72 1204.95 1646.18 1136.56 1588.46"/><rect class="cls-8" x="1261.58" y="1494.73" width="97.21" height="84.18" transform="translate(-592.88 860.99) rotate(-30)"/><polygon class="cls-8" points="1352.28 1463.91 1442.94 1411.58 1483.23 1485.52 1394.38 1536.82 1352.28 1463.91"/><polygon class="cls-8" points="1503.93 1473.57 1463.75 1399.56 1646.93 1293.8 1738.99 1289.25 1773.19 1318.11 1503.93 1473.57"/><polygon class="cls-8" points="1687.7 1245.96 1646.93 1269.5 1712.59 1266.96 1687.7 1245.96"/><path class="cls-9" d="M1606.15,1513.28c-23.26-6.72-56.24-4-73.67,6.07s-12.72,23.67,10.52,30.38,56.23,4,73.67-6.07S1629.4,1520,1606.15,1513.28Z"/><polygon class="cls-9" points="1268.1 1609.72 1352.28 1634.03 1285.31 1672.69 1204.95 1646.18 1268.1 1609.72"/><polygon class="cls-9" points="1289.14 1597.57 1373.33 1621.88 1457.51 1573.27 1373.33 1548.97 1289.14 1597.57"/><path class="cls-9" d="M1394.38,1536.82l84.18,24.3,28-16.18s-13.31-29.75,26.11-42.18l-49.47-17.24Z"/><path class="cls-9" d="M1503.93,1473.57l51.83,18.68s16.73-2.7,42.09,0l154.31-89.09-84.18-24.3Z"/><polygon class="cls-9" points="1689.01 1366.71 1773.2 1391.01 1853.56 1344.62 1773.19 1318.11 1689.01 1366.71"/><polygon class="cls-9" points="1907.13 1362.29 1773.2 1439.61 1878.44 1476.07 2014.28 1397.64 1907.13 1362.29"/><path class="cls-9" d="M1752.16,1451.76l-110.65,63.89s13.58,21.1-3.79,37.77l72.35,19.85,147.32-85-102.69-35"/><path class="cls-9" d="M1689,1585.42l-74.75-18.85s-36,14.1-66.34,3.11L1436.47,1634l-21,81.58,30.62,10.1Z"/><polygon class="cls-9" points="1415.42 1646.18 1397.79 1709.8 1338.89 1690.37 1415.42 1646.18"/><path class="cls-5" d="M1322.56,1451.93a5.18,5.18,0,0,1-2.64-9.64l110.81-65.35-102.84-187.79-96.78-15.25a5.19,5.19,0,0,1-1.89-9.55c14.32-8.72,21.55-17,20.93-24-.61-6.68-8.94-13.73-22.28-18.86-19.94-7.68-61.07-5.16-78.83,8.63-15.51,12-6.18,26.55-5.77,27.16a5.18,5.18,0,0,1-1.64,7.29l-53.36,32.26a5.15,5.15,0,0,1-3.59.67l-112.13-20.11a5.16,5.16,0,0,1-2.77-1.44L856.61,1062a5.18,5.18,0,0,1,7.36-7.3l112,112.78,108.6,19.48,47.55-28.75c-3.81-9.29-4.8-24.36,10.56-36.28,20.56-16,66.07-18.9,88.91-10.11,10.2,3.92,27.52,12.73,28.86,27.6.8,8.78-4.24,17.58-15,26.25l86.55,13.64a5.17,5.17,0,0,1,3.74,2.63l106.48,194.43a5.19,5.19,0,0,1-1.91,7l-115.13,67.9A5.22,5.22,0,0,1,1322.56,1451.93Z"/><path class="cls-10" d="M894.35,900.35l-17.74-10.18h0c-8.47-5.66-20.22-5.42-33.22,2.08-25.78,14.89-46.68,52.69-46.68,84.42v7.23c0,31.73,42.67,66.22,42.67,66.22l17.44,9.87s-10.48-12-9.28-14.4C859,1022.13,890.08,955.9,890.08,930v-7.22a56.58,56.58,0,0,0-2-15.5l2,1.15Zm-51,72.77c-12.89,7.44-23.34,1.4-23.34-13.48,6.94-1.09,24.39-30.88,23.34-40.43,12.89-7.44,23.34-1.41,23.34,13.47S856.28,965.67,843.39,973.12Z"/><path class="cls-10" d="M894.35,900.35l-17.74-10.18h0c-8.47-5.66-20.22-5.42-33.22,2.08-25.78,14.89-46.68,52.69-46.68,84.42v7.23c0,31.73,42.67,66.22,42.67,66.22l17.44,9.87s-10.48-12-9.28-14.4C859,1022.13,890.08,955.9,890.08,930v-7.22a56.58,56.58,0,0,0-2-15.5l2,1.15Zm-51,72.77c-12.89,7.44-23.34,1.4-23.34-13.48,6.94-1.09,24.39-30.88,23.34-40.43,12.89-7.44,23.34-1.41,23.34,13.47S856.28,965.67,843.39,973.12Z"/><g class="cls-11"><path class="cls-10" d="M894.35,900.35l-17.74-10.18h0c-8.47-5.66-20.22-5.42-33.22,2.08-25.78,14.89-46.68,52.69-46.68,84.42v7.23c0,31.73,42.67,66.22,42.67,66.22l17.44,9.87s-10.48-12-9.28-14.4C859,1022.13,890.08,955.9,890.08,930v-7.22a56.58,56.58,0,0,0-2-15.5l2,1.15Zm-51,72.77c-12.89,7.44-23.34,1.4-23.34-13.48,6.94-1.09,24.39-30.88,23.34-40.43,12.89-7.44,23.34-1.41,23.34,13.47S856.28,965.67,843.39,973.12Z"/></g><path class="cls-12" d="M908.75,933.55c0-31.74-20.9-45.4-46.69-30.51s-46.68,52.68-46.68,84.41v7.23c0,24.44,27.68,52.79,40.41,64.54a6.28,6.28,0,0,0,9.93-1.85c11-22.5,43-90.31,43-116.6ZM862.06,983.9c-12.89,7.44-23.34,1.41-23.34-13.48s10.45-33,23.34-40.43,23.35-1.41,23.35,13.48S875,976.45,862.06,983.9Z"/><path class="cls-10" d="M1355.47,1294.12l-17.73-10.18h0c-8.46-5.66-20.22-5.42-33.22,2.08-25.78,14.89-46.68,52.68-46.68,84.42v7.22c0,31.74,42.67,66.23,42.67,66.23l17.45,9.87s-10.48-12-9.29-14.4c11.43-23.46,42.54-89.69,42.54-115.6v-7.23a56.12,56.12,0,0,0-2-15.49l2,1.15Zm-51,72.76c-12.9,7.45-23.35,1.41-23.35-13.47,6.94-1.09,24.39-30.88,23.34-40.43,12.9-7.45,23.35-1.41,23.35,13.47S1317.41,1359.44,1304.52,1366.88Z"/><path class="cls-10" d="M1355.47,1294.12l-17.73-10.18h0c-8.46-5.66-20.22-5.42-33.22,2.08-25.78,14.89-46.68,52.68-46.68,84.42v7.22c0,31.74,42.67,66.23,42.67,66.23l17.45,9.87s-10.48-12-9.29-14.4c11.43-23.46,42.54-89.69,42.54-115.6v-7.23a56.12,56.12,0,0,0-2-15.49l2,1.15Zm-51,72.76c-12.9,7.45-23.35,1.41-23.35-13.47,6.94-1.09,24.39-30.88,23.34-40.43,12.9-7.45,23.35-1.41,23.35,13.47S1317.41,1359.44,1304.52,1366.88Z"/><g class="cls-11"><path class="cls-10" d="M1355.47,1294.12l-17.73-10.18h0c-8.46-5.66-20.22-5.42-33.22,2.08-25.78,14.89-46.68,52.68-46.68,84.42v7.22c0,31.74,42.67,66.23,42.67,66.23l17.45,9.87s-10.48-12-9.29-14.4c11.43-23.46,42.54-89.69,42.54-115.6v-7.23a56.12,56.12,0,0,0-2-15.49l2,1.15Zm-51,72.76c-12.9,7.45-23.35,1.41-23.35-13.47,6.94-1.09,24.39-30.88,23.34-40.43,12.9-7.45,23.35-1.41,23.35,13.47S1317.41,1359.44,1304.52,1366.88Z"/></g><path class="cls-12" d="M1369.87,1327.32c0-31.74-20.9-45.4-46.68-30.52s-46.69,52.69-46.69,84.42v7.23c0,24.44,27.69,52.79,40.42,64.54a6.27,6.27,0,0,0,9.92-1.85c11-22.51,43-90.31,43-116.6Zm-46.68,50.35c-12.89,7.44-23.34,1.4-23.34-13.48s10.45-33,23.34-40.43,23.34-1.41,23.34,13.48S1336.08,1370.22,1323.19,1377.67Z"/><path class="cls-3" d="M1713.37,687.55l-1.14-.67-35.54-20.41a49.13,49.13,0,0,0-27.77-8.14c-12.44,0-26.32,4-40.94,12.49-53.36,30.77-96.57,109-96.57,174.6v14.92c0,65.65,88.23,137,88.23,137l35.91,20.31a.17.17,0,0,0,.15.06c-1.19-1.4-21.6-24.82-19.17-29.74,23.63-48.5,88-185.54,88-239.11V733.92a118.22,118.22,0,0,0-4.09-32.07l4.14,2.39Zm-66.79,172.79c-23.67,13.68-43.31,5.44-47.46-18.13-22.43,8.19-39.42-4.71-39.42-32,14.35-2.28,50.41-63.88,48.28-83.62,23.63-13.68,43.27-5.44,47.41,18.13,22.49-8.19,39.48,4.72,39.48,32C1694.87,807.5,1673.27,845,1646.58,860.34Z"/><path class="cls-5" d="M1713.37,687.55l-1.14-.67c-17.26-9.69-40.31-8.39-65.65,6.22-38.18,22.07-71.24,68.44-86.88,117.09-6.22,19.27-9.69,38.86-9.69,57.51v15c0,50.57,57.25,109.22,83.62,133.52a12.25,12.25,0,0,0,1.92,1.45.17.17,0,0,0,.15.06,13,13,0,0,0,18.45-5.34c22.74-46.58,89-186.83,89-241.18v-15C1743.16,722.47,1731.76,698.59,1713.37,687.55ZM1599.12,842.21a52.56,52.56,0,0,1-.82-9.74c0-30.78,21.6-68.24,48.28-83.62a58.8,58.8,0,0,1,8.81-4.15c22.49-8.19,39.48,4.72,39.48,32,0,30.78-21.6,68.24-48.29,83.62C1622.91,874,1603.27,865.78,1599.12,842.21Z"/><path class="cls-3" d="M1662.42,732.19a71.38,71.38,0,0,0-10.65,5c-32.25,18.6-58.37,63.88-58.37,101.08a63.4,63.4,0,0,0,1,11.78c5,28.49,28.75,38.45,57.37,21.92,32.25-18.6,58.37-63.88,58.37-101.08C1710.14,737.89,1689.6,722.3,1662.42,732.19Z"/><path class="cls-12" d="M1655.79,746.81l9.79,20.8a2.34,2.34,0,0,0,3.19,1.25l21.89-8.4c3.47-1.33,4.86,3.56,2.34,8.28l-15.83,29.73a9.86,9.86,0,0,0-1.22,5.71l3.74,26.9c.59,4.28-3,9.9-6.15,9.51L1654,838.17c-1.24-.15-2.71.7-3.94,2.28l-19.58,25c-3.11,4-6.74,2.56-6.15-2.4l3.74-31.23c.23-2-.22-3.57-1.22-4.3L1611,816.1c-2.51-1.81-1.13-8.31,2.35-11l21.89-16.88a10.11,10.11,0,0,0,3.19-4.93l9.79-32.1C1649.74,746.1,1654.23,743.51,1655.79,746.81Z"/><path class="cls-3" d="M1938.85,817.46l-1.14-.68-35.54-20.41a49.12,49.12,0,0,0-27.77-8.13c-12.44,0-26.32,4-40.94,12.48-53.36,30.78-96.57,109-96.57,174.61v14.92c0,65.64,88.23,137,88.23,137l35.91,20.31a.18.18,0,0,0,.15,0c-1.19-1.4-21.6-24.82-19.16-29.74,23.62-48.49,88-185.54,88-239.11V863.83a118.16,118.16,0,0,0-4.09-32.07l4.14,2.38Zm-66.78,172.79c-23.68,13.68-43.32,5.44-47.46-18.14-22.44,8.19-39.43-4.71-39.43-32,14.35-2.28,50.41-63.89,48.28-83.63,23.63-13.68,43.27-5.44,47.41,18.13,22.49-8.18,39.49,4.72,39.49,32C1920.36,937.4,1898.75,974.86,1872.07,990.25Z"/><path class="cls-5" d="M1938.85,817.46l-1.14-.68c-17.25-9.69-40.31-8.39-65.64,6.22-38.19,22.07-71.25,68.44-86.89,117.1-6.22,19.27-9.69,38.85-9.69,57.51v15c0,50.57,57.25,109.22,83.62,133.52a13.44,13.44,0,0,0,1.92,1.45.18.18,0,0,0,.15,0,12.94,12.94,0,0,0,18.45-5.34c22.75-46.57,89-186.83,89-241.18v-15C1968.64,852.38,1957.24,828.49,1938.85,817.46ZM1824.61,972.11a52.39,52.39,0,0,1-.83-9.74c0-30.77,21.6-68.23,48.29-83.62a58.26,58.26,0,0,1,8.8-4.15c22.49-8.18,39.49,4.72,39.49,32,0,30.78-21.61,68.24-48.29,83.63C1848.39,1003.93,1828.75,995.69,1824.61,972.11Z"/><path class="cls-3" d="M1887.9,862.1a69.45,69.45,0,0,0-10.65,5c-32.25,18.6-58.37,63.88-58.37,101.08a63.29,63.29,0,0,0,1,11.77c5,28.5,28.75,38.46,57.37,21.92,32.25-18.6,58.37-63.88,58.37-101.08C1935.62,867.8,1915.08,852.2,1887.9,862.1Z"/><polygon class="cls-12" points="1925.82 900.09 1879.72 887.79 1833.62 953.32 1845.82 946.27 1845.82 984.8 1872.58 969.35 1872.58 947.83 1886.85 939.6 1886.85 961.12 1913.64 945.64 1913.64 907.12 1925.82 900.09"/><path class="cls-3" d="M2164.33,946.39c-.36-.2-.77-.46-1.14-.67l-35.54-20.41a49.13,49.13,0,0,0-27.77-8.14c-12.44,0-26.32,4-40.93,12.49-53.37,30.78-96.58,109-96.58,174.61v14.92c0,65.64,88.24,137,88.24,137l35.9,20.31a.2.2,0,0,0,.16,0c-1.2-1.4-21.61-24.82-19.17-29.74,23.62-48.5,88-185.54,88-239.11V992.77a118.29,118.29,0,0,0-4.09-32.08l4.14,2.39Zm-66.78,172.8c-23.68,13.68-43.32,5.44-47.46-18.14-22.44,8.19-39.43-4.71-39.43-32,14.35-2.28,50.41-63.88,48.29-83.62,23.62-13.68,43.26-5.44,47.41,18.13,22.48-8.18,39.48,4.72,39.48,32C2145.84,1066.34,2124.23,1103.8,2097.55,1119.19Z"/><path class="cls-5" d="M2164.33,946.39c-.36-.2-.77-.46-1.14-.67-17.25-9.69-40.31-8.39-65.64,6.22-38.19,22.07-71.24,68.44-86.89,117.09-6.22,19.28-9.69,38.86-9.69,57.51v15c0,50.57,57.25,109.22,83.62,133.52a13.44,13.44,0,0,0,1.92,1.45.2.2,0,0,0,.16,0,12.93,12.93,0,0,0,18.44-5.34c22.75-46.58,89-186.83,89-241.18v-15C2194.13,981.32,2182.73,957.43,2164.33,946.39Zm-114.24,154.66a52.46,52.46,0,0,1-.83-9.74c0-30.77,21.61-68.23,48.29-83.62a58.35,58.35,0,0,1,8.81-4.15c22.48-8.18,39.48,4.72,39.48,32,0,30.78-21.61,68.24-48.29,83.63C2073.87,1132.87,2054.23,1124.63,2050.09,1101.05Z"/><path class="cls-3" d="M2113.38,991a69.89,69.89,0,0,0-10.65,5c-32.25,18.6-58.37,63.88-58.37,101.08a64.23,64.23,0,0,0,1,11.77c5,28.5,28.75,38.46,57.37,21.92,32.26-18.6,58.37-63.88,58.37-101.08C2161.1,996.73,2140.56,981.14,2113.38,991Z"/><path class="cls-12" d="M2102.28,1020.43c11-6.38,20-1.21,20,11.54s-8.95,28.25-20,34.62-20,1.21-20-11.54S2091.24,1026.8,2102.28,1020.43Z"/><path class="cls-12" d="M2064.23,1136.28c10.26,4.5,23.72,3.08,38.5-5.46s28.23-22.68,38.51-39.06v-3.36c0-20.94-14.7-29.43-32.84-19l-11.34,6.54c-18.13,10.48-32.83,35.94-32.83,56.89Z"/><polygon class="cls-13" points="501.72 1725.88 346.36 1719.53 389.37 1618.76 489.46 1624.66 516.24 1668.46 501.72 1725.88"/><path class="cls-14" d="M647.46,1565.7c1,0,2,.07,3.07.17l16.14-.17-.09,6.33c15.64,10.89,26.5,34.7,26.5,62.35,0,28.73-11.73,53.33-28.37,63.58l-.08,5.09H647.46c-25.2,0-45.62-30.75-45.62-68.67S622.26,1565.7,647.46,1565.7Z"/><ellipse class="cls-15" cx="666.67" cy="1634.37" rx="45.62" ry="68.68"/><path class="cls-16" d="M201.68,1617.85c1.27,0,2.52.08,3.76.19l19.78-.19-.11,7.09c19.16,12.2,32.46,38.88,32.46,69.85,0,32.19-14.37,59.75-34.76,71.23l-.09,5.71h-21c-30.87,0-55.89-34.45-55.89-76.94S170.81,1617.85,201.68,1617.85Z"/><ellipse class="cls-17" cx="225.22" cy="1694.79" rx="55.89" ry="76.94"/><path class="cls-18" d="M414.21,1653.57c1.24,0,2.48.08,3.7.2l19.47-.2-.11,7.27c18.86,12.51,32,39.86,32,71.61,0,33-14.14,61.26-34.21,73l-.09,5.85H414.21c-30.39,0-55-35.32-55-78.88S383.82,1653.57,414.21,1653.57Z"/><ellipse class="cls-19" cx="437.38" cy="1732.45" rx="55.02" ry="78.88"/><ellipse class="cls-20" cx="445.12" cy="1732.45" rx="30.91" ry="44.31"/><ellipse class="cls-21" cx="440.44" cy="1732.45" rx="26.23" ry="41.14"/><path class="cls-22" d="M962.9,1565.7v82.1a35.68,35.68,0,0,1-40,35.42L723.23,1658.7v-93Z"/><path class="cls-23" d="M873,1554.3l-54.81,85.18a48.64,48.64,0,0,1-35.07,22l-181.31,21.78L588,1591.52Z"/><path class="cls-24" d="M860.39,1595.79c1,0,2.06.07,3.08.17l16.14-.17-.1,6.33c15.64,10.89,26.5,34.7,26.5,62.35,0,28.73-11.73,53.33-28.37,63.58l-.07,5.09H860.39c-25.19,0-45.62-30.74-45.62-68.67S835.2,1595.79,860.39,1595.79Z"/><ellipse class="cls-25" cx="879.61" cy="1664.47" rx="45.62" ry="68.68"/><ellipse class="cls-20" cx="886.02" cy="1664.47" rx="25.63" ry="38.58"/><ellipse class="cls-26" cx="882.14" cy="1664.47" rx="21.75" ry="35.82"/><path class="cls-12" d="M662.41,1618.76l372.42-51.58a12.4,12.4,0,0,0,10.69-12.28V1226.78a12.4,12.4,0,0,0-12-12.39L662.41,1203Z"/><path class="cls-27" d="M370.08,1595.79l292.33,23V1203L384.6,1217.63a15.33,15.33,0,0,0-14.52,15.31Z"/><path class="cls-28" d="M796.77,1362.16c54.13-68.24,161.74-17.89,216.07-94.42a210.63,210.63,0,0,0,26.68-51.51,12.32,12.32,0,0,1,6,10.55V1554.9a12.4,12.4,0,0,1-10.7,12.28l-337,46.67c21.28-23.25,42.65-53,58.11-90.1C789.88,1442.21,761.42,1406.71,796.77,1362.16Z"/><path class="cls-29" d="M605.9,1375c10.09,45.28,33.62,175.86,7.36,316.21a25.22,25.22,0,0,1-20.83,20.18l-90.71,14.48s-.91-85.87-44.49-91.51-84.43,35.23-87.15,106c0,0-94.42,12.71-236.95-20,0,0-19.06-4.09-27.23-25.65l6.43-98.77a30.31,30.31,0,0,1,10.44-21l83.9-72.5s76.26-108,101.68-128.91c0,0,13.61-21.79,123.46-24.51,75.66-1.88,127.75,3.13,152.85,6.44A25.09,25.09,0,0,1,605.9,1375Z"/><path class="cls-30" d="M117.16,1581.51l4.17,4.56c-1.82,50.84-12.83,68.81,80.35,78.4S292,1595.79,292,1595.79l122.2-53.29,102-160.69c20.26-16.32,55.64-20.77,79.64-21.81a25.09,25.09,0,0,1,10,15c10.09,45.28,33.62,175.86,7.36,316.21a25.22,25.22,0,0,1-20.83,20.18l-90.71,14.48s-.91-85.87-44.49-91.51-84.43,35.23-87.15,106c0,0-94.42,12.71-236.95-20,0,0-19.06-4.09-27.23-25.65l6.43-98.77A30.33,30.33,0,0,1,117.16,1581.51Z"/><path class="cls-31" d="M415.45,1519.06a16.19,16.19,0,0,1-15.79,7.64L206.17,1503l.5-.43s63.28-89.65,93.77-121.39l178.42,10.73a8.17,8.17,0,0,1,6.49,12.4Z"/><path class="cls-32" d="M300.24,1458.8c52.68-20.71,96.46,3.84,132.69-25.13,13.94-11.14,22.24-26.61,27.15-42.91l18.78,1.13a8.17,8.17,0,0,1,6.49,12.4l-69.9,114.77a16.19,16.19,0,0,1-15.79,7.64L239.1,1507C260.19,1479.62,281.89,1466,300.24,1458.8Z"/><path class="cls-33" d="M129.23,1594.61a3.46,3.46,0,0,1,3.46-3.08c48.21.43,108.84,10.57,128.91,14.17a6.72,6.72,0,0,1,5.4,8.11c-3.92,16.76-10.43,28.08-15.22,34.66a18.87,18.87,0,0,1-13.79,7.72c-15.17,1.19-48.82,3.22-65.14-.67-14.51-3.45-28.4-10.34-35.87-14.43a16,16,0,0,1-8.17-11.5C127,1617.76,128.47,1601.36,129.23,1594.61Z"/><path class="cls-34" d="M365.17,1599.26a5.16,5.16,0,0,0-2.83-7.13c-4.26-1.57-10.09-3.39-13.48-3-4.45.52-42,10.28-59.23,14.78a11.48,11.48,0,0,0-8.61,11.79c.76,11.71,5.18,30.25,25.28,32.32C334.2,1650.92,351.83,1626.32,365.17,1599.26Z"/><path class="cls-35" d="M184.42,1668.46c73.15,10.21,88-14.89,88-14.89,17.31,2.58,41.91-.81,55.85-3.24a13.38,13.38,0,0,1,13.44,6.1c2.23,3.36,6.27,6.77,13.63,8,12,2.07,32.44-2.5,42.45-5.07-14.57,20-24.77,45.91-26.11,80.9,0,0-96,12.82-238.54-19.86,0,0-19.06-4.09-27.23-25.65l4.19-64.41C117.56,1641.81,137.1,1661.85,184.42,1668.46Z"/><path class="cls-36" d="M303.38,1681.16A13.54,13.54,0,0,1,318.2,1695c-.38,17.38,1.39,35.56,3,47.84-41.41.1-106.91-3.79-188-22.39,0,0-19.06-4.09-27.23-25.65l2.44-37.54C166.78,1690.38,265.16,1684.87,303.38,1681.16Z"/><path class="cls-37" d="M574.7,1401.27l-26.28,6.36a35.79,35.79,0,0,0-21.1,14.55l-65.06,94.9a8.7,8.7,0,0,0,9,13.43L584,1506.66a10.15,10.15,0,0,0,8.06-9.49c.71-16.26,1.46-54.8-4.91-87.86A10.21,10.21,0,0,0,574.7,1401.27Z"/></g></g></svg>