<svg xmlns="http://www.w3.org/2000/svg" xmlns:xlink="http://www.w3.org/1999/xlink" viewBox="0 0 2187.11 1820.94"><defs><style>.cls-1{fill:none;}.cls-2{fill:#ebf2f9;}.cls-3{fill:#2b478b;}.cls-4{fill:url(#linear-gradient);}.cls-5{clip-path:url(#clip-path);}.cls-6{opacity:0.69;}.cls-7{fill:url(#linear-gradient-2);}.cls-8{fill:url(#linear-gradient-3);}.cls-9{fill:url(#linear-gradient-4);}.cls-10{fill:url(#linear-gradient-5);}.cls-11{fill:url(#linear-gradient-6);}.cls-12{fill:url(#linear-gradient-7);}.cls-13{fill:url(#linear-gradient-8);}.cls-14{fill:url(#linear-gradient-9);}.cls-15{fill:url(#linear-gradient-10);}.cls-16{fill:url(#linear-gradient-11);}.cls-17{fill:url(#linear-gradient-12);}.cls-18{fill:url(#linear-gradient-13);}.cls-19{fill:url(#linear-gradient-14);}.cls-20{fill:url(#linear-gradient-15);}.cls-21{fill:url(#linear-gradient-16);}.cls-22{fill:url(#linear-gradient-17);}.cls-23{fill:url(#linear-gradient-18);}.cls-24{fill:url(#linear-gradient-19);}.cls-25{fill:url(#linear-gradient-20);}.cls-26{fill:url(#linear-gradient-21);}.cls-27{fill:url(#linear-gradient-22);}.cls-28{fill:url(#linear-gradient-23);}.cls-29{fill:url(#linear-gradient-24);}.cls-30{fill:url(#linear-gradient-25);}.cls-31{fill:url(#linear-gradient-26);}.cls-32{fill:url(#linear-gradient-27);}.cls-33{fill:url(#linear-gradient-28);}.cls-34{fill:#f99746;}.cls-35,.cls-36,.cls-38{fill:#fff;}.cls-35{opacity:0.36;}.cls-37{fill:url(#linear-gradient-29);}.cls-38{opacity:0.19;}.cls-39{fill:url(#linear-gradient-30);}.cls-40{fill:#bdd0fb;}.cls-41{fill:url(#linear-gradient-31);}.cls-42{fill:url(#linear-gradient-32);}.cls-43{fill:url(#linear-gradient-33);}.cls-44{fill:url(#linear-gradient-34);}.cls-45{fill:url(#linear-gradient-35);}.cls-46{fill:url(#linear-gradient-36);}.cls-47{fill:url(#linear-gradient-37);}.cls-48{fill:url(#linear-gradient-38);}.cls-49{fill:url(#linear-gradient-39);}.cls-50{fill:url(#linear-gradient-40);}.cls-51{fill:url(#linear-gradient-41);}.cls-52{fill:url(#linear-gradient-42);}.cls-53{fill:url(#linear-gradient-43);}.cls-54{fill:url(#linear-gradient-44);}.cls-55{fill:url(#linear-gradient-45);}.cls-56{fill:url(#linear-gradient-46);}.cls-57{fill:url(#linear-gradient-47);}.cls-58{fill:#91b3fa;}</style><linearGradient id="linear-gradient" x1="795.93" y1="998.21" x2="807.49" y2="998.21" gradientUnits="userSpaceOnUse"><stop offset="0" stop-color="#dae3fe"/><stop offset="1" stop-color="#e9effd"/></linearGradient><clipPath id="clip-path"><polygon class="cls-1" points="1317.1 399.8 806.67 346.99 296.25 406.7 296.25 1677.12 806.67 1645.67 1317.1 1680.53 1826.89 1627.32 1826.89 370.27 1317.1 399.8"/></clipPath><linearGradient id="linear-gradient-2" x1="1507.23" y1="494.99" x2="1922.64" y2="-253.35" gradientUnits="userSpaceOnUse"><stop offset="0" stop-color="#4f52ff"/><stop offset="1" stop-color="#4042e2"/></linearGradient><linearGradient id="linear-gradient-3" x1="938.89" y1="179.5" x2="1354.29" y2="-568.84" xlink:href="#linear-gradient-2"/><linearGradient id="linear-gradient-4" x1="2058.81" y1="801.17" x2="2474.22" y2="52.83" xlink:href="#linear-gradient-2"/><linearGradient id="linear-gradient-5" x1="1357.63" y1="411.94" x2="1773.04" y2="-336.39" xlink:href="#linear-gradient-2"/><linearGradient id="linear-gradient-6" x1="293.95" y1="975.33" x2="799.25" y2="975.33" xlink:href="#linear-gradient"/><linearGradient id="linear-gradient-7" x1="271.92" y1="1362.15" x2="508.08" y2="1362.15" xlink:href="#linear-gradient"/><linearGradient id="linear-gradient-8" x1="925.39" y1="1077.37" x2="1347.04" y2="1077.37" xlink:href="#linear-gradient"/><linearGradient id="linear-gradient-9" x1="1422.95" y1="1172.47" x2="1646.2" y2="1172.47" xlink:href="#linear-gradient"/><linearGradient id="linear-gradient-10" x1="1539.35" y1="556.48" x2="1844.52" y2="556.48" xlink:href="#linear-gradient"/><linearGradient id="linear-gradient-11" x1="942.02" y1="638.68" x2="1295.86" y2="638.68" xlink:href="#linear-gradient"/><linearGradient id="linear-gradient-12" x1="579.55" y1="549.55" x2="803.45" y2="549.55" xlink:href="#linear-gradient"/><linearGradient id="linear-gradient-13" x1="1459.94" y1="505.36" x2="1612.24" y2="505.36" xlink:href="#linear-gradient"/><linearGradient id="linear-gradient-14" x1="1688.64" y1="1100.61" x2="1851.8" y2="1100.61" xlink:href="#linear-gradient"/><linearGradient id="linear-gradient-15" x1="489.35" y1="1501.15" x2="934.09" y2="1501.15" xlink:href="#linear-gradient"/><linearGradient id="linear-gradient-16" x1="921.82" y1="1453.32" x2="1507.66" y2="1453.32" xlink:href="#linear-gradient"/><linearGradient id="linear-gradient-17" x1="875.58" y1="144.35" x2="1290.98" y2="-603.98" xlink:href="#linear-gradient-2"/><linearGradient id="linear-gradient-18" x1="1826.75" y1="672.35" x2="2242.16" y2="-75.98" xlink:href="#linear-gradient-2"/><linearGradient id="linear-gradient-19" x1="1092.75" y1="264.9" x2="1508.15" y2="-483.43" xlink:href="#linear-gradient-2"/><linearGradient id="linear-gradient-20" x1="1567.43" y1="528.4" x2="1982.84" y2="-219.93" xlink:href="#linear-gradient-2"/><linearGradient id="linear-gradient-21" x1="1190.33" y1="319.07" x2="1605.73" y2="-429.27" xlink:href="#linear-gradient-2"/><linearGradient id="linear-gradient-22" x1="1585.16" y1="538.25" x2="2000.57" y2="-210.09" xlink:href="#linear-gradient-2"/><linearGradient id="linear-gradient-23" x1="1218.35" y1="334.63" x2="1633.76" y2="-413.71" xlink:href="#linear-gradient-2"/><linearGradient id="linear-gradient-24" x1="1117.09" y1="278.42" x2="1532.49" y2="-469.92" xlink:href="#linear-gradient-2"/><linearGradient id="linear-gradient-25" x1="1426.12" y1="449.96" x2="1841.52" y2="-298.38" xlink:href="#linear-gradient-2"/><linearGradient id="linear-gradient-26" x1="1531.57" y1="508.49" x2="1946.97" y2="-239.84" xlink:href="#linear-gradient-2"/><linearGradient id="linear-gradient-27" x1="964.83" y1="785.23" x2="1094.5" y2="785.23" xlink:href="#linear-gradient"/><linearGradient id="linear-gradient-28" x1="1265.32" y1="360.7" x2="1680.72" y2="-387.64" xlink:href="#linear-gradient-2"/><linearGradient id="linear-gradient-29" x1="2913.73" y1="1204.84" x2="3586.38" y2="1204.84" gradientTransform="translate(-2372 949.79) rotate(-12.26)" gradientUnits="userSpaceOnUse"><stop offset="0" stop-color="#09005d"/><stop offset="1" stop-color="#1a0f91"/></linearGradient><linearGradient id="linear-gradient-30" x1="1046.93" y1="845.41" x2="1693.96" y2="40.32" gradientTransform="translate(246.9 280.35) rotate(7.23)" xlink:href="#linear-gradient-29"/><linearGradient id="linear-gradient-31" x1="15413.39" y1="1614.24" x2="15011.44" y2="2051.44" gradientTransform="translate(-14711.21 -56.58) rotate(0.54)" xlink:href="#linear-gradient-29"/><linearGradient id="linear-gradient-32" x1="15282.92" y1="1646.71" x2="15318.63" y2="1646.71" gradientTransform="translate(-14711.21 -56.58) rotate(0.54)" gradientUnits="userSpaceOnUse"><stop offset="0" stop-color="#febbba"/><stop offset="1" stop-color="#ff928e"/></linearGradient><linearGradient id="linear-gradient-33" x1="15402.11" y1="1200.54" x2="15132.56" y2="1522.89" gradientTransform="translate(-14711.21 -56.58) rotate(0.54)" xlink:href="#linear-gradient-29"/><linearGradient id="linear-gradient-34" x1="15323.22" y1="1531.33" x2="14921.26" y2="1968.55" gradientTransform="translate(-14711.21 -56.58) rotate(0.54)" xlink:href="#linear-gradient-29"/><linearGradient id="linear-gradient-35" x1="15154.25" y1="1644.87" x2="15185.07" y2="1644.87" xlink:href="#linear-gradient-32"/><linearGradient id="linear-gradient-36" x1="15352.84" y1="1147.8" x2="15028.14" y2="1536.11" gradientTransform="translate(-14711.21 -56.58) rotate(0.54)" xlink:href="#linear-gradient-29"/><linearGradient id="linear-gradient-37" x1="15429.88" y1="715.23" x2="15612.29" y2="715.23" xlink:href="#linear-gradient-32"/><linearGradient id="linear-gradient-38" x1="880.99" y1="890.35" x2="895.52" y2="745.03" gradientTransform="matrix(1, 0, 0, 1, 0, 0)" xlink:href="#linear-gradient-32"/><linearGradient id="linear-gradient-39" x1="895.76" y1="560.94" x2="902.54" y2="801.24" gradientTransform="matrix(1, 0, 0, 1, 0, 0)" xlink:href="#linear-gradient-32"/><linearGradient id="linear-gradient-40" x1="15030.73" y1="973.59" x2="15261.57" y2="973.59" xlink:href="#linear-gradient-32"/><linearGradient id="linear-gradient-41" x1="15207.99" y1="726.82" x2="15299.26" y2="726.82" xlink:href="#linear-gradient-32"/><linearGradient id="linear-gradient-42" x1="7296.53" y1="8697.14" x2="7262.43" y2="8584.66" gradientTransform="matrix(0.75, -0.66, 0.66, 0.75, -10615.46, -978.18)" xlink:href="#linear-gradient-32"/><linearGradient id="linear-gradient-43" x1="7265.76" y1="8501.15" x2="7294.29" y2="8663.87" gradientTransform="matrix(0.75, -0.66, 0.66, 0.75, -10615.46, -978.18)" xlink:href="#linear-gradient-29"/><linearGradient id="linear-gradient-44" x1="7261.67" y1="8696.62" x2="7230.98" y2="8595.41" gradientTransform="matrix(0.75, -0.66, 0.66, 0.75, -10615.46, -978.18)" xlink:href="#linear-gradient-32"/><linearGradient id="linear-gradient-45" x1="15058.12" y1="913.13" x2="15185.5" y2="1443.86" gradientTransform="translate(-14455.12)" xlink:href="#linear-gradient-29"/><linearGradient id="linear-gradient-46" x1="14970.84" y1="1053.53" x2="15043.01" y2="1053.53" gradientTransform="translate(-14455.12)" xlink:href="#linear-gradient-32"/><linearGradient id="linear-gradient-47" x1="634.17" y1="987.5" x2="665.97" y2="987.5" xlink:href="#linear-gradient-2"/></defs><title>Монтажная область 2 copy 8</title><g id="Layer_8" data-name="Layer 8"><path class="cls-2" d="M1072.34,18.68C480.1,18.68,0,498.78,0,1091c0,275.08,103.59,526,273.87,715.78H1870.81C2041.09,1617,2144.68,1366.1,2144.68,1091,2144.68,498.78,1664.58,18.68,1072.34,18.68Z"/><polygon class="cls-3" points="1333.17 364.58 795.96 308.91 258.74 371.87 258.74 1711.06 795.96 1677.91 1333.17 1714.66 1869.72 1658.56 1869.72 333.45 1333.17 364.58"/><polygon class="cls-3" points="807.49 1647.38 297.06 1678.82 297.06 408.41 807.49 348.69 807.49 1647.38"/><polygon class="cls-3" points="1317.91 1682.24 807.49 1647.38 807.49 348.69 1317.91 401.5 1317.91 1682.24"/><polygon class="cls-3" points="1827.71 1629.03 1317.91 1682.24 1317.91 401.5 1827.71 371.98 1827.71 1629.03"/><rect class="cls-4" x="795.93" y="348.69" width="11.56" height="1299.04"/><g class="cls-5"><g class="cls-6"><polygon class="cls-7" points="1465.69 414.33 1598.03 515.58 1507.83 600.15 1401.52 501.25 1465.69 414.33"/><polygon class="cls-8" points="598.02 613.09 609.06 501.25 801.71 557.17 801.71 699.05 598.02 613.09"/><polygon class="cls-9" points="1701.12 1308.86 1807.96 1255.51 1822.42 1363.73 1729.03 1393.73 1701.12 1308.86"/><polygon class="cls-10" points="694.43 1394.98 801.71 1450.16 908.65 1432.48 898.99 1359.36 801.71 1336.86 694.43 1394.98"/><polygon class="cls-11" points="585.04 616.3 293.95 718.79 300.17 742.72 342.21 727.92 611.57 813.1 616.07 793.79 373.22 717 581.62 643.62 776.04 792.91 749.29 1008.34 536.67 1025.91 349.69 1319.47 366.94 1334.36 548.04 1050.04 768.07 1031.85 799.25 780.78 585.04 616.3"/><polygon class="cls-12" points="494.19 1481.36 271.92 1262.01 285.81 1242.94 508.08 1462.29 494.19 1481.36"/><polygon class="cls-13" points="1347.05 1262.77 1214.41 882.55 1194.51 891.96 1264.29 1092 925.39 1213.31 931.71 1237.21 1272.4 1115.25 1327.15 1272.18 1347.05 1262.77"/><polygon class="cls-14" points="1630.39 1188.8 1565.81 1270.57 1438.26 979.16 1422.95 988.24 1553.33 1286.11 1553.73 1285.87 1503.99 1348.85 1519.8 1365.77 1646.2 1205.72 1630.39 1188.8"/><path class="cls-15" d="M1552.72,683.53l-12.47-20.36a9.59,9.59,0,0,0-.9.85c6.83-7.77,99.37-138.14,159.91-223.88l7.56-10.7,137.7,161.92L1829.26,609l-121-142.23c-13.29,18.81-42.21,59.69-71.18,100.46C1556.88,680.07,1554.67,681.91,1552.72,683.53Z"/><polygon class="cls-16" points="1275.25 816.04 1232.1 644.09 1179.36 487.35 943.29 503.69 942.02 478.73 1193.66 461.31 1252.58 636.55 1295.86 809.03 1275.25 816.04"/><polygon class="cls-17" points="596.68 618.38 579.55 616.86 588.49 480.71 803.45 532.43 799.97 552.02 604.14 504.9 596.68 618.38"/><polygon class="cls-18" points="1505.14 614.75 1494.41 599.12 1583.82 516 1459.94 412.2 1469.98 395.96 1612.24 515.17 1505.14 614.75"/><polygon class="cls-19" points="1851.8 1388.14 1709.31 800.05 1688.64 806.84 1796.18 1250.68 1695.58 1300.92 1702.36 1319.3 1799.02 1271.03 1810.6 1357.71 1735.34 1381.89 1739.91 1401.17 1825.95 1373.53 1831.13 1394.92 1851.8 1388.14"/><polygon class="cls-20" points="805.38 1622.1 489.35 1475.73 497.29 1452.5 797.7 1591.63 883.21 1452.41 806.35 1473.78 675.41 1402.86 684.47 1380.2 808.63 1447.44 934.09 1412.56 805.38 1622.1"/><polygon class="cls-21" points="1491.89 1353.67 1276.83 1624.64 1058.33 1388.17 935.28 1207.37 921.82 1219.79 1045.27 1401.19 1045.67 1401.79 1265.17 1639.33 1231.07 1682.3 1246.84 1699.27 1507.66 1370.63 1491.89 1353.67"/></g><path class="cls-22" d="M871.24,805.35l-75.06-96.64C628,639.69,436.41,568.33,287.8,560.13l.92-22.48c151.79,8.38,346.12,80.93,516.2,150.79l2.31.95,78.34,100.86Z"/><path class="cls-23" d="M1815.21,1575.21c-163.84-117.09-349.17-246-477.93-295.82L918.73,1459.24,912,1438.13l424.86-182.56,3.19,1.21C1471,1306.47,1659.18,1437.3,1825.33,1556Z"/><polygon class="cls-24" points="997.94 724.66 869.44 354.35 887.37 345.92 1015.86 716.23 997.94 724.66"/><path class="cls-25" d="M1580.24,827.17c-33.24-150.11-97.27-253.48-195.76-316l9.26-19.75c54.34,34.51,99.4,81.59,133.92,139.92,31.37,53,54.69,115.22,71.3,190.25Z"/><polygon class="cls-26" points="576.86 1444.15 560.73 1431.56 750.61 1091.27 766.75 1103.86 576.86 1444.15"/><polygon class="cls-27" points="1633.57 839.95 1075.73 814.06 1076.5 791.58 1630.13 817.27 1833.23 720.35 1840.56 741.17 1633.57 839.95"/><polygon class="cls-28" points="300.54 1573.96 293.58 1552.96 800.38 1325.39 899.94 1336.91 898.03 1359.3 803.04 1348.32 300.54 1573.96"/><path class="cls-29" d="M953.65,1117.15c-217.59-2.69-421.52-15.56-525.52-141.9l13.95-15.57c98.82,120,298.47,132.34,511.77,135Z"/><polygon class="cls-30" points="934.55 1649.6 889.07 1334.18 889.76 1331.61 1020.77 845.4 1079.49 729.68 1311.87 583.48 1466.88 384.89 1481.18 400.03 1323.96 601.45 1093.4 746.5 1038.55 854.61 908.9 1335.78 953.62 1645.87 934.55 1649.6"/><polygon class="cls-31" points="1837.62 1625.43 1566.1 1053.47 1064.15 839.4 974.8 814.59 650.55 786.06 292.51 1091.49 281.08 1073.34 644.89 763 648.45 763.31 977.79 792.29 1069.73 817.82 1070.26 818.04 1579.52 1035.23 1581.27 1038.9 1854.53 1614.54 1837.62 1625.43"/></g><ellipse class="cls-32" cx="1029.66" cy="785.23" rx="64.84" ry="64.78"/><ellipse class="cls-33" cx="1029.66" cy="785.23" rx="46.46" ry="46.42"/><circle class="cls-34" cx="1386.12" cy="1430.33" r="85.2" transform="translate(-605.41 1399.07) rotate(-45)"/><path class="cls-34" d="M1815.44,489.68c0,162-244,575.42-371.18,779.32-9.86,15.83-31.12,25.44-70.47,25.44-18.64,0-11.31-9.65-21.17-25.48C1225.48,1065,981.46,651.69,981.46,489.68c0-211.28,186.69-382.56,417-382.56S1815.44,278.4,1815.44,489.68Z"/><path class="cls-34" d="M1790.78,489.68c0,162-244,575.42-371.18,779.32a54,54,0,0,1-91.64,0C1200.82,1065,956.8,651.69,956.8,489.68c0-211.28,186.7-382.56,417-382.56S1790.78,278.4,1790.78,489.68Z"/><circle class="cls-35" cx="1383.97" cy="507.27" r="254.5" transform="translate(46.66 1127.19) rotate(-45)"/><circle class="cls-35" cx="1359.3" cy="482.26" r="185.04"/><path class="cls-36" d="M1373.79,830.06c-170.56,0-309.33-138.77-309.33-309.34a5.54,5.54,0,1,1,11.08,0c0,164.46,133.8,298.25,298.25,298.25s298.26-133.79,298.26-298.25-133.8-298.25-298.26-298.25c-95.09,0-182.29,43.78-239.22,120.1a5.54,5.54,0,1,1-8.88-6.63c59-79.15,149.48-124.55,248.1-124.55,170.57,0,309.34,138.76,309.34,309.33S1544.36,830.06,1373.79,830.06Z"/><path class="cls-37" d="M1121.42,1258.35,558.65,1613.61a47.88,47.88,0,0,0-12.82,69.12l2.74,3.67a44.5,44.5,0,0,0,62.52,8.89l533.72-403.48Z"/><ellipse class="cls-38" cx="1373.24" cy="1063.5" rx="308.72" ry="303.15" transform="translate(-194.57 315.98) rotate(-12.26)"/><path class="cls-39" d="M1301.59,733.87c-185.4,40.29-303.61,220.54-264,402.59s221.94,297,407.34,256.67,303.6-220.55,264-402.6S1487,693.57,1301.59,733.87Zm132.77,610.83c-158.16,34.38-313.74-63.65-347.5-219S1154,816.67,1312.11,782.29s313.74,63.65,347.5,219S1592.52,1310.33,1434.36,1344.7Z"/><path class="cls-40" d="M1071.35,1170.37a.89.89,0,0,1-.72-.58c-2.68-7.56-5.1-15.32-7.19-23.08a.88.88,0,1,1,1.7-.46c2.08,7.72,4.48,15.44,7.15,23a.88.88,0,0,1-.54,1.12A.92.92,0,0,1,1071.35,1170.37Zm-17.73-92.68a.86.86,0,0,1-.77-.84,309.68,309.68,0,0,1,4.61-65.61,316,316,0,0,1,83.35-163.16,325.93,325.93,0,0,1,344.3-80.9.88.88,0,1,1-.6,1.66,324.15,324.15,0,0,0-342.43,80.46,314.11,314.11,0,0,0-82.88,162.25,306.82,306.82,0,0,0-4.59,65.24.89.89,0,0,1-.85.91Z"/><path class="cls-40" d="M587,1689.87c-19.6-2.49-31.42-10.93-35.15-25.12-3.8-14.43,2.43-30,15.5-38.63l67.16-44.56a.88.88,0,0,1,1.22.25.89.89,0,0,1-.25,1.22l-67.16,44.56c-12.44,8.26-18.38,23-14.77,36.72,3.57,13.56,15,21.6,34.28,23.89h0a.88.88,0,0,1-.21,1.74Z"/><path class="cls-40" d="M655.52,1569.44a.9.9,0,0,1-.62-.39.88.88,0,0,1,.25-1.22l8.7-5.77a.88.88,0,1,1,1,1.46l-8.71,5.78A.91.91,0,0,1,655.52,1569.44Z"/><path class="cls-41" d="M559.48,1735.44s-4.39,23.53-6.65,46.84a16.06,16.06,0,0,0,15.2,17.56c31.06,1.59,97.49,4.74,121.34,3.9a5.23,5.23,0,0,0,4.67-7.12,11.66,11.66,0,0,0-5.93-6.36l-109.28-51.5Z"/><path class="cls-42" d="M556.2,1721.56l3.07,28.22s19.15,9.14,32.37-.82L584,1717.47Z"/><path class="cls-43" d="M563.77,1191.63c-1.52,7.35-11.26,367.27,25.68,529a5.48,5.48,0,0,1-3.27,6.34,95.42,95.42,0,0,1-31.4,6.07,9.43,9.43,0,0,1-9.29-6.86c-10.65-37.53-61.56-225.57-66.73-404.77-5.77-200.25.07-6.82.07-6.82l5.68-123.69Z"/><path class="cls-44" d="M433.09,1746.53s-6.74,11.83-13.46,43.39a9.8,9.8,0,0,0,8.52,11.82c10.25,1.11,26,2.56,38.68,2.59a9.77,9.77,0,0,0,9.78-10.81c-1.29-11.56-5.47-30.53-18.82-45.41Z"/><path class="cls-45" d="M427.62,1710.22l7.4,42.7s7.68,5.82,23,1.8l-3.29-45.9Z"/><path class="cls-46" d="M411.36,1201.22c-33.28,189.64,2.35,469.5,14.74,524.33a8.53,8.53,0,0,0,6.83,6.54c5.75,1,15.24,1.88,24.62-.75a7.8,7.8,0,0,0,5.69-7.14c2.16-44.21,1.63-315.75,32-422.78a24.3,24.3,0,0,1,9.53-13.35l57.3-39.92,5-65.37Z"/><path class="cls-34" d="M615.33,843.26c-94.3-2.46-198.62,22.87-198.62,22.87-29.67,163.76-8.28,353.19-8.28,353.19,72.83,19.85,155.49-10.22,155.49-10.22,12.79-68.45,71.25-260.87,71.25-260.87C681.31,943,719.4,930,750.82,912.74c-23.58-27.87-34.48-63.15-39.17-84C678.21,838.8,644.41,844,615.33,843.26Z"/><path class="cls-47" d="M895.24,707c-9.16-11.27-20.94-6.09-20.94-6.09-14.44,58.49-87.66,105.33-162.65,127.86,4.69,20.83,15.59,56.11,39.17,84C875.57,844.16,895.24,707,895.24,707Z"/><path class="cls-48" d="M893,709.82c.94,3.09-10.33,7.68-16.82-5-.17-6.05-3.6-32,.06-36.85,19.47-26,57.06-58.53,57.06-58.53,6.24,6.28,1,12.34,1,12.34L916,640.45c3.72,6.87,8.28,12.69,10.36,21a25.33,25.33,0,0,1-2.71,18.63c-3.22,5.69-7.63,13.08-11.77,18.86C904,709.84,893,709.82,893,709.82Z"/><path class="cls-49" d="M908,652.6l-16.62,13.81-5.3,13.86,14.53,16.44s5.21-27.55,8.94-33.49S911.37,654.38,908,652.6Z"/><path class="cls-34" d="M452,957.79l-35.31-91.66s-88.66,59-103.87,134.76c16.63,1.39,46.88,6,76.38,21.26C396.08,986.38,452,957.79,452,957.79Z"/><path class="cls-50" d="M528.18,1044.46s-99.44,55-132.36,6.91c-6.83-10-8.39-19.85-6.6-29.22-29.5-15.25-59.75-19.87-76.38-21.26-4.59,22.84-2.51,47.2,10.7,71.92C381,1180.3,541,1069,541,1069Z"/><path class="cls-51" d="M520.53,765.78l-30.84,86.49a3.12,3.12,0,0,0,1.39,3.78c8.14,4.6,37.48,18,73.21-4.22a14.69,14.69,0,0,0,6.88-10.45l10.44-75Z"/><path class="cls-52" d="M586.59,686s32.36,62.35,27.9,87.37-45.29,22.82-80.76,2.13l-24.28-67.21Z"/><path class="cls-53" d="M535.62,742.66a2.56,2.56,0,0,0,1.15-3.74c-2.6-4-7.47-12.33-9-19.55,0,0-5.89-3.85,15.16-8.68s52.45-12.33,59.2-30.14c6.58-17.37-9.86-61.36-37.1-26.69a2.55,2.55,0,0,1-4,0c-4.36-5.78-15.84-17.81-32-10.74-15.13,6.62-16.94,17.64-16.78,23.21a2.55,2.55,0,0,1-3,2.57c-7.6-1.53-25.87-2.95-34.58,15.72-7.17,15.38-2.69,24.16,1.43,28.48a2.55,2.55,0,0,1-1.13,4.22c-5,1.49-11.53,5.67-11,17.4.74,16.23,18.88,15,24,14.28a2.59,2.59,0,0,1,2.26.82c4.38,4.94,24.12,25.93,45.68,28.64a2.57,2.57,0,0,0,2.73-3.38l-9.08-27.24a2.58,2.58,0,0,1,1.42-3.17Z"/><path class="cls-54" d="M539.34,746.54s-23.31-16.32-25.15-2.78,20.94,19.84,32.3,14.89Z"/><path class="cls-55" d="M507.86,1131.31,562,942.14a5.49,5.49,0,0,1,4.66-4c9.82-1.15,38.26-4.36,71.09-7.14,39.55-3.35,85.49-6.06,112.93-3.75a5.54,5.54,0,0,1,4.53,8c-15.61,31.58-79.81,160-112,202.1a5.56,5.56,0,0,1-4.47,2.2l-125.68-1.17A5.53,5.53,0,0,1,507.86,1131.31Z"/><path class="cls-56" d="M521,1085.61s-7.55-31-4.5-42,8.94-25.16,28.59-22S587.89,1033,587.89,1033s-1.17,14.34-16.11,9.71l9.26,7.17s-1.32,11.48-13.94,5.35l8.62,9.5s-5.42,9.43-14.71,3.39S547.28,1089.34,521,1085.61Z"/><path class="cls-57" d="M634.17,987.5a15.9,15.9,0,1,0,15.9-15.9A15.9,15.9,0,0,0,634.17,987.5Z"/><path class="cls-58" d="M568.16,998l11-37.41a12.81,12.81,0,0,1,9.64-9c34.56-7.21,129.18-8.74,130.13-8.75l-.06-4.23c-3.91.06-96,1.55-130.94,8.85a17.05,17.05,0,0,0-12.83,11.94l-11,37.42Z"/></g></svg>