<svg xmlns="http://www.w3.org/2000/svg" xmlns:xlink="http://www.w3.org/1999/xlink" viewBox="0 0 1080 1080"><defs><style>.cls-1{isolation:isolate;}.cls-2{fill:url(#linear-gradient);}.cls-3,.cls-6{fill:#8193ca;}.cls-4{opacity:0.53;}.cls-5{fill:#98b1dc;}.cls-6{mix-blend-mode:overlay;}.cls-10,.cls-44,.cls-7{fill:#fff;}.cls-8{fill:#ea8439;}.cls-9{fill:#f89748;}.cls-10,.cls-11{opacity:0.8;}.cls-12{opacity:0.56;}.cls-13{fill:url(#linear-gradient-2);}.cls-14{fill:url(#linear-gradient-3);}.cls-15{fill:url(#linear-gradient-4);}.cls-16{fill:url(#linear-gradient-5);}.cls-17{fill:url(#linear-gradient-6);}.cls-18{fill:url(#linear-gradient-7);}.cls-19{fill:url(#linear-gradient-8);}.cls-20{fill:url(#linear-gradient-9);}.cls-21{fill:url(#linear-gradient-10);}.cls-22{fill:url(#linear-gradient-11);}.cls-23{fill:url(#linear-gradient-12);}.cls-24{fill:url(#linear-gradient-13);}.cls-25{fill:url(#linear-gradient-14);}.cls-26{fill:url(#linear-gradient-15);}.cls-27{fill:url(#linear-gradient-16);}.cls-28{fill:url(#linear-gradient-17);}.cls-29{fill:url(#linear-gradient-18);}.cls-30{fill:url(#linear-gradient-19);}.cls-31{fill:url(#linear-gradient-20);}.cls-32{fill:url(#linear-gradient-21);}.cls-33{fill:url(#linear-gradient-22);}.cls-34{fill:url(#linear-gradient-23);}.cls-35{fill:url(#linear-gradient-24);}.cls-36{fill:url(#linear-gradient-25);}.cls-37{fill:url(#linear-gradient-26);}.cls-38{fill:url(#linear-gradient-27);}.cls-39{fill:url(#linear-gradient-28);}.cls-40{fill:url(#linear-gradient-29);}.cls-41{fill:url(#linear-gradient-30);}.cls-42{fill:url(#linear-gradient-31);}.cls-43{fill:#f4c24a;}.cls-44{opacity:0.37;}.cls-45{fill:url(#linear-gradient-32);}.cls-46{fill:url(#linear-gradient-33);}.cls-47{fill:url(#linear-gradient-34);}.cls-48{fill:url(#linear-gradient-35);}.cls-49{fill:url(#linear-gradient-36);}.cls-50{fill:url(#linear-gradient-37);}.cls-51{fill:url(#linear-gradient-38);}.cls-52{fill:url(#linear-gradient-39);}.cls-53{fill:url(#linear-gradient-40);}.cls-54{fill:url(#linear-gradient-41);}.cls-55{fill:url(#linear-gradient-42);}.cls-56{fill:url(#linear-gradient-43);}.cls-57{fill:url(#linear-gradient-44);}.cls-58{fill:url(#linear-gradient-45);}.cls-59{fill:url(#linear-gradient-46);}.cls-60{fill:url(#linear-gradient-47);}.cls-61{fill:url(#linear-gradient-48);}.cls-62{fill:url(#linear-gradient-49);}.cls-63{fill:url(#linear-gradient-50);}.cls-64{fill:url(#linear-gradient-51);}.cls-65{fill:url(#linear-gradient-52);}.cls-66{fill:url(#linear-gradient-53);}.cls-67{fill:url(#linear-gradient-54);}.cls-68{fill:url(#linear-gradient-55);}.cls-69{fill:url(#linear-gradient-56);}.cls-70{fill:url(#linear-gradient-57);}.cls-71{fill:url(#linear-gradient-58);}.cls-72{fill:url(#linear-gradient-59);}.cls-73{fill:url(#linear-gradient-60);}.cls-74{fill:url(#linear-gradient-61);}.cls-75{fill:url(#linear-gradient-62);}.cls-76{fill:url(#linear-gradient-63);}.cls-77{fill:url(#linear-gradient-64);}.cls-78{fill:url(#linear-gradient-65);}.cls-79{fill:url(#linear-gradient-66);}.cls-80{fill:url(#linear-gradient-67);}.cls-81{fill:url(#linear-gradient-68);}.cls-82{fill:url(#linear-gradient-69);}.cls-83{fill:url(#linear-gradient-70);}.cls-84{fill:url(#linear-gradient-71);}.cls-85{fill:url(#linear-gradient-72);}.cls-86{fill:url(#linear-gradient-73);}.cls-87{fill:url(#linear-gradient-74);}.cls-88{fill:url(#linear-gradient-75);}.cls-89{fill:url(#linear-gradient-76);}.cls-90{fill:url(#linear-gradient-77);}.cls-91{fill:url(#linear-gradient-78);}.cls-92{fill:url(#linear-gradient-79);}.cls-93{fill:url(#linear-gradient-80);}.cls-94{fill:url(#linear-gradient-81);}.cls-95{fill:url(#linear-gradient-82);}.cls-96{fill:url(#linear-gradient-83);}.cls-97{fill:url(#linear-gradient-84);}.cls-98{fill:url(#linear-gradient-85);}.cls-99{fill:url(#linear-gradient-86);}.cls-100{fill:url(#linear-gradient-87);}.cls-101{fill:url(#linear-gradient-88);}.cls-102{fill:url(#linear-gradient-89);}.cls-103{fill:url(#linear-gradient-90);}.cls-104{fill:url(#linear-gradient-91);}.cls-105{fill:url(#linear-gradient-92);}.cls-106{fill:url(#linear-gradient-93);}.cls-107{fill:url(#linear-gradient-94);}.cls-108{fill:url(#linear-gradient-95);}.cls-109{fill:url(#linear-gradient-96);}.cls-110{fill:url(#linear-gradient-97);}.cls-111{fill:url(#linear-gradient-98);}.cls-112{fill:url(#linear-gradient-99);}.cls-113{fill:url(#linear-gradient-100);}.cls-114{fill:url(#linear-gradient-101);}.cls-115{fill:url(#linear-gradient-102);}.cls-116{fill:url(#linear-gradient-103);}.cls-117{fill:url(#linear-gradient-104);}.cls-118{fill:url(#linear-gradient-105);}.cls-119{fill:url(#linear-gradient-106);}.cls-120{fill:url(#linear-gradient-107);}.cls-121{fill:#e0ab33;}.cls-122{fill:url(#linear-gradient-108);}.cls-123{fill:#23375c;}.cls-124{fill:#010101;}.cls-125{fill:#f79e86;}.cls-126{fill:#2d4d9d;}.cls-127{fill:#c43f52;}.cls-128{fill:#481f54;}.cls-129{opacity:0.54;}.cls-130{fill:url(#linear-gradient-109);}.cls-131{fill:#1a3854;}.cls-132{fill:#231f20;}.cls-133{fill:url(#linear-gradient-110);}.cls-134{fill:url(#linear-gradient-111);}.cls-135{fill:url(#linear-gradient-112);}.cls-136{fill:#e5b038;}.cls-137{fill:#ffd38e;}.cls-138{fill:url(#linear-gradient-113);}.cls-139{fill:url(#linear-gradient-114);}.cls-140{fill:url(#linear-gradient-115);}.cls-141{fill:url(#linear-gradient-116);}.cls-142{fill:url(#linear-gradient-117);}.cls-143{fill:url(#linear-gradient-118);}</style><linearGradient id="linear-gradient" x1="9.46" y1="593.22" x2="1074.18" y2="593.22" gradientUnits="userSpaceOnUse"><stop offset="0" stop-color="#dbe2f3"/><stop offset="1" stop-color="#eaeff8"/></linearGradient><linearGradient id="linear-gradient-2" x1="263.97" y1="607.31" x2="230.42" y2="643.98" gradientUnits="userSpaceOnUse"><stop offset="0" stop-color="#201b59"/><stop offset="1" stop-color="#2d2d84"/></linearGradient><linearGradient id="linear-gradient-3" x1="245.09" y1="616.93" x2="219.23" y2="643.49" xlink:href="#linear-gradient-2"/><linearGradient id="linear-gradient-4" x1="281.92" y1="624.3" x2="285.59" y2="658.59" gradientTransform="translate(-383.71 408.89) rotate(-46.42)" xlink:href="#linear-gradient-2"/><linearGradient id="linear-gradient-5" x1="288.09" y1="643.75" x2="302.94" y2="692.52" xlink:href="#linear-gradient-2"/><linearGradient id="linear-gradient-6" x1="208.96" y1="630.71" x2="193.37" y2="662.06" gradientTransform="translate(-136.56 1244.56) rotate(-133.58)" xlink:href="#linear-gradient-2"/><linearGradient id="linear-gradient-7" x1="194.23" y1="639.67" x2="194.78" y2="683.3" xlink:href="#linear-gradient-2"/><linearGradient id="linear-gradient-8" x1="180.72" y1="698.58" x2="300.47" y2="698.58" xlink:href="#linear-gradient-2"/><linearGradient id="linear-gradient-9" x1="230.04" y1="736.26" x2="268.76" y2="608.37" xlink:href="#linear-gradient"/><linearGradient id="linear-gradient-10" x1="244.73" y1="696.89" x2="191.53" y2="734.26" xlink:href="#linear-gradient-2"/><linearGradient id="linear-gradient-11" x1="-65.17" y1="688.53" x2="-77.83" y2="706.38" gradientTransform="matrix(-1, 0, 0, 1, 824.68, 0)" gradientUnits="userSpaceOnUse"><stop offset="0" stop-color="#f5928f"/><stop offset="1" stop-color="#f8b2b1"/></linearGradient><linearGradient id="linear-gradient-12" x1="-157.2" y1="867.45" x2="-158.27" y2="936.72" gradientTransform="matrix(-1, 0, 0, 1, 824.68, 0)" xlink:href="#linear-gradient-2"/><linearGradient id="linear-gradient-13" x1="937.66" y1="979.36" x2="1066.91" y2="1020.79" gradientUnits="userSpaceOnUse"><stop offset="0" stop-color="#4c57a6"/><stop offset="1" stop-color="#5560ab"/></linearGradient><linearGradient id="linear-gradient-14" x1="-149.49" y1="955.41" x2="-154.37" y2="997.99" xlink:href="#linear-gradient-11"/><linearGradient id="linear-gradient-15" x1="897.72" y1="982.32" x2="970.71" y2="1013.86" xlink:href="#linear-gradient-13"/><linearGradient id="linear-gradient-16" x1="-97.41" y1="868.37" x2="-98.47" y2="937.64" gradientTransform="matrix(-1, 0, 0, 1, 824.68, 0)" xlink:href="#linear-gradient-2"/><linearGradient id="linear-gradient-17" x1="-109.75" y1="959.96" x2="-114.63" y2="1002.54" xlink:href="#linear-gradient-11"/><linearGradient id="linear-gradient-18" x1="957.58" y1="896.7" x2="784.94" y2="1048.03" xlink:href="#linear-gradient-13"/><linearGradient id="linear-gradient-19" x1="-75.33" y1="665.91" x2="-44.99" y2="808.82" xlink:href="#linear-gradient-11"/><linearGradient id="linear-gradient-20" x1="-111.91" y1="761.1" x2="-97.28" y2="709.51" gradientTransform="matrix(-1, 0, 0, 1, 824.68, 0)" gradientUnits="userSpaceOnUse"><stop offset="0" stop-color="#66cdf3"/><stop offset="1" stop-color="#4a5aa8"/></linearGradient><linearGradient id="linear-gradient-21" x1="451.22" y1="594.16" x2="358.54" y2="724.92" gradientTransform="matrix(-1, 0.1, 0.1, 1, 1259.1, 13.39)" xlink:href="#linear-gradient-2"/><linearGradient id="linear-gradient-22" x1="931.79" y1="573.43" x2="876.91" y2="700.78" xlink:href="#linear-gradient-13"/><linearGradient id="linear-gradient-23" x1="-62.89" y1="658.53" x2="-28.77" y2="819.18" xlink:href="#linear-gradient-11"/><linearGradient id="linear-gradient-24" x1="1045.74" y1="650.13" x2="893.34" y2="837.69" xlink:href="#linear-gradient-2"/><linearGradient id="linear-gradient-25" x1="1124.16" y1="961.85" x2="1030.08" y2="871.08" gradientTransform="translate(-219.44 -97.4) rotate(-4.3)" xlink:href="#linear-gradient-11"/><linearGradient id="linear-gradient-26" x1="1139.06" y1="965.44" x2="1031.43" y2="861.59" gradientTransform="translate(-219.44 -97.4) rotate(-4.3)" xlink:href="#linear-gradient-11"/><linearGradient id="linear-gradient-27" x1="-138.71" y1="682.75" x2="-157.34" y2="763.24" xlink:href="#linear-gradient-11"/><linearGradient id="linear-gradient-28" x1="-1437.66" y1="-1415.63" x2="-1470.7" y2="-1371.92" gradientTransform="matrix(-0.93, -0.36, -0.36, 0.93, -889.33, 1475.93)" xlink:href="#linear-gradient-11"/><linearGradient id="linear-gradient-29" x1="-1462.9" y1="-1405.13" x2="-1423.42" y2="-1405.13" gradientTransform="matrix(-0.93, -0.36, -0.36, 0.93, -889.33, 1475.93)" xlink:href="#linear-gradient-2"/><linearGradient id="linear-gradient-30" x1="-1485.45" y1="-1381.2" x2="-1459.3" y2="-1408.04" gradientTransform="matrix(-0.93, -0.36, -0.36, 0.93, -889.33, 1475.93)" xlink:href="#linear-gradient-11"/><linearGradient id="linear-gradient-31" x1="1094.19" y1="690.3" x2="1024.92" y2="726.54" xlink:href="#linear-gradient-2"/><linearGradient id="linear-gradient-32" x1="-4052.98" y1="888" x2="-4105.12" y2="963.77" gradientTransform="matrix(-1, 0, 0, 1, -3274.28, 0)" xlink:href="#linear-gradient-2"/><linearGradient id="linear-gradient-33" x1="-4051.1" y1="889.29" x2="-4103.24" y2="965.06" gradientTransform="matrix(-1, 0, 0, 1, -3274.28, 0)" xlink:href="#linear-gradient-2"/><linearGradient id="linear-gradient-34" x1="-4048.84" y1="890.85" x2="-4100.98" y2="966.61" gradientTransform="matrix(-1, 0, 0, 1, -3274.28, 0)" xlink:href="#linear-gradient-2"/><linearGradient id="linear-gradient-35" x1="-4044.93" y1="893.54" x2="-4097.07" y2="969.31" gradientTransform="matrix(-1, 0, 0, 1, -3274.28, 0)" xlink:href="#linear-gradient-2"/><linearGradient id="linear-gradient-36" x1="-4042.35" y1="895.31" x2="-4094.49" y2="971.08" gradientTransform="matrix(-1, 0, 0, 1, -3274.28, 0)" xlink:href="#linear-gradient-2"/><linearGradient id="linear-gradient-37" x1="-4040.74" y1="896.42" x2="-4092.88" y2="972.18" gradientTransform="matrix(-1, 0, 0, 1, -3274.28, 0)" xlink:href="#linear-gradient-2"/><linearGradient id="linear-gradient-38" x1="-4055.66" y1="886.15" x2="-4107.8" y2="961.92" gradientTransform="matrix(-1, 0, 0, 1, -3274.28, 0)" xlink:href="#linear-gradient-2"/><linearGradient id="linear-gradient-39" x1="-4037.46" y1="789.57" x2="-4074.08" y2="842.78" gradientTransform="matrix(-1, 0, 0, 1, -3274.28, 0)" xlink:href="#linear-gradient-2"/><linearGradient id="linear-gradient-40" x1="-4036.14" y1="790.48" x2="-4072.76" y2="843.69" gradientTransform="matrix(-1, 0, 0, 1, -3274.28, 0)" xlink:href="#linear-gradient-2"/><linearGradient id="linear-gradient-41" x1="-4034.55" y1="791.57" x2="-4071.17" y2="844.78" gradientTransform="matrix(-1, 0, 0, 1, -3274.28, 0)" xlink:href="#linear-gradient-2"/><linearGradient id="linear-gradient-42" x1="-4031.8" y1="793.46" x2="-4068.42" y2="846.67" gradientTransform="matrix(-1, 0, 0, 1, -3274.28, 0)" xlink:href="#linear-gradient-2"/><linearGradient id="linear-gradient-43" x1="-4029.99" y1="794.71" x2="-4066.61" y2="847.92" gradientTransform="matrix(-1, 0, 0, 1, -3274.28, 0)" xlink:href="#linear-gradient-2"/><linearGradient id="linear-gradient-44" x1="-4028.87" y1="795.49" x2="-4065.48" y2="848.69" gradientTransform="matrix(-1, 0, 0, 1, -3274.28, 0)" xlink:href="#linear-gradient-2"/><linearGradient id="linear-gradient-45" x1="-4039.34" y1="788.28" x2="-4075.96" y2="841.49" gradientTransform="matrix(-1, 0, 0, 1, -3274.28, 0)" xlink:href="#linear-gradient-2"/><linearGradient id="linear-gradient-46" x1="802.02" y1="624.74" x2="598.71" y2="884.86" gradientTransform="matrix(1, 0, 0, 1, 0, 0)" xlink:href="#linear-gradient-11"/><linearGradient id="linear-gradient-47" x1="825.39" y1="692.72" x2="710.88" y2="839.22" gradientTransform="matrix(1, 0, 0, 1, 0, 0)" xlink:href="#linear-gradient-11"/><linearGradient id="linear-gradient-48" x1="653.76" y1="1024.73" x2="721.97" y2="935.21" xlink:href="#linear-gradient-2"/><linearGradient id="linear-gradient-49" x1="3689.06" y1="973.84" x2="3700.01" y2="973.84" gradientTransform="translate(-3025.81)" xlink:href="#linear-gradient-11"/><linearGradient id="linear-gradient-50" x1="3638.74" y1="682.65" x2="3693.4" y2="920.25" gradientTransform="translate(-3025.81)" xlink:href="#linear-gradient-2"/><linearGradient id="linear-gradient-51" x1="621.25" y1="999.96" x2="689.46" y2="910.44" xlink:href="#linear-gradient-2"/><linearGradient id="linear-gradient-52" x1="3649.57" y1="973.28" x2="3659.03" y2="973.28" gradientTransform="translate(-3025.81)" xlink:href="#linear-gradient-11"/><linearGradient id="linear-gradient-53" x1="3620.56" y1="682.6" x2="3675.93" y2="923.26" gradientTransform="translate(-3025.81)" xlink:href="#linear-gradient-2"/><linearGradient id="linear-gradient-54" x1="3665.21" y1="701" x2="3689.84" y2="701" gradientTransform="translate(-3025.81)" xlink:href="#linear-gradient-11"/><linearGradient id="linear-gradient-55" x1="-3268.24" y1="699.54" x2="-3277.44" y2="669.18" gradientTransform="matrix(0.75, -0.67, 0.67, 0.75, 2642.17, -2012.84)" xlink:href="#linear-gradient-11"/><linearGradient id="linear-gradient-56" x1="-3278.7" y1="654.01" x2="-3272.23" y2="690.92" gradientTransform="matrix(0.75, -0.67, 0.67, 0.75, 2642.17, -2012.84)" xlink:href="#linear-gradient-2"/><linearGradient id="linear-gradient-57" x1="-3277.65" y1="699.4" x2="-3285.93" y2="672.08" gradientTransform="matrix(0.75, -0.67, 0.67, 0.75, 2642.17, -2012.84)" xlink:href="#linear-gradient-11"/><linearGradient id="linear-gradient-58" x1="5686.67" y1="773.94" x2="5756.51" y2="773.94" gradientTransform="translate(-5098.92)" xlink:href="#linear-gradient-11"/><linearGradient id="linear-gradient-59" x1="762.27" y1="697.76" x2="724.97" y2="726.53" xlink:href="#linear-gradient-2"/><linearGradient id="linear-gradient-60" x1="5751.32" y1="766.62" x2="5773.08" y2="766.62" gradientTransform="translate(-5098.92)" xlink:href="#linear-gradient-11"/><linearGradient id="linear-gradient-61" x1="385.33" y1="738.07" x2="370.41" y2="829.72" xlink:href="#linear-gradient-2"/><linearGradient id="linear-gradient-62" x1="3721.24" y1="934.9" x2="3732.89" y2="980.42" gradientTransform="translate(-3520)" xlink:href="#linear-gradient-2"/><linearGradient id="linear-gradient-63" x1="497.6" y1="887.35" x2="596.49" y2="887.35" xlink:href="#linear-gradient-2"/><linearGradient id="linear-gradient-64" x1="4061.26" y1="943.84" x2="4171.17" y2="946.61" gradientTransform="translate(-3520)" xlink:href="#linear-gradient-2"/><linearGradient id="linear-gradient-65" x1="2612.85" y1="1639.03" x2="2744.72" y2="1567.89" gradientTransform="translate(-3520)" xlink:href="#linear-gradient-2"/><linearGradient id="linear-gradient-66" x1="2620.84" y1="1653.85" x2="2752.72" y2="1582.72" gradientTransform="translate(-3520)" xlink:href="#linear-gradient-2"/><linearGradient id="linear-gradient-67" x1="4081.94" y1="868.08" x2="4027.32" y2="896.26" gradientTransform="translate(-3520)" gradientUnits="userSpaceOnUse"><stop offset="0" stop-color="#e1483d"/><stop offset="1" stop-color="#e9625a"/></linearGradient><linearGradient id="linear-gradient-68" x1="4112.7" y1="764.52" x2="3988.74" y2="828.49" gradientTransform="translate(-3520)" xlink:href="#linear-gradient-2"/><linearGradient id="linear-gradient-69" x1="4028.69" y1="956.37" x2="4097.99" y2="956.37" gradientTransform="translate(-3520)" xlink:href="#linear-gradient-2"/><linearGradient id="linear-gradient-70" x1="531.32" y1="948.76" x2="569.46" y2="948.76" gradientTransform="matrix(1, 0, 0, 1, 0, 0)" xlink:href="#linear-gradient-11"/><linearGradient id="linear-gradient-71" x1="4076.05" y1="935.53" x2="4040.83" y2="993.24" gradientTransform="translate(281.18 -3209.76) rotate(73.16)" xlink:href="#linear-gradient-2"/><linearGradient id="linear-gradient-72" x1="3815.05" y1="956.37" x2="3884.35" y2="956.37" gradientTransform="translate(-3520)" xlink:href="#linear-gradient-2"/><linearGradient id="linear-gradient-73" x1="317.69" y1="948.76" x2="355.83" y2="948.76" gradientTransform="matrix(1, 0, 0, 1, 0, 0)" xlink:href="#linear-gradient-11"/><linearGradient id="linear-gradient-74" x1="3862.42" y1="935.53" x2="3827.2" y2="993.24" gradientTransform="translate(376.01 -3010.08) rotate(76.72)" xlink:href="#linear-gradient-2"/><linearGradient id="linear-gradient-75" x1="3735.78" y1="956.37" x2="3805.08" y2="956.37" gradientTransform="translate(-3520)" xlink:href="#linear-gradient-2"/><linearGradient id="linear-gradient-76" x1="238.42" y1="948.76" x2="276.56" y2="948.76" gradientTransform="matrix(1, 0, 0, 1, 0, 0)" xlink:href="#linear-gradient-11"/><linearGradient id="linear-gradient-77" x1="3783.15" y1="935.53" x2="3747.93" y2="993.24" gradientTransform="translate(73.16 -2929.42) rotate(73.16)" xlink:href="#linear-gradient-2"/><linearGradient id="linear-gradient-78" x1="4104.41" y1="933.56" x2="4115.7" y2="906.56" gradientTransform="translate(-3520)" xlink:href="#linear-gradient-11"/><linearGradient id="linear-gradient-79" x1="826.85" y1="402.69" x2="819.74" y2="427.2" xlink:href="#linear-gradient-2"/><linearGradient id="linear-gradient-80" x1="793.53" y1="447.28" x2="797.14" y2="447.28" xlink:href="#linear-gradient"/><linearGradient id="linear-gradient-81" x1="812.49" y1="460.61" x2="815.07" y2="460.61" xlink:href="#linear-gradient"/><linearGradient id="linear-gradient-82" x1="744.36" y1="301.9" x2="718.78" y2="322.14" gradientTransform="matrix(1, 0, 0, 1, 0, 0)" xlink:href="#linear-gradient-11"/><linearGradient id="linear-gradient-83" x1="648.28" y1="371.92" x2="655.65" y2="371.92" gradientTransform="matrix(1, 0, 0, 1, 0, 0)" xlink:href="#linear-gradient-11"/><linearGradient id="linear-gradient-84" x1="412.53" y1="686.02" x2="643.25" y2="609.83" xlink:href="#linear-gradient-13"/><linearGradient id="linear-gradient-85" x1="380.79" y1="693.49" x2="401.49" y2="693.49" xlink:href="#linear-gradient-2"/><linearGradient id="linear-gradient-86" x1="402.13" y1="654.54" x2="632.86" y2="578.34" xlink:href="#linear-gradient-13"/><linearGradient id="linear-gradient-87" x1="459.32" y1="632.82" x2="485.16" y2="632.82" xlink:href="#linear-gradient-2"/><linearGradient id="linear-gradient-88" x1="392.48" y1="672.31" x2="411.23" y2="672.31" gradientTransform="matrix(1, 0, 0, 1, 0, 0)" xlink:href="#linear-gradient-11"/><linearGradient id="linear-gradient-89" x1="476.18" y1="613.5" x2="495.11" y2="613.5" gradientTransform="matrix(1, 0, 0, 1, 0, 0)" xlink:href="#linear-gradient-11"/><linearGradient id="linear-gradient-90" x1="579.93" y1="486.33" x2="457.45" y2="604.79" xlink:href="#linear-gradient-2"/><linearGradient id="linear-gradient-91" x1="515.73" y1="569.42" x2="495.99" y2="586.49" xlink:href="#linear-gradient-2"/><linearGradient id="linear-gradient-92" x1="492.75" y1="570.54" x2="482.15" y2="585.71" xlink:href="#linear-gradient-2"/><linearGradient id="linear-gradient-93" x1="437.19" y1="503.93" x2="421.23" y2="523.73" gradientUnits="userSpaceOnUse"><stop offset="0" stop-color="#f7c115"/><stop offset="1" stop-color="#9c1f60"/></linearGradient><linearGradient id="linear-gradient-94" x1="624.11" y1="-433.65" x2="647.68" y2="-457.84" gradientTransform="translate(-182.22 699.24) rotate(15.65)" xlink:href="#linear-gradient-11"/><linearGradient id="linear-gradient-95" x1="-419.18" y1="231.86" x2="-449.03" y2="271.35" gradientTransform="translate(675.24 -52.37) rotate(-46.73)" xlink:href="#linear-gradient-11"/><linearGradient id="linear-gradient-96" x1="-441.98" y1="241.34" x2="-409.32" y2="241.34" gradientTransform="translate(675.24 -52.37) rotate(-46.73)" xlink:href="#linear-gradient-2"/><linearGradient id="linear-gradient-97" x1="-462.9" y1="263.13" x2="-438.96" y2="238.57" gradientTransform="translate(675.24 -52.37) rotate(-46.73)" xlink:href="#linear-gradient-11"/><linearGradient id="linear-gradient-98" x1="625.38" y1="495.17" x2="596.4" y2="537.3" gradientTransform="matrix(-1, 0, 0, 1, 1205.46, 0)" xlink:href="#linear-gradient-2"/><linearGradient id="linear-gradient-99" x1="626.43" y1="495.89" x2="597.44" y2="538.01" gradientTransform="matrix(-1, 0, 0, 1, 1205.46, 0)" xlink:href="#linear-gradient-2"/><linearGradient id="linear-gradient-100" x1="627.68" y1="496.76" x2="598.7" y2="538.88" gradientTransform="matrix(-1, 0, 0, 1, 1205.46, 0)" xlink:href="#linear-gradient-2"/><linearGradient id="linear-gradient-101" x1="629.86" y1="498.25" x2="600.87" y2="540.37" gradientTransform="matrix(-1, 0, 0, 1, 1205.46, 0)" xlink:href="#linear-gradient-2"/><linearGradient id="linear-gradient-102" x1="631.29" y1="499.24" x2="602.31" y2="541.36" gradientTransform="matrix(-1, 0, 0, 1, 1205.46, 0)" xlink:href="#linear-gradient-2"/><linearGradient id="linear-gradient-103" x1="632.18" y1="499.85" x2="603.2" y2="541.97" gradientTransform="matrix(-1, 0, 0, 1, 1205.46, 0)" xlink:href="#linear-gradient-2"/><linearGradient id="linear-gradient-104" x1="623.89" y1="494.15" x2="594.91" y2="536.27" gradientTransform="matrix(-1, 0, 0, 1, 1205.46, 0)" xlink:href="#linear-gradient-2"/><linearGradient id="linear-gradient-105" x1="601.24" y1="430.7" x2="565.01" y2="475.99" gradientTransform="matrix(1, 0, 0, 1, 0, 0)" xlink:href="#linear-gradient-11"/><linearGradient id="linear-gradient-106" x1="651.12" y1="441.51" x2="630.87" y2="460.69" gradientTransform="matrix(1, 0, 0, 1, 0, 0)" xlink:href="#linear-gradient-11"/><linearGradient id="linear-gradient-107" x1="691.18" y1="310.63" x2="456.27" y2="485.3" xlink:href="#linear-gradient-2"/><linearGradient id="linear-gradient-108" x1="111.19" y1="923.9" x2="134.19" y2="923.9" xlink:href="#linear-gradient-2"/><linearGradient id="linear-gradient-109" x1="44.75" y1="966.65" x2="104.27" y2="966.65" gradientTransform="translate(361.22 40.5) rotate(21.61)" xlink:href="#linear-gradient-2"/><linearGradient id="linear-gradient-110" x1="37.75" y1="926.91" x2="112.23" y2="926.91" xlink:href="#linear-gradient-2"/><linearGradient id="linear-gradient-111" x1="136.71" y1="910.75" x2="216.08" y2="910.75" xlink:href="#linear-gradient-2"/><linearGradient id="linear-gradient-112" x1="89.14" y1="955.59" x2="162.05" y2="955.59" xlink:href="#linear-gradient-2"/><linearGradient id="linear-gradient-113" x1="166.03" y1="966.65" x2="225.55" y2="966.65" gradientTransform="translate(1088.86 548.11) rotate(76.34)" xlink:href="#linear-gradient-2"/><linearGradient id="linear-gradient-114" x1="147.77" y1="860.46" x2="182.61" y2="860.46" xlink:href="#linear-gradient-2"/><linearGradient id="linear-gradient-115" x1="147.77" y1="860.71" x2="158.04" y2="860.71" xlink:href="#linear-gradient-2"/><linearGradient id="linear-gradient-116" x1="172" y1="950.98" x2="193.86" y2="950.98" xlink:href="#linear-gradient-2"/><linearGradient id="linear-gradient-117" x1="161.55" y1="939.11" x2="218.55" y2="939.11" xlink:href="#linear-gradient-2"/><linearGradient id="linear-gradient-118" x1="158.04" y1="845.48" x2="170.08" y2="845.48" xlink:href="#linear-gradient-2"/></defs><title>reseller and logistic</title><g class="cls-1"><g id="Layer_1" data-name="Layer 1"><path class="cls-2" d="M541.82,188.32c-294,0-532.36,238.35-532.36,532.36A529.88,529.88,0,0,0,87.39,998.12H996.26a529.87,529.87,0,0,0,77.92-277.44C1074.18,426.67,835.84,188.32,541.82,188.32Z"/><path class="cls-3" d="M1051.19,492.53a9.56,9.56,0,0,0-9.46-9.39H846.92c-5.23,0-10.36,4.46-10.36,9.69V959.67a10.27,10.27,0,0,0,10.16,9.46l203.69-.56a9.49,9.49,0,0,0,9.51-9.69Z"/><g class="cls-4"><polygon class="cls-5" points="907.72 538.15 852.22 538.08 851.78 509.63 907.33 509.63 907.72 538.15"/><polygon class="cls-5" points="969.92 538.14 914.48 538.06 914.1 509.63 969.6 509.63 969.92 538.14"/><polygon class="cls-5" points="1032.07 538.13 976.68 538.05 976.36 509.63 1031.8 509.63 1032.07 538.13"/><polygon class="cls-5" points="908.41 589.21 853.01 589.25 852.57 560.99 908.02 560.97 908.41 589.21"/><polygon class="cls-5" points="970.51 589.17 915.16 589.21 914.78 560.96 970.18 560.94 970.51 589.17"/><polygon class="cls-5" points="1032.55 589.13 977.25 589.17 976.94 560.94 1032.28 560.91 1032.55 589.13"/><polygon class="cls-5" points="909.1 639.92 853.8 639.98 853.36 611.82 908.72 611.77 909.1 639.92"/><polygon class="cls-5" points="971.09 639.86 915.84 639.91 915.47 611.77 970.77 611.72 971.09 639.86"/><polygon class="cls-5" points="1033.02 639.79 977.83 639.85 977.51 611.72 1032.76 611.67 1033.02 639.79"/><polygon class="cls-5" points="909.79 690.46 854.58 690.54 854.14 662.47 909.41 662.4 909.79 690.46"/><polygon class="cls-5" points="971.67 690.37 916.52 690.45 916.14 662.39 971.35 662.33 971.67 690.37"/><polygon class="cls-5" points="1033.49 690.27 978.4 690.36 978.08 662.32 1033.23 662.25 1033.49 690.27"/><polygon class="cls-5" points="910.48 740.81 855.36 740.92 854.93 712.95 910.1 712.86 910.48 740.81"/><polygon class="cls-5" points="972.25 740.7 917.19 740.8 916.82 712.85 971.93 712.76 972.25 740.7"/><polygon class="cls-5" points="1033.97 740.58 978.96 740.69 978.65 712.75 1033.7 712.66 1033.97 740.58"/><polygon class="cls-5" points="911.16 791 856.14 791.12 855.71 763.25 910.78 763.14 911.16 791"/><polygon class="cls-5" points="972.83 790.86 917.87 790.98 917.49 763.13 972.51 763.01 972.83 790.86"/><polygon class="cls-5" points="1034.44 790.72 979.53 790.84 979.22 763 1034.18 762.89 1034.44 790.72"/><polygon class="cls-5" points="911.84 841.01 856.92 841.16 856.49 813.38 911.46 813.25 911.84 841.01"/><polygon class="cls-5" points="973.4 840.85 918.54 840.99 918.16 813.23 973.09 813.1 973.4 840.85"/><polygon class="cls-5" points="1034.91 840.68 980.09 840.83 979.78 813.08 1034.65 812.95 1034.91 840.68"/><polygon class="cls-5" points="912.52 890.85 857.69 891.02 857.26 863.34 912.14 863.18 912.52 890.85"/><polygon class="cls-5" points="973.98 890.66 919.2 890.83 918.83 863.16 973.66 863.01 973.98 890.66"/><polygon class="cls-5" points="1035.37 890.47 980.65 890.64 980.34 862.99 1035.11 862.83 1035.37 890.47"/><polygon class="cls-5" points="913.2 940.52 858.47 940.71 858.04 913.13 912.82 912.95 913.2 940.52"/><polygon class="cls-5" points="974.55 940.31 919.87 940.5 919.5 912.93 974.23 912.75 974.55 940.31"/><polygon class="cls-5" points="1035.84 940.09 981.21 940.28 980.9 912.73 1035.58 912.55 1035.84 940.09"/></g><path class="cls-5" d="M740.06,450.82a6.65,6.65,0,0,0-6.64-6.53H513.9c-3.67,0-7.57,3-7.57,6.67V963.29a10.79,10.79,0,0,0,3.49,7.3,10.91,10.91,0,0,0,7.54,3L739.29,973a10.36,10.36,0,0,0,10.36-10.5Z"/><polygon class="cls-6" points="613.99 480.6 542.18 480.35 542.21 471.37 613.94 471.59 613.99 480.6"/><polygon class="cls-6" points="614.19 513.7 542.08 513.37 542.11 504.31 614.13 504.62 614.19 513.7"/><polygon class="cls-6" points="614.39 547.06 541.98 546.65 542.01 537.52 614.33 537.91 614.39 547.06"/><polygon class="cls-6" points="614.59 580.71 541.88 580.22 541.91 571.01 614.53 571.48 614.59 580.71"/><polygon class="cls-6" points="614.79 614.64 541.78 614.06 541.81 604.77 614.73 605.33 614.79 614.64"/><polygon class="cls-6" points="615.2 683.34 541.58 682.59 541.61 673.15 615.14 673.88 615.2 683.34"/><polygon class="cls-6" points="615.82 788.6 541.26 787.57 541.29 777.89 615.77 778.89 615.82 788.6"/><polygon class="cls-6" points="614.99 648.85 541.68 648.18 541.71 638.82 614.94 639.46 614.99 648.85"/><polygon class="cls-6" points="615.4 718.13 541.47 717.29 541.5 707.77 615.35 708.59 615.4 718.13"/><polygon class="cls-6" points="615.61 753.21 541.37 752.28 541.4 742.68 615.56 743.59 615.61 753.21"/><polygon class="cls-6" points="616.04 824.28 541.16 823.16 541.19 813.4 615.98 814.49 616.04 824.28"/><polygon class="cls-6" points="616.25 860.27 541.05 859.06 541.08 849.21 616.19 850.39 616.25 860.27"/><polygon class="cls-6" points="616.47 896.57 540.94 895.26 540.97 885.33 616.41 886.61 616.47 896.57"/><polygon class="cls-6" points="616.68 933.18 540.84 931.78 540.86 921.76 616.62 923.14 616.68 933.18"/><polygon class="cls-6" points="708.14 480.93 635.88 480.68 635.8 471.66 707.98 471.89 708.14 480.93"/><polygon class="cls-6" points="708.73 514.13 636.17 513.8 636.09 504.71 708.57 505.02 708.73 514.13"/><polygon class="cls-6" points="709.32 547.6 636.46 547.19 636.38 538.03 709.16 538.42 709.32 547.6"/><polygon class="cls-6" points="709.92 581.36 636.75 580.86 636.67 571.62 709.75 572.1 709.92 581.36"/><polygon class="cls-6" points="710.52 615.39 637.04 614.81 636.96 605.5 710.35 606.05 710.52 615.39"/><polygon class="cls-6" points="711.73 684.33 637.64 683.57 637.56 674.1 711.57 674.83 711.73 684.33"/><polygon class="cls-6" points="713.6 789.94 638.55 788.91 638.47 779.19 713.43 780.19 713.6 789.94"/><polygon class="cls-6" points="711.12 649.72 637.34 649.05 637.26 639.65 710.96 640.3 711.12 649.72"/><polygon class="cls-6" points="712.35 719.23 637.94 718.39 637.86 708.83 712.18 709.65 712.35 719.23"/><polygon class="cls-6" points="712.97 754.43 638.25 753.5 638.16 743.86 712.8 744.77 712.97 754.43"/><polygon class="cls-6" points="714.23 825.74 638.86 824.62 638.78 814.82 714.06 815.92 714.23 825.74"/><polygon class="cls-6" points="714.87 861.86 639.17 860.64 639.09 850.75 714.69 851.95 714.87 861.86"/><polygon class="cls-6" points="715.51 898.29 639.49 896.97 639.4 887 715.34 888.29 715.51 898.29"/><polygon class="cls-6" points="716.16 935.03 639.81 933.61 639.72 923.56 715.98 924.95 716.16 935.03"/><path class="cls-7" d="M356.84,461.09a1.86,1.86,0,0,1-1-3.42l1.86-1.21a1.87,1.87,0,1,1,2,3.14l-1.84,1.19A1.81,1.81,0,0,1,356.84,461.09Zm7.83-5a1.88,1.88,0,0,1-1.59-.89,1.86,1.86,0,0,1,.61-2.56l1.89-1.16a1.87,1.87,0,1,1,1.94,3.19l-1.87,1.14A1.85,1.85,0,0,1,364.67,456.13Zm8-4.76a1.87,1.87,0,0,1-.94-3.48l1.92-1.11a1.87,1.87,0,0,1,1.85,3.24l-1.9,1.1A1.86,1.86,0,0,1,372.63,451.37Zm8.06-4.56a1.87,1.87,0,0,1-.9-3.5l1.95-1.06a1.86,1.86,0,1,1,1.78,3.27l-1.93,1.06A1.91,1.91,0,0,1,380.69,446.81Zm8.17-4.38a1.85,1.85,0,0,1-1.65-1,1.87,1.87,0,0,1,.79-2.52l2-1a1.86,1.86,0,1,1,1.7,3.31l-1.94,1A1.8,1.8,0,0,1,388.86,442.43Zm8.27-4.19a1.87,1.87,0,0,1-.83-3.54l2-1a1.86,1.86,0,1,1,1.64,3.35l-2,1A1.9,1.9,0,0,1,397.13,438.24Zm8.36-4a1.87,1.87,0,0,1-.8-3.56l2-.93a1.87,1.87,0,1,1,1.56,3.39l-2,.92A1.81,1.81,0,0,1,405.49,434.23Zm8.43-3.85a1.86,1.86,0,0,1-.76-3.57l2-.89a1.87,1.87,0,0,1,1.49,3.42l-2,.88A1.81,1.81,0,0,1,413.92,430.38Zm8.51-3.67a1.87,1.87,0,0,1-.72-3.59l2-.85a1.87,1.87,0,0,1,1.43,3.45l-2,.84A1.86,1.86,0,0,1,422.43,426.71ZM431,423.2a1.87,1.87,0,0,1-.69-3.6l2.06-.81a1.86,1.86,0,0,1,1.36,3.47l-2,.81A1.87,1.87,0,0,1,431,423.2Zm307.36-2a1.9,1.9,0,0,1-1-.27l-1.87-1.13a1.87,1.87,0,0,1,1.9-3.21l1.91,1.15a1.87,1.87,0,0,1-1,3.46Zm-298.72-1.39a1.87,1.87,0,0,1-.66-3.61l2.08-.77a1.87,1.87,0,0,1,1.29,3.5l-2.05.76A1.71,1.71,0,0,1,439.65,419.85Zm8.71-3.18a1.86,1.86,0,0,1-.63-3.62l2.09-.74a1.86,1.86,0,0,1,1.23,3.52l-2.07.73A1.73,1.73,0,0,1,448.36,416.67Zm282-.06a1.9,1.9,0,0,1-.89-.23l-1.93-1a1.87,1.87,0,0,1,1.75-3.3l2,1.05a1.87,1.87,0,0,1-.89,3.51Zm-273.24-3a1.86,1.86,0,0,1-.59-3.63l2.09-.7a1.87,1.87,0,0,1,1.17,3.55l-2.08.69A2.06,2.06,0,0,1,457.1,413.65Zm265-1.28a2,2,0,0,1-.81-.18l-2-.95a1.86,1.86,0,1,1,1.59-3.37l2,1a1.86,1.86,0,0,1-.81,3.54Zm-256.2-1.57a1.87,1.87,0,0,1-.56-3.65l2.11-.65a1.86,1.86,0,0,1,2.33,1.22,1.88,1.88,0,0,1-1.23,2.34l-2.09.65A1.82,1.82,0,0,1,465.89,410.8Zm247.76-2.27a1.87,1.87,0,0,1-.73-.15l-2-.85a1.87,1.87,0,0,1,1.43-3.45l2.06.87a1.87,1.87,0,0,1-.74,3.58Zm-238.91-.43a1.86,1.86,0,0,1-.53-3.65l2.12-.62a1.86,1.86,0,0,1,1,3.58l-2.11.61A1.57,1.57,0,0,1,474.74,408.1Zm8.89-2.54a1.86,1.86,0,0,1-.49-3.66l2.13-.58a1.86,1.86,0,1,1,1,3.6l-2.11.58A2.14,2.14,0,0,1,483.63,405.56ZM705,405.07a1.87,1.87,0,0,1-.65-.12l-2.06-.77a1.86,1.86,0,1,1,1.28-3.5l2.09.78a1.86,1.86,0,0,1-.66,3.61Zm-212.46-1.88a1.87,1.87,0,0,1-.46-3.68l2.14-.54a1.87,1.87,0,0,1,.91,3.62l-2.13.54A1.82,1.82,0,0,1,492.58,403.19ZM696.3,402a1.74,1.74,0,0,1-.59-.1l-2.08-.68a1.86,1.86,0,0,1,1.13-3.55l2.12.69a1.87,1.87,0,0,1-.58,3.64Zm-194.73-1a1.87,1.87,0,0,1-.43-3.68l2.16-.5a1.86,1.86,0,1,1,.84,3.63l-2.14.5A2.1,2.1,0,0,1,501.57,401Zm185.86-1.73a1.79,1.79,0,0,1-.51-.07l-2.12-.6a1.86,1.86,0,0,1,1-3.59l2.15.6a1.87,1.87,0,0,1-.52,3.66Zm-176.82-.32a1.87,1.87,0,0,1-.4-3.69l2.17-.46a1.87,1.87,0,1,1,.77,3.65l-2.15.46A1.72,1.72,0,0,1,510.61,398.92Zm9.07-1.88a1.87,1.87,0,0,1-.36-3.7l2.18-.42a1.86,1.86,0,1,1,.7,3.66l-2.15.42A1.61,1.61,0,0,1,519.68,397Zm158.79-.19a2.3,2.3,0,0,1-.45-.05l-2.14-.52a1.87,1.87,0,1,1,.87-3.63l2.16.52a1.87,1.87,0,0,1-.44,3.68ZM528.8,395.33a1.86,1.86,0,0,1-.33-3.7l2.18-.39a1.87,1.87,0,0,1,.64,3.68l-2.17.38Zm140.62-.54a2.58,2.58,0,0,1-.39,0l-2.15-.44a1.87,1.87,0,0,1,.74-3.66l2.18.45a1.87,1.87,0,0,1-.38,3.69Zm-131.47-1a1.87,1.87,0,0,1-.29-3.71l2.19-.34a1.87,1.87,0,0,1,.56,3.69l-2.17.34ZM660.3,393l-.32,0-2.16-.37a1.87,1.87,0,1,1,.61-3.68l2.19.38a1.85,1.85,0,0,1,1.52,2.15A1.87,1.87,0,0,1,660.3,393Zm-113.17-.6a1.87,1.87,0,0,1-.26-3.72l2.2-.29a1.86,1.86,0,1,1,.49,3.69l-2.18.3Zm104-.85-.27,0-2.17-.3a1.87,1.87,0,0,1,.49-3.7l2.21.31a1.86,1.86,0,0,1-.26,3.71Zm-94.8-.33a1.86,1.86,0,0,1-.22-3.71l2.21-.26a1.87,1.87,0,0,1,.41,3.71l-2.18.25Zm85.59-.83h-.21l-2.18-.24a1.86,1.86,0,1,1,.38-3.71l2.21.24a1.87,1.87,0,0,1-.2,3.72Zm-76.36-.15a1.86,1.86,0,0,1-.17-3.72l2.21-.2a1.86,1.86,0,0,1,.33,3.71l-2.19.2Zm67.12-.74h-.15l-2.19-.17a1.86,1.86,0,0,1,.27-3.72l2.22.17a1.87,1.87,0,0,1-.15,3.73Zm-57.86,0a1.87,1.87,0,0,1-.13-3.73l2.21-.15a1.86,1.86,0,1,1,.26,3.72l-2.2.15Zm9.28-.58a1.87,1.87,0,0,1-.1-3.73l2.22-.11a1.87,1.87,0,0,1,.17,3.73l-2.2.11Zm39.32,0h-.1l-2.2-.11a1.87,1.87,0,0,1,.18-3.73l2.22.12a1.86,1.86,0,0,1-.1,3.72Zm-30-.36a1.87,1.87,0,0,1,0-3.73l2.22-.05a1.84,1.84,0,0,1,1.9,1.82,1.87,1.87,0,0,1-1.82,1.91l-2.2.05Zm20.76,0h0l-2.2-.06a1.87,1.87,0,1,1,.08-3.73l2.22.06a1.87,1.87,0,0,1-.05,3.73Zm-11.49-.14a1.87,1.87,0,0,1,0-3.73h2.21a1.87,1.87,0,0,1,0,3.73h-2.21Z"/><circle class="cls-8" cx="716.74" cy="395.57" r="34.47"/><path class="cls-9" d="M751.14,393.72H682.27s-2.74,19.13,28,71.53a7.53,7.53,0,0,0,12.89,0C753.94,412.87,751.14,393.72,751.14,393.72Z"/><path class="cls-10" d="M716.72,470v.19h0a8.53,8.53,0,0,1-7.3-4.21c-18-30.63-24.57-50-26.93-60.84a34.74,34.74,0,0,1-1.19-7.44,18.93,18.93,0,0,1,0-3.76l.1-.55a35.46,35.46,0,0,1,70.77.35,18,18,0,0,1,.05,1.9v.13a35.29,35.29,0,0,1-1.43,10c-2.44,10.83-9.07,30-26.74,60.11A8.35,8.35,0,0,1,716.72,470Zm-33.51-74.75c0,.52,0,1.25.1,2.37h0a32.89,32.89,0,0,0,1.12,7l0,0c2.32,10.69,8.84,29.81,26.7,60.23a6.48,6.48,0,0,0,5.58,3.18v0a6.79,6.79,0,0,0,5.59-3.21C739.87,435,746.43,416,748.84,405.29v-.06a33.24,33.24,0,0,0,1.15-9.44l-.2-.14h0A11.36,11.36,0,0,1,750,394l.09-.06a33.42,33.42,0,0,0-66.74.35l0,1Z"/><circle class="cls-8" cx="716.85" cy="395.46" r="19.9" transform="translate(79.89 909.79) rotate(-67.8)"/><g class="cls-11"><path class="cls-7" d="M716.85,416.47a21,21,0,1,1,21-21A21,21,0,0,1,716.85,416.47Zm0-39.8a18.79,18.79,0,1,0,18.79,18.79A18.81,18.81,0,0,0,716.85,376.67Z"/></g><g class="cls-12"><path class="cls-7" d="M698,374.73a.34.34,0,0,1-.25-.11.33.33,0,0,1,0-.47,30.91,30.91,0,0,1,20.12-7.45.34.34,0,0,1,0,.67,30.26,30.26,0,0,0-19.68,7.28A.3.3,0,0,1,698,374.73Z"/></g><g class="cls-12"><path class="cls-7" d="M687.31,397.92a.33.33,0,0,1-.33-.33,30.84,30.84,0,0,1,4.62-16.26.34.34,0,0,1,.46-.11.33.33,0,0,1,.11.46,30.14,30.14,0,0,0-4.52,15.91A.34.34,0,0,1,687.31,397.92Z"/></g><rect class="cls-13" x="234.05" y="622.35" width="14.67" height="19.28"/><path class="cls-14" d="M252.67,627.4H229.33a4.44,4.44,0,0,1-4.44-4.44h0c-1.21-5.84,2.75-10.27,9.56-9.56H252.2a4.77,4.77,0,0,1,4.77,4.77v4.94A4.29,4.29,0,0,1,252.67,627.4Z"/><rect class="cls-15" x="280.76" y="646.41" width="8.2" height="10.79" transform="translate(560.72 -3.86) rotate(46.42)"/><path class="cls-16" d="M290.86,654.39l-9.26-9.73a1.81,1.81,0,0,1,.07-2.55h0a6,6,0,0,1,8.52.21l6,6.28a3.25,3.25,0,0,1-.12,4.59l-1.35,1.3A2.72,2.72,0,0,1,290.86,654.39Z"/><rect class="cls-17" x="194.49" y="646.17" width="8.2" height="10.79" transform="translate(807.52 956.81) rotate(133.58)"/><path class="cls-18" d="M192.59,654.14l9.26-9.73a1.79,1.79,0,0,0-.06-2.54h0a6,6,0,0,0-8.53.21l-6.13,6.45a3,3,0,0,0,.1,4.26l1.53,1.45A2.7,2.7,0,0,0,192.59,654.14Z"/><circle class="cls-19" cx="240.6" cy="698.58" r="59.87"/><circle class="cls-20" cx="241.23" cy="699.3" r="50.71"/><rect class="cls-3" x="240.01" y="649.65" width="1.83" height="14.54"/><rect class="cls-3" x="240.01" y="734.66" width="1.83" height="14.54"/><rect class="cls-3" x="276.3" y="697.87" width="14.54" height="1.83" transform="translate(-7.19 2.96) rotate(-0.59)"/><rect class="cls-3" x="191.65" y="698.71" width="14.54" height="1.83" transform="translate(-7.21 2.09) rotate(-0.59)"/><path class="cls-3" d="M240.84,700.08a.46.46,0,0,1-.36-.17l-22.2-28.33A.46.46,0,1,1,219,671l22.2,28.33a.47.47,0,0,1-.08.65A.49.49,0,0,1,240.84,700.08Z"/><path class="cls-3" d="M235,709a1.87,1.87,0,0,1-1.13-.39,1.84,1.84,0,0,1-.3-2.58l22.37-28.35a1.83,1.83,0,1,1,2.87,2.28l-22.37,28.35A1.83,1.83,0,0,1,235,709Z"/><path class="cls-3" d="M268.89,730.91a1.38,1.38,0,0,1-1-.44l-34.1-36.84a1.38,1.38,0,1,1,2-1.87l34.1,36.84a1.37,1.37,0,0,1-.08,1.94A1.34,1.34,0,0,1,268.89,730.91Z"/><circle class="cls-21" cx="240.84" cy="699.62" r="4.95"/><path class="cls-7" d="M244.14,699.62a3.3,3.3,0,1,1-3.3-3.3A3.3,3.3,0,0,1,244.14,699.62Z"/><rect class="cls-3" x="240.01" y="650.95" width="1.83" height="7.83"/><rect class="cls-3" x="258.07" y="659.26" width="7.83" height="1.83" transform="translate(-443.79 580.52) rotate(-61.92)"/><rect class="cls-3" x="275.63" y="676.24" width="7.83" height="1.83" transform="translate(-303.07 233.04) rotate(-30.25)"/><rect class="cls-3" x="279.28" y="717.02" width="1.83" height="7.83" transform="matrix(0.47, -0.88, 0.88, 0.47, -487.38, 625.56)"/><rect class="cls-3" x="262.17" y="734.54" width="1.83" height="7.83" transform="translate(-333.36 229.75) rotate(-29.93)"/><rect class="cls-3" x="215.39" y="737.95" width="7.83" height="1.83" transform="translate(-534.28 577.21) rotate(-61.36)"/><rect class="cls-3" x="197.07" y="719.09" width="7.83" height="1.83" transform="translate(-306.93 171.53) rotate(-27.2)"/><rect class="cls-3" x="198.86" y="677.89" width="1.83" height="7.83" transform="translate(-505.38 595.09) rotate(-66.66)"/><rect class="cls-3" x="212.4" y="660.41" width="1.83" height="7.83" transform="translate(-364.13 272.69) rotate(-38.05)"/><path class="cls-3" d="M241.12,755.12a55.76,55.76,0,0,1-28.21-7.64.18.18,0,0,1-.07-.25.2.2,0,0,1,.26-.07,55.52,55.52,0,0,0,43.82,5.31.19.19,0,0,1,.23.13.2.2,0,0,1-.13.23A56,56,0,0,1,241.12,755.12Z"/><path class="cls-3" d="M293.69,717.71h-.06a.18.18,0,0,1-.12-.23,55.54,55.54,0,0,0-8.28-51.73.18.18,0,0,1,0-.25.19.19,0,0,1,.26,0,55.89,55.89,0,0,1,8.34,52.07A.18.18,0,0,1,293.69,717.71Z"/><path class="cls-3" d="M187.62,714.74a.18.18,0,0,1-.18-.13,55.82,55.82,0,0,1,38.43-69,.17.17,0,0,1,.22.12.18.18,0,0,1-.12.23,55.53,55.53,0,0,0-38.18,68.52.18.18,0,0,1-.12.22Z"/><path class="cls-3" d="M226.72,624.82a.17.17,0,0,1-.18-.15c-.73-4.13-.47-6.54.87-8.08,2.35-2.67,8-2.44,18.15-2l.59,0a.18.18,0,0,1,.17.2.18.18,0,0,1-.19.17l-.58,0c-10.08-.43-15.63-.67-17.86,1.87-1.24,1.43-1.49,3.82-.79,7.77a.19.19,0,0,1-.15.22Z"/><path class="cls-22" d="M893.78,698.56s1.78-3.22,1.59-5.8,1.42-6.39-.3-6.11-2.07.05-2.53,3.16S887.88,704.36,893.78,698.56Z"/><path class="cls-23" d="M966.93,980.86a6.3,6.3,0,0,1,6.26-4.6l2.86.09c15.1,3.62,23,12.37,26.06,16.67a.27.27,0,0,1-.19.43c-4.77.38-15.83,1.15-25.2.88-6.25-.17-9.58-.42-11.25-1.1A51.59,51.59,0,0,1,966.93,980.86Z"/><path class="cls-24" d="M976.62,994c-6.25-.18-9.48-.91-11.15-1.59,0,.62,0,1.25,0,1.9a1.24,1.24,0,0,0,1.17,1.26l34.31-.22a1.57,1.57,0,0,0,1.26-2.28C997.73,993.45,986.27,994.28,976.62,994Z"/><path class="cls-25" d="M980.87,966.51l-2.4,11.54a1.89,1.89,0,0,1-1.61,1.55,16.14,16.14,0,0,1-3.71-.06,2.37,2.37,0,0,1-1.88-2.79l1.67-10.24Z"/><path class="cls-26" d="M931.22,994c6.25-.18,9.48-.91,11.16-1.59,0,.62,0,1.25,0,1.9a1.25,1.25,0,0,1-1.18,1.26l-34.31-.22a1.57,1.57,0,0,1-1.26-2.28C910.11,993.45,921.57,994.28,931.22,994Z"/><path class="cls-27" d="M905.61,993.08a1.3,1.3,0,0,1,.14-.26c3-4.24,10.74-12.67,26-16.32l7.32-.23s3.25,5.66,3.32,16.15c-1.68.68-4.91,1.41-11.16,1.59C921.57,994.28,910.11,993.45,905.61,993.08Z"/><path class="cls-28" d="M940.41,965.18c-.08.55-1.08,8.83-1.47,12.05a1.58,1.58,0,0,1-1.34,1.43,16.77,16.77,0,0,1-5-.07,2.17,2.17,0,0,1-1.64-2.17v-13Z"/><path class="cls-29" d="M946.28,814S928.64,881,929,965.37a3.26,3.26,0,0,0,2.59,3.19,38.28,38.28,0,0,0,8.18.94,3,3,0,0,0,2.89-2.53c2.47-14.5,16.67-96.23,24.75-109.5,0,0,5.33,72.79,3.63,110.55a1.77,1.77,0,0,0,1.57,1.86,30,30,0,0,0,6.57,0,2.4,2.4,0,0,0,2.13-2c1.77-12.27,11.91-85.36,11.48-138,0-3-7.85-15.88-7.85-15.88Z"/><path class="cls-30" d="M880.48,754.77c-4-21.54.41-52.8.41-52.8l8.53,8.42s-.92,25.74,4.59,37.73C890.38,748.55,886.1,748.77,880.48,754.77Z"/><path class="cls-31" d="M933.25,759.75h0a.41.41,0,0,0,.36-.46c0-.19-2.25-18.27-1-23.49a.41.41,0,0,0-.81-.18c-1.24,5.35.94,23,1,23.77A.42.42,0,0,0,933.25,759.75Z"/><path class="cls-32" d="M879,648.82a3.42,3.42,0,0,1,3.85-3.58L908,648.45a1.92,1.92,0,0,1,1.69,1.95l-.94,64.68a1.07,1.07,0,0,1-.32.74,1,1,0,0,1-.75.29l-21.75-.51a3.42,3.42,0,0,1-3.33-3.23Z"/><path class="cls-9" d="M886.28,651.84a2,2,0,0,1,.64-1.52,1.94,1.94,0,0,1,1.58-.47l16.6,2.48a1.92,1.92,0,0,1,1.64,1.94l-.85,55.09a1,1,0,0,1-.34.76,1.08,1.08,0,0,1-.79.27l-15.19-1.21a1.06,1.06,0,0,1-1-1Z"/><path class="cls-33" d="M895.45,649.47c0,.2.26.39.64.43l5.52.6c.38,0,.7-.09.72-.29l0-.19c0-.19-.26-.39-.64-.43l-5.52-.59c-.38,0-.7.08-.72.28Z"/><path class="cls-34" d="M876.71,687.17c1.91-.7,5.65-7.18,6.37-5s-.3,5,0,6,2.37,5.93,1.44,8.25a91.3,91.3,0,0,0-2.35,9.54c-.18.91-.29,2.09-1.21,2.09s-1.78-1.15-2-2.06C878.92,705.54,874.8,687.87,876.71,687.17Z"/><path class="cls-35" d="M1000,757.65c10.17-22.42,11.25-38.18,0-44.88a17.65,17.65,0,0,0-2-.39c-3.58-.45-8.54-1.08-14.25-1.84h-.05A183.11,183.11,0,0,0,959,707.14c-11.92-.74-24.73.06-29.91,5.9a84.94,84.94,0,0,1-10.21,17.58c-9.58,12.58-14.29,26.59-19.26,23.86-1.36-.75-4.25-4.69-5.29-7-3.63.44-9,.47-14.58,6.47,4.16,22.6,17.92,31.94,51.66,4.19,6.41,18.12,14.76,43.6,12.47,60.22a2.58,2.58,0,0,0,2.16,2.93c7.69,1.15,30.6,4,42.49-.78a1.8,1.8,0,0,0,1.14-1.7,200.89,200.89,0,0,1,9.51-58A32.73,32.73,0,0,0,1000,757.65Z"/><path class="cls-36" d="M907.09,720a5.49,5.49,0,0,1,6.22-2.26c5.52,17.41,28.6,30.13,51.74,35.46-1,6.4-13.65,7.06-20.23,16C911.64,750.48,907.09,720,907.09,720Z"/><path class="cls-37" d="M907.84,720.79c-.22,1,5.38,1.38,5.92-2.35-.07-1.83-.48-9.23-1.68-10.64-6.41-7.48-18.42-16.57-18.42-16.57a2.69,2.69,0,0,0-.06,3.75l5.9,5.28c-1,2.16-2.25,4-2.72,6.55a7.67,7.67,0,0,0,1.19,5.58,66.52,66.52,0,0,0,3.93,5.47A7.58,7.58,0,0,0,907.84,720.79Z"/><path class="cls-38" d="M977.46,689l2.29,23.43s-13.18,4-22.76-2.79l6.74-21.29Z"/><path class="cls-39" d="M955.09,669.05c-.16.4-.82,29.2-.82,29.2l16.45,0,4.68-27.2S957.71,662.24,955.09,669.05Z"/><path class="cls-40" d="M969.76,674.48a2.35,2.35,0,0,1,.74,1.95l-1.32,14.3a2.23,2.23,0,0,1-.15.63c-.44,1.12-2.12,4.57-5.62,2.65-3-1.63-5.75-3.09-8-3.16a2.36,2.36,0,0,0-2.42,2.33,86.45,86.45,0,0,0,.64,13,2.34,2.34,0,0,0,2.48,2,65,65,0,0,0,14.58-2.42,2.35,2.35,0,0,0,1.6-1.82c.7-3.78,2.7-14.35,3.72-17.25,1-2.69,4.64-3.62,6.37-3.92a2.35,2.35,0,0,0,1.59-1c1.1-1.66,2.67-5.26-1.66-8a2.35,2.35,0,0,1-.73-3.21c1.17-1.95,2-5-1.41-7.55s-6.83-1.38-8.89-.07a2.45,2.45,0,0,1-2.94-.17,1.56,1.56,0,0,0-1.51-.34,2.29,2.29,0,0,1-2.84-1.62,6.06,6.06,0,0,0-6-4.79c-7.29-.4-9.85,7.19-9,12.16s8.73,5,13,3.53C965.1,670.63,968.29,673.1,969.76,674.48Z"/><path class="cls-41" d="M974.73,691.74s-.29-8.49,3.12-9.79,7.56.73,5.26,6.35C980.25,695.3,974.73,691.74,974.73,691.74Z"/><path class="cls-42" d="M987.85,730.07c-12.45,17.22-16.51,21-37.31,18.76l-10.31,18.91c16.76,9.7,44.16,1.47,59.8-10.09C1010.59,740.84,1014.89,702,987.85,730.07Z"/><path class="cls-43" d="M821.89,970.35V880.58a21.52,21.52,0,0,0-21.28-21.52c-35.39-.38-108.39-.4-168.12,4.63a16.16,16.16,0,0,0-14.78,15.54L612.12,966a20.55,20.55,0,0,0,20.15,21.28l169.06,3.22A20.18,20.18,0,0,0,821.89,970.35Z"/><path class="cls-7" d="M801.39,890.29c.15,7.64-.08,19.76-.27,27.59a6.91,6.91,0,0,1-7.72,6.7l-29.12-3.41a6.92,6.92,0,0,1-6-7.9l3.58-23.85a6.91,6.91,0,0,1,6.84-5.89h25.81A6.92,6.92,0,0,1,801.39,890.29Z"/><path class="cls-44" d="M725.26,935.49,701,938.12a5.48,5.48,0,0,1-6.05-5.85L700.23,860c10.18-.32,20.23-.56,29.92-.73v70.79A5.46,5.46,0,0,1,725.26,935.49Z"/><path class="cls-7" d="M715.31,923a2.45,2.45,0,0,1-2.44,2.3h-.15a2.43,2.43,0,0,1-2.29-2.58l3.66-63.08,4.9-.11Z"/><path class="cls-45" d="M787.92,913.06a.82.82,0,0,0,.81-.76L790,892.43a.82.82,0,0,0-.76-.87.81.81,0,0,0-.87.77L787.1,912.2a.81.81,0,0,0,.76.86Z"/><path class="cls-46" d="M785.32,913.06a.82.82,0,0,0,.82-.79L786.8,892a.82.82,0,0,0-.79-.84.77.77,0,0,0-.84.79l-.66,20.25a.81.81,0,0,0,.78.84Z"/><path class="cls-47" d="M781.8,913.06a.81.81,0,0,1-.77-.85c.32-6.8.94-19.78,1-20.22a.81.81,0,0,1,.81-.81.82.82,0,0,1,.82.82c0,.33-.79,17-1,20.29a.81.81,0,0,1-.82.77ZM782,892h0Z"/><path class="cls-48" d="M776.41,913.88A1.63,1.63,0,0,0,778,912.3c.69-19.62.57-20.06.49-20.35a1.63,1.63,0,0,0-3.19.64c0,1.18-.31,12.6-.56,19.6a1.62,1.62,0,0,0,1.57,1.68Z"/><path class="cls-49" d="M772.88,913.06a.82.82,0,0,0,.82-.81V892.38a.82.82,0,0,0-.82-.82.82.82,0,0,0-.81.82v19.87A.81.81,0,0,0,772.88,913.06Z"/><path class="cls-50" d="M770,913.06a.81.81,0,0,0,.81-.79c.16-6.91.52-18.19.85-19.54a.84.84,0,0,0,0-.85.82.82,0,0,0-1.13-.23c-.44.29-.86.57-1.31,20.58a.81.81,0,0,0,.79.83Z"/><path class="cls-51" d="M792.3,914.87a1.63,1.63,0,0,0,1.63-1.54L795,892.46a1.62,1.62,0,0,0-1.54-1.71,1.64,1.64,0,0,0-1.71,1.54l-1.09,20.87a1.62,1.62,0,0,0,1.54,1.71Z"/><path class="cls-43" d="M793.51,847.4v-63a15.11,15.11,0,0,0-14.94-15.11c-24.86-.27-76.12-.28-118.07,3.25a11.36,11.36,0,0,0-10.38,10.92l-3.92,60.94a14.42,14.42,0,0,0,14.15,14.95l118.72,2.26A14.17,14.17,0,0,0,793.51,847.4Z"/><path class="cls-7" d="M779.11,791.18c.11,5.37-.05,13.88-.18,19.38a4.86,4.86,0,0,1-5.42,4.71l-20.46-2.4a4.87,4.87,0,0,1-4.24-5.55l2.51-16.75a4.86,4.86,0,0,1,4.81-4.13h18.13A4.84,4.84,0,0,1,779.11,791.18Z"/><path class="cls-44" d="M725.65,822.93l-17.06,1.84a3.84,3.84,0,0,1-4.25-4.11l3.73-50.76c7.15-.22,14.21-.39,21-.51V819.1A3.85,3.85,0,0,1,725.65,822.93Z"/><path class="cls-7" d="M718.66,814.13a1.72,1.72,0,0,1-1.71,1.62h-.1a1.71,1.71,0,0,1-1.62-1.81l2.58-44.3,3.44-.08Z"/><path class="cls-52" d="M769.65,807.17a.57.57,0,0,0,.57-.53l.89-14a.57.57,0,0,0-.54-.6.55.55,0,0,0-.6.53l-.89,14a.57.57,0,0,0,.54.6Z"/><path class="cls-53" d="M767.83,807.17a.57.57,0,0,0,.57-.55l.47-14.22a.57.57,0,0,0-.56-.59.54.54,0,0,0-.59.55l-.46,14.22a.57.57,0,0,0,.55.59Z"/><path class="cls-54" d="M765.36,807.17a.56.56,0,0,1-.54-.59c.22-4.78.66-13.89.66-14.2a.58.58,0,0,1,1.15,0c0,.24-.56,11.91-.67,14.25a.57.57,0,0,1-.57.54Zm.11-14.79h0Z"/><path class="cls-55" d="M761.57,807.75a1.16,1.16,0,0,0,1.15-1.11c.48-13.78.4-14.09.34-14.29a1.16,1.16,0,0,0-1.41-.81,1.15,1.15,0,0,0-.83,1.26c0,.83-.22,8.85-.39,13.76a1.16,1.16,0,0,0,1.1,1.19Z"/><path class="cls-56" d="M759.09,807.17a.57.57,0,0,0,.58-.57v-14a.58.58,0,0,0-1.15,0v14A.57.57,0,0,0,759.09,807.17Z"/><path class="cls-57" d="M757.09,807.17a.56.56,0,0,0,.57-.55c.11-4.85.37-12.77.6-13.72a.59.59,0,0,0,0-.6.57.57,0,0,0-.79-.16c-.32.2-.61.4-.93,14.45a.56.56,0,0,0,.56.58Z"/><path class="cls-58" d="M772.73,808.45a1.14,1.14,0,0,0,1.14-1.09l.77-14.65a1.15,1.15,0,0,0-2.29-.12l-.76,14.65a1.13,1.13,0,0,0,1.08,1.2Z"/><path class="cls-59" d="M784.73,725l-8.27,4.45c-9.91,6-18.79,9.23-26.77,10.43-24.94,3.74-41.19-12-53.3-21.53-16-12.61-28.43-6.48-28.43-6.48l17,32.55c25.46,24,51.57,18.67,68,10.89a76.37,76.37,0,0,0,17.05-10.89C788.82,733.28,784.73,725,784.73,725Z"/><path class="cls-60" d="M809.09,736.69a6.06,6.06,0,0,0-3.56-3.9L788.75,726s-.26-2.16,3.54-3.62,2.91-5.72,2.91-5.72-5.19,2.37-12.79,6.13a17.8,17.8,0,0,0-8.07,8.79l4.32,5.68A76.76,76.76,0,0,0,810,739.77Z"/><path class="cls-61" d="M664.29,973.87s-1.27,7.23-1.9,14.39a4.93,4.93,0,0,0,4.72,5.34c9.53.4,29.92,1.17,37.24.84a1.59,1.59,0,0,0,1.41-2.19h0a3.6,3.6,0,0,0-1.84-1.94l-33.68-15.48Z"/><path class="cls-62" d="M663.25,969.62l1,8.65s5.9,2.75,9.93-.35l-2.44-9.64Z"/><path class="cls-63" d="M661.6,801.29c-.44,2.34.79,122.68,12.6,174,.2.83,1.42,2.48,1,3.2-1,1.75-8.57,1.26-12.83,1.41-1.32,0-2-1.5-2.4-2.81-3.37-11.91-19.55-71.58-21.66-128.57-2.35-63.69,0-2.17,0-2.17l-1-40.35Z"/><path class="cls-64" d="M625.55,977.64s-2,3.65-4,13.35a3,3,0,0,0,2.65,3.61c3.15.31,8,.7,11.88.68a3,3,0,0,0,3-3.35c-.43-3.54-1.77-9.35-5.91-13.88Z"/><path class="cls-65" d="M623.76,966.51l2.4,13.09s2.37,1.76,7.06.48L632.07,966Z"/><path class="cls-66" d="M618,806c-9.66,60.84,1.38,155,5.34,172.55a2.66,2.66,0,0,0,2.11,2.08,16.83,16.83,0,0,0,7.56-.31,2.49,2.49,0,0,0,1.72-2.31c.53-14.17-.42-101.13,8.58-135.5a7.77,7.77,0,0,1,2.88-4.31L661,826.11l.27-26Z"/><path class="cls-9" d="M673.33,708.38c-25.45-.42-53.54,6.69-53.54,6.69-6.25,36.49-3.74,76.93-2.44,90.25.27,2.73-1.19,5.62,1.52,6.06,13.31,2.15,34.25,0,40.75-1.93,2.38-.69,2-3.22,2.48-5.65,4.37-20.94,16.86-67.14,16.86-67.14,6,7.79,14.59,18.68,27.22,21.59-6.44-7.46,5.91-23.11,4.59-28.72C699.35,716.7,681.18,708.51,673.33,708.38Z"/><path class="cls-67" d="M647.55,687.72l-8.1,23.42a.85.85,0,0,0,.38,1c2.21,1.22,10.17,4.75,19.75-1.33a4,4,0,0,0,1.83-2.84L664,687.72Z"/><path class="cls-68" d="M665.17,666s8.89,16.74,7.75,23.5-12.16,6.28-21.78.79l-6.73-18.08Z"/><path class="cls-69" d="M651.56,681.44a.69.69,0,0,0,.3-1,18.23,18.23,0,0,1-2.47-5.25s-1.6-1,4.07-2.38c3.08-.74,8.56-1.35,11-3.57,2.69-2.48-2.27-7.17-4.36-8.43-2.75-1.67-6.1-2.65-9.21-1.81a16.73,16.73,0,0,0-4.18,2c-2.28,1.34-4.63,2.77-6.08,5a16.57,16.57,0,0,0-1.87,4.75A23.45,23.45,0,0,0,637.6,678c.29,6.54,8,12.4,14.13,13.12a.7.7,0,0,0,.73-.92l-2.52-7.32a.68.68,0,0,1,.37-.86Z"/><path class="cls-70" d="M652.58,682.48s-6.34-4.34-6.8-.68,5.7,5.3,8.76,3.93Z"/><path class="cls-8" d="M668.41,661.93c-13-24.55-46.67-2.25-31,18.42C649.07,672.6,662.23,661.09,668.41,661.93Z"/><path class="cls-9" d="M648.12,672.32l23.33-.72a1.69,1.69,0,0,0,1.42-.87,15.78,15.78,0,0,1,9-7.49.48.48,0,0,0-.13-.92l-14.3-1h0c-7.13.55-13.44,4.83-19.46,10.45A.3.3,0,0,0,648.12,672.32Z"/><path class="cls-8" d="M622.68,752.22c14.24-16,12.8-28.31-3.28-37.17,0,0-26.65,18.11-31,41.07a63,63,0,0,1,23.17,6.21C613.5,751.48,622.68,752.22,622.68,752.22Z"/><path class="cls-71" d="M653.63,768.67s-29.92,16.91-40,2.47a11.37,11.37,0,0,1-2.08-8.81,63,63,0,0,0-23.17-6.21,31.68,31.68,0,0,0,3.45,21.72c17.68,32.35,65.78-1.79,65.78-1.79Z"/><path class="cls-72" d="M650,790.07l16.33-57a1.67,1.67,0,0,1,1.41-1.2c3-.35,11.53-1.32,21.43-2.15,11.92-1,25.77-1.83,34-1.13a1.67,1.67,0,0,1,1.37,2.4c-4.71,9.52-24.06,48.24-33.76,60.93a1.67,1.67,0,0,1-1.34.66l-37.89-.35A1.67,1.67,0,0,1,650,790.07Z"/><path class="cls-3" d="M690.9,724.74l11.84-2a.85.85,0,0,1,1,1.1l-1.17,3.56a.83.83,0,0,1-.7.57l-11.39,1.52a.84.84,0,0,1-.94-1l.72-3.1A.86.86,0,0,1,690.9,724.74Z"/><path class="cls-3" d="M682,734.77l1-5.08a1.18,1.18,0,0,1,1-1L708,726.31a1.17,1.17,0,0,1,1.26,1.44l-1.52,6.34a1.16,1.16,0,0,1-1.08.89l-23.37,1.18A1.17,1.17,0,0,1,682,734.77Z"/><path class="cls-73" d="M654,776.29s-2.27-9.36-1.35-12.67,2.69-7.59,8.62-6.64a87.18,87.18,0,0,1,12.92,3.44s-.36,4.33-4.86,2.93l2.79,2.16s-.4,3.46-4.2,1.61l2.6,2.87a3,3,0,0,1-4.44,1C663.26,769.19,661.92,777.42,654,776.29Z"/><path class="cls-8" d="M644.5,740.68c-1.87.15-17.67.66-17.67.66l.64,15.9,8.19,4.62,8.84-4.62Z"/><polygon class="cls-8" points="645.76 740.68 626.87 741.34 626.1 747.44 635.93 749.99 646.38 745.34 645.76 740.68"/><rect class="cls-74" x="205.59" y="926.78" width="293.6" height="27.18"/><rect class="cls-75" x="199.2" y="926.78" width="8.53" height="33.57"/><path class="cls-8" d="M496,773c0-6.42-6.77-11.94-14.13-11.94H205c-7.35,0-12.69,5.52-12.69,11.94V918.94c0,6.42,5.34,11.57,12.69,11.57H481.87c7.36,0,14.13-5.15,14.13-11.57Z"/><path class="cls-9" d="M486.41,778.89c0-5.87-5.16-10.9-12.09-10.9H213.09c-6.94,0-13.89,5-13.89,10.9v133.4c0,5.87,7,10.76,13.89,10.76H474.32c6.93,0,12.09-4.89,12.09-10.76Z"/><path class="cls-76" d="M592.18,879.33,574,823.11a3.41,3.41,0,0,0-3.25-2.36H497.6V954h98.89Z"/><path class="cls-77" d="M597,933.6a6.11,6.11,0,0,0-3.53-1L517.3,934.1,517,955.76l76.13,1.87c2.79,0,5.21-1.35,5.21-3.24V936.05A2.73,2.73,0,0,0,597,933.6Z"/><path class="cls-78" d="M578,875.44l-11-43.78a3.75,3.75,0,0,0-3.31-2.92h-43a4,4,0,0,0-3.42,4l1,35a3.45,3.45,0,0,0,2.87,3.31l53,8.58a3.41,3.41,0,0,0,3.06-1A3.37,3.37,0,0,0,578,875.44Z"/><path class="cls-79" d="M575.79,828.72l-.56.1a3.4,3.4,0,0,0-2.74,4.25l12,44.57a3.41,3.41,0,0,0,3.93,2.47l3.78-.7Z"/><rect class="cls-80" x="517.31" y="882.02" width="19.72" height="7.99" rx="3.23"/><path class="cls-81" d="M502.72,781.59a5,5,0,0,0-3.46,1.12,4.56,4.56,0,0,0-1.66,3v35h44.61S539.82,784.3,502.72,781.59Z"/><circle class="cls-82" cx="543.34" cy="956.37" r="34.65"/><circle class="cls-8" cx="543.34" cy="956.37" r="28.14" transform="translate(-101.11 65) rotate(-6.26)"/><path class="cls-83" d="M567,966.6a.45.45,0,0,1-.2,0,.54.54,0,0,1-.29-.7,24.4,24.4,0,0,0-34.37-30.78.52.52,0,0,1-.72-.2.55.55,0,0,1,.2-.73,25.46,25.46,0,0,1,37.87,22.22,25.2,25.2,0,0,1-2,9.9A.52.52,0,0,1,567,966.6Z"/><circle class="cls-84" cx="543.34" cy="956.37" r="12.91" transform="translate(-529.45 1199.25) rotate(-73.16)"/><circle class="cls-85" cx="329.7" cy="956.37" r="34.65"/><circle class="cls-8" cx="329.7" cy="956.37" r="28.14" transform="translate(-114.38 47.45) rotate(-7.02)"/><path class="cls-86" d="M353.34,966.6a.52.52,0,0,1-.21,0,.53.53,0,0,1-.28-.7,24.4,24.4,0,0,0-34.37-30.78.53.53,0,0,1-.73-.2.54.54,0,0,1,.21-.73,25.46,25.46,0,0,1,37.87,22.22,25.2,25.2,0,0,1-2,9.9A.53.53,0,0,1,353.34,966.6Z"/><circle class="cls-87" cx="329.7" cy="956.37" r="12.91" transform="translate(-676.83 1057.52) rotate(-76.72)"/><circle class="cls-88" cx="250.43" cy="956.37" r="34.65"/><circle class="cls-8" cx="250.43" cy="956.37" r="28.14" transform="translate(-102.86 33.04) rotate(-6.26)"/><path class="cls-89" d="M274.07,966.6a.52.52,0,0,1-.21,0,.53.53,0,0,1-.28-.7,24.4,24.4,0,0,0-34.37-30.78.52.52,0,0,1-.72-.2.53.53,0,0,1,.2-.73,25.46,25.46,0,0,1,37.87,22.22,25.2,25.2,0,0,1-2,9.9A.52.52,0,0,1,274.07,966.6Z"/><circle class="cls-90" cx="250.43" cy="956.37" r="12.91" transform="translate(-737.47 918.92) rotate(-73.16)"/><rect class="cls-91" x="581.26" y="912.4" width="15.99" height="19.18" rx="3.42"/><path class="cls-10" d="M587.65,912.4v18.11h-2.38c-1.89,0-4-1.8-4-3.69V915.57c0-1.89,2.12-3.17,4-3.17Z"/><path class="cls-7" d="M503.46,908.13a.52.52,0,0,1-.53-.53V828.74a.52.52,0,0,1,.53-.53.53.53,0,0,1,.53.53V907.6A.53.53,0,0,1,503.46,908.13Z"/><path class="cls-7" d="M534,817.26a.55.55,0,0,1-.51-.36c-10.29-29.84-31.53-27.67-31.74-27.65a.53.53,0,0,1-.13-1.06,25.07,25.07,0,0,1,12.49,2.58c11.34,5.33,17.35,17,20.39,25.78a.53.53,0,0,1-.33.68Z"/><path class="cls-7" d="M212.49,766l-2.11-1.27a.93.93,0,0,1-.31-1.27.92.92,0,0,1,1.27-.31h0l2,1.29h0a.89.89,0,0,1,.28,1.24A.88.88,0,0,1,212.49,766Z"/><path class="cls-7" d="M205.56,761.59l-2-1.39a1,1,0,0,1-.26-1.39,1,1,0,0,1,1.39-.26h0v0l2,1.4h0a1,1,0,0,1,.23,1.36A1,1,0,0,1,205.56,761.59Z"/><path class="cls-7" d="M198.88,756.85l-1.95-1.49a1.08,1.08,0,1,1,1.31-1.71h0l0,0,1.9,1.5h0a1.06,1.06,0,0,1-1.3,1.67Z"/><path class="cls-7" d="M192.46,751.77l-1.87-1.59a1.15,1.15,0,1,1,1.49-1.75h0l1.82,1.6h0a1.13,1.13,0,0,1-1.48,1.71Z"/><path class="cls-7" d="M186.32,746.35l-1.79-1.69a1.2,1.2,0,0,1,1.65-1.75h0l0,0,1.73,1.68,0,0a1.18,1.18,0,0,1-1.64,1.71Z"/><path class="cls-7" d="M180.46,740.62l-1.7-1.78a1.26,1.26,0,1,1,1.82-1.74h0l0,0,1.64,1.77,0,0a1.24,1.24,0,0,1-1.81,1.7Z"/><path class="cls-7" d="M174.91,734.59l-1.61-1.86a1.32,1.32,0,1,1,2-1.72h0v0l1.56,1.86h0a1.29,1.29,0,0,1-2,1.68Z"/><path class="cls-7" d="M169.66,728.28l-1.5-1.94a1.37,1.37,0,1,1,2.16-1.68h0l0,0,1.45,1.93v0a1.35,1.35,0,0,1-2.15,1.64Z"/><path class="cls-7" d="M164.76,721.7l-1.4-2a1.43,1.43,0,1,1,2.34-1.63h0l0,0,1.34,2,0,0a1.41,1.41,0,0,1-2.33,1.59Z"/><path class="cls-7" d="M160.21,714.86l-1.29-2.1a1.48,1.48,0,1,1,2.53-1.55h0v0l1.24,2.08v0a1.46,1.46,0,0,1-2.51,1.51Z"/><path class="cls-7" d="M156.05,707.78l-1.17-2.17a1.54,1.54,0,1,1,2.71-1.46h0l0,0,1.12,2.14v0a1.52,1.52,0,0,1-2.69,1.43Z"/><path class="cls-7" d="M152.31,700.46l-1-2.24a1.58,1.58,0,0,1,2.86-1.33v0l1,2.2,0,0a1.57,1.57,0,0,1-2.85,1.3Z"/><path class="cls-7" d="M149,692.92l-.89-2.31a1.61,1.61,0,1,1,3-1.16h0v0l.86,2.25v0a1.6,1.6,0,0,1-3,1.15Z"/><path class="cls-7" d="M146.2,685.18l-.75-2.36a1.64,1.64,0,1,1,3.13-1h0v0l.71,2.3v0a1.63,1.63,0,0,1-3.11,1Z"/><path class="cls-7" d="M143.88,677.27l-.58-2.41a1.67,1.67,0,1,1,3.25-.79h0v0l.55,2.34v0a1.67,1.67,0,0,1-3.24.78Z"/><path class="cls-7" d="M142.12,669.21l-.42-2.44a1.7,1.7,0,1,1,3.36-.58h0v0l.39,2.37v0a1.7,1.7,0,0,1-3.35.56Z"/><path class="cls-7" d="M140.93,661l-.24-2.47a1.74,1.74,0,1,1,3.46-.33h0v0l.21,2.39v0a1.73,1.73,0,0,1-3.44.32Z"/><path class="cls-7" d="M140.35,652.79l0-2.48a1.78,1.78,0,0,1,3.55-.07v.06l0,2.4v0a1.77,1.77,0,0,1-3.53,0Z"/><path class="cls-7" d="M140.42,644.52l.14-2.48a1.81,1.81,0,0,1,3.61.22h0v0l-.16,2.4v0a1.79,1.79,0,0,1-3.58-.23Z"/><path class="cls-7" d="M141.14,636.28l.35-2.46a1.84,1.84,0,1,1,3.64.51h0v0l-.36,2.37v0a1.83,1.83,0,0,1-3.62-.52Z"/><path class="cls-7" d="M142.53,628.11l.55-2.42a1.87,1.87,0,1,1,3.65.82v.06l-.55,2.33V629a1.86,1.86,0,0,1-3.63-.84Z"/><path class="cls-7" d="M144.59,620.09l.74-2.37a1.9,1.9,0,1,1,3.63,1.13h0l0,0-.73,2.28v0a1.89,1.89,0,0,1-3.61-1.14Z"/><path class="cls-7" d="M147.27,612.25l.91-2.3a1.94,1.94,0,1,1,3.6,1.43h0v0l-.91,2.22v0a1.92,1.92,0,0,1-3.57-1.44Z"/><path class="cls-7" d="M150.53,604.65l1.08-2.23a2,2,0,0,1,3.54,1.72h0l0,0-1.07,2.15,0,0a2,2,0,0,1-3.51-1.73Z"/><path class="cls-7" d="M154.34,597.31l1.25-2.14a2,2,0,0,1,3.42,2h0l0,0-1.2,2.07,0,0a2,2,0,0,1-3.42-2Z"/><path class="cls-7" d="M158.66,590.27l1.38-2.06a2,2,0,1,1,3.29,2.21h0l0,0-1.34,2,0,0a2,2,0,0,1-3.28-2.21Z"/><path class="cls-7" d="M163.41,583.52l1.51-2a2,2,0,0,1,3.16,2.42h0l0,0-1.46,1.91,0,0a2,2,0,0,1-3.16-2.42Z"/><path class="cls-7" d="M168.56,577.07l1.61-1.87a2,2,0,0,1,3,2.61h0l0,0-1.58,1.82,0,0a2,2,0,1,1-3-2.61Z"/><path class="cls-7" d="M174.06,570.93l1.71-1.78a2,2,0,0,1,2.9,2.78h0l0,0L177,573.69l0,0a2,2,0,0,1-2.89-2.79Z"/><path class="cls-7" d="M179.87,565.1l1.8-1.69a2,2,0,0,1,2.76,2.94h0l0,0L182.65,568l0,0a2,2,0,0,1-2.76-2.94Z"/><path class="cls-7" d="M186,559.57l1.88-1.61a2,2,0,1,1,2.62,3.08h0l0,0-1.84,1.57h0a2,2,0,1,1-2.62-3.07Z"/><path class="cls-7" d="M192.31,554.33l1.95-1.51a2,2,0,1,1,2.49,3.2h0l0,0-1.91,1.48h0a2,2,0,0,1-2.49-3.2Z"/><path class="cls-7" d="M198.88,549.39l2-1.43a2,2,0,1,1,2.36,3.32h0l0,0-2,1.39,0,0a2,2,0,0,1-2.36-3.32Z"/><path class="cls-7" d="M205.65,544.73l2.07-1.35a2,2,0,0,1,2.23,3.44h0l-2,1.31,0,0a2,2,0,0,1-2.23-3.43Z"/><path class="cls-7" d="M212.61,540.35l2.12-1.26a2.05,2.05,0,0,1,2.09,3.53h0l-2.08,1.23h0a2.05,2.05,0,0,1-2.09-3.53Z"/><path class="cls-7" d="M219.73,536.26l2.16-1.18a2.06,2.06,0,1,1,2,3.62h0l-2.13,1.15h0a2.05,2.05,0,1,1-2-3.61Z"/><path class="cls-7" d="M227,532.42l2.2-1.09A2.07,2.07,0,1,1,231,535h0l-2.16,1.07h0a2.07,2.07,0,1,1-1.84-3.7Z"/><path class="cls-7" d="M234.38,528.86l2.24-1a2.08,2.08,0,1,1,1.72,3.78h0l-2.2,1h0a2.07,2.07,0,1,1-1.71-3.77Z"/><path class="cls-7" d="M241.89,525.55l2.27-.94a2.08,2.08,0,0,1,1.59,3.85h0l-2.24.92h0a2.08,2.08,0,0,1-1.58-3.85Z"/><path class="cls-7" d="M249.51,522.51l2.3-.86a2.09,2.09,0,0,1,1.46,3.92h0l-2.27.84h0a2.09,2.09,0,0,1-1.45-3.92Z"/><path class="cls-7" d="M257.23,519.74l2.33-.78a2.1,2.1,0,1,1,1.33,4h0l-2.3.76h0a2.1,2.1,0,0,1-1.32-4Z"/><path class="cls-7" d="M265,517.23l2.36-.69a2.1,2.1,0,1,1,1.18,4h0l-2.32.69h0a2.11,2.11,0,0,1-1.2-4Z"/><path class="cls-7" d="M272.94,515l2.38-.61a2.09,2.09,0,0,1,1,4h0l-2.35.61h0a2.09,2.09,0,1,1-1.05-4Z"/><path class="cls-7" d="M280.9,513.06l2.41-.54a2.08,2.08,0,0,1,.9,4.07h0l-2.36.53h0a2.08,2.08,0,1,1-.91-4.06Z"/><path class="cls-7" d="M288.93,511.38l2.42-.46a2.07,2.07,0,1,1,.76,4.07h0l-2.38.45h0a2.07,2.07,0,0,1-.77-4.07Z"/><path class="cls-7" d="M297,510l2.43-.37a2.06,2.06,0,1,1,.62,4.07h0l-2.39.37h0A2.06,2.06,0,1,1,297,510Z"/><path class="cls-7" d="M305.14,508.83l2.45-.29a2,2,0,0,1,.48,4.07h0l-2.4.29h0a2,2,0,1,1-.49-4.07Z"/><path class="cls-7" d="M313.3,508l2.46-.2a2,2,0,1,1,.34,4.06h0l-2.41.21h0a2,2,0,1,1-.35-4.07Z"/><path class="cls-7" d="M321.49,507.37l2.46-.12a2,2,0,0,1,.2,4.05h0l-2.41.13h0a2,2,0,1,1-.22-4.06Z"/><path class="cls-7" d="M329.68,507.06l2.47,0a2,2,0,1,1,.06,4h0l-2.42.05h0a2,2,0,1,1-.08-4Z"/><path class="cls-7" d="M337.89,507l2.46.05a2,2,0,0,1-.07,4h0l-2.42,0h0a2,2,0,1,1,.06-4Z"/><path class="cls-7" d="M346.09,507.26l2.45.13a2,2,0,1,1-.2,4h0l-2.41-.12h0a2,2,0,0,1,.19-4Z"/><path class="cls-7" d="M354.27,507.78l2.45.22a2,2,0,1,1-.34,3.95h0l-2.41-.2h0a2,2,0,1,1,.33-4Z"/><path class="cls-7" d="M362.43,508.59l2.45.29a2,2,0,1,1-.48,3.92h0l-2.4-.28h0a2,2,0,0,1,.46-3.94Z"/><path class="cls-7" d="M370.56,509.67l2.43.38a2,2,0,0,1-.6,3.88h0l-2.39-.37h0a2,2,0,1,1,.6-3.89Z"/><path class="cls-7" d="M378.65,511l2.41.47a2,2,0,1,1-.73,3.84h0l-2.38-.45h0a2,2,0,0,1,.73-3.85Z"/><path class="cls-7" d="M386.68,512.68l2.4.55a1.94,1.94,0,0,1-.87,3.79h0l-2.35-.54h0a1.95,1.95,0,0,1,.86-3.8Z"/><path class="cls-7" d="M394.65,514.61l2.38.64a1.94,1.94,0,0,1-1,3.74h0l-2.33-.62h0a1.94,1.94,0,1,1,1-3.75Z"/><path class="cls-7" d="M402.55,516.83l2.35.72a1.92,1.92,0,1,1-1.13,3.68h0l-2.32-.7h0a1.93,1.93,0,1,1,1.11-3.69Z"/><path class="cls-7" d="M410.36,519.32l2.32.79a1.91,1.91,0,1,1-1.23,3.62h0l-2.29-.78h0a1.92,1.92,0,0,1,1.23-3.64Z"/><path class="cls-7" d="M418.08,522.05l2.3.87a1.9,1.9,0,0,1-1.34,3.56h0l-2.27-.85h0a1.91,1.91,0,1,1,1.34-3.57Z"/><path class="cls-7" d="M425.71,525,428,526a1.89,1.89,0,1,1-1.44,3.5h0l-2.25-.92h0a1.9,1.9,0,0,1,1.43-3.52Z"/><path class="cls-7" d="M433.26,528.19l2.24,1a1.89,1.89,0,1,1-1.52,3.45h0l-2.22-1h0a1.88,1.88,0,0,1,1.51-3.45Z"/><path class="cls-7" d="M440.71,531.56l2.22,1a1.87,1.87,0,0,1-1.6,3.39h0l-2.19-1h0a1.88,1.88,0,1,1,1.59-3.4Z"/><path class="cls-7" d="M448.08,535.09l2.19,1.1a1.86,1.86,0,1,1-1.66,3.33h0l-2.17-1.08h0a1.87,1.87,0,1,1,1.65-3.35Z"/><path class="cls-7" d="M455.36,538.79l2.18,1.14a1.85,1.85,0,0,1-1.72,3.28h0l-2.15-1.12h0a1.85,1.85,0,1,1,1.71-3.29Z"/><path class="cls-7" d="M462.58,542.63l2.14,1.17A1.84,1.84,0,1,1,463,547h0l-2.13-1.16h0a1.85,1.85,0,0,1,1.76-3.25Z"/><path class="cls-7" d="M469.72,546.58l2.12,1.21A1.83,1.83,0,0,1,470,551h0l-2.12-1.2h0a1.84,1.84,0,0,1,1.8-3.2Z"/><path class="cls-7" d="M476.79,550.64l2.11,1.24a1.82,1.82,0,0,1-1.84,3.15h0L475,553.8h0a1.83,1.83,0,1,1,1.84-3.16Z"/><path class="cls-7" d="M483.81,554.8l2.1,1.26a1.81,1.81,0,0,1-1.87,3.1h0L482,557.91h0a1.81,1.81,0,0,1,1.87-3.11Z"/><path class="cls-7" d="M490.78,559l2.08,1.28a1.8,1.8,0,0,1-1.89,3.07h0l-2.07-1.28h0a1.8,1.8,0,1,1,1.88-3.08Z"/><path class="cls-7" d="M497.71,563.31l2.07,1.3a1.79,1.79,0,0,1-1.9,3l-2.07-1.29a1.79,1.79,0,1,1,1.89-3.05Z"/><path class="cls-7" d="M504.6,567.65l2.06,1.31a1.78,1.78,0,0,1-1.9,3l-2.06-1.3a1.78,1.78,0,1,1,1.89-3Z"/><path class="cls-7" d="M511.47,572l2.06,1.32a1.77,1.77,0,0,1-1.91,3L509.56,575a1.77,1.77,0,0,1,1.9-3Z"/><path class="cls-7" d="M518.32,576.41l2,1.32a1.76,1.76,0,0,1-1.89,3l-2.06-1.31a1.76,1.76,0,1,1,1.9-3Z"/><path class="cls-7" d="M525.16,580.8l2.06,1.32a1.75,1.75,0,0,1-1.89,3l-2.06-1.31a1.76,1.76,0,0,1,1.89-3Z"/><path class="cls-7" d="M532,585.19l2,1.32a1.74,1.74,0,0,1-1.86,2.93l-2.07-1.31a1.74,1.74,0,0,1,1.87-2.94Z"/><path class="cls-7" d="M538.86,589.56l2.06,1.31a1.73,1.73,0,1,1-1.84,2.92l-2.07-1.3a1.73,1.73,0,0,1,1.85-2.93Z"/><path class="cls-7" d="M545.73,593.9l2.07,1.29a1.72,1.72,0,1,1-1.82,2.92l-2.07-1.29a1.72,1.72,0,1,1,1.82-2.93Z"/><path class="cls-7" d="M552.63,598.19l2.07,1.27h0a1.71,1.71,0,0,1-1.79,2.92l-2.08-1.28a1.71,1.71,0,0,1,1.78-2.92h0Z"/><path class="cls-7" d="M559.56,602.42l2.08,1.25h0a1.69,1.69,0,0,1-1.73,2.9l-2.1-1.26a1.69,1.69,0,1,1,1.73-2.91h0Z"/><path class="cls-7" d="M566.52,606.58l2.1,1.23h0a1.67,1.67,0,0,1-1.69,2.88l-2.11-1.22a1.68,1.68,0,0,1,1.68-2.9h0Z"/><path class="cls-7" d="M573.54,610.65l2.11,1.2h0a1.65,1.65,0,0,1-1.62,2.87l-2.14-1.2a1.65,1.65,0,0,1,1.62-2.88h0Z"/><path class="cls-7" d="M580.61,614.61l2.13,1.16h0a1.63,1.63,0,0,1-1.55,2.86L579,617.47a1.63,1.63,0,1,1,1.55-2.87h0Z"/><path class="cls-7" d="M587.74,618.45l2.16,1.12h0a1.61,1.61,0,0,1-1.48,2.85l-2.18-1.13a1.61,1.61,0,0,1,1.48-2.86h0Z"/><path class="cls-7" d="M595,622.15l2.18,1.08h0a1.58,1.58,0,0,1-1.4,2.84l-2.2-1.08a1.59,1.59,0,1,1,1.39-2.85h0Z"/><path class="cls-7" d="M602.23,625.69l2.2,1h0a1.56,1.56,0,0,1-1.31,2.83l-2.23-1a1.57,1.57,0,0,1,1.31-2.85h0Z"/><path class="cls-7" d="M609.59,629.06l2.23,1h0a1.54,1.54,0,0,1-1.23,2.83l-2.25-1a1.55,1.55,0,1,1,1.23-2.84h0Z"/><path class="cls-7" d="M617,632.23l2.25.91h0a1.52,1.52,0,0,1-1.13,2.82l-2.28-.91a1.52,1.52,0,0,1,1.13-2.83h0Z"/><path class="cls-7" d="M624.56,635.18l2.28.84h0a1.5,1.5,0,1,1-1,2.81l-2.3-.84a1.5,1.5,0,0,1,1-2.83h0Z"/><path class="cls-7" d="M632.18,637.9l2.3.77h0a1.47,1.47,0,0,1-.92,2.8l-2.34-.77a1.48,1.48,0,0,1,.93-2.81h0Z"/><path class="cls-7" d="M639.87,640.37l2.33.69h0a1.45,1.45,0,0,1-.81,2.78l-2.36-.68a1.46,1.46,0,1,1,.81-2.8h0Z"/><path class="cls-7" d="M647.65,642.57l2.35.6h0a1.43,1.43,0,0,1-.7,2.77l-2.38-.6a1.43,1.43,0,1,1,.7-2.78h0Z"/><path class="cls-7" d="M655.5,644.48l2.37.51h0a1.41,1.41,0,0,1-.59,2.75l-2.41-.51a1.41,1.41,0,1,1,.59-2.76h0Z"/><path class="cls-7" d="M663.42,646.09l2.38.42h0a1.39,1.39,0,1,1-.47,2.73l-2.42-.41a1.39,1.39,0,0,1,.46-2.75h0Z"/><path class="cls-7" d="M671.39,647.37l2.4.32h0a1.37,1.37,0,0,1-.35,2.71l-2.44-.31a1.38,1.38,0,0,1-1.19-1.54,1.36,1.36,0,0,1,1.53-1.18h0Z"/><path class="cls-7" d="M679.41,648.3l2.42.21h0a1.34,1.34,0,1,1-.22,2.68l-2.45-.2a1.35,1.35,0,1,1,.22-2.69h0Z"/><path class="cls-7" d="M687.46,648.87l2.42.1h0a1.32,1.32,0,0,1-.11,2.64l-2.45-.09a1.33,1.33,0,1,1,.1-2.65h0Z"/><path class="cls-7" d="M695.53,649.08H698a1.3,1.3,0,0,1,0,2.6l-2.45,0a1.31,1.31,0,1,1,0-2.62h0Z"/><path class="cls-7" d="M703.61,649l2.42-.1h0a1.28,1.28,0,1,1,.12,2.55l-2.45.12a1.29,1.29,0,0,1-1.35-1.22,1.3,1.3,0,0,1,1.22-1.35h0Z"/><path class="cls-7" d="M711.67,648.48l2.41-.21h0a1.25,1.25,0,1,1,.22,2.5l-2.44.23a1.27,1.27,0,1,1-.23-2.52h0Z"/><path class="cls-7" d="M719.71,647.66l2.4-.31h0a1.24,1.24,0,0,1,.33,2.45l-2.44.33a1.24,1.24,0,0,1-.33-2.46h0Z"/><path class="cls-7" d="M727.7,646.52l2.39-.41h0a1.21,1.21,0,0,1,1.4,1,1.22,1.22,0,0,1-1,1.4l-2.41.42a1.22,1.22,0,1,1-.43-2.4h0Z"/><path class="cls-7" d="M735.65,645l2.37-.5h0a1.19,1.19,0,0,1,.5,2.33l-2.4.52a1.2,1.2,0,1,1-.51-2.34h0Z"/><path class="cls-7" d="M743.53,643.25l2.35-.6h0a1.17,1.17,0,0,1,1.42.84,1.16,1.16,0,0,1-.84,1.42l-2.37.62a1.17,1.17,0,1,1-.6-2.27h0Z"/><path class="cls-7" d="M751.34,641.14l2.33-.69h0a1.15,1.15,0,0,1,.67,2.2l-2.35.72a1.17,1.17,0,0,1-1.45-.77,1.16,1.16,0,0,1,.77-1.44h0Z"/><path class="cls-7" d="M759.06,638.72l2.3-.78h0a1.13,1.13,0,0,1,.74,2.13l-2.32.81a1.13,1.13,0,0,1-.75-2.14h0Z"/><path class="cls-7" d="M766.68,636l2.27-.88h0a1.1,1.1,0,1,1,.8,2.06l-2.28.9a1.11,1.11,0,1,1-.82-2.07h0Z"/><path class="cls-7" d="M774.19,633l2.23-1h0a1.08,1.08,0,0,1,.86,2l-2.24,1a1.1,1.1,0,0,1-1.44-.56,1.09,1.09,0,0,1,.56-1.43h0Z"/><path class="cls-7" d="M781.58,629.67l2.19-1h0a1,1,0,0,1,.91,1.87l-2.21,1.08a1.05,1.05,0,0,1-1.41-.48,1.07,1.07,0,0,1,.49-1.41h0Z"/><path class="cls-7" d="M788.83,626.08l2.15-1.14h0a1,1,0,0,1,1.36.42,1,1,0,0,1-.41,1.35l-2.16,1.17a1,1,0,0,1-1-1.79h0Z"/><path class="cls-7" d="M795.94,622.2,798,621h0a1,1,0,0,1,1,1.68l-2.11,1.25a1,1,0,1,1-1-1.69h0Z"/><path class="cls-7" d="M802.89,618l2.05-1.3h0a.94.94,0,0,1,1,1.58l-2.06,1.33a.95.95,0,0,1-1-1.59h0Z"/><path class="cls-7" d="M809.66,613.61l2-1.39h0a.9.9,0,0,1,1.26.22.91.91,0,0,1-.23,1.26l-2,1.41a.91.91,0,0,1-1.05-1.49h0Z"/><path class="cls-7" d="M816.26,608.9l1.94-1.46h0a.87.87,0,0,1,1,1.38l-2,1.49a.87.87,0,0,1-1.23-.16.88.88,0,0,1,.16-1.23h0Z"/><path class="cls-7" d="M822.65,603.93l1.88-1.54h0a.83.83,0,0,1,1.17.12.84.84,0,0,1-.11,1.17l-1.88,1.57a.85.85,0,0,1-1.08-1.3h0Z"/><path class="cls-7" d="M828.84,598.71l1.81-1.62h0a.8.8,0,0,1,1.06,1.19l-1.81,1.64a.81.81,0,1,1-1.09-1.19h0Z"/><path class="cls-7" d="M834.8,593.23l1.74-1.69h0a.77.77,0,0,1,1.08,0,.76.76,0,0,1,0,1.08l-1.74,1.72a.76.76,0,0,1-1.09,0,.77.77,0,0,1,0-1.09h0Z"/><path class="cls-7" d="M840.52,587.5l1.67-1.76h0a.73.73,0,0,1,1.06,1l-1.67,1.8a.74.74,0,1,1-1.08-1h0Z"/><path class="cls-7" d="M846,581.53l1.59-1.83h0a.7.7,0,0,1,1-.07.68.68,0,0,1,.07,1l-1.58,1.87a.7.7,0,0,1-1,.07.69.69,0,0,1-.08-1h0Z"/><path class="cls-7" d="M851.21,575.33l1.5-1.9h0a.66.66,0,0,1,1,.81l-1.51,1.93a.67.67,0,1,1-1-.82h0Z"/><path class="cls-7" d="M856.14,568.9l1.42-2h0a.62.62,0,0,1,1,.72l-1.42,2a.64.64,0,0,1-.88.15.63.63,0,0,1-.15-.88h0Z"/><path class="cls-7" d="M860.78,562.26l1.32-2h0a.59.59,0,0,1,.81-.18.6.6,0,0,1,.18.81l-1.32,2.07a.6.6,0,0,1-1-.65h0Z"/><path class="cls-7" d="M865,555.38l1.17-2.12v0a.56.56,0,0,1,1,.54L866,555.94a.56.56,0,0,1-1-.54h0Z"/><path class="cls-7" d="M868.68,548.18l.93-2.24v0a.52.52,0,0,1,.68-.28.53.53,0,0,1,.28.68l-.92,2.28a.53.53,0,0,1-1-.4h0Z"/><path class="cls-7" d="M871.38,540.59l.57-2.34v0a.49.49,0,0,1,.95.23l-.56,2.39a.49.49,0,0,1-1-.22h0Z"/><path class="cls-7" d="M872.73,532.68l.08-2.4v0a.45.45,0,1,1,.9,0l-.06,2.47a.47.47,0,0,1-.47.45.46.46,0,0,1-.45-.47h0Z"/><path class="cls-7" d="M872.27,524.7l-.56-2.33v0a.41.41,0,1,1,.8-.2l.6,2.4a.42.42,0,1,1-.82.21h0Z"/><path class="cls-7" d="M869.66,517.14l-1.17-2.1,0,0a.39.39,0,0,1,.15-.52.38.38,0,0,1,.51.15l1.23,2.14a.4.4,0,0,1-.15.54.39.39,0,0,1-.53-.15h0Z"/><path class="cls-7" d="M865.08,510.58l-1.73-1.67,0,0a.34.34,0,0,1,.47-.5l1.81,1.7a.35.35,0,1,1-.49.51h0Z"/><path class="cls-7" d="M858.68,505.83l-2.22-.91h0a.33.33,0,0,1-.17-.41.32.32,0,0,1,.4-.17l2.31.92a.32.32,0,0,1,.18.41.32.32,0,0,1-.42.18h0Z"/><path class="cls-7" d="M873,518.11l-.63-.84-.1-.14c-.17-.25-.53-.76-1.07-1.45a.44.44,0,0,1,.07-.6.43.43,0,0,1,.6.08c.23.29.43.55.59.77a.44.44,0,0,1,.38-.15.42.42,0,0,1,.38.46c-.05.54-.09.83-.09.83Zm.09-4.28H873a.43.43,0,0,1-.41-.45c0-.91.08-1.84.09-2.77a.41.41,0,0,1,.43-.42.42.42,0,0,1,.42.43c0,.94,0,1.88-.09,2.8A.43.43,0,0,1,873.1,513.83Zm-3.28-.11a.45.45,0,0,1-.41-.12,25.26,25.26,0,0,0-2-1.9.44.44,0,0,1,0-.6.43.43,0,0,1,.6-.05,26.85,26.85,0,0,1,2,2,.42.42,0,0,1,0,.6A.37.37,0,0,1,869.82,513.72Zm-4.24-3.61a.52.52,0,0,1-.34-.06,17.07,17.07,0,0,0-2.37-1.33.43.43,0,0,1,.35-.78,17.24,17.24,0,0,1,2.49,1.4.43.43,0,0,1,.13.59A.51.51,0,0,1,865.58,510.11Zm7.6-1.86h-.09a.44.44,0,0,1-.44-.42c0-.92,0-1.86-.11-2.77a.43.43,0,0,1,.4-.45.41.41,0,0,1,.45.4c.06.92.1,1.87.12,2.8A.44.44,0,0,1,873.18,508.25Zm-12.66-.43a.34.34,0,0,1-.2,0,12.54,12.54,0,0,0-1.9-.31l-.81-.08a.43.43,0,0,1,.1-.85l.79.08a14.17,14.17,0,0,1,2,.33.43.43,0,0,1,.31.52A.41.41,0,0,1,860.52,507.82ZM850,509.58l-.83.18A2.54,2.54,0,0,0,848,508.3a.44.44,0,0,1-.14-.59.42.42,0,0,1,.59-.13,4,4,0,0,1,1.24,1.12.43.43,0,0,1,.33.37Zm5-2.7a.55.55,0,0,1-.22,0,10.7,10.7,0,0,1-2.65-1.15.42.42,0,0,1,.44-.72,10.57,10.57,0,0,0,2.45,1.05.42.42,0,0,1,.29.53A.45.45,0,0,1,855,506.88Zm17.81-4.21h-.05a.42.42,0,0,1-.47-.38c-.09-.92-.2-1.85-.33-2.75a.43.43,0,0,1,.85-.12c.13.91.24,1.85.33,2.79A.42.42,0,0,1,872.84,502.67Zm-23.5,4.08h-.05a.42.42,0,0,1-.47-.38c-.11-1.08-.19-2-.25-2.8a.43.43,0,0,1,.85-.06c.06.77.14,1.7.25,2.77A.43.43,0,0,1,849.34,506.75Zm-3.57.37a.36.36,0,0,1-.27,0c-.76-.35-1.6-.75-2.53-1.27a.43.43,0,0,1-.16-.58.42.42,0,0,1,.58-.16c.9.5,1.72.89,2.46,1.23a.42.42,0,0,1,.21.57A.38.38,0,0,1,845.77,507.12Zm4.66-3.2a.46.46,0,0,1-.45-.17,7.88,7.88,0,0,1-1.06-2.12c-.06-.15-.1-.27-.14-.35a.44.44,0,0,1,.12-.61.39.39,0,0,1,.57.1s0,.08.07.13a3.78,3.78,0,0,1,.18.45,6.89,6.89,0,0,0,.95,1.9.43.43,0,0,1-.09.6Zm21.63-6.77h0a.43.43,0,0,1-.5-.34c-.15-.81-.32-1.62-.5-2.4l-.07-.31a.42.42,0,0,1,.31-.51h0a.43.43,0,0,1,.51.32l.08.31c.18.79.36,1.61.51,2.43A.43.43,0,0,1,872.06,497.15Zm-31.13,7.23a.49.49,0,0,1-.35-.07c-.74-.54-1.49-1.13-2.21-1.77a.43.43,0,0,1,.57-.64c.7.62,1.42,1.2,2.14,1.72a.42.42,0,0,1,.1.59A.44.44,0,0,1,840.93,504.38Zm-4.17-3.69a.4.4,0,0,1-.41-.12l-.42-.44a21,21,0,0,1-1.41-1.74.43.43,0,0,1,.69-.5,19.2,19.2,0,0,0,1.35,1.66l.41.44a.43.43,0,0,1,0,.6A.39.39,0,0,1,836.76,500.69Zm34-9a.42.42,0,0,1-.5-.3c-.27-.89-.57-1.77-.88-2.62a.43.43,0,0,1,.8-.29c.32.86.62,1.76.89,2.67a.43.43,0,0,1-.28.53Zm-37.25,4.46A.44.44,0,0,1,833,496a18.33,18.33,0,0,1-1.11-2.63.41.41,0,0,1,.27-.54.43.43,0,0,1,.54.27,17.2,17.2,0,0,0,1.06,2.5.44.44,0,0,1-.19.58Zm35.31-9.69a.42.42,0,0,1-.48-.24c-.38-.85-.8-1.68-1.23-2.47a.43.43,0,1,1,.75-.41c.44.81.86,1.66,1.26,2.53a.43.43,0,0,1-.22.56Zm-37.08,4.42h0a.43.43,0,0,1-.5-.34,22.27,22.27,0,0,1-.31-2.83.44.44,0,0,1,.41-.45.43.43,0,0,1,.45.41,18.86,18.86,0,0,0,.29,2.72A.43.43,0,0,1,831.73,490.92Zm34.4-9.31a.41.41,0,0,1-.45-.18c-.51-.77-1.06-1.51-1.63-2.21a.42.42,0,0,1,.07-.6.43.43,0,0,1,.6.06c.58.72,1.14,1.49,1.67,2.28a.42.42,0,0,1-.12.59A.35.35,0,0,1,866.13,481.61Zm-34.62,3.75h-.14a.43.43,0,0,1-.38-.47,11.16,11.16,0,0,1,.6-2.9h0l.6-1a.43.43,0,0,1,.74.42l-.62,1.08a11.83,11.83,0,0,0-.47,2.52A.44.44,0,0,1,831.51,485.36Zm31.11-8.06a.43.43,0,0,1-.4-.12,27,27,0,0,0-2-1.83.44.44,0,0,1-.07-.6.43.43,0,0,1,.6-.06,25,25,0,0,1,2.11,1.89.42.42,0,0,1,0,.6A.47.47,0,0,1,862.62,477.3Zm-4.34-3.49a.43.43,0,0,1-.33-.06,25.1,25.1,0,0,0-2.38-1.34.43.43,0,0,1-.2-.57.42.42,0,0,1,.57-.19,24.77,24.77,0,0,1,2.47,1.38.42.42,0,0,1,.13.59A.45.45,0,0,1,858.28,473.81Zm-24.23,5.36a.43.43,0,0,1-.31-.05.42.42,0,0,1-.16-.58l1.39-2.42a.43.43,0,0,1,.58-.16.42.42,0,0,1,.16.58L834.32,479A.43.43,0,0,1,834.05,479.17Zm19.24-7.83a.39.39,0,0,1-.24,0c-.84-.31-1.72-.59-2.62-.83a.42.42,0,0,1,.22-.82,28.13,28.13,0,0,1,2.69.85.43.43,0,0,1,.26.55A.45.45,0,0,1,853.29,471.34Zm-16.46,3a.43.43,0,0,1-.47-.63l1.4-2.42a.42.42,0,0,1,.73.43l-1.39,2.42A.45.45,0,0,1,836.83,474.33Zm11.08-4.41h-.17c-.88-.15-1.8-.27-2.73-.35a.43.43,0,0,1-.38-.47.42.42,0,0,1,.46-.38c.95.09,1.89.21,2.8.36a.43.43,0,0,1,.35.49A.44.44,0,0,1,847.91,469.92Zm-5.54-.51h-.11c-.82,0-1.66,0-2.51,0a.45.45,0,0,1-.45,0,.42.42,0,0,1-.15-.58l.15-.27h.23c.93,0,1.86,0,2.75,0a.44.44,0,0,1,.42.44A.45.45,0,0,1,842.37,469.41Z"/><path class="cls-8" d="M835.62,477.22s-2.29,12.15,6.44,14.79,18.21,3.15,20.26,6.92c0,0-.11-24.17-24.12-25.23Z"/><path class="cls-9" d="M809.81,473.79s-6.28,10.38-4.2,13.92c2,3.38,25,18.36,27.27,19.81a.23.23,0,0,0,.31-.06h0a3.11,3.11,0,0,0,.51-2.77c-1.36-4.6-5.53-18.32-8.12-22.07C822.45,478.1,809.81,473.79,809.81,473.79Z"/><path class="cls-7" d="M825.62,500.84a.29.29,0,0,1-.22,0c-.13-.09-12.6-8.51-17.83-12.34a3,3,0,0,1-1.13-3,43.18,43.18,0,0,1,2.72-8.39.28.28,0,0,1,.51.24A42.73,42.73,0,0,0,807,485.6a2.37,2.37,0,0,0,.91,2.41c5.22,3.82,17.69,12.24,17.81,12.33a.27.27,0,0,1,.08.38A.3.3,0,0,1,825.62,500.84Z"/><path class="cls-9" d="M827,451.39s8.38-8.77,12.35-7.69c3.77,1,24.25,19.37,26.24,21.15a.23.23,0,0,1,0,.31h0a3.1,3.1,0,0,1-2.54,1.22c-4.81-.1-19.14-.55-23.43-2.07C834.42,462.47,827,451.39,827,451.39Z"/><path class="cls-7" d="M857,459.87a.28.28,0,0,1-.25-.06c-.11-.1-11.49-9.94-16.55-14a2.37,2.37,0,0,0-2.56-.25,43.16,43.16,0,0,0-7.29,4.75.27.27,0,1,1-.35-.42,43,43,0,0,1,7.38-4.82,2.93,2.93,0,0,1,3.17.31c5.06,4,16.45,13.89,16.57,14a.27.27,0,0,1,0,.39A.24.24,0,0,1,857,459.87Z"/><path class="cls-92" d="M777.53,448.88A62.73,62.73,0,0,0,791,463.1a178.3,178.3,0,0,0,37.67,22.56,2.39,2.39,0,0,0,2.41-.34,41.91,41.91,0,0,0,12.29-15.81,3.46,3.46,0,0,0-.45-3.56A180,180,0,0,0,811.72,436a62.93,62.93,0,0,0-17.11-9.23C785.38,433.73,780.17,443.29,777.53,448.88Z"/><path class="cls-9" d="M794.61,426.78a65,65,0,0,0-26.3-3.6,1.16,1.16,0,0,0-1,1.37,64.94,64.94,0,0,0,10.27,24.33C780.17,443.29,785.38,433.73,794.61,426.78Z"/><ellipse class="cls-5" cx="800.17" cy="448.68" rx="11.3" ry="10.53" transform="translate(-42.47 811.36) rotate(-52.57)"/><path class="cls-3" d="M805.6,441.1c3.68,2.81,4.21,8.3,1.19,12.25s-8.46,4.86-12.14,2-4.21-8.3-1.19-12.25S801.92,438.28,805.6,441.1Z"/><path class="cls-93" d="M795.05,452.31a.3.3,0,0,1-.29-.11,7,7,0,0,1,.27-8.31,7.29,7.29,0,0,1,1.68-1.6.28.28,0,0,1,.38.08.26.26,0,0,1-.07.38,6.8,6.8,0,0,0-1.55,1.48,6.48,6.48,0,0,0-.25,7.64.28.28,0,0,1-.07.39A.31.31,0,0,1,795.05,452.31Z"/><path class="cls-5" d="M821.51,455.61a7.49,7.49,0,1,1-10.06,1.7A7.23,7.23,0,0,1,821.51,455.61Z"/><path class="cls-3" d="M820.56,456.53a6,6,0,1,1-8,1.35A5.76,5.76,0,0,1,820.56,456.53Z"/><path class="cls-94" d="M813.62,464a.31.31,0,0,1-.3-.11,4.76,4.76,0,0,1,.18-5.6,5,5,0,0,1,1.13-1.08.29.29,0,0,1,.39.08.27.27,0,0,1-.07.38,4.37,4.37,0,0,0-1,1,4.18,4.18,0,0,0-.16,4.93.28.28,0,0,1-.07.39Z"/><path class="cls-95" d="M574.37,429.16l64.72-50.63a1.5,1.5,0,0,0,.5-.72l4-13.12a1.51,1.51,0,0,1,.67-.84l2.61-1.48a1.51,1.51,0,0,1,.86-.18l8.11.79a1.45,1.45,0,0,1,1.29,1.21l.61,3.8a1.4,1.4,0,0,1-.24,1.05l-1.08,1.57a1.44,1.44,0,0,0-.08,1.53h0a1.45,1.45,0,0,1-.19,1.66A29.47,29.47,0,0,1,646,380.92a1.44,1.44,0,0,0-.49.34l-62,65.27C583,447.13,573.67,429.71,574.37,429.16Z"/><path class="cls-96" d="M648.61,373.64a.47.47,0,0,1-.16,0,.34.34,0,0,1-.13-.46c.08-.14,2-3.57,4.41-2.83,1.88.58,2.41.36,2.41.36a.33.33,0,0,1,.46.1.35.35,0,0,1-.11.47c-.15.1-.8.37-3-.29-1.9-.59-3.61,2.48-3.63,2.51A.32.32,0,0,1,648.61,373.64Z"/><path class="cls-8" d="M574.55,429,545.3,453.52l9.05,20.93L587.22,444C580.87,439.69,576.46,434.73,574.55,429Z"/><path class="cls-97" d="M383.19,681.57a15.42,15.42,0,0,1,2.78-8.09c-2.76.9-3.8,2.95-4.44,8.44-.77,6.52-2.14,24.19-2.5,28.1a8.09,8.09,0,0,0,2.5,7.1c.41.42,1.05.23,1.81-.37a12.7,12.7,0,0,1-2.48-5.67C380.37,708.46,382.55,690.2,383.19,681.57Z"/><path class="cls-98" d="M401.25,676.44l-4.8-6.21a37.94,37.94,0,0,1-8.72,2.84,10.88,10.88,0,0,0-1.76.41,15.42,15.42,0,0,0-2.78,8.09c-.64,8.63-2.82,26.89-2.33,29.51a12.7,12.7,0,0,0,2.48,5.67c1.55-1.21,3.58-4.12,5.12-7.09,2.29-4.43,10.07-17.68,11.9-22.63A23.78,23.78,0,0,0,401.25,676.44Z"/><path class="cls-99" d="M466.51,620a15.39,15.39,0,0,1,4.07-7.52c-2.87.43-4.23,2.28-5.77,7.58-1.84,6.31-6.11,23.51-7.11,27.31a8.07,8.07,0,0,0,1.28,7.41c.34.48,1,.4,1.85-.06a12.74,12.74,0,0,1-1.51-6C459.27,646,464.44,628.37,466.51,620Z"/><path class="cls-100" d="M485.16,617.89l-3.7-6.93a37.51,37.51,0,0,1-9.08,1.36,11.17,11.17,0,0,0-1.8.12,15.39,15.39,0,0,0-4.07,7.52c-2.07,8.41-7.24,26-7.19,28.72a12.74,12.74,0,0,0,1.51,6c1.73-.94,4.21-3.47,6.22-6.15,3-4,12.86-15.77,15.48-20.35A23.63,23.63,0,0,0,485.16,617.89Z"/><path class="cls-101" d="M401.25,661.32c-.85,1.1-7,12.25-8.3,14.66a3.81,3.81,0,0,0-.43,1.31,5.48,5.48,0,0,0,2.62,5.4,3.68,3.68,0,0,0,5-.84l11.13-14.66Z"/><path class="cls-102" d="M487.66,603c-1,.95-8.9,10.93-10.61,13.09a3.73,3.73,0,0,0-.63,1.22A5.47,5.47,0,0,0,478.1,623a3.68,3.68,0,0,0,5,0l12-13.82Z"/><path class="cls-103" d="M502.67,550.4c0-3.09,17.75-2,33.32-3.79a8.75,8.75,0,0,1,7.29,14.79L496.15,610a3.72,3.72,0,0,1-3.82,1,22.61,22.61,0,0,1-6.91-3.59,3.37,3.37,0,0,1-.63-4.56L506.46,572l-19.77,5.7-75,92.78a3.87,3.87,0,0,1-5.09.85,31.43,31.43,0,0,1-7.09-5.78,3.63,3.63,0,0,1-.22-4.31c8.28-12.64,53.24-81.52,55.38-88.68,2.35-7.88,11-22.31,19-22.83S502.67,550.4,502.67,550.4Z"/><path class="cls-104" d="M507.64,571.59a.5.5,0,0,1-.48-.37.51.51,0,0,1,.36-.62l17.78-4.71a.5.5,0,1,1,.25,1l-17.78,4.71A.27.27,0,0,1,507.64,571.59Z"/><path class="cls-105" d="M488.46,576.41a.51.51,0,0,1-.34-.14.5.5,0,0,1,0-.71l4.44-4.81a.5.5,0,1,1,.74.68l-4.44,4.81A.5.5,0,0,1,488.46,576.41Z"/><path class="cls-9" d="M554.35,452.63s9.4,9.6,7.78,26.15a25.93,25.93,0,0,1-5.38,13.36l-47.43,61.2a6.7,6.7,0,0,1-4.47,2.55c-7,.85-25.53,2.53-38.66-1.82a1.75,1.75,0,0,1-.95-2.53l43.11-75.87,26.12-30.39S546.92,441,554.35,452.63Z"/><path class="cls-106" d="M418,521a.53.53,0,0,1-.26-1c.19-.1,18.39-10,22.27-13.22a.53.53,0,1,1,.67.82c-4,3.27-21.68,12.93-22.43,13.34A.57.57,0,0,1,418,521Z"/><path class="cls-107" d="M556.63,424.1l-14.17,20a3.35,3.35,0,0,0,.29,4.23c1.91,2,5.13,4.91,8.6,5.57a2.72,2.72,0,0,0,2.78-1.17l7.54-11.57S563.11,423,556.63,424.1Z"/><path class="cls-108" d="M560.63,407.37c.29.27,12.1,23.46,12.1,23.46l-13.38,6.46L544.89,417S555.84,402.86,560.63,407.37Z"/><path class="cls-109" d="M551,419.41l6.68,11.13a2.28,2.28,0,0,0,.36.46c.8.73,3.51,2.89,5.62,0,1.79-2.5,3.47-4.77,5.27-5.7a2.14,2.14,0,0,1,2.88.94A80.13,80.13,0,0,1,576.35,437a2.12,2.12,0,0,1-1.24,2.6,58.82,58.82,0,0,1-12.82,3.74,2.15,2.15,0,0,1-2-.85c-2-2.81-7.8-10.63-9.77-12.59s-5.2-1.14-6.72-.7a2.11,2.11,0,0,1-1.7-.22c-1.55-.93-4.24-3.24-1.78-7.16a2.13,2.13,0,0,0-.66-2.9c-1.72-1.13-3.59-3.26-1.81-6.7a6.65,6.65,0,0,1,7.21-3.53,2.22,2.22,0,0,0,2.33-1.29c.38-.92,1.39-.56,1.88-1.19s.31-.93.59-1.42c.88-1.56.82-2.81,2.84-3.7a9,9,0,0,1,5.05-.44,6,6,0,0,1,2.65,1A7.57,7.57,0,0,1,562,403.6c1,1.47,2,3.26,1.35,4.9-1,2.48-5.09,2.94-7.28,3.7a8.23,8.23,0,0,0-5.27,5.34A2.12,2.12,0,0,0,551,419.41Z"/><path class="cls-110" d="M553,434s-2.57-7.51-5.86-7.23-5.87,3.55-1.8,7.23C550.42,438.6,553,434,553,434Z"/><path class="cls-43" d="M604.08,541v-49.9a11.94,11.94,0,0,0-11.82-12c-19.68-.22-60.26-.23-93.46,2.57a9,9,0,0,0-8.22,8.64l-3.11,48.25a11.42,11.42,0,0,0,11.2,11.83l94,1.79A11.22,11.22,0,0,0,604.08,541Z"/><path class="cls-7" d="M592.69,496.45c.08,4.25,0,11-.15,15.34a3.83,3.83,0,0,1-4.29,3.72l-16.19-1.9a3.84,3.84,0,0,1-3.36-4.38l2-13.26a3.84,3.84,0,0,1,3.8-3.28h14.35A3.85,3.85,0,0,1,592.69,496.45Z"/><path class="cls-44" d="M550.37,521.58,536.86,523a3,3,0,0,1-3.36-3.26l3-40.18c5.66-.18,11.25-.31,16.64-.4v39.35A3,3,0,0,1,550.37,521.58Z"/><path class="cls-7" d="M544.83,514.61a1.35,1.35,0,0,1-1.35,1.28h-.08a1.36,1.36,0,0,1-1.28-1.43l2-35.07,2.72-.07Z"/><path class="cls-111" d="M585.2,509.11a.45.45,0,0,0,.45-.43l.7-11a.44.44,0,0,0-.42-.48.44.44,0,0,0-.48.42l-.7,11.05a.45.45,0,0,0,.42.48Z"/><path class="cls-112" d="M583.76,509.11a.46.46,0,0,0,.45-.44l.37-11.26a.46.46,0,0,0-.44-.47.43.43,0,0,0-.47.44l-.37,11.26a.46.46,0,0,0,.44.47Z"/><path class="cls-113" d="M581.8,509.11a.46.46,0,0,1-.43-.48c.18-3.78.52-11,.53-11.24a.45.45,0,0,1,.45-.45.46.46,0,0,1,.45.46c0,.18-.44,9.42-.52,11.28a.47.47,0,0,1-.46.43Zm.09-11.71h0Z"/><path class="cls-114" d="M578.8,509.56a.91.91,0,0,0,.91-.87c.38-10.91.31-11.16.27-11.32a.9.9,0,0,0-1.77.36c0,.65-.18,7-.31,10.89a.91.91,0,0,0,.87.94Z"/><path class="cls-115" d="M576.84,509.11a.46.46,0,0,0,.45-.46v-11a.45.45,0,0,0-.9,0v11A.46.46,0,0,0,576.84,509.11Z"/><path class="cls-116" d="M575.26,509.11a.46.46,0,0,0,.45-.45c.09-3.83.29-10.1.47-10.86a.45.45,0,0,0-.64-.6c-.25.17-.49.32-.74,11.44a.47.47,0,0,0,.45.47Z"/><path class="cls-117" d="M587.64,510.11a.91.91,0,0,0,.9-.86l.6-11.6a.9.9,0,0,0-.85-.95.93.93,0,0,0-1,.86l-.6,11.6a.9.9,0,0,0,.86.95Z"/><path class="cls-8" d="M565.94,408.15c-11.36-21.46-40.81-2-27.1,16.11C549,417.49,560.54,407.42,565.94,408.15Z"/><path class="cls-8" d="M543.26,477.75l-25.52-13.08s-18.22,18-22.88,42.38a67.14,67.14,0,0,1,24.64,6.61C521.6,502.13,543.26,477.75,543.26,477.75Z"/><path class="cls-118" d="M564.28,520.41s-31.83,18-42.56,2.63a12.07,12.07,0,0,1-2.22-9.38,67.14,67.14,0,0,0-24.64-6.61,33.79,33.79,0,0,0,3.66,23.11c18.81,34.4,70-1.9,70-1.9Z"/><path class="cls-119" d="M565.79,529.57a3.65,3.65,0,0,1-4.49-2.86c-.64-3.22-1.42-8.17-.79-10.44,1-3.53,2.86-8.07,9.17-7.06a91.18,91.18,0,0,1,13.73,3.66s-.37,4.6-5.16,3.11l3,2.3s-.43,3.68-4.47,1.72l2.76,3a3.22,3.22,0,0,1-4.71,1.08C572.34,522.53,570.94,528.2,565.79,529.57Z"/><path class="cls-120" d="M405.25,525.07a1.7,1.7,0,0,0-1.2,2.43c2.3,4.64,9.08,14.86,23,11.64,17.87-4.13,72.39-45.34,84.74-56.6s28.69-25.29,36.68-23.33,3.18-2.68-2.36-6.4-7.6-9.18-3.47-8.16c0,0-9.95-3.22-25.14,5.15C502.69,458,430.19,486,405.92,477.85a1.55,1.55,0,0,0-2,1.22c-1,5.52-2.43,22.83,11.75,42.31A47.31,47.31,0,0,1,405.25,525.07Z"/><path class="cls-9" d="M548.19,417.24l20.4-.63a1.46,1.46,0,0,0,1.24-.76,13.85,13.85,0,0,1,7.85-6.56.41.41,0,0,0-.11-.8l-12.51-.85h0c-6.23.48-11.75,4.23-17,9.15A.26.26,0,0,0,548.19,417.24Z"/><path class="cls-43" d="M38.83,897.1H31.6a3.14,3.14,0,0,1-3.13-3l-4-70.06a3.13,3.13,0,0,1,2.89-3.3l47.18-3.61a3.14,3.14,0,0,1,3.34,2.69l10.45,73.32a3.14,3.14,0,0,1-3.08,3.58Z"/><path class="cls-8" d="M36.87,815.86l-.91-23a4,4,0,0,1,3.74-4.18l29.43-2.12,1.77,30.84-29.69,2.27A4,4,0,0,1,36.87,815.86Z"/><polygon class="cls-9" points="69.13 786.61 93.08 786.61 93.08 817.16 70.9 817.45 69.13 786.61"/><path class="cls-9" d="M45.82,789,47,819.28H51.5s-.15-31.31-1.12-32S45.73,786.84,45.82,789Z"/><path class="cls-121" d="M44,818.44,51.5,897h4.92s-5.22-79.5-6.87-79.56S43.83,816.4,44,818.44Z"/><path class="cls-121" d="M33,839l9.74-.59a1.34,1.34,0,0,1,1.42,1.23L45.26,854a1.34,1.34,0,0,1-1.34,1.45H33.8a1.34,1.34,0,0,1-1.35-1.27l-.75-13.81A1.34,1.34,0,0,1,33,839Z"/><path class="cls-121" d="M62.67,866.27h7.54a1.35,1.35,0,0,1,1.34,1.35v12.82a1.34,1.34,0,0,1-1.34,1.35H63.78a1.34,1.34,0,0,1-1.33-1.23l-1.12-12.83A1.35,1.35,0,0,1,62.67,866.27Z"/><path class="cls-9" d="M56.54,794.28h7.54a1.24,1.24,0,0,1,1.34,1.11V806a1.24,1.24,0,0,1-1.34,1.11H57.65a1.27,1.27,0,0,1-1.33-1l-1.12-10.6A1.22,1.22,0,0,1,56.54,794.28Z"/><rect class="cls-122" x="111.19" y="891.71" width="23" height="64.38"/><path class="cls-123" d="M167.75,947.75c-.37-3.14-7.39-74.09-9.57-76.61s-37.25-15.95-50.8-11.57a31.52,31.52,0,0,0-6.4,14.71l-10,22.17h22.69c6,.15,27.29-5.18,28.22-5.37,5.56-1.08-.13,17.78,5.82,31.23s12.49,27.05,14.59,26.88S168.12,950.9,167.75,947.75Z"/><rect class="cls-7" x="141.4" y="837.2" width="41.31" height="2.82" rx="1.17"/><path class="cls-124" d="M181.54,837.44a.93.93,0,0,1,.93.93v.48a.94.94,0,0,1-.93.94h-39a.94.94,0,0,1-.94-.94v-.48a.94.94,0,0,1,.94-.93h39m0-.47h-39a1.41,1.41,0,0,0-1.41,1.4v.48a1.41,1.41,0,0,0,1.41,1.41h39a1.41,1.41,0,0,0,1.4-1.41v-.48a1.4,1.4,0,0,0-1.4-1.4Z"/><path class="cls-125" d="M166.89,830.3s10.93-.83,11.92,3.28-.38,6.51-2.42,6.17-2.92,1-3.28-1.85-4.37-2-4.37-2Z"/><path class="cls-8" d="M153.3,821.59l-.19-.16c-1.55-1.1-8.83-2.08-14.66-3.17-1.52-.32-2.48-.5-2.6-.53a24.35,24.35,0,0,1-3.65-1c-4.52-1.81-8.45-8.32-8.58-13s-2.4-14.14-9.93-6.57c0,0-7.32,5.8-3.66,21.13,2.82,11.83,17.21,14.67,25.8,15.19,4.37,2.11,33.61,3.64,33,3.07s-.21-5.21,1.16-8.52C170.72,826.33,162.08,823.75,153.3,821.59Z"/><path class="cls-125" d="M114.06,785.39s0-5,0-6.95.61-3.33.8-3.33,3.87-.07,4.72-.92,3.51-7.74,2.66-11.19-1.12-7.1.17-10,1.31-8.49.63-8.76-17.39-8.49-25.5,2.09,1.33,23.92.48,26.4a25.12,25.12,0,0,0-1,5.89l15.6,10.9Z"/><path class="cls-9" d="M95.24,780.2c-.73.59-13.81,6.47-16.53,21s2.54,58.22,5.09,59.2,38.73,2.65,40-2.3,5.59-36.32,3.22-46.51-8.35-23.33-10-24.9-8.14-2.15-9.15-2.15S95.24,780.2,95.24,780.2Z"/><path class="cls-8" d="M120.29,860.53l-.71-.15c0-.25,4.56-28,1.9-45.71s-11-26.65-11.06-26.74l.51-.56c.09.09,8.57,9.25,11.27,27.17S120.34,860.28,120.29,860.53Z"/><path class="cls-8" d="M95.24,780.2s-.36-5.49,3.27-4.11,13.38,2.67,14,5.88-.72,5.88-1.81,5.68S95.42,784.32,95.24,780.2Z"/><path class="cls-126" d="M139.94,949c.38,1.83-1.49,3.65,0,3.65h14.79s1.49-3-.9-4.63S139.94,949,139.94,949Z"/><path class="cls-126" d="M83.8,860.38a31.7,31.7,0,0,0-6.31,19.47c.23,11.65,7.4,17.25,13.45,17.25s27.16-5.84,28.08-6.05c5.53-1.21.3,17.78,6.58,31.08s13.14,26.74,15.24,26.51,5.9,1.57,5.45-1.56-9.19-73.9-11.43-76.37S97.24,855.67,83.8,860.38Z"/><path class="cls-125" d="M139.54,830.56s12.12-.92,13.21,3.63-.42,7.21-2.68,6.84-3.24,1.12-3.63-2-4.85-2.26-4.85-2.26Z"/><polygon class="cls-127" points="114.86 775.11 103.94 772.1 114.05 780.2 114.86 775.11"/><path class="cls-8" d="M126.72,744.26a2.4,2.4,0,0,1-.65.28c-3.76,1.11-18.89.87-22.13,3.91a16,16,0,0,0-2,2.23,7.32,7.32,0,0,0-1.61,3.52,93.8,93.8,0,0,0-.48,11c.24,3.85-1.54,8.94-5.61,6.85s-13.16-2.87-12.07-17.77,1-28.89,18.16-31.37,23.37,7.32,26.4,12.42S128.78,742.83,126.72,744.26Z"/><path class="cls-127" d="M117.59,769a4.8,4.8,0,0,1-1.93-.35c-1.83-.84-1.62-2.09-1.61-2.14a.37.37,0,0,1,.43-.31.38.38,0,0,1,.28.46s-.06.7,1.18,1.26c1.45.66,3.92,0,4,0a.36.36,0,0,1,.44.28.4.4,0,0,1-.26.48A11.21,11.21,0,0,1,117.59,769Z"/><path class="cls-127" d="M117.19,764.39a.36.36,0,0,1-.32-.21.4.4,0,0,1,.15-.53c.42-.24,1.51-1,1.5-1.8a2.69,2.69,0,0,0-.84-1.56,4.64,4.64,0,0,1-.83-1.24c-.42-1.12,1.25-3.3,1.76-3.94a.35.35,0,0,1,.52,0,.41.41,0,0,1,0,.55c-.92,1.14-1.8,2.67-1.63,3.12a3.75,3.75,0,0,0,.69,1,3.34,3.34,0,0,1,1,2.07c0,1.38-1.7,2.39-1.89,2.5A.28.28,0,0,1,117.19,764.39Z"/><path class="cls-128" d="M114.4,754.33c0,1-.39,1.76-.88,1.76s-.87-.79-.87-1.76.39-1.77.87-1.77S114.4,753.35,114.4,754.33Z"/><path class="cls-128" d="M121.35,754.27c0,.8-.32,1.45-.72,1.45s-.72-.65-.72-1.45.32-1.45.72-1.45S121.35,753.47,121.35,754.27Z"/><path class="cls-128" d="M111.68,751.74a4.93,4.93,0,0,1,.88-1.44c.23-.25.33-.31.63-.2a2.47,2.47,0,0,0,.76.17c.7,0,.7-1.15,0-1.17-.34,0-.64-.25-1-.26a1.26,1.26,0,0,0-.93.36,5.73,5.73,0,0,0-1.31,1.95c-.29.68.65,1.28,1,.59Z"/><path class="cls-128" d="M120.57,750.58a.71.71,0,0,1,.89.26.54.54,0,0,0,.75.21.61.61,0,0,0,.19-.8,1.79,1.79,0,0,0-2.12-.8c-.66.25-.37,1.39.29,1.13Z"/><g class="cls-129"><path class="cls-7" d="M126.88,761.44c-1.22,2.48-21.24,2.58-23.15,1.88s-1.68-2.28-1.92-4.76c-.12-1.25-.12-4.58-.09-7.56a15.46,15.46,0,0,1,2-2.24c3.24-3,18.37-2.8,22.13-3.91h0S128.09,759,126.88,761.44Z"/></g><path class="cls-8" d="M87.18,809.75s3,23.45,11.18,35.73,12.83,15.77,12.83,15.77l8.39-.87,1.61-26.87Z"/><path class="cls-8" d="M129.13,820.89l-.17-.19c-1.31-1.36-8.3-3.64-13.83-5.78l-2.47-1a25.64,25.64,0,0,1-3.39-1.66c-4.12-2.61-6.81-9.72-6.08-14.37s.2-14.34-8.57-8.27c0,0-8.26,4.39-7.44,20.12.63,12.15,14.26,17.55,22.61,19.63,3.92,2.86,32.39,9.68,31.94,9s.75-5.16,2.69-8.16C145.4,828.72,137.36,824.61,129.13,820.89Z"/><circle class="cls-130" cx="74.51" cy="966.65" r="29.76" transform="translate(-350.75 95.38) rotate(-21.61)"/><circle class="cls-131" cx="68.6" cy="966.65" r="29.76" transform="translate(-351.16 93.2) rotate(-21.61)"/><circle class="cls-132" cx="68.6" cy="966.65" r="23.79" transform="translate(-897.07 885.46) rotate(-81.14)"/><rect class="cls-133" x="37.75" y="898.22" width="74.47" height="57.37"/><path class="cls-7" d="M68.6,968.54a3.75,3.75,0,1,1,3.74-3.74A3.75,3.75,0,0,1,68.6,968.54Z"/><path class="cls-124" d="M68.6,961.29a3.51,3.51,0,1,1-3.52,3.51,3.51,3.51,0,0,1,3.52-3.51m0-.47a4,4,0,1,0,4,4,4,4,0,0,0-4-4Z"/><path class="cls-134" d="M213.44,952.6c-2.39.6-53.63,6-53.63,6l-10.61-6a68.74,68.74,0,0,0,0-24.2C146.81,915.25,134.86,879.7,137,877c1.2-1.54,15.06-7,27.52-10.63.87-.25,1.73-.5,2.58-.73,8.3-2.31,15.48-3.6,17.11-2.09,4.18,3.88,24.8,26,29.28,52S215.84,952,213.44,952.6Z"/><path class="cls-132" d="M192.3,935.07l-2.24-.18c0-.09.72-9.44-1.13-29.09-1.67-17.79-21.15-36.38-24.46-39.42.87-.25,1.73-.5,2.58-.73,3.53,3.22,22.36,21.22,24.11,39.94C193,925.48,192.33,934.69,192.3,935.07Z"/><rect class="cls-135" x="89.14" y="952.6" width="72.91" height="5.98" rx="2.34"/><path class="cls-43" d="M94.52,942.37c.56,14.62,0,19.92-8.75,24.61a60.51,60.51,0,0,1-6.71,2.95c-15.24,5.83-53.56,2.24-65.69-3.58s0-43.25,0-43.25,53.42-11.24,71.14-13.34c1.66-.2,3-.31,4-.33C99.68,909.2,93.85,924.67,94.52,942.37Z"/><path class="cls-136" d="M94.52,942.37c.56,14.62,0,19.92-8.75,24.61h0c-8.76,2.43-10.09-31.37-10.09-31.37.41-13.79,4.16-21.56,8.84-25.85,1.66-.2,3-.31,4-.33C99.68,909.2,93.85,924.67,94.52,942.37Z"/><path class="cls-137" d="M31.18,905.39S17.88,908.31,15,917.94,10.71,930,13.4,931.61s44.6,4.71,51.32,4.48,11.43,2,13-3.58,3.36-8.29,8.06-13.89,7.86-7.56,6.74-8.23S51.65,901.81,31.18,905.39Z"/><path class="cls-7" d="M35.14,932s-1.12,3.92,0,5.15,11.65,2.24,11.87.68,1.91-3.37.68-4.71S35.42,930.69,35.14,932Z"/><circle class="cls-138" cx="195.79" cy="966.65" r="29.76" transform="translate(-789.75 928.61) rotate(-76.34)"/><circle class="cls-131" cx="189.88" cy="966.65" r="29.76" transform="translate(-794.27 922.87) rotate(-76.34)"/><circle class="cls-132" cx="189.88" cy="966.65" r="23.79" transform="translate(-794.33 924.19) rotate(-76.42)"/><ellipse class="cls-7" cx="168.31" cy="917.89" rx="4.65" ry="5.66" transform="translate(-248.52 82.96) rotate(-16.14)"/><path class="cls-7" d="M206.34,909.18c.75,2.62-.3,5.22-2.36,5.82s-4.34-1-5.1-3.66.3-5.22,2.36-5.81S205.58,906.57,206.34,909.18Z"/><path class="cls-139" d="M180.58,867.89c-1.3.44-14.35,2.08-22.54,2.64a28.31,28.31,0,0,1-6.35,0c-2.79-.87-5.14-10.22-3.24-13a13.28,13.28,0,0,1,9.11-6.88,20.26,20.26,0,0,1,6.29-.43c11.94.89,17-1,18.22,3.62S182.37,867.3,180.58,867.89Z"/><path class="cls-140" d="M158,870.53a28.31,28.31,0,0,1-6.35,0c-2.79-.87-5.14-10.22-3.24-13a13.28,13.28,0,0,1,9.11-6.88c-1.36,1-2.53,2.3-2.53,3.3C155,855.92,155.18,868.78,158,870.53Z"/><rect class="cls-7" x="163.54" y="856.24" width="8.67" height="5.98" rx="2.61" transform="translate(-116.77 31.32) rotate(-7.92)"/><rect class="cls-8" x="28.64" y="897.1" width="85.83" height="7.36" rx="2.34"/><polygon class="cls-141" points="193.86 964.8 185.9 937.15 172 942.85 189.88 964.8 193.86 964.8"/><path class="cls-142" d="M166.53,949.91s-6.87,0-4.48-6.87,14.64-20.91,28.69-20.91,24.5,6.4,27.19,19-3.93,16.43-8.07,14.43-16.73-16.9-26.89-14.43S169,950.42,166.53,949.91Z"/><circle class="cls-7" cx="189.88" cy="964.8" r="3.98"/><polygon class="cls-143" points="158.04 840.26 162.05 850.2 168.47 850.71 170.08 840.26 158.04 840.26"/></g></g></svg>