<svg xmlns="http://www.w3.org/2000/svg" xmlns:xlink="http://www.w3.org/1999/xlink" viewBox="0 0 1704.57 837.96"><defs><style>.cls-1{isolation:isolate;}.cls-132,.cls-2{fill:#231f20;}.cls-2{opacity:0.12;}.cls-3,.cls-6{fill:#8193ca;}.cls-4{opacity:0.53;}.cls-5{fill:#98b1dc;}.cls-6{mix-blend-mode:overlay;}.cls-10,.cls-44,.cls-7{fill:#fff;}.cls-8{fill:#ea8439;}.cls-9{fill:#f89748;}.cls-10,.cls-11{opacity:0.8;}.cls-12{opacity:0.56;}.cls-13{fill:url(#linear-gradient);}.cls-14{fill:url(#linear-gradient-2);}.cls-15{fill:url(#linear-gradient-3);}.cls-16{fill:url(#linear-gradient-4);}.cls-17{fill:url(#linear-gradient-5);}.cls-18{fill:url(#linear-gradient-6);}.cls-19{fill:url(#linear-gradient-7);}.cls-20{fill:url(#linear-gradient-8);}.cls-21{fill:url(#linear-gradient-9);}.cls-22{fill:url(#linear-gradient-10);}.cls-23{fill:url(#linear-gradient-11);}.cls-24{fill:url(#linear-gradient-12);}.cls-25{fill:url(#linear-gradient-13);}.cls-26{fill:url(#linear-gradient-14);}.cls-27{fill:url(#linear-gradient-15);}.cls-28{fill:url(#linear-gradient-16);}.cls-29{fill:url(#linear-gradient-17);}.cls-30{fill:url(#linear-gradient-18);}.cls-31{fill:url(#linear-gradient-19);}.cls-32{fill:url(#linear-gradient-20);}.cls-33{fill:url(#linear-gradient-21);}.cls-34{fill:url(#linear-gradient-22);}.cls-35{fill:url(#linear-gradient-23);}.cls-36{fill:url(#linear-gradient-24);}.cls-37{fill:url(#linear-gradient-25);}.cls-38{fill:url(#linear-gradient-26);}.cls-39{fill:url(#linear-gradient-27);}.cls-40{fill:url(#linear-gradient-28);}.cls-41{fill:url(#linear-gradient-29);}.cls-42{fill:url(#linear-gradient-30);}.cls-43{fill:#f4c24a;}.cls-44{opacity:0.37;}.cls-45{fill:url(#linear-gradient-31);}.cls-46{fill:url(#linear-gradient-32);}.cls-47{fill:url(#linear-gradient-33);}.cls-48{fill:url(#linear-gradient-34);}.cls-49{fill:url(#linear-gradient-35);}.cls-50{fill:url(#linear-gradient-36);}.cls-51{fill:url(#linear-gradient-37);}.cls-52{fill:url(#linear-gradient-38);}.cls-53{fill:url(#linear-gradient-39);}.cls-54{fill:url(#linear-gradient-40);}.cls-55{fill:url(#linear-gradient-41);}.cls-56{fill:url(#linear-gradient-42);}.cls-57{fill:url(#linear-gradient-43);}.cls-58{fill:url(#linear-gradient-44);}.cls-59{fill:url(#linear-gradient-45);}.cls-60{fill:url(#linear-gradient-46);}.cls-61{fill:url(#linear-gradient-47);}.cls-62{fill:url(#linear-gradient-48);}.cls-63{fill:url(#linear-gradient-49);}.cls-64{fill:url(#linear-gradient-50);}.cls-65{fill:url(#linear-gradient-51);}.cls-66{fill:url(#linear-gradient-52);}.cls-67{fill:url(#linear-gradient-53);}.cls-68{fill:url(#linear-gradient-54);}.cls-69{fill:url(#linear-gradient-55);}.cls-70{fill:url(#linear-gradient-56);}.cls-71{fill:url(#linear-gradient-57);}.cls-72{fill:url(#linear-gradient-58);}.cls-73{fill:url(#linear-gradient-59);}.cls-74{fill:url(#linear-gradient-60);}.cls-75{fill:url(#linear-gradient-61);}.cls-76{fill:url(#linear-gradient-62);}.cls-77{fill:url(#linear-gradient-63);}.cls-78{fill:url(#linear-gradient-64);}.cls-79{fill:url(#linear-gradient-65);}.cls-80{fill:url(#linear-gradient-66);}.cls-81{fill:url(#linear-gradient-67);}.cls-82{fill:url(#linear-gradient-68);}.cls-83{fill:url(#linear-gradient-69);}.cls-84{fill:url(#linear-gradient-70);}.cls-85{fill:url(#linear-gradient-71);}.cls-86{fill:url(#linear-gradient-72);}.cls-87{fill:url(#linear-gradient-73);}.cls-88{fill:url(#linear-gradient-74);}.cls-89{fill:url(#linear-gradient-75);}.cls-90{fill:url(#linear-gradient-76);}.cls-91{fill:url(#linear-gradient-77);}.cls-92{fill:url(#linear-gradient-78);}.cls-93{fill:url(#linear-gradient-79);}.cls-94{fill:url(#linear-gradient-80);}.cls-95{fill:url(#linear-gradient-81);}.cls-96{fill:url(#linear-gradient-82);}.cls-97{fill:url(#linear-gradient-83);}.cls-98{fill:url(#linear-gradient-84);}.cls-99{fill:url(#linear-gradient-85);}.cls-100{fill:url(#linear-gradient-86);}.cls-101{fill:url(#linear-gradient-87);}.cls-102{fill:url(#linear-gradient-88);}.cls-103{fill:url(#linear-gradient-89);}.cls-104{fill:url(#linear-gradient-90);}.cls-105{fill:url(#linear-gradient-91);}.cls-106{fill:url(#linear-gradient-92);}.cls-107{fill:url(#linear-gradient-93);}.cls-108{fill:url(#linear-gradient-94);}.cls-109{fill:url(#linear-gradient-95);}.cls-110{fill:url(#linear-gradient-96);}.cls-111{fill:url(#linear-gradient-97);}.cls-112{fill:url(#linear-gradient-98);}.cls-113{fill:url(#linear-gradient-99);}.cls-114{fill:url(#linear-gradient-100);}.cls-115{fill:url(#linear-gradient-101);}.cls-116{fill:url(#linear-gradient-102);}.cls-117{fill:url(#linear-gradient-103);}.cls-118{fill:url(#linear-gradient-104);}.cls-119{fill:url(#linear-gradient-105);}.cls-120{fill:url(#linear-gradient-106);}.cls-121{fill:#e0ab33;}.cls-122{fill:url(#linear-gradient-107);}.cls-123{fill:#23375c;}.cls-124{fill:#010101;}.cls-125{fill:#f79e86;}.cls-126{fill:#2d4d9d;}.cls-127{fill:#c43f52;}.cls-128{fill:#481f54;}.cls-129{opacity:0.54;}.cls-130{fill:url(#linear-gradient-108);}.cls-131{fill:#1a3854;}.cls-133{fill:url(#linear-gradient-109);}.cls-134{fill:url(#linear-gradient-110);}.cls-135{fill:url(#linear-gradient-111);}.cls-136{fill:#e5b038;}.cls-137{fill:#ffd38e;}.cls-138{fill:url(#linear-gradient-112);}.cls-139{fill:url(#linear-gradient-113);}.cls-140{fill:url(#linear-gradient-114);}.cls-141{fill:url(#linear-gradient-115);}.cls-142{fill:url(#linear-gradient-116);}.cls-143{fill:url(#linear-gradient-117);}</style><linearGradient id="linear-gradient" x1="767.4" y1="374.79" x2="733.85" y2="411.46" gradientUnits="userSpaceOnUse"><stop offset="0" stop-color="#201b59"/><stop offset="1" stop-color="#2d2d84"/></linearGradient><linearGradient id="linear-gradient-2" x1="748.52" y1="384.41" x2="722.66" y2="410.97" xlink:href="#linear-gradient"/><linearGradient id="linear-gradient-3" x1="785.36" y1="391.79" x2="789.03" y2="426.07" gradientTransform="translate(-58.84 701.37) rotate(-46.42)" xlink:href="#linear-gradient"/><linearGradient id="linear-gradient-4" x1="791.52" y1="411.23" x2="806.37" y2="460" xlink:href="#linear-gradient"/><linearGradient id="linear-gradient-5" x1="712.39" y1="398.19" x2="696.81" y2="429.54" gradientTransform="translate(882.35 1216.49) rotate(-133.58)" xlink:href="#linear-gradient"/><linearGradient id="linear-gradient-6" x1="697.67" y1="407.15" x2="698.22" y2="450.78" xlink:href="#linear-gradient"/><linearGradient id="linear-gradient-7" x1="684.16" y1="466.06" x2="803.9" y2="466.06" xlink:href="#linear-gradient"/><linearGradient id="linear-gradient-8" x1="733.47" y1="503.74" x2="772.19" y2="375.85" gradientUnits="userSpaceOnUse"><stop offset="0" stop-color="#dbe2f3"/><stop offset="1" stop-color="#eaeff8"/></linearGradient><linearGradient id="linear-gradient-9" x1="748.17" y1="464.37" x2="694.96" y2="501.74" xlink:href="#linear-gradient"/><linearGradient id="linear-gradient-10" x1="559.4" y1="512.98" x2="546.75" y2="530.83" gradientTransform="matrix(-1, 0, 0, 1, 2073.82, 0)" gradientUnits="userSpaceOnUse"><stop offset="0" stop-color="#f5928f"/><stop offset="1" stop-color="#f8b2b1"/></linearGradient><linearGradient id="linear-gradient-11" x1="467.37" y1="691.89" x2="466.3" y2="761.17" gradientTransform="matrix(-1, 0, 0, 1, 2073.82, 0)" xlink:href="#linear-gradient"/><linearGradient id="linear-gradient-12" x1="1562.23" y1="803.8" x2="1691.49" y2="845.24" gradientUnits="userSpaceOnUse"><stop offset="0" stop-color="#4c57a6"/><stop offset="1" stop-color="#5560ab"/></linearGradient><linearGradient id="linear-gradient-13" x1="475.09" y1="779.86" x2="470.21" y2="822.43" xlink:href="#linear-gradient-10"/><linearGradient id="linear-gradient-14" x1="1522.3" y1="806.76" x2="1595.28" y2="838.31" xlink:href="#linear-gradient-12"/><linearGradient id="linear-gradient-15" x1="527.17" y1="692.81" x2="526.1" y2="762.09" gradientTransform="matrix(-1, 0, 0, 1, 2073.82, 0)" xlink:href="#linear-gradient"/><linearGradient id="linear-gradient-16" x1="514.82" y1="784.41" x2="509.95" y2="826.99" xlink:href="#linear-gradient-10"/><linearGradient id="linear-gradient-17" x1="1582.16" y1="721.15" x2="1409.51" y2="872.48" xlink:href="#linear-gradient-12"/><linearGradient id="linear-gradient-18" x1="549.24" y1="490.36" x2="579.59" y2="633.27" xlink:href="#linear-gradient-10"/><linearGradient id="linear-gradient-19" x1="512.67" y1="585.55" x2="527.29" y2="533.95" gradientTransform="matrix(-1, 0, 0, 1, 2073.82, 0)" gradientUnits="userSpaceOnUse"><stop offset="0" stop-color="#66cdf3"/><stop offset="1" stop-color="#4a5aa8"/></linearGradient><linearGradient id="linear-gradient-20" x1="1075.8" y1="418.61" x2="983.12" y2="549.37" gradientTransform="matrix(-1, 0.1, 0.1, 1, 2522.29, -47.83)" xlink:href="#linear-gradient"/><linearGradient id="linear-gradient-21" x1="1556.36" y1="397.88" x2="1501.48" y2="525.23" xlink:href="#linear-gradient-12"/><linearGradient id="linear-gradient-22" x1="561.69" y1="482.98" x2="595.8" y2="643.63" xlink:href="#linear-gradient-10"/><linearGradient id="linear-gradient-23" x1="1670.31" y1="474.58" x2="1517.91" y2="662.14" xlink:href="#linear-gradient"/><linearGradient id="linear-gradient-24" x1="1748.73" y1="786.3" x2="1654.65" y2="695.52" gradientTransform="translate(-204.54 -51.11) rotate(-4.3)" xlink:href="#linear-gradient-10"/><linearGradient id="linear-gradient-25" x1="1763.63" y1="789.89" x2="1656" y2="686.04" gradientTransform="translate(-204.54 -51.11) rotate(-4.3)" xlink:href="#linear-gradient-10"/><linearGradient id="linear-gradient-26" x1="485.86" y1="507.19" x2="467.24" y2="587.69" xlink:href="#linear-gradient-10"/><linearGradient id="linear-gradient-27" x1="-813.09" y1="-1591.18" x2="-846.13" y2="-1547.47" gradientTransform="matrix(-0.93, -0.36, -0.36, 0.93, 255, 1688.67)" xlink:href="#linear-gradient-10"/><linearGradient id="linear-gradient-28" x1="-838.32" y1="-1580.69" x2="-798.85" y2="-1580.69" gradientTransform="matrix(-0.93, -0.36, -0.36, 0.93, 255, 1688.67)" xlink:href="#linear-gradient"/><linearGradient id="linear-gradient-29" x1="-860.88" y1="-1556.76" x2="-834.72" y2="-1583.59" gradientTransform="matrix(-0.93, -0.36, -0.36, 0.93, 255, 1688.67)" xlink:href="#linear-gradient-10"/><linearGradient id="linear-gradient-30" x1="1718.76" y1="514.75" x2="1649.49" y2="550.98" xlink:href="#linear-gradient"/><linearGradient id="linear-gradient-31" x1="-3220.78" y1="722.57" x2="-3272.92" y2="798.34" gradientTransform="matrix(-1, 0, 0, 1, -2025.13, 0)" xlink:href="#linear-gradient"/><linearGradient id="linear-gradient-32" x1="-3218.91" y1="723.86" x2="-3271.05" y2="799.63" gradientTransform="matrix(-1, 0, 0, 1, -2025.13, 0)" xlink:href="#linear-gradient"/><linearGradient id="linear-gradient-33" x1="-3216.64" y1="725.42" x2="-3268.79" y2="801.19" gradientTransform="matrix(-1, 0, 0, 1, -2025.13, 0)" xlink:href="#linear-gradient"/><linearGradient id="linear-gradient-34" x1="-3212.73" y1="728.11" x2="-3264.87" y2="803.88" gradientTransform="matrix(-1, 0, 0, 1, -2025.13, 0)" xlink:href="#linear-gradient"/><linearGradient id="linear-gradient-35" x1="-3210.15" y1="729.89" x2="-3262.29" y2="805.65" gradientTransform="matrix(-1, 0, 0, 1, -2025.13, 0)" xlink:href="#linear-gradient"/><linearGradient id="linear-gradient-36" x1="-3208.55" y1="730.99" x2="-3260.69" y2="806.76" gradientTransform="matrix(-1, 0, 0, 1, -2025.13, 0)" xlink:href="#linear-gradient"/><linearGradient id="linear-gradient-37" x1="-3223.46" y1="720.73" x2="-3275.61" y2="796.49" gradientTransform="matrix(-1, 0, 0, 1, -2025.13, 0)" xlink:href="#linear-gradient"/><linearGradient id="linear-gradient-38" x1="-3205.26" y1="624.15" x2="-3241.88" y2="677.36" gradientTransform="matrix(-1, 0, 0, 1, -2025.13, 0)" xlink:href="#linear-gradient"/><linearGradient id="linear-gradient-39" x1="-3203.95" y1="625.05" x2="-3240.56" y2="678.26" gradientTransform="matrix(-1, 0, 0, 1, -2025.13, 0)" xlink:href="#linear-gradient"/><linearGradient id="linear-gradient-40" x1="-3202.36" y1="626.15" x2="-3238.98" y2="679.36" gradientTransform="matrix(-1, 0, 0, 1, -2025.13, 0)" xlink:href="#linear-gradient"/><linearGradient id="linear-gradient-41" x1="-3199.61" y1="628.04" x2="-3236.23" y2="681.25" gradientTransform="matrix(-1, 0, 0, 1, -2025.13, 0)" xlink:href="#linear-gradient"/><linearGradient id="linear-gradient-42" x1="-3197.8" y1="629.28" x2="-3234.42" y2="682.49" gradientTransform="matrix(-1, 0, 0, 1, -2025.13, 0)" xlink:href="#linear-gradient"/><linearGradient id="linear-gradient-43" x1="-3196.67" y1="630.06" x2="-3233.29" y2="683.27" gradientTransform="matrix(-1, 0, 0, 1, -2025.13, 0)" xlink:href="#linear-gradient"/><linearGradient id="linear-gradient-44" x1="-3207.15" y1="622.85" x2="-3243.77" y2="676.06" gradientTransform="matrix(-1, 0, 0, 1, -2025.13, 0)" xlink:href="#linear-gradient"/><linearGradient id="linear-gradient-45" x1="1426.6" y1="449.19" x2="1223.29" y2="709.3" gradientTransform="matrix(1, 0, 0, 1, 0, 0)" xlink:href="#linear-gradient-10"/><linearGradient id="linear-gradient-46" x1="1449.97" y1="517.16" x2="1335.46" y2="663.67" gradientTransform="matrix(1, 0, 0, 1, 0, 0)" xlink:href="#linear-gradient-10"/><linearGradient id="linear-gradient-47" x1="1278.34" y1="849.18" x2="1346.54" y2="759.66" xlink:href="#linear-gradient"/><linearGradient id="linear-gradient-48" x1="4313.63" y1="798.28" x2="4324.59" y2="798.28" gradientTransform="translate(-3025.81)" xlink:href="#linear-gradient-10"/><linearGradient id="linear-gradient-49" x1="4263.31" y1="507.09" x2="4317.98" y2="744.7" gradientTransform="translate(-3025.81)" xlink:href="#linear-gradient"/><linearGradient id="linear-gradient-50" x1="1245.83" y1="824.41" x2="1314.03" y2="734.89" xlink:href="#linear-gradient"/><linearGradient id="linear-gradient-51" x1="4274.14" y1="797.72" x2="4283.6" y2="797.72" gradientTransform="translate(-3025.81)" xlink:href="#linear-gradient-10"/><linearGradient id="linear-gradient-52" x1="4245.13" y1="507.04" x2="4300.5" y2="747.71" gradientTransform="translate(-3025.81)" xlink:href="#linear-gradient"/><linearGradient id="linear-gradient-53" x1="4289.79" y1="525.45" x2="4314.42" y2="525.45" gradientTransform="translate(-3025.81)" xlink:href="#linear-gradient-10"/><linearGradient id="linear-gradient-54" x1="-2643.67" y1="523.98" x2="-2652.87" y2="493.63" gradientTransform="matrix(0.75, -0.67, 0.67, 0.75, 2917.72, -1641.53)" xlink:href="#linear-gradient-10"/><linearGradient id="linear-gradient-55" x1="-2654.13" y1="478.46" x2="-2647.65" y2="515.37" gradientTransform="matrix(0.75, -0.67, 0.67, 0.75, 2917.72, -1641.53)" xlink:href="#linear-gradient"/><linearGradient id="linear-gradient-56" x1="-2653.07" y1="523.84" x2="-2661.36" y2="496.53" gradientTransform="matrix(0.75, -0.67, 0.67, 0.75, 2917.72, -1641.53)" xlink:href="#linear-gradient-10"/><linearGradient id="linear-gradient-57" x1="6311.25" y1="598.39" x2="6381.08" y2="598.39" gradientTransform="translate(-5098.92)" xlink:href="#linear-gradient-10"/><linearGradient id="linear-gradient-58" x1="1386.85" y1="522.2" x2="1349.55" y2="550.98" xlink:href="#linear-gradient"/><linearGradient id="linear-gradient-59" x1="6375.9" y1="591.07" x2="6397.66" y2="591.07" gradientTransform="translate(-5098.92)" xlink:href="#linear-gradient-10"/><linearGradient id="linear-gradient-60" x1="1451.42" y1="227.13" x2="1444.31" y2="251.65" xlink:href="#linear-gradient"/><linearGradient id="linear-gradient-61" x1="1418.11" y1="271.73" x2="1421.72" y2="271.73" xlink:href="#linear-gradient-8"/><linearGradient id="linear-gradient-62" x1="1437.07" y1="285.06" x2="1439.64" y2="285.06" xlink:href="#linear-gradient-8"/><linearGradient id="linear-gradient-63" x1="1368.93" y1="126.34" x2="1343.36" y2="146.59" gradientTransform="matrix(1, 0, 0, 1, 0, 0)" xlink:href="#linear-gradient-10"/><linearGradient id="linear-gradient-64" x1="1272.85" y1="196.37" x2="1280.22" y2="196.37" gradientTransform="matrix(1, 0, 0, 1, 0, 0)" xlink:href="#linear-gradient-10"/><linearGradient id="linear-gradient-65" x1="1037.1" y1="510.47" x2="1267.83" y2="434.27" xlink:href="#linear-gradient-12"/><linearGradient id="linear-gradient-66" x1="1005.36" y1="517.94" x2="1026.06" y2="517.94" xlink:href="#linear-gradient"/><linearGradient id="linear-gradient-67" x1="1026.7" y1="478.99" x2="1257.43" y2="402.79" xlink:href="#linear-gradient-12"/><linearGradient id="linear-gradient-68" x1="1083.89" y1="457.27" x2="1109.73" y2="457.27" xlink:href="#linear-gradient"/><linearGradient id="linear-gradient-69" x1="1017.06" y1="496.76" x2="1035.81" y2="496.76" gradientTransform="matrix(1, 0, 0, 1, 0, 0)" xlink:href="#linear-gradient-10"/><linearGradient id="linear-gradient-70" x1="1100.75" y1="437.95" x2="1119.68" y2="437.95" gradientTransform="matrix(1, 0, 0, 1, 0, 0)" xlink:href="#linear-gradient-10"/><linearGradient id="linear-gradient-71" x1="1204.5" y1="310.78" x2="1082.03" y2="429.23" xlink:href="#linear-gradient"/><linearGradient id="linear-gradient-72" x1="1140.31" y1="393.87" x2="1120.56" y2="410.94" xlink:href="#linear-gradient"/><linearGradient id="linear-gradient-73" x1="1117.32" y1="394.98" x2="1106.73" y2="410.15" xlink:href="#linear-gradient"/><linearGradient id="linear-gradient-74" x1="1061.77" y1="328.38" x2="1045.8" y2="348.17" gradientUnits="userSpaceOnUse"><stop offset="0" stop-color="#f7c115"/><stop offset="1" stop-color="#9c1f60"/></linearGradient><linearGradient id="linear-gradient-75" x1="1248.68" y1="-609.2" x2="1272.26" y2="-633.39" gradientTransform="translate(-206.46 524.3) rotate(15.65)" xlink:href="#linear-gradient-10"/><linearGradient id="linear-gradient-76" x1="205.39" y1="56.3" x2="175.54" y2="95.79" gradientTransform="translate(999.55 347.16) rotate(-46.73)" xlink:href="#linear-gradient-10"/><linearGradient id="linear-gradient-77" x1="182.59" y1="65.79" x2="215.25" y2="65.79" gradientTransform="translate(999.55 347.16) rotate(-46.73)" xlink:href="#linear-gradient"/><linearGradient id="linear-gradient-78" x1="161.67" y1="87.58" x2="185.61" y2="63.01" gradientTransform="translate(999.55 347.16) rotate(-46.73)" xlink:href="#linear-gradient-10"/><linearGradient id="linear-gradient-79" x1="1249.96" y1="319.62" x2="1220.97" y2="361.74" gradientTransform="matrix(-1, 0, 0, 1, 2454.61, 0)" xlink:href="#linear-gradient"/><linearGradient id="linear-gradient-80" x1="1251" y1="320.34" x2="1222.01" y2="362.46" gradientTransform="matrix(-1, 0, 0, 1, 2454.61, 0)" xlink:href="#linear-gradient"/><linearGradient id="linear-gradient-81" x1="1252.26" y1="321.2" x2="1223.27" y2="363.32" gradientTransform="matrix(-1, 0, 0, 1, 2454.61, 0)" xlink:href="#linear-gradient"/><linearGradient id="linear-gradient-82" x1="1254.43" y1="322.7" x2="1225.45" y2="364.82" gradientTransform="matrix(-1, 0, 0, 1, 2454.61, 0)" xlink:href="#linear-gradient"/><linearGradient id="linear-gradient-83" x1="1255.87" y1="323.69" x2="1226.88" y2="365.81" gradientTransform="matrix(-1, 0, 0, 1, 2454.61, 0)" xlink:href="#linear-gradient"/><linearGradient id="linear-gradient-84" x1="1256.76" y1="324.3" x2="1227.77" y2="366.42" gradientTransform="matrix(-1, 0, 0, 1, 2454.61, 0)" xlink:href="#linear-gradient"/><linearGradient id="linear-gradient-85" x1="1248.47" y1="318.59" x2="1219.48" y2="360.72" gradientTransform="matrix(-1, 0, 0, 1, 2454.61, 0)" xlink:href="#linear-gradient"/><linearGradient id="linear-gradient-86" x1="1225.81" y1="255.15" x2="1189.58" y2="300.44" gradientTransform="matrix(1, 0, 0, 1, 0, 0)" xlink:href="#linear-gradient-10"/><linearGradient id="linear-gradient-87" x1="1275.7" y1="265.96" x2="1255.45" y2="285.14" gradientTransform="matrix(1, 0, 0, 1, 0, 0)" xlink:href="#linear-gradient-10"/><linearGradient id="linear-gradient-88" x1="1315.75" y1="135.07" x2="1080.85" y2="309.75" xlink:href="#linear-gradient"/><linearGradient id="linear-gradient-89" x1="640.96" y1="567.27" x2="626.04" y2="658.92" xlink:href="#linear-gradient"/><linearGradient id="linear-gradient-90" x1="3976.87" y1="764.09" x2="3988.52" y2="809.62" gradientTransform="translate(-3520)" xlink:href="#linear-gradient"/><linearGradient id="linear-gradient-91" x1="753.23" y1="716.55" x2="852.12" y2="716.55" xlink:href="#linear-gradient"/><linearGradient id="linear-gradient-92" x1="4316.89" y1="773.04" x2="4426.8" y2="775.81" gradientTransform="translate(-3520)" xlink:href="#linear-gradient"/><linearGradient id="linear-gradient-93" x1="2868.48" y1="1468.22" x2="3000.35" y2="1397.09" gradientTransform="translate(-3520)" xlink:href="#linear-gradient"/><linearGradient id="linear-gradient-94" x1="2876.47" y1="1483.05" x2="3008.35" y2="1411.92" gradientTransform="translate(-3520)" xlink:href="#linear-gradient"/><linearGradient id="linear-gradient-95" x1="4337.57" y1="697.27" x2="4282.95" y2="725.46" gradientTransform="translate(-3520)" gradientUnits="userSpaceOnUse"><stop offset="0" stop-color="#e1483d"/><stop offset="1" stop-color="#e9625a"/></linearGradient><linearGradient id="linear-gradient-96" x1="4368.32" y1="593.72" x2="4244.37" y2="657.69" gradientTransform="translate(-3520)" xlink:href="#linear-gradient"/><linearGradient id="linear-gradient-97" x1="4284.32" y1="785.57" x2="4353.62" y2="785.57" gradientTransform="translate(-3520)" xlink:href="#linear-gradient"/><linearGradient id="linear-gradient-98" x1="786.95" y1="777.96" x2="825.09" y2="777.96" gradientTransform="matrix(1, 0, 0, 1, 0, 0)" xlink:href="#linear-gradient-10"/><linearGradient id="linear-gradient-99" x1="4331.68" y1="764.73" x2="4296.46" y2="822.44" gradientTransform="translate(299.26 -3575.73) rotate(73.16)" xlink:href="#linear-gradient"/><linearGradient id="linear-gradient-100" x1="4070.68" y1="785.57" x2="4139.98" y2="785.57" gradientTransform="translate(-3520)" xlink:href="#linear-gradient"/><linearGradient id="linear-gradient-101" x1="573.32" y1="777.96" x2="611.46" y2="777.96" gradientTransform="matrix(1, 0, 0, 1, 0, 0)" xlink:href="#linear-gradient-10"/><linearGradient id="linear-gradient-102" x1="4118.05" y1="764.73" x2="4082.82" y2="822.44" gradientTransform="translate(406.67 -3390.43) rotate(76.72)" xlink:href="#linear-gradient"/><linearGradient id="linear-gradient-103" x1="3991.41" y1="785.57" x2="4060.71" y2="785.57" gradientTransform="translate(-3520)" xlink:href="#linear-gradient"/><linearGradient id="linear-gradient-104" x1="494.05" y1="777.96" x2="532.19" y2="777.96" gradientTransform="matrix(1, 0, 0, 1, 0, 0)" xlink:href="#linear-gradient-10"/><linearGradient id="linear-gradient-105" x1="4038.78" y1="764.73" x2="4003.56" y2="822.44" gradientTransform="translate(91.24 -3295.39) rotate(73.16)" xlink:href="#linear-gradient"/><linearGradient id="linear-gradient-106" x1="4360.04" y1="762.76" x2="4371.33" y2="735.76" gradientTransform="translate(-3520)" xlink:href="#linear-gradient-10"/><linearGradient id="linear-gradient-107" x1="279.92" y1="745.77" x2="302.92" y2="745.77" xlink:href="#linear-gradient"/><linearGradient id="linear-gradient-108" x1="213.48" y1="788.52" x2="273.01" y2="788.52" gradientTransform="translate(307.48 -34.16) rotate(21.61)" xlink:href="#linear-gradient"/><linearGradient id="linear-gradient-109" x1="206.49" y1="748.78" x2="280.96" y2="748.78" xlink:href="#linear-gradient"/><linearGradient id="linear-gradient-110" x1="305.44" y1="732.62" x2="384.81" y2="732.62" xlink:href="#linear-gradient"/><linearGradient id="linear-gradient-111" x1="257.88" y1="777.46" x2="330.79" y2="777.46" xlink:href="#linear-gradient"/><linearGradient id="linear-gradient-112" x1="334.77" y1="788.52" x2="394.29" y2="788.52" gradientTransform="translate(1044.65 248.08) rotate(76.34)" xlink:href="#linear-gradient"/><linearGradient id="linear-gradient-113" x1="316.5" y1="682.33" x2="351.35" y2="682.33" xlink:href="#linear-gradient"/><linearGradient id="linear-gradient-114" x1="316.5" y1="682.58" x2="326.78" y2="682.58" xlink:href="#linear-gradient"/><linearGradient id="linear-gradient-115" x1="340.73" y1="772.85" x2="362.59" y2="772.85" xlink:href="#linear-gradient"/><linearGradient id="linear-gradient-116" x1="330.28" y1="760.98" x2="387.28" y2="760.98" xlink:href="#linear-gradient"/><linearGradient id="linear-gradient-117" x1="326.78" y1="667.35" x2="338.81" y2="667.35" xlink:href="#linear-gradient"/></defs><title>Artboard 1</title><g class="cls-1"><g id="Layer_1" data-name="Layer 1"><ellipse class="cls-2" cx="656.52" cy="815.38" rx="211.01" ry="9.51"/><ellipse class="cls-2" cx="1293.62" cy="815.38" rx="375.87" ry="9.51"/><ellipse class="cls-2" cx="304.55" cy="818.55" rx="121.28" ry="10.21"/><path class="cls-3" d="M1603.72,333.43a9.55,9.55,0,0,0-9.45-9.39H1399.45c-5.22,0-10.35,4.46-10.35,9.69V800.57a10.27,10.27,0,0,0,10.15,9.46l203.69-.56a9.51,9.51,0,0,0,9.52-9.69Z"/><g class="cls-4"><polygon class="cls-5" points="1460.25 379.05 1404.75 378.98 1404.31 350.53 1459.87 350.53 1460.25 379.05"/><polygon class="cls-5" points="1522.46 379.04 1467.02 378.96 1466.64 350.53 1522.13 350.53 1522.46 379.04"/><polygon class="cls-5" points="1584.6 379.02 1529.22 378.95 1528.9 350.53 1584.34 350.53 1584.6 379.02"/><polygon class="cls-5" points="1460.94 430.11 1405.54 430.15 1405.11 401.89 1460.56 401.87 1460.94 430.11"/><polygon class="cls-5" points="1523.04 430.07 1467.7 430.11 1467.32 401.86 1522.72 401.84 1523.04 430.07"/><polygon class="cls-5" points="1585.08 430.03 1529.79 430.07 1529.47 401.84 1584.82 401.81 1585.08 430.03"/><polygon class="cls-5" points="1461.64 480.82 1406.33 480.88 1405.89 452.72 1461.25 452.67 1461.64 480.82"/><polygon class="cls-5" points="1523.63 480.76 1468.38 480.81 1468 452.67 1523.3 452.62 1523.63 480.76"/><polygon class="cls-5" points="1585.56 480.69 1530.36 480.75 1530.04 452.62 1585.29 452.57 1585.56 480.69"/><polygon class="cls-5" points="1462.33 531.36 1407.12 531.43 1406.68 503.37 1461.94 503.3 1462.33 531.36"/><polygon class="cls-5" points="1524.21 531.26 1469.05 531.35 1468.68 503.29 1523.88 503.23 1524.21 531.26"/><polygon class="cls-5" points="1586.03 531.17 1530.93 531.25 1530.61 503.22 1585.77 503.15 1586.03 531.17"/><polygon class="cls-5" points="1463.01 581.71 1407.9 581.82 1407.46 553.85 1462.63 553.76 1463.01 581.71"/><polygon class="cls-5" points="1524.79 581.6 1469.73 581.7 1469.35 553.75 1524.46 553.66 1524.79 581.6"/><polygon class="cls-5" points="1586.5 581.48 1531.5 581.59 1531.18 553.65 1586.24 553.55 1586.5 581.48"/><polygon class="cls-5" points="1463.69 631.9 1408.68 632.02 1408.24 604.15 1463.32 604.04 1463.69 631.9"/><polygon class="cls-5" points="1525.36 631.76 1470.4 631.88 1470.03 604.03 1525.04 603.91 1525.36 631.76"/><polygon class="cls-5" points="1586.97 631.62 1532.06 631.74 1531.75 603.9 1586.71 603.79 1586.97 631.62"/><polygon class="cls-5" points="1464.38 681.91 1409.45 682.06 1409.02 654.28 1464 654.15 1464.38 681.91"/><polygon class="cls-5" points="1525.94 681.75 1471.07 681.89 1470.7 654.13 1525.62 654 1525.94 681.75"/><polygon class="cls-5" points="1587.44 681.58 1532.63 681.73 1532.31 653.98 1587.18 653.85 1587.44 681.58"/><polygon class="cls-5" points="1465.06 731.75 1410.23 731.92 1409.8 704.24 1464.68 704.08 1465.06 731.75"/><polygon class="cls-5" points="1526.51 731.56 1471.74 731.73 1471.37 704.06 1526.19 703.91 1526.51 731.56"/><polygon class="cls-5" points="1587.91 731.37 1533.19 731.54 1532.88 703.89 1587.65 703.73 1587.91 731.37"/><polygon class="cls-5" points="1465.73 781.42 1411 781.61 1410.57 754.03 1465.36 753.85 1465.73 781.42"/><polygon class="cls-5" points="1527.08 781.21 1472.4 781.4 1472.04 753.83 1526.77 753.65 1527.08 781.21"/><polygon class="cls-5" points="1588.37 780.99 1533.75 781.18 1533.44 753.63 1588.12 753.45 1588.37 780.99"/></g><path class="cls-5" d="M1175.5,292.46a6.65,6.65,0,0,0-6.64-6.53H949.34c-3.67,0-7.57,3-7.57,6.67V804.93a11.12,11.12,0,0,0,11,10.3l221.93-.6a10.36,10.36,0,0,0,10.36-10.51Z"/><polygon class="cls-6" points="1049.43 322.24 977.62 321.99 977.65 313 1049.38 313.23 1049.43 322.24"/><polygon class="cls-6" points="1049.63 355.33 977.52 355 977.55 345.94 1049.58 346.25 1049.63 355.33"/><polygon class="cls-6" points="1049.83 388.7 977.42 388.29 977.45 379.15 1049.77 379.54 1049.83 388.7"/><polygon class="cls-6" points="1050.03 422.35 977.32 421.85 977.35 412.64 1049.97 413.11 1050.03 422.35"/><polygon class="cls-6" points="1050.23 456.27 977.22 455.69 977.25 446.41 1050.17 446.96 1050.23 456.27"/><polygon class="cls-6" points="1050.64 524.98 977.02 524.23 977.05 514.78 1050.58 515.51 1050.64 524.98"/><polygon class="cls-6" points="1051.27 630.23 976.71 629.21 976.73 619.52 1051.21 620.52 1051.27 630.23"/><polygon class="cls-6" points="1050.43 490.48 977.12 489.82 977.15 480.45 1050.38 481.09 1050.43 490.48"/><polygon class="cls-6" points="1050.85 559.77 976.91 558.93 976.94 549.4 1050.79 550.22 1050.85 559.77"/><polygon class="cls-6" points="1051.05 594.85 976.81 593.92 976.84 584.32 1051 585.22 1051.05 594.85"/><polygon class="cls-6" points="1051.48 665.91 976.6 664.8 976.63 655.03 1051.42 656.12 1051.48 665.91"/><polygon class="cls-6" points="1051.69 701.9 976.49 700.69 976.52 690.84 1051.63 692.03 1051.69 701.9"/><polygon class="cls-6" points="1051.91 738.21 976.38 736.9 976.41 726.96 1051.85 728.24 1051.91 738.21"/><polygon class="cls-6" points="1052.13 774.82 976.27 773.42 976.3 763.39 1052.07 764.77 1052.13 774.82"/><polygon class="cls-6" points="1143.58 322.56 1071.32 322.31 1071.24 313.3 1143.42 313.53 1143.58 322.56"/><polygon class="cls-6" points="1144.17 355.76 1071.61 355.43 1071.53 346.34 1144.01 346.65 1144.17 355.76"/><polygon class="cls-6" points="1144.76 389.24 1071.9 388.82 1071.82 379.66 1144.6 380.05 1144.76 389.24"/><polygon class="cls-6" points="1145.36 422.99 1072.19 422.5 1072.11 413.26 1145.19 413.73 1145.36 422.99"/><polygon class="cls-6" points="1145.96 457.03 1072.48 456.45 1072.4 447.13 1145.79 447.69 1145.96 457.03"/><polygon class="cls-6" points="1147.17 525.96 1073.08 525.21 1073 515.73 1147.01 516.47 1147.17 525.96"/><polygon class="cls-6" points="1149.04 631.57 1073.99 630.54 1073.91 620.83 1148.87 621.83 1149.04 631.57"/><polygon class="cls-6" points="1146.56 491.35 1072.78 490.68 1072.7 481.29 1146.4 481.93 1146.56 491.35"/><polygon class="cls-6" points="1147.79 560.87 1073.38 560.02 1073.3 550.47 1147.62 551.29 1147.79 560.87"/><polygon class="cls-6" points="1148.41 596.07 1073.69 595.13 1073.6 585.5 1148.24 586.41 1148.41 596.07"/><polygon class="cls-6" points="1149.67 667.38 1074.3 666.25 1074.22 656.46 1149.5 657.55 1149.67 667.38"/><polygon class="cls-6" points="1150.31 703.49 1074.62 702.27 1074.53 692.39 1150.13 693.58 1150.31 703.49"/><polygon class="cls-6" points="1150.95 739.92 1074.93 738.61 1074.84 728.63 1150.78 729.92 1150.95 739.92"/><polygon class="cls-6" points="1151.6 776.66 1075.25 775.25 1075.16 765.19 1151.42 766.58 1151.6 776.66"/><path class="cls-7" d="M981.42,285.54a1.87,1.87,0,0,1-1-3.43l1.86-1.2a1.86,1.86,0,0,1,2,3.13l-1.84,1.2A1.92,1.92,0,0,1,981.42,285.54Zm7.83-5a1.87,1.87,0,0,1-1-3.46l1.89-1.15a1.86,1.86,0,0,1,2.56.62,1.88,1.88,0,0,1-.63,2.57l-1.87,1.14A1.82,1.82,0,0,1,989.25,280.58Zm8-4.76a1.87,1.87,0,0,1-.94-3.48l1.92-1.11a1.87,1.87,0,0,1,1.86,3.24l-1.91,1.09A1.75,1.75,0,0,1,997.2,275.82Zm8.07-4.57a1.86,1.86,0,0,1-.9-3.49l1.94-1.07a1.87,1.87,0,1,1,1.78,3.28l-1.93,1A1.79,1.79,0,0,1,1005.27,271.25Zm8.17-4.37a1.86,1.86,0,0,1-.86-3.52l2-1a1.87,1.87,0,0,1,1.71,3.32l-2,1A1.91,1.91,0,0,1,1013.44,266.88Zm8.27-4.19a1.87,1.87,0,0,1-.83-3.54l2-1a1.86,1.86,0,1,1,1.63,3.35l-2,1A1.89,1.89,0,0,1,1021.71,262.69Zm8.35-4a1.86,1.86,0,0,1-.79-3.55l2-.93a1.86,1.86,0,0,1,1.56,3.38l-2,.93A1.88,1.88,0,0,1,1030.06,258.67Zm8.43-3.84a1.86,1.86,0,0,1-.75-3.57l2-.89a1.86,1.86,0,1,1,1.5,3.41l-2,.89A1.85,1.85,0,0,1,1038.49,254.83Zm8.51-3.67a1.87,1.87,0,0,1-.72-3.59l2-.85a1.86,1.86,0,1,1,1.43,3.44l-2,.85A1.82,1.82,0,0,1,1047,251.16Zm8.58-3.51a1.87,1.87,0,0,1-.69-3.6l2.06-.81a1.86,1.86,0,1,1,1.36,3.47l-2,.8A1.89,1.89,0,0,1,1055.58,247.65Zm307.36-2a1.82,1.82,0,0,1-1-.28l-1.87-1.12a1.87,1.87,0,1,1,1.91-3.21l1.9,1.15a1.87,1.87,0,0,1-1,3.46Zm-298.72-1.39a1.86,1.86,0,0,1-.65-3.61l2.07-.77a1.86,1.86,0,1,1,1.3,3.49l-2.06.77A1.92,1.92,0,0,1,1064.22,244.3Zm8.71-3.18a1.86,1.86,0,0,1-.63-3.62l2.09-.74a1.87,1.87,0,0,1,1.24,3.52l-2.08.73A1.88,1.88,0,0,1,1072.93,241.12Zm282-.07a1.92,1.92,0,0,1-.89-.22l-1.92-1a1.86,1.86,0,1,1,1.74-3.29c.66.34,1.31.7,2,1.05a1.86,1.86,0,0,1-.9,3.5Zm-273.24-3a1.86,1.86,0,0,1-.59-3.63l2.09-.7a1.86,1.86,0,1,1,1.17,3.54l-2.08.69A1.7,1.7,0,0,1,1081.67,238.1Zm265-1.28a1.85,1.85,0,0,1-.81-.19l-2-.94a1.86,1.86,0,1,1,1.58-3.37l2,1a1.87,1.87,0,0,1-.82,3.55Zm-256.2-1.57a1.87,1.87,0,0,1-.56-3.65l2.11-.66a1.87,1.87,0,0,1,1.1,3.57l-2.09.65A1.77,1.77,0,0,1,1090.46,235.25ZM1338.22,233a1.91,1.91,0,0,1-.73-.15l-2-.86a1.86,1.86,0,0,1,1.43-3.44c.69.29,1.38.57,2.06.87a1.87,1.87,0,0,1-.74,3.58Zm-238.91-.43a1.87,1.87,0,0,1-.53-3.66l2.12-.62a1.87,1.87,0,0,1,1,3.59l-2.1.61A2,2,0,0,1,1099.31,232.55Zm8.9-2.54a1.86,1.86,0,0,1-.5-3.66l2.13-.59a1.87,1.87,0,0,1,1,3.6l-2.12.58A1.66,1.66,0,0,1,1108.21,230Zm221.41-.49a1.72,1.72,0,0,1-.66-.13l-2-.76a1.86,1.86,0,1,1,1.28-3.5l2.09.77a1.87,1.87,0,0,1-.66,3.62Zm-212.47-1.89a1.86,1.86,0,0,1-.46-3.67l2.14-.54a1.86,1.86,0,1,1,.91,3.61l-2.12.54A1.89,1.89,0,0,1,1117.15,227.63Zm203.72-1.21a2,2,0,0,1-.58-.09l-2.09-.68a1.86,1.86,0,1,1,1.14-3.55l2.12.69a1.86,1.86,0,0,1-.59,3.63Zm-194.72-1a1.86,1.86,0,0,1-.43-3.68l2.15-.51a1.87,1.87,0,1,1,.84,3.64l-2.13.5A2.18,2.18,0,0,1,1126.15,225.42ZM1312,223.69a1.86,1.86,0,0,1-.52-.07c-.7-.21-1.41-.4-2.11-.6a1.86,1.86,0,1,1,1-3.59l2.15.6a1.87,1.87,0,0,1-.51,3.66Zm-176.83-.32a1.87,1.87,0,0,1-.39-3.69l2.16-.47a1.87,1.87,0,0,1,.78,3.65l-2.15.46A1.9,1.9,0,0,1,1135.18,223.37Zm9.08-1.89a1.86,1.86,0,0,1-.36-3.69l2.17-.42a1.86,1.86,0,0,1,.71,3.66l-2.16.42A2.19,2.19,0,0,1,1144.26,221.48ZM1303,221.3a1.74,1.74,0,0,1-.45-.06l-2.13-.51a1.87,1.87,0,1,1,.86-3.63l2.17.52a1.87,1.87,0,0,1-.45,3.68Zm-149.67-1.53a1.86,1.86,0,0,1-.32-3.7l2.18-.38a1.86,1.86,0,0,1,.64,3.67l-2.17.38A1.84,1.84,0,0,1,1153.37,219.77Zm140.62-.54a1.69,1.69,0,0,1-.38,0l-2.15-.44a1.86,1.86,0,1,1,.73-3.65l2.18.44a1.86,1.86,0,0,1-.38,3.69Zm-131.47-1a1.87,1.87,0,0,1-.29-3.71l2.19-.34a1.87,1.87,0,1,1,.57,3.69l-2.18.33A1.43,1.43,0,0,1,1162.52,218.24Zm122.36-.76a1.67,1.67,0,0,1-.32,0l-2.17-.37a1.87,1.87,0,0,1,.61-3.68l2.2.37a1.87,1.87,0,0,1,1.51,2.16A1.85,1.85,0,0,1,1284.88,217.48Zm-113.18-.6a1.86,1.86,0,0,1-.25-3.71l2.2-.3a1.87,1.87,0,0,1,.49,3.7l-2.18.29A1.18,1.18,0,0,1,1171.7,216.88Zm104-.84-.26,0c-.73-.11-1.45-.21-2.18-.3a1.87,1.87,0,1,1,.5-3.7l2.2.3a1.87,1.87,0,0,1-.26,3.72Zm-94.8-.33a1.87,1.87,0,0,1-.21-3.72l2.2-.25a1.87,1.87,0,0,1,.42,3.71l-2.19.25Zm85.59-.84h-.2l-2.19-.23a1.87,1.87,0,0,1,.39-3.71l2.21.23a1.87,1.87,0,0,1-.21,3.72Zm-76.35-.14A1.86,1.86,0,0,1,1190,211l2.21-.21a1.87,1.87,0,1,1,.34,3.72l-2.19.2Zm67.12-.74h-.16l-2.19-.17a1.87,1.87,0,1,1,.28-3.72l2.21.17a1.87,1.87,0,0,1-.14,3.73Zm-57.87,0a1.87,1.87,0,0,1-.13-3.73l2.22-.16a1.87,1.87,0,0,1,.25,3.73l-2.2.15Zm9.28-.58a1.87,1.87,0,0,1-.09-3.73l2.22-.11a1.87,1.87,0,0,1,.17,3.73l-2.2.1Zm39.33,0h-.11l-2.19-.11a1.87,1.87,0,1,1,.17-3.73l2.22.11a1.87,1.87,0,0,1-.09,3.73Zm-30-.36a1.87,1.87,0,0,1,0-3.73l2.22-.06a1.87,1.87,0,1,1,.08,3.73l-2.2.06Zm20.76,0h0l-2.2,0a1.87,1.87,0,0,1,.08-3.73l2.22.05a1.87,1.87,0,0,1,0,3.73Zm-11.48-.13a1.87,1.87,0,0,1,0-3.73h2.22a1.87,1.87,0,0,1,0,3.73h-2.2Z"/><circle class="cls-8" cx="1341.31" cy="220.01" r="34.47"/><path class="cls-9" d="M1375.72,218.17h-68.87s-2.75,19.13,28,71.53a7.53,7.53,0,0,0,12.9,0C1378.52,237.32,1375.72,218.17,1375.72,218.17Z"/><path class="cls-10" d="M1341.3,294.47v.19h0a8.55,8.55,0,0,1-7.31-4.22c-18-30.63-24.57-50-26.93-60.83a34.82,34.82,0,0,1-1.18-7.44,17.1,17.1,0,0,1,0-3.76l.09-.55a35.46,35.46,0,0,1,70.77.35,14.64,14.64,0,0,1,.06,1.9v.13a35.58,35.58,0,0,1-1.42,10c-2.44,10.83-9.07,30-26.75,60.12A8.34,8.34,0,0,1,1341.3,294.47Zm-33.51-74.75a23.26,23.26,0,0,0,.09,2.36h0a32.18,32.18,0,0,0,1.12,7v0c2.33,10.69,8.85,29.82,26.71,60.24a6.49,6.49,0,0,0,5.57,3.18v0a6.79,6.79,0,0,0,5.59-3.2c17.56-29.92,24.11-48.93,26.52-59.62l0-.06a33.53,33.53,0,0,0,1.15-9.43l-.2-.14h0a14.34,14.34,0,0,1,.15-1.68l.09-.06a33.42,33.42,0,0,0-66.74.35l0,1Z"/><circle class="cls-8" cx="1341.42" cy="219.9" r="19.9" transform="translate(631.07 1378.85) rotate(-67.8)"/><g class="cls-11"><path class="cls-7" d="M1341.42,240.92a21,21,0,1,1,21-21A21,21,0,0,1,1341.42,240.92Zm0-39.81a18.79,18.79,0,1,0,18.79,18.79A18.81,18.81,0,0,0,1341.42,201.11Z"/></g><g class="cls-12"><path class="cls-7" d="M1322.54,199.18a.33.33,0,0,1-.21-.59,30.88,30.88,0,0,1,20.11-7.44.34.34,0,0,1,0,.67,30.2,30.2,0,0,0-19.68,7.28A.35.35,0,0,1,1322.54,199.18Z"/></g><g class="cls-12"><path class="cls-7" d="M1311.89,222.37a.34.34,0,0,1-.34-.33,30.82,30.82,0,0,1,4.62-16.26.33.33,0,1,1,.57.35,30.14,30.14,0,0,0-4.52,15.91A.33.33,0,0,1,1311.89,222.37Z"/></g><rect class="cls-13" x="737.49" y="389.83" width="14.67" height="19.28"/><path class="cls-14" d="M756.11,394.89H732.76a4.44,4.44,0,0,1-4.44-4.45h0c-1.21-5.84,2.76-10.27,9.56-9.56h17.76a4.78,4.78,0,0,1,4.77,4.77v4.94A4.31,4.31,0,0,1,756.11,394.89Z"/><rect class="cls-15" x="784.2" y="413.9" width="8.2" height="10.79" transform="translate(548.68 -440.83) rotate(46.42)"/><path class="cls-16" d="M794.3,421.87,785,412.14a1.8,1.8,0,0,1,.06-2.55h0a6,6,0,0,1,8.53.21l6,6.28a3.24,3.24,0,0,1-.11,4.59l-1.36,1.3A2.7,2.7,0,0,1,794.3,421.87Z"/><rect class="cls-17" x="697.93" y="413.65" width="8.2" height="10.79" transform="translate(1489.52 199.29) rotate(133.58)"/><path class="cls-18" d="M696,421.63l9.26-9.74a1.8,1.8,0,0,0-.06-2.54h0a6,6,0,0,0-8.53.21L690.56,416a3,3,0,0,0,.11,4.26l1.53,1.45A2.71,2.71,0,0,0,696,421.63Z"/><circle class="cls-19" cx="744.03" cy="466.06" r="59.87"/><circle class="cls-20" cx="744.66" cy="466.78" r="50.71"/><rect class="cls-3" x="743.45" y="417.13" width="1.83" height="14.54"/><rect class="cls-3" x="743.45" y="502.14" width="1.83" height="14.54"/><rect class="cls-3" x="779.74" y="465.35" width="14.54" height="1.83" transform="translate(-4.77 8.15) rotate(-0.59)"/><rect class="cls-3" x="695.09" y="466.19" width="14.54" height="1.83" transform="translate(-4.78 7.27) rotate(-0.59)"/><path class="cls-3" d="M744.27,467.56a.48.48,0,0,1-.36-.17l-22.19-28.33a.46.46,0,0,1,.07-.65.47.47,0,0,1,.65.08l22.19,28.33a.46.46,0,0,1-.08.65A.47.47,0,0,1,744.27,467.56Z"/><path class="cls-3" d="M738.39,476.49a1.76,1.76,0,0,1-1.13-.39,1.82,1.82,0,0,1-.31-2.57l22.37-28.35a1.83,1.83,0,1,1,2.88,2.27L739.83,475.8A1.82,1.82,0,0,1,738.39,476.49Z"/><path class="cls-3" d="M772.32,498.39a1.36,1.36,0,0,1-1-.44l-34.11-36.84a1.38,1.38,0,0,1,2-1.87l34.1,36.84a1.38,1.38,0,0,1-1,2.31Z"/><circle class="cls-21" cx="744.27" cy="467.11" r="4.95"/><path class="cls-7" d="M747.57,467.11a3.3,3.3,0,1,1-3.3-3.3A3.3,3.3,0,0,1,747.57,467.11Z"/><rect class="cls-3" x="743.45" y="418.43" width="1.83" height="7.83"/><rect class="cls-3" x="761.51" y="426.74" width="7.83" height="1.83" transform="translate(27.78 901.63) rotate(-61.92)"/><rect class="cls-3" x="779.07" y="443.72" width="7.83" height="1.83" transform="translate(-117.38 454.99) rotate(-30.25)"/><rect class="cls-3" x="782.71" y="484.5" width="1.83" height="7.83" transform="matrix(0.47, -0.88, 0.88, 0.47, -18.1, 946.52)"/><rect class="cls-3" x="765.61" y="502.03" width="1.83" height="7.83" transform="translate(-150.21 449.92) rotate(-29.93)"/><rect class="cls-3" x="718.82" y="505.43" width="7.83" height="1.83" transform="translate(-68.06 897.98) rotate(-61.36)"/><rect class="cls-3" x="700.5" y="486.57" width="7.83" height="1.83" transform="translate(-144.94 375.96) rotate(-27.2)"/><rect class="cls-3" x="702.3" y="445.37" width="1.83" height="7.83" transform="translate(12.07 916.93) rotate(-66.66)"/><rect class="cls-3" x="715.84" y="427.89" width="1.83" height="7.83" transform="translate(-113.81 533.57) rotate(-38.05)"/><path class="cls-3" d="M744.56,522.6A55.76,55.76,0,0,1,716.35,515a.18.18,0,0,1-.07-.25.18.18,0,0,1,.25-.07A55.52,55.52,0,0,0,760.35,520a.19.19,0,0,1,.11.36A56,56,0,0,1,744.56,522.6Z"/><path class="cls-3" d="M797.12,485.19h-.06A.18.18,0,0,1,797,485a55.5,55.5,0,0,0-8.29-51.72.19.19,0,0,1,.3-.23,55.89,55.89,0,0,1,8.34,52.07A.18.18,0,0,1,797.12,485.19Z"/><path class="cls-3" d="M691.05,482.22a.17.17,0,0,1-.17-.13,55.79,55.79,0,0,1,22.22-61.37,55.2,55.2,0,0,1,16.2-7.6.19.19,0,0,1,.23.12.19.19,0,0,1-.13.23A55.49,55.49,0,0,0,691.23,482a.17.17,0,0,1-.13.22Z"/><path class="cls-3" d="M730.16,392.3a.19.19,0,0,1-.19-.15c-.72-4.13-.46-6.54.88-8.08,2.34-2.67,8-2.43,18.15-2l.58,0a.18.18,0,1,1,0,.36l-.59,0c-10.07-.43-15.63-.67-17.85,1.87-1.25,1.43-1.49,3.82-.79,7.77a.2.2,0,0,1-.15.22Z"/><path class="cls-22" d="M1518.35,523s1.78-3.22,1.59-5.81,1.42-6.38-.29-6.1-2.07,0-2.54,3.16S1512.46,528.81,1518.35,523Z"/><path class="cls-23" d="M1591.5,805.3a6.3,6.3,0,0,1,6.26-4.59l2.87.09c15.09,3.62,22.95,12.37,26.06,16.67a.27.27,0,0,1-.2.42c-4.76.39-15.83,1.15-25.2.89-6.24-.17-9.58-.42-11.25-1.1A52.27,52.27,0,0,1,1591.5,805.3Z"/><path class="cls-24" d="M1601.19,818.46c-6.25-.18-9.48-.92-11.15-1.6,0,.62,0,1.26,0,1.91a1.24,1.24,0,0,0,1.18,1.26l34.3-.23a1.56,1.56,0,0,0,1.26-2.28C1622.3,817.89,1610.85,818.73,1601.19,818.46Z"/><path class="cls-25" d="M1605.44,791l-2.39,11.53a1.91,1.91,0,0,1-1.61,1.56,16.22,16.22,0,0,1-3.72-.06,2.38,2.38,0,0,1-1.87-2.79l1.66-10.24Z"/><path class="cls-26" d="M1555.8,818.46c6.25-.18,9.48-.92,11.15-1.6,0,.62,0,1.26,0,1.91a1.24,1.24,0,0,1-1.18,1.26l-34.3-.23a1.56,1.56,0,0,1-1.26-2.28C1534.68,817.89,1546.14,818.73,1555.8,818.46Z"/><path class="cls-27" d="M1530.19,817.52a2.1,2.1,0,0,1,.13-.26c3-4.23,10.75-12.66,26-16.32l7.31-.23s3.26,5.67,3.32,16.15c-1.67.68-4.9,1.42-11.15,1.6C1546.14,818.73,1534.68,817.89,1530.19,817.52Z"/><path class="cls-28" d="M1565,789.63c-.08.54-1.09,8.83-1.48,12a1.58,1.58,0,0,1-1.34,1.44,16.42,16.42,0,0,1-5-.08,2.15,2.15,0,0,1-1.64-2.17v-13Z"/><path class="cls-29" d="M1570.86,638.4s-17.65,67.05-17.33,151.42a3.26,3.26,0,0,0,2.59,3.18,37.63,37.63,0,0,0,8.18,1,3,3,0,0,0,2.89-2.53c2.47-14.51,16.67-96.23,24.76-109.5,0,0,5.32,72.79,3.62,110.55a1.79,1.79,0,0,0,1.58,1.86,29.41,29.41,0,0,0,6.56,0,2.39,2.39,0,0,0,2.14-2c1.76-12.28,11.9-85.36,11.47-138,0-3-7.85-15.87-7.85-15.87Z"/><path class="cls-30" d="M1505.05,579.22c-4-21.54.42-52.8.42-52.8l8.53,8.42s-.93,25.73,4.58,37.73C1515,573,1510.68,573.22,1505.05,579.22Z"/><path class="cls-31" d="M1557.82,584.2h.06a.43.43,0,0,0,.36-.47c0-.18-2.26-18.27-1-23.48a.41.41,0,1,0-.8-.19c-1.25,5.36.93,23,1,23.78A.42.42,0,0,0,1557.82,584.2Z"/><path class="cls-32" d="M1503.57,473.27a3.43,3.43,0,0,1,3.85-3.59l25.17,3.21a2,2,0,0,1,1.69,1.95l-1,64.69a1,1,0,0,1-.32.74,1,1,0,0,1-.75.29l-21.74-.52a3.43,3.43,0,0,1-3.34-3.22Z"/><path class="cls-9" d="M1510.86,476.29a1.93,1.93,0,0,1,2.22-2l16.59,2.47a1.94,1.94,0,0,1,1.65,2l-.86,55.09a1,1,0,0,1-.34.76,1.07,1.07,0,0,1-.78.27l-15.2-1.21a1,1,0,0,1-1-1Z"/><path class="cls-33" d="M1520,473.92c0,.2.27.39.64.43l5.53.59c.37,0,.69-.08.72-.28l0-.19c0-.2-.27-.39-.64-.43l-5.53-.6c-.37,0-.7.09-.72.29Z"/><path class="cls-34" d="M1501.28,511.62c1.91-.71,5.66-7.18,6.37-5.05s-.3,5.05,0,5.95,2.37,5.94,1.44,8.25a88.69,88.69,0,0,0-2.34,9.55c-.19.9-.29,2.08-1.22,2.08s-1.77-1.15-2-2C1503.49,530,1499.37,512.32,1501.28,511.62Z"/><path class="cls-35" d="M1624.6,582.1c10.17-22.43,11.26-38.18,0-44.88a17.26,17.26,0,0,0-2-.39c-3.58-.46-8.54-1.09-14.25-1.84h0a183.11,183.11,0,0,0-24.66-3.39c-11.92-.75-24.73.06-29.9,5.9a84.73,84.73,0,0,1-10.22,17.58c-9.58,12.57-14.28,26.58-19.26,23.85-1.36-.74-4.25-4.69-5.29-6.95-3.62.43-9,.47-14.57,6.46,4.15,22.6,17.92,32,51.65,4.2,6.41,18.11,14.76,43.6,12.47,60.21a2.59,2.59,0,0,0,2.17,2.94c7.68,1.14,30.59,4,42.49-.79a1.81,1.81,0,0,0,1.14-1.69,200.44,200.44,0,0,1,9.5-58A32.54,32.54,0,0,0,1624.6,582.1Z"/><path class="cls-36" d="M1531.67,544.43a5.48,5.48,0,0,1,6.21-2.26c5.53,17.41,28.61,30.13,51.74,35.46-1,6.39-13.64,7.06-20.22,16C1536.21,574.92,1531.67,544.43,1531.67,544.43Z"/><path class="cls-37" d="M1532.41,545.24c-.22,1,5.39,1.38,5.92-2.35-.07-1.84-.47-9.23-1.67-10.64-6.41-7.49-18.43-16.58-18.43-16.58a2.7,2.7,0,0,0,0,3.76l5.89,5.28c-1,2.15-2.25,4-2.72,6.55a7.67,7.67,0,0,0,1.19,5.58,66.69,66.69,0,0,0,3.94,5.47A7.6,7.6,0,0,0,1532.41,545.24Z"/><path class="cls-38" d="M1602,513.46l2.3,23.43s-13.18,4-22.77-2.79l6.74-21.3Z"/><path class="cls-39" d="M1579.66,493.49c-.16.41-.82,29.21-.82,29.21l16.45,0,4.69-27.2S1582.28,486.69,1579.66,493.49Z"/><path class="cls-40" d="M1594.34,498.93a2.39,2.39,0,0,1,.74,1.94l-1.33,14.31a2.41,2.41,0,0,1-.15.63c-.43,1.12-2.11,4.57-5.62,2.65-3-1.63-5.74-3.09-8-3.16a2.37,2.37,0,0,0-2.42,2.33,87.87,87.87,0,0,0,.64,13,2.36,2.36,0,0,0,2.48,2,65.53,65.53,0,0,0,14.58-2.42,2.37,2.37,0,0,0,1.61-1.82c.69-3.78,2.69-14.35,3.71-17.25,1-2.69,4.65-3.63,6.37-3.92a2.37,2.37,0,0,0,1.6-1c1.09-1.67,2.67-5.26-1.67-8a2.37,2.37,0,0,1-.73-3.21c1.17-2,2-5-1.41-7.55s-6.83-1.39-8.88-.07a2.46,2.46,0,0,1-2.94-.17,1.55,1.55,0,0,0-1.52-.34,2.29,2.29,0,0,1-2.84-1.63,6.05,6.05,0,0,0-6-4.78c-7.28-.4-9.85,7.19-9,12.16s8.73,5,13,3.52C1589.67,495.08,1592.86,497.54,1594.34,498.93Z"/><path class="cls-41" d="M1599.3,516.19s-.29-8.49,3.12-9.79,7.56.73,5.27,6.35C1604.83,519.75,1599.3,516.19,1599.3,516.19Z"/><path class="cls-42" d="M1612.43,554.51c-12.45,17.23-16.52,21-37.31,18.77l-10.31,18.91c16.75,9.69,44.15,1.47,59.79-10.09C1635.16,565.29,1639.47,526.42,1612.43,554.51Z"/><path class="cls-43" d="M1238.84,804.92V715.15a21.51,21.51,0,0,0-21.27-21.52c-35.4-.38-108.39-.4-168.12,4.63a16.18,16.18,0,0,0-14.79,15.54l-5.58,86.79a20.55,20.55,0,0,0,20.14,21.29l169.06,3.21A20.18,20.18,0,0,0,1238.84,804.92Z"/><path class="cls-44" d="M1142.22,770.07l-24.3,2.62a5.48,5.48,0,0,1-6.05-5.85l5.31-72.28c10.19-.32,20.23-.56,29.93-.72v70.78A5.48,5.48,0,0,1,1142.22,770.07Z"/><path class="cls-7" d="M1132.26,757.54a2.44,2.44,0,0,1-2.44,2.3h-.14a2.45,2.45,0,0,1-2.3-2.58l3.66-63.09,4.91-.11Z"/><path class="cls-45" d="M1204.87,747.63a.81.81,0,0,0,.81-.76l1.26-19.87a.81.81,0,0,0-.76-.86.78.78,0,0,0-.86.76l-1.26,19.87a.81.81,0,0,0,.76.86Z"/><path class="cls-46" d="M1202.28,747.63a.81.81,0,0,0,.81-.78l.66-20.25a.82.82,0,0,0-.79-.84.76.76,0,0,0-.84.78l-.66,20.25a.82.82,0,0,0,.79.84Z"/><path class="cls-47" d="M1198.76,747.63a.82.82,0,0,1-.78-.85c.33-6.8.94-19.78,1-20.22a.82.82,0,0,1,.82-.8.81.81,0,0,1,.81.81c0,.34-.79,17-1,20.29a.81.81,0,0,1-.81.77Zm.16-21.06h0Z"/><path class="cls-48" d="M1193.37,748.45a1.62,1.62,0,0,0,1.62-1.57c.69-19.62.57-20.06.49-20.36a1.63,1.63,0,0,0-3.19.65c.06,1.18-.31,12.59-.55,19.59a1.62,1.62,0,0,0,1.57,1.69Z"/><path class="cls-49" d="M1189.84,747.63a.81.81,0,0,0,.81-.81V727a.82.82,0,0,0-1.63,0v19.87A.81.81,0,0,0,1189.84,747.63Z"/><path class="cls-50" d="M1187,747.63a.81.81,0,0,0,.82-.79c.15-6.91.52-18.18.84-19.54a.78.78,0,0,0,0-.84.81.81,0,0,0-1.12-.24c-.45.29-.87.57-1.32,20.58a.81.81,0,0,0,.79.83Z"/><path class="cls-51" d="M1209.25,749.44a1.63,1.63,0,0,0,1.63-1.54L1212,727a1.63,1.63,0,1,0-3.26-.16l-1.09,20.86a1.64,1.64,0,0,0,1.55,1.71Z"/><path class="cls-43" d="M1210.46,682v-63a15.11,15.11,0,0,0-14.94-15.12c-24.85-.27-76.12-.28-118.06,3.26A11.35,11.35,0,0,0,1067.07,618l-3.92,61a14.44,14.44,0,0,0,14.15,14.95L1196,696.14A14.16,14.16,0,0,0,1210.46,682Z"/><path class="cls-7" d="M1196.07,625.76c.1,5.36-.06,13.87-.19,19.37a4.86,4.86,0,0,1-5.42,4.71l-20.46-2.4a4.85,4.85,0,0,1-4.23-5.54l2.51-16.75a4.85,4.85,0,0,1,4.8-4.14h18.13A4.86,4.86,0,0,1,1196.07,625.76Z"/><path class="cls-44" d="M1142.61,657.5l-17.07,1.84a3.85,3.85,0,0,1-4.25-4.1l3.73-50.76c7.16-.23,14.21-.4,21-.51v49.71A3.84,3.84,0,0,1,1142.61,657.5Z"/><path class="cls-7" d="M1135.61,648.7a1.71,1.71,0,0,1-1.71,1.62h-.1a1.71,1.71,0,0,1-1.61-1.81l2.57-44.31,3.44-.08Z"/><path class="cls-52" d="M1186.61,641.75a.57.57,0,0,0,.57-.54l.88-14a.57.57,0,0,0-.53-.61.56.56,0,0,0-.61.54l-.88,13.95a.57.57,0,0,0,.53.61Z"/><path class="cls-53" d="M1184.78,641.75a.58.58,0,0,0,.58-.56l.46-14.22a.58.58,0,0,0-.55-.59.54.54,0,0,0-.59.56l-.47,14.22a.58.58,0,0,0,.56.59Z"/><path class="cls-54" d="M1182.32,641.75a.59.59,0,0,1-.55-.6c.23-4.78.66-13.89.67-14.2a.58.58,0,0,1,.57-.57.57.57,0,0,1,.57.57c0,.24-.56,11.91-.67,14.25a.57.57,0,0,1-.57.55Zm.11-14.8h0Z"/><path class="cls-55" d="M1178.53,642.32a1.14,1.14,0,0,0,1.14-1.1c.48-13.78.4-14.09.34-14.3a1.15,1.15,0,0,0-2.24.45c0,.83-.21,8.85-.39,13.77a1.15,1.15,0,0,0,1.11,1.18Z"/><path class="cls-56" d="M1176.05,641.75a.58.58,0,0,0,.57-.57v-14a.58.58,0,0,0-.57-.57.57.57,0,0,0-.57.57v14A.57.57,0,0,0,1176.05,641.75Z"/><path class="cls-57" d="M1174.05,641.75a.57.57,0,0,0,.57-.56c.11-4.85.36-12.77.59-13.72a.57.57,0,0,0-.81-.76c-.31.21-.61.4-.93,14.45a.59.59,0,0,0,.56.59Z"/><path class="cls-58" d="M1189.68,643a1.16,1.16,0,0,0,1.15-1.09l.76-14.65a1.14,1.14,0,0,0-1.08-1.2,1.17,1.17,0,0,0-1.21,1.08l-.76,14.65a1.15,1.15,0,0,0,1.08,1.21Z"/><path class="cls-59" d="M1409.31,549.48l-8.27,4.45c-9.92,6-18.79,9.23-26.78,10.43-24.94,3.74-41.19-12-53.3-21.54-16-12.6-28.43-6.47-28.43-6.47l17,32.54c25.47,24,51.57,18.68,68,10.9a76.18,76.18,0,0,0,17.05-10.9C1413.39,557.72,1409.31,549.48,1409.31,549.48Z"/><path class="cls-60" d="M1433.67,561.13a6.13,6.13,0,0,0-3.57-3.9l-16.78-6.75s-.25-2.15,3.54-3.61,2.92-5.72,2.92-5.72-5.19,2.37-12.79,6.12a17.76,17.76,0,0,0-8.08,8.8l4.32,5.68a76.76,76.76,0,0,0,31.36,2.47Z"/><path class="cls-61" d="M1288.87,798.31s-1.28,7.24-1.91,14.39a5,5,0,0,0,4.72,5.35c9.53.4,29.93,1.17,37.24.84a1.61,1.61,0,0,0,1.42-2.2h0a3.62,3.62,0,0,0-1.84-1.93l-33.69-15.48Z"/><path class="cls-62" d="M1287.82,794.06l1,8.66s5.9,2.74,9.93-.35l-2.45-9.64Z"/><path class="cls-63" d="M1286.17,625.74c-.44,2.34.8,122.68,12.61,174,.19.84,1.41,2.48,1,3.21-1,1.75-8.57,1.26-12.83,1.4-1.31,0-2-1.5-2.39-2.81C1281.17,789.63,1265,730,1262.89,673c-2.36-63.69,0-2.17,0-2.17l-1.05-40.35Z"/><path class="cls-64" d="M1250.12,802.09s-2,3.65-4,13.35a3,3,0,0,0,2.65,3.6c3.14.31,8,.71,11.87.68a3,3,0,0,0,3-3.34c-.43-3.54-1.77-9.35-5.91-13.88Z"/><path class="cls-65" d="M1248.33,791l2.4,13.08s2.37,1.77,7.06.49l-1.14-14.08Z"/><path class="cls-66" d="M1242.57,630.43c-9.66,60.84,1.38,155,5.34,172.55a2.7,2.7,0,0,0,2.12,2.08,17,17,0,0,0,7.55-.32,2.49,2.49,0,0,0,1.73-2.3c.53-14.17-.43-101.14,8.57-135.51a7.74,7.74,0,0,1,2.88-4.3l14.81-12.07.28-26Z"/><path class="cls-9" d="M1297.9,532.83c-25.45-.42-53.53,6.68-53.53,6.68-6.26,36.5-3.75,76.94-2.44,90.26.26,2.73-1.2,5.62,1.51,6.05,13.32,2.16,34.25,0,40.76-1.92,2.37-.69,2-3.23,2.47-5.65,4.37-20.94,16.86-67.14,16.86-67.14,6,7.78,14.59,18.68,27.22,21.58-6.43-7.46,5.91-23.1,4.59-28.71C1323.93,541.15,1305.75,533,1297.9,532.83Z"/><path class="cls-67" d="M1272.12,512.17l-8.1,23.42a.84.84,0,0,0,.39,1c2.21,1.22,10.16,4.75,19.74-1.32a4,4,0,0,0,1.83-2.84l2.63-20.27Z"/><path class="cls-68" d="M1289.74,490.48s8.9,16.74,7.76,23.5-12.16,6.28-21.79.79L1269,496.69Z"/><path class="cls-69" d="M1276.14,505.89a.69.69,0,0,0,.3-1,18,18,0,0,1-2.48-5.25s-1.6-1,4.07-2.38c3.09-.74,8.56-1.35,11-3.57,2.69-2.49-2.27-7.18-4.35-8.44-2.76-1.66-6.11-2.64-9.21-1.8a17,17,0,0,0-4.19,2c-2.27,1.35-4.63,2.77-6.07,5a16.31,16.31,0,0,0-1.88,4.75,24,24,0,0,0-1.12,7.26c.3,6.54,8,12.4,14.13,13.12a.69.69,0,0,0,.73-.92l-2.52-7.33a.69.69,0,0,1,.38-.86Z"/><path class="cls-70" d="M1277.15,506.93s-6.33-4.35-6.8-.69,5.71,5.3,8.76,3.94Z"/><path class="cls-8" d="M1293,486.37c-13-24.54-46.66-2.24-31,18.43C1273.64,497.05,1286.81,485.53,1293,486.37Z"/><path class="cls-9" d="M1272.69,496.77l23.33-.72a1.69,1.69,0,0,0,1.42-.87,15.8,15.8,0,0,1,9-7.5.47.47,0,0,0-.12-.91l-14.31-1h0c-7.13.55-13.44,4.84-19.46,10.46A.3.3,0,0,0,1272.69,496.77Z"/><path class="cls-8" d="M1247.25,576.66c14.24-16,12.8-28.3-3.28-37.17,0,0-26.65,18.11-31,41.07a63.07,63.07,0,0,1,23.17,6.21C1238.08,575.93,1247.25,576.66,1247.25,576.66Z"/><path class="cls-71" d="M1278.21,593.12s-29.93,16.91-40,2.47a11.32,11.32,0,0,1-2.08-8.82,63.07,63.07,0,0,0-23.17-6.21,31.75,31.75,0,0,0,3.44,21.73c17.69,32.35,65.79-1.79,65.79-1.79Z"/><path class="cls-72" d="M1274.61,614.51l16.33-57a1.66,1.66,0,0,1,1.41-1.19c3-.35,11.53-1.32,21.43-2.16,11.93-1,25.77-1.82,34-1.13a1.67,1.67,0,0,1,1.36,2.4c-4.7,9.52-24.06,48.25-33.75,60.93a1.7,1.7,0,0,1-1.35.67l-37.89-.36A1.67,1.67,0,0,1,1274.61,614.51Z"/><path class="cls-3" d="M1315.48,549.19l11.84-2a.84.84,0,0,1,.94,1.1l-1.17,3.55a.84.84,0,0,1-.69.58L1315,554a.85.85,0,0,1-.94-1l.73-3.1A.86.86,0,0,1,1315.48,549.19Z"/><path class="cls-3" d="M1306.61,559.21l1-5.08a1.15,1.15,0,0,1,1-.94l23.92-2.43a1.18,1.18,0,0,1,1.26,1.44l-1.52,6.33a1.19,1.19,0,0,1-1.09.9l-23.37,1.18A1.18,1.18,0,0,1,1306.61,559.21Z"/><path class="cls-73" d="M1278.56,600.74s-2.28-9.36-1.36-12.68,2.7-7.58,8.62-6.63a85.83,85.83,0,0,1,12.92,3.44s-.35,4.32-4.86,2.93l2.8,2.16s-.4,3.46-4.21,1.61l2.6,2.87a3,3,0,0,1-4.43,1C1287.84,593.63,1286.5,601.86,1278.56,600.74Z"/><path class="cls-8" d="M1269.08,565.13c-1.87.15-17.67.65-17.67.65l.64,15.91,8.18,4.61,8.85-4.61Z"/><polygon class="cls-8" points="1270.33 565.13 1251.44 565.78 1250.67 571.88 1260.5 574.44 1270.95 569.78 1270.33 565.13"/><path class="cls-7" d="M837.06,590.4l-2.1-1.27a.92.92,0,0,1,1-1.58h0l2,1.3h0a.9.9,0,0,1-1,1.53Z"/><path class="cls-7" d="M830.14,586l-2-1.38a1,1,0,0,1-.27-1.39,1,1,0,0,1,1.4-.27h0l2,1.4h0a1,1,0,0,1-1.12,1.61Z"/><path class="cls-7" d="M823.46,581.3l-2-1.49a1.08,1.08,0,0,1,1.31-1.72h0l1.9,1.51h0a1.06,1.06,0,0,1-1.29,1.67Z"/><path class="cls-7" d="M817,576.21l-1.87-1.59a1.14,1.14,0,0,1,1.48-1.74h0l1.83,1.6h0a1.12,1.12,0,0,1-1.47,1.7Z"/><path class="cls-7" d="M810.9,570.79l-1.79-1.68a1.2,1.2,0,1,1,1.65-1.75h0l0,0,1.74,1.68h0a1.2,1.2,0,0,1,0,1.68A1.18,1.18,0,0,1,810.9,570.79Z"/><path class="cls-7" d="M805,565.06l-1.7-1.77a1.26,1.26,0,1,1,1.81-1.74h0l0,0,1.65,1.77h0a1.24,1.24,0,0,1-1.8,1.7Z"/><path class="cls-7" d="M799.48,559l-1.61-1.87a1.31,1.31,0,1,1,2-1.71h0l0,0,1.55,1.85v0a1.29,1.29,0,0,1-2,1.68Z"/><path class="cls-7" d="M794.24,552.73l-1.51-2a1.37,1.37,0,0,1,2.17-1.68h0l0,0,1.46,1.93v0a1.35,1.35,0,0,1-2.15,1.64Z"/><path class="cls-7" d="M789.33,546.15l-1.4-2a1.43,1.43,0,0,1,2.35-1.62h0l0,0,1.35,2v0a1.41,1.41,0,0,1-2.33,1.59Z"/><path class="cls-7" d="M784.79,539.31l-1.29-2.1a1.48,1.48,0,1,1,2.52-1.55h0l0,0,1.23,2.07v0a1.46,1.46,0,0,1-2.5,1.52Z"/><path class="cls-7" d="M780.62,532.23l-1.17-2.17a1.54,1.54,0,0,1,2.71-1.47v0l1.12,2.14v0a1.52,1.52,0,0,1-2.69,1.43Z"/><path class="cls-7" d="M776.88,524.9l-1-2.24a1.58,1.58,0,0,1,2.87-1.32h0v0l1,2.2v0a1.57,1.57,0,0,1-2.85,1.3Z"/><path class="cls-7" d="M773.59,517.36l-.9-2.3a1.61,1.61,0,0,1,3-1.17h0v0l.86,2.26v0a1.6,1.6,0,1,1-3,1.15Z"/><path class="cls-7" d="M770.77,509.62l-.75-2.35a1.64,1.64,0,0,1,3.13-1v.05l.71,2.3v0a1.63,1.63,0,0,1-3.11,1Z"/><path class="cls-7" d="M768.46,501.71l-.59-2.4a1.67,1.67,0,0,1,3.25-.8v.05l.56,2.34v0a1.66,1.66,0,1,1-3.23.78Z"/><path class="cls-7" d="M766.69,493.66l-.42-2.45a1.71,1.71,0,0,1,3.37-.57h0v0l.38,2.37v0a1.7,1.7,0,0,1-3.35.56Z"/><path class="cls-7" d="M765.5,485.48l-.24-2.46a1.74,1.74,0,0,1,3.47-.34v.06l.21,2.39v0a1.73,1.73,0,0,1-3.45.31Z"/><path class="cls-7" d="M764.93,477.24l0-2.48a1.77,1.77,0,1,1,3.54-.07h0v0l0,2.4v0a1.76,1.76,0,0,1-3.52.06Z"/><path class="cls-7" d="M765,469l.15-2.48a1.8,1.8,0,0,1,3.6.21v.06l-.16,2.39v.05A1.79,1.79,0,0,1,765,469Z"/><path class="cls-7" d="M765.71,460.72l.35-2.46a1.84,1.84,0,0,1,3.64.52h0v0l-.35,2.36v.05a1.83,1.83,0,0,1-3.62-.53Z"/><path class="cls-7" d="M767.11,452.56l.55-2.43a1.87,1.87,0,1,1,3.64.83h0v0l-.55,2.33v0a1.86,1.86,0,0,1-3.62-.83Z"/><path class="cls-7" d="M769.16,444.53l.74-2.37a1.9,1.9,0,0,1,3.63,1.13v.06l-.74,2.28v.05a1.89,1.89,0,0,1-3.61-1.15Z"/><path class="cls-7" d="M771.84,436.7l.92-2.31a1.93,1.93,0,1,1,3.59,1.44h0l0,0-.9,2.22,0,0a1.92,1.92,0,0,1-3.57-1.44Z"/><path class="cls-7" d="M775.1,429.1l1.09-2.24a2,2,0,0,1,3.54,1.73h0l0,0-1.06,2.15,0,0a2,2,0,0,1-3.52-1.72Z"/><path class="cls-7" d="M778.92,421.76l1.24-2.14a2,2,0,0,1,3.42,2h0l0,0-1.21,2.07,0,0a2,2,0,1,1-3.41-2Z"/><path class="cls-7" d="M783.23,414.71l1.38-2a2,2,0,0,1,3.3,2.21h0l0,0-1.34,2,0,0a2,2,0,0,1-3.29-2.22Z"/><path class="cls-7" d="M788,408l1.51-2a2,2,0,1,1,3.16,2.42h0l0,0-1.47,1.91,0,0A2,2,0,0,1,788,408Z"/><path class="cls-7" d="M793.13,401.52l1.62-1.87a2,2,0,1,1,3,2.61h0l0,0-1.57,1.82,0,0a2,2,0,0,1-3-2.61Z"/><path class="cls-7" d="M798.63,395.38l1.72-1.78a2,2,0,1,1,2.89,2.78h0l0,0-1.67,1.73,0,0a2,2,0,0,1-2.89-2.78Z"/><path class="cls-7" d="M804.45,389.55l1.8-1.69A2,2,0,0,1,809,390.8h0l0,0-1.76,1.64,0,0a2,2,0,0,1-2.75-2.93Z"/><path class="cls-7" d="M810.54,384l1.88-1.61a2,2,0,0,1,2.63,3.08h0l0,0-1.84,1.56,0,0a2,2,0,1,1-2.62-3.07Z"/><path class="cls-7" d="M816.89,378.78l2-1.52a2,2,0,1,1,2.49,3.21h0l0,0L819.4,382l0,0a2,2,0,1,1-2.48-3.2Z"/><path class="cls-7" d="M823.46,373.83l2-1.43a2,2,0,0,1,2.36,3.33h0l-2,1.4h0a2,2,0,1,1-2.35-3.32Z"/><path class="cls-7" d="M830.23,369.17l2.07-1.34a2,2,0,0,1,2.22,3.43h0l0,0-2,1.31h0a2,2,0,1,1-2.22-3.43Z"/><path class="cls-7" d="M837.18,364.8l2.12-1.26a2.05,2.05,0,1,1,2.1,3.53h0l0,0-2.08,1.23h0a2.05,2.05,0,1,1-2.09-3.53Z"/><path class="cls-7" d="M844.3,360.7l2.17-1.17a2,2,0,0,1,2.79.82,2.07,2.07,0,0,1-.82,2.8h0l-2.12,1.15h0a2.06,2.06,0,0,1-2-3.62Z"/><path class="cls-7" d="M851.56,356.87l2.21-1.1a2.07,2.07,0,0,1,1.84,3.71h0l-2.17,1.07h0a2.07,2.07,0,1,1-1.84-3.7Z"/><path class="cls-7" d="M859,353.3l2.24-1a2.08,2.08,0,1,1,1.72,3.78h0l-2.2,1h0A2.08,2.08,0,1,1,859,353.3Z"/><path class="cls-7" d="M866.46,350l2.28-.94a2.08,2.08,0,0,1,1.59,3.85h0l-2.23.92h0a2.08,2.08,0,0,1-1.59-3.85Z"/><path class="cls-7" d="M874.08,347l2.31-.86a2.09,2.09,0,0,1,1.46,3.92h0l-2.26.84h0a2.09,2.09,0,1,1-1.46-3.91Z"/><path class="cls-7" d="M881.8,344.18l2.33-.78a2.1,2.1,0,0,1,1.33,4h0l-2.29.77h0a2.1,2.1,0,1,1-1.33-4Z"/><path class="cls-7" d="M889.61,341.68,892,341a2.1,2.1,0,0,1,1.19,4h0l-2.32.69h0a2.1,2.1,0,1,1-1.19-4Z"/><path class="cls-7" d="M897.51,339.46l2.38-.62a2.09,2.09,0,1,1,1,4.05h0l-2.34.61h0a2.09,2.09,0,0,1-1.06-4.05Z"/><path class="cls-7" d="M905.48,337.5l2.4-.53a2.08,2.08,0,0,1,.9,4.06h0l-2.37.53h0a2.08,2.08,0,0,1-.91-4.06Z"/><path class="cls-7" d="M913.51,335.82l2.42-.45a2.07,2.07,0,0,1,.76,4.07h0l-2.38.45h0a2.08,2.08,0,0,1-.77-4.08Z"/><path class="cls-7" d="M921.59,334.41,924,334a2.06,2.06,0,1,1,.62,4.07h0l-2.39.37h0a2.06,2.06,0,1,1-.63-4.08Z"/><path class="cls-7" d="M929.72,333.27l2.44-.28a2,2,0,1,1,.48,4.07h0l-2.41.29h0a2.05,2.05,0,0,1-.49-4.08Z"/><path class="cls-7" d="M937.88,332.41l2.45-.21a2,2,0,0,1,.34,4.07h0l-2.42.21h0a2,2,0,1,1-.35-4.07Z"/><path class="cls-7" d="M946.06,331.82l2.46-.12a2,2,0,1,1,.2,4.05h0l-2.42.13h0a2,2,0,1,1-.21-4.06Z"/><path class="cls-7" d="M954.26,331.51l2.46,0a2,2,0,0,1,.07,4h0l-2.42.05h0a2,2,0,0,1-.08-4Z"/><path class="cls-7" d="M962.46,331.47l2.46,0a2,2,0,0,1-.07,4h0l-2.42,0h0a2,2,0,1,1,.06-4Z"/><path class="cls-7" d="M970.66,331.71l2.46.13a2,2,0,0,1,1.89,2.09,2,2,0,0,1-2.1,1.9h0l-2.42-.12h0a2,2,0,0,1,.2-4Z"/><path class="cls-7" d="M978.85,332.23l2.45.21a2,2,0,1,1-.34,4h0l-2.41-.2h0a2,2,0,0,1,.33-4Z"/><path class="cls-7" d="M987,333l2.44.3a2,2,0,1,1-.47,3.92h0l-2.4-.28h0A2,2,0,0,1,987,333Z"/><path class="cls-7" d="M995.14,334.11l2.43.38a2,2,0,0,1-.61,3.89h0l-2.4-.37h0a2,2,0,0,1,.6-3.9Z"/><path class="cls-7" d="M1003.22,335.48l2.42.46a2,2,0,0,1-.74,3.84h0l-2.37-.45h0a2,2,0,1,1,.73-3.85Z"/><path class="cls-7" d="M1011.26,337.13l2.39.55a1.94,1.94,0,0,1-.87,3.79h0l-2.36-.54h0a1.95,1.95,0,1,1,.86-3.8Z"/><path class="cls-7" d="M1019.23,339.06l2.37.64a1.93,1.93,0,1,1-1,3.73h0l-2.34-.62h0a1.94,1.94,0,0,1,1-3.75Z"/><path class="cls-7" d="M1027.12,341.28l2.35.72a1.92,1.92,0,1,1-1.12,3.68h0L1026,345h0a1.93,1.93,0,1,1,1.12-3.69Z"/><path class="cls-7" d="M1034.93,343.76l2.33.8a1.91,1.91,0,0,1-1.24,3.62h0l-2.3-.78h0a1.92,1.92,0,1,1,1.23-3.63Z"/><path class="cls-7" d="M1042.65,346.5l2.3.86a1.91,1.91,0,0,1-1.34,3.57h0l-2.27-.84h0a1.91,1.91,0,0,1,1.34-3.57Z"/><path class="cls-7" d="M1050.29,349.46l2.27.93a1.9,1.9,0,0,1-1.44,3.51h0l-2.24-.91h0a1.9,1.9,0,1,1,1.43-3.51Z"/><path class="cls-7" d="M1057.83,352.64l2.25,1a1.88,1.88,0,0,1-1.52,3.44h0l-2.23-1h0a1.89,1.89,0,1,1,1.52-3.46Z"/><path class="cls-7" d="M1065.29,356l2.21,1a1.87,1.87,0,1,1-1.59,3.39h0l-2.2-1h0a1.88,1.88,0,0,1,1.59-3.4Z"/><path class="cls-7" d="M1072.65,359.54l2.2,1.09a1.87,1.87,0,0,1-1.67,3.34h0l-2.18-1.08h0a1.86,1.86,0,0,1,1.66-3.34Z"/><path class="cls-7" d="M1079.94,363.24l2.17,1.13a1.86,1.86,0,0,1-1.72,3.29h0l-2.16-1.12h0a1.85,1.85,0,1,1,1.71-3.29Z"/><path class="cls-7" d="M1087.15,367.07l2.15,1.18a1.84,1.84,0,1,1-1.77,3.23h0l-2.14-1.16h0a1.85,1.85,0,1,1,1.77-3.24Z"/><path class="cls-7" d="M1094.29,371l2.13,1.21a1.83,1.83,0,1,1-1.81,3.18h0l-2.12-1.19h0a1.83,1.83,0,1,1,1.8-3.19Z"/><path class="cls-7" d="M1101.36,375.09l2.12,1.24a1.82,1.82,0,1,1-1.85,3.14h0l-2.1-1.22h0a1.82,1.82,0,0,1,1.84-3.15Z"/><path class="cls-7" d="M1108.38,379.24l2.1,1.27a1.81,1.81,0,1,1-1.87,3.1h0l-2.09-1.25h0a1.82,1.82,0,1,1,1.86-3.12Z"/><path class="cls-7" d="M1115.35,383.47l2.08,1.28a1.8,1.8,0,0,1-1.88,3.07h0l-2.08-1.27h0a1.8,1.8,0,0,1,1.88-3.08Z"/><path class="cls-7" d="M1122.28,387.76l2.07,1.3a1.79,1.79,0,1,1-1.9,3l-2.07-1.28a1.79,1.79,0,0,1,1.89-3.05Z"/><path class="cls-7" d="M1129.17,392.1l2.07,1.31a1.78,1.78,0,1,1-1.91,3l-2.06-1.3a1.78,1.78,0,0,1,1.9-3Z"/><path class="cls-7" d="M1136,396.47l2.06,1.31a1.77,1.77,0,0,1-1.9,3l-2.06-1.31a1.78,1.78,0,0,1,1.9-3Z"/><path class="cls-7" d="M1142.89,400.86l2.06,1.31a1.76,1.76,0,0,1-1.9,3l-2.06-1.31a1.77,1.77,0,0,1,1.9-3Z"/><path class="cls-7" d="M1149.74,405.25l2,1.32a1.75,1.75,0,0,1-1.88,2.95l-2.06-1.32a1.75,1.75,0,1,1,1.88-2.95Z"/><path class="cls-7" d="M1156.58,409.64l2.06,1.31a1.74,1.74,0,0,1-1.87,2.94l-2.06-1.31a1.74,1.74,0,1,1,1.87-2.94Z"/><path class="cls-7" d="M1163.44,414l2,1.3a1.73,1.73,0,0,1-1.84,2.93l-2.07-1.3a1.74,1.74,0,0,1,1.85-2.94Z"/><path class="cls-7" d="M1170.31,418.34l2.06,1.3a1.71,1.71,0,1,1-1.81,2.91l-2.08-1.29a1.72,1.72,0,1,1,1.82-2.92Z"/><path class="cls-7" d="M1177.2,422.63l2.08,1.28h0a1.71,1.71,0,0,1-1.78,2.91l-2.09-1.27a1.71,1.71,0,0,1,1.78-2.92Z"/><path class="cls-7" d="M1184.13,426.86l2.08,1.26h0a1.69,1.69,0,0,1-1.74,2.9l-2.1-1.25a1.7,1.7,0,0,1-.59-2.33,1.71,1.71,0,0,1,2.33-.59h0Z"/><path class="cls-7" d="M1191.09,431l2.1,1.23h0a1.67,1.67,0,0,1-1.68,2.88l-2.12-1.23a1.67,1.67,0,1,1,1.68-2.89Z"/><path class="cls-7" d="M1198.11,435.09l2.12,1.2h0a1.65,1.65,0,0,1-1.62,2.87l-2.13-1.2a1.66,1.66,0,1,1,1.62-2.89h0Z"/><path class="cls-7" d="M1205.18,439.06l2.14,1.16h0a1.62,1.62,0,0,1-1.55,2.85l-2.15-1.16a1.63,1.63,0,0,1,1.55-2.87h0Z"/><path class="cls-7" d="M1212.32,442.9l2.15,1.12h0a1.6,1.6,0,0,1-1.48,2.84l-2.17-1.12a1.61,1.61,0,1,1,1.47-2.86h0Z"/><path class="cls-7" d="M1219.52,446.6l2.18,1.08h0a1.58,1.58,0,0,1-1.4,2.84l-2.2-1.08a1.59,1.59,0,1,1,1.4-2.85h0Z"/><path class="cls-7" d="M1226.81,450.14l2.2,1h0a1.56,1.56,0,0,1-1.32,2.83l-2.22-1a1.57,1.57,0,0,1,1.31-2.85h0Z"/><path class="cls-7" d="M1234.17,453.5l2.22,1h0a1.54,1.54,0,1,1-1.22,2.82l-2.25-1a1.54,1.54,0,1,1,1.22-2.83h0Z"/><path class="cls-7" d="M1241.61,456.67l2.25.91h0a1.51,1.51,0,1,1-1.13,2.81l-2.28-.9a1.52,1.52,0,0,1,1.13-2.83h0Z"/><path class="cls-7" d="M1249.14,459.63l2.27.84h0a1.49,1.49,0,0,1-1,2.8l-2.31-.84a1.5,1.5,0,1,1,1-2.82h0Z"/><path class="cls-7" d="M1256.75,462.35l2.3.77h0a1.48,1.48,0,0,1-.93,2.8l-2.33-.76a1.48,1.48,0,0,1,.92-2.82h0Z"/><path class="cls-7" d="M1264.45,464.82l2.32.69h0a1.45,1.45,0,0,1-.82,2.79l-2.36-.68a1.46,1.46,0,0,1,.82-2.81h0Z"/><path class="cls-7" d="M1272.22,467l2.35.6h0a1.43,1.43,0,1,1-.71,2.77l-2.38-.6a1.44,1.44,0,0,1,.7-2.79h0Z"/><path class="cls-7" d="M1280.07,468.93l2.37.51h0a1.41,1.41,0,0,1-.59,2.76l-2.4-.51a1.42,1.42,0,1,1,.58-2.77h0Z"/><path class="cls-7" d="M1288,470.53l2.39.42h0a1.39,1.39,0,1,1-.47,2.73l-2.42-.41a1.39,1.39,0,1,1,.47-2.75h0Z"/><path class="cls-7" d="M1296,471.82l2.41.31h0a1.37,1.37,0,1,1-.35,2.71l-2.44-.3a1.38,1.38,0,1,1,.35-2.73h0Z"/><path class="cls-7" d="M1304,472.74l2.41.21h0a1.35,1.35,0,0,1,1.22,1.46,1.34,1.34,0,0,1-1.45,1.22l-2.45-.2a1.35,1.35,0,0,1,.22-2.69h0Z"/><path class="cls-7" d="M1312,473.31l2.42.11h0a1.32,1.32,0,0,1-.1,2.64l-2.46-.09a1.33,1.33,0,0,1,.1-2.66h0Z"/><path class="cls-7" d="M1320.11,473.53h2.43a1.3,1.3,0,0,1,0,2.6l-2.46,0a1.31,1.31,0,0,1,0-2.62h0Z"/><path class="cls-7" d="M1328.18,473.4l2.42-.11h0a1.28,1.28,0,0,1,.12,2.56l-2.45.12a1.29,1.29,0,1,1-.13-2.57h0Z"/><path class="cls-7" d="M1336.24,472.92l2.42-.21h0a1.26,1.26,0,0,1,.22,2.51l-2.44.22a1.26,1.26,0,1,1-.23-2.51h0Z"/><path class="cls-7" d="M1344.28,472.11l2.4-.31h0a1.24,1.24,0,0,1,.32,2.45l-2.43.32a1.23,1.23,0,0,1-1.4-1.06,1.25,1.25,0,0,1,1.07-1.4h0Z"/><path class="cls-7" d="M1352.28,471l2.39-.4h0a1.22,1.22,0,0,1,.42,2.4l-2.42.42a1.22,1.22,0,1,1-.42-2.4h0Z"/><path class="cls-7" d="M1360.22,469.49l2.38-.5h0a1.19,1.19,0,0,1,.5,2.33l-2.4.53a1.2,1.2,0,0,1-.51-2.34h0Z"/><path class="cls-7" d="M1368.11,467.7l2.35-.6h0a1.17,1.17,0,0,1,.59,2.27l-2.38.62a1.18,1.18,0,0,1-.59-2.28h0Z"/><path class="cls-7" d="M1375.92,465.59l2.32-.7h0a1.15,1.15,0,1,1,.66,2.2l-2.35.71a1.14,1.14,0,0,1-1.44-.76,1.16,1.16,0,0,1,.77-1.45h0Z"/><path class="cls-7" d="M1383.64,463.17l2.29-.79h0a1.13,1.13,0,0,1,.73,2.13l-2.32.81a1.13,1.13,0,0,1-.74-2.14h0Z"/><path class="cls-7" d="M1391.25,460.45l2.27-.88h0a1.11,1.11,0,0,1,.81,2.06l-2.29.9a1.1,1.1,0,0,1-1.44-.63,1.11,1.11,0,0,1,.63-1.44h0Z"/><path class="cls-7" d="M1398.76,457.42l2.23-1h0a1.07,1.07,0,0,1,.86,2l-2.25,1a1.07,1.07,0,0,1-1.43-.55,1.09,1.09,0,0,1,.55-1.44h0Z"/><path class="cls-7" d="M1406.15,454.12l2.19-1.05h0a1.07,1.07,0,0,1,1.4.49,1,1,0,0,1-.49,1.39l-2.2,1.08a1.05,1.05,0,1,1-.93-1.89h0Z"/><path class="cls-7" d="M1413.4,450.52l2.15-1.13h0a1,1,0,1,1,.94,1.78l-2.16,1.17a1,1,0,1,1-1-1.8h0Z"/><path class="cls-7" d="M1420.51,446.65l2.11-1.22h0a1,1,0,0,1,1,1.68l-2.11,1.25a1,1,0,0,1-1.35-.35,1,1,0,0,1,.34-1.34h0Z"/><path class="cls-7" d="M1427.46,442.49l2-1.31h0a.94.94,0,1,1,1,1.58l-2.06,1.33a.95.95,0,0,1-1-1.59h0Z"/><path class="cls-7" d="M1434.24,438.05l2-1.38h0a.9.9,0,0,1,1,1.48l-2,1.42a.91.91,0,0,1-1.27-.22.92.92,0,0,1,.22-1.28h0Z"/><path class="cls-7" d="M1440.83,433.35l1.94-1.47h0a.87.87,0,0,1,1,1.38l-1.94,1.49a.89.89,0,0,1-1.24-.16.88.88,0,0,1,.17-1.23h0Z"/><path class="cls-7" d="M1447.23,428.38l1.87-1.54h0a.83.83,0,0,1,1.06,1.28l-1.88,1.57a.83.83,0,0,1-1.18-.1.84.84,0,0,1,.1-1.19h0Z"/><path class="cls-7" d="M1453.41,423.15l1.81-1.61h0a.8.8,0,1,1,1.07,1.18l-1.82,1.65a.81.81,0,0,1-1.14-.05.82.82,0,0,1,.06-1.15h0Z"/><path class="cls-7" d="M1459.37,417.67l1.74-1.69h0a.76.76,0,0,1,1.08,0,.78.78,0,0,1,0,1.08l-1.75,1.72a.77.77,0,0,1-1.09,0,.76.76,0,0,1,0-1.09h0Z"/><path class="cls-7" d="M1465.09,412l1.67-1.77h0a.73.73,0,0,1,1.06,1l-1.66,1.79a.74.74,0,0,1-1.09-1Z"/><path class="cls-7" d="M1470.57,406l1.59-1.84h0a.68.68,0,0,1,1-.07.69.69,0,0,1,.08,1l-1.59,1.86a.7.7,0,0,1-1.07-.91h0Z"/><path class="cls-7" d="M1475.78,399.78l1.51-1.91h0a.66.66,0,0,1,1,.81l-1.5,1.93a.68.68,0,0,1-.94.12.67.67,0,0,1-.12-.94h0Z"/><path class="cls-7" d="M1480.71,393.35l1.42-2h0a.62.62,0,0,1,1,.73l-1.41,2a.64.64,0,0,1-1-.74h0Z"/><path class="cls-7" d="M1485.35,386.71l1.33-2h0a.6.6,0,0,1,.82-.17.58.58,0,0,1,.17.81l-1.32,2.07a.61.61,0,0,1-.83.18.6.6,0,0,1-.18-.83h0Z"/><path class="cls-7" d="M1489.61,379.83l1.17-2.13h0a.56.56,0,0,1,.75-.22.55.55,0,0,1,.22.75l-1.16,2.16a.56.56,0,0,1-.77.23.57.57,0,0,1-.23-.76h0Z"/><path class="cls-7" d="M1493.26,372.62l.92-2.23v0a.52.52,0,0,1,1,.39l-.92,2.28a.53.53,0,1,1-1-.39h0Z"/><path class="cls-7" d="M1496,365l.56-2.35v0a.48.48,0,0,1,.94.22l-.56,2.4a.49.49,0,0,1-1-.22h0Z"/><path class="cls-7" d="M1497.31,357.13l.08-2.41v0a.45.45,0,0,1,.46-.43.44.44,0,0,1,.43.46l-.06,2.47a.44.44,0,0,1-.47.44.46.46,0,0,1-.45-.47h0Z"/><path class="cls-7" d="M1496.85,349.15l-.57-2.34v0a.41.41,0,0,1,.31-.5.4.4,0,0,1,.49.3l.61,2.4a.43.43,0,0,1-.31.52.43.43,0,0,1-.51-.31h0Z"/><path class="cls-7" d="M1494.23,341.59l-1.17-2.11v0a.37.37,0,0,1,.14-.51.39.39,0,0,1,.52.14l1.22,2.15a.38.38,0,0,1-.15.53.39.39,0,0,1-.53-.14h0Z"/><path class="cls-7" d="M1489.66,335l-1.74-1.66,0,0a.36.36,0,0,1,0-.49.35.35,0,0,1,.49,0l1.8,1.69a.36.36,0,1,1-.49.52h0Z"/><path class="cls-7" d="M1483.26,330.27l-2.23-.9,0,0a.3.3,0,0,1-.17-.4.31.31,0,0,1,.4-.17l2.3.92a.31.31,0,0,1,.18.41.32.32,0,0,1-.41.18h0Z"/><path class="cls-7" d="M1497.58,342.56l-.63-.84-.1-.14c-.17-.25-.53-.77-1.06-1.45a.42.42,0,0,1,.07-.6.44.44,0,0,1,.6.07l.59.78a.42.42,0,0,1,.75.31c0,.54-.08.83-.08.83Zm.1-4.28h-.12a.44.44,0,0,1-.41-.45c0-.91.08-1.85.09-2.78a.44.44,0,0,1,.43-.42.42.42,0,0,1,.42.43c0,.95,0,1.89-.08,2.81A.44.44,0,0,1,1497.68,338.28Zm-3.29-.11a.43.43,0,0,1-.4-.12,27,27,0,0,0-2-1.9.43.43,0,1,1,.55-.65,26.85,26.85,0,0,1,2,2,.42.42,0,0,1,0,.6A.44.44,0,0,1,1494.39,338.17Zm-4.24-3.62a.39.39,0,0,1-.33-.06,18.94,18.94,0,0,0-2.38-1.33.43.43,0,1,1,.36-.77,18.77,18.77,0,0,1,2.49,1.39.43.43,0,0,1,.12.59A.39.39,0,0,1,1490.15,334.55Zm7.6-1.86h-.09a.42.42,0,0,1-.43-.41c0-.93-.06-1.86-.12-2.78a.43.43,0,0,1,.86-.05c0,.93.09,1.87.11,2.81A.42.42,0,0,1,1497.75,332.69Zm-12.66-.42a.34.34,0,0,1-.2,0A12.41,12.41,0,0,0,1483,332c-.28,0-.55,0-.81-.09a.42.42,0,0,1-.38-.47.43.43,0,0,1,.48-.37l.78.08a14.17,14.17,0,0,1,2,.33.43.43,0,0,1,0,.83ZM1474.61,334l-.83.18a2.62,2.62,0,0,0-1.26-1.45.43.43,0,0,1,.45-.73,3.93,3.93,0,0,1,1.24,1.13.45.45,0,0,1,.34.37Zm5-2.7a.38.38,0,0,1-.21,0,11.17,11.17,0,0,1-2.66-1.15.43.43,0,1,1,.45-.73,10,10,0,0,0,2.45,1.06.42.42,0,0,1,.28.53A.4.4,0,0,1,1479.6,331.32Zm17.82-4.2h-.06a.42.42,0,0,1-.46-.38q-.15-1.39-.33-2.76a.42.42,0,1,1,.84-.11c.13.91.24,1.85.33,2.78A.42.42,0,0,1,1497.42,327.12Zm-23.5,4.08h-.06a.44.44,0,0,1-.47-.38c-.11-1.08-.19-2-.25-2.8a.43.43,0,1,1,.85-.06c.06.76.14,1.7.25,2.77A.43.43,0,0,1,1473.92,331.2Zm-3.57.37a.45.45,0,0,1-.28,0c-.76-.35-1.59-.74-2.52-1.26a.43.43,0,0,1-.17-.58.44.44,0,0,1,.59-.17c.9.51,1.71.9,2.46,1.24a.43.43,0,0,1-.08.8Zm4.65-3.21a.42.42,0,0,1-.44-.16,8,8,0,0,1-1.07-2.12c0-.15-.1-.27-.14-.36a.46.46,0,0,1,.12-.61.42.42,0,0,1,.58.11l.07.13a4.61,4.61,0,0,1,.17.44,7.17,7.17,0,0,0,1,1.91.42.42,0,0,1-.1.59A.3.3,0,0,1,1475,328.36Zm21.63-6.76h0a.43.43,0,0,1-.5-.34c-.16-.81-.33-1.62-.51-2.4l-.07-.31a.42.42,0,0,1,.31-.51h0a.42.42,0,0,1,.51.31l.07.31c.19.8.36,1.62.52,2.44A.44.44,0,0,1,1496.63,321.6Zm-31.13,7.22a.42.42,0,0,1-.34-.06c-.75-.54-1.49-1.14-2.21-1.77a.44.44,0,0,1,0-.61.43.43,0,0,1,.6,0c.7.62,1.42,1.19,2.14,1.71a.42.42,0,0,1,.1.6A.38.38,0,0,1,1465.5,328.82Zm-4.17-3.68a.43.43,0,0,1-.41-.12l-.41-.45a19.47,19.47,0,0,1-1.42-1.73.43.43,0,0,1,.7-.5,17.5,17.5,0,0,0,1.35,1.66c.13.15.27.29.4.43a.43.43,0,0,1,0,.61A.44.44,0,0,1,1461.33,325.14Zm34-9a.42.42,0,0,1-.5-.29c-.27-.89-.56-1.78-.87-2.62a.43.43,0,1,1,.8-.3c.31.87.61,1.76.89,2.68a.43.43,0,0,1-.29.53Zm-37.24,4.46a.42.42,0,0,1-.48-.22,18.51,18.51,0,0,1-1.11-2.63.43.43,0,0,1,.81-.27,18,18,0,0,0,1.06,2.51.43.43,0,0,1-.19.58Zm35.31-9.68a.44.44,0,0,1-.49-.25c-.38-.84-.79-1.67-1.22-2.46a.42.42,0,1,1,.74-.41c.45.81.87,1.66,1.26,2.52a.43.43,0,0,1-.21.57Zm-37.09,4.41h0a.42.42,0,0,1-.49-.35,20.25,20.25,0,0,1-.31-2.83.43.43,0,0,1,.85,0,20.24,20.24,0,0,0,.3,2.71A.43.43,0,0,1,1456.3,315.36Zm34.41-9.3a.45.45,0,0,1-.46-.18c-.51-.77-1.06-1.51-1.62-2.21a.43.43,0,1,1,.66-.54c.58.72,1.15,1.49,1.67,2.28a.42.42,0,0,1-.12.59A.38.38,0,0,1,1490.71,306.06Zm-34.63,3.74a.32.32,0,0,1-.14,0,.42.42,0,0,1-.38-.46,11.17,11.17,0,0,1,.61-2.9h0l.6-1.05a.43.43,0,0,1,.59-.15.42.42,0,0,1,.15.58l-.62,1.08a11.67,11.67,0,0,0-.47,2.52A.41.41,0,0,1,1456.08,309.8Zm31.11-8.06a.4.4,0,0,1-.4-.11,23.4,23.4,0,0,0-2-1.83.43.43,0,0,1-.06-.6.44.44,0,0,1,.6-.07,26.87,26.87,0,0,1,2.1,1.9.42.42,0,0,1,0,.6A.33.33,0,0,1,1487.19,301.74Zm-4.34-3.48a.46.46,0,0,1-.32-.06,24.33,24.33,0,0,0-2.39-1.34.43.43,0,0,1,.38-.77,27,27,0,0,1,2.47,1.39.44.44,0,0,1,.13.59A.47.47,0,0,1,1482.85,298.26Zm-24.23,5.35a.43.43,0,0,1-.31,0,.45.45,0,0,1-.16-.59l1.4-2.41a.41.41,0,0,1,.58-.16.44.44,0,0,1,.16.58l-1.4,2.42A.39.39,0,0,1,1458.62,303.61Zm19.25-7.82a.43.43,0,0,1-.25,0c-.84-.31-1.72-.58-2.62-.82a.43.43,0,0,1,.22-.83c.92.25,1.83.53,2.7.85a.43.43,0,0,1,.25.55A.43.43,0,0,1,1477.87,295.79Zm-16.47,3a.43.43,0,0,1-.31,0,.42.42,0,0,1-.15-.58l1.39-2.42a.44.44,0,0,1,.58-.16.43.43,0,0,1,.16.59l-1.39,2.41A.43.43,0,0,1,1461.4,298.78Zm11.09-4.42a.33.33,0,0,1-.17,0c-.88-.15-1.8-.27-2.73-.36a.42.42,0,1,1,.08-.84c.95.08,1.89.2,2.79.36a.43.43,0,0,1,.35.49A.4.4,0,0,1,1472.49,294.36Zm-5.55-.51h-.1c-.82,0-1.67,0-2.52,0a.39.39,0,0,1-.44,0,.41.41,0,0,1-.16-.58l.15-.26h.24c.93,0,1.85-.05,2.74,0a.43.43,0,0,1,.42.44A.41.41,0,0,1,1466.94,293.85Z"/><path class="cls-8" d="M1460.19,301.67s-2.29,12.14,6.45,14.79,18.2,3.14,20.25,6.92c0,0-.11-24.17-24.12-25.23Z"/><path class="cls-9" d="M1434.38,298.23s-6.28,10.39-4.19,13.93c2,3.37,25,18.35,27.27,19.81a.22.22,0,0,0,.3-.06h0a3.1,3.1,0,0,0,.52-2.77c-1.36-4.61-5.53-18.33-8.12-22.07C1447,302.55,1434.38,298.23,1434.38,298.23Z"/><path class="cls-7" d="M1450.19,325.28a.25.25,0,0,1-.22,0c-.12-.08-12.6-8.5-17.83-12.34a2.9,2.9,0,0,1-1.12-3,41.85,41.85,0,0,1,2.72-8.39.27.27,0,0,1,.37-.13.28.28,0,0,1,.14.37,42.89,42.89,0,0,0-2.69,8.27,2.35,2.35,0,0,0,.91,2.4c5.22,3.83,17.69,12.25,17.82,12.33a.28.28,0,0,1,.07.39A.25.25,0,0,1,1450.19,325.28Z"/><path class="cls-9" d="M1451.52,275.84s8.39-8.78,12.35-7.69c3.78,1,24.25,19.37,26.24,21.15a.23.23,0,0,1,0,.31h0a3.11,3.11,0,0,1-2.54,1.22c-4.8-.11-19.14-.55-23.43-2.07C1459,286.92,1451.52,275.84,1451.52,275.84Z"/><path class="cls-7" d="M1481.55,284.32a.3.3,0,0,1-.25-.06c-.11-.1-11.49-9.94-16.55-14a2.36,2.36,0,0,0-2.56-.25,42.76,42.76,0,0,0-7.28,4.75.28.28,0,1,1-.36-.43,43.41,43.41,0,0,1,7.38-4.81,2.91,2.91,0,0,1,3.17.31c5.07,4,16.46,13.89,16.57,14a.28.28,0,0,1,0,.4A.38.38,0,0,1,1481.55,284.32Z"/><path class="cls-74" d="M1402.11,273.33a62.66,62.66,0,0,0,13.45,14.22,178.27,178.27,0,0,0,37.68,22.56,2.35,2.35,0,0,0,2.4-.35,42,42,0,0,0,12.3-15.8,3.45,3.45,0,0,0-.46-3.57,180.72,180.72,0,0,0-31.18-29.93,62.84,62.84,0,0,0-17.12-9.23C1410,258.18,1404.74,267.74,1402.11,273.33Z"/><path class="cls-9" d="M1419.18,251.23a65.16,65.16,0,0,0-26.29-3.61,1.18,1.18,0,0,0-1.06,1.38,65.33,65.33,0,0,0,10.28,24.33C1404.74,267.74,1410,258.18,1419.18,251.23Z"/><ellipse class="cls-5" cx="1424.74" cy="273.12" rx="11.3" ry="10.53" transform="translate(341.89 1238.48) rotate(-52.57)"/><path class="cls-3" d="M1430.17,265.54c3.68,2.82,4.22,8.3,1.19,12.25s-8.45,4.87-12.13,2-4.21-8.3-1.19-12.25S1426.49,262.73,1430.17,265.54Z"/><path class="cls-75" d="M1419.63,276.75a.26.26,0,0,1-.29-.11,7,7,0,0,1,.26-8.31,7.45,7.45,0,0,1,1.68-1.59.28.28,0,1,1,.31.46,7.19,7.19,0,0,0-1.55,1.47,6.49,6.49,0,0,0-.25,7.65.28.28,0,0,1-.06.39Z"/><path class="cls-5" d="M1446.08,280.06a7.48,7.48,0,1,1-10.06,1.7A7.21,7.21,0,0,1,1446.08,280.06Z"/><path class="cls-3" d="M1445.13,281a6,6,0,1,1-8,1.35A5.75,5.75,0,0,1,1445.13,281Z"/><path class="cls-76" d="M1438.19,288.47a.27.27,0,0,1-.29-.1,4.76,4.76,0,0,1,.17-5.61,5.19,5.19,0,0,1,1.13-1.07.28.28,0,0,1,.39.07.28.28,0,0,1-.07.39,4.29,4.29,0,0,0-1,1,4.18,4.18,0,0,0-.17,4.94.28.28,0,0,1-.06.39A.21.21,0,0,1,1438.19,288.47Z"/><path class="cls-77" d="M1198.94,253.61,1263.67,203a1.46,1.46,0,0,0,.49-.72l4-13.11a1.44,1.44,0,0,1,.67-.84l2.61-1.48a1.41,1.41,0,0,1,.85-.18l8.11.79a1.43,1.43,0,0,1,1.29,1.21l.62,3.79a1.48,1.48,0,0,1-.24,1.06l-1.09,1.57a1.46,1.46,0,0,0-.08,1.52h0a1.43,1.43,0,0,1-.18,1.66,29.5,29.5,0,0,1-10.14,7.13,1.49,1.49,0,0,0-.49.34l-62,65.27C1207.53,271.58,1198.25,254.15,1198.94,253.61Z"/><path class="cls-78" d="M1273.18,198.09a.35.35,0,0,1-.29-.5c.08-.15,2-3.58,4.41-2.84,1.88.58,2.41.37,2.42.36a.33.33,0,0,1,.45.1.36.36,0,0,1-.11.48c-.15.1-.8.37-3-.3-1.89-.58-3.61,2.49-3.62,2.52A.35.35,0,0,1,1273.18,198.09Z"/><path class="cls-8" d="M1199.12,253.46,1169.87,278l9.06,20.93,32.86-30.41C1205.45,264.13,1201,259.18,1199.12,253.46Z"/><path class="cls-79" d="M1007.77,506a15.41,15.41,0,0,1,2.77-8.1c-2.76.91-3.79,3-4.44,8.44-.76,6.53-2.13,24.2-2.49,28.11a8.09,8.09,0,0,0,2.49,7.1c.41.42,1.06.22,1.81-.37a12.74,12.74,0,0,1-2.48-5.67C1004.94,532.9,1007.13,514.65,1007.77,506Z"/><path class="cls-80" d="M1025.82,500.89l-4.8-6.22a37.72,37.72,0,0,1-8.72,2.85,11.45,11.45,0,0,0-1.76.4,15.41,15.41,0,0,0-2.77,8.1c-.64,8.63-2.83,26.88-2.34,29.51a12.74,12.74,0,0,0,2.48,5.67c1.55-1.21,3.58-4.12,5.12-7.09,2.3-4.43,10.08-17.68,11.9-22.63A23.78,23.78,0,0,0,1025.82,500.89Z"/><path class="cls-81" d="M1091.08,444.4a15.44,15.44,0,0,1,4.08-7.52c-2.87.44-4.24,2.29-5.78,7.59-1.83,6.31-6.11,23.51-7.11,27.31a8.07,8.07,0,0,0,1.29,7.41c.33.48,1,.4,1.84-.06a12.9,12.9,0,0,1-1.51-6C1083.85,470.45,1089,452.81,1091.08,444.4Z"/><path class="cls-82" d="M1109.73,442.34l-3.7-6.93a37.94,37.94,0,0,1-9.07,1.36,11.08,11.08,0,0,0-1.8.11,15.44,15.44,0,0,0-4.08,7.52c-2.06,8.41-7.23,26.05-7.19,28.72a12.9,12.9,0,0,0,1.51,6c1.73-.95,4.21-3.48,6.22-6.15,3-4,12.87-15.77,15.48-20.35A23.66,23.66,0,0,0,1109.73,442.34Z"/><path class="cls-83" d="M1025.82,485.76c-.84,1.1-7,12.25-8.3,14.67a3.55,3.55,0,0,0-.42,1.3,5.47,5.47,0,0,0,2.61,5.41,3.68,3.68,0,0,0,5-.84l11.14-14.67Z"/><path class="cls-84" d="M1112.23,427.42c-1,.94-8.9,10.92-10.6,13.09a3.48,3.48,0,0,0-.64,1.22,5.45,5.45,0,0,0,1.69,5.76,3.67,3.67,0,0,0,5,0l12-13.82Z"/><path class="cls-85" d="M1127.24,374.85c0-3.09,17.76-2,33.32-3.79a8.75,8.75,0,0,1,7.29,14.79l-47.13,48.64a3.73,3.73,0,0,1-3.81,1,22.87,22.87,0,0,1-6.92-3.59,3.36,3.36,0,0,1-.62-4.56L1131,396.45l-19.76,5.7-75,92.78a3.9,3.9,0,0,1-5.1.85,31.93,31.93,0,0,1-7.09-5.78,3.62,3.62,0,0,1-.21-4.31c8.27-12.64,53.24-81.53,55.37-88.68,2.35-7.88,11-22.31,19-22.83S1127.24,374.85,1127.24,374.85Z"/><path class="cls-86" d="M1132.22,396a.5.5,0,0,1-.13-1l17.78-4.71a.5.5,0,0,1,.26,1L1132.35,396Z"/><path class="cls-87" d="M1113,400.85a.5.5,0,0,1-.34-.13.51.51,0,0,1,0-.71l4.45-4.81a.48.48,0,0,1,.7,0,.5.5,0,0,1,0,.71l-4.44,4.81A.49.49,0,0,1,1113,400.85Z"/><path class="cls-9" d="M1178.93,277.08s9.39,9.6,7.78,26.15a26.1,26.1,0,0,1-5.38,13.36l-47.43,61.2a6.69,6.69,0,0,1-4.48,2.54c-7,.86-25.53,2.53-38.65-1.82a1.75,1.75,0,0,1-1-2.53l43.12-75.87L1159,269.73S1171.49,265.45,1178.93,277.08Z"/><path class="cls-88" d="M1042.61,345.45a.53.53,0,0,1-.25-1c.18-.1,18.39-10,22.26-13.22a.53.53,0,1,1,.68.82c-4,3.27-21.68,12.92-22.44,13.33A.45.45,0,0,1,1042.61,345.45Z"/><path class="cls-89" d="M1181.21,248.55l-14.18,20a3.35,3.35,0,0,0,.3,4.23c1.91,2,5.13,4.91,8.6,5.56a2.68,2.68,0,0,0,2.77-1.16l7.54-11.57S1187.68,247.44,1181.21,248.55Z"/><path class="cls-90" d="M1185.21,231.82c.28.27,12.09,23.46,12.09,23.46l-13.38,6.46-14.46-20.32S1180.41,227.31,1185.21,231.82Z"/><path class="cls-91" d="M1175.55,243.86l6.67,11.13a1.78,1.78,0,0,0,.37.45c.79.74,3.51,2.89,5.61,0,1.79-2.49,3.47-4.76,5.27-5.7a2.14,2.14,0,0,1,2.88,1,79.57,79.57,0,0,1,4.57,10.84,2.12,2.12,0,0,1-1.24,2.6,59.27,59.27,0,0,1-12.81,3.74,2.11,2.11,0,0,1-2-.86c-2-2.8-7.81-10.63-9.78-12.59-1.82-1.82-5.2-1.13-6.72-.69a2.16,2.16,0,0,1-1.7-.23c-1.54-.92-4.23-3.24-1.77-7.15a2.13,2.13,0,0,0-.66-2.9c-1.72-1.14-3.59-3.26-1.81-6.7s5-3.8,7.21-3.53a2.2,2.2,0,0,0,2.32-1.3c.38-.91,1.39-.56,1.88-1.18s.31-.93.59-1.42c.88-1.56.82-2.81,2.85-3.7a8.91,8.91,0,0,1,5-.44,6,6,0,0,1,2.65,1,7.45,7.45,0,0,1,1.63,1.94c1,1.47,2,3.25,1.35,4.9-1,2.48-5.09,2.93-7.27,3.7a8.21,8.21,0,0,0-5.28,5.34A2.13,2.13,0,0,0,1175.55,243.86Z"/><path class="cls-92" d="M1177.58,258.47s-2.57-7.51-5.85-7.24-5.88,3.55-1.8,7.23C1175,263,1177.58,258.47,1177.58,258.47Z"/><path class="cls-43" d="M1228.66,365.4V315.5a12,12,0,0,0-11.83-12c-19.67-.21-60.26-.22-93.46,2.58a9,9,0,0,0-8.22,8.64l-3.1,48.24a11.43,11.43,0,0,0,11.2,11.84l94,1.78A11.21,11.21,0,0,0,1228.66,365.4Z"/><path class="cls-7" d="M1217.26,320.9c.09,4.24,0,11-.14,15.33a3.86,3.86,0,0,1-4.3,3.73l-16.19-1.9a3.83,3.83,0,0,1-3.35-4.39l2-13.26a3.85,3.85,0,0,1,3.81-3.27h14.35A3.84,3.84,0,0,1,1217.26,320.9Z"/><path class="cls-44" d="M1174.94,346l-13.5,1.46a3,3,0,0,1-3.37-3.25l3-40.18c5.67-.18,11.25-.31,16.64-.4V343A3,3,0,0,1,1174.94,346Z"/><path class="cls-7" d="M1169.41,339.06a1.36,1.36,0,0,1-1.36,1.28H1168a1.37,1.37,0,0,1-1.28-1.44l2-35.07,2.73-.06Z"/><path class="cls-93" d="M1209.77,333.55a.46.46,0,0,0,.46-.42l.7-11.05a.46.46,0,0,0-.43-.48.45.45,0,0,0-.48.43l-.7,11a.45.45,0,0,0,.42.48Z"/><path class="cls-94" d="M1208.33,333.55a.44.44,0,0,0,.45-.43l.37-11.26a.46.46,0,0,0-.44-.47.42.42,0,0,0-.46.44l-.37,11.26a.44.44,0,0,0,.44.46Z"/><path class="cls-95" d="M1206.38,333.55a.44.44,0,0,1-.43-.47c.17-3.78.52-11,.52-11.24a.46.46,0,0,1,.46-.45.45.45,0,0,1,.45.45c0,.19-.44,9.43-.53,11.28a.44.44,0,0,1-.45.43Zm.08-11.71h0Z"/><path class="cls-96" d="M1203.38,334a.91.91,0,0,0,.9-.88c.39-10.9.32-11.15.27-11.31a.9.9,0,0,0-1.77.36c0,.65-.17,7-.31,10.89a.91.91,0,0,0,.88.94Z"/><path class="cls-97" d="M1201.42,333.55a.45.45,0,0,0,.45-.45V322.05a.46.46,0,0,0-.91,0V333.1A.45.45,0,0,0,1201.42,333.55Z"/><path class="cls-98" d="M1199.83,333.55a.44.44,0,0,0,.45-.44c.09-3.84.29-10.11.47-10.86a.47.47,0,0,0,0-.47.45.45,0,0,0-.63-.13c-.25.16-.48.32-.73,11.44a.44.44,0,0,0,.44.46Z"/><path class="cls-99" d="M1212.21,334.56a.9.9,0,0,0,.9-.86l.61-11.6a.91.91,0,0,0-1.81-.09l-.61,11.6a.91.91,0,0,0,.86.95Z"/><path class="cls-8" d="M1190.51,232.6c-11.36-21.46-40.8-2-27.1,16.11C1173.6,241.93,1185.11,231.86,1190.51,232.6Z"/><path class="cls-8" d="M1167.84,302.2l-25.52-13.08s-18.22,18-22.89,42.38a67.12,67.12,0,0,1,24.65,6.6C1146.17,326.57,1167.84,302.2,1167.84,302.2Z"/><path class="cls-100" d="M1188.85,344.86s-31.82,18-42.56,2.62a12.06,12.06,0,0,1-2.21-9.38,67.12,67.12,0,0,0-24.65-6.6,33.7,33.7,0,0,0,3.67,23.1c18.81,34.41,70-1.9,70-1.9Z"/><path class="cls-101" d="M1190.36,354a3.65,3.65,0,0,1-4.49-2.85c-.64-3.22-1.42-8.17-.79-10.45,1-3.53,2.87-8.07,9.17-7.06a92.26,92.26,0,0,1,13.74,3.67s-.38,4.59-5.17,3.11l3,2.3s-.42,3.68-4.47,1.71l2.76,3.05a3.21,3.21,0,0,1-4.71,1.09C1196.92,347,1195.51,352.65,1190.36,354Z"/><path class="cls-102" d="M1029.83,349.51a1.71,1.71,0,0,0-1.2,2.44c2.3,4.63,9.07,14.86,23,11.64,17.87-4.13,72.4-45.35,84.74-56.61s28.69-25.28,36.69-23.33,3.17-2.67-2.37-6.39-7.6-9.18-3.47-8.16c0,0-10-3.23-25.14,5.15-14.85,8.18-87.35,36.15-111.62,28.05a1.55,1.55,0,0,0-2,1.21c-1,5.53-2.43,22.84,11.76,42.31A47.54,47.54,0,0,1,1029.83,349.51Z"/><path class="cls-9" d="M1172.77,241.69l20.4-.63a1.5,1.5,0,0,0,1.24-.76,13.83,13.83,0,0,1,7.84-6.56.41.41,0,0,0-.11-.8l-12.5-.85h-.05c-6.23.48-11.75,4.23-17,9.14A.27.27,0,0,0,1172.77,241.69Z"/><rect class="cls-103" x="461.22" y="755.98" width="293.6" height="27.18"/><rect class="cls-104" x="454.83" y="755.98" width="8.53" height="33.57"/><path class="cls-8" d="M751.63,602.2c0-6.41-6.78-11.94-14.13-11.94H460.59c-7.35,0-12.69,5.53-12.69,11.94V748.14c0,6.42,5.34,11.57,12.69,11.57H737.5c7.35,0,14.13-5.15,14.13-11.57Z"/><path class="cls-9" d="M742,608.09c0-5.87-5.16-10.9-12.09-10.9H468.72c-6.94,0-13.89,5-13.89,10.9v133.4c0,5.86,6.95,10.76,13.89,10.76H730c6.93,0,12.09-4.9,12.09-10.76Z"/><path class="cls-105" d="M847.81,708.53l-18.19-56.22a3.42,3.42,0,0,0-3.25-2.37H753.23V783.16h98.89Z"/><path class="cls-106" d="M852.67,762.8a6.19,6.19,0,0,0-3.53-1l-76.21,1.47L772.6,785l76.13,1.87c2.79,0,5.21-1.34,5.21-3.23V765.25A2.72,2.72,0,0,0,852.67,762.8Z"/><path class="cls-107" d="M833.61,704.64l-11-43.78a3.76,3.76,0,0,0-3.31-2.92h-43a4,4,0,0,0-3.41,4l1,35a3.46,3.46,0,0,0,2.87,3.32l53,8.58a3.42,3.42,0,0,0,3.06-1.06A3.35,3.35,0,0,0,833.61,704.64Z"/><path class="cls-108" d="M831.42,657.92l-.56.09a3.43,3.43,0,0,0-2.75,4.26l12,44.57a3.41,3.41,0,0,0,3.93,2.47l3.78-.71Z"/><rect class="cls-109" x="772.94" y="711.22" width="19.72" height="7.99" rx="3.23"/><path class="cls-110" d="M758.34,610.79a4.94,4.94,0,0,0-3.45,1.12,4.54,4.54,0,0,0-1.66,3v35h44.61S795.44,613.5,758.34,610.79Z"/><circle class="cls-111" cx="798.97" cy="785.57" r="34.65"/><circle class="cls-8" cx="798.97" cy="785.57" r="28.14" transform="translate(-80.95 91.87) rotate(-6.26)"/><path class="cls-112" d="M822.6,795.8a.46.46,0,0,1-.2,0,.52.52,0,0,1-.29-.69,24.39,24.39,0,0,0-34.37-30.78.53.53,0,0,1-.72-.2.54.54,0,0,1,.2-.73,25.46,25.46,0,0,1,37.87,22.22,25.24,25.24,0,0,1-2,9.9A.52.52,0,0,1,822.6,795.8Z"/><circle class="cls-113" cx="798.97" cy="785.57" r="12.91" transform="translate(-184.42 1322.61) rotate(-73.16)"/><circle class="cls-114" cx="585.33" cy="785.57" r="34.65"/><circle class="cls-8" cx="585.33" cy="785.57" r="28.14" transform="translate(-91.6 77.4) rotate(-7.02)"/><path class="cls-115" d="M609,795.8a.54.54,0,0,1-.21,0,.52.52,0,0,1-.28-.69,24.39,24.39,0,0,0-34.37-30.78.53.53,0,1,1-.52-.93,25.46,25.46,0,0,1,37.87,22.22,25.24,25.24,0,0,1-2,9.9A.54.54,0,0,1,609,795.8Z"/><circle class="cls-116" cx="585.33" cy="785.57" r="12.91" transform="translate(-313.7 1174.75) rotate(-76.72)"/><circle class="cls-117" cx="506.06" cy="785.57" r="34.65"/><circle class="cls-8" cx="506.06" cy="785.57" r="28.14" transform="translate(-82.7 59.91) rotate(-6.26)"/><path class="cls-118" d="M529.7,795.8a.54.54,0,0,1-.21,0,.52.52,0,0,1-.28-.69,24.39,24.39,0,0,0-34.37-30.78.53.53,0,0,1-.52-.93,25.46,25.46,0,0,1,37.87,22.22,25.24,25.24,0,0,1-2,9.9A.53.53,0,0,1,529.7,795.8Z"/><circle class="cls-119" cx="506.06" cy="785.57" r="12.91" transform="translate(-392.44 1042.27) rotate(-73.16)"/><rect class="cls-120" x="836.89" y="741.59" width="15.99" height="19.18" rx="3.42"/><path class="cls-10" d="M843.28,741.59v18.12H840.9c-1.89,0-4-1.81-4-3.69V744.76c0-1.88,2.12-3.17,4-3.17Z"/><path class="cls-7" d="M759.09,737.33a.53.53,0,0,1-.53-.53V657.94a.53.53,0,0,1,.53-.54.54.54,0,0,1,.53.54V736.8A.53.53,0,0,1,759.09,737.33Z"/><path class="cls-7" d="M789.66,646.46a.55.55,0,0,1-.51-.36c-10.29-29.84-31.53-27.68-31.74-27.65a.53.53,0,0,1-.13-1.06A24.81,24.81,0,0,1,769.77,620c11.34,5.33,17.35,17,20.39,25.78a.53.53,0,0,1-.33.68Z"/><path class="cls-7" d="M462,738.38c.75,2.62-.3,5.22-2.36,5.81s-4.34-1-5.1-3.65.3-5.22,2.36-5.82S461.21,735.77,462,738.38Z"/><circle class="cls-7" cx="445.51" cy="794" r="3.98"/><path class="cls-43" d="M207.57,719h-7.23a3.14,3.14,0,0,1-3.14-3l-4-70.06a3.13,3.13,0,0,1,2.89-3.3l47.17-3.6a3.12,3.12,0,0,1,3.34,2.68l10.45,73.32a3.14,3.14,0,0,1-3.08,3.58Z"/><path class="cls-8" d="M205.6,637.73l-.9-22.94a4,4,0,0,1,3.74-4.19l29.42-2.11,1.77,30.83-29.69,2.27A4,4,0,0,1,205.6,637.73Z"/><polygon class="cls-9" points="237.86 608.49 261.81 608.49 261.81 639.04 239.63 639.32 237.86 608.49"/><path class="cls-9" d="M214.55,610.88l1.19,30.27h4.49s-.15-31.31-1.12-32S214.47,608.71,214.55,610.88Z"/><path class="cls-121" d="M212.75,640.31l7.48,78.57h4.93s-5.23-79.5-6.87-79.56S212.56,638.27,212.75,640.31Z"/><path class="cls-121" d="M201.7,660.86l9.73-.59a1.34,1.34,0,0,1,1.42,1.23L214,675.92a1.35,1.35,0,0,1-1.34,1.45H202.53a1.35,1.35,0,0,1-1.34-1.27l-.76-13.82A1.36,1.36,0,0,1,201.7,660.86Z"/><path class="cls-121" d="M231.41,688.15h7.53a1.34,1.34,0,0,1,1.35,1.34v12.83a1.34,1.34,0,0,1-1.35,1.34h-6.42a1.34,1.34,0,0,1-1.34-1.23l-1.11-12.82A1.34,1.34,0,0,1,231.41,688.15Z"/><path class="cls-9" d="M225.28,616.15h7.53a1.24,1.24,0,0,1,1.35,1.11v10.59a1.25,1.25,0,0,1-1.35,1.11h-6.42a1.27,1.27,0,0,1-1.34-1l-1.11-10.6A1.22,1.22,0,0,1,225.28,616.15Z"/><rect class="cls-122" x="279.92" y="713.59" width="23" height="64.38"/><path class="cls-123" d="M336.48,769.63c-.37-3.15-7.39-74.1-9.57-76.62s-37.24-16-50.8-11.57a31.52,31.52,0,0,0-6.4,14.71l-10,22.17h22.69c6.05.15,27.29-5.18,28.23-5.36,5.55-1.08-.14,17.78,5.81,31.22s12.5,27.06,14.59,26.88S336.85,772.77,336.48,769.63Z"/><rect class="cls-7" x="310.13" y="659.08" width="41.31" height="2.82" rx="1.17"/><path class="cls-124" d="M350.27,659.31a.94.94,0,0,1,.94.94v.47a.94.94,0,0,1-.94.94h-39a.94.94,0,0,1-.94-.94v-.47a.94.94,0,0,1,.94-.94h39m0-.47h-39a1.41,1.41,0,0,0-1.4,1.41v.47a1.41,1.41,0,0,0,1.4,1.41h39a1.4,1.4,0,0,0,1.4-1.41v-.47a1.4,1.4,0,0,0-1.4-1.41Z"/><path class="cls-125" d="M335.62,652.17s10.94-.82,11.92,3.28-.37,6.51-2.41,6.18-2.92,1-3.28-1.86-4.38-2-4.38-2Z"/><path class="cls-8" d="M322,643.46l-.2-.16c-1.54-1.1-8.83-2.07-14.66-3.17l-2.6-.53a23.84,23.84,0,0,1-3.64-1c-4.52-1.81-8.45-8.32-8.59-13s-2.4-14.14-9.92-6.57c0,0-7.33,5.81-3.67,21.13,2.83,11.84,17.22,14.67,25.81,15.19,4.37,2.11,33.6,3.65,33,3.07s-.2-5.21,1.16-8.51C339.46,648.2,330.81,645.62,322,643.46Z"/><path class="cls-125" d="M282.79,607.26s0-5,0-7,.62-3.33.8-3.33,3.87-.07,4.72-.92,3.51-7.74,2.67-11.19-1.13-7.1.16-10,1.31-8.49.63-8.75-17.38-8.5-25.5,2.09,1.34,23.91.49,26.4a24.43,24.43,0,0,0-1,5.88l15.59,10.9Z"/><path class="cls-9" d="M264,602.08c-.72.58-13.8,6.46-16.53,21s2.55,58.22,5.09,59.2,38.74,2.66,40-2.29,5.58-36.33,3.22-46.52-8.36-23.33-10-24.9-8.15-2.15-9.16-2.15S264,602.08,264,602.08Z"/><path class="cls-8" d="M289,682.4l-.71-.15c0-.25,4.56-28,1.89-45.71s-11-26.65-11-26.74l.51-.56c.08.09,8.57,9.25,11.26,27.17S289.08,682.15,289,682.4Z"/><path class="cls-8" d="M264,602.08s-.36-5.49,3.27-4.12,13.38,2.67,14,5.88-.73,5.88-1.82,5.68S264.15,606.19,264,602.08Z"/><path class="cls-126" d="M308.67,770.83c.39,1.82-1.49,3.65,0,3.65h14.79s1.5-3-.89-4.64S308.67,770.83,308.67,770.83Z"/><path class="cls-126" d="M252.53,682.25a31.69,31.69,0,0,0-6.3,19.47c.22,11.65,7.39,17.25,13.44,17.25s27.16-5.84,28.09-6.05c5.53-1.21.3,17.78,6.57,31.08s13.15,26.74,15.24,26.52,5.9,1.57,5.45-1.57-9.18-73.9-11.43-76.36S266,677.55,252.53,682.25Z"/><path class="cls-125" d="M308.28,652.43s12.11-.92,13.2,3.63-.42,7.22-2.67,6.84-3.24,1.13-3.64-2-4.84-2.26-4.84-2.26Z"/><polygon class="cls-127" points="283.59 596.98 272.67 593.97 282.79 602.08 283.59 596.98"/><path class="cls-8" d="M295.46,566.13a2.1,2.1,0,0,1-.65.28c-3.77,1.11-18.89.87-22.14,3.91a16,16,0,0,0-2,2.23,7.36,7.36,0,0,0-1.6,3.52,91.64,91.64,0,0,0-.48,11.06c.24,3.84-1.55,8.93-5.62,6.84s-13.15-2.87-12.06-17.77,1-28.88,18.16-31.37,23.37,7.32,26.4,12.42S297.51,564.7,295.46,566.13Z"/><path class="cls-127" d="M286.32,590.83a4.8,4.8,0,0,1-1.93-.35c-1.82-.84-1.61-2.09-1.6-2.14a.37.37,0,0,1,.42-.31.4.4,0,0,1,.29.47s-.07.69,1.18,1.26c1.44.66,3.92,0,3.94,0a.35.35,0,0,1,.44.28.4.4,0,0,1-.26.48A10.38,10.38,0,0,1,286.32,590.83Z"/><path class="cls-127" d="M285.92,586.26a.35.35,0,0,1-.32-.21.42.42,0,0,1,.15-.53c.43-.24,1.52-1,1.51-1.8a2.7,2.7,0,0,0-.84-1.55,4.61,4.61,0,0,1-.83-1.25c-.42-1.12,1.24-3.29,1.76-3.93a.34.34,0,0,1,.51,0,.41.41,0,0,1,0,.55c-.93,1.15-1.81,2.67-1.64,3.13a3.69,3.69,0,0,0,.7,1,3.34,3.34,0,0,1,1,2.07c0,1.39-1.7,2.4-1.9,2.51A.33.33,0,0,1,285.92,586.26Z"/><path class="cls-128" d="M283.14,576.2c0,1-.4,1.76-.88,1.76s-.88-.79-.88-1.76.39-1.77.88-1.77S283.14,575.22,283.14,576.2Z"/><path class="cls-128" d="M290.09,576.15c0,.8-.33,1.44-.72,1.44s-.72-.64-.72-1.44.32-1.45.72-1.45S290.09,575.34,290.09,576.15Z"/><path class="cls-128" d="M280.41,573.61a4.93,4.93,0,0,1,.88-1.44c.23-.25.33-.31.64-.2a2.47,2.47,0,0,0,.75.17c.7,0,.7-1.14,0-1.17-.34,0-.63-.24-1-.26a1.25,1.25,0,0,0-.92.36,5.59,5.59,0,0,0-1.31,1.95c-.29.68.65,1.28.94.59Z"/><path class="cls-128" d="M289.31,572.46a.72.72,0,0,1,.89.25.53.53,0,0,0,.74.21.62.62,0,0,0,.2-.8,1.79,1.79,0,0,0-2.12-.8c-.66.25-.38,1.39.29,1.14Z"/><g class="cls-129"><path class="cls-7" d="M295.61,583.31c-1.21,2.48-21.23,2.58-23.15,1.88s-1.67-2.27-1.91-4.76c-.13-1.25-.12-4.58-.1-7.56a16,16,0,0,1,2-2.24c3.25-3,18.37-2.8,22.14-3.91h0S296.82,580.83,295.61,583.31Z"/></g><path class="cls-8" d="M255.91,631.63s3,23.44,11.18,35.72,12.83,15.77,12.83,15.77l8.4-.87,1.61-26.87Z"/><path class="cls-8" d="M297.86,642.76l-.16-.19c-1.32-1.36-8.31-3.64-13.84-5.78l-2.46-1a25.24,25.24,0,0,1-3.4-1.66c-4.12-2.6-6.8-9.72-6.08-14.37s.21-14.34-8.57-8.26c0,0-8.25,4.38-7.44,20.12.63,12.14,14.27,17.55,22.62,19.62,3.92,2.86,32.39,9.68,31.94,9s.74-5.16,2.69-8.17C314.13,650.59,306.1,646.48,297.86,642.76Z"/><circle class="cls-130" cx="243.24" cy="788.52" r="29.76" transform="translate(-273.29 145) rotate(-21.61)"/><circle class="cls-131" cx="237.33" cy="788.52" r="29.76" transform="translate(-273.71 142.82) rotate(-21.61)"/><circle class="cls-132" cx="237.33" cy="788.52" r="23.79" transform="translate(-578.34 901.5) rotate(-81.14)"/><rect class="cls-133" x="206.49" y="720.09" width="74.47" height="57.37"/><path class="cls-7" d="M237.33,790.42a3.75,3.75,0,1,1,3.75-3.75A3.76,3.76,0,0,1,237.33,790.42Z"/><path class="cls-124" d="M237.33,783.16a3.51,3.51,0,1,1-3.51,3.51,3.51,3.51,0,0,1,3.51-3.51m0-.47a4,4,0,1,0,4,4,4,4,0,0,0-4-4Z"/><path class="cls-134" d="M382.18,774.47c-2.39.6-53.63,6-53.63,6l-10.61-6a68.74,68.74,0,0,0,0-24.2c-2.39-13.14-14.35-48.7-12.25-51.39,1.19-1.54,15.06-7,27.51-10.63l2.59-.73c8.29-2.3,15.48-3.59,17.11-2.08,4.18,3.88,24.79,26,29.28,52S384.57,773.88,382.18,774.47Z"/><path class="cls-132" d="M361,756.94l-2.24-.18c0-.09.72-9.43-1.13-29.09-1.68-17.79-21.16-36.38-24.47-39.42l2.59-.73c3.53,3.22,22.35,21.22,24.11,39.94C361.77,747.35,361.07,756.56,361,756.94Z"/><rect class="cls-135" x="257.88" y="774.48" width="72.91" height="5.98" rx="2.34"/><path class="cls-43" d="M263.26,764.24c.55,14.63,0,19.92-8.75,24.61a62.56,62.56,0,0,1-6.72,3c-15.23,5.82-53.55,2.24-65.69-3.59s0-43.25,0-43.25,53.43-11.24,71.14-13.34c1.66-.2,3-.31,4-.33C268.41,731.08,262.59,746.54,263.26,764.24Z"/><path class="cls-136" d="M263.26,764.24c.55,14.63,0,19.92-8.75,24.61h0c-8.76,2.43-10.09-31.37-10.09-31.37.4-13.78,4.16-21.56,8.83-25.85,1.66-.2,3-.31,4-.33C268.41,731.08,262.59,746.54,263.26,764.24Z"/><path class="cls-137" d="M199.91,727.27s-13.29,2.91-16.21,12.55-4.26,12.1-1.57,13.66,44.6,4.71,51.32,4.49,11.43,2,13-3.59,3.36-8.29,8.07-13.89,7.86-7.55,6.74-8.23S220.38,723.68,199.91,727.27Z"/><path class="cls-7" d="M203.87,753.82s-1.12,3.92,0,5.16,11.65,2.24,11.88.67,1.9-3.36.67-4.71S204.16,752.56,203.87,753.82Z"/><circle class="cls-138" cx="364.53" cy="788.52" r="29.76" transform="translate(-487.78 956.51) rotate(-76.34)"/><circle class="cls-131" cx="358.61" cy="788.52" r="29.76" transform="translate(-492.29 950.77) rotate(-76.34)"/><circle class="cls-132" cx="358.61" cy="788.52" r="23.79" transform="translate(-492.07 951.92) rotate(-76.42)"/><ellipse class="cls-7" cx="337.04" cy="739.76" rx="4.65" ry="5.66" transform="translate(-192.35 122.85) rotate(-16.14)"/><path class="cls-139" d="M349.31,689.77c-1.29.43-14.34,2.07-22.53,2.63a27.79,27.79,0,0,1-6.36,0c-2.78-.87-5.13-10.22-3.23-13a13.22,13.22,0,0,1,9.1-6.88,20,20,0,0,1,6.29-.44c11.95.89,17-1,18.22,3.62S351.1,689.17,349.31,689.77Z"/><path class="cls-140" d="M326.78,692.4a27.79,27.79,0,0,1-6.36,0c-2.78-.87-5.13-10.22-3.23-13a13.22,13.22,0,0,1,9.1-6.88c-1.35,1-2.53,2.29-2.53,3.29C323.76,677.79,323.91,690.65,326.78,692.4Z"/><rect class="cls-7" x="332.28" y="678.11" width="8.67" height="5.98" rx="2.61" transform="translate(-90.62 52.87) rotate(-7.92)"/><rect class="cls-8" x="197.37" y="718.97" width="85.83" height="7.36" rx="2.34"/><polygon class="cls-141" points="362.59 786.67 354.63 759.02 340.73 764.73 358.61 786.67 362.59 786.67"/><path class="cls-142" d="M335.27,771.79s-6.88,0-4.48-6.88S345.43,744,359.47,744s24.5,6.4,27.19,19-3.93,16.42-8.07,14.42S361.86,760.56,351.7,763,337.7,772.29,335.27,771.79Z"/><polygon class="cls-143" points="326.77 662.13 330.79 672.07 337.21 672.58 338.81 662.13 326.77 662.13"/></g></g></svg>