<svg xmlns="http://www.w3.org/2000/svg" xmlns:xlink="http://www.w3.org/1999/xlink" viewBox="0 0 1518.13 663.32"><defs><style>.cls-1{isolation:isolate;}.cls-132,.cls-2{fill:#231f20;}.cls-2{opacity:0.12;}.cls-3,.cls-6{fill:#8193ca;}.cls-4{opacity:0.53;}.cls-5{fill:#98b1dc;}.cls-6{mix-blend-mode:overlay;}.cls-10,.cls-44,.cls-7{fill:#fff;}.cls-8{fill:#ea8439;}.cls-9{fill:#f89748;}.cls-10,.cls-11{opacity:0.8;}.cls-12{opacity:0.56;}.cls-13{fill:url(#linear-gradient);}.cls-14{fill:url(#linear-gradient-2);}.cls-15{fill:url(#linear-gradient-3);}.cls-16{fill:url(#linear-gradient-4);}.cls-17{fill:url(#linear-gradient-5);}.cls-18{fill:url(#linear-gradient-6);}.cls-19{fill:url(#linear-gradient-7);}.cls-20{fill:url(#linear-gradient-8);}.cls-21{fill:url(#linear-gradient-9);}.cls-22{fill:url(#linear-gradient-10);}.cls-23{fill:url(#linear-gradient-11);}.cls-24{fill:url(#linear-gradient-12);}.cls-25{fill:url(#linear-gradient-13);}.cls-26{fill:url(#linear-gradient-14);}.cls-27{fill:url(#linear-gradient-15);}.cls-28{fill:url(#linear-gradient-16);}.cls-29{fill:url(#linear-gradient-17);}.cls-30{fill:url(#linear-gradient-18);}.cls-31{fill:url(#linear-gradient-19);}.cls-32{fill:url(#linear-gradient-20);}.cls-33{fill:url(#linear-gradient-21);}.cls-34{fill:url(#linear-gradient-22);}.cls-35{fill:url(#linear-gradient-23);}.cls-36{fill:url(#linear-gradient-24);}.cls-37{fill:url(#linear-gradient-25);}.cls-38{fill:url(#linear-gradient-26);}.cls-39{fill:url(#linear-gradient-27);}.cls-40{fill:url(#linear-gradient-28);}.cls-41{fill:url(#linear-gradient-29);}.cls-42{fill:url(#linear-gradient-30);}.cls-43{fill:#f4c24a;}.cls-44{opacity:0.37;}.cls-45{fill:url(#linear-gradient-31);}.cls-46{fill:url(#linear-gradient-32);}.cls-47{fill:url(#linear-gradient-33);}.cls-48{fill:url(#linear-gradient-34);}.cls-49{fill:url(#linear-gradient-35);}.cls-50{fill:url(#linear-gradient-36);}.cls-51{fill:url(#linear-gradient-37);}.cls-52{fill:url(#linear-gradient-38);}.cls-53{fill:url(#linear-gradient-39);}.cls-54{fill:url(#linear-gradient-40);}.cls-55{fill:url(#linear-gradient-41);}.cls-56{fill:url(#linear-gradient-42);}.cls-57{fill:url(#linear-gradient-43);}.cls-58{fill:url(#linear-gradient-44);}.cls-59{fill:url(#linear-gradient-45);}.cls-60{fill:url(#linear-gradient-46);}.cls-61{fill:url(#linear-gradient-47);}.cls-62{fill:url(#linear-gradient-48);}.cls-63{fill:url(#linear-gradient-49);}.cls-64{fill:url(#linear-gradient-50);}.cls-65{fill:url(#linear-gradient-51);}.cls-66{fill:url(#linear-gradient-52);}.cls-67{fill:url(#linear-gradient-53);}.cls-68{fill:url(#linear-gradient-54);}.cls-69{fill:url(#linear-gradient-55);}.cls-70{fill:url(#linear-gradient-56);}.cls-71{fill:url(#linear-gradient-57);}.cls-72{fill:url(#linear-gradient-58);}.cls-73{fill:url(#linear-gradient-59);}.cls-74{fill:url(#linear-gradient-60);}.cls-75{fill:url(#linear-gradient-61);}.cls-76{fill:url(#linear-gradient-62);}.cls-77{fill:url(#linear-gradient-63);}.cls-78{fill:url(#linear-gradient-64);}.cls-79{fill:url(#linear-gradient-65);}.cls-80{fill:url(#linear-gradient-66);}.cls-81{fill:url(#linear-gradient-67);}.cls-82{fill:url(#linear-gradient-68);}.cls-83{fill:url(#linear-gradient-69);}.cls-84{fill:url(#linear-gradient-70);}.cls-85{fill:url(#linear-gradient-71);}.cls-86{fill:url(#linear-gradient-72);}.cls-87{fill:url(#linear-gradient-73);}.cls-88{fill:url(#linear-gradient-74);}.cls-89{fill:url(#linear-gradient-75);}.cls-90{fill:url(#linear-gradient-76);}.cls-91{fill:url(#linear-gradient-77);}.cls-92{fill:url(#linear-gradient-78);}.cls-93{fill:url(#linear-gradient-79);}.cls-94{fill:url(#linear-gradient-80);}.cls-95{fill:url(#linear-gradient-81);}.cls-96{fill:url(#linear-gradient-82);}.cls-97{fill:url(#linear-gradient-83);}.cls-98{fill:url(#linear-gradient-84);}.cls-99{fill:url(#linear-gradient-85);}.cls-100{fill:url(#linear-gradient-86);}.cls-101{fill:url(#linear-gradient-87);}.cls-102{fill:url(#linear-gradient-88);}.cls-103{fill:url(#linear-gradient-89);}.cls-104{fill:url(#linear-gradient-90);}.cls-105{fill:url(#linear-gradient-91);}.cls-106{fill:url(#linear-gradient-92);}.cls-107{fill:url(#linear-gradient-93);}.cls-108{fill:url(#linear-gradient-94);}.cls-109{fill:url(#linear-gradient-95);}.cls-110{fill:url(#linear-gradient-96);}.cls-111{fill:url(#linear-gradient-97);}.cls-112{fill:url(#linear-gradient-98);}.cls-113{fill:url(#linear-gradient-99);}.cls-114{fill:url(#linear-gradient-100);}.cls-115{fill:url(#linear-gradient-101);}.cls-116{fill:url(#linear-gradient-102);}.cls-117{fill:url(#linear-gradient-103);}.cls-118{fill:url(#linear-gradient-104);}.cls-119{fill:url(#linear-gradient-105);}.cls-120{fill:url(#linear-gradient-106);}.cls-121{fill:#e0ab33;}.cls-122{fill:url(#linear-gradient-107);}.cls-123{fill:#23375c;}.cls-124{fill:#010101;}.cls-125{fill:#f79e86;}.cls-126{fill:#2d4d9d;}.cls-127{fill:#c43f52;}.cls-128{fill:#481f54;}.cls-129{opacity:0.54;}.cls-130{fill:url(#linear-gradient-108);}.cls-131{fill:#1a3854;}.cls-133{fill:url(#linear-gradient-109);}.cls-134{fill:url(#linear-gradient-110);}.cls-135{fill:url(#linear-gradient-111);}.cls-136{fill:#e5b038;}.cls-137{fill:#ffd38e;}.cls-138{fill:url(#linear-gradient-112);}.cls-139{fill:url(#linear-gradient-113);}.cls-140{fill:url(#linear-gradient-114);}.cls-141{fill:url(#linear-gradient-115);}.cls-142{fill:url(#linear-gradient-116);}.cls-143{fill:url(#linear-gradient-117);}</style><linearGradient id="linear-gradient" x1="599.96" y1="200.16" x2="566.41" y2="236.82" gradientUnits="userSpaceOnUse"><stop offset="0" stop-color="#201b59"/><stop offset="1" stop-color="#2d2d84"/></linearGradient><linearGradient id="linear-gradient-2" x1="581.08" y1="209.77" x2="555.22" y2="236.33" xlink:href="#linear-gradient"/><linearGradient id="linear-gradient-3" x1="617.91" y1="217.15" x2="621.58" y2="251.43" gradientTransform="translate(15.65 525.8) rotate(-46.42)" xlink:href="#linear-gradient"/><linearGradient id="linear-gradient-4" x1="624.08" y1="236.59" x2="638.93" y2="285.36" xlink:href="#linear-gradient"/><linearGradient id="linear-gradient-5" x1="544.95" y1="223.55" x2="529.36" y2="254.9" gradientTransform="translate(726.01 800.16) rotate(-133.58)" xlink:href="#linear-gradient"/><linearGradient id="linear-gradient-6" x1="530.22" y1="232.51" x2="530.77" y2="276.14" xlink:href="#linear-gradient"/><linearGradient id="linear-gradient-7" x1="516.71" y1="291.42" x2="636.46" y2="291.42" xlink:href="#linear-gradient"/><linearGradient id="linear-gradient-8" x1="566.03" y1="329.1" x2="604.75" y2="201.21" gradientUnits="userSpaceOnUse"><stop offset="0" stop-color="#dbe2f3"/><stop offset="1" stop-color="#eaeff8"/></linearGradient><linearGradient id="linear-gradient-9" x1="580.72" y1="289.73" x2="527.52" y2="327.1" xlink:href="#linear-gradient"/><linearGradient id="linear-gradient-10" x1="391.96" y1="338.34" x2="379.3" y2="356.19" gradientTransform="matrix(-1, 0, 0, 1, 1738.93, 0)" gradientUnits="userSpaceOnUse"><stop offset="0" stop-color="#f5928f"/><stop offset="1" stop-color="#f8b2b1"/></linearGradient><linearGradient id="linear-gradient-11" x1="299.92" y1="517.26" x2="298.86" y2="586.53" gradientTransform="matrix(-1, 0, 0, 1, 1738.93, 0)" xlink:href="#linear-gradient"/><linearGradient id="linear-gradient-12" x1="1394.79" y1="629.17" x2="1524.04" y2="670.6" gradientUnits="userSpaceOnUse"><stop offset="0" stop-color="#4c57a6"/><stop offset="1" stop-color="#5560ab"/></linearGradient><linearGradient id="linear-gradient-13" x1="307.64" y1="605.22" x2="302.76" y2="647.79" xlink:href="#linear-gradient-10"/><linearGradient id="linear-gradient-14" x1="1354.85" y1="632.12" x2="1427.83" y2="663.67" xlink:href="#linear-gradient-12"/><linearGradient id="linear-gradient-15" x1="359.72" y1="518.18" x2="358.66" y2="587.45" gradientTransform="matrix(-1, 0, 0, 1, 1738.93, 0)" xlink:href="#linear-gradient"/><linearGradient id="linear-gradient-16" x1="347.38" y1="609.77" x2="342.5" y2="652.35" xlink:href="#linear-gradient-10"/><linearGradient id="linear-gradient-17" x1="1414.71" y1="546.51" x2="1242.07" y2="697.84" xlink:href="#linear-gradient-12"/><linearGradient id="linear-gradient-18" x1="381.8" y1="315.72" x2="412.14" y2="458.63" xlink:href="#linear-gradient-10"/><linearGradient id="linear-gradient-19" x1="345.22" y1="410.91" x2="359.84" y2="359.32" gradientTransform="matrix(-1, 0, 0, 1, 1738.93, 0)" gradientUnits="userSpaceOnUse"><stop offset="0" stop-color="#66cdf3"/><stop offset="1" stop-color="#4a5aa8"/></linearGradient><linearGradient id="linear-gradient-20" x1="908.35" y1="243.97" x2="815.67" y2="374.73" gradientTransform="matrix(-1, 0.1, 0.1, 1, 2205.07, -32.46)" xlink:href="#linear-gradient"/><linearGradient id="linear-gradient-21" x1="1388.92" y1="223.24" x2="1334.03" y2="350.59" xlink:href="#linear-gradient-12"/><linearGradient id="linear-gradient-22" x1="394.24" y1="308.34" x2="428.36" y2="468.99" xlink:href="#linear-gradient-10"/><linearGradient id="linear-gradient-23" x1="1502.86" y1="299.94" x2="1350.47" y2="487.5" xlink:href="#linear-gradient"/><linearGradient id="linear-gradient-24" x1="1581.29" y1="611.66" x2="1487.2" y2="520.88" gradientTransform="translate(-191.93 -64.14) rotate(-4.3)" xlink:href="#linear-gradient-10"/><linearGradient id="linear-gradient-25" x1="1596.19" y1="615.25" x2="1488.55" y2="511.4" gradientTransform="translate(-191.93 -64.14) rotate(-4.3)" xlink:href="#linear-gradient-10"/><linearGradient id="linear-gradient-26" x1="318.42" y1="332.56" x2="299.79" y2="413.05" xlink:href="#linear-gradient-10"/><linearGradient id="linear-gradient-27" x1="-980.53" y1="-1765.82" x2="-1013.58" y2="-1722.11" gradientTransform="matrix(-0.93, -0.36, -0.36, 0.93, -131.47, 1616.83)" xlink:href="#linear-gradient-10"/><linearGradient id="linear-gradient-28" x1="-1005.77" y1="-1755.32" x2="-966.3" y2="-1755.32" gradientTransform="matrix(-0.93, -0.36, -0.36, 0.93, -131.47, 1616.83)" xlink:href="#linear-gradient"/><linearGradient id="linear-gradient-29" x1="-1028.33" y1="-1731.4" x2="-1002.17" y2="-1758.23" gradientTransform="matrix(-0.93, -0.36, -0.36, 0.93, -131.47, 1616.83)" xlink:href="#linear-gradient-10"/><linearGradient id="linear-gradient-30" x1="1551.31" y1="340.11" x2="1482.04" y2="376.35" xlink:href="#linear-gradient"/><linearGradient id="linear-gradient-31" x1="-3388.23" y1="547.93" x2="-3440.37" y2="623.7" gradientTransform="matrix(-1, 0, 0, 1, -2360.02, 0)" xlink:href="#linear-gradient"/><linearGradient id="linear-gradient-32" x1="-3386.35" y1="549.22" x2="-3438.49" y2="624.99" gradientTransform="matrix(-1, 0, 0, 1, -2360.02, 0)" xlink:href="#linear-gradient"/><linearGradient id="linear-gradient-33" x1="-3384.09" y1="550.78" x2="-3436.23" y2="626.55" gradientTransform="matrix(-1, 0, 0, 1, -2360.02, 0)" xlink:href="#linear-gradient"/><linearGradient id="linear-gradient-34" x1="-3380.18" y1="553.47" x2="-3432.32" y2="629.24" gradientTransform="matrix(-1, 0, 0, 1, -2360.02, 0)" xlink:href="#linear-gradient"/><linearGradient id="linear-gradient-35" x1="-3377.6" y1="555.25" x2="-3429.74" y2="631.02" gradientTransform="matrix(-1, 0, 0, 1, -2360.02, 0)" xlink:href="#linear-gradient"/><linearGradient id="linear-gradient-36" x1="-3376" y1="556.35" x2="-3428.14" y2="632.12" gradientTransform="matrix(-1, 0, 0, 1, -2360.02, 0)" xlink:href="#linear-gradient"/><linearGradient id="linear-gradient-37" x1="-3390.91" y1="546.09" x2="-3443.05" y2="621.85" gradientTransform="matrix(-1, 0, 0, 1, -2360.02, 0)" xlink:href="#linear-gradient"/><linearGradient id="linear-gradient-38" x1="-3372.71" y1="449.51" x2="-3409.33" y2="502.72" gradientTransform="matrix(-1, 0, 0, 1, -2360.02, 0)" xlink:href="#linear-gradient"/><linearGradient id="linear-gradient-39" x1="-3371.39" y1="450.41" x2="-3408.01" y2="503.62" gradientTransform="matrix(-1, 0, 0, 1, -2360.02, 0)" xlink:href="#linear-gradient"/><linearGradient id="linear-gradient-40" x1="-3369.8" y1="451.51" x2="-3406.42" y2="504.72" gradientTransform="matrix(-1, 0, 0, 1, -2360.02, 0)" xlink:href="#linear-gradient"/><linearGradient id="linear-gradient-41" x1="-3367.06" y1="453.4" x2="-3403.67" y2="506.61" gradientTransform="matrix(-1, 0, 0, 1, -2360.02, 0)" xlink:href="#linear-gradient"/><linearGradient id="linear-gradient-42" x1="-3365.25" y1="454.65" x2="-3401.86" y2="507.86" gradientTransform="matrix(-1, 0, 0, 1, -2360.02, 0)" xlink:href="#linear-gradient"/><linearGradient id="linear-gradient-43" x1="-3364.12" y1="455.42" x2="-3400.74" y2="508.63" gradientTransform="matrix(-1, 0, 0, 1, -2360.02, 0)" xlink:href="#linear-gradient"/><linearGradient id="linear-gradient-44" x1="-3374.59" y1="448.21" x2="-3411.21" y2="501.42" gradientTransform="matrix(-1, 0, 0, 1, -2360.02, 0)" xlink:href="#linear-gradient"/><linearGradient id="linear-gradient-45" x1="1259.15" y1="274.55" x2="1055.84" y2="534.67" gradientTransform="matrix(1, 0, 0, 1, 0, 0)" xlink:href="#linear-gradient-10"/><linearGradient id="linear-gradient-46" x1="1282.52" y1="342.52" x2="1168.01" y2="489.03" gradientTransform="matrix(1, 0, 0, 1, 0, 0)" xlink:href="#linear-gradient-10"/><linearGradient id="linear-gradient-47" x1="1110.89" y1="674.54" x2="1179.1" y2="585.02" xlink:href="#linear-gradient"/><linearGradient id="linear-gradient-48" x1="4146.18" y1="623.65" x2="4157.14" y2="623.65" gradientTransform="translate(-3025.81)" xlink:href="#linear-gradient-10"/><linearGradient id="linear-gradient-49" x1="4095.86" y1="332.45" x2="4150.53" y2="570.06" gradientTransform="translate(-3025.81)" xlink:href="#linear-gradient"/><linearGradient id="linear-gradient-50" x1="1078.38" y1="649.77" x2="1146.59" y2="560.25" xlink:href="#linear-gradient"/><linearGradient id="linear-gradient-51" x1="4106.7" y1="623.08" x2="4116.16" y2="623.08" gradientTransform="translate(-3025.81)" xlink:href="#linear-gradient-10"/><linearGradient id="linear-gradient-52" x1="4077.68" y1="332.4" x2="4133.05" y2="573.07" gradientTransform="translate(-3025.81)" xlink:href="#linear-gradient"/><linearGradient id="linear-gradient-53" x1="4122.34" y1="350.81" x2="4146.97" y2="350.81" gradientTransform="translate(-3025.81)" xlink:href="#linear-gradient-10"/><linearGradient id="linear-gradient-54" x1="-2811.11" y1="349.35" x2="-2820.32" y2="318.99" gradientTransform="matrix(0.75, -0.67, 0.67, 0.75, 2991.48, -1797.39)" xlink:href="#linear-gradient-10"/><linearGradient id="linear-gradient-55" x1="-2821.57" y1="303.82" x2="-2815.1" y2="340.73" gradientTransform="matrix(0.75, -0.67, 0.67, 0.75, 2991.48, -1797.39)" xlink:href="#linear-gradient"/><linearGradient id="linear-gradient-56" x1="-2820.52" y1="349.21" x2="-2828.8" y2="321.89" gradientTransform="matrix(0.75, -0.67, 0.67, 0.75, 2991.48, -1797.39)" xlink:href="#linear-gradient-10"/><linearGradient id="linear-gradient-57" x1="6143.8" y1="423.75" x2="6213.64" y2="423.75" gradientTransform="translate(-5098.92)" xlink:href="#linear-gradient-10"/><linearGradient id="linear-gradient-58" x1="1219.4" y1="347.57" x2="1182.1" y2="376.34" xlink:href="#linear-gradient"/><linearGradient id="linear-gradient-59" x1="6208.45" y1="416.43" x2="6230.21" y2="416.43" gradientTransform="translate(-5098.92)" xlink:href="#linear-gradient-10"/><linearGradient id="linear-gradient-60" x1="1283.97" y1="52.5" x2="1276.87" y2="77.01" xlink:href="#linear-gradient"/><linearGradient id="linear-gradient-61" x1="1250.66" y1="97.09" x2="1254.27" y2="97.09" xlink:href="#linear-gradient-8"/><linearGradient id="linear-gradient-62" x1="1269.62" y1="110.42" x2="1272.19" y2="110.42" xlink:href="#linear-gradient-8"/><linearGradient id="linear-gradient-63" x1="1201.49" y1="-48.3" x2="1175.91" y2="-28.05" gradientTransform="matrix(1, 0, 0, 1, 0, 0)" xlink:href="#linear-gradient-10"/><linearGradient id="linear-gradient-64" x1="1105.4" y1="21.73" x2="1112.78" y2="21.73" gradientTransform="matrix(1, 0, 0, 1, 0, 0)" xlink:href="#linear-gradient-10"/><linearGradient id="linear-gradient-65" x1="869.65" y1="335.83" x2="1100.38" y2="259.63" xlink:href="#linear-gradient-12"/><linearGradient id="linear-gradient-66" x1="837.92" y1="343.3" x2="858.61" y2="343.3" xlink:href="#linear-gradient"/><linearGradient id="linear-gradient-67" x1="859.26" y1="304.35" x2="1089.98" y2="228.15" xlink:href="#linear-gradient-12"/><linearGradient id="linear-gradient-68" x1="916.45" y1="282.63" x2="942.28" y2="282.63" xlink:href="#linear-gradient"/><linearGradient id="linear-gradient-69" x1="849.61" y1="322.12" x2="868.36" y2="322.12" gradientTransform="matrix(1, 0, 0, 1, 0, 0)" xlink:href="#linear-gradient-10"/><linearGradient id="linear-gradient-70" x1="933.31" y1="263.31" x2="952.24" y2="263.31" gradientTransform="matrix(1, 0, 0, 1, 0, 0)" xlink:href="#linear-gradient-10"/><linearGradient id="linear-gradient-71" x1="1037.05" y1="136.14" x2="914.58" y2="254.6" xlink:href="#linear-gradient"/><linearGradient id="linear-gradient-72" x1="972.86" y1="219.23" x2="953.12" y2="236.3" xlink:href="#linear-gradient"/><linearGradient id="linear-gradient-73" x1="949.88" y1="220.34" x2="939.28" y2="235.52" xlink:href="#linear-gradient"/><linearGradient id="linear-gradient-74" x1="894.32" y1="153.74" x2="878.36" y2="173.54" gradientUnits="userSpaceOnUse"><stop offset="0" stop-color="#f7c115"/><stop offset="1" stop-color="#9c1f60"/></linearGradient><linearGradient id="linear-gradient-75" x1="1081.24" y1="-783.84" x2="1104.81" y2="-808.03" gradientTransform="translate(-259.75 563) rotate(15.65)" xlink:href="#linear-gradient-10"/><linearGradient id="linear-gradient-76" x1="37.94" y1="-118.33" x2="8.09" y2="-78.84" gradientTransform="translate(1074.02 170.3) rotate(-46.73)" xlink:href="#linear-gradient-10"/><linearGradient id="linear-gradient-77" x1="15.15" y1="-108.85" x2="47.81" y2="-108.85" gradientTransform="translate(1074.02 170.3) rotate(-46.73)" xlink:href="#linear-gradient"/><linearGradient id="linear-gradient-78" x1="-5.77" y1="-87.06" x2="18.17" y2="-111.63" gradientTransform="translate(1074.02 170.3) rotate(-46.73)" xlink:href="#linear-gradient-10"/><linearGradient id="linear-gradient-79" x1="1082.51" y1="144.98" x2="1053.53" y2="187.1" gradientTransform="matrix(-1, 0, 0, 1, 2119.71, 0)" xlink:href="#linear-gradient"/><linearGradient id="linear-gradient-80" x1="1083.55" y1="145.7" x2="1054.57" y2="187.82" gradientTransform="matrix(-1, 0, 0, 1, 2119.71, 0)" xlink:href="#linear-gradient"/><linearGradient id="linear-gradient-81" x1="1084.81" y1="146.57" x2="1055.83" y2="188.69" gradientTransform="matrix(-1, 0, 0, 1, 2119.71, 0)" xlink:href="#linear-gradient"/><linearGradient id="linear-gradient-82" x1="1086.99" y1="148.06" x2="1058" y2="190.18" gradientTransform="matrix(-1, 0, 0, 1, 2119.71, 0)" xlink:href="#linear-gradient"/><linearGradient id="linear-gradient-83" x1="1088.42" y1="149.05" x2="1059.44" y2="191.17" gradientTransform="matrix(-1, 0, 0, 1, 2119.71, 0)" xlink:href="#linear-gradient"/><linearGradient id="linear-gradient-84" x1="1089.31" y1="149.66" x2="1060.33" y2="191.78" gradientTransform="matrix(-1, 0, 0, 1, 2119.71, 0)" xlink:href="#linear-gradient"/><linearGradient id="linear-gradient-85" x1="1081.02" y1="143.96" x2="1052.03" y2="186.08" gradientTransform="matrix(-1, 0, 0, 1, 2119.71, 0)" xlink:href="#linear-gradient"/><linearGradient id="linear-gradient-86" x1="1058.37" y1="80.51" x2="1022.13" y2="125.8" gradientTransform="matrix(1, 0, 0, 1, 0, 0)" xlink:href="#linear-gradient-10"/><linearGradient id="linear-gradient-87" x1="1108.25" y1="91.32" x2="1088" y2="110.5" gradientTransform="matrix(1, 0, 0, 1, 0, 0)" xlink:href="#linear-gradient-10"/><linearGradient id="linear-gradient-88" x1="1148.31" y1="-39.57" x2="913.4" y2="135.11" xlink:href="#linear-gradient"/><linearGradient id="linear-gradient-89" x1="473.51" y1="392.63" x2="458.59" y2="484.28" xlink:href="#linear-gradient"/><linearGradient id="linear-gradient-90" x1="3809.43" y1="589.46" x2="3821.08" y2="634.98" gradientTransform="translate(-3520)" xlink:href="#linear-gradient"/><linearGradient id="linear-gradient-91" x1="585.78" y1="541.91" x2="684.68" y2="541.91" xlink:href="#linear-gradient"/><linearGradient id="linear-gradient-92" x1="4149.45" y1="598.4" x2="4259.36" y2="601.17" gradientTransform="translate(-3520)" xlink:href="#linear-gradient"/><linearGradient id="linear-gradient-93" x1="2701.03" y1="1293.59" x2="2832.91" y2="1222.45" gradientTransform="translate(-3520)" xlink:href="#linear-gradient"/><linearGradient id="linear-gradient-94" x1="2709.03" y1="1308.41" x2="2840.9" y2="1237.28" gradientTransform="translate(-3520)" xlink:href="#linear-gradient"/><linearGradient id="linear-gradient-95" x1="4170.12" y1="522.64" x2="4115.51" y2="550.82" gradientTransform="translate(-3520)" gradientUnits="userSpaceOnUse"><stop offset="0" stop-color="#e1483d"/><stop offset="1" stop-color="#e9625a"/></linearGradient><linearGradient id="linear-gradient-96" x1="4200.88" y1="419.08" x2="4076.93" y2="483.05" gradientTransform="translate(-3520)" xlink:href="#linear-gradient"/><linearGradient id="linear-gradient-97" x1="4116.87" y1="610.93" x2="4186.17" y2="610.93" gradientTransform="translate(-3520)" xlink:href="#linear-gradient"/><linearGradient id="linear-gradient-98" x1="619.5" y1="603.32" x2="657.65" y2="603.32" gradientTransform="matrix(1, 0, 0, 1, 0, 0)" xlink:href="#linear-gradient-10"/><linearGradient id="linear-gradient-99" x1="4164.24" y1="590.09" x2="4129.01" y2="647.8" gradientTransform="translate(13.19 -3539.5) rotate(73.16)" xlink:href="#linear-gradient"/><linearGradient id="linear-gradient-100" x1="3903.23" y1="610.93" x2="3972.54" y2="610.93" gradientTransform="translate(-3520)" xlink:href="#linear-gradient"/><linearGradient id="linear-gradient-101" x1="405.87" y1="603.32" x2="444.01" y2="603.32" gradientTransform="matrix(1, 0, 0, 1, 0, 0)" xlink:href="#linear-gradient-10"/><linearGradient id="linear-gradient-102" x1="3950.6" y1="590.09" x2="3915.38" y2="647.8" gradientTransform="translate(107.73 -3361.98) rotate(76.72)" xlink:href="#linear-gradient"/><linearGradient id="linear-gradient-103" x1="3823.97" y1="610.93" x2="3893.27" y2="610.93" gradientTransform="translate(-3520)" xlink:href="#linear-gradient"/><linearGradient id="linear-gradient-104" x1="326.6" y1="603.32" x2="364.74" y2="603.32" gradientTransform="matrix(1, 0, 0, 1, 0, 0)" xlink:href="#linear-gradient-10"/><linearGradient id="linear-gradient-105" x1="3871.33" y1="590.09" x2="3836.11" y2="647.8" gradientTransform="translate(-194.83 -3259.16) rotate(73.16)" xlink:href="#linear-gradient"/><linearGradient id="linear-gradient-106" x1="4192.59" y1="588.12" x2="4203.89" y2="561.12" gradientTransform="translate(-3520)" xlink:href="#linear-gradient-10"/><linearGradient id="linear-gradient-107" x1="112.47" y1="571.14" x2="135.48" y2="571.14" xlink:href="#linear-gradient"/><linearGradient id="linear-gradient-108" x1="46.04" y1="613.88" x2="105.56" y2="613.88" gradientTransform="translate(231.4 15.23) rotate(21.61)" xlink:href="#linear-gradient"/><linearGradient id="linear-gradient-109" x1="39.04" y1="574.14" x2="113.52" y2="574.14" xlink:href="#linear-gradient"/><linearGradient id="linear-gradient-110" x1="138" y1="557.98" x2="217.37" y2="557.98" xlink:href="#linear-gradient"/><linearGradient id="linear-gradient-111" x1="90.43" y1="602.83" x2="163.34" y2="602.83" xlink:href="#linear-gradient"/><linearGradient id="linear-gradient-112" x1="167.32" y1="613.88" x2="226.84" y2="613.88" gradientTransform="translate(747.05 277.4) rotate(76.34)" xlink:href="#linear-gradient"/><linearGradient id="linear-gradient-113" x1="149.05" y1="507.69" x2="183.9" y2="507.69" xlink:href="#linear-gradient"/><linearGradient id="linear-gradient-114" x1="149.05" y1="507.94" x2="159.33" y2="507.94" xlink:href="#linear-gradient"/><linearGradient id="linear-gradient-115" x1="173.29" y1="598.21" x2="195.15" y2="598.21" xlink:href="#linear-gradient"/><linearGradient id="linear-gradient-116" x1="162.83" y1="586.34" x2="219.84" y2="586.34" xlink:href="#linear-gradient"/><linearGradient id="linear-gradient-117" x1="159.33" y1="492.71" x2="171.37" y2="492.71" xlink:href="#linear-gradient"/></defs><title>Artboard 1</title><g class="cls-1"><g id="Layer_1" data-name="Layer 1"><ellipse class="cls-2" cx="489.07" cy="640.74" rx="211.01" ry="9.51"/><ellipse class="cls-2" cx="1126.17" cy="640.74" rx="375.87" ry="9.51"/><ellipse class="cls-2" cx="137.11" cy="643.91" rx="121.28" ry="10.21"/><path class="cls-3" d="M1436.28,158.8a9.56,9.56,0,0,0-9.46-9.4H1232c-5.23,0-10.36,4.46-10.36,9.69V625.93a10.27,10.27,0,0,0,10.16,9.46l203.69-.56a9.51,9.51,0,0,0,9.51-9.69Z"/><g class="cls-4"><polygon class="cls-5" points="1292.81 204.41 1237.31 204.34 1236.87 175.89 1292.42 175.89 1292.81 204.41"/><polygon class="cls-5" points="1355.01 204.4 1299.57 204.32 1299.19 175.89 1354.69 175.89 1355.01 204.4"/><polygon class="cls-5" points="1417.16 204.39 1361.77 204.31 1361.45 175.89 1416.89 175.89 1417.16 204.39"/><polygon class="cls-5" points="1293.5 255.47 1238.1 255.51 1237.66 227.25 1293.11 227.23 1293.5 255.47"/><polygon class="cls-5" points="1355.6 255.43 1300.25 255.47 1299.87 227.22 1355.27 227.2 1355.6 255.43"/><polygon class="cls-5" points="1417.63 255.4 1362.34 255.43 1362.03 227.2 1417.37 227.18 1417.63 255.4"/><polygon class="cls-5" points="1294.19 306.18 1238.88 306.24 1238.45 278.08 1293.81 278.03 1294.19 306.18"/><polygon class="cls-5" points="1356.18 306.12 1300.93 306.18 1300.55 278.03 1355.86 277.98 1356.18 306.12"/><polygon class="cls-5" points="1418.11 306.05 1362.91 306.11 1362.6 277.98 1417.85 277.93 1418.11 306.05"/><polygon class="cls-5" points="1294.88 356.72 1239.67 356.8 1239.23 328.73 1294.5 328.66 1294.88 356.72"/><polygon class="cls-5" points="1356.76 356.63 1301.61 356.71 1301.23 328.66 1356.44 328.59 1356.76 356.63"/><polygon class="cls-5" points="1418.58 356.54 1363.48 356.62 1363.17 328.58 1418.32 328.51 1418.58 356.54"/><polygon class="cls-5" points="1295.57 407.07 1240.45 407.18 1240.02 379.21 1295.18 379.12 1295.57 407.07"/><polygon class="cls-5" points="1357.34 406.96 1302.28 407.06 1301.91 379.11 1357.02 379.02 1357.34 406.96"/><polygon class="cls-5" points="1419.06 406.85 1364.05 406.95 1363.74 379.01 1418.79 378.92 1419.06 406.85"/><polygon class="cls-5" points="1296.25 457.26 1241.23 457.38 1240.8 429.51 1295.87 429.4 1296.25 457.26"/><polygon class="cls-5" points="1357.92 457.12 1302.95 457.25 1302.58 429.39 1357.6 429.27 1357.92 457.12"/><polygon class="cls-5" points="1419.53 456.98 1364.62 457.11 1364.3 429.26 1419.26 429.15 1419.53 456.98"/><polygon class="cls-5" points="1296.93 507.27 1242.01 507.42 1241.58 479.64 1296.55 479.51 1296.93 507.27"/><polygon class="cls-5" points="1358.49 507.11 1303.63 507.25 1303.25 479.49 1358.17 479.36 1358.49 507.11"/><polygon class="cls-5" points="1419.99 506.94 1365.18 507.09 1364.87 479.34 1419.73 479.21 1419.99 506.94"/><polygon class="cls-5" points="1297.61 557.11 1242.78 557.28 1242.35 529.6 1297.23 529.45 1297.61 557.11"/><polygon class="cls-5" points="1359.07 556.92 1304.29 557.09 1303.92 529.43 1358.75 529.27 1359.07 556.92"/><polygon class="cls-5" points="1420.46 556.74 1365.74 556.9 1365.43 529.25 1420.2 529.09 1420.46 556.74"/><polygon class="cls-5" points="1298.29 606.78 1243.55 606.97 1243.13 579.39 1297.91 579.21 1298.29 606.78"/><polygon class="cls-5" points="1359.64 606.57 1304.96 606.76 1304.59 579.19 1359.32 579.01 1359.64 606.57"/><polygon class="cls-5" points="1420.93 606.36 1366.3 606.54 1365.99 578.99 1420.67 578.81 1420.93 606.36"/></g><path class="cls-5" d="M1008.06,117.82a6.65,6.65,0,0,0-6.64-6.53H781.89c-3.67,0-7.56,3-7.56,6.67V630.29a11.12,11.12,0,0,0,11,10.3l221.93-.6a10.46,10.46,0,0,0,7.4-3.1,10.34,10.34,0,0,0,3-7.41Z"/><polygon class="cls-6" points="881.99 147.6 810.17 147.35 810.2 138.37 881.93 138.59 881.99 147.6"/><polygon class="cls-6" points="882.18 180.69 810.08 180.36 810.1 171.31 882.13 171.61 882.18 180.69"/><polygon class="cls-6" points="882.38 214.06 809.98 213.65 810 204.52 882.33 204.91 882.38 214.06"/><polygon class="cls-6" points="882.58 247.71 809.88 247.21 809.9 238 882.53 238.47 882.58 247.71"/><polygon class="cls-6" points="882.78 281.63 809.78 281.06 809.8 271.77 882.73 272.32 882.78 281.63"/><polygon class="cls-6" points="883.19 350.34 809.57 349.59 809.6 340.15 883.14 340.87 883.19 350.34"/><polygon class="cls-6" points="883.82 455.59 809.26 454.57 809.29 444.89 883.76 445.88 883.82 455.59"/><polygon class="cls-6" points="882.99 315.84 809.67 315.18 809.7 305.81 882.93 306.45 882.99 315.84"/><polygon class="cls-6" points="883.4 385.13 809.47 384.29 809.5 374.77 883.34 375.58 883.4 385.13"/><polygon class="cls-6" points="883.61 420.21 809.36 419.28 809.39 409.68 883.55 410.58 883.61 420.21"/><polygon class="cls-6" points="884.03 491.28 809.15 490.16 809.18 480.39 883.97 481.48 884.03 491.28"/><polygon class="cls-6" points="884.25 527.27 809.05 526.06 809.08 516.21 884.19 517.39 884.25 527.27"/><polygon class="cls-6" points="884.46 563.57 808.94 562.26 808.97 552.33 884.4 553.61 884.46 563.57"/><polygon class="cls-6" points="884.68 600.18 808.83 598.78 808.86 588.76 884.62 590.13 884.68 600.18"/><polygon class="cls-6" points="976.14 147.92 903.87 147.67 903.8 138.66 975.98 138.89 976.14 147.92"/><polygon class="cls-6" points="976.72 181.13 904.16 180.79 904.08 171.71 976.56 172.01 976.72 181.13"/><polygon class="cls-6" points="977.31 214.6 904.45 214.19 904.37 205.02 977.15 205.41 977.31 214.6"/><polygon class="cls-6" points="977.91 248.35 904.74 247.86 904.66 238.62 977.75 239.09 977.91 248.35"/><polygon class="cls-6" points="978.51 282.39 905.04 281.81 904.96 272.49 978.35 273.05 978.51 282.39"/><polygon class="cls-6" points="979.73 351.33 905.63 350.57 905.55 341.1 979.56 341.83 979.73 351.33"/><polygon class="cls-6" points="981.59 456.93 906.55 455.9 906.46 446.19 981.42 447.19 981.59 456.93"/><polygon class="cls-6" points="979.12 316.71 905.33 316.05 905.25 306.65 978.95 307.3 979.12 316.71"/><polygon class="cls-6" points="980.34 386.23 905.94 385.38 905.85 375.83 980.17 376.65 980.34 386.23"/><polygon class="cls-6" points="980.97 421.43 906.24 420.5 906.16 410.86 980.79 411.77 980.97 421.43"/><polygon class="cls-6" points="982.23 492.74 906.86 491.62 906.77 481.82 982.05 482.91 982.23 492.74"/><polygon class="cls-6" points="982.86 528.86 907.17 527.64 907.08 517.75 982.69 518.94 982.86 528.86"/><polygon class="cls-6" points="983.5 565.28 907.48 563.97 907.4 554 983.33 555.29 983.5 565.28"/><polygon class="cls-6" points="984.15 602.03 907.8 600.61 907.71 590.55 983.98 591.94 984.15 602.03"/><path class="cls-7" d="M814,110.9a1.86,1.86,0,0,1-1-3.42l1.86-1.21a1.87,1.87,0,0,1,2,3.14c-.62.39-1.23.79-1.84,1.19A1.89,1.89,0,0,1,814,110.9Zm7.83-5a1.87,1.87,0,0,1-1-3.46l1.89-1.15a1.87,1.87,0,0,1,1.94,3.19l-1.87,1.14A1.87,1.87,0,0,1,821.8,105.94Zm8-4.76a1.87,1.87,0,0,1-.94-3.48l1.92-1.11a1.87,1.87,0,0,1,1.86,3.24c-.64.36-1.27.73-1.9,1.1A1.89,1.89,0,0,1,829.75,101.18Zm8.07-4.56a1.87,1.87,0,0,1-.9-3.5l1.94-1.07a1.87,1.87,0,0,1,1.78,3.28l-1.92,1A1.87,1.87,0,0,1,837.82,96.62ZM846,92.24a1.85,1.85,0,0,1-1.65-1,1.87,1.87,0,0,1,.79-2.52l2-1A1.86,1.86,0,1,1,848.8,91l-1.95,1A1.88,1.88,0,0,1,846,92.24Zm8.27-4.19a1.87,1.87,0,0,1-.83-3.54l2-1a1.86,1.86,0,0,1,1.63,3.35l-2,1A1.83,1.83,0,0,1,854.26,88.05Zm8.35-4a1.87,1.87,0,0,1-.79-3.56l2-.93a1.86,1.86,0,0,1,1.56,3.38l-2,.93A1.82,1.82,0,0,1,862.61,84Zm8.44-3.85a1.86,1.86,0,0,1-.76-3.57l2-.89a1.87,1.87,0,0,1,1.49,3.42l-2,.88A1.81,1.81,0,0,1,871.05,80.19Zm8.51-3.67a1.87,1.87,0,0,1-.73-3.59l2-.85a1.87,1.87,0,0,1,1.43,3.45l-2,.84A1.86,1.86,0,0,1,879.56,76.52ZM888.14,73a1.87,1.87,0,0,1-.69-3.6l2-.81a1.87,1.87,0,0,1,1.37,3.47l-2,.81A1.82,1.82,0,0,1,888.14,73Zm307.35-2a1.92,1.92,0,0,1-1-.27c-.62-.38-1.24-.76-1.87-1.13a1.87,1.87,0,1,1,1.91-3.21l1.91,1.15a1.87,1.87,0,0,1-1,3.46ZM896.78,69.66a1.86,1.86,0,0,1-.66-3.61l2.07-.77a1.86,1.86,0,1,1,1.3,3.49l-2,.77A1.92,1.92,0,0,1,896.78,69.66Zm8.7-3.18a1.86,1.86,0,0,1-.62-3.62l2.09-.74a1.86,1.86,0,0,1,1.23,3.52l-2.07.73A2,2,0,0,1,905.48,66.48Zm282-.06a1.87,1.87,0,0,1-.89-.23l-1.93-1a1.86,1.86,0,1,1,1.75-3.29l2,1a1.87,1.87,0,0,1-.89,3.51Zm-273.24-3a1.86,1.86,0,0,1-.6-3.63l2.1-.7a1.87,1.87,0,0,1,1.16,3.55q-1,.33-2.07.69A2.06,2.06,0,0,1,914.23,63.46Zm265-1.28a1.81,1.81,0,0,1-.81-.19l-2-.94a1.86,1.86,0,0,1,1.59-3.37q1,.47,2,1a1.86,1.86,0,0,1-.81,3.54ZM923,60.61a1.87,1.87,0,0,1-.56-3.65l2.1-.66a1.87,1.87,0,0,1,1.11,3.57l-2.09.65A1.87,1.87,0,0,1,923,60.61Zm247.76-2.27a1.92,1.92,0,0,1-.74-.15l-2-.85a1.87,1.87,0,0,1,1.43-3.45l2,.87a1.87,1.87,0,0,1-.73,3.58Zm-238.92-.43a1.86,1.86,0,0,1-.52-3.65l2.12-.62a1.86,1.86,0,1,1,1,3.58l-2.1.61A1.59,1.59,0,0,1,931.86,57.91Zm8.9-2.54a1.86,1.86,0,0,1-.49-3.66l2.13-.58a1.86,1.86,0,1,1,1,3.6l-2.11.57A1.77,1.77,0,0,1,940.76,55.37Zm221.41-.49a1.92,1.92,0,0,1-.66-.12l-2-.77a1.86,1.86,0,0,1,1.28-3.5c.7.26,1.4.51,2.09.78a1.86,1.86,0,0,1-.66,3.61ZM949.71,53a1.86,1.86,0,0,1-.46-3.67l2.14-.54a1.87,1.87,0,0,1,.91,3.62l-2.13.54A2.4,2.4,0,0,1,949.71,53Zm203.72-1.2a1.74,1.74,0,0,1-.59-.1l-2.09-.68a1.86,1.86,0,0,1,1.14-3.55l2.12.69a1.87,1.87,0,0,1-.58,3.64Zm-194.73-1a1.87,1.87,0,0,1-.43-3.68l2.16-.51a1.87,1.87,0,0,1,.84,3.64l-2.14.5A2.1,2.1,0,0,1,958.7,50.78Zm185.86-1.73A1.91,1.91,0,0,1,1144,49l-2.11-.6a1.86,1.86,0,1,1,1-3.59l2.14.6a1.87,1.87,0,0,1-.51,3.66Zm-176.83-.32a1.87,1.87,0,0,1-.39-3.69l2.16-.46a1.86,1.86,0,1,1,.78,3.64l-2.15.47A2.58,2.58,0,0,1,967.73,48.73Zm9.08-1.88a1.87,1.87,0,0,1-.36-3.7l2.17-.42a1.86,1.86,0,1,1,.71,3.66l-2.16.42A2.2,2.2,0,0,1,976.81,46.85Zm158.78-.19a1.72,1.72,0,0,1-.44-.06l-2.14-.51a1.87,1.87,0,0,1,.86-3.63L1136,43a1.87,1.87,0,0,1-.45,3.68ZM985.92,45.14a1.87,1.87,0,0,1-.32-3.71l2.18-.38a1.87,1.87,0,1,1,.64,3.68l-2.17.38A1.84,1.84,0,0,1,985.92,45.14Zm140.63-.54a2.58,2.58,0,0,1-.39,0l-2.15-.45a1.86,1.86,0,1,1,.74-3.65l2.18.45a1.87,1.87,0,0,1-.38,3.69Zm-131.48-1a1.87,1.87,0,0,1-.29-3.71l2.2-.34a1.87,1.87,0,0,1,.56,3.69l-2.17.34Zm122.36-.75-.32,0-2.17-.37a1.87,1.87,0,0,1,.62-3.68l2.19.37a1.87,1.87,0,0,1-.32,3.71Zm-113.18-.61a1.86,1.86,0,0,1-.25-3.71l2.2-.3a1.87,1.87,0,1,1,.49,3.7l-2.18.3Zm104-.84-.27,0-2.18-.3a1.87,1.87,0,1,1,.5-3.7l2.21.31a1.86,1.86,0,0,1-.26,3.71Zm-94.81-.33a1.87,1.87,0,0,1-.21-3.72l2.21-.25a1.87,1.87,0,1,1,.41,3.71l-2.19.25Zm85.6-.83-.21,0-2.19-.23a1.87,1.87,0,0,1,.39-3.71l2.21.24a1.87,1.87,0,0,1-.2,3.72Zm-76.36-.15a1.86,1.86,0,0,1-.18-3.72l2.22-.21a1.87,1.87,0,0,1,.33,3.72l-2.19.2Zm67.12-.74h-.15l-2.2-.17a1.87,1.87,0,0,1,.28-3.72l2.22.17a1.87,1.87,0,0,1-.15,3.73Zm-57.86,0a1.87,1.87,0,0,1-.14-3.73l2.22-.15a1.86,1.86,0,1,1,.25,3.72l-2.19.15Zm9.27-.58a1.87,1.87,0,0,1-.09-3.73l2.22-.11a1.87,1.87,0,0,1,.17,3.73l-2.2.11Zm39.33,0h-.1l-2.2-.11a1.87,1.87,0,0,1,.18-3.73l2.22.11a1.87,1.87,0,0,1-.1,3.73Zm-30-.36a1.87,1.87,0,0,1,0-3.73l2.22-.05a1.86,1.86,0,1,1,.09,3.72l-2.2.06Zm20.77,0h-.06l-2.19-.05a1.87,1.87,0,1,1,.08-3.73l2.22.06a1.85,1.85,0,0,1,1.81,1.91A1.87,1.87,0,0,1,1071.29,38.35Zm-11.49-.14a1.87,1.87,0,0,1,0-3.73H1062a1.87,1.87,0,0,1,0,3.73h-2.21Z"/><circle class="cls-8" cx="1173.87" cy="45.37" r="34.47"/><path class="cls-9" d="M1208.27,43.53H1139.4s-2.74,19.13,28,71.53a7.53,7.53,0,0,0,12.89,0C1211.07,62.68,1208.27,43.53,1208.27,43.53Z"/><path class="cls-10" d="M1173.85,119.83V120h0a8.55,8.55,0,0,1-7.31-4.22c-18-30.62-24.57-50-26.93-60.83a34.72,34.72,0,0,1-1.18-7.44,17.14,17.14,0,0,1,0-3.76l.09-.55a35.47,35.47,0,0,1,70.78.35,18,18,0,0,1,0,1.9v.13a35.28,35.28,0,0,1-1.42,10c-2.44,10.82-9.07,30-26.74,60.11A8.35,8.35,0,0,1,1173.85,119.83Zm-33.51-74.75c0,.51,0,1.25.1,2.36h0a32.8,32.8,0,0,0,1.12,7v0c2.33,10.69,8.85,29.82,26.71,60.24a6.48,6.48,0,0,0,5.58,3.18v0a6.78,6.78,0,0,0,5.59-3.2C1197,84.79,1203.56,65.78,1206,55.1l0-.07a33.13,33.13,0,0,0,1.15-9.43l-.2-.14h0a14.34,14.34,0,0,1,.15-1.68l.1-.06a33.43,33.43,0,0,0-66.75.35l0,1Z"/><circle class="cls-8" cx="1173.98" cy="45.26" r="19.9" transform="translate(688.57 1115.15) rotate(-67.8)"/><g class="cls-11"><path class="cls-7" d="M1174,66.28a21,21,0,1,1,21-21A21,21,0,0,1,1174,66.28Zm0-39.81a18.79,18.79,0,1,0,18.79,18.79A18.81,18.81,0,0,0,1174,26.47Z"/></g><g class="cls-12"><path class="cls-7" d="M1155.1,24.54a.34.34,0,0,1-.25-.11.33.33,0,0,1,0-.47A30.85,30.85,0,0,1,1175,16.51a.34.34,0,1,1,0,.67,30.18,30.18,0,0,0-19.67,7.28A.32.32,0,0,1,1155.1,24.54Z"/></g><g class="cls-12"><path class="cls-7" d="M1144.44,47.73a.33.33,0,0,1-.33-.33,30.82,30.82,0,0,1,4.62-16.26.33.33,0,0,1,.46-.11.35.35,0,0,1,.11.46,30.14,30.14,0,0,0-4.52,15.91A.34.34,0,0,1,1144.44,47.73Z"/></g><rect class="cls-13" x="570.04" y="215.19" width="14.67" height="19.28"/><path class="cls-14" d="M588.66,220.25H565.32a4.44,4.44,0,0,1-4.44-4.45h0c-1.21-5.84,2.75-10.27,9.56-9.56h17.75A4.77,4.77,0,0,1,593,211V216A4.3,4.3,0,0,1,588.66,220.25Z"/><rect class="cls-15" x="616.75" y="239.26" width="8.2" height="10.79" transform="translate(370.14 -373.78) rotate(46.42)"/><path class="cls-16" d="M626.85,247.23l-9.26-9.73a1.81,1.81,0,0,1,.07-2.55h0a6,6,0,0,1,8.52.22l6,6.28A3.25,3.25,0,0,1,632,246l-1.35,1.29A2.72,2.72,0,0,1,626.85,247.23Z"/><rect class="cls-17" x="530.48" y="239.01" width="8.2" height="10.79" transform="translate(1080.13 25.59) rotate(133.58)"/><path class="cls-18" d="M528.58,247l9.26-9.74a1.79,1.79,0,0,0-.06-2.54h0a6,6,0,0,0-8.53.21l-6.13,6.45a3,3,0,0,0,.1,4.26l1.53,1.45A2.71,2.71,0,0,0,528.58,247Z"/><circle class="cls-19" cx="576.59" cy="291.42" r="59.87"/><circle class="cls-20" cx="577.22" cy="292.14" r="50.71"/><rect class="cls-3" x="576" y="242.49" width="1.83" height="14.54"/><rect class="cls-3" x="576" y="327.51" width="1.83" height="14.54"/><rect class="cls-3" x="612.29" y="290.71" width="14.54" height="1.83" transform="translate(-2.98 6.41) rotate(-0.59)"/><rect class="cls-3" x="527.64" y="291.55" width="14.54" height="1.83" transform="translate(-2.99 5.54) rotate(-0.59)"/><path class="cls-3" d="M576.83,292.93a.44.44,0,0,1-.36-.18l-22.2-28.33a.46.46,0,0,1,.72-.57l22.2,28.33a.47.47,0,0,1-.08.65A.5.5,0,0,1,576.83,292.93Z"/><path class="cls-3" d="M570.94,301.86a1.84,1.84,0,0,1-1.43-3l22.37-28.35a1.83,1.83,0,1,1,2.87,2.27l-22.37,28.35A1.81,1.81,0,0,1,570.94,301.86Z"/><path class="cls-3" d="M604.88,323.75a1.38,1.38,0,0,1-1-.44l-34.1-36.84a1.37,1.37,0,0,1,2-1.87l34.11,36.84a1.37,1.37,0,0,1-1,2.31Z"/><circle class="cls-21" cx="576.83" cy="292.47" r="4.95"/><path class="cls-7" d="M580.13,292.47a3.3,3.3,0,1,1-3.3-3.3A3.3,3.3,0,0,1,580.13,292.47Z"/><rect class="cls-3" x="576" y="243.79" width="1.83" height="7.83"/><rect class="cls-3" x="594.06" y="252.1" width="7.83" height="1.83" transform="translate(93.24 661.47) rotate(-61.92)"/><rect class="cls-3" x="611.62" y="269.08" width="7.83" height="1.83" transform="translate(-52.2 346.86) rotate(-30.25)"/><rect class="cls-3" x="615.27" y="309.87" width="1.83" height="7.83" transform="matrix(0.47, -0.88, 0.88, 0.47, 47.63, 707.34)"/><rect class="cls-3" x="598.16" y="327.39" width="1.83" height="7.83" transform="translate(-85.41 343.08) rotate(-29.93)"/><rect class="cls-3" x="551.38" y="330.79" width="7.83" height="1.83" transform="translate(-1.98 660.08) rotate(-61.36)"/><rect class="cls-3" x="533.06" y="311.93" width="7.83" height="1.83" transform="translate(-83.62 280.09) rotate(-27.2)"/><rect class="cls-3" x="534.85" y="270.73" width="1.83" height="7.83" transform="translate(71.32 657.75) rotate(-66.66)"/><rect class="cls-3" x="548.39" y="253.25" width="1.83" height="7.83" transform="translate(-41.76 393.24) rotate(-38.05)"/><path class="cls-3" d="M577.11,348a55.77,55.77,0,0,1-28.21-7.65.18.18,0,0,1-.07-.25.2.2,0,0,1,.26-.07,55.6,55.6,0,0,0,43.82,5.32.17.17,0,0,1,.22.12.18.18,0,0,1-.12.23A56,56,0,0,1,577.11,348Z"/><path class="cls-3" d="M629.68,310.56h-.06a.19.19,0,0,1-.12-.24,55.52,55.52,0,0,0-8.28-51.72.19.19,0,0,1,.29-.23,55.89,55.89,0,0,1,8.34,52.07A.19.19,0,0,1,629.68,310.56Z"/><path class="cls-3" d="M523.61,307.58a.18.18,0,0,1-.18-.13,55.85,55.85,0,0,1,38.43-69,.17.17,0,0,1,.22.12.18.18,0,0,1-.12.23,55.53,55.53,0,0,0-38.18,68.52.19.19,0,0,1-.12.23Z"/><path class="cls-3" d="M562.71,217.66a.17.17,0,0,1-.18-.15c-.73-4.13-.47-6.54.87-8.08,2.35-2.67,8-2.43,18.15-2l.59,0a.18.18,0,0,1,0,.36l-.58,0c-10.08-.43-15.63-.67-17.86,1.88-1.25,1.42-1.49,3.81-.79,7.77a.18.18,0,0,1-.15.21Z"/><path class="cls-22" d="M1350.91,348.37s1.78-3.22,1.58-5.8,1.43-6.39-.29-6.11-2.07.05-2.53,3.16S1345,354.17,1350.91,348.37Z"/><path class="cls-23" d="M1424.06,630.66a6.29,6.29,0,0,1,6.26-4.59l2.86.09c15.09,3.62,23,12.37,26.06,16.67a.27.27,0,0,1-.2.42c-4.76.39-15.83,1.15-25.19.89-6.25-.17-9.59-.42-11.26-1.1A52.2,52.2,0,0,1,1424.06,630.66Z"/><path class="cls-24" d="M1433.74,643.82c-6.24-.18-9.48-.91-11.15-1.6,0,.62,0,1.26,0,1.91a1.24,1.24,0,0,0,1.18,1.26l34.31-.22a1.58,1.58,0,0,0,1.26-2.29A255.48,255.48,0,0,1,1433.74,643.82Z"/><path class="cls-25" d="M1438,616.32l-2.4,11.54a1.89,1.89,0,0,1-1.61,1.55,16.14,16.14,0,0,1-3.71-.06,2.37,2.37,0,0,1-1.88-2.79l1.67-10.24Z"/><path class="cls-26" d="M1388.35,643.82c6.25-.18,9.48-.91,11.15-1.6,0,.62,0,1.26,0,1.91a1.24,1.24,0,0,1-1.17,1.26l-34.31-.22a1.58,1.58,0,0,1-1.26-2.29A255.26,255.26,0,0,0,1388.35,643.82Z"/><path class="cls-27" d="M1362.74,642.88a1.57,1.57,0,0,1,.14-.25c3-4.24,10.74-12.67,26-16.32l7.31-.23s3.26,5.66,3.32,16.14c-1.67.69-4.9,1.42-11.15,1.6A255.26,255.26,0,0,1,1362.74,642.88Z"/><path class="cls-28" d="M1397.54,615c-.08.55-1.08,8.83-1.47,12a1.59,1.59,0,0,1-1.34,1.43,16.77,16.77,0,0,1-5-.07,2.17,2.17,0,0,1-1.64-2.18v-13Z"/><path class="cls-29" d="M1403.41,463.76s-17.64,67-17.32,151.42a3.24,3.24,0,0,0,2.59,3.18,37.55,37.55,0,0,0,8.18.95,3,3,0,0,0,2.88-2.53c2.48-14.51,16.67-96.23,24.76-109.5,0,0,5.32,72.79,3.62,110.55a1.79,1.79,0,0,0,1.58,1.86,30,30,0,0,0,6.57,0,2.4,2.4,0,0,0,2.13-2c1.76-12.28,11.91-85.36,11.47-138,0-3-7.85-15.88-7.85-15.88Z"/><path class="cls-30" d="M1337.61,404.58c-4-21.54.41-52.8.41-52.8l8.53,8.42s-.93,25.74,4.58,37.73C1347.51,398.36,1343.23,398.58,1337.61,404.58Z"/><path class="cls-31" d="M1390.38,409.56h0a.42.42,0,0,0,.36-.47c0-.18-2.25-18.27-1-23.48a.41.41,0,0,0-.31-.49.41.41,0,0,0-.5.31c-1.24,5.35.94,23,1,23.77A.4.4,0,0,0,1390.38,409.56Z"/><path class="cls-32" d="M1336.13,298.63a3.41,3.41,0,0,1,3.84-3.58l25.17,3.21a1.93,1.93,0,0,1,1.69,1.94l-.94,64.69a1.06,1.06,0,0,1-1.08,1l-21.74-.51a3.43,3.43,0,0,1-3.33-3.23Z"/><path class="cls-9" d="M1343.41,301.65a1.93,1.93,0,0,1,2.22-2l16.59,2.47a1.94,1.94,0,0,1,1.65,1.95l-.85,55.09a1,1,0,0,1-1.13,1l-15.2-1.21a1,1,0,0,1-1-1Z"/><path class="cls-33" d="M1352.58,299.28c0,.2.26.39.64.43l5.52.6c.38,0,.7-.09.72-.29l0-.19c0-.19-.27-.39-.64-.43l-5.53-.59c-.37,0-.69.08-.71.28Z"/><path class="cls-34" d="M1333.84,337c1.91-.71,5.65-7.18,6.37-5.05s-.31,5.05,0,5.95,2.37,5.94,1.44,8.26a88.84,88.84,0,0,0-2.35,9.54c-.19.9-.29,2.09-1.22,2.09s-1.77-1.15-2-2.06C1336.05,355.35,1331.93,337.68,1333.84,337Z"/><path class="cls-35" d="M1457.16,407.46c10.17-22.43,11.25-38.18,0-44.88a18.06,18.06,0,0,0-2.05-.39c-3.59-.46-8.54-1.09-14.26-1.84h0a182.83,182.83,0,0,0-24.65-3.39c-11.92-.75-24.74.06-29.91,5.9A84.73,84.73,0,0,1,1376,380.43c-9.57,12.58-14.28,26.59-19.25,23.85-1.36-.74-4.25-4.68-5.29-6.95-3.63.43-9,.47-14.58,6.47,4.16,22.6,17.92,31.94,51.66,4.19,6.41,18.12,14.76,43.6,12.46,60.21a2.59,2.59,0,0,0,2.17,2.94c7.68,1.15,30.6,4,42.49-.78a1.81,1.81,0,0,0,1.14-1.7,201.19,201.19,0,0,1,9.5-58C1456.65,409.63,1456.93,408.55,1457.16,407.46Z"/><path class="cls-36" d="M1364.22,369.79a5.48,5.48,0,0,1,6.21-2.26c5.53,17.41,28.61,30.13,51.74,35.46-1,6.4-13.64,7.06-20.22,16C1368.77,400.28,1364.22,369.79,1364.22,369.79Z"/><path class="cls-37" d="M1365,370.6c-.23.95,5.38,1.38,5.91-2.35-.06-1.83-.47-9.23-1.67-10.64-6.41-7.49-18.42-16.57-18.42-16.57a2.68,2.68,0,0,0-.06,3.75l5.9,5.28c-1,2.15-2.26,4-2.72,6.55a7.67,7.67,0,0,0,1.18,5.58,66.69,66.69,0,0,0,3.94,5.47A7.57,7.57,0,0,0,1365,370.6Z"/><path class="cls-38" d="M1434.59,338.82l2.29,23.43s-13.18,4-22.77-2.79l6.74-21.3Z"/><path class="cls-39" d="M1412.21,318.86c-.15.4-.81,29.2-.81,29.2l16.45,0,4.68-27.2S1414.84,312.05,1412.21,318.86Z"/><path class="cls-40" d="M1426.89,324.29a2.35,2.35,0,0,1,.74,1.95l-1.32,14.3a2.23,2.23,0,0,1-.15.63c-.44,1.12-2.12,4.57-5.62,2.65-3-1.63-5.75-3.09-8-3.16a2.37,2.37,0,0,0-2.42,2.33,89.21,89.21,0,0,0,.64,13,2.35,2.35,0,0,0,2.49,2,65.62,65.62,0,0,0,14.58-2.42,2.35,2.35,0,0,0,1.6-1.82c.7-3.78,2.69-14.35,3.72-17.25.95-2.69,4.64-3.62,6.37-3.92a2.35,2.35,0,0,0,1.59-1c1.09-1.66,2.67-5.26-1.66-8a2.37,2.37,0,0,1-.74-3.21c1.18-2,2-5-1.4-7.55s-6.83-1.39-8.89-.07a2.45,2.45,0,0,1-2.94-.17,1.56,1.56,0,0,0-1.51-.34,2.29,2.29,0,0,1-2.84-1.62,6.05,6.05,0,0,0-6.05-4.79c-7.29-.4-9.85,7.19-9,12.16s8.73,5,13,3.53C1422.23,320.44,1425.42,322.91,1426.89,324.29Z"/><path class="cls-41" d="M1431.86,341.55s-.3-8.49,3.12-9.79,7.56.73,5.26,6.35C1437.38,345.11,1431.86,341.55,1431.86,341.55Z"/><path class="cls-42" d="M1445,379.88c-12.45,17.22-16.51,21-37.31,18.76l-10.31,18.91c16.75,9.7,44.16,1.47,59.8-10.09C1467.72,390.65,1472,351.78,1445,379.88Z"/><path class="cls-43" d="M1071.39,630.28V540.52A21.49,21.49,0,0,0,1050.12,519c-35.39-.39-108.39-.41-168.12,4.63a16.17,16.17,0,0,0-14.79,15.54L861.63,626a20.56,20.56,0,0,0,20.15,21.29l169.06,3.21A20.17,20.17,0,0,0,1071.39,630.28Z"/><path class="cls-44" d="M974.77,595.43l-24.3,2.62a5.48,5.48,0,0,1-6.05-5.85l5.31-72.28c10.19-.32,20.24-.56,29.93-.72V590A5.48,5.48,0,0,1,974.77,595.43Z"/><path class="cls-7" d="M964.81,582.9a2.43,2.43,0,0,1-2.43,2.3h-.15a2.44,2.44,0,0,1-2.3-2.58l3.67-63.08,4.9-.12Z"/><path class="cls-45" d="M1037.42,573a.82.82,0,0,0,.82-.77l1.26-19.87a.82.82,0,0,0-.77-.86.79.79,0,0,0-.86.76l-1.26,19.87a.8.8,0,0,0,.76.86Z"/><path class="cls-46" d="M1034.83,573a.81.81,0,0,0,.81-.79l.66-20.25a.8.8,0,0,0-.78-.84.78.78,0,0,0-.85.78l-.66,20.25a.82.82,0,0,0,.79.85Z"/><path class="cls-47" d="M1031.31,573a.81.81,0,0,1-.77-.85c.32-6.8.94-19.77,1-20.22a.8.8,0,0,1,.81-.8.82.82,0,0,1,.82.81c0,.34-.8,17-1,20.29a.81.81,0,0,1-.81.78Zm.16-21.06h0Z"/><path class="cls-48" d="M1025.92,573.81a1.63,1.63,0,0,0,1.63-1.57c.69-19.62.56-20.06.48-20.36a1.63,1.63,0,0,0-3.18.65c.05,1.18-.31,12.59-.56,19.59a1.63,1.63,0,0,0,1.57,1.69Z"/><path class="cls-49" d="M1022.39,573a.82.82,0,0,0,.81-.82V552.31a.81.81,0,0,0-.81-.81.82.82,0,0,0-.82.81v19.87A.82.82,0,0,0,1022.39,573Z"/><path class="cls-50" d="M1019.54,573a.82.82,0,0,0,.81-.8c.16-6.9.52-18.18.85-19.54a.82.82,0,0,0,0-.84.81.81,0,0,0-1.13-.23c-.44.29-.87.56-1.32,20.57a.82.82,0,0,0,.8.84Z"/><path class="cls-51" d="M1041.81,574.81a1.63,1.63,0,0,0,1.62-1.55l1.09-20.86a1.63,1.63,0,0,0-1.54-1.72,1.66,1.66,0,0,0-1.72,1.55l-1.08,20.86a1.62,1.62,0,0,0,1.54,1.71Z"/><path class="cls-43" d="M1043,507.34v-63a15.11,15.11,0,0,0-14.94-15.11c-24.86-.27-76.12-.29-118.07,3.25a11.34,11.34,0,0,0-10.38,10.91l-3.92,60.95a14.43,14.43,0,0,0,14.14,14.95l118.73,2.25A14.16,14.16,0,0,0,1043,507.34Z"/><path class="cls-7" d="M1028.62,451.12c.11,5.36,0,13.87-.18,19.37a4.86,4.86,0,0,1-5.43,4.71l-20.45-2.4a4.85,4.85,0,0,1-4.24-5.54l2.51-16.75a4.86,4.86,0,0,1,4.81-4.14h18.12A4.85,4.85,0,0,1,1028.62,451.12Z"/><path class="cls-44" d="M975.16,482.86,958.1,484.7a3.84,3.84,0,0,1-4.25-4.1l3.73-50.76c7.15-.23,14.21-.39,21-.51V479A3.85,3.85,0,0,1,975.16,482.86Z"/><path class="cls-7" d="M968.17,474.07a1.71,1.71,0,0,1-1.71,1.61h-.1a1.73,1.73,0,0,1-1.62-1.81l2.57-44.31,3.45-.07Z"/><path class="cls-52" d="M1019.16,467.11a.57.57,0,0,0,.57-.54l.89-13.95a.57.57,0,0,0-.54-.61.57.57,0,0,0-.61.54l-.88,13.95a.57.57,0,0,0,.53.61Z"/><path class="cls-53" d="M1017.34,467.11a.57.57,0,0,0,.57-.55l.46-14.22a.57.57,0,0,0-.55-.6.55.55,0,0,0-.59.56l-.46,14.22a.57.57,0,0,0,.55.59Z"/><path class="cls-54" d="M1014.87,467.11a.58.58,0,0,1-.55-.6c.23-4.78.66-13.89.67-14.2a.58.58,0,0,1,1.15,0c0,.23-.56,11.91-.67,14.24a.58.58,0,0,1-.57.55Zm.11-14.79h0Z"/><path class="cls-55" d="M1011.08,467.68a1.13,1.13,0,0,0,1.14-1.1c.49-13.78.4-14.09.35-14.3a1.15,1.15,0,0,0-2.24.46c0,.82-.22,8.84-.39,13.76a1.14,1.14,0,0,0,1.1,1.18Z"/><path class="cls-56" d="M1008.6,467.11a.57.57,0,0,0,.57-.57v-14a.57.57,0,0,0-.57-.57.58.58,0,0,0-.57.57v14A.58.58,0,0,0,1008.6,467.11Z"/><path class="cls-57" d="M1006.6,467.11a.57.57,0,0,0,.57-.56c.11-4.85.37-12.77.6-13.72a.57.57,0,0,0,0-.59.58.58,0,0,0-.8-.17c-.31.21-.61.4-.92,14.45a.57.57,0,0,0,.56.59Z"/><path class="cls-58" d="M1022.24,468.38a1.14,1.14,0,0,0,1.14-1.08l.76-14.66a1.13,1.13,0,0,0-1.08-1.2,1.15,1.15,0,0,0-1.2,1.08l-.77,14.66a1.15,1.15,0,0,0,1.09,1.2Z"/><path class="cls-59" d="M1241.86,374.84l-8.27,4.45c-9.92,6-18.79,9.23-26.78,10.43-24.93,3.74-41.18-12-53.29-21.54-16-12.6-28.43-6.47-28.43-6.47l17.05,32.55c25.46,24,51.57,18.67,68,10.89a76.14,76.14,0,0,0,17-10.89C1246,383.09,1241.86,374.84,1241.86,374.84Z"/><path class="cls-60" d="M1266.22,386.5a6.12,6.12,0,0,0-3.57-3.91l-16.78-6.74s-.25-2.16,3.55-3.62,2.91-5.72,2.91-5.72-5.19,2.37-12.79,6.13a17.84,17.84,0,0,0-8.08,8.79l4.32,5.68a76.81,76.81,0,0,0,31.37,2.47Z"/><path class="cls-61" d="M1121.42,623.68s-1.28,7.23-1.9,14.39a4.93,4.93,0,0,0,4.72,5.34c9.53.4,29.92,1.17,37.24.84a1.6,1.6,0,0,0,1.41-2.2h0a3.58,3.58,0,0,0-1.84-1.93l-33.68-15.48Z"/><path class="cls-62" d="M1120.37,619.43l1,8.65s5.9,2.74,9.93-.35l-2.44-9.64Z"/><path class="cls-63" d="M1118.73,451.1c-.45,2.34.79,122.68,12.6,174,.19.84,1.41,2.49,1,3.21-1,1.75-8.57,1.26-12.82,1.41-1.32,0-2-1.5-2.4-2.82-3.37-11.9-19.55-71.57-21.66-128.57-2.36-63.68,0-2.17,0-2.17l-1-40.34Z"/><path class="cls-64" d="M1082.67,627.45s-2,3.65-4,13.35a3,3,0,0,0,2.65,3.6c3.15.31,8,.71,11.87.69a3,3,0,0,0,3-3.35c-.43-3.54-1.77-9.35-5.91-13.88Z"/><path class="cls-65" d="M1080.89,616.32l2.4,13.08s2.37,1.77,7.06.49l-1.15-14.08Z"/><path class="cls-66" d="M1075.12,455.79c-9.65,60.84,1.38,155,5.35,172.55a2.66,2.66,0,0,0,2.11,2.08,17,17,0,0,0,7.55-.32,2.49,2.49,0,0,0,1.73-2.3c.53-14.17-.43-101.14,8.57-135.51a7.81,7.81,0,0,1,2.89-4.3l14.81-12.07.27-26Z"/><path class="cls-9" d="M1130.46,358.19c-25.46-.42-53.54,6.69-53.54,6.69-6.25,36.49-3.74,76.93-2.44,90.25.27,2.73-1.19,5.62,1.51,6.06,13.32,2.15,34.25,0,40.76-1.93,2.38-.69,2-3.22,2.48-5.65,4.36-20.94,16.85-67.14,16.85-67.14,6.06,7.79,14.6,18.68,27.23,21.58-6.44-7.46,5.9-23.1,4.59-28.71C1156.48,366.51,1138.31,358.32,1130.46,358.19Z"/><path class="cls-67" d="M1104.68,337.53l-8.1,23.42a.84.84,0,0,0,.38,1c2.21,1.22,10.16,4.74,19.75-1.33a4,4,0,0,0,1.83-2.84l2.62-20.27Z"/><path class="cls-68" d="M1122.3,315.84s8.89,16.74,7.75,23.5-12.16,6.28-21.79.79l-6.72-18.08Z"/><path class="cls-69" d="M1108.69,331.25a.69.69,0,0,0,.3-1,18,18,0,0,1-2.47-5.25s-1.6-1,4.07-2.38c3.08-.74,8.55-1.35,11-3.57,2.69-2.48-2.27-7.18-4.36-8.44-2.75-1.66-6.1-2.64-9.21-1.8a17.12,17.12,0,0,0-4.19,2c-2.27,1.35-4.62,2.78-6.07,5a16.57,16.57,0,0,0-1.87,4.75,23.67,23.67,0,0,0-1.13,7.26c.3,6.54,8,12.4,14.14,13.12a.7.7,0,0,0,.73-.92l-2.52-7.33a.69.69,0,0,1,.37-.86Z"/><path class="cls-70" d="M1109.7,332.29s-6.33-4.34-6.79-.69,5.7,5.3,8.75,3.94Z"/><path class="cls-8" d="M1125.54,311.73c-13-24.54-46.67-2.24-31,18.43C1106.19,322.41,1119.36,310.9,1125.54,311.73Z"/><path class="cls-9" d="M1105.24,322.13l23.33-.72a1.67,1.67,0,0,0,1.42-.87,15.79,15.79,0,0,1,9-7.5.47.47,0,0,0-.13-.91l-14.3-1h0c-7.13.54-13.44,4.83-19.46,10.45A.3.3,0,0,0,1105.24,322.13Z"/><path class="cls-8" d="M1079.8,402c14.25-16,12.81-28.3-3.27-37.16,0,0-26.66,18.1-31,41.06a63.22,63.22,0,0,1,23.17,6.21C1070.63,401.29,1079.8,402,1079.8,402Z"/><path class="cls-71" d="M1110.76,418.48s-29.92,16.91-40,2.47a11.36,11.36,0,0,1-2.08-8.82,63.22,63.22,0,0,0-23.17-6.21,31.7,31.7,0,0,0,3.45,21.73c17.68,32.35,65.78-1.79,65.78-1.79Z"/><path class="cls-72" d="M1107.17,439.88l16.33-57a1.66,1.66,0,0,1,1.4-1.19c3-.35,11.54-1.32,21.44-2.15,11.92-1,25.77-1.83,34-1.14a1.68,1.68,0,0,1,1.37,2.41C1177,390.29,1157.69,429,1148,441.7a1.69,1.69,0,0,1-1.34.66l-37.89-.36A1.66,1.66,0,0,1,1107.17,439.88Z"/><path class="cls-3" d="M1148,374.55l11.84-2a.85.85,0,0,1,1,1.1l-1.18,3.55a.84.84,0,0,1-.69.58l-11.39,1.52a.84.84,0,0,1-.94-1l.72-3.1A.86.86,0,0,1,1148,374.55Z"/><path class="cls-3" d="M1139.16,384.57l1-5.08a1.17,1.17,0,0,1,1-.94l23.92-2.43a1.18,1.18,0,0,1,1.26,1.44l-1.52,6.33a1.16,1.16,0,0,1-1.08.9L1140.38,386A1.18,1.18,0,0,1,1139.16,384.57Z"/><path class="cls-73" d="M1111.11,426.1s-2.27-9.36-1.36-12.68,2.7-7.58,8.63-6.63a87.28,87.28,0,0,1,12.91,3.44s-.35,4.32-4.85,2.93l2.79,2.16s-.4,3.46-4.2,1.61l2.59,2.87a3,3,0,0,1-4.43,1C1120.39,419,1119.05,427.22,1111.11,426.1Z"/><path class="cls-8" d="M1101.63,390.49c-1.87.15-17.67.65-17.67.65l.64,15.91,8.18,4.62,8.85-4.62Z"/><polygon class="cls-8" points="1102.88 390.49 1084 391.14 1083.23 397.25 1093.06 399.8 1103.5 395.14 1102.88 390.49"/><path class="cls-7" d="M669.61,415.76l-2.1-1.27a.92.92,0,0,1,1-1.58h0l2,1.3h0a.9.9,0,0,1-.95,1.53Z"/><path class="cls-7" d="M662.69,411.39l-2-1.38a1,1,0,0,1,1.13-1.66h0l2,1.41h0a1,1,0,0,1-1.12,1.6Z"/><path class="cls-7" d="M656,406.66l-2-1.49a1.08,1.08,0,1,1,1.31-1.72h0l0,0,1.9,1.5h0a1.06,1.06,0,0,1-1.3,1.67Z"/><path class="cls-7" d="M649.59,401.58l-1.87-1.6a1.14,1.14,0,1,1,1.48-1.74h0l1.82,1.6h0a1.13,1.13,0,0,1,.11,1.59A1.14,1.14,0,0,1,649.59,401.58Z"/><path class="cls-7" d="M643.45,396.16l-1.79-1.69a1.2,1.2,0,0,1,1.65-1.75h0v0l1.74,1.68,0,0a1.18,1.18,0,0,1-1.64,1.71Z"/><path class="cls-7" d="M637.59,390.42l-1.7-1.77a1.26,1.26,0,0,1,1.82-1.74h0v0l1.65,1.77h0a1.26,1.26,0,0,1-.07,1.76A1.24,1.24,0,0,1,637.59,390.42Z"/><path class="cls-7" d="M632,384.4l-1.6-1.86a1.32,1.32,0,1,1,2-1.72h0l0,0L634,382.7v0a1.3,1.3,0,0,1-.16,1.83A1.31,1.31,0,0,1,632,384.4Z"/><path class="cls-7" d="M626.79,378.09l-1.51-1.95a1.37,1.37,0,1,1,2.17-1.67h0v0l1.46,1.93v0a1.35,1.35,0,0,1-2.15,1.64Z"/><path class="cls-7" d="M621.89,371.51l-1.41-2a1.45,1.45,0,0,1,.36-2,1.43,1.43,0,0,1,2,.36h0v0l1.35,2,0,0a1.41,1.41,0,0,1-2.33,1.59Z"/><path class="cls-7" d="M617.34,364.67l-1.29-2.1a1.48,1.48,0,0,1,2.53-1.55h0l0,0,1.24,2.07v0a1.47,1.47,0,0,1-2.51,1.52Z"/><path class="cls-7" d="M613.18,357.59,612,355.42a1.54,1.54,0,1,1,2.71-1.46h0l0,0,1.11,2.14,0,0a1.52,1.52,0,0,1-2.69,1.43Z"/><path class="cls-7" d="M609.43,350.27l-1-2.24a1.58,1.58,0,1,1,2.86-1.33v0l1,2.2v0a1.57,1.57,0,0,1-2.85,1.31Z"/><path class="cls-7" d="M606.14,342.72l-.89-2.3a1.59,1.59,0,0,1,.91-2.08,1.61,1.61,0,0,1,2.08.91v0l.86,2.26v0a1.6,1.6,0,0,1-3,1.14Z"/><path class="cls-7" d="M603.32,335l-.74-2.36a1.64,1.64,0,1,1,3.12-1h0v0l.71,2.3v0a1.64,1.64,0,0,1-3.12,1Z"/><path class="cls-7" d="M601,327.07l-.59-2.4a1.68,1.68,0,0,1,3.26-.79h0v0l.55,2.34v0a1.67,1.67,0,0,1-3.24.77Z"/><path class="cls-7" d="M599.25,319l-.42-2.44a1.7,1.7,0,1,1,3.36-.58h0v0l.39,2.37v0a1.69,1.69,0,0,1-3.34.56Z"/><path class="cls-7" d="M598.06,310.85l-.24-2.47a1.74,1.74,0,1,1,3.46-.34v.06l.21,2.39v0a1.73,1.73,0,0,1-3.44.32Z"/><path class="cls-7" d="M597.48,302.6l-.05-2.48a1.78,1.78,0,1,1,3.55-.07v.06l0,2.39v.05a1.77,1.77,0,0,1-3.53.05Z"/><path class="cls-7" d="M597.54,294.33l.15-2.48a1.8,1.8,0,0,1,3.6.22h0v0l-.16,2.39v.05a1.8,1.8,0,0,1-3.59-.23Z"/><path class="cls-7" d="M598.27,286.08l.35-2.46a1.83,1.83,0,1,1,3.63.52h0v.05l-.36,2.37v0a1.82,1.82,0,0,1-3.61-.53Z"/><path class="cls-7" d="M599.66,277.92l.55-2.42a1.87,1.87,0,1,1,3.65.82h0v.05l-.54,2.33v.05a1.86,1.86,0,0,1-3.63-.84Z"/><path class="cls-7" d="M601.71,269.9l.74-2.38a1.91,1.91,0,0,1,3.64,1.14h0v0l-.73,2.28,0,.05a1.89,1.89,0,0,1-3.61-1.14Z"/><path class="cls-7" d="M604.39,262.06l.92-2.31a1.94,1.94,0,1,1,3.6,1.44h0v0l-.91,2.22,0,0a1.92,1.92,0,0,1-3.57-1.44Z"/><path class="cls-7" d="M607.65,254.46l1.09-2.23a2,2,0,0,1,3.54,1.72h0v0l-1.07,2.15,0,0a2,2,0,0,1-3.52-1.73Z"/><path class="cls-7" d="M611.47,247.12l1.25-2.14a2,2,0,1,1,3.41,2h0l0,0-1.21,2.07,0,0a2,2,0,1,1-3.41-2Z"/><path class="cls-7" d="M615.78,240.07l1.39-2a2,2,0,0,1,3.29,2.21h0l0,0-1.35,2,0,0a2,2,0,0,1-3.29-2.22Z"/><path class="cls-7" d="M620.54,233.33l1.5-2a2,2,0,0,1,3.17,2.42h0l0,0-1.46,1.91,0,0a2,2,0,0,1-3.15-2.42Z"/><path class="cls-7" d="M625.69,226.88,627.3,225a2,2,0,1,1,3,2.61h0l0,0-1.58,1.82,0,0a2,2,0,0,1-3-2.61Z"/><path class="cls-7" d="M631.19,220.74,632.9,219a2,2,0,0,1,2.89,2.78h0l0,0-1.67,1.73,0,0a2,2,0,1,1-2.88-2.78Z"/><path class="cls-7" d="M637,214.91l1.8-1.69a2,2,0,1,1,2.76,2.94h0l0,0-1.75,1.65,0,0a2,2,0,0,1-2.75-2.94Z"/><path class="cls-7" d="M643.1,209.38l1.88-1.61a2,2,0,1,1,2.62,3.08h0l0,0-1.84,1.56,0,0a2,2,0,0,1-2.61-3.07Z"/><path class="cls-7" d="M649.44,204.14l1.95-1.52a2,2,0,1,1,2.49,3.21h0l0,0L652,207.33h0a2,2,0,1,1-2.49-3.2Z"/><path class="cls-7" d="M656,199.19l2-1.42a2,2,0,0,1,2.36,3.32h0l0,0-2,1.39,0,0a2,2,0,0,1-2.35-3.33Z"/><path class="cls-7" d="M662.78,194.54l2.07-1.35a2,2,0,0,1,2.23,3.43h0L665,198h0a2,2,0,1,1-2.22-3.42Z"/><path class="cls-7" d="M669.74,190.16l2.12-1.26a2.05,2.05,0,0,1,2.09,3.53h0l0,0-2.08,1.23h0a2.05,2.05,0,0,1-2.09-3.53Z"/><path class="cls-7" d="M676.86,186.06l2.16-1.17a2.06,2.06,0,1,1,2,3.62h0l-2.13,1.15h0a2.06,2.06,0,1,1-2-3.62Z"/><path class="cls-7" d="M684.12,182.23l2.2-1.1a2.07,2.07,0,0,1,1.84,3.71h0L686,185.92h0a2.07,2.07,0,1,1-1.84-3.7Z"/><path class="cls-7" d="M691.51,178.66l2.24-1a2.08,2.08,0,0,1,1.72,3.78h0l-2.2,1h0a2.07,2.07,0,1,1-1.71-3.78Z"/><path class="cls-7" d="M699,175.36l2.28-.94a2.08,2.08,0,1,1,1.59,3.85h0l-2.24.92h0a2.08,2.08,0,0,1-1.59-3.85Z"/><path class="cls-7" d="M706.63,172.32l2.31-.86a2.09,2.09,0,0,1,1.46,3.92h0l-2.27.84h0a2.09,2.09,0,0,1-1.46-3.92Z"/><path class="cls-7" d="M714.35,169.55l2.34-.78a2.1,2.1,0,0,1,1.33,4h0l-2.29.76h0a2.09,2.09,0,1,1-1.33-4Z"/><path class="cls-7" d="M722.17,167l2.36-.69a2.09,2.09,0,1,1,1.18,4h0l-2.32.69h0a2.1,2.1,0,1,1-1.2-4Z"/><path class="cls-7" d="M730.06,164.82l2.39-.62a2.09,2.09,0,0,1,1,4.05h0l-2.34.61h0a2.09,2.09,0,0,1-1.05-4.05Z"/><path class="cls-7" d="M738,162.87l2.4-.54a2.08,2.08,0,0,1,.9,4.06h0l-2.36.53h0a2.08,2.08,0,1,1-.91-4.06Z"/><path class="cls-7" d="M746.06,161.18l2.42-.45a2.07,2.07,0,0,1,.76,4.07h0l-2.38.45h0a2.07,2.07,0,0,1-.77-4.07Z"/><path class="cls-7" d="M754.14,159.77l2.44-.37a2.06,2.06,0,0,1,.62,4.07h0l-2.39.37h0a2.06,2.06,0,0,1-.63-4.08Z"/><path class="cls-7" d="M762.27,158.64l2.45-.29a2,2,0,0,1,.48,4.07h0l-2.4.29h0a2,2,0,1,1-.49-4.07Z"/><path class="cls-7" d="M770.43,157.77l2.45-.2a2,2,0,1,1,.34,4.06h0l-2.41.21h0a2,2,0,1,1-.35-4.07Z"/><path class="cls-7" d="M778.61,157.18l2.46-.12a2,2,0,1,1,.21,4.05h0l-2.42.13h0a2,2,0,0,1-.21-4.06Z"/><path class="cls-7" d="M786.81,156.87l2.46,0a2,2,0,0,1,.07,4h0l-2.42,0h0a2,2,0,0,1-.07-4Z"/><path class="cls-7" d="M795,156.83l2.46,0a2,2,0,0,1-.07,4h0l-2.42,0h0a2,2,0,1,1,.06-4Z"/><path class="cls-7" d="M803.21,157.07l2.46.13a2,2,0,0,1-.2,4h0l-2.42-.12h0a2,2,0,1,1,.2-4Z"/><path class="cls-7" d="M811.4,157.59l2.45.21a2,2,0,1,1-.34,4h0l-2.41-.2h0a2,2,0,0,1,.34-4Z"/><path class="cls-7" d="M819.56,158.39l2.44.3a2,2,0,1,1-.47,3.92h0l-2.41-.28h0a2,2,0,0,1,.47-3.93Z"/><path class="cls-7" d="M827.69,159.48l2.43.38a2,2,0,1,1-.61,3.88h0l-2.39-.37h0a2,2,0,1,1,.6-3.89Z"/><path class="cls-7" d="M835.78,160.84l2.41.47a2,2,0,0,1-.74,3.84h0l-2.38-.45h0a2,2,0,1,1,.73-3.85Z"/><path class="cls-7" d="M843.81,162.49l2.4.55a1.94,1.94,0,0,1-.87,3.79h0l-2.36-.54h0a1.95,1.95,0,0,1,.86-3.8Z"/><path class="cls-7" d="M851.78,164.42l2.38.64a1.94,1.94,0,1,1-1,3.74h0l-2.34-.62h0a1.94,1.94,0,0,1,1-3.75Z"/><path class="cls-7" d="M859.68,166.64l2.35.72A1.92,1.92,0,1,1,860.9,171h0l-2.32-.7h0a1.93,1.93,0,0,1,1.12-3.69Z"/><path class="cls-7" d="M867.49,169.13l2.32.79a1.91,1.91,0,1,1-1.24,3.62h0l-2.29-.78h0a1.92,1.92,0,0,1,1.23-3.64Z"/><path class="cls-7" d="M875.21,171.86l2.3.86a1.91,1.91,0,0,1-1.34,3.57h0l-2.27-.84h0a1.9,1.9,0,1,1,1.33-3.57Z"/><path class="cls-7" d="M882.84,174.82l2.27.93a1.9,1.9,0,0,1-1.43,3.51h0l-2.25-.91h0a1.9,1.9,0,1,1,1.43-3.52Z"/><path class="cls-7" d="M890.38,178l2.25,1a1.88,1.88,0,0,1-1.52,3.44h0l-2.22-1h0a1.88,1.88,0,1,1,1.51-3.45Z"/><path class="cls-7" d="M897.84,181.36l2.22,1a1.87,1.87,0,0,1-1.6,3.39h0l-2.19-1h0a1.87,1.87,0,1,1,1.58-3.4Z"/><path class="cls-7" d="M905.2,184.9l2.2,1.1a1.86,1.86,0,1,1-1.66,3.33h0l-2.17-1.08h0a1.87,1.87,0,0,1,1.66-3.35Z"/><path class="cls-7" d="M912.49,188.6l2.17,1.14a1.85,1.85,0,0,1,.79,2.5,1.87,1.87,0,0,1-2.51.78h0l-2.16-1.13h0a1.86,1.86,0,0,1,1.72-3.29Z"/><path class="cls-7" d="M919.7,192.43l2.15,1.18a1.84,1.84,0,0,1-1.77,3.23h0l-2.14-1.16h0a1.84,1.84,0,0,1,1.76-3.24Z"/><path class="cls-7" d="M926.84,196.39,929,197.6a1.83,1.83,0,1,1-1.81,3.19h0L925,199.59h0a1.84,1.84,0,0,1,1.8-3.2Z"/><path class="cls-7" d="M933.92,200.45l2.11,1.24a1.82,1.82,0,1,1-1.84,3.14h0l-2.11-1.22h0a1.83,1.83,0,0,1,1.83-3.16Z"/><path class="cls-7" d="M940.94,204.61l2.09,1.26a1.81,1.81,0,1,1-1.87,3.1h0l-2.09-1.25h0a1.82,1.82,0,0,1,1.86-3.12Z"/><path class="cls-7" d="M947.91,208.83l2.08,1.29a1.8,1.8,0,1,1-1.89,3.06h0L946,211.91h0a1.8,1.8,0,0,1,1.88-3.08Z"/><path class="cls-7" d="M954.83,213.12l2.08,1.3a1.79,1.79,0,0,1-1.9,3l-2.07-1.29a1.79,1.79,0,0,1,1.89-3Z"/><path class="cls-7" d="M961.73,217.46l2.06,1.31a1.78,1.78,0,0,1-1.9,3l-2.07-1.3a1.78,1.78,0,1,1,1.9-3Z"/><path class="cls-7" d="M968.6,221.83l2,1.31a1.77,1.77,0,0,1-1.9,3l-2.06-1.31a1.77,1.77,0,1,1,1.9-3Z"/><path class="cls-7" d="M975.45,226.22l2,1.32a1.76,1.76,0,0,1-1.9,3l-2.05-1.31a1.76,1.76,0,0,1,1.89-3Z"/><path class="cls-7" d="M982.29,230.61l2.06,1.32a1.75,1.75,0,0,1-1.89,2.95l-2.06-1.32a1.75,1.75,0,0,1,1.89-2.95Z"/><path class="cls-7" d="M989.14,235l2.05,1.31a1.74,1.74,0,0,1-1.87,2.94l-2.06-1.31a1.74,1.74,0,0,1,1.87-2.94Z"/><path class="cls-7" d="M996,239.37l2.06,1.3a1.73,1.73,0,0,1-1.85,2.93l-2.06-1.3a1.73,1.73,0,1,1,1.84-2.93Z"/><path class="cls-7" d="M1002.86,243.71l2.07,1.29a1.72,1.72,0,0,1-1.82,2.92l-2.08-1.29a1.72,1.72,0,0,1,1.82-2.93Z"/><path class="cls-7" d="M1009.76,248l2.07,1.28h0a1.71,1.71,0,1,1-1.78,2.91l-2.09-1.27a1.71,1.71,0,1,1,1.79-2.92h0Z"/><path class="cls-7" d="M1016.68,252.22l2.09,1.26h0a1.69,1.69,0,1,1-1.74,2.9l-2.1-1.25a1.7,1.7,0,1,1,1.74-2.91Z"/><path class="cls-7" d="M1023.65,256.38l2.1,1.24h0a1.67,1.67,0,1,1-1.68,2.88l-2.11-1.22a1.68,1.68,0,1,1,1.68-2.9h0Z"/><path class="cls-7" d="M1030.66,260.45l2.12,1.21h0a1.65,1.65,0,0,1-1.62,2.87l-2.14-1.2a1.65,1.65,0,0,1,1.62-2.88Z"/><path class="cls-7" d="M1037.74,264.42l2.13,1.16h0a1.63,1.63,0,0,1-1.55,2.86l-2.16-1.17a1.63,1.63,0,0,1,1.55-2.87h0Z"/><path class="cls-7" d="M1044.87,268.26l2.16,1.12h0a1.6,1.6,0,0,1-1.47,2.85l-2.18-1.13a1.61,1.61,0,0,1,1.48-2.86h0Z"/><path class="cls-7" d="M1052.08,272l2.17,1.08h0a1.58,1.58,0,0,1-1.4,2.84l-2.2-1.08a1.59,1.59,0,0,1,1.4-2.85h0Z"/><path class="cls-7" d="M1059.36,275.5l2.2,1h0a1.56,1.56,0,0,1-1.31,2.84l-2.23-1a1.57,1.57,0,0,1,1.31-2.85h0Z"/><path class="cls-7" d="M1066.72,278.87l2.22,1h0a1.54,1.54,0,0,1-1.23,2.83l-2.25-1a1.56,1.56,0,0,1-.81-2,1.54,1.54,0,0,1,2-.81h0Z"/><path class="cls-7" d="M1074.16,282l2.25.91h0a1.52,1.52,0,0,1-1.13,2.82l-2.28-.91a1.52,1.52,0,1,1,1.12-2.83h0Z"/><path class="cls-7" d="M1081.69,285l2.28.84h0a1.5,1.5,0,0,1-1,2.81l-2.31-.84a1.51,1.51,0,0,1,1-2.83h0Z"/><path class="cls-7" d="M1089.31,287.71l2.3.77h0a1.47,1.47,0,1,1-.93,2.79l-2.33-.76a1.48,1.48,0,0,1,.92-2.81h0Z"/><path class="cls-7" d="M1097,290.18l2.33.69h0a1.45,1.45,0,0,1-.82,2.79l-2.35-.68a1.46,1.46,0,1,1,.81-2.8h0Z"/><path class="cls-7" d="M1104.78,292.38l2.35.6h0a1.42,1.42,0,0,1,1,1.74,1.43,1.43,0,0,1-1.73,1l-2.39-.6a1.44,1.44,0,0,1,.71-2.79h0Z"/><path class="cls-7" d="M1112.63,294.29l2.37.51h0a1.41,1.41,0,1,1-.59,2.75l-2.4-.51a1.42,1.42,0,0,1,.59-2.77h0Z"/><path class="cls-7" d="M1120.55,295.89l2.38.42h0a1.39,1.39,0,0,1-.48,2.73l-2.42-.41a1.39,1.39,0,0,1,.47-2.75h0Z"/><path class="cls-7" d="M1128.52,297.18l2.4.31h0a1.36,1.36,0,0,1,1.17,1.53,1.37,1.37,0,0,1-1.52,1.18l-2.44-.31a1.38,1.38,0,0,1,.34-2.73h0Z"/><path class="cls-7" d="M1136.54,298.11l2.41.2h0a1.34,1.34,0,0,1-.22,2.67l-2.45-.19a1.35,1.35,0,0,1,.21-2.7h0Z"/><path class="cls-7" d="M1144.59,298.68l2.42.1h0a1.32,1.32,0,0,1-.11,2.64l-2.45-.09a1.33,1.33,0,1,1,.1-2.65h0Z"/><path class="cls-7" d="M1152.66,298.89h2.44a1.3,1.3,0,0,1,0,2.6l-2.45,0a1.31,1.31,0,0,1,0-2.62h0Z"/><path class="cls-7" d="M1160.73,298.76l2.42-.11h0a1.28,1.28,0,0,1,.12,2.56l-2.45.12a1.29,1.29,0,0,1-.13-2.57h0Z"/><path class="cls-7" d="M1168.8,298.29l2.41-.21h0a1.25,1.25,0,0,1,.22,2.5l-2.44.22a1.26,1.26,0,1,1-.24-2.51h0Z"/><path class="cls-7" d="M1176.83,297.47l2.41-.31h0a1.24,1.24,0,0,1,.32,2.45l-2.43.33a1.25,1.25,0,0,1-.33-2.47h0Z"/><path class="cls-7" d="M1184.83,296.33l2.39-.41h0a1.21,1.21,0,0,1,.41,2.39l-2.42.42a1.22,1.22,0,0,1-.42-2.4h0Z"/><path class="cls-7" d="M1192.78,294.85l2.37-.5h0a1.19,1.19,0,0,1,.51,2.33l-2.4.52a1.2,1.2,0,1,1-.51-2.34h0Z"/><path class="cls-7" d="M1200.66,293.06l2.35-.6h0a1.17,1.17,0,1,1,.58,2.26l-2.37.62a1.17,1.17,0,0,1-1.44-.84,1.18,1.18,0,0,1,.84-1.44h0Z"/><path class="cls-7" d="M1208.47,291l2.33-.69h0a1.15,1.15,0,0,1,.66,2.2l-2.35.72a1.15,1.15,0,0,1-.67-2.21h0Z"/><path class="cls-7" d="M1216.19,288.53l2.3-.79h0a1.13,1.13,0,0,1,.74,2.13l-2.32.81a1.13,1.13,0,1,1-.75-2.14h0Z"/><path class="cls-7" d="M1223.81,285.81l2.26-.88h0a1.1,1.1,0,0,1,.8,2.06l-2.29.89a1.11,1.11,0,0,1-1.44-.62,1.13,1.13,0,0,1,.63-1.45h0Z"/><path class="cls-7" d="M1231.32,282.79l2.23-1h0a1.07,1.07,0,1,1,.86,2l-2.25,1a1.09,1.09,0,0,1-1.43-.56,1.1,1.1,0,0,1,.56-1.44h0Z"/><path class="cls-7" d="M1238.7,279.48l2.2-1.05h0a1,1,0,0,1,.91,1.87l-2.21,1.08a1.05,1.05,0,1,1-.92-1.89h0Z"/><path class="cls-7" d="M1246,275.89l2.15-1.14h0a1,1,0,0,1,1,1.77l-2.16,1.17a1,1,0,0,1-1.38-.42,1,1,0,0,1,.41-1.37h0Z"/><path class="cls-7" d="M1253.07,272l2.1-1.22h0a1,1,0,1,1,1,1.68l-2.11,1.25a1,1,0,1,1-1-1.69h0Z"/><path class="cls-7" d="M1260,267.85l2.06-1.3h0a.94.94,0,0,1,1,1.58l-2.06,1.33a.95.95,0,0,1-1-1.59h0Z"/><path class="cls-7" d="M1266.79,263.41l2-1.38h0a.9.9,0,0,1,1.25.23.89.89,0,0,1-.22,1.25l-2,1.42a.92.92,0,1,1-1.06-1.5h0Z"/><path class="cls-7" d="M1273.38,258.71l1.94-1.46h0a.87.87,0,0,1,1.22.17.86.86,0,0,1-.17,1.21l-1.94,1.49a.88.88,0,0,1-1.07-1.39Z"/><path class="cls-7" d="M1279.78,253.74l1.88-1.54h0a.83.83,0,0,1,1.17.12.84.84,0,0,1-.11,1.17l-1.88,1.57a.85.85,0,0,1-1.19-.11.84.84,0,0,1,.11-1.19h0Z"/><path class="cls-7" d="M1286,248.51l1.82-1.61h0a.8.8,0,0,1,1.07,1.19l-1.81,1.64a.81.81,0,0,1-1.09-1.19h0Z"/><path class="cls-7" d="M1291.92,243l1.75-1.7h0a.76.76,0,0,1,1.08,0,.77.77,0,0,1,0,1.08l-1.74,1.72a.77.77,0,1,1-1.09-1.1Z"/><path class="cls-7" d="M1297.65,237.31l1.67-1.77h0a.73.73,0,0,1,1.07,1l-1.67,1.8a.74.74,0,0,1-1,0,.73.73,0,0,1,0-1h0Z"/><path class="cls-7" d="M1303.12,231.34l1.59-1.84h0a.7.7,0,0,1,1-.07.68.68,0,0,1,.07,1l-1.59,1.86a.69.69,0,0,1-1,.08.71.71,0,0,1-.08-1h0Z"/><path class="cls-7" d="M1308.33,225.14l1.51-1.91h0a.64.64,0,0,1,.92-.11.65.65,0,0,1,.11.92l-1.5,1.93a.67.67,0,1,1-1.06-.82Z"/><path class="cls-7" d="M1313.26,218.71l1.43-2h0a.61.61,0,0,1,.87-.14.62.62,0,0,1,.15.86l-1.42,2a.64.64,0,0,1-.88.15.63.63,0,0,1-.15-.89h0Z"/><path class="cls-7" d="M1317.9,212.07l1.33-2h0a.59.59,0,0,1,1,.64l-1.33,2.07a.59.59,0,0,1-.82.18.6.6,0,0,1-.18-.83h0Z"/><path class="cls-7" d="M1322.17,205.19l1.17-2.12v0a.55.55,0,0,1,1,.53l-1.17,2.16a.56.56,0,1,1-1-.53h0Z"/><path class="cls-7" d="M1325.81,198l.93-2.23v0a.52.52,0,0,1,1,.39l-.93,2.29a.53.53,0,1,1-1-.4h0Z"/><path class="cls-7" d="M1328.51,190.4l.57-2.34v0a.48.48,0,1,1,.94.22l-.55,2.4a.5.5,0,0,1-.6.37.49.49,0,0,1-.37-.59h0Z"/><path class="cls-7" d="M1329.86,182.49l.08-2.41v0a.45.45,0,0,1,.9,0l-.06,2.47a.46.46,0,0,1-.47.44.45.45,0,0,1-.45-.47h0Z"/><path class="cls-7" d="M1329.4,174.51l-.57-2.34v0a.41.41,0,0,1,.3-.5.42.42,0,0,1,.5.3l.6,2.4a.42.42,0,1,1-.82.21h0Z"/><path class="cls-7" d="M1326.79,167l-1.17-2.11,0,0a.38.38,0,0,1,.66-.38l1.22,2.15a.39.39,0,0,1-.14.53.38.38,0,0,1-.53-.14h0Z"/><path class="cls-7" d="M1322.21,160.38l-1.74-1.66,0,0a.34.34,0,0,1,.47-.5l1.8,1.69a.35.35,0,1,1-.48.52h0Z"/><path class="cls-7" d="M1315.81,155.63l-2.22-.9,0,0a.31.31,0,0,1-.17-.4.31.31,0,0,1,.4-.17l2.31.92a.32.32,0,0,1-.24.59h0Z"/><path class="cls-7" d="M1330.13,167.92l-.63-.84-.09-.14c-.18-.25-.53-.76-1.07-1.45a.43.43,0,0,1,.07-.6.44.44,0,0,1,.6.07l.59.78a.45.45,0,0,1,.38-.16.43.43,0,0,1,.38.47c0,.54-.09.83-.09.83Zm.1-4.28h-.12a.43.43,0,0,1-.4-.45c0-.91.07-1.84.09-2.77a.43.43,0,0,1,.43-.43.44.44,0,0,1,.42.44c0,.94,0,1.88-.09,2.8A.43.43,0,0,1,1330.23,163.64Zm-3.28-.11a.45.45,0,0,1-.41-.12,27.13,27.13,0,0,0-2-1.9.42.42,0,0,1,0-.6.43.43,0,0,1,.6,0c.69.6,1.38,1.26,2.05,2a.43.43,0,0,1,0,.6A.37.37,0,0,1,1327,163.53Zm-4.25-3.62a.39.39,0,0,1-.33-.06,18.07,18.07,0,0,0-2.37-1.32.43.43,0,0,1-.21-.57.42.42,0,0,1,.56-.21,18.77,18.77,0,0,1,2.49,1.39.42.42,0,0,1,.12.59A.37.37,0,0,1,1322.7,159.91Zm7.61-1.86-.09,0a.44.44,0,0,1-.44-.42c0-.93-.06-1.86-.11-2.77a.41.41,0,0,1,.4-.45.42.42,0,0,1,.45.4c0,.92.09,1.86.11,2.8A.4.4,0,0,1,1330.31,158.05Zm-12.67-.42a.34.34,0,0,1-.2,0,12.21,12.21,0,0,0-1.89-.31l-.81-.08a.43.43,0,0,1-.37-.48.42.42,0,0,1,.47-.37l.78.08a14.07,14.07,0,0,1,2,.33.43.43,0,0,1,.31.52A.42.42,0,0,1,1317.64,157.63Zm-10.48,1.76-.83.17a2.6,2.6,0,0,0-1.25-1.45.43.43,0,0,1,.45-.73,4,4,0,0,1,1.23,1.13.42.42,0,0,1,.34.37Zm5-2.71a.41.41,0,0,1-.22,0,10.7,10.7,0,0,1-2.65-1.15.42.42,0,0,1-.15-.58.43.43,0,0,1,.59-.14,10.39,10.39,0,0,0,2.45,1.05.42.42,0,0,1,.29.53A.43.43,0,0,1,1312.16,156.68Zm17.81-4.2h0a.42.42,0,0,1-.47-.38c-.09-.93-.2-1.85-.33-2.75a.44.44,0,0,1,.36-.49.42.42,0,0,1,.48.37c.13.91.25,1.85.34,2.79A.42.42,0,0,1,1330,152.48Zm-23.5,4.08h0a.43.43,0,0,1-.47-.38c-.11-1.08-.2-2-.25-2.8a.43.43,0,1,1,.85-.06c0,.77.14,1.7.25,2.77A.43.43,0,0,1,1306.47,156.56Zm-3.57.37a.45.45,0,0,1-.28,0c-.76-.35-1.59-.75-2.52-1.27a.43.43,0,0,1-.16-.58.41.41,0,0,1,.58-.16c.9.5,1.72.89,2.46,1.23a.43.43,0,0,1,.21.57A.44.44,0,0,1,1302.9,156.93Zm4.65-3.21a.43.43,0,0,1-.44-.16,8,8,0,0,1-1.07-2.12,3,3,0,0,0-.13-.35.47.47,0,0,1,.11-.62.42.42,0,0,1,.58.11s.05.08.07.13.11.26.18.45a6.89,6.89,0,0,0,1,1.9.42.42,0,0,1-.09.59A.33.33,0,0,1,1307.55,153.72Zm21.64-6.76h0a.43.43,0,0,1-.5-.34c-.15-.81-.32-1.62-.5-2.4l-.08-.31a.43.43,0,0,1,.32-.51h0a.43.43,0,0,1,.51.31l.08.32c.18.79.35,1.61.51,2.43A.43.43,0,0,1,1329.19,147Zm-31.13,7.23a.49.49,0,0,1-.35-.07,27.62,27.62,0,0,1-2.21-1.77.43.43,0,0,1,0-.6.42.42,0,0,1,.6,0,25.43,25.43,0,0,0,2.14,1.71.44.44,0,0,1,.1.6A.51.51,0,0,1,1298.06,154.19Zm-4.18-3.69a.4.4,0,0,1-.4-.12l-.42-.44a21,21,0,0,1-1.41-1.74.42.42,0,0,1,.09-.59.43.43,0,0,1,.6.09,19.2,19.2,0,0,0,1.35,1.66l.41.44a.43.43,0,0,1,0,.6A.42.42,0,0,1,1293.88,150.5Zm34-9a.44.44,0,0,1-.51-.3c-.27-.89-.56-1.77-.87-2.62a.43.43,0,1,1,.8-.29c.32.86.62,1.76.89,2.67a.43.43,0,0,1-.29.53ZM1290.63,146a.42.42,0,0,1-.48-.22,18.84,18.84,0,0,1-1.1-2.62.42.42,0,0,1,.26-.54.42.42,0,0,1,.54.27,18.38,18.38,0,0,0,1.06,2.5.43.43,0,0,1-.18.58Zm35.31-9.68a.42.42,0,0,1-.48-.24c-.39-.85-.8-1.68-1.23-2.47a.43.43,0,0,1,.75-.41c.44.81.86,1.66,1.25,2.53a.42.42,0,0,1-.21.56Zm-37.08,4.41h0a.43.43,0,0,1-.5-.34,20.56,20.56,0,0,1-.31-2.84.43.43,0,0,1,.41-.44.42.42,0,0,1,.44.41,20.06,20.06,0,0,0,.3,2.71A.42.42,0,0,1,1288.86,140.72Zm34.4-9.3a.41.41,0,0,1-.45-.18c-.51-.77-1.06-1.51-1.63-2.21a.43.43,0,1,1,.66-.54c.59.72,1.15,1.49,1.68,2.28a.43.43,0,0,1-.12.59A.35.35,0,0,1,1323.26,131.42Zm-34.62,3.75a.33.33,0,0,1-.14,0,.43.43,0,0,1-.39-.46,11.6,11.6,0,0,1,.61-2.9h0l.6-1.05a.42.42,0,0,1,.58-.15.44.44,0,0,1,.16.58l-.62,1.08a11.53,11.53,0,0,0-.48,2.52A.42.42,0,0,1,1288.64,135.17Zm31.1-8.06a.44.44,0,0,1-.4-.12,25,25,0,0,0-2-1.83.42.42,0,0,1-.07-.6.43.43,0,0,1,.6-.06,25,25,0,0,1,2.11,1.89.43.43,0,0,1,0,.6A.45.45,0,0,1,1319.74,127.11Zm-4.33-3.49a.43.43,0,0,1-.33-.06,24.08,24.08,0,0,0-2.39-1.34.43.43,0,0,1,.38-.77,27,27,0,0,1,2.47,1.39.42.42,0,0,1,.13.59A.45.45,0,0,1,1315.41,123.62ZM1291.18,129a.37.37,0,0,1-.31,0,.42.42,0,0,1-.16-.58l1.39-2.42a.43.43,0,0,1,.74.42l-1.39,2.42A.39.39,0,0,1,1291.18,129Zm19.24-7.82a.39.39,0,0,1-.24,0c-.84-.31-1.73-.59-2.62-.83a.42.42,0,1,1,.21-.82,27.46,27.46,0,0,1,2.7.85.42.42,0,0,1,.25.54A.43.43,0,0,1,1310.42,121.15Zm-16.46,3a.43.43,0,0,1-.31,0,.42.42,0,0,1-.16-.58l1.39-2.42a.43.43,0,0,1,.59-.15.42.42,0,0,1,.15.58l-1.39,2.42A.45.45,0,0,1,1294,124.14Zm11.08-4.41h-.17c-.88-.15-1.8-.27-2.73-.35a.43.43,0,0,1-.38-.47.41.41,0,0,1,.46-.38c1,.08,1.89.21,2.79.36a.42.42,0,0,1,.35.49A.43.43,0,0,1,1305,119.73Zm-5.54-.52-.11,0c-.82,0-1.66,0-2.52,0a.43.43,0,0,1-.44,0,.45.45,0,0,1-.16-.59l.16-.26h.23c.93,0,1.85-.05,2.75,0a.43.43,0,0,1,.41.44A.41.41,0,0,1,1299.5,119.21Z"/><path class="cls-8" d="M1292.75,127s-2.3,12.15,6.44,14.79,18.21,3.15,20.25,6.92c0,0-.1-24.17-24.12-25.23Z"/><path class="cls-9" d="M1266.94,123.59s-6.29,10.39-4.2,13.93c2,3.37,25,18.35,27.27,19.81a.24.24,0,0,0,.31-.06h0a3.12,3.12,0,0,0,.51-2.77c-1.36-4.6-5.53-18.33-8.12-22.07C1279.58,127.91,1266.94,123.59,1266.94,123.59Z"/><path class="cls-7" d="M1282.75,150.65a.33.33,0,0,1-.22,0c-.13-.09-12.6-8.51-17.83-12.35a2.91,2.91,0,0,1-1.13-3,43.18,43.18,0,0,1,2.72-8.39.27.27,0,0,1,.37-.13.28.28,0,0,1,.14.37,42,42,0,0,0-2.68,8.27,2.33,2.33,0,0,0,.91,2.4c5.22,3.83,17.68,12.25,17.81,12.33a.28.28,0,0,1,.07.39A.31.31,0,0,1,1282.75,150.65Z"/><path class="cls-9" d="M1284.08,101.2s8.38-8.78,12.35-7.69c3.77,1,24.25,19.37,26.24,21.15a.22.22,0,0,1,0,.31h0a3.07,3.07,0,0,1-2.54,1.22c-4.8-.1-19.13-.55-23.42-2.07C1291.54,112.28,1284.08,101.2,1284.08,101.2Z"/><path class="cls-7" d="M1314.1,109.68a.27.27,0,0,1-.24-.06c-.12-.1-11.5-9.94-16.55-14a2.37,2.37,0,0,0-2.56-.25,42.77,42.77,0,0,0-7.29,4.75.28.28,0,0,1-.39,0,.29.29,0,0,1,0-.4,43.81,43.81,0,0,1,7.39-4.81,2.91,2.91,0,0,1,3.16.31c5.07,4,16.46,13.89,16.57,14a.27.27,0,0,1,0,.39A.24.24,0,0,1,1314.1,109.68Z"/><path class="cls-74" d="M1234.66,98.69a62.66,62.66,0,0,0,13.45,14.22,178.53,178.53,0,0,0,37.68,22.56,2.39,2.39,0,0,0,2.41-.34,42,42,0,0,0,12.29-15.81,3.47,3.47,0,0,0-.45-3.57,180.52,180.52,0,0,0-31.19-29.93,62.65,62.65,0,0,0-17.11-9.23C1242.5,83.54,1237.3,93.1,1234.66,98.69Z"/><path class="cls-9" d="M1251.74,76.59a65.22,65.22,0,0,0-26.3-3.61,1.17,1.17,0,0,0-1,1.38,64.94,64.94,0,0,0,10.27,24.33C1237.3,93.1,1242.5,83.54,1251.74,76.59Z"/><ellipse class="cls-5" cx="1257.3" cy="98.48" rx="11.3" ry="10.53" transform="translate(414.89 1037.02) rotate(-52.57)"/><path class="cls-3" d="M1262.73,90.9c3.68,2.82,4.21,8.3,1.19,12.25s-8.46,4.87-12.14,2-4.21-8.3-1.19-12.25S1259.05,88.09,1262.73,90.9Z"/><path class="cls-75" d="M1252.18,102.11a.27.27,0,0,1-.29-.11,7,7,0,0,1,.27-8.3,7.24,7.24,0,0,1,1.67-1.6.28.28,0,0,1,.39.07.27.27,0,0,1-.07.39A6.59,6.59,0,0,0,1252.6,94a6.46,6.46,0,0,0-.25,7.64.28.28,0,0,1-.07.39A.18.18,0,0,1,1252.18,102.11Z"/><path class="cls-5" d="M1278.64,105.42a7.48,7.48,0,1,1-10.06,1.7A7.21,7.21,0,0,1,1278.64,105.42Z"/><path class="cls-3" d="M1277.69,106.34a6,6,0,1,1-8,1.35A5.75,5.75,0,0,1,1277.69,106.34Z"/><path class="cls-76" d="M1270.74,113.84a.3.3,0,0,1-.29-.11,4.75,4.75,0,0,1,.18-5.6,5,5,0,0,1,1.13-1.08.28.28,0,1,1,.31.46,4.5,4.5,0,0,0-1,.95,4.19,4.19,0,0,0-.16,4.94.28.28,0,0,1-.07.39Z"/><path class="cls-77" d="M1031.49,79l64.73-50.64a1.43,1.43,0,0,0,.5-.71l4-13.12a1.51,1.51,0,0,1,.67-.84l2.61-1.48a1.43,1.43,0,0,1,.86-.18l8.11.79a1.45,1.45,0,0,1,1.29,1.21l.61,3.79a1.48,1.48,0,0,1-.24,1.06l-1.09,1.57a1.48,1.48,0,0,0-.08,1.53h0a1.42,1.42,0,0,1-.18,1.65,29.32,29.32,0,0,1-10.13,7.13,1.58,1.58,0,0,0-.5.34l-62,65.27C1040.08,96.94,1030.8,79.51,1031.49,79Z"/><path class="cls-78" d="M1105.74,23.45a.42.42,0,0,1-.16,0,.34.34,0,0,1-.13-.46c.08-.15,2-3.57,4.4-2.83,1.89.58,2.42.36,2.42.36a.31.31,0,0,1,.45.1.34.34,0,0,1-.1.47c-.15.1-.8.37-3-.29-1.9-.59-3.61,2.48-3.63,2.51A.33.33,0,0,1,1105.74,23.45Z"/><path class="cls-8" d="M1031.68,78.82l-29.25,24.51,9.05,20.93,32.87-30.41C1038,89.49,1033.59,84.54,1031.68,78.82Z"/><path class="cls-79" d="M840.32,331.38a15.42,15.42,0,0,1,2.78-8.09c-2.76.9-3.8,2.95-4.44,8.44-.77,6.52-2.14,24.19-2.5,28.1a8.07,8.07,0,0,0,2.5,7.1c.41.42,1.05.22,1.81-.37a12.7,12.7,0,0,1-2.48-5.67C837.5,358.26,839.68,340,840.32,331.38Z"/><path class="cls-80" d="M858.37,326.25,853.58,320a38.14,38.14,0,0,1-8.72,2.84,10.88,10.88,0,0,0-1.76.41,15.42,15.42,0,0,0-2.78,8.09c-.64,8.63-2.82,26.88-2.33,29.51a12.7,12.7,0,0,0,2.48,5.67c1.54-1.21,3.58-4.12,5.12-7.09,2.29-4.43,10.07-17.68,11.89-22.63A23.62,23.62,0,0,0,858.37,326.25Z"/><path class="cls-81" d="M923.63,269.76a15.49,15.49,0,0,1,4.08-7.52c-2.87.44-4.23,2.29-5.78,7.59-1.83,6.31-6.1,23.51-7.11,27.31a8.07,8.07,0,0,0,1.29,7.41c.33.48,1,.4,1.85-.06a12.75,12.75,0,0,1-1.51-6C916.4,295.81,921.57,278.17,923.63,269.76Z"/><path class="cls-82" d="M942.28,267.7l-3.7-6.93a37.94,37.94,0,0,1-9.07,1.36,12.52,12.52,0,0,0-1.8.11,15.49,15.49,0,0,0-4.08,7.52c-2.06,8.41-7.23,26.05-7.18,28.72a12.75,12.75,0,0,0,1.51,6c1.72-.94,4.21-3.47,6.22-6.15,3-4,12.86-15.77,15.48-20.35A23.71,23.71,0,0,0,942.28,267.7Z"/><path class="cls-83" d="M858.37,311.12c-.84,1.11-7,12.25-8.29,14.67a3.81,3.81,0,0,0-.43,1.31,5.48,5.48,0,0,0,2.62,5.4,3.69,3.69,0,0,0,5-.84L868.36,317Z"/><path class="cls-84" d="M944.79,252.78c-1,.95-8.9,10.93-10.61,13.09a3.66,3.66,0,0,0-.64,1.22,5.49,5.49,0,0,0,1.69,5.76,3.68,3.68,0,0,0,5,0l12-13.82Z"/><path class="cls-85" d="M959.8,200.21c0-3.09,17.75-2,33.32-3.79a8.75,8.75,0,0,1,7.29,14.79l-47.14,48.64a3.7,3.7,0,0,1-3.81,1,22.75,22.75,0,0,1-6.92-3.59,3.36,3.36,0,0,1-.62-4.56l21.67-30.85-19.77,5.7-75,92.78a3.88,3.88,0,0,1-5.09.85,31.43,31.43,0,0,1-7.09-5.78,3.62,3.62,0,0,1-.22-4.31c8.27-12.64,53.24-81.52,55.37-88.68,2.35-7.88,11-22.31,19.05-22.83S959.8,200.21,959.8,200.21Z"/><path class="cls-86" d="M964.77,221.4a.5.5,0,0,1-.13-1l17.78-4.71a.5.5,0,1,1,.26,1l-17.78,4.71Z"/><path class="cls-87" d="M945.59,226.21a.48.48,0,0,1-.34-.13.5.5,0,0,1,0-.71l4.44-4.81a.5.5,0,0,1,.71,0,.5.5,0,0,1,0,.71L946,226.05A.5.5,0,0,1,945.59,226.21Z"/><path class="cls-9" d="M1011.48,102.44s9.4,9.6,7.78,26.15a25.93,25.93,0,0,1-5.38,13.36l-47.43,61.2A6.7,6.7,0,0,1,962,205.7c-7,.85-25.52,2.52-38.65-1.82a1.77,1.77,0,0,1-1-2.54l43.12-75.86L991.6,95.09S1004.05,90.81,1011.48,102.44Z"/><path class="cls-88" d="M875.16,170.81a.52.52,0,0,1-.46-.28.53.53,0,0,1,.21-.72c.18-.1,18.39-10,22.26-13.22a.53.53,0,1,1,.68.82c-4,3.27-21.68,12.93-22.43,13.33A.48.48,0,0,1,875.16,170.81Z"/><path class="cls-89" d="M1013.76,73.91l-14.17,20a3.35,3.35,0,0,0,.29,4.23c1.91,2,5.13,4.91,8.6,5.57a2.72,2.72,0,0,0,2.78-1.17L1018.79,91S1020.24,72.8,1013.76,73.91Z"/><path class="cls-90" d="M1017.76,57.18c.29.27,12.09,23.46,12.09,23.46l-13.38,6.46L1002,66.79S1013,52.67,1017.76,57.18Z"/><path class="cls-91" d="M1008.1,69.22l6.67,11.13a2,2,0,0,0,.37.45c.79.74,3.51,2.89,5.61,0,1.79-2.5,3.48-4.77,5.28-5.71a2.14,2.14,0,0,1,2.88,1,81,81,0,0,1,4.56,10.84,2.12,2.12,0,0,1-1.23,2.6,58.82,58.82,0,0,1-12.82,3.74,2.13,2.13,0,0,1-2-.86c-2-2.8-7.81-10.62-9.77-12.58s-5.2-1.14-6.72-.7a2.22,2.22,0,0,1-1.71-.22c-1.54-.93-4.23-3.25-1.77-7.16a2.14,2.14,0,0,0-.66-2.9c-1.72-1.14-3.59-3.26-1.81-6.7s5-3.8,7.21-3.53a2.22,2.22,0,0,0,2.33-1.29c.38-.92,1.39-.56,1.88-1.19s.31-.93.58-1.42c.89-1.56.83-2.81,2.85-3.7a9,9,0,0,1,5.05-.44,5.92,5.92,0,0,1,2.64,1,7.4,7.4,0,0,1,1.63,1.93c1,1.47,2,3.26,1.35,4.9-1,2.48-5.09,2.93-7.27,3.7a8.21,8.21,0,0,0-5.27,5.34A2.13,2.13,0,0,0,1008.1,69.22Z"/><path class="cls-92" d="M1010.13,83.83s-2.56-7.51-5.85-7.23-5.87,3.55-1.8,7.23C1007.55,88.4,1010.13,83.83,1010.13,83.83Z"/><path class="cls-43" d="M1061.21,190.76v-49.9a12,12,0,0,0-11.82-12c-19.68-.22-60.26-.23-93.47,2.57a9,9,0,0,0-8.22,8.64l-3.1,48.24a11.42,11.42,0,0,0,11.2,11.84l94,1.78A11.21,11.21,0,0,0,1061.21,190.76Z"/><path class="cls-7" d="M1049.82,146.26c.08,4.24,0,11-.15,15.33a3.84,3.84,0,0,1-4.29,3.73l-16.19-1.9a3.85,3.85,0,0,1-3.36-4.39l2-13.26a3.84,3.84,0,0,1,3.8-3.27H1046A3.85,3.85,0,0,1,1049.82,146.26Z"/><path class="cls-44" d="M1007.5,171.39,994,172.84a3,3,0,0,1-3.36-3.25l3-40.18c5.66-.18,11.25-.31,16.64-.4v39.35A3.06,3.06,0,0,1,1007.5,171.39Z"/><path class="cls-7" d="M1002,164.42a1.36,1.36,0,0,1-1.35,1.28h-.08a1.36,1.36,0,0,1-1.28-1.44l2-35.07,2.72-.06Z"/><path class="cls-93" d="M1042.33,158.92a.46.46,0,0,0,.45-.43l.7-11.05a.45.45,0,0,0-.42-.48.44.44,0,0,0-.48.43l-.71,11a.46.46,0,0,0,.43.48Z"/><path class="cls-94" d="M1040.88,158.92a.46.46,0,0,0,.46-.44l.37-11.26a.46.46,0,0,0-.44-.47.43.43,0,0,0-.47.44l-.37,11.26a.46.46,0,0,0,.44.47Z"/><path class="cls-95" d="M1038.93,158.91a.45.45,0,0,1-.43-.47c.18-3.78.52-11,.53-11.24a.45.45,0,1,1,.9,0c0,.18-.44,9.42-.53,11.27a.45.45,0,0,1-.45.44Zm.09-11.7h0Z"/><path class="cls-96" d="M1035.93,159.37a.91.91,0,0,0,.91-.88c.38-10.9.31-11.15.27-11.31a.9.9,0,0,0-1.77.36c0,.65-.18,7-.31,10.89a.91.91,0,0,0,.87.94Z"/><path class="cls-97" d="M1034,158.92a.46.46,0,0,0,.45-.46v-11a.45.45,0,1,0-.9,0v11A.46.46,0,0,0,1034,158.92Z"/><path class="cls-98" d="M1032.38,158.92a.46.46,0,0,0,.46-.45c.08-3.84.29-10.1.47-10.86a.44.44,0,0,0,0-.47.46.46,0,0,0-.63-.13c-.24.16-.48.32-.73,11.44a.46.46,0,0,0,.44.47Z"/><path class="cls-99" d="M1044.76,159.92a.91.91,0,0,0,.91-.86l.6-11.6a.91.91,0,0,0-.86-1,.92.92,0,0,0-1,.86l-.6,11.6a.91.91,0,0,0,.86.95Z"/><path class="cls-8" d="M1023.06,58c-11.36-21.46-40.8-2-27.1,16.11C1006.15,67.3,1017.66,57.23,1023.06,58Z"/><path class="cls-8" d="M1000.39,127.56l-25.52-13.08s-18.22,18-22.88,42.38a67.18,67.18,0,0,1,24.64,6.61C978.73,151.94,1000.39,127.56,1000.39,127.56Z"/><path class="cls-100" d="M1021.41,170.22s-31.83,18-42.57,2.63a12.07,12.07,0,0,1-2.21-9.38A67.18,67.18,0,0,0,952,156.86,33.73,33.73,0,0,0,955.65,180c18.81,34.4,70-1.91,70-1.91Z"/><path class="cls-101" d="M1022.92,179.38a3.67,3.67,0,0,1-4.5-2.86c-.63-3.22-1.41-8.17-.79-10.45,1-3.53,2.87-8.06,9.17-7.06a91.86,91.86,0,0,1,13.74,3.67s-.37,4.6-5.16,3.11l3,2.3s-.43,3.68-4.47,1.72l2.76,3a3.22,3.22,0,0,1-4.72,1.09C1029.47,172.34,1028.07,178,1022.92,179.38Z"/><path class="cls-102" d="M862.38,174.87a1.71,1.71,0,0,0-1.2,2.44c2.3,4.63,9.08,14.86,23,11.64,17.88-4.13,72.4-45.34,84.74-56.6s28.7-25.29,36.69-23.33,3.18-2.68-2.36-6.4-7.6-9.18-3.48-8.16c0,0-9.94-3.23-25.14,5.15-14.84,8.18-87.34,36.15-111.61,28.05a1.55,1.55,0,0,0-2,1.21c-1,5.53-2.44,22.84,11.75,42.31A47.54,47.54,0,0,1,862.38,174.87Z"/><path class="cls-9" d="M1005.32,67.05l20.4-.63a1.48,1.48,0,0,0,1.24-.76,13.82,13.82,0,0,1,7.85-6.56.41.41,0,0,0-.11-.8l-12.51-.85h0c-6.23.48-11.75,4.23-17,9.15A.26.26,0,0,0,1005.32,67.05Z"/><rect class="cls-103" x="293.78" y="581.34" width="293.6" height="27.18"/><rect class="cls-104" x="287.38" y="581.34" width="8.53" height="33.57"/><path class="cls-8" d="M584.18,427.57c0-6.42-6.77-11.94-14.12-11.94H293.14c-7.35,0-12.68,5.52-12.68,11.94V573.5c0,6.42,5.33,11.57,12.68,11.57H570.06c7.35,0,14.12-5.15,14.12-11.57Z"/><path class="cls-9" d="M574.59,433.45c0-5.87-5.15-10.9-12.09-10.9H301.27c-6.93,0-13.89,5-13.89,10.9v133.4c0,5.87,7,10.76,13.89,10.76H562.5c6.94,0,12.09-4.89,12.09-10.76Z"/><path class="cls-105" d="M680.37,533.89l-18.19-56.22a3.42,3.42,0,0,0-3.25-2.36H585.78V608.52h98.9Z"/><path class="cls-106" d="M685.22,588.16a6.11,6.11,0,0,0-3.53-1l-76.2,1.46-.34,21.66,76.13,1.87c2.8,0,5.21-1.35,5.21-3.24V590.61A2.72,2.72,0,0,0,685.22,588.16Z"/><path class="cls-107" d="M666.17,530l-11-43.78a3.75,3.75,0,0,0-3.31-2.92h-43a4.07,4.07,0,0,0-3.42,4l1,35a3.47,3.47,0,0,0,2.87,3.31l53,8.58a3.4,3.4,0,0,0,3.86-4.19Z"/><path class="cls-108" d="M664,483.28l-.56.1a3.42,3.42,0,0,0-2.74,4.25l12,44.57a3.42,3.42,0,0,0,3.93,2.47l3.79-.71Z"/><rect class="cls-109" x="605.5" y="536.58" width="19.72" height="7.99" rx="3.23"/><path class="cls-110" d="M590.9,436.15a5,5,0,0,0-3.46,1.12,4.56,4.56,0,0,0-1.66,3.05v35H630.4S628,438.86,590.9,436.15Z"/><circle class="cls-111" cx="631.52" cy="610.93" r="34.65"/><circle class="cls-8" cx="631.52" cy="610.93" r="28.14" transform="translate(-62.89 72.56) rotate(-6.26)"/><path class="cls-112" d="M655.16,621.16a.52.52,0,0,1-.21,0,.53.53,0,0,1-.28-.7,24.4,24.4,0,0,0-34.37-30.78.53.53,0,0,1-.73-.2.54.54,0,0,1,.21-.73,25.46,25.46,0,0,1,35.87,32.12A.54.54,0,0,1,655.16,621.16Z"/><circle class="cls-113" cx="631.52" cy="610.93" r="12.91" transform="translate(-136.2 1038.31) rotate(-73.16)"/><circle class="cls-114" cx="417.88" cy="610.93" r="34.65"/><circle class="cls-8" cx="417.88" cy="610.93" r="28.14" transform="translate(-71.51 55.64) rotate(-7.02)"/><path class="cls-115" d="M441.52,621.16a.52.52,0,0,1-.21,0,.54.54,0,0,1-.28-.7,24.4,24.4,0,0,0-34.37-30.78.52.52,0,0,1-.72-.2.53.53,0,0,1,.2-.73A25.46,25.46,0,0,1,444,610.93a25.2,25.2,0,0,1-2,9.9A.52.52,0,0,1,441.52,621.16Z"/><circle class="cls-116" cx="417.88" cy="610.93" r="12.91" transform="translate(-272.71 877.27) rotate(-76.72)"/><circle class="cls-117" cx="338.62" cy="610.93" r="34.65"/><circle class="cls-8" cx="338.62" cy="610.93" r="28.14" transform="translate(-64.64 40.6) rotate(-6.26)"/><path class="cls-118" d="M362.25,621.16a.45.45,0,0,1-.2,0,.55.55,0,0,1-.29-.7,24.4,24.4,0,0,0-34.37-30.78.52.52,0,0,1-.72-.2.55.55,0,0,1,.2-.73,25.46,25.46,0,0,1,37.87,22.22,25.2,25.2,0,0,1-2,9.9A.52.52,0,0,1,362.25,621.16Z"/><circle class="cls-119" cx="338.62" cy="610.93" r="12.91" transform="translate(-344.22 757.98) rotate(-73.16)"/><rect class="cls-120" x="669.44" y="566.96" width="15.99" height="19.18" rx="3.42"/><path class="cls-10" d="M675.83,567v18.11h-2.38c-1.89,0-4-1.81-4-3.69V570.13c0-1.89,2.12-3.17,4-3.17Z"/><path class="cls-7" d="M591.64,562.69a.53.53,0,0,1-.53-.53V483.3a.54.54,0,0,1,1.07,0v78.86A.54.54,0,0,1,591.64,562.69Z"/><path class="cls-7" d="M622.21,471.82a.53.53,0,0,1-.5-.36c-10.3-29.84-31.53-27.67-31.75-27.65a.54.54,0,0,1-.59-.47.54.54,0,0,1,.47-.59,25,25,0,0,1,12.48,2.58c11.34,5.33,17.35,17,20.39,25.78a.53.53,0,0,1-.33.68A.47.47,0,0,1,622.21,471.82Z"/><path class="cls-7" d="M294.52,563.74c.76,2.62-.3,5.22-2.36,5.82s-4.34-1-5.09-3.66.3-5.22,2.35-5.82S293.76,561.13,294.52,563.74Z"/><circle class="cls-7" cx="278.06" cy="619.36" r="3.98"/><path class="cls-43" d="M40.12,544.34H32.89a3.14,3.14,0,0,1-3.13-3l-4-70.06A3.14,3.14,0,0,1,28.66,468l47.17-3.6a3.14,3.14,0,0,1,3.35,2.68l10.45,73.32A3.14,3.14,0,0,1,86.55,544Z"/><path class="cls-8" d="M38.16,463.09l-.91-22.94A4,4,0,0,1,41,436l29.42-2.12,1.78,30.84L42.5,467A4,4,0,0,1,38.16,463.09Z"/><polygon class="cls-9" points="70.41 433.85 94.36 433.85 94.36 464.4 72.19 464.69 70.41 433.85"/><path class="cls-9" d="M47.11,436.25l1.19,30.26h4.48s-.14-31.31-1.12-32S47,434.07,47.11,436.25Z"/><path class="cls-121" d="M45.31,465.67l7.47,78.57h4.93s-5.22-79.5-6.87-79.55S45.12,463.64,45.31,465.67Z"/><path class="cls-121" d="M34.25,486.22c2.39-.13,7.36-.44,9.73-.59a1.34,1.34,0,0,1,1.43,1.24l1.13,14.41a1.34,1.34,0,0,1-1.34,1.45H35.08a1.35,1.35,0,0,1-1.34-1.27L33,487.64A1.35,1.35,0,0,1,34.25,486.22Z"/><path class="cls-121" d="M64,513.51H71.5a1.34,1.34,0,0,1,1.34,1.34v12.83A1.34,1.34,0,0,1,71.5,529H65.07a1.35,1.35,0,0,1-1.34-1.23L62.62,515A1.34,1.34,0,0,1,64,513.51Z"/><path class="cls-9" d="M57.83,441.51h7.54a1.24,1.24,0,0,1,1.34,1.11v10.59a1.24,1.24,0,0,1-1.34,1.11H58.94a1.28,1.28,0,0,1-1.34-1l-1.11-10.59A1.22,1.22,0,0,1,57.83,441.51Z"/><rect class="cls-122" x="112.47" y="538.95" width="23" height="64.38"/><path class="cls-123" d="M169,595c-.38-3.15-7.39-74.1-9.58-76.62s-37.24-15.95-50.79-11.57a31.4,31.4,0,0,0-6.4,14.71l-10,22.17h22.68c6,.15,27.3-5.18,28.23-5.36,5.56-1.08-.13,17.78,5.82,31.22s12.49,27.06,14.59,26.88S169.41,598.14,169,595Z"/><rect class="cls-7" x="142.68" y="484.44" width="41.31" height="2.82" rx="1.17"/><path class="cls-124" d="M182.82,484.67a.94.94,0,0,1,.94.94v.48a.94.94,0,0,1-.94.93h-39a.94.94,0,0,1-.94-.93v-.48a.94.94,0,0,1,.94-.94h39m0-.47h-39a1.41,1.41,0,0,0-1.41,1.41v.48a1.41,1.41,0,0,0,1.41,1.4h39a1.41,1.41,0,0,0,1.41-1.4v-.48a1.41,1.41,0,0,0-1.41-1.41Z"/><path class="cls-125" d="M168.17,477.53s10.94-.82,11.93,3.28-.38,6.51-2.42,6.18-2.92,1-3.28-1.86-4.37-2-4.37-2Z"/><path class="cls-8" d="M154.59,468.82l-.19-.16c-1.55-1.1-8.83-2.07-14.66-3.17l-2.6-.52a25.45,25.45,0,0,1-3.65-1c-4.52-1.8-8.45-8.31-8.58-13s-2.41-14.14-9.93-6.57c0,0-7.32,5.81-3.66,21.14,2.82,11.83,17.21,14.66,25.8,15.18,4.37,2.11,33.61,3.65,33,3.07s-.21-5.21,1.16-8.51C172,473.57,163.36,471,154.59,468.82Z"/><path class="cls-125" d="M115.35,432.62s0-5,0-6.95.61-3.33.79-3.33,3.88-.07,4.73-.91,3.51-7.75,2.66-11.19-1.12-7.11.16-10,1.31-8.49.64-8.75-17.39-8.5-25.5,2.09,1.33,23.91.48,26.4a24.43,24.43,0,0,0-1,5.88l15.59,10.91Z"/><path class="cls-9" d="M96.53,427.44c-.73.59-13.81,6.47-16.53,21s2.54,58.22,5.08,59.2,38.74,2.66,40-2.29,5.58-36.32,3.22-46.52-8.35-23.33-10-24.89-8.14-2.16-9.16-2.16S96.53,427.44,96.53,427.44Z"/><path class="cls-8" d="M121.58,507.77l-.71-.16c0-.25,4.56-28,1.9-45.71s-11-26.65-11.06-26.73l.51-.56c.09.09,8.57,9.24,11.27,27.16S121.63,507.51,121.58,507.77Z"/><path class="cls-8" d="M96.53,427.44s-.37-5.49,3.27-4.12,13.38,2.67,14,5.88-.72,5.88-1.81,5.69S96.71,431.55,96.53,427.44Z"/><path class="cls-126" d="M141.23,596.19c.38,1.82-1.5,3.65,0,3.65H156s1.49-3-.9-4.63S141.23,596.19,141.23,596.19Z"/><path class="cls-126" d="M85.08,507.61a31.76,31.76,0,0,0-6.3,19.47c.22,11.65,7.4,17.26,13.45,17.26s27.15-5.85,28.08-6.05c5.53-1.22.3,17.77,6.58,31.07S140,596.1,142.12,595.88s5.91,1.57,5.46-1.57-9.19-73.9-11.43-76.36S98.53,502.91,85.08,507.61Z"/><path class="cls-125" d="M140.83,477.79s12.12-.92,13.21,3.63-.42,7.22-2.68,6.85-3.24,1.12-3.63-2.06-4.85-2.26-4.85-2.26Z"/><polygon class="cls-127" points="116.14 422.34 105.22 419.33 115.34 427.44 116.14 422.34"/><path class="cls-8" d="M128,391.5a2.15,2.15,0,0,1-.65.27c-3.76,1.11-18.89.87-22.14,3.91a16.5,16.5,0,0,0-2,2.23,7.36,7.36,0,0,0-1.61,3.52,93.88,93.88,0,0,0-.48,11.06c.24,3.84-1.54,8.94-5.62,6.84s-13.15-2.87-12.06-17.77,1-28.88,18.16-31.36S125,377.52,128,382.61,130.07,390.06,128,391.5Z"/><path class="cls-127" d="M118.88,416.19a4.77,4.77,0,0,1-1.93-.35c-1.83-.83-1.62-2.08-1.61-2.14a.36.36,0,0,1,.43-.3.39.39,0,0,1,.28.46s-.07.69,1.18,1.26c1.44.66,3.92,0,4,0a.36.36,0,0,1,.44.28.4.4,0,0,1-.26.48A10.58,10.58,0,0,1,118.88,416.19Z"/><path class="cls-127" d="M118.48,411.62a.34.34,0,0,1-.32-.21.4.4,0,0,1,.15-.53c.42-.24,1.51-1,1.5-1.8a2.64,2.64,0,0,0-.84-1.55,4.61,4.61,0,0,1-.83-1.25c-.42-1.12,1.24-3.29,1.76-3.93a.36.36,0,0,1,.52,0,.41.41,0,0,1,0,.55c-.93,1.15-1.8,2.68-1.64,3.13a4.2,4.2,0,0,0,.7,1,3.37,3.37,0,0,1,1,2.07c0,1.39-1.7,2.4-1.89,2.51A.35.35,0,0,1,118.48,411.62Z"/><path class="cls-128" d="M115.69,401.56c0,1-.39,1.76-.88,1.76s-.88-.79-.88-1.76.4-1.76.88-1.76S115.69,400.59,115.69,401.56Z"/><path class="cls-128" d="M122.64,401.51c0,.8-.32,1.45-.72,1.45s-.72-.65-.72-1.45.32-1.45.72-1.45S122.64,400.71,122.64,401.51Z"/><path class="cls-128" d="M113,399a5,5,0,0,1,.89-1.44c.23-.25.33-.3.63-.2a2.47,2.47,0,0,0,.75.17c.71,0,.7-1.14,0-1.17-.34,0-.63-.24-1-.26a1.26,1.26,0,0,0-.92.37,5.69,5.69,0,0,0-1.31,1.94c-.29.68.65,1.28.94.59Z"/><path class="cls-128" d="M121.86,397.82a.73.73,0,0,1,.89.25.53.53,0,0,0,.74.21.61.61,0,0,0,.2-.8,1.79,1.79,0,0,0-2.12-.8c-.66.25-.37,1.39.29,1.14Z"/><g class="cls-129"><path class="cls-7" d="M128.17,408.67c-1.22,2.49-21.24,2.58-23.16,1.88s-1.67-2.27-1.91-4.75c-.12-1.26-.12-4.59-.09-7.57a16.52,16.52,0,0,1,2-2.24c3.25-3,18.38-2.79,22.14-3.9h0S129.37,406.19,128.17,408.67Z"/></g><path class="cls-8" d="M88.47,457s3,23.44,11.18,35.72,12.82,15.77,12.82,15.77l8.4-.87,1.61-26.87Z"/><path class="cls-8" d="M130.42,468.13a1.54,1.54,0,0,0-.17-.19c-1.32-1.37-8.3-3.65-13.84-5.79l-2.46-1a25.23,25.23,0,0,1-3.4-1.66c-4.11-2.6-6.8-9.72-6.08-14.37s.21-14.34-8.56-8.26c0,0-8.26,4.38-7.44,20.12.63,12.15,14.26,17.55,22.61,19.62,3.92,2.86,32.39,9.68,31.94,9s.75-5.16,2.69-8.16C146.69,476,138.65,471.84,130.42,468.13Z"/><circle class="cls-130" cx="75.8" cy="613.88" r="29.76" transform="translate(-220.75 71.06) rotate(-21.61)"/><circle class="cls-131" cx="69.88" cy="613.88" r="29.76" transform="translate(-221.16 68.88) rotate(-21.61)"/><circle class="cls-132" cx="69.88" cy="613.88" r="23.79" transform="translate(-547.43 588.33) rotate(-81.14)"/><rect class="cls-133" x="39.04" y="545.46" width="74.47" height="57.37"/><path class="cls-7" d="M69.88,615.78A3.75,3.75,0,1,1,73.63,612,3.75,3.75,0,0,1,69.88,615.78Z"/><path class="cls-124" d="M69.88,608.52A3.51,3.51,0,1,1,66.37,612a3.52,3.52,0,0,1,3.51-3.51m0-.47a4,4,0,1,0,4,4,4,4,0,0,0-4-4Z"/><path class="cls-134" d="M214.73,599.84c-2.39.6-53.63,6-53.63,6l-10.61-6a68.81,68.81,0,0,0,0-24.21c-2.39-13.14-14.34-48.7-12.25-51.39,1.19-1.53,15.06-7,27.52-10.62.87-.25,1.73-.51,2.58-.74,8.3-2.3,15.48-3.59,17.11-2.08,4.18,3.88,24.8,26,29.28,52S217.12,599.24,214.73,599.84Z"/><path class="cls-132" d="M193.59,582.3l-2.24-.18c0-.09.72-9.43-1.13-29.09-1.67-17.79-21.16-36.37-24.46-39.41.87-.25,1.73-.51,2.58-.74,3.53,3.22,22.35,21.22,24.11,39.94C194.32,572.71,193.62,581.92,193.59,582.3Z"/><rect class="cls-135" x="90.43" y="599.84" width="72.91" height="5.98" rx="2.34"/><path class="cls-43" d="M95.81,589.6c.56,14.63,0,19.93-8.75,24.61a60.39,60.39,0,0,1-6.71,3c-15.24,5.82-53.56,2.24-65.69-3.59s0-43.24,0-43.24S68.08,559.09,85.8,557c1.66-.19,3-.31,4-.33C101,556.44,95.14,571.9,95.81,589.6Z"/><path class="cls-136" d="M95.81,589.6c.56,14.63,0,19.93-8.75,24.61h0C78.29,616.64,77,582.84,77,582.84c.41-13.78,4.16-21.56,8.84-25.85,1.66-.19,3-.31,4-.33C101,556.44,95.14,571.9,95.81,589.6Z"/><path class="cls-137" d="M32.47,552.63s-13.3,2.91-16.21,12.55-4.26,12.1-1.57,13.67,44.59,4.7,51.32,4.48,11.43,2,13-3.59,3.37-8.29,8.07-13.89,7.86-7.55,6.74-8.22S52.93,549,32.47,552.63Z"/><path class="cls-7" d="M36.43,579.18s-1.12,3.92,0,5.16,11.65,2.24,11.87.67,1.91-3.36.68-4.71S36.71,577.92,36.43,579.18Z"/><circle class="cls-138" cx="197.08" cy="613.88" r="29.76" transform="translate(-445.98 660.41) rotate(-76.34)"/><circle class="cls-131" cx="191.17" cy="613.88" r="29.76" transform="translate(-450.5 654.66) rotate(-76.34)"/><circle class="cls-132" cx="191.17" cy="613.88" r="23.79" transform="translate(-450.44 655.53) rotate(-76.42)"/><ellipse class="cls-7" cx="169.6" cy="565.12" rx="4.65" ry="5.66" transform="translate(-150.41 69.42) rotate(-16.14)"/><path class="cls-139" d="M181.86,515.13c-1.29.43-14.34,2.08-22.53,2.63a27.68,27.68,0,0,1-6.35,0c-2.79-.87-5.14-10.22-3.24-13a13.25,13.25,0,0,1,9.11-6.88,20.2,20.2,0,0,1,6.28-.44c12,.9,17-1,18.23,3.63S183.66,514.53,181.86,515.13Z"/><path class="cls-140" d="M159.33,517.76a27.68,27.68,0,0,1-6.35,0c-2.79-.87-5.14-10.22-3.24-13a13.25,13.25,0,0,1,9.11-6.88c-1.36,1-2.53,2.29-2.53,3.29C156.32,503.15,156.47,516,159.33,517.76Z"/><rect class="cls-7" x="164.83" y="503.48" width="8.67" height="5.98" rx="2.61" transform="translate(-68.16 28.13) rotate(-7.92)"/><rect class="cls-8" x="29.93" y="544.34" width="85.83" height="7.36" rx="2.34"/><polygon class="cls-141" points="195.15 612.03 187.19 584.38 173.29 590.09 191.17 612.03 195.15 612.03"/><path class="cls-142" d="M167.82,597.15s-6.87,0-4.48-6.87S178,569.36,192,569.36s24.51,6.4,27.19,19-3.93,16.42-8.06,14.43-16.74-16.91-26.89-14.43S170.25,597.65,167.82,597.15Z"/><polygon class="cls-143" points="159.33 487.49 163.34 497.43 169.76 497.94 171.37 487.49 159.33 487.49"/></g></g></svg>