<svg xmlns="http://www.w3.org/2000/svg" xmlns:xlink="http://www.w3.org/1999/xlink" viewBox="0 0 680 270.14"><defs><style>.cls-1{isolation:isolate;}.cls-131,.cls-2{fill:#231f20;}.cls-2{opacity:0.12;}.cls-3,.cls-6{fill:#8193ca;}.cls-4{opacity:0.53;}.cls-5{fill:#98b1dc;}.cls-6{mix-blend-mode:overlay;}.cls-10,.cls-44,.cls-7{fill:#fff;}.cls-8{fill:#ea8439;}.cls-9{fill:#f89748;}.cls-10,.cls-11{opacity:0.8;}.cls-12{opacity:0.56;}.cls-13{fill:url(#linear-gradient);}.cls-14{fill:url(#linear-gradient-2);}.cls-15{fill:url(#linear-gradient-3);}.cls-16{fill:url(#linear-gradient-4);}.cls-17{fill:url(#linear-gradient-5);}.cls-18{fill:url(#linear-gradient-6);}.cls-19{fill:url(#linear-gradient-7);}.cls-20{fill:url(#linear-gradient-8);}.cls-21{fill:url(#linear-gradient-9);}.cls-22{fill:url(#linear-gradient-10);}.cls-23{fill:url(#linear-gradient-11);}.cls-24{fill:url(#linear-gradient-12);}.cls-25{fill:url(#linear-gradient-13);}.cls-26{fill:url(#linear-gradient-14);}.cls-27{fill:url(#linear-gradient-15);}.cls-28{fill:url(#linear-gradient-16);}.cls-29{fill:url(#linear-gradient-17);}.cls-30{fill:url(#linear-gradient-18);}.cls-31{fill:url(#linear-gradient-19);}.cls-32{fill:url(#linear-gradient-20);}.cls-33{fill:url(#linear-gradient-21);}.cls-34{fill:url(#linear-gradient-22);}.cls-35{fill:url(#linear-gradient-23);}.cls-36{fill:url(#linear-gradient-24);}.cls-37{fill:url(#linear-gradient-25);}.cls-38{fill:url(#linear-gradient-26);}.cls-39{fill:url(#linear-gradient-27);}.cls-40{fill:url(#linear-gradient-28);}.cls-41{fill:url(#linear-gradient-29);}.cls-42{fill:url(#linear-gradient-30);}.cls-43{fill:#f4c24a;}.cls-44{opacity:0.37;}.cls-45{fill:url(#linear-gradient-31);}.cls-46{fill:url(#linear-gradient-32);}.cls-47{fill:url(#linear-gradient-33);}.cls-48{fill:url(#linear-gradient-34);}.cls-49{fill:url(#linear-gradient-35);}.cls-50{fill:url(#linear-gradient-36);}.cls-51{fill:url(#linear-gradient-37);}.cls-52{fill:url(#linear-gradient-38);}.cls-53{fill:url(#linear-gradient-39);}.cls-54{fill:url(#linear-gradient-40);}.cls-55{fill:url(#linear-gradient-41);}.cls-56{fill:url(#linear-gradient-42);}.cls-57{fill:url(#linear-gradient-43);}.cls-58{fill:url(#linear-gradient-44);}.cls-59{fill:url(#linear-gradient-45);}.cls-60{fill:url(#linear-gradient-46);}.cls-61{fill:url(#linear-gradient-47);}.cls-62{fill:url(#linear-gradient-48);}.cls-63{fill:url(#linear-gradient-49);}.cls-64{fill:url(#linear-gradient-50);}.cls-65{fill:url(#linear-gradient-51);}.cls-66{fill:url(#linear-gradient-52);}.cls-67{fill:url(#linear-gradient-53);}.cls-68{fill:url(#linear-gradient-54);}.cls-69{fill:url(#linear-gradient-55);}.cls-70{fill:url(#linear-gradient-56);}.cls-71{fill:url(#linear-gradient-57);}.cls-72{fill:url(#linear-gradient-58);}.cls-73{fill:url(#linear-gradient-59);}.cls-74{fill:url(#linear-gradient-60);}.cls-75{fill:url(#linear-gradient-61);}.cls-76{fill:url(#linear-gradient-62);}.cls-77{fill:url(#linear-gradient-63);}.cls-78{fill:url(#linear-gradient-64);}.cls-79{fill:url(#linear-gradient-65);}.cls-80{fill:url(#linear-gradient-66);}.cls-81{fill:url(#linear-gradient-67);}.cls-82{fill:url(#linear-gradient-68);}.cls-83{fill:url(#linear-gradient-69);}.cls-84{fill:url(#linear-gradient-70);}.cls-85{fill:url(#linear-gradient-71);}.cls-86{fill:url(#linear-gradient-72);}.cls-87{fill:url(#linear-gradient-73);}.cls-88{fill:url(#linear-gradient-74);}.cls-89{fill:url(#linear-gradient-75);}.cls-90{fill:url(#linear-gradient-76);}.cls-91{fill:url(#linear-gradient-77);}.cls-92{fill:url(#linear-gradient-78);}.cls-93{fill:url(#linear-gradient-79);}.cls-94{fill:url(#linear-gradient-80);}.cls-95{fill:url(#linear-gradient-81);}.cls-96{fill:url(#linear-gradient-82);}.cls-97{fill:url(#linear-gradient-83);}.cls-98{fill:url(#linear-gradient-84);}.cls-99{fill:url(#linear-gradient-85);}.cls-100{fill:url(#linear-gradient-86);}.cls-101{fill:url(#linear-gradient-87);}.cls-102{fill:url(#linear-gradient-88);}.cls-103{fill:url(#linear-gradient-89);}.cls-104{fill:url(#linear-gradient-90);}.cls-105{fill:url(#linear-gradient-91);}.cls-106{fill:url(#linear-gradient-92);}.cls-107{fill:url(#linear-gradient-93);}.cls-108{fill:url(#linear-gradient-94);}.cls-109{fill:url(#linear-gradient-95);}.cls-110{fill:url(#linear-gradient-96);}.cls-111{fill:url(#linear-gradient-97);}.cls-112{fill:url(#linear-gradient-98);}.cls-113{fill:url(#linear-gradient-99);}.cls-114{fill:url(#linear-gradient-100);}.cls-115{fill:url(#linear-gradient-101);}.cls-116{fill:url(#linear-gradient-102);}.cls-117{fill:url(#linear-gradient-103);}.cls-118{fill:url(#linear-gradient-104);}.cls-119{fill:url(#linear-gradient-105);}.cls-120{fill:#e0ab33;}.cls-121{fill:url(#linear-gradient-106);}.cls-122{fill:#23375c;}.cls-123{fill:#010101;}.cls-124{fill:#f79e86;}.cls-125{fill:#2d4d9d;}.cls-126{fill:#c43f52;}.cls-127{fill:#481f54;}.cls-128{opacity:0.54;}.cls-129{fill:url(#linear-gradient-107);}.cls-130{fill:#1a3854;}.cls-132{fill:url(#linear-gradient-108);}.cls-133{fill:url(#linear-gradient-109);}.cls-134{fill:url(#linear-gradient-110);}.cls-135{fill:#e5b038;}.cls-136{fill:#ffd38e;}.cls-137{fill:url(#linear-gradient-111);}.cls-138{fill:url(#linear-gradient-112);}.cls-139{fill:url(#linear-gradient-113);}.cls-140{fill:url(#linear-gradient-114);}.cls-141{fill:url(#linear-gradient-115);}.cls-142{fill:url(#linear-gradient-116);}</style><linearGradient id="linear-gradient" x1="288.7" y1="101.15" x2="274.8" y2="116.35" gradientUnits="userSpaceOnUse"><stop offset="0" stop-color="#201b59"/><stop offset="1" stop-color="#2d2d84"/></linearGradient><linearGradient id="linear-gradient-2" x1="280.88" y1="105.14" x2="270.16" y2="116.15" xlink:href="#linear-gradient"/><linearGradient id="linear-gradient-3" x1="296.14" y1="108.2" x2="297.66" y2="122.4" gradientTransform="translate(5.75 252.59) rotate(-46.42)" xlink:href="#linear-gradient"/><linearGradient id="linear-gradient-4" x1="298.7" y1="116.25" x2="304.85" y2="136.47" xlink:href="#linear-gradient"/><linearGradient id="linear-gradient-5" x1="265.9" y1="110.85" x2="259.44" y2="123.84" gradientTransform="translate(355.36 391.39) rotate(-133.58)" xlink:href="#linear-gradient"/><linearGradient id="linear-gradient-6" x1="259.8" y1="114.56" x2="260.03" y2="132.65" xlink:href="#linear-gradient"/><linearGradient id="linear-gradient-7" x1="254.2" y1="138.98" x2="303.83" y2="138.98" xlink:href="#linear-gradient"/><linearGradient id="linear-gradient-8" x1="274.64" y1="154.6" x2="290.69" y2="101.59" gradientUnits="userSpaceOnUse"><stop offset="0" stop-color="#dbe2f3"/><stop offset="1" stop-color="#eaeff8"/></linearGradient><linearGradient id="linear-gradient-9" x1="280.73" y1="138.28" x2="258.68" y2="153.77" xlink:href="#linear-gradient"/><linearGradient id="linear-gradient-10" x1="-253.62" y1="140.01" x2="-258.87" y2="147.41" gradientTransform="matrix(-1, 0, 0, 1, 360.54, 0)" gradientUnits="userSpaceOnUse"><stop offset="0" stop-color="#f5928f"/><stop offset="1" stop-color="#f8b2b1"/></linearGradient><linearGradient id="linear-gradient-11" x1="-291.77" y1="214.17" x2="-292.21" y2="242.88" gradientTransform="matrix(-1, 0, 0, 1, 360.54, 0)" xlink:href="#linear-gradient"/><linearGradient id="linear-gradient-12" x1="633.98" y1="260.55" x2="687.55" y2="277.72" gradientUnits="userSpaceOnUse"><stop offset="0" stop-color="#4c57a6"/><stop offset="1" stop-color="#5560ab"/></linearGradient><linearGradient id="linear-gradient-13" x1="-288.57" y1="250.62" x2="-290.59" y2="268.27" xlink:href="#linear-gradient-10"/><linearGradient id="linear-gradient-14" x1="617.43" y1="261.78" x2="647.68" y2="274.85" xlink:href="#linear-gradient-12"/><linearGradient id="linear-gradient-15" x1="-266.98" y1="214.55" x2="-267.43" y2="243.26" gradientTransform="matrix(-1, 0, 0, 1, 360.54, 0)" xlink:href="#linear-gradient"/><linearGradient id="linear-gradient-16" x1="-272.1" y1="252.51" x2="-274.12" y2="270.16" xlink:href="#linear-gradient-10"/><linearGradient id="linear-gradient-17" x1="642.24" y1="226.29" x2="570.69" y2="289.01" xlink:href="#linear-gradient-12"/><linearGradient id="linear-gradient-18" x1="-257.83" y1="130.64" x2="-245.26" y2="189.87" xlink:href="#linear-gradient-10"/><linearGradient id="linear-gradient-19" x1="-272.99" y1="170.09" x2="-266.93" y2="148.71" gradientTransform="matrix(-1, 0, 0, 1, 360.54, 0)" gradientUnits="userSpaceOnUse"><stop offset="0" stop-color="#66cdf3"/><stop offset="1" stop-color="#4a5aa8"/></linearGradient><linearGradient id="linear-gradient-20" x1="274.58" y1="64.98" x2="236.17" y2="119.18" gradientTransform="matrix(-1, 0.1, 0.1, 1, 871.89, 32.14)" xlink:href="#linear-gradient"/><linearGradient id="linear-gradient-21" x1="631.55" y1="92.31" x2="608.8" y2="145.09" xlink:href="#linear-gradient-12"/><linearGradient id="linear-gradient-22" x1="-252.68" y1="127.58" x2="-238.54" y2="194.16" xlink:href="#linear-gradient-10"/><linearGradient id="linear-gradient-23" x1="678.78" y1="124.1" x2="615.61" y2="201.83" xlink:href="#linear-gradient"/><linearGradient id="linear-gradient-24" x1="785.94" y1="353.75" x2="746.95" y2="316.12" gradientTransform="translate(-161.35 -116.98) rotate(-4.3)" xlink:href="#linear-gradient-10"/><linearGradient id="linear-gradient-25" x1="792.12" y1="355.23" x2="747.51" y2="312.19" gradientTransform="translate(-161.35 -116.98) rotate(-4.3)" xlink:href="#linear-gradient-10"/><linearGradient id="linear-gradient-26" x1="-284.1" y1="137.61" x2="-291.82" y2="170.98" xlink:href="#linear-gradient-10"/><linearGradient id="linear-gradient-27" x1="-1678.39" y1="-1939.97" x2="-1692.09" y2="-1921.85" gradientTransform="matrix(-0.93, -0.36, -0.36, 0.93, -1619.82, 1340.14)" xlink:href="#linear-gradient-10"/><linearGradient id="linear-gradient-28" x1="-1688.85" y1="-1935.61" x2="-1672.49" y2="-1935.61" gradientTransform="matrix(-0.93, -0.36, -0.36, 0.93, -1619.82, 1340.14)" xlink:href="#linear-gradient"/><linearGradient id="linear-gradient-29" x1="-1698.2" y1="-1925.7" x2="-1687.36" y2="-1936.82" gradientTransform="matrix(-0.93, -0.36, -0.36, 0.93, -1619.82, 1340.14)" xlink:href="#linear-gradient-10"/><linearGradient id="linear-gradient-30" x1="698.86" y1="140.75" x2="670.15" y2="155.76" xlink:href="#linear-gradient"/><linearGradient id="linear-gradient-31" x1="-4220.46" y1="226.88" x2="-4242.07" y2="258.28" gradientTransform="matrix(-1, 0, 0, 1, -3738.41, 0)" xlink:href="#linear-gradient"/><linearGradient id="linear-gradient-32" x1="-4219.68" y1="227.42" x2="-4241.29" y2="258.82" gradientTransform="matrix(-1, 0, 0, 1, -3738.41, 0)" xlink:href="#linear-gradient"/><linearGradient id="linear-gradient-33" x1="-4218.74" y1="228.06" x2="-4240.36" y2="259.46" gradientTransform="matrix(-1, 0, 0, 1, -3738.41, 0)" xlink:href="#linear-gradient"/><linearGradient id="linear-gradient-34" x1="-4217.12" y1="229.18" x2="-4238.73" y2="260.58" gradientTransform="matrix(-1, 0, 0, 1, -3738.41, 0)" xlink:href="#linear-gradient"/><linearGradient id="linear-gradient-35" x1="-4216.05" y1="229.91" x2="-4237.66" y2="261.32" gradientTransform="matrix(-1, 0, 0, 1, -3738.41, 0)" xlink:href="#linear-gradient"/><linearGradient id="linear-gradient-36" x1="-4215.39" y1="230.37" x2="-4237" y2="261.77" gradientTransform="matrix(-1, 0, 0, 1, -3738.41, 0)" xlink:href="#linear-gradient"/><linearGradient id="linear-gradient-37" x1="-4221.57" y1="226.12" x2="-4243.18" y2="257.52" gradientTransform="matrix(-1, 0, 0, 1, -3738.41, 0)" xlink:href="#linear-gradient"/><linearGradient id="linear-gradient-38" x1="-4214.03" y1="186.09" x2="-4229.2" y2="208.14" gradientTransform="matrix(-1, 0, 0, 1, -3738.41, 0)" xlink:href="#linear-gradient"/><linearGradient id="linear-gradient-39" x1="-4213.48" y1="186.46" x2="-4228.66" y2="208.52" gradientTransform="matrix(-1, 0, 0, 1, -3738.41, 0)" xlink:href="#linear-gradient"/><linearGradient id="linear-gradient-40" x1="-4212.82" y1="186.92" x2="-4228" y2="208.97" gradientTransform="matrix(-1, 0, 0, 1, -3738.41, 0)" xlink:href="#linear-gradient"/><linearGradient id="linear-gradient-41" x1="-4211.68" y1="187.7" x2="-4226.86" y2="209.75" gradientTransform="matrix(-1, 0, 0, 1, -3738.41, 0)" xlink:href="#linear-gradient"/><linearGradient id="linear-gradient-42" x1="-4210.93" y1="188.22" x2="-4226.11" y2="210.27" gradientTransform="matrix(-1, 0, 0, 1, -3738.41, 0)" xlink:href="#linear-gradient"/><linearGradient id="linear-gradient-43" x1="-4210.47" y1="188.54" x2="-4225.64" y2="210.59" gradientTransform="matrix(-1, 0, 0, 1, -3738.41, 0)" xlink:href="#linear-gradient"/><linearGradient id="linear-gradient-44" x1="-4214.81" y1="185.55" x2="-4229.99" y2="207.6" gradientTransform="matrix(-1, 0, 0, 1, -3738.41, 0)" xlink:href="#linear-gradient"/><linearGradient id="linear-gradient-45" x1="577.77" y1="113.57" x2="493.5" y2="221.38" gradientTransform="matrix(1, 0, 0, 1, 0, 0)" xlink:href="#linear-gradient-10"/><linearGradient id="linear-gradient-46" x1="587.45" y1="141.75" x2="539.99" y2="202.47" gradientTransform="matrix(1, 0, 0, 1, 0, 0)" xlink:href="#linear-gradient-10"/><linearGradient id="linear-gradient-47" x1="516.32" y1="279.36" x2="544.59" y2="242.25" xlink:href="#linear-gradient"/><linearGradient id="linear-gradient-48" x1="3546.06" y1="258.26" x2="3550.6" y2="258.26" gradientTransform="translate(-3025.81)" xlink:href="#linear-gradient-10"/><linearGradient id="linear-gradient-49" x1="3525.2" y1="137.57" x2="3547.86" y2="236.05" gradientTransform="translate(-3025.81)" xlink:href="#linear-gradient"/><linearGradient id="linear-gradient-50" x1="502.84" y1="269.09" x2="531.11" y2="231.99" xlink:href="#linear-gradient"/><linearGradient id="linear-gradient-51" x1="3529.69" y1="258.03" x2="3533.61" y2="258.03" gradientTransform="translate(-3025.81)" xlink:href="#linear-gradient-10"/><linearGradient id="linear-gradient-52" x1="3517.67" y1="137.55" x2="3540.62" y2="237.3" gradientTransform="translate(-3025.81)" xlink:href="#linear-gradient"/><linearGradient id="linear-gradient-53" x1="3536.17" y1="145.18" x2="3546.38" y2="145.18" gradientTransform="translate(-3025.81)" xlink:href="#linear-gradient-10"/><linearGradient id="linear-gradient-54" x1="-3594.98" y1="149.28" x2="-3598.79" y2="136.7" gradientTransform="matrix(0.75, -0.67, 0.67, 0.75, 3105.45, -2366.57)" xlink:href="#linear-gradient-10"/><linearGradient id="linear-gradient-55" x1="-3599.31" y1="130.41" x2="-3596.63" y2="145.71" gradientTransform="matrix(0.75, -0.67, 0.67, 0.75, 3105.45, -2366.57)" xlink:href="#linear-gradient"/><linearGradient id="linear-gradient-56" x1="-3598.88" y1="149.22" x2="-3602.31" y2="137.9" gradientTransform="matrix(0.75, -0.67, 0.67, 0.75, 3105.45, -2366.57)" xlink:href="#linear-gradient-10"/><linearGradient id="linear-gradient-57" x1="5587.88" y1="175.41" x2="5616.82" y2="175.41" gradientTransform="translate(-5098.92)" xlink:href="#linear-gradient-10"/><linearGradient id="linear-gradient-58" x1="561.29" y1="143.84" x2="545.83" y2="155.76" xlink:href="#linear-gradient"/><linearGradient id="linear-gradient-59" x1="5614.67" y1="172.38" x2="5623.69" y2="172.38" gradientTransform="translate(-5098.92)" xlink:href="#linear-gradient-10"/><linearGradient id="linear-gradient-60" x1="588.05" y1="21.54" x2="585.11" y2="31.7" xlink:href="#linear-gradient"/><linearGradient id="linear-gradient-61" x1="574.25" y1="40.02" x2="575.74" y2="40.02" xlink:href="#linear-gradient-8"/><linearGradient id="linear-gradient-62" x1="582.11" y1="45.55" x2="583.17" y2="45.55" xlink:href="#linear-gradient-8"/><linearGradient id="linear-gradient-63" x1="553.87" y1="-20.24" x2="543.27" y2="-11.84" gradientTransform="matrix(1, 0, 0, 1, 0, 0)" xlink:href="#linear-gradient-10"/><linearGradient id="linear-gradient-64" x1="416.33" y1="138.97" x2="511.96" y2="107.39" xlink:href="#linear-gradient-12"/><linearGradient id="linear-gradient-65" x1="403.18" y1="142.07" x2="411.76" y2="142.07" xlink:href="#linear-gradient"/><linearGradient id="linear-gradient-66" x1="412.02" y1="125.92" x2="507.65" y2="94.34" xlink:href="#linear-gradient-12"/><linearGradient id="linear-gradient-67" x1="435.73" y1="116.92" x2="446.44" y2="116.92" xlink:href="#linear-gradient"/><linearGradient id="linear-gradient-68" x1="408.03" y1="133.29" x2="415.8" y2="133.29" gradientTransform="matrix(1, 0, 0, 1, 0, 0)" xlink:href="#linear-gradient-10"/><linearGradient id="linear-gradient-69" x1="442.72" y1="108.91" x2="450.56" y2="108.91" gradientTransform="matrix(1, 0, 0, 1, 0, 0)" xlink:href="#linear-gradient-10"/><linearGradient id="linear-gradient-70" x1="485.71" y1="56.21" x2="434.95" y2="105.3" xlink:href="#linear-gradient"/><linearGradient id="linear-gradient-71" x1="459.11" y1="90.65" x2="450.93" y2="97.72" xlink:href="#linear-gradient"/><linearGradient id="linear-gradient-72" x1="449.58" y1="91.11" x2="445.19" y2="97.39" xlink:href="#linear-gradient"/><linearGradient id="linear-gradient-73" x1="426.56" y1="63.5" x2="419.94" y2="71.71" gradientUnits="userSpaceOnUse"><stop offset="0" stop-color="#f7c115"/><stop offset="1" stop-color="#9c1f60"/></linearGradient><linearGradient id="linear-gradient-74" x1="650.93" y1="-900.56" x2="660.7" y2="-910.58" gradientTransform="translate(-402.32 732.81) rotate(15.65)" xlink:href="#linear-gradient-10"/><linearGradient id="linear-gradient-75" x1="-837.1" y1="-169.45" x2="-849.47" y2="-153.08" gradientTransform="translate(1173.23 -468.05) rotate(-46.73)" xlink:href="#linear-gradient-10"/><linearGradient id="linear-gradient-76" x1="-846.55" y1="-165.52" x2="-833.01" y2="-165.52" gradientTransform="translate(1173.23 -468.05) rotate(-46.73)" xlink:href="#linear-gradient"/><linearGradient id="linear-gradient-77" x1="-855.22" y1="-156.49" x2="-845.3" y2="-166.67" gradientTransform="translate(1173.23 -468.05) rotate(-46.73)" xlink:href="#linear-gradient-10"/><linearGradient id="linear-gradient-78" x1="255.55" y1="59.87" x2="243.54" y2="77.33" gradientTransform="matrix(-1, 0, 0, 1, 741.33, 0)" xlink:href="#linear-gradient"/><linearGradient id="linear-gradient-79" x1="255.98" y1="60.17" x2="243.97" y2="77.63" gradientTransform="matrix(-1, 0, 0, 1, 741.33, 0)" xlink:href="#linear-gradient"/><linearGradient id="linear-gradient-80" x1="256.5" y1="60.53" x2="244.49" y2="77.99" gradientTransform="matrix(-1, 0, 0, 1, 741.33, 0)" xlink:href="#linear-gradient"/><linearGradient id="linear-gradient-81" x1="257.4" y1="61.15" x2="245.39" y2="78.61" gradientTransform="matrix(-1, 0, 0, 1, 741.33, 0)" xlink:href="#linear-gradient"/><linearGradient id="linear-gradient-82" x1="258" y1="61.56" x2="245.99" y2="79.02" gradientTransform="matrix(-1, 0, 0, 1, 741.33, 0)" xlink:href="#linear-gradient"/><linearGradient id="linear-gradient-83" x1="258.37" y1="61.81" x2="246.35" y2="79.27" gradientTransform="matrix(-1, 0, 0, 1, 741.33, 0)" xlink:href="#linear-gradient"/><linearGradient id="linear-gradient-84" x1="254.93" y1="59.45" x2="242.92" y2="76.9" gradientTransform="matrix(-1, 0, 0, 1, 741.33, 0)" xlink:href="#linear-gradient"/><linearGradient id="linear-gradient-85" x1="494.55" y1="33.15" x2="479.53" y2="51.92" gradientTransform="matrix(1, 0, 0, 1, 0, 0)" xlink:href="#linear-gradient-10"/><linearGradient id="linear-gradient-86" x1="515.22" y1="37.63" x2="506.83" y2="45.58" gradientTransform="matrix(1, 0, 0, 1, 0, 0)" xlink:href="#linear-gradient-10"/><linearGradient id="linear-gradient-87" x1="531.83" y1="-16.62" x2="434.47" y2="55.78" xlink:href="#linear-gradient"/><linearGradient id="linear-gradient-88" x1="213.75" y1="163.05" x2="207.57" y2="201.04" xlink:href="#linear-gradient"/><linearGradient id="linear-gradient-89" x1="3657.46" y1="244.63" x2="3662.29" y2="263.5" gradientTransform="translate(-3520)" xlink:href="#linear-gradient"/><linearGradient id="linear-gradient-90" x1="260.29" y1="224.92" x2="301.27" y2="224.92" xlink:href="#linear-gradient"/><linearGradient id="linear-gradient-91" x1="3798.39" y1="248.34" x2="3843.94" y2="249.48" gradientTransform="translate(-3520)" xlink:href="#linear-gradient"/><linearGradient id="linear-gradient-92" x1="3198.07" y1="536.47" x2="3252.72" y2="506.98" gradientTransform="translate(-3520)" xlink:href="#linear-gradient"/><linearGradient id="linear-gradient-93" x1="3201.38" y1="542.61" x2="3256.04" y2="513.13" gradientTransform="translate(-3520)" xlink:href="#linear-gradient"/><linearGradient id="linear-gradient-94" x1="3806.95" y1="216.93" x2="3784.32" y2="228.62" gradientTransform="translate(-3520)" gradientUnits="userSpaceOnUse"><stop offset="0" stop-color="#e1483d"/><stop offset="1" stop-color="#e9625a"/></linearGradient><linearGradient id="linear-gradient-95" x1="3819.7" y1="174.01" x2="3768.33" y2="200.53" gradientTransform="translate(-3520)" xlink:href="#linear-gradient"/><linearGradient id="linear-gradient-96" x1="3784.88" y1="253.53" x2="3813.61" y2="253.53" gradientTransform="translate(-3520)" xlink:href="#linear-gradient"/><linearGradient id="linear-gradient-97" x1="274.26" y1="250.37" x2="290.07" y2="250.37" gradientTransform="matrix(1, 0, 0, 1, 0, 0)" xlink:href="#linear-gradient-10"/><linearGradient id="linear-gradient-98" x1="3804.51" y1="244.89" x2="3789.92" y2="268.81" gradientTransform="translate(-579.06 -3456.17) rotate(73.16)" xlink:href="#linear-gradient"/><linearGradient id="linear-gradient-99" x1="3696.34" y1="253.53" x2="3725.06" y2="253.53" gradientTransform="translate(-3520)" xlink:href="#linear-gradient"/><linearGradient id="linear-gradient-100" x1="185.72" y1="250.37" x2="201.53" y2="250.37" gradientTransform="matrix(1, 0, 0, 1, 0, 0)" xlink:href="#linear-gradient-10"/><linearGradient id="linear-gradient-101" x1="3715.97" y1="244.89" x2="3701.37" y2="268.81" gradientTransform="translate(-415.1 -3416.16) rotate(76.72)" xlink:href="#linear-gradient"/><linearGradient id="linear-gradient-102" x1="3663.48" y1="253.53" x2="3692.21" y2="253.53" gradientTransform="translate(-3520)" xlink:href="#linear-gradient"/><linearGradient id="linear-gradient-103" x1="152.87" y1="250.37" x2="168.67" y2="250.37" gradientTransform="matrix(1, 0, 0, 1, 0, 0)" xlink:href="#linear-gradient-10"/><linearGradient id="linear-gradient-104" x1="3683.12" y1="244.89" x2="3668.52" y2="268.81" gradientTransform="translate(-665.28 -3339.98) rotate(73.16)" xlink:href="#linear-gradient"/><linearGradient id="linear-gradient-105" x1="3816.27" y1="244.08" x2="3820.95" y2="232.88" gradientTransform="translate(-3520)" xlink:href="#linear-gradient-10"/><linearGradient id="linear-gradient-106" x1="42.78" y1="235.74" x2="52.31" y2="235.74" xlink:href="#linear-gradient"/><linearGradient id="linear-gradient-107" x1="15.24" y1="253.46" x2="39.91" y2="253.46" xlink:href="#linear-gradient"/><linearGradient id="linear-gradient-108" x1="12.34" y1="236.99" x2="43.21" y2="236.99" xlink:href="#linear-gradient"/><linearGradient id="linear-gradient-109" x1="53.35" y1="230.29" x2="86.25" y2="230.29" xlink:href="#linear-gradient"/><linearGradient id="linear-gradient-110" x1="33.64" y1="248.88" x2="63.86" y2="248.88" xlink:href="#linear-gradient"/><linearGradient id="linear-gradient-111" x1="65.51" y1="253.46" x2="90.18" y2="253.46" gradientTransform="translate(305.75 117.96) rotate(76.34)" xlink:href="#linear-gradient"/><linearGradient id="linear-gradient-112" x1="57.94" y1="209.45" x2="72.38" y2="209.45" xlink:href="#linear-gradient"/><linearGradient id="linear-gradient-113" x1="57.94" y1="209.55" x2="62.2" y2="209.55" xlink:href="#linear-gradient"/><linearGradient id="linear-gradient-114" x1="67.98" y1="246.97" x2="77.04" y2="246.97" xlink:href="#linear-gradient"/><linearGradient id="linear-gradient-115" x1="63.65" y1="242.05" x2="87.27" y2="242.05" xlink:href="#linear-gradient"/><linearGradient id="linear-gradient-116" x1="62.2" y1="203.24" x2="67.18" y2="203.24" xlink:href="#linear-gradient"/></defs><title>Artboard 1 copy</title><g class="cls-1"><g id="Layer_2" data-name="Layer 2"><ellipse class="cls-2" cx="220.2" cy="265.88" rx="87.46" ry="3.94"/><ellipse class="cls-2" cx="522.65" cy="265.35" rx="155.79" ry="3.94"/><ellipse class="cls-2" cx="52.99" cy="265.91" rx="50.26" ry="4.23"/><path class="cls-3" d="M651.18,65.6a4,4,0,0,0-3.92-3.9H566.52a4.34,4.34,0,0,0-4.3,4V259.21a4.09,4.09,0,0,0,1.34,2.77,4.14,4.14,0,0,0,2.87,1.15l84.43-.23a3.94,3.94,0,0,0,3.94-4Z"/><g class="cls-4"><polygon class="cls-5" points="591.72 84.5 568.71 84.47 568.53 72.68 591.55 72.68 591.72 84.5"/><polygon class="cls-5" points="617.5 84.5 594.52 84.47 594.36 72.68 617.36 72.68 617.5 84.5"/><polygon class="cls-5" points="643.25 84.49 620.3 84.46 620.17 72.68 643.14 72.68 643.25 84.49"/><polygon class="cls-5" points="592 105.67 569.04 105.68 568.86 93.97 591.84 93.96 592 105.67"/><polygon class="cls-5" points="617.74 105.65 594.8 105.67 594.64 93.96 617.61 93.95 617.74 105.65"/><polygon class="cls-5" points="643.45 105.63 620.54 105.65 620.4 93.95 643.34 93.94 643.45 105.63"/><polygon class="cls-5" points="592.29 126.68 569.37 126.71 569.18 115.04 592.13 115.02 592.29 126.68"/><polygon class="cls-5" points="617.98 126.66 595.08 126.68 594.93 115.01 617.85 115 617.98 126.66"/><polygon class="cls-5" points="643.65 126.63 620.77 126.65 620.64 114.99 643.54 114.97 643.65 126.63"/><polygon class="cls-5" points="592.57 147.63 569.69 147.66 569.51 136.03 592.42 136 592.57 147.63"/><polygon class="cls-5" points="618.22 147.59 595.36 147.62 595.21 136 618.09 135.97 618.22 147.59"/><polygon class="cls-5" points="643.85 147.55 621.01 147.59 620.88 135.97 643.74 135.94 643.85 147.55"/><polygon class="cls-5" points="592.86 168.5 570.02 168.54 569.84 156.95 592.7 156.91 592.86 168.5"/><polygon class="cls-5" points="618.46 168.45 595.64 168.5 595.49 156.91 618.33 156.87 618.46 168.45"/><polygon class="cls-5" points="644.04 168.41 621.24 168.45 621.11 156.87 643.93 156.83 644.04 168.41"/><polygon class="cls-5" points="593.14 189.3 570.34 189.35 570.16 177.8 592.99 177.75 593.14 189.3"/><polygon class="cls-5" points="618.7 189.24 595.92 189.29 595.77 177.75 618.57 177.7 618.7 189.24"/><polygon class="cls-5" points="644.24 189.18 621.48 189.24 621.35 177.7 644.13 177.65 644.24 189.18"/><polygon class="cls-5" points="593.42 210.03 570.66 210.09 570.48 198.58 593.27 198.52 593.42 210.03"/><polygon class="cls-5" points="618.94 209.96 596.2 210.02 596.04 198.51 618.81 198.46 618.94 209.96"/><polygon class="cls-5" points="644.43 209.89 621.71 209.95 621.58 198.45 644.32 198.4 644.43 209.89"/><polygon class="cls-5" points="593.71 230.69 570.98 230.76 570.8 219.28 593.55 219.22 593.71 230.69"/><polygon class="cls-5" points="619.18 230.61 596.48 230.68 596.32 219.21 619.05 219.15 619.18 230.61"/><polygon class="cls-5" points="644.62 230.53 621.95 230.6 621.82 219.14 644.52 219.07 644.62 230.53"/><polygon class="cls-5" points="593.99 251.27 571.3 251.35 571.12 239.92 593.83 239.84 593.99 251.27"/><polygon class="cls-5" points="619.41 251.18 596.75 251.26 596.6 239.84 619.28 239.76 619.41 251.18"/><polygon class="cls-5" points="644.82 251.09 622.18 251.17 622.05 239.75 644.71 239.68 644.82 251.09"/></g><path class="cls-5" d="M427.65,47a2.76,2.76,0,0,0-2.75-2.71h-91a3.12,3.12,0,0,0-3.13,2.77V259.43a4.61,4.61,0,0,0,4.56,4.27l92-.25a4.29,4.29,0,0,0,4.29-4.35Z"/><polygon class="cls-6" points="375.4 59.37 345.63 59.27 345.64 55.54 375.37 55.64 375.4 59.37"/><polygon class="cls-6" points="375.48 73.09 345.59 72.95 345.6 69.2 375.45 69.32 375.48 73.09"/><polygon class="cls-6" points="375.56 86.92 345.55 86.75 345.56 82.96 375.54 83.12 375.56 86.92"/><polygon class="cls-6" points="375.64 100.86 345.51 100.66 345.52 96.84 375.62 97.04 375.64 100.86"/><polygon class="cls-6" points="375.73 114.92 345.47 114.68 345.48 110.83 375.7 111.06 375.73 114.92"/><polygon class="cls-6" points="375.9 143.4 345.38 143.09 345.39 139.17 375.87 139.48 375.9 143.4"/><polygon class="cls-6" points="376.15 187.02 345.25 186.6 345.26 182.59 376.13 183 376.15 187.02"/><polygon class="cls-6" points="375.81 129.1 345.43 128.83 345.44 124.94 375.79 125.21 375.81 129.1"/><polygon class="cls-6" points="375.98 157.82 345.34 157.47 345.35 153.52 375.96 153.86 375.98 157.82"/><polygon class="cls-6" points="376.07 172.36 345.3 171.97 345.31 167.99 376.04 168.37 376.07 172.36"/><polygon class="cls-6" points="376.24 201.81 345.21 201.35 345.22 197.3 376.22 197.75 376.24 201.81"/><polygon class="cls-6" points="376.33 216.73 345.17 216.23 345.18 212.15 376.31 212.64 376.33 216.73"/><polygon class="cls-6" points="376.42 231.78 345.12 231.23 345.13 227.12 376.4 227.65 376.42 231.78"/><polygon class="cls-6" points="376.51 246.95 345.07 246.37 345.09 242.22 376.49 242.79 376.51 246.95"/><polygon class="cls-6" points="414.42 59.51 384.47 59.4 384.44 55.67 414.35 55.76 414.42 59.51"/><polygon class="cls-6" points="414.66 73.27 384.59 73.13 384.55 69.36 414.6 69.49 414.66 73.27"/><polygon class="cls-6" points="414.91 87.14 384.71 86.97 384.67 83.17 414.84 83.33 414.91 87.14"/><polygon class="cls-6" points="415.15 101.13 384.83 100.92 384.8 97.09 415.08 97.29 415.15 101.13"/><polygon class="cls-6" points="415.4 115.24 384.95 115 384.92 111.14 415.33 111.37 415.4 115.24"/><polygon class="cls-6" points="415.91 143.81 385.2 143.5 385.16 139.57 415.84 139.87 415.91 143.81"/><polygon class="cls-6" points="416.68 187.58 385.58 187.15 385.54 183.13 416.61 183.54 416.68 187.58"/><polygon class="cls-6" points="415.65 129.46 385.07 129.19 385.04 125.29 415.58 125.56 415.65 129.46"/><polygon class="cls-6" points="416.16 158.28 385.32 157.93 385.29 153.97 416.09 154.31 416.16 158.28"/><polygon class="cls-6" points="416.42 172.87 385.45 172.48 385.41 168.48 416.35 168.86 416.42 172.87"/><polygon class="cls-6" points="416.94 202.42 385.7 201.95 385.67 197.89 416.87 198.35 416.94 202.42"/><polygon class="cls-6" points="417.21 217.39 385.83 216.88 385.8 212.79 417.13 213.28 417.21 217.39"/><polygon class="cls-6" points="417.47 232.49 385.96 231.94 385.93 227.81 417.4 228.34 417.47 232.49"/><polygon class="cls-6" points="417.74 247.72 386.1 247.13 386.06 242.96 417.67 243.54 417.74 247.72"/><path class="cls-7" d="M393.26,45.75a.78.78,0,0,1-.65-.35.76.76,0,0,1,.22-1.07l.77-.5a.77.77,0,1,1,.84,1.3l-.76.49A.74.74,0,0,1,393.26,45.75Zm3.24-2.06a.77.77,0,0,1-.41-1.43l.79-.48a.77.77,0,0,1,1.06.26.78.78,0,0,1-.26,1.06l-.78.47A.72.72,0,0,1,396.5,43.69Zm3.3-2a.77.77,0,0,1-.39-1.44l.79-.46a.77.77,0,0,1,1.06.28.78.78,0,0,1-.29,1.06l-.79.45A.76.76,0,0,1,399.8,41.72Zm3.34-1.89a.79.79,0,0,1-.68-.4.77.77,0,0,1,.31-1l.8-.45a.77.77,0,0,1,.74,1.36l-.8.44A.82.82,0,0,1,403.14,39.83ZM406.53,38a.77.77,0,0,1-.36-1.46l.81-.42a.78.78,0,0,1,1,.34.77.77,0,0,1-.33,1l-.81.42A.85.85,0,0,1,406.53,38ZM410,36.28a.78.78,0,0,1-.34-1.47l.82-.4a.77.77,0,1,1,.68,1.38l-.82.41A.81.81,0,0,1,410,36.28Zm3.46-1.67a.77.77,0,0,1-.32-1.47l.83-.39a.77.77,0,0,1,.65,1.4l-.83.39A.75.75,0,0,1,413.41,34.61Zm3.5-1.59a.77.77,0,0,1-.31-1.48l.84-.37a.77.77,0,0,1,1,.4.75.75,0,0,1-.39,1l-.84.37A.67.67,0,0,1,416.91,33Zm3.53-1.52a.79.79,0,0,1-.72-.48.78.78,0,0,1,.42-1l.84-.35a.77.77,0,0,1,.6,1.42l-.84.36A.8.8,0,0,1,420.44,31.5ZM424,30a.77.77,0,0,1-.28-1.49l.85-.34a.77.77,0,0,1,1,.44.76.76,0,0,1-.44,1l-.84.34A1,1,0,0,1,424,30Zm127.39-.81a.86.86,0,0,1-.4-.11l-.77-.47a.77.77,0,0,1,.79-1.33l.79.48a.77.77,0,0,1-.41,1.43Zm-123.8-.58a.78.78,0,0,1-.73-.5.77.77,0,0,1,.45-1l.86-.32a.78.78,0,0,1,1,.45.79.79,0,0,1-.46,1l-.85.31A.65.65,0,0,1,427.58,28.65Zm3.6-1.31a.78.78,0,0,1-.26-1.51l.87-.3A.77.77,0,0,1,432.3,27l-.86.3A.75.75,0,0,1,431.18,27.34Zm116.88,0a.69.69,0,0,1-.37-.1l-.8-.42a.78.78,0,0,1-.32-1.05.76.76,0,0,1,1-.32l.82.44a.77.77,0,0,1-.37,1.45ZM434.81,26.08a.77.77,0,0,1-.25-1.5l.87-.29a.77.77,0,0,1,.48,1.47l-.86.28A.67.67,0,0,1,434.81,26.08Zm109.83-.53a.8.8,0,0,1-.34-.07c-.27-.14-.54-.27-.82-.39a.79.79,0,0,1-.37-1,.77.77,0,0,1,1-.37l.83.39a.77.77,0,0,1-.33,1.47ZM438.45,24.9a.77.77,0,0,1-.23-1.51l.87-.27a.77.77,0,1,1,.46,1.47l-.87.28A.85.85,0,0,1,438.45,24.9ZM541.14,24a.85.85,0,0,1-.31-.06l-.83-.35a.78.78,0,0,1-.42-1,.76.76,0,0,1,1-.42l.85.36a.77.77,0,0,1-.3,1.48Zm-99-.18a.75.75,0,0,1-.74-.55.76.76,0,0,1,.52-1l.88-.26a.76.76,0,0,1,1,.53.77.77,0,0,1-.52,1l-.87.25Zm3.68-1.05a.77.77,0,0,1-.74-.57.78.78,0,0,1,.54-.95l.88-.24a.77.77,0,0,1,.41,1.49l-.88.24A.76.76,0,0,1,445.8,22.73Zm91.77-.2a.86.86,0,0,1-.27-.05l-.85-.32a.77.77,0,0,1,.53-1.45l.86.32a.77.77,0,0,1-.27,1.5Zm-88.06-.78a.78.78,0,0,1-.19-1.53l.89-.22a.78.78,0,0,1,.94.56.79.79,0,0,1-.56.94l-.89.22A.58.58,0,0,1,449.51,21.75Zm84.44-.5a1.09,1.09,0,0,1-.25,0l-.86-.29a.77.77,0,0,1-.5-1,.77.77,0,0,1,1-.5l.88.29a.78.78,0,0,1-.24,1.51Zm-80.71-.42a.77.77,0,0,1-.75-.6.78.78,0,0,1,.57-.93l.89-.21a.78.78,0,0,1,.93.58.77.77,0,0,1-.58.93l-.88.21Zm77-.72-.21,0-.88-.25a.78.78,0,0,1-.54-.95.79.79,0,0,1,1-.54l.88.26a.77.77,0,0,1-.21,1.51ZM457,20a.77.77,0,0,1-.16-1.53l.9-.19a.75.75,0,0,1,.91.59.77.77,0,0,1-.59.92l-.89.19Zm3.77-.78a.77.77,0,0,1-.15-1.53l.9-.18a.77.77,0,0,1,.9.61.78.78,0,0,1-.61.91l-.89.17Zm65.81-.08-.19,0-.88-.22a.77.77,0,1,1,.35-1.5l.9.22a.77.77,0,0,1,.57.93A.79.79,0,0,1,526.56,19.12Zm-62-.63a.78.78,0,0,1-.13-1.54l.9-.15a.77.77,0,1,1,.27,1.52l-.9.16Zm58.29-.22-.16,0-.89-.18a.79.79,0,0,1-.61-.91.77.77,0,0,1,.91-.61l.9.19a.76.76,0,0,1,.6.91A.78.78,0,0,1,522.81,18.27Zm-54.5-.42a.77.77,0,0,1-.11-1.53l.9-.15a.78.78,0,0,1,.88.65.76.76,0,0,1-.64.88l-.9.14ZM519,17.54h-.14c-.29-.05-.59-.11-.89-.15a.78.78,0,0,1-.64-.89.77.77,0,0,1,.89-.64l.91.16a.77.77,0,0,1-.13,1.53Zm-46.91-.25a.77.77,0,0,1-.1-1.54l.91-.12a.78.78,0,0,1,.87.66.78.78,0,0,1-.67.87l-.9.12Zm43.11-.35h-.11l-.9-.12a.78.78,0,0,1,.2-1.54l.92.13a.77.77,0,0,1-.11,1.54Zm-39.29-.14a.77.77,0,0,1-.09-1.54l.91-.1a.77.77,0,1,1,.17,1.54l-.9.1Zm35.47-.34h-.08l-.91-.09a.79.79,0,0,1-.69-.85.77.77,0,0,1,.85-.69l.92.1a.77.77,0,0,1-.09,1.54Zm-31.64-.06a.77.77,0,0,1-.08-1.54l.92-.09a.77.77,0,1,1,.14,1.54l-.91.08Zm27.81-.31h-.06l-.91-.07a.79.79,0,0,1-.71-.83.77.77,0,0,1,.83-.72l.92.08a.76.76,0,0,1,.7.83A.77.77,0,0,1,507.58,16.09Zm-24,0a.77.77,0,0,1-.05-1.54l.92-.07a.78.78,0,0,1,.1,1.55l-.91.06Zm3.85-.24a.77.77,0,0,1-.77-.73.76.76,0,0,1,.73-.81l.92,0a.78.78,0,1,1,.07,1.55l-.91,0Zm16.3,0h-.05l-.91-.05a.77.77,0,1,1,.08-1.54l.92,0a.77.77,0,0,1,0,1.54Zm-12.45-.15a.78.78,0,0,1,0-1.55l.92,0a.78.78,0,1,1,0,1.55l-.91,0Zm8.6,0h0l-.91,0a.77.77,0,1,1,0-1.54l.92,0a.77.77,0,1,1,0,1.54Zm-4.76-.05a.78.78,0,0,1,0-1.55h.92a.78.78,0,0,1,0,1.55h-.92Z"/><circle class="cls-8" cx="542.42" cy="18.59" r="14.29"/><path class="cls-9" d="M556.68,17.82H528.13S527,25.75,539.75,47.47a3.12,3.12,0,0,0,5.34,0C557.84,25.76,556.68,17.82,556.68,17.82Z"/><path class="cls-10" d="M542.41,49.45v.08h0a3.54,3.54,0,0,1-3-1.75c-7.45-12.7-10.19-20.72-11.16-25.21a14.4,14.4,0,0,1-.49-3.09,8.07,8.07,0,0,1,0-1.56l0-.22a14.7,14.7,0,0,1,29.33.14,4.44,4.44,0,0,1,0,.79v.05a14.78,14.78,0,0,1-.59,4.13c-1,4.49-3.76,12.44-11.09,24.92A3.44,3.44,0,0,1,542.41,49.45Zm-13.89-31c0,.22,0,.52,0,1h0a13.46,13.46,0,0,0,.47,2.92h0c1,4.43,3.67,12.36,11.07,25a2.69,2.69,0,0,0,2.31,1.31v0a2.83,2.83,0,0,0,2.32-1.32c7.28-12.4,10-20.29,11-24.71v0a13.84,13.84,0,0,0,.48-3.91l-.09-.06h0a3.94,3.94,0,0,1,.07-.7l0,0a13.86,13.86,0,0,0-27.67.14v.42Z"/><circle class="cls-8" cx="542.46" cy="18.54" r="8.25" transform="translate(320.37 513.81) rotate(-67.8)"/><g class="cls-11"><path class="cls-7" d="M542.46,27.25a8.71,8.71,0,1,1,8.71-8.71A8.71,8.71,0,0,1,542.46,27.25Zm0-16.5a7.79,7.79,0,1,0,7.79,7.79A7.8,7.8,0,0,0,542.46,10.75Z"/></g><g class="cls-12"><path class="cls-7" d="M530.22,19.56a.14.14,0,0,1-.14-.13A12.8,12.8,0,0,1,532,12.69a.14.14,0,1,1,.24.14,12.49,12.49,0,0,0-1.88,6.6A.13.13,0,0,1,530.22,19.56Z"/></g><rect class="cls-13" x="276.3" y="107.39" width="6.08" height="7.99"/><path class="cls-14" d="M284,109.48h-9.68a1.84,1.84,0,0,1-1.84-1.84h0c-.5-2.42,1.14-4.26,4-4h7.36a2,2,0,0,1,2,2v2A1.78,1.78,0,0,1,284,109.48Z"/><rect class="cls-15" x="295.66" y="117.36" width="3.4" height="4.47" transform="translate(179.03 -178.27) rotate(46.42)"/><path class="cls-16" d="M299.85,120.67l-3.84-4a.74.74,0,0,1,0-1h0a2.49,2.49,0,0,1,3.53.08l2.48,2.61a1.34,1.34,0,0,1-.05,1.9l-.56.53A1.13,1.13,0,0,1,299.85,120.67Z"/><rect class="cls-17" x="259.9" y="117.26" width="3.4" height="4.47" transform="translate(528.5 12.33) rotate(133.58)"/><path class="cls-18" d="M259.12,120.56l3.84-4a.75.75,0,0,0,0-1.06h0a2.5,2.5,0,0,0-3.53.09l-2.55,2.68a1.25,1.25,0,0,0,0,1.76l.63.6A1.12,1.12,0,0,0,259.12,120.56Z"/><circle class="cls-19" cx="279.01" cy="138.98" r="24.81"/><circle class="cls-20" cx="279.28" cy="139.28" r="21.02"/><rect class="cls-3" x="278.77" y="118.7" width="0.76" height="6.03"/><rect class="cls-3" x="278.77" y="153.94" width="0.76" height="6.03"/><rect class="cls-3" x="293.81" y="138.69" width="6.03" height="0.76" transform="translate(-1.42 3.07) rotate(-0.59)"/><rect class="cls-3" x="258.73" y="139.03" width="6.03" height="0.76" transform="translate(-1.42 2.71) rotate(-0.59)"/><path class="cls-3" d="M279.11,139.6a.19.19,0,0,1-.15-.07l-9.19-11.74a.19.19,0,0,1,0-.27.19.19,0,0,1,.26,0l9.2,11.75a.18.18,0,0,1,0,.26A.16.16,0,0,1,279.11,139.6Z"/><path class="cls-3" d="M276.68,143.3a.74.74,0,0,1-.47-.16.76.76,0,0,1-.13-1.07l9.27-11.75a.76.76,0,1,1,1.19,1L277.27,143A.74.74,0,0,1,276.68,143.3Z"/><path class="cls-3" d="M290.74,152.38a.58.58,0,0,1-.42-.18l-14.13-15.27a.57.57,0,1,1,.83-.78l14.14,15.27a.57.57,0,0,1-.42,1Z"/><circle class="cls-21" cx="279.11" cy="139.41" r="2.05"/><path class="cls-7" d="M280.48,139.41a1.37,1.37,0,1,1-1.37-1.36A1.37,1.37,0,0,1,280.48,139.41Z"/><rect class="cls-3" x="278.77" y="119.24" width="0.76" height="3.25"/><rect class="cls-3" x="286.26" y="122.68" width="3.25" height="0.76" transform="translate(43.78 319.11) rotate(-61.92)"/><rect class="cls-3" x="293.53" y="129.72" width="3.25" height="0.76" transform="translate(-25.35 166.41) rotate(-30.25)"/><rect class="cls-3" x="295.05" y="146.62" width="0.76" height="3.25" transform="translate(24.77 337.98) rotate(-61.68)"/><rect class="cls-3" x="287.96" y="153.89" width="0.76" height="3.25" transform="translate(-39.14 164.6) rotate(-29.93)"/><rect class="cls-3" x="268.57" y="155.3" width="3.25" height="0.76" transform="translate(4.06 318.2) rotate(-61.36)"/><rect class="cls-3" x="260.97" y="147.48" width="3.25" height="0.76" transform="translate(-38.55 136.4) rotate(-27.2)"/><rect class="cls-3" x="261.72" y="130.41" width="0.76" height="3.25" transform="translate(37.03 320.36) rotate(-66.66)"/><rect class="cls-3" x="267.33" y="123.16" width="0.76" height="3.25" transform="translate(-20.01 191.53) rotate(-38.05)"/><path class="cls-3" d="M279.23,162.42a23.12,23.12,0,0,1-11.69-3.17.08.08,0,0,1,0-.11.08.08,0,0,1,.11,0,23.12,23.12,0,0,0,18.16,2.2.07.07,0,0,1,.09.05.07.07,0,0,1-.05.09A22.84,22.84,0,0,1,279.23,162.42Z"/><path class="cls-3" d="M301,146.91h0a.07.07,0,0,1,0-.1,23,23,0,0,0,1.26-7.52,22.78,22.78,0,0,0-4.7-13.92.08.08,0,0,1,0-.11.08.08,0,0,1,.1,0,22.73,22.73,0,0,1,3.48,6.49,23.22,23.22,0,0,1,0,15.09A.08.08,0,0,1,301,146.91Z"/><path class="cls-3" d="M257.06,145.68a.08.08,0,0,1-.08-.06,23.25,23.25,0,0,1-.87-6.33A23.13,23.13,0,0,1,272.91,117a.07.07,0,0,1,.09,0,.07.07,0,0,1-.05.09,23,23,0,0,0-15.82,28.4.09.09,0,0,1-.05.1Z"/><path class="cls-3" d="M273.26,108.41s-.07,0-.07-.06c-.3-1.71-.2-2.72.36-3.35,1-1.11,3.3-1,7.52-.83h.25a.08.08,0,0,1,0,.15h-.24c-4.18-.18-6.48-.28-7.4.78-.52.59-.62,1.58-.33,3.22a.08.08,0,0,1-.06.09Z"/><path class="cls-22" d="M615.8,144.17a5.33,5.33,0,0,0,.65-2.41c-.08-1.07.59-2.64-.12-2.53s-.86,0-1.05,1.31S613.35,146.57,615.8,144.17Z"/><path class="cls-23" d="M646.11,261.17a2.61,2.61,0,0,1,2.6-1.9l1.19,0a18.4,18.4,0,0,1,10.8,6.91.12.12,0,0,1-.09.18c-2,.16-6.56.47-10.44.37a17.34,17.34,0,0,1-4.66-.46A21.83,21.83,0,0,1,646.11,261.17Z"/><path class="cls-24" d="M650.13,266.62a14,14,0,0,1-4.62-.66c0,.26,0,.52,0,.79a.5.5,0,0,0,.48.52l14.22-.09a.64.64,0,0,0,.52-.94C658.88,266.39,654.13,266.73,650.13,266.62Z"/><path class="cls-25" d="M651.89,255.23l-1,4.78a.77.77,0,0,1-.67.64,6.22,6.22,0,0,1-1.54,0,1,1,0,0,1-.78-1.15l.69-4.24Z"/><path class="cls-26" d="M631.32,266.62a14,14,0,0,0,4.62-.66c0,.26,0,.52,0,.79a.51.51,0,0,1-.49.52l-14.22-.09a.64.64,0,0,1-.52-.94C622.56,266.39,627.31,266.73,631.32,266.62Z"/><path class="cls-27" d="M620.7,266.24a.39.39,0,0,1,.06-.11c1.25-1.76,4.45-5.25,10.77-6.77l3-.09a14.54,14.54,0,0,1,1.38,6.69,14,14,0,0,1-4.62.66C627.31,266.73,622.56,266.39,620.7,266.24Z"/><path class="cls-28" d="M635.12,254.67c0,.23-.45,3.66-.61,5a.64.64,0,0,1-.55.59,7,7,0,0,1-2.08,0,.89.89,0,0,1-.68-.9v-5.39Z"/><path class="cls-29" d="M637.56,192a269.45,269.45,0,0,0-7.18,62.76,1.35,1.35,0,0,0,1.07,1.32,14.88,14.88,0,0,0,3.39.39,1.24,1.24,0,0,0,1.2-1c1-6,6.91-39.89,10.26-45.39,0,0,2.2,30.17,1.5,45.82a.74.74,0,0,0,.65.77,12.75,12.75,0,0,0,2.73,0,1,1,0,0,0,.88-.85c.73-5.09,4.93-35.38,4.75-57.2,0-1.23-3.25-6.58-3.25-6.58Z"/><path class="cls-30" d="M610.28,167.47c-1.64-8.93.18-21.89.18-21.89l3.53,3.49s-.38,10.67,1.9,15.64A7.64,7.64,0,0,0,610.28,167.47Z"/><path class="cls-31" d="M632.16,169.53h0a.18.18,0,0,0,.15-.19c0-.08-.94-7.58-.44-9.74a.16.16,0,0,0-.12-.2.17.17,0,0,0-.21.13c-.52,2.22.39,9.54.43,9.85A.16.16,0,0,0,632.16,169.53Z"/><path class="cls-32" d="M609.67,123.55a1.4,1.4,0,0,1,.45-1.11,1.38,1.38,0,0,1,1.14-.37l10.43,1.33a.81.81,0,0,1,.71.81L622,151a.43.43,0,0,1-.13.3.39.39,0,0,1-.31.12l-9-.21a1.42,1.42,0,0,1-1.38-1.34Z"/><path class="cls-9" d="M612.69,124.81a.82.82,0,0,1,.26-.63.8.8,0,0,1,.66-.2l6.88,1a.79.79,0,0,1,.68.8l-.35,22.84a.46.46,0,0,1-.15.31.41.41,0,0,1-.32.11l-6.3-.5a.43.43,0,0,1-.4-.41Z"/><path class="cls-33" d="M616.49,123.82c0,.08.11.16.26.18l2.29.25c.16,0,.29,0,.3-.12v-.08c0-.08-.11-.16-.27-.18l-2.29-.24c-.15,0-.28,0-.29.11Z"/><path class="cls-34" d="M608.72,139.45c.79-.29,2.34-3,2.64-2.09s-.12,2.09,0,2.46,1,2.46.6,3.42a36.55,36.55,0,0,0-1,4c-.08.37-.12.86-.51.86s-.73-.47-.81-.85C609.64,147.06,607.93,139.74,608.72,139.45Z"/><path class="cls-35" d="M659.83,168.66c4.22-9.3,4.67-15.82,0-18.6a6.07,6.07,0,0,0-.85-.16c-1.48-.19-3.54-.45-5.9-.77h0a76.75,76.75,0,0,0-10.22-1.41c-4.94-.3-10.26,0-12.4,2.45a35.24,35.24,0,0,1-4.23,7.29c-4,5.21-5.92,11-8,9.88a9,9,0,0,1-2.19-2.88,8.29,8.29,0,0,0-6,2.68c1.72,9.37,7.43,13.24,21.41,1.74,2.66,7.51,6.12,18.07,5.17,25a1.06,1.06,0,0,0,.9,1.21c3.18.48,12.68,1.65,17.61-.32a.76.76,0,0,0,.47-.71,83.23,83.23,0,0,1,3.94-24C659.62,169.56,659.74,169.11,659.83,168.66Z"/><path class="cls-36" d="M621.31,153.05a2.28,2.28,0,0,1,2.58-.94c2.29,7.22,11.86,12.49,21.44,14.7-.41,2.65-5.65,2.92-8.38,6.61C623.2,165.69,621.31,153.05,621.31,153.05Z"/><path class="cls-37" d="M621.62,153.38c-.09.4,2.23.57,2.46-1,0-.76-.2-3.83-.7-4.41a60.57,60.57,0,0,0-7.63-6.87,1.11,1.11,0,0,0,0,1.55l2.45,2.19a11,11,0,0,0-1.13,2.72,3.15,3.15,0,0,0,.49,2.31c.45.69,1.07,1.58,1.63,2.27A3.13,3.13,0,0,0,621.62,153.38Z"/><path class="cls-38" d="M650.48,140.21l.95,9.71s-5.46,1.65-9.44-1.16l2.8-8.82Z"/><path class="cls-39" d="M641.21,131.94c-.07.17-.34,12.1-.34,12.1h6.81l2-11.27S642.29,129.12,641.21,131.94Z"/><path class="cls-40" d="M647.29,134.19a1,1,0,0,1,.3.81l-.54,5.92a1.1,1.1,0,0,1-.06.26c-.19.47-.88,1.9-2.33,1.1a8.8,8.8,0,0,0-3.32-1.31,1,1,0,0,0-1,1,37.26,37.26,0,0,0,.26,5.39,1,1,0,0,0,1,.83,27.75,27.75,0,0,0,6-1,1,1,0,0,0,.66-.76c.29-1.56,1.12-6,1.54-7.15s1.93-1.5,2.64-1.62a1,1,0,0,0,.66-.43,2.15,2.15,0,0,0-.69-3.31,1,1,0,0,1-.3-1.33,2.16,2.16,0,0,0-.58-3.13,3.05,3.05,0,0,0-3.69,0,1,1,0,0,1-1.22-.07.62.62,0,0,0-.62-.14,1,1,0,0,1-1.18-.68,2.51,2.51,0,0,0-2.51-2c-3-.17-4.08,3-3.74,5s3.61,2.05,5.4,1.46C645.35,132.59,646.68,133.62,647.29,134.19Z"/><path class="cls-41" d="M649.35,141.34s-.12-3.52,1.29-4.05,3.13.3,2.18,2.63C651.64,142.82,649.35,141.34,649.35,141.34Z"/><path class="cls-42" d="M654.79,157.23c-5.16,7.14-6.85,8.69-15.47,7.77l-4.27,7.84c6.94,4,18.3.61,24.78-4.18C664.21,161.69,666,145.58,654.79,157.23Z"/><path class="cls-43" d="M500,261v-37.2a8.91,8.91,0,0,0-8.82-8.92c-14.67-.16-44.92-.17-69.68,1.92a6.69,6.69,0,0,0-6.13,6.44l-2.31,36a8.52,8.52,0,0,0,8.35,8.82l70.07,1.33A8.36,8.36,0,0,0,500,261Z"/><path class="cls-44" d="M459.9,246.57l-10.07,1.08a2.27,2.27,0,0,1-2.51-2.42l2.2-30c4.23-.13,8.39-.23,12.41-.3v29.34A2.28,2.28,0,0,1,459.9,246.57Z"/><path class="cls-7" d="M455.77,241.37a1,1,0,0,1-1,1h-.06a1,1,0,0,1-.95-1.07l1.52-26.15,2-.05Z"/><path class="cls-45" d="M485.87,237.27a.34.34,0,0,0,.33-.32l.53-8.23a.34.34,0,0,0-.32-.36.33.33,0,0,0-.36.31l-.52,8.24a.34.34,0,0,0,.32.36Z"/><path class="cls-46" d="M484.79,237.27a.34.34,0,0,0,.34-.33l.27-8.39a.34.34,0,0,0-.32-.35.32.32,0,0,0-.35.33l-.28,8.39a.35.35,0,0,0,.33.35Z"/><path class="cls-47" d="M483.34,237.27a.34.34,0,0,1-.33-.35c.14-2.82.39-8.2.4-8.38a.34.34,0,1,1,.67,0c0,.14-.33,7-.39,8.41a.34.34,0,0,1-.34.32Zm.06-8.73h0Z"/><path class="cls-48" d="M481.1,237.61a.67.67,0,0,0,.67-.66c.29-8.13.24-8.31.21-8.43a.69.69,0,0,0-.83-.48.68.68,0,0,0-.49.75c0,.48-.13,5.22-.24,8.12a.69.69,0,0,0,.66.7Z"/><path class="cls-49" d="M479.64,237.27a.34.34,0,0,0,.33-.34V228.7a.34.34,0,1,0-.67,0v8.23A.34.34,0,0,0,479.64,237.27Z"/><path class="cls-50" d="M478.45,237.27a.34.34,0,0,0,.34-.33c.07-2.86.22-7.54.35-8.1a.34.34,0,0,0-.48-.45c-.18.13-.36.24-.54,8.53a.34.34,0,0,0,.33.35Z"/><path class="cls-51" d="M487.68,238a.68.68,0,0,0,.68-.64l.45-8.65a.68.68,0,0,0-.64-.71.69.69,0,0,0-.71.64l-.45,8.65a.68.68,0,0,0,.64.71Z"/><path class="cls-43" d="M488.19,210.06V183.93a6.27,6.27,0,0,0-6.2-6.27c-10.3-.11-31.55-.11-48.93,1.35a4.71,4.71,0,0,0-4.3,4.53l-1.63,25.26A6,6,0,0,0,433,215l49.21.94A5.88,5.88,0,0,0,488.19,210.06Z"/><path class="cls-7" d="M482.22,186.76c0,2.22,0,5.75-.08,8a2,2,0,0,1-2.24,2l-8.48-1a2,2,0,0,1-1.76-2.3l1-6.94a2,2,0,0,1,2-1.71h7.52A2,2,0,0,1,482.22,186.76Z"/><path class="cls-44" d="M460.06,199.91l-7.07.76a1.59,1.59,0,0,1-1.76-1.7l1.54-21c3-.09,5.89-.16,8.72-.21v20.61A1.6,1.6,0,0,1,460.06,199.91Z"/><path class="cls-7" d="M457.16,196.27a.71.71,0,0,1-.71.67h0a.71.71,0,0,1-.67-.75l1.07-18.36,1.43,0Z"/><path class="cls-52" d="M478.3,193.38a.22.22,0,0,0,.23-.22l.37-5.78a.23.23,0,0,0-.22-.25.22.22,0,0,0-.25.22l-.37,5.78a.24.24,0,0,0,.22.25Z"/><path class="cls-53" d="M477.54,193.38a.23.23,0,0,0,.24-.23l.19-5.89a.24.24,0,0,0-.23-.25.22.22,0,0,0-.24.23l-.19,5.9a.22.22,0,0,0,.23.24Z"/><path class="cls-54" d="M476.52,193.38a.24.24,0,0,1-.23-.25c.1-2,.28-5.75.28-5.88a.24.24,0,0,1,.24-.24.23.23,0,0,1,.23.24c0,.1-.23,4.94-.27,5.91a.24.24,0,0,1-.24.22Zm.05-6.13Z"/><path class="cls-55" d="M475,193.62a.47.47,0,0,0,.47-.46c.2-5.71.17-5.84.15-5.92a.49.49,0,0,0-.59-.34.48.48,0,0,0-.34.52c0,.35-.09,3.67-.16,5.71a.47.47,0,0,0,.45.49Z"/><path class="cls-56" d="M473.92,193.38a.23.23,0,0,0,.24-.23v-5.79a.24.24,0,0,0-.24-.24.23.23,0,0,0-.23.24v5.79A.23.23,0,0,0,473.92,193.38Z"/><path class="cls-57" d="M473.09,193.38a.23.23,0,0,0,.24-.23c0-2,.15-5.29.25-5.69a.23.23,0,0,0,0-.24.24.24,0,0,0-.33-.07c-.13.08-.25.17-.38,6a.23.23,0,0,0,.23.24Z"/><path class="cls-58" d="M479.57,193.91a.49.49,0,0,0,.48-.45l.31-6.07a.46.46,0,0,0-.45-.5.48.48,0,0,0-.49.45l-.32,6.07a.49.49,0,0,0,.45.5Z"/><path class="cls-59" d="M570.6,155.14,567.17,157a30.09,30.09,0,0,1-11.1,4.32c-10.33,1.55-17.07-5-22.09-8.93-6.62-5.22-11.78-2.68-11.78-2.68l7.07,13.49c10.55,9.95,21.37,7.74,28.19,4.51a31.54,31.54,0,0,0,7.07-4.51C572.29,158.56,570.6,155.14,570.6,155.14Z"/><path class="cls-60" d="M580.7,160a2.59,2.59,0,0,0-1.48-1.62l-7-2.79s-.1-.9,1.47-1.5a2.09,2.09,0,0,0,1.21-2.37s-2.15,1-5.3,2.54a7.41,7.41,0,0,0-3.35,3.64l1.79,2.36a32,32,0,0,0,13,1Z"/><path class="cls-61" d="M520.68,258.27s-.53,3-.79,6a2,2,0,0,0,2,2.21c3.95.17,12.4.49,15.43.35a.66.66,0,0,0,.59-.91h0a1.49,1.49,0,0,0-.76-.8l-14-6.42Z"/><path class="cls-62" d="M520.25,256.51l.42,3.59s2.45,1.14,4.12-.15l-1-4Z"/><path class="cls-63" d="M519.57,186.75c-.19,1,.33,50.84,5.22,72.12.08.34.59,1,.41,1.32-.42.73-3.55.53-5.32.59-.54,0-.83-.62-1-1.17-1.4-4.93-8.1-29.66-9-53.29-1-26.39,0-.9,0-.9l-.43-16.72Z"/><path class="cls-64" d="M504.62,259.84a21.67,21.67,0,0,0-1.66,5.53,1.26,1.26,0,0,0,1.1,1.5c1.31.12,3.31.29,4.92.28a1.25,1.25,0,0,0,1.23-1.39,10.41,10.41,0,0,0-2.44-5.75Z"/><path class="cls-65" d="M503.88,255.23l1,5.42a3.49,3.49,0,0,0,2.92.2l-.47-5.83Z"/><path class="cls-66" d="M501.49,188.69c-4,25.22.58,64.26,2.22,71.52a1.11,1.11,0,0,0,.87.86,7,7,0,0,0,3.13-.13,1,1,0,0,0,.72-1c.22-5.87-.18-41.91,3.55-56.16a3.2,3.2,0,0,1,1.2-1.78l6.14-5,.11-10.78Z"/><path class="cls-9" d="M524.43,148.24c-10.55-.17-22.19,2.77-22.19,2.77-2.59,15.12-1.55,31.89-1,37.41.11,1.13-.5,2.33.62,2.51a52.53,52.53,0,0,0,16.9-.8c1-.29.81-1.34,1-2.34,1.81-8.68,7-27.83,7-27.83,2.51,3.23,6,7.74,11.28,8.95-2.67-3.1,2.45-9.58,1.9-11.9C535.21,151.69,527.68,148.29,524.43,148.24Z"/><path class="cls-67" d="M513.74,139.68l-3.35,9.7a.35.35,0,0,0,.15.42,7.89,7.89,0,0,0,8.19-.55,1.68,1.68,0,0,0,.76-1.17l1.08-8.4Z"/><path class="cls-68" d="M521.05,130.69s3.68,6.93,3.21,9.74-5,2.6-9,.32l-2.79-7.49Z"/><path class="cls-69" d="M515.41,137.07a.28.28,0,0,0,.12-.42,7.44,7.44,0,0,1-1-2.17s-.66-.43,1.69-1c1.28-.31,3.55-.56,4.54-1.48s-.94-3-1.8-3.49a5,5,0,0,0-3.82-.75,7,7,0,0,0-1.73.82,7.18,7.18,0,0,0-2.52,2.07,6.87,6.87,0,0,0-.78,2,10,10,0,0,0-.46,3c.12,2.71,3.3,5.14,5.85,5.44a.29.29,0,0,0,.31-.38l-1-3a.29.29,0,0,1,.16-.36Z"/><path class="cls-70" d="M515.83,137.5s-2.63-1.8-2.82-.28,2.36,2.2,3.63,1.63Z"/><path class="cls-8" d="M522.39,129c-5.39-10.17-19.34-.93-12.85,7.64C514.37,133.41,519.83,128.64,522.39,129Z"/><path class="cls-9" d="M514,133.29l9.67-.3a.69.69,0,0,0,.59-.35,6.51,6.51,0,0,1,3.71-3.11.2.2,0,0,0-.05-.38l-5.93-.4h0c-3,.22-5.57,2-8.06,4.33A.12.12,0,0,0,514,133.29Z"/><path class="cls-8" d="M503.43,166.41c5.91-6.63,5.31-11.73-1.36-15.41,0,0-11,7.51-12.86,17a26.18,26.18,0,0,1,9.6,2.58C499.63,166.1,503.43,166.41,503.43,166.41Z"/><path class="cls-71" d="M516.26,173.23s-12.4,7-16.58,1a4.71,4.71,0,0,1-.87-3.65,26.18,26.18,0,0,0-9.6-2.58,13.12,13.12,0,0,0,1.43,9c7.33,13.41,27.27-.74,27.27-.74Z"/><path class="cls-72" d="M514.77,182.1l6.77-23.64a.7.7,0,0,1,.59-.5c1.22-.14,4.78-.54,8.88-.89a100.22,100.22,0,0,1,14.11-.47.69.69,0,0,1,.56,1c-1.95,3.94-10,20-14,25.25a.66.66,0,0,1-.55.27L515.43,183A.7.7,0,0,1,514.77,182.1Z"/><path class="cls-3" d="M531.71,155l4.91-.82a.36.36,0,0,1,.39.46l-.49,1.47a.35.35,0,0,1-.28.24l-4.73.63a.36.36,0,0,1-.39-.43l.31-1.28A.34.34,0,0,1,531.71,155Z"/><path class="cls-3" d="M528,159.17l.4-2.1a.49.49,0,0,1,.43-.39l9.91-1a.49.49,0,0,1,.52.6l-.63,2.62a.48.48,0,0,1-.45.37l-9.68.49A.48.48,0,0,1,528,159.17Z"/><path class="cls-73" d="M516.41,176.38s-.94-3.87-.56-5.25,1.11-3.14,3.57-2.75a35.16,35.16,0,0,1,5.35,1.43,1.4,1.4,0,0,1-2,1.21l1.16.9s-.17,1.43-1.74.67l1.07,1.18a1.25,1.25,0,0,1-1.83.43C520.26,173.44,519.7,176.85,516.41,176.38Z"/><path class="cls-8" d="M512.48,161.63c-.78.06-7.32.27-7.32.27l.26,6.59,3.39,1.91,3.67-1.91Z"/><polygon class="cls-8" points="513 161.63 505.17 161.9 504.85 164.43 508.93 165.49 513.25 163.56 513 161.63"/><path class="cls-7" d="M333.42,172.1l-.87-.53a.38.38,0,0,1-.13-.52.39.39,0,0,1,.53-.13h0l.85.54h0a.38.38,0,0,1,.11.52A.37.37,0,0,1,333.42,172.1Z"/><path class="cls-7" d="M330.55,170.29l-.84-.57a.42.42,0,1,1,.47-.69h0l.82.58h0a.41.41,0,0,1,.09.57A.41.41,0,0,1,330.55,170.29Z"/><path class="cls-7" d="M327.79,168.33l-.81-.62a.45.45,0,0,1-.09-.63.46.46,0,0,1,.63-.08h0l.79.62h0a.44.44,0,0,1-.53.69Z"/><path class="cls-7" d="M325.12,166.22l-.77-.66a.47.47,0,0,1-.05-.67.46.46,0,0,1,.66,0h0l.76.66h0a.47.47,0,0,1,0,.66A.46.46,0,0,1,325.12,166.22Z"/><path class="cls-7" d="M322.58,164l-.74-.69a.5.5,0,0,1,0-.71.49.49,0,0,1,.7,0h0l.72.7h0a.49.49,0,0,1-.68.7Z"/><path class="cls-7" d="M320.15,161.6l-.7-.74a.52.52,0,0,1,.75-.72h0l.68.74h0a.52.52,0,0,1-.75.71Z"/><path class="cls-7" d="M317.85,159.1l-.67-.77a.55.55,0,0,1,.83-.71h0l.64.77h0a.53.53,0,0,1-.07.75A.54.54,0,0,1,317.85,159.1Z"/><path class="cls-7" d="M315.68,156.49l-.63-.81a.57.57,0,0,1,.1-.8.58.58,0,0,1,.8.1h0l.6.8h0a.57.57,0,0,1-.11.78A.55.55,0,0,1,315.68,156.49Z"/><path class="cls-7" d="M313.64,153.76l-.58-.84a.59.59,0,0,1,.15-.82.58.58,0,0,1,.82.15h0l.56.83h0a.58.58,0,0,1-.16.81A.59.59,0,0,1,313.64,153.76Z"/><path class="cls-7" d="M311.76,150.93l-.54-.87a.64.64,0,0,1,.2-.85.62.62,0,0,1,.85.2h0l.51.86h0a.61.61,0,0,1-1,.63Z"/><path class="cls-7" d="M310,148l-.48-.9a.64.64,0,0,1,1.12-.61h0l.46.89h0a.63.63,0,0,1-.27.85A.64.64,0,0,1,310,148Z"/><path class="cls-7" d="M308.48,145l-.43-.92a.66.66,0,1,1,1.19-.55h0l.42.91v0a.65.65,0,0,1-1.18.53Z"/><path class="cls-7" d="M307.12,141.83l-.38-1a.67.67,0,0,1,1.25-.49h0l.36.93h0a.67.67,0,0,1-.38.86A.66.66,0,0,1,307.12,141.83Z"/><path class="cls-7" d="M306,138.62l-.31-1a.68.68,0,0,1,.44-.86.7.7,0,0,1,.86.44h0l.3,1h0a.68.68,0,0,1-1.29.4Z"/><path class="cls-7" d="M305,135.34l-.24-1a.69.69,0,1,1,1.34-.33h0v0l.23,1h0a.69.69,0,1,1-1.34.32Z"/><path class="cls-7" d="M304.26,132l-.18-1a.71.71,0,1,1,1.4-.24h0l.16,1h0a.71.71,0,0,1-.59.81A.7.7,0,0,1,304.26,132Z"/><path class="cls-7" d="M303.77,128.62l-.1-1a.72.72,0,0,1,1.43-.13h0v0l.09,1h0a.71.71,0,0,1-1.42.14Z"/><path class="cls-7" d="M303.53,125.2l0-1a.74.74,0,1,1,1.47,0h0v1a.74.74,0,0,1-.72.74A.73.73,0,0,1,303.53,125.2Z"/><path class="cls-7" d="M303.55,121.77l.06-1a.75.75,0,0,1,1.5.09h0v0l-.07,1v0a.74.74,0,0,1-.79.69A.75.75,0,0,1,303.55,121.77Z"/><path class="cls-7" d="M303.85,118.35l.15-1a.76.76,0,0,1,.86-.64.77.77,0,0,1,.65.86h0v0l-.15,1v0a.76.76,0,0,1-1.5-.22Z"/><path class="cls-7" d="M304.43,115l.23-1a.78.78,0,0,1,1.51.35h0v0l-.22,1v0a.76.76,0,0,1-.92.57A.77.77,0,0,1,304.43,115Z"/><path class="cls-7" d="M305.28,111.64l.31-1a.79.79,0,1,1,1.5.47h0l-.31.95v0a.79.79,0,0,1-1.5-.48Z"/><path class="cls-7" d="M306.39,108.4l.38-1a.81.81,0,0,1,1-.45.79.79,0,0,1,.45,1h0v0l-.37.92h0a.79.79,0,0,1-1,.44A.8.8,0,0,1,306.39,108.4Z"/><path class="cls-7" d="M307.74,105.25l.45-.93a.83.83,0,0,1,1.09-.38.81.81,0,0,1,.38,1.09h0v0l-.44.89h0a.81.81,0,0,1-1.46-.71Z"/><path class="cls-7" d="M309.33,102.2l.51-.88A.81.81,0,0,1,311,101a.82.82,0,0,1,.3,1.12h0l-.5.86v0a.82.82,0,1,1-1.41-.83Z"/><path class="cls-7" d="M311.11,99.28l.58-.85a.81.81,0,0,1,1.14-.22.83.83,0,0,1,.22,1.14h0l-.56.83h0a.83.83,0,0,1-1.37-.92Z"/><path class="cls-7" d="M313.08,96.49l.63-.82a.81.81,0,0,1,1.15-.15.83.83,0,0,1,.16,1.16h0l-.61.79h0a.82.82,0,0,1-1.31-1Z"/><path class="cls-7" d="M315.22,93.82l.67-.78a.82.82,0,0,1,1.16-.09.83.83,0,0,1,.09,1.17h0l-.65.76h0a.83.83,0,0,1-1.17.08A.82.82,0,0,1,315.22,93.82Z"/><path class="cls-7" d="M317.5,91.27l.71-.74a.82.82,0,0,1,1.17,0,.85.85,0,0,1,0,1.18h0l-.7.72h0a.83.83,0,1,1-1.19-1.15Z"/><path class="cls-7" d="M319.91,88.85l.74-.7a.84.84,0,0,1,1.15,1.22h0l-.73.68h0a.83.83,0,0,1-1.14-1.22Z"/><path class="cls-7" d="M322.43,86.56l.78-.66a.84.84,0,0,1,1.09,1.27h0l-.76.65h0a.84.84,0,0,1-1.09-1.28Z"/><path class="cls-7" d="M325.06,84.39l.81-.63a.84.84,0,0,1,1.18.15.83.83,0,0,1-.15,1.18h0l-.79.61h0a.84.84,0,0,1-1-1.33Z"/><path class="cls-7" d="M327.79,82.34l.83-.59a.85.85,0,1,1,1,1.38h0l-.82.58h0a.84.84,0,1,1-1-1.38Z"/><path class="cls-7" d="M330.59,80.41l.86-.56a.85.85,0,0,1,.92,1.43h0l-.84.55h0a.85.85,0,0,1-.92-1.42Z"/><path class="cls-7" d="M333.47,78.6l.88-.53a.86.86,0,0,1,1.17.3.85.85,0,0,1-.3,1.17h0l-.86.51h0a.85.85,0,0,1-.87-1.46Z"/><path class="cls-7" d="M336.43,76.9l.89-.49a.86.86,0,0,1,1.16.34.85.85,0,0,1-.34,1.16h0l-.88.47h0a.86.86,0,0,1-1.16-.35A.85.85,0,0,1,336.43,76.9Z"/><path class="cls-7" d="M339.43,75.31l.92-.45a.85.85,0,1,1,.76,1.53h0l-.9.44h0a.86.86,0,0,1-.77-1.53Z"/><path class="cls-7" d="M342.5,73.83l.93-.42a.84.84,0,0,1,1.13.43.86.86,0,0,1-.42,1.14h0l-.91.41h0a.87.87,0,0,1-1.14-.43A.86.86,0,0,1,342.5,73.83Z"/><path class="cls-7" d="M345.61,72.46l.94-.39a.87.87,0,0,1,.66,1.6h0l-.93.38h0a.87.87,0,0,1-.66-1.6Z"/><path class="cls-7" d="M348.77,71.2l1-.35a.87.87,0,1,1,.61,1.62h0l-.94.35h0a.87.87,0,0,1-.6-1.63Z"/><path class="cls-7" d="M352,70.05l1-.32a.87.87,0,0,1,.56,1.65h0l-1,.32h0a.87.87,0,1,1-.55-1.65Z"/><path class="cls-7" d="M355.2,69l1-.28a.87.87,0,1,1,.49,1.67h0l-1,.28h0a.88.88,0,1,1-.5-1.68Z"/><path class="cls-7" d="M358.48,68.09l1-.25a.86.86,0,0,1,1,.62.87.87,0,0,1-.62,1.06h0l-1,.25h0a.87.87,0,1,1-.43-1.68Z"/><path class="cls-7" d="M361.78,67.28l1-.22a.87.87,0,0,1,.37,1.69h0l-1,.22h0a.87.87,0,1,1-.38-1.69Z"/><path class="cls-7" d="M365.11,66.59l1-.19a.86.86,0,0,1,.32,1.69h0l-1,.18h0a.87.87,0,0,1-1-.69.85.85,0,0,1,.69-1Z"/><path class="cls-7" d="M368.46,66l1-.15a.85.85,0,1,1,.25,1.69h0l-1,.15h0a.85.85,0,1,1-.26-1.69Z"/><path class="cls-7" d="M371.83,65.53l1-.12a.85.85,0,0,1,.2,1.69h0l-1,.12h0a.85.85,0,0,1-.21-1.69Z"/><path class="cls-7" d="M375.21,65.17l1-.08a.84.84,0,1,1,.14,1.68h0l-1,.09h0a.85.85,0,0,1-.14-1.69Z"/><path class="cls-7" d="M378.6,64.93l1-.05a.83.83,0,0,1,.88.79.85.85,0,0,1-.8.89h0l-1,0h0a.85.85,0,0,1-.89-.8.84.84,0,0,1,.8-.88Z"/><path class="cls-7" d="M382,64.8l1,0a.84.84,0,0,1,.85.82.82.82,0,0,1-.82.85h0l-1,0h0a.84.84,0,1,1,0-1.67Z"/><path class="cls-7" d="M385.4,64.78l1,0a.84.84,0,0,1,.82.85.83.83,0,0,1-.85.81h-1a.84.84,0,0,1,0-1.67Z"/><path class="cls-7" d="M388.8,64.88l1,.06a.83.83,0,1,1-.08,1.65h0l-1,0h0a.83.83,0,0,1,.08-1.66Z"/><path class="cls-7" d="M392.19,65.1l1,.09a.82.82,0,0,1-.15,1.64h0l-1-.09h0a.82.82,0,1,1,.14-1.64Z"/><path class="cls-7" d="M395.57,65.43l1,.12a.82.82,0,0,1-.19,1.63h0l-1-.12h0a.82.82,0,1,1,.19-1.63Z"/><path class="cls-7" d="M398.94,65.88l1,.16a.81.81,0,0,1-.25,1.61h0l-1-.16h0a.81.81,0,1,1,.25-1.61Z"/><path class="cls-7" d="M402.29,66.44l1,.2a.81.81,0,1,1-.3,1.59h0L402,68h0a.81.81,0,1,1,.3-1.6Z"/><path class="cls-7" d="M405.62,67.13l1,.23a.81.81,0,0,1-.37,1.57h0l-1-.23h0a.81.81,0,1,1,.36-1.57Z"/><path class="cls-7" d="M408.92,67.93l1,.26a.8.8,0,0,1-.41,1.55h0l-1-.26h0a.8.8,0,1,1,.41-1.55Z"/><path class="cls-7" d="M412.2,68.85l1,.3a.79.79,0,0,1-.46,1.52h0l-1-.29h0a.8.8,0,0,1,.47-1.53Z"/><path class="cls-7" d="M415.43,69.88l1,.33a.79.79,0,0,1-.52,1.5h0l-.95-.32h0a.79.79,0,1,1,.51-1.5Z"/><path class="cls-7" d="M418.63,71l1,.36a.79.79,0,0,1,.46,1,.8.8,0,0,1-1,.46h0l-.94-.36h0a.79.79,0,0,1,.55-1.48Z"/><path class="cls-7" d="M421.8,72.24l.94.39a.78.78,0,0,1-.59,1.45h0l-.93-.38h0a.79.79,0,1,1,.6-1.46Z"/><path class="cls-7" d="M424.93,73.56l.93.41a.78.78,0,1,1-.63,1.42h0l-.92-.4h0a.78.78,0,1,1,.62-1.44Z"/><path class="cls-7" d="M428,75l.92.43a.78.78,0,1,1-.66,1.41h0l-.91-.43h0a.79.79,0,0,1-.37-1,.78.78,0,0,1,1-.37Z"/><path class="cls-7" d="M431.07,76.42l.91.45a.77.77,0,0,1,.34,1,.77.77,0,0,1-1,.34h0l-.91-.45h0a.77.77,0,1,1,.69-1.38Z"/><path class="cls-7" d="M434.09,78l.9.47a.77.77,0,0,1,.32,1,.76.76,0,0,1-1,.32h0l-.89-.46h0a.76.76,0,0,1-.33-1,.77.77,0,0,1,1-.33Z"/><path class="cls-7" d="M437.08,79.54,438,80a.76.76,0,0,1,.3,1,.77.77,0,0,1-1,.31h0l-.88-.48h0a.77.77,0,0,1,.74-1.34Z"/><path class="cls-7" d="M440,81.18l.88.5a.75.75,0,0,1,.28,1,.75.75,0,0,1-1,.29h0l-.88-.5h0a.76.76,0,0,1,.74-1.32Z"/><path class="cls-7" d="M443,82.86l.87.52a.75.75,0,0,1-.76,1.3h0l-.87-.51h0a.76.76,0,0,1-.28-1,.76.76,0,0,1,1-.27Z"/><path class="cls-7" d="M445.88,84.58l.87.53a.75.75,0,1,1-.78,1.28h0l-.86-.52h0a.76.76,0,0,1-.26-1,.77.77,0,0,1,1-.26Z"/><path class="cls-7" d="M448.77,86.34l.86.53a.75.75,0,0,1-.78,1.27h0l-.86-.53h0a.74.74,0,0,1-.24-1,.73.73,0,0,1,1-.24Z"/><path class="cls-7" d="M451.64,88.11l.86.54a.74.74,0,0,1,.23,1,.74.74,0,0,1-1,.24l-.86-.53a.75.75,0,0,1,.78-1.27Z"/><path class="cls-7" d="M454.49,89.91l.86.54a.74.74,0,0,1,.23,1,.73.73,0,0,1-1,.23l-.85-.54a.74.74,0,1,1,.78-1.25Z"/><path class="cls-7" d="M457.34,91.72l.85.55a.72.72,0,0,1,.23,1,.74.74,0,0,1-1,.22l-.85-.54a.74.74,0,1,1,.79-1.24Z"/><path class="cls-7" d="M460.18,93.54l.85.55a.73.73,0,0,1,.22,1,.74.74,0,0,1-1,.22l-.86-.55a.73.73,0,0,1,.79-1.23Z"/><path class="cls-7" d="M463,95.36l.85.55a.72.72,0,1,1-.78,1.22l-.86-.54a.75.75,0,0,1-.22-1,.74.74,0,0,1,1-.22Z"/><path class="cls-7" d="M465.85,97.18l.86.55a.72.72,0,1,1-.78,1.21l-.85-.54a.72.72,0,0,1-.22-1,.72.72,0,0,1,1-.22Z"/><path class="cls-7" d="M468.69,99l.86.54a.72.72,0,0,1,.22,1,.72.72,0,0,1-1,.23l-.85-.54a.72.72,0,1,1,.76-1.22Z"/><path class="cls-7" d="M471.54,100.79l.86.53a.73.73,0,0,1,.23,1,.71.71,0,0,1-1,.22l-.86-.53a.71.71,0,0,1,.75-1.21Z"/><path class="cls-7" d="M474.4,102.57l.86.52h0a.7.7,0,0,1-.74,1.2l-.86-.52a.71.71,0,0,1,.74-1.22Z"/><path class="cls-7" d="M477.27,104.32l.87.52h0a.7.7,0,1,1-.72,1.2l-.87-.51a.7.7,0,1,1,.72-1.21Z"/><path class="cls-7" d="M480.16,106l.87.51h0a.69.69,0,0,1,.25.94.7.7,0,0,1-.95.25l-.87-.51a.69.69,0,0,1-.26-.95.7.7,0,0,1,.95-.25Z"/><path class="cls-7" d="M483.07,107.73l.87.5h0a.69.69,0,0,1-.68,1.19l-.88-.5a.68.68,0,1,1,.67-1.19h0Z"/><path class="cls-7" d="M486,109.37l.88.49h0a.67.67,0,0,1-.64,1.18l-.89-.48a.68.68,0,1,1,.64-1.19h0Z"/><path class="cls-7" d="M489,111l.89.46h0a.66.66,0,0,1-.61,1.18l-.9-.46A.67.67,0,0,1,489,111h0Z"/><path class="cls-7" d="M491.94,112.5l.9.45h0a.66.66,0,0,1,.29.88.65.65,0,0,1-.87.29l-.91-.44a.66.66,0,1,1,.57-1.18Z"/><path class="cls-7" d="M495,114l.91.42h0a.65.65,0,1,1-.55,1.17l-.92-.43a.64.64,0,0,1-.32-.86A.66.66,0,0,1,495,114h0Z"/><path class="cls-7" d="M498,115.36l.92.4h0a.64.64,0,0,1,.33.84.65.65,0,0,1-.84.33l-.93-.4a.64.64,0,1,1,.5-1.18Z"/><path class="cls-7" d="M501.1,116.68l.93.37h0a.63.63,0,1,1-.47,1.17l-.94-.37a.63.63,0,0,1-.35-.82.63.63,0,0,1,.82-.36h0Z"/><path class="cls-7" d="M504.22,117.9l.94.35h0a.62.62,0,0,1-.42,1.17l-1-.35a.62.62,0,0,1,.43-1.17h0Z"/><path class="cls-7" d="M507.37,119l.95.32h0a.61.61,0,0,1-.38,1.16l-1-.32a.61.61,0,1,1,.38-1.16Z"/><path class="cls-7" d="M510.56,120.05l1,.29h0a.6.6,0,1,1-.34,1.15l-1-.28a.6.6,0,1,1,.34-1.16Z"/><path class="cls-7" d="M513.78,121l1,.25h0a.61.61,0,0,1,.43.73.59.59,0,0,1-.72.42l-1-.24a.61.61,0,0,1-.43-.73.59.59,0,0,1,.72-.43Z"/><path class="cls-7" d="M517,121.75l1,.22h0a.58.58,0,0,1,.44.69.58.58,0,0,1-.69.45l-1-.21a.59.59,0,1,1,.24-1.15h0Z"/><path class="cls-7" d="M520.32,122.42l1,.17h0a.58.58,0,0,1-.19,1.14l-1-.17a.59.59,0,0,1-.48-.67.58.58,0,0,1,.67-.47h0Z"/><path class="cls-7" d="M523.62,123l1,.13h0a.57.57,0,0,1-.15,1.13l-1-.13a.57.57,0,0,1-.49-.64.56.56,0,0,1,.63-.49h0Z"/><path class="cls-7" d="M527,123.34l1,.08h0a.56.56,0,0,1,.5.61.55.55,0,0,1-.6.5l-1-.08a.56.56,0,1,1,.09-1.11h0Z"/><path class="cls-7" d="M530.28,123.57l1,0h0a.55.55,0,1,1,0,1.09l-1,0a.55.55,0,0,1-.53-.57.56.56,0,0,1,.57-.53Z"/><path class="cls-7" d="M533.63,123.66h1a.54.54,0,1,1,0,1.08h-1a.55.55,0,1,1,0-1.09h0Z"/><path class="cls-7" d="M537,123.61l1,0h0a.53.53,0,0,1,.55.51.53.53,0,0,1-.51.55l-1,0a.53.53,0,1,1,0-1.06h0Z"/><path class="cls-7" d="M540.32,123.41l1-.09h0a.53.53,0,0,1,.57.48.52.52,0,0,1-.47.56l-1,.09a.52.52,0,0,1-.57-.47.53.53,0,0,1,.48-.57h0Z"/><path class="cls-7" d="M543.65,123.07l1-.12h0a.52.52,0,0,1,.57.45.51.51,0,0,1-.44.57l-1,.13a.51.51,0,0,1-.58-.44.52.52,0,0,1,.44-.58h0Z"/><path class="cls-7" d="M547,122.6l1-.17h0a.5.5,0,1,1,.17,1l-1,.18a.52.52,0,0,1-.59-.41.52.52,0,0,1,.41-.59Z"/><path class="cls-7" d="M550.26,122l1-.21h0a.49.49,0,1,1,.2,1l-1,.22a.5.5,0,1,1-.21-1h0Z"/><path class="cls-7" d="M553.52,121.24l1-.24h0a.49.49,0,0,1,.59.35.48.48,0,0,1-.34.59l-1,.26a.49.49,0,0,1-.24-.94h0Z"/><path class="cls-7" d="M556.76,120.37l1-.29h0a.48.48,0,0,1,.59.32.46.46,0,0,1-.31.59l-1,.3a.48.48,0,0,1-.6-.32.49.49,0,0,1,.32-.6Z"/><path class="cls-7" d="M560,119.37l.95-.33h0a.47.47,0,0,1,.59.29.46.46,0,0,1-.29.59l-1,.34a.47.47,0,0,1-.31-.89h0Z"/><path class="cls-7" d="M563.12,118.24l.94-.36h0a.46.46,0,0,1,.59.27.45.45,0,0,1-.25.59l-.95.37a.46.46,0,0,1-.34-.86h0Z"/><path class="cls-7" d="M566.23,117l.92-.4h0a.44.44,0,0,1,.59.23.45.45,0,0,1-.23.58l-.93.42a.46.46,0,0,1-.6-.24.45.45,0,0,1,.23-.59h0Z"/><path class="cls-7" d="M569.29,115.62l.91-.44h0a.43.43,0,0,1,.57.2.44.44,0,0,1-.2.58l-.91.44a.44.44,0,0,1-.59-.2.45.45,0,0,1,.2-.58Z"/><path class="cls-7" d="M572.3,114.13l.89-.47h0a.43.43,0,0,1,.57.18.41.41,0,0,1-.17.56l-.9.48a.42.42,0,0,1-.57-.17.43.43,0,0,1,.17-.57h0Z"/><path class="cls-7" d="M575.24,112.52l.88-.51h0a.4.4,0,0,1,.55.15.41.41,0,0,1-.14.55l-.88.51a.41.41,0,1,1-.41-.7Z"/><path class="cls-7" d="M578.12,110.8l.85-.54h0a.39.39,0,0,1,.42.66l-.86.55a.39.39,0,0,1-.42-.66Z"/><path class="cls-7" d="M580.93,109l.83-.58h0a.37.37,0,0,1,.52.1.36.36,0,0,1-.09.51l-.83.59a.38.38,0,1,1-.43-.62Z"/><path class="cls-7" d="M583.67,107l.8-.61h0a.37.37,0,0,1,.51.07.35.35,0,0,1-.07.5l-.81.62a.36.36,0,1,1-.44-.58h0Z"/><path class="cls-7" d="M586.32,105l.77-.64h0a.34.34,0,0,1,.48,0,.36.36,0,0,1,0,.49l-.78.65a.36.36,0,0,1-.49,0,.35.35,0,0,1,0-.5h0Z"/><path class="cls-7" d="M588.88,102.78l.75-.67h0a.33.33,0,0,1,.45.49l-.76.68a.32.32,0,0,1-.47,0,.34.34,0,0,1,0-.47Z"/><path class="cls-7" d="M591.35,100.51l.72-.7h0a.32.32,0,1,1,.45.45l-.72.71a.32.32,0,0,1-.46,0,.33.33,0,0,1,0-.45Z"/><path class="cls-7" d="M593.72,98.14l.69-.73h0a.3.3,0,0,1,.42,0,.31.31,0,0,1,0,.43l-.69.74a.32.32,0,0,1-.44,0,.31.31,0,0,1,0-.44Z"/><path class="cls-7" d="M596,95.66l.66-.76h0a.3.3,0,0,1,.41,0,.28.28,0,0,1,0,.4l-.66.78a.3.3,0,0,1-.41,0,.29.29,0,0,1,0-.41h0Z"/><path class="cls-7" d="M598.15,93.09l.63-.79h0a.26.26,0,0,1,.38,0,.27.27,0,0,1,.05.38l-.63.8a.27.27,0,0,1-.38,0,.27.27,0,0,1-.05-.39h0Z"/><path class="cls-7" d="M600.19,90.43l.59-.82h0a.27.27,0,0,1,.36-.06.27.27,0,0,1,.06.36l-.59.83a.26.26,0,0,1-.43-.3Z"/><path class="cls-7" d="M602.12,87.68l.55-.85h0a.24.24,0,0,1,.41.26l-.55.86a.24.24,0,0,1-.34.07.24.24,0,0,1-.08-.34h0Z"/><path class="cls-7" d="M603.88,84.83l.49-.88h0a.23.23,0,0,1,.31-.09.23.23,0,0,1,.1.31l-.49.9a.24.24,0,1,1-.41-.23Z"/><path class="cls-7" d="M605.39,81.84l.39-.93h0a.21.21,0,0,1,.28-.12.22.22,0,0,1,.12.28l-.38.94a.22.22,0,0,1-.41-.16h0Z"/><path class="cls-7" d="M606.51,78.7l.24-1h0a.2.2,0,0,1,.24-.14.19.19,0,0,1,.15.24l-.23,1a.21.21,0,0,1-.25.15.19.19,0,0,1-.15-.24h0Z"/><path class="cls-7" d="M607.07,75.42l0-1h0a.18.18,0,0,1,.19-.18.19.19,0,0,1,.18.19l0,1a.19.19,0,0,1-.19.19.2.2,0,0,1-.19-.2h0Z"/><path class="cls-7" d="M606.88,72.11l-.23-1h0a.18.18,0,0,1,.13-.21.18.18,0,0,1,.21.13l.25,1a.18.18,0,0,1-.13.21.16.16,0,0,1-.21-.12h0Z"/><path class="cls-7" d="M605.8,69l-.49-.88h0a.15.15,0,0,1,.27-.15l.51.89a.17.17,0,0,1-.06.22.16.16,0,0,1-.22-.06h0Z"/><path class="cls-7" d="M603.9,66.26l-.72-.69h0a.13.13,0,0,1,0-.2.14.14,0,0,1,.2,0l.75.7a.15.15,0,0,1-.21.22h0Z"/><path class="cls-7" d="M601.25,64.29l-.92-.38h0a.15.15,0,0,1-.07-.17.12.12,0,0,1,.17-.07l1,.38a.13.13,0,0,1,.08.17.13.13,0,0,1-.17.07h0Z"/><path class="cls-7" d="M607.19,69.38l-.26-.35,0-.06c-.07-.1-.21-.31-.44-.6a.18.18,0,1,1,.28-.22c.1.12.18.23.25.33a.15.15,0,0,1,.15-.07.18.18,0,0,1,.16.19c0,.23,0,.35,0,.35Zm0-1.78h-.05a.18.18,0,0,1-.17-.19c0-.37,0-.76,0-1.15a.17.17,0,0,1,.18-.17.18.18,0,0,1,.17.18c0,.39,0,.78,0,1.16A.16.16,0,0,1,607.23,67.6Zm-1.36,0a.18.18,0,0,1-.17,0c-.27-.28-.55-.55-.83-.79a.18.18,0,1,1,.23-.27,10.76,10.76,0,0,1,.85.81.17.17,0,0,1,0,.25A.25.25,0,0,1,605.87,67.56Zm-1.76-1.5a.22.22,0,0,1-.14,0,8.26,8.26,0,0,0-1-.56.18.18,0,0,1-.08-.23.17.17,0,0,1,.23-.09,8.15,8.15,0,0,1,1,.58.17.17,0,0,1,.05.25A.14.14,0,0,1,604.11,66.06Zm3.15-.77h0a.17.17,0,0,1-.18-.17c0-.38,0-.77,0-1.15a.18.18,0,0,1,.17-.18.17.17,0,0,1,.19.16c0,.39,0,.78,0,1.16A.17.17,0,0,1,607.26,65.29ZM602,65.11a.11.11,0,0,1-.08,0,5.39,5.39,0,0,0-.79-.12l-.33,0a.18.18,0,1,1,0-.35l.32,0a6.13,6.13,0,0,1,.84.14.17.17,0,0,1,0,.34Zm-4.35.73-.34.08a1.08,1.08,0,0,0-.52-.61.18.18,0,0,1-.06-.24A.19.19,0,0,1,597,65a1.56,1.56,0,0,1,.51.47.17.17,0,0,1,.14.15Zm2.08-1.12a.14.14,0,0,1-.09,0,4.11,4.11,0,0,1-1.1-.48.17.17,0,0,1-.06-.24.18.18,0,0,1,.24-.06,4.05,4.05,0,0,0,1,.44.17.17,0,0,1,.12.22A.15.15,0,0,1,599.74,64.72ZM607.12,63h0a.18.18,0,0,1-.2-.15c0-.39-.08-.77-.13-1.15a.16.16,0,0,1,.15-.19.18.18,0,0,1,.2.15c0,.37.1.76.13,1.15A.18.18,0,0,1,607.12,63Zm-9.74,1.69h0a.18.18,0,0,1-.2-.15c0-.45-.08-.84-.1-1.16a.18.18,0,1,1,.35,0c0,.32.06.71.1,1.15A.18.18,0,0,1,597.38,64.67Zm-1.48.15a.17.17,0,0,1-.12,0c-.31-.14-.66-.31-1-.52a.18.18,0,0,1,.17-.31c.38.21.71.37,1,.51a.18.18,0,0,1,.09.24A.16.16,0,0,1,595.9,64.82Zm1.93-1.32a.2.2,0,0,1-.19-.07,3.36,3.36,0,0,1-.44-.88l-.06-.15a.19.19,0,0,1,.05-.25.17.17,0,0,1,.24,0,.33.33,0,0,1,0,.06.84.84,0,0,1,.07.18,3.23,3.23,0,0,0,.4.79.18.18,0,0,1,0,.25Zm9-2.81h0a.17.17,0,0,1-.21-.14q-.09-.51-.21-1l0-.13a.18.18,0,0,1,.13-.21h0a.16.16,0,0,1,.21.13l0,.13c.08.32.15.66.22,1A.18.18,0,0,1,606.79,60.69Zm-12.9,3a.17.17,0,0,1-.14,0,10.28,10.28,0,0,1-.92-.74.16.16,0,0,1,0-.24.17.17,0,0,1,.25,0,9.44,9.44,0,0,0,.88.71.18.18,0,0,1,0,.25A.18.18,0,0,1,593.89,63.69Zm-1.73-1.53a.18.18,0,0,1-.17,0l-.17-.19a7.52,7.52,0,0,1-.58-.71.19.19,0,0,1,0-.25.18.18,0,0,1,.25,0,7.34,7.34,0,0,0,.56.69l.17.18a.18.18,0,0,1,0,.25A.2.2,0,0,1,592.16,62.16Zm14.09-3.72a.18.18,0,0,1-.21-.12q-.16-.55-.36-1.08a.18.18,0,0,1,.1-.23.17.17,0,0,1,.23.1c.13.36.26.73.37,1.11a.17.17,0,0,1-.12.22Zm-15.44,1.85a.17.17,0,0,1-.19-.09,7.41,7.41,0,0,1-.46-1.09.17.17,0,0,1,.33-.11,7.37,7.37,0,0,0,.44,1,.18.18,0,0,1-.08.24Zm14.64-4a.19.19,0,0,1-.2-.1c-.16-.36-.33-.7-.51-1a.17.17,0,0,1,.07-.24.19.19,0,0,1,.24.07c.18.34.36.69.52,1.05a.17.17,0,0,1-.09.23Zm-15.37,1.83h0a.18.18,0,0,1-.21-.14,9.25,9.25,0,0,1-.12-1.18.17.17,0,0,1,.17-.18.18.18,0,0,1,.18.17,8.17,8.17,0,0,0,.12,1.12A.18.18,0,0,1,590.08,58.11Zm14.26-3.86a.18.18,0,0,1-.19-.07c-.21-.32-.44-.63-.67-.92a.17.17,0,1,1,.27-.22,10.82,10.82,0,0,1,.69.94.17.17,0,0,1-.05.25ZM590,55.8h-.06a.18.18,0,0,1-.16-.2,4.83,4.83,0,0,1,.25-1.2h0l.25-.43a.18.18,0,0,1,.24-.07.19.19,0,0,1,.07.25l-.26.44a5.06,5.06,0,0,0-.2,1A.16.16,0,0,1,590,55.8Zm12.89-3.34a.18.18,0,0,1-.17,0,8.6,8.6,0,0,0-.84-.76.18.18,0,0,1,.22-.28,9.26,9.26,0,0,1,.87.79.17.17,0,0,1,0,.25A.12.12,0,0,1,602.88,52.46ZM601.08,51a.16.16,0,0,1-.13,0,9.58,9.58,0,0,0-1-.55.17.17,0,0,1-.08-.24.17.17,0,0,1,.23-.08,9.4,9.4,0,0,1,1,.58.18.18,0,0,1,.05.24A.15.15,0,0,1,601.08,51Zm-10,2.22a.2.2,0,0,1-.13,0,.18.18,0,0,1-.06-.24l.57-1a.18.18,0,0,1,.24-.06.17.17,0,0,1,.07.24l-.58,1A.14.14,0,0,1,591,53.24ZM599,50h-.11a9.07,9.07,0,0,0-1.08-.34.19.19,0,0,1-.13-.22.19.19,0,0,1,.22-.13c.38.11.76.22,1.12.36a.17.17,0,0,1,.1.22A.16.16,0,0,1,599,50Zm-6.83,1.24a.15.15,0,0,1-.13,0A.18.18,0,0,1,592,51l.58-1a.17.17,0,1,1,.3.18l-.57,1A.2.2,0,0,1,592.19,51.23Zm4.6-1.83h-.07a10.43,10.43,0,0,0-1.14-.15.19.19,0,0,1-.16-.19.18.18,0,0,1,.2-.16,11.14,11.14,0,0,1,1.16.15.17.17,0,0,1,0,.34Zm-2.3-.21h0c-.34,0-.69,0-1,0a.19.19,0,0,1-.18,0,.17.17,0,0,1-.07-.24l.07-.11h1.23a.17.17,0,0,1,.17.18A.17.17,0,0,1,594.49,49.19Z"/><path class="cls-8" d="M591.69,52.43s-1,5,2.67,6.13,7.55,1.3,8.4,2.87c0,0,0-10-10-10.46Z"/><path class="cls-9" d="M581,51s-2.6,4.3-1.74,5.77,10.38,7.61,11.31,8.21a.08.08,0,0,0,.12,0h0a1.32,1.32,0,0,0,.22-1.15c-.57-1.91-2.3-7.6-3.37-9.15C586.23,52.79,581,51,581,51Z"/><path class="cls-7" d="M587.55,62.22a.12.12,0,0,1-.1,0c-.05,0-5.22-3.52-7.39-5.11a1.23,1.23,0,0,1-.46-1.24,17.45,17.45,0,0,1,1.13-3.47.11.11,0,0,1,.15-.06.13.13,0,0,1,.06.16,17.62,17.62,0,0,0-1.12,3.42,1,1,0,0,0,.38,1c2.17,1.59,7.33,5.08,7.38,5.11a.12.12,0,0,1,0,.16A.15.15,0,0,1,587.55,62.22Z"/><path class="cls-9" d="M588.1,41.73s3.47-3.64,5.12-3.19,10,8,10.87,8.77a.08.08,0,0,1,0,.12h0a1.28,1.28,0,0,1-1.05.51c-2,0-7.93-.23-9.71-.86C591.19,46.32,588.1,41.73,588.1,41.73Z"/><path class="cls-7" d="M600.54,45.24a.1.1,0,0,1-.1,0c-.05,0-4.76-4.11-6.86-5.79a1,1,0,0,0-1.06-.1,17.57,17.57,0,0,0-3,2,.12.12,0,0,1-.15-.18,17.89,17.89,0,0,1,3.06-2,1.2,1.2,0,0,1,1.31.13c2.1,1.68,6.82,5.76,6.87,5.8a.1.1,0,0,1,0,.16A.09.09,0,0,1,600.54,45.24Z"/><path class="cls-74" d="M567.62,40.69a26.08,26.08,0,0,0,5.57,5.89,74,74,0,0,0,15.62,9.35,1,1,0,0,0,1-.14,17.47,17.47,0,0,0,5.1-6.55,1.44,1.44,0,0,0-.19-1.48,74.56,74.56,0,0,0-12.92-12.41,25.93,25.93,0,0,0-7.1-3.82A24.43,24.43,0,0,0,567.62,40.69Z"/><path class="cls-9" d="M574.69,31.53a27,27,0,0,0-10.9-1.5.49.49,0,0,0-.43.57,27,27,0,0,0,4.26,10.09A24.43,24.43,0,0,1,574.69,31.53Z"/><ellipse class="cls-5" cx="577" cy="40.6" rx="4.68" ry="4.36" transform="translate(194.05 474.11) rotate(-52.57)"/><path class="cls-3" d="M579.25,37.46a3.74,3.74,0,1,1-5,.85A3.62,3.62,0,0,1,579.25,37.46Z"/><path class="cls-75" d="M574.88,42.1a.11.11,0,0,1-.12,0,2.9,2.9,0,0,1,.11-3.44,3.13,3.13,0,0,1,.69-.67.12.12,0,0,1,.16,0,.12.12,0,0,1,0,.17,2.64,2.64,0,0,0-.64.61,2.67,2.67,0,0,0-.1,3.16.14.14,0,0,1,0,.17Z"/><path class="cls-5" d="M585.84,43.47a3.1,3.1,0,1,1-4.17.71A3,3,0,0,1,585.84,43.47Z"/><path class="cls-3" d="M585.45,43.86a2.47,2.47,0,1,1-3.32.56A2.38,2.38,0,0,1,585.45,43.86Z"/><path class="cls-76" d="M582.57,47a.11.11,0,0,1-.12,0,2,2,0,0,1,.54-2.77.12.12,0,0,1,.13.19,1.56,1.56,0,0,0-.41.4,1.71,1.71,0,0,0-.07,2,.11.11,0,0,1,0,.16Z"/><path class="cls-77" d="M483.41,32.51l26.83-21a.61.61,0,0,0,.2-.3l1.67-5.44a.59.59,0,0,1,.27-.35l1.09-.61a.6.6,0,0,1,.35-.08l3.36.33a.62.62,0,0,1,.54.5L518,7.16a.55.55,0,0,1-.1.43l-.45.66a.6.6,0,0,0,0,.63h0a.59.59,0,0,1-.08.68,12.13,12.13,0,0,1-4.2,3,.48.48,0,0,0-.2.14L487.2,39.71C487,40,483.12,32.74,483.41,32.51Z"/><path class="cls-8" d="M483.49,32.45,471.36,42.61l3.76,8.67,13.62-12.6A12.79,12.79,0,0,1,483.49,32.45Z"/><path class="cls-78" d="M404.18,137.13a6.34,6.34,0,0,1,1.15-3.36c-1.15.38-1.58,1.23-1.84,3.5-.32,2.71-.89,10-1,11.65a3.34,3.34,0,0,0,1,2.94c.17.17.43.09.75-.15a5.21,5.21,0,0,1-1-2.35C403,148.27,403.91,140.7,404.18,137.13Z"/><path class="cls-79" d="M411.66,135l-2-2.57a16,16,0,0,1-3.62,1.17,5.48,5.48,0,0,0-.72.17,6.34,6.34,0,0,0-1.15,3.36c-.27,3.57-1.17,11.14-1,12.23a5.21,5.21,0,0,0,1,2.35,10.19,10.19,0,0,0,2.12-2.94c.95-1.84,4.17-7.33,4.93-9.38A9.78,9.78,0,0,0,411.66,135Z"/><path class="cls-80" d="M438.71,111.59a6.34,6.34,0,0,1,1.69-3.12c-1.19.18-1.76,1-2.4,3.15-.76,2.61-2.53,9.74-2.95,11.32a3.37,3.37,0,0,0,.54,3.07c.14.2.41.16.76,0a5.2,5.2,0,0,1-.62-2.49C435.71,122.39,437.85,115.08,438.71,111.59Z"/><path class="cls-81" d="M446.44,110.73l-1.54-2.87a15.94,15.94,0,0,1-3.76.57,4.29,4.29,0,0,0-.74,0,6.34,6.34,0,0,0-1.69,3.12c-.86,3.49-3,10.8-3,11.9a5.2,5.2,0,0,0,.62,2.49,10,10,0,0,0,2.58-2.55c1.24-1.65,5.33-6.53,6.42-8.43A9.92,9.92,0,0,0,446.44,110.73Z"/><path class="cls-82" d="M411.66,128.73c-.35.46-2.89,5.08-3.44,6.08a1.72,1.72,0,0,0-.18.54,2.27,2.27,0,0,0,1.09,2.24,1.51,1.51,0,0,0,2.05-.35l4.62-6.07Z"/><path class="cls-83" d="M447.47,104.55c-.42.39-3.68,4.53-4.39,5.43a1.62,1.62,0,0,0-.27.5,2.29,2.29,0,0,0,.7,2.39,1.53,1.53,0,0,0,2.09,0l5-5.72Z"/><path class="cls-84" d="M453.69,82.76c0-1.28,7.36-.82,13.81-1.57a3.63,3.63,0,0,1,3,6.13L451,107.48a1.55,1.55,0,0,1-1.58.4,9.42,9.42,0,0,1-2.87-1.49,1.39,1.39,0,0,1-.25-1.89l9-12.79-8.2,2.37L416,132.53a1.6,1.6,0,0,1-2.11.35,13.42,13.42,0,0,1-2.94-2.39,1.52,1.52,0,0,1-.09-1.79c3.43-5.24,22.07-33.79,23-36.75,1-3.27,4.56-9.25,7.9-9.46S453.69,82.76,453.69,82.76Z"/><path class="cls-85" d="M455.76,91.54a.22.22,0,0,1-.21-.15.23.23,0,0,1,.15-.26l7.37-1.95a.22.22,0,0,1,.26.15.21.21,0,0,1-.15.25l-7.37,2Z"/><path class="cls-86" d="M447.81,93.54a.21.21,0,0,1-.16-.35l1.84-2a.21.21,0,1,1,.31.28l-1.84,2A.19.19,0,0,1,447.81,93.54Z"/><path class="cls-9" d="M475.12,42.24a14.17,14.17,0,0,1,3.22,10.84,10.78,10.78,0,0,1-2.23,5.53L456.45,84A2.79,2.79,0,0,1,454.6,85c-2.89.35-10.58,1-16-.76a.72.72,0,0,1-.4-1l17.87-31.44,10.82-12.6A7.19,7.19,0,0,1,475.12,42.24Z"/><path class="cls-87" d="M418.62,70.58a.24.24,0,0,1-.2-.12.22.22,0,0,1,.09-.3c.08,0,7.62-4.15,9.23-5.48a.23.23,0,0,1,.31,0,.22.22,0,0,1,0,.31c-1.64,1.36-9,5.36-9.3,5.53A.19.19,0,0,1,418.62,70.58Z"/><path class="cls-88" d="M476.06,30.41l-5.87,8.3a1.38,1.38,0,0,0,.12,1.75,7.29,7.29,0,0,0,3.56,2.31,1.12,1.12,0,0,0,1.15-.49l3.13-4.79S478.74,30,476.06,30.41Z"/><path class="cls-89" d="M477.72,23.48c.12.11,5,9.72,5,9.72l-5.55,2.68-6-8.42S475.73,21.61,477.72,23.48Z"/><path class="cls-90" d="M473.71,28.47l2.77,4.61a.7.7,0,0,0,.15.19,1.45,1.45,0,0,0,2.33,0,7.84,7.84,0,0,1,2.18-2.37.9.9,0,0,1,1.2.4,32.81,32.81,0,0,1,1.89,4.49.89.89,0,0,1-.51,1.08,25.4,25.4,0,0,1-5.31,1.55.9.9,0,0,1-.84-.36c-.85-1.16-3.24-4.4-4.05-5.22s-2.16-.47-2.79-.29a.86.86,0,0,1-.7-.09,1.94,1.94,0,0,1-.74-3,.89.89,0,0,0-.27-1.21,2,2,0,0,1-.75-2.77,2.76,2.76,0,0,1,3-1.47.91.91,0,0,0,1-.53c.16-.38.58-.23.78-.49s.13-.39.24-.59c.37-.65.34-1.17,1.18-1.54a3.81,3.81,0,0,1,2.09-.18,2.49,2.49,0,0,1,1.1.41,3.28,3.28,0,0,1,.68.8,2.38,2.38,0,0,1,.56,2c-.4,1-2.11,1.22-3,1.53a3.41,3.41,0,0,0-2.18,2.21A.89.89,0,0,0,473.71,28.47Z"/><path class="cls-91" d="M474.56,34.53s-1.07-3.12-2.43-3-2.43,1.47-.74,3C473.48,36.42,474.56,34.53,474.56,34.53Z"/><path class="cls-43" d="M495.73,78.85V58.16a5,5,0,0,0-4.9-5c-8.16-.08-25-.09-38.74,1.07a3.73,3.73,0,0,0-3.41,3.58l-1.28,20a4.73,4.73,0,0,0,4.64,4.9l38.95.74A4.65,4.65,0,0,0,495.73,78.85Z"/><path class="cls-7" d="M491,60.4c0,1.76,0,4.55-.06,6.36a1.58,1.58,0,0,1-1.78,1.54l-6.71-.79a1.59,1.59,0,0,1-1.39-1.81l.83-5.5a1.58,1.58,0,0,1,1.57-1.36h6A1.58,1.58,0,0,1,491,60.4Z"/><path class="cls-44" d="M473.46,70.82l-5.59.6a1.26,1.26,0,0,1-1.4-1.35l1.23-16.65c2.34-.08,4.66-.13,6.89-.17V69.56A1.26,1.26,0,0,1,473.46,70.82Z"/><path class="cls-7" d="M471.17,67.93a.57.57,0,0,1-.56.53h0a.56.56,0,0,1-.53-.6l.84-14.53,1.13,0Z"/><path class="cls-92" d="M487.9,65.65a.19.19,0,0,0,.19-.18l.29-4.58a.2.2,0,0,0-.18-.2.19.19,0,0,0-.2.18l-.29,4.58a.2.2,0,0,0,.18.2Z"/><path class="cls-93" d="M487.3,65.65a.19.19,0,0,0,.19-.18l.15-4.67a.18.18,0,0,0-.18-.19.17.17,0,0,0-.19.18l-.16,4.66a.2.2,0,0,0,.19.2Z"/><path class="cls-94" d="M486.49,65.65a.2.2,0,0,1-.18-.2c.08-1.57.22-4.56.22-4.66a.19.19,0,0,1,.38,0c0,.08-.18,3.91-.22,4.68a.19.19,0,0,1-.19.18Zm0-4.86Z"/><path class="cls-95" d="M485.25,65.83a.37.37,0,0,0,.37-.36c.16-4.52.14-4.62.12-4.69a.37.37,0,0,0-.46-.26.38.38,0,0,0-.28.41c0,.27-.07,2.9-.13,4.52a.38.38,0,0,0,.37.38Z"/><path class="cls-96" d="M484.44,65.65a.19.19,0,0,0,.18-.19V60.88a.19.19,0,1,0-.37,0v4.58A.19.19,0,0,0,484.44,65.65Z"/><path class="cls-97" d="M483.78,65.65a.2.2,0,0,0,.19-.19c0-1.59.12-4.19.19-4.5a.19.19,0,0,0,0-.19.19.19,0,0,0-.26-.06c-.1.07-.19.13-.3,4.74a.2.2,0,0,0,.18.2Z"/><path class="cls-98" d="M488.91,66.06a.37.37,0,0,0,.37-.35l.26-4.81a.37.37,0,0,0-.36-.39.36.36,0,0,0-.39.35l-.26,4.81a.37.37,0,0,0,.36.39Z"/><path class="cls-8" d="M479.92,23.8c-4.71-8.89-16.92-.81-11.24,6.68C472.91,27.67,477.68,23.5,479.92,23.8Z"/><path class="cls-8" d="M470.52,52.65l-10.58-5.42s-7.55,7.44-9.48,17.57a27.79,27.79,0,0,1,10.21,2.73C461.54,62.75,470.52,52.65,470.52,52.65Z"/><path class="cls-99" d="M479.23,70.33S466,77.79,461.59,71.42a5,5,0,0,1-.92-3.89,27.79,27.79,0,0,0-10.21-2.73A13.93,13.93,0,0,0,452,74.37c7.79,14.26,29-.79,29-.79Z"/><path class="cls-100" d="M479.86,74.13A1.52,1.52,0,0,1,478,72.94a12.84,12.84,0,0,1-.32-4.33c.4-1.46,1.18-3.34,3.8-2.92a38.39,38.39,0,0,1,5.69,1.52A1.5,1.5,0,0,1,485,68.5l1.23,1s-.18,1.53-1.85.71l1.14,1.26a1.33,1.33,0,0,1-2,.45C482.57,71.21,482,73.56,479.86,74.13Z"/><path class="cls-101" d="M413.32,72.26a.71.71,0,0,0-.5,1c.95,1.92,3.76,6.16,9.55,4.82,7.41-1.71,30-18.79,35.12-23.46S469.38,44.15,472.7,45s1.31-1.1-1-2.65-3.14-3.8-1.43-3.38c0,0-4.13-1.34-10.42,2.14s-36.21,15-46.27,11.62a.65.65,0,0,0-.83.51c-.4,2.29-1,9.46,4.87,17.53A19.59,19.59,0,0,1,413.32,72.26Z"/><path class="cls-9" d="M472.56,27.57l8.46-.26a.62.62,0,0,0,.51-.31,5.74,5.74,0,0,1,3.25-2.72.17.17,0,0,0,0-.33l-5.19-.36h0c-2.59.2-4.87,1.76-7.06,3.79A.11.11,0,0,0,472.56,27.57Z"/><rect class="cls-102" x="139.26" y="241.27" width="121.69" height="11.26"/><rect class="cls-103" x="136.61" y="241.27" width="3.53" height="13.91"/><path class="cls-8" d="M259.62,177.53c0-2.66-2.8-4.95-5.85-4.95H139a5.07,5.07,0,0,0-5.26,4.95V238a4.94,4.94,0,0,0,5.26,4.79H253.77c3,0,5.85-2.13,5.85-4.79Z"/><path class="cls-9" d="M255.65,180a4.76,4.76,0,0,0-5-4.52H142.37c-2.88,0-5.76,2.09-5.76,4.52v55.29c0,2.43,2.88,4.46,5.76,4.46H250.64a4.72,4.72,0,0,0,5-4.46Z"/><path class="cls-104" d="M299.49,221.6,292,198.3a1.41,1.41,0,0,0-1.35-1H260.29v55.21h41Z"/><path class="cls-105" d="M301.5,244.09a2.5,2.5,0,0,0-1.46-.4l-31.59.61-.14,9,31.56.78c1.16,0,2.16-.56,2.16-1.34v-7.6A1.13,1.13,0,0,0,301.5,244.09Z"/><path class="cls-106" d="M293.6,220l-4.55-18.15a1.56,1.56,0,0,0-1.38-1.21H269.85a1.58,1.58,0,0,0-1,.57,1.55,1.55,0,0,0-.4,1.1l.42,14.49a1.44,1.44,0,0,0,1.19,1.38l22,3.55A1.39,1.39,0,0,0,293.6,220Z"/><path class="cls-107" d="M292.69,200.62l-.23,0a1.42,1.42,0,0,0-1.14,1.77l5,18.47a1.41,1.41,0,0,0,1.63,1l1.57-.29Z"/><rect class="cls-108" x="268.46" y="222.71" width="8.17" height="3.31" rx="1.34"/><path class="cls-109" d="M262.41,181.09a2,2,0,0,0-1.43.46,1.91,1.91,0,0,0-.69,1.27v14.5h18.49S277.78,182.21,262.41,181.09Z"/><circle class="cls-110" cx="279.24" cy="253.53" r="14.36"/><circle class="cls-8" cx="279.24" cy="253.53" r="11.66" transform="translate(-26 31.98) rotate(-6.26)"/><path class="cls-111" d="M289,257.77l-.09,0a.22.22,0,0,1-.11-.29,10.11,10.11,0,0,0-14.25-12.75.22.22,0,0,1-.3-.09.22.22,0,0,1,.09-.3,10.55,10.55,0,0,1,14.86,13.31A.2.2,0,0,1,289,257.77Z"/><circle class="cls-112" cx="279.24" cy="253.53" r="5.35" transform="translate(-44.33 447.32) rotate(-73.16)"/><circle class="cls-113" cx="190.7" cy="253.53" r="14.36"/><circle class="cls-8" cx="190.7" cy="253.53" r="11.66" transform="translate(-29.55 25.2) rotate(-7.02)"/><path class="cls-114" d="M200.5,257.77l-.09,0a.22.22,0,0,1-.12-.29,10,10,0,0,0,.8-3.93,10.1,10.1,0,0,0-15-8.82.22.22,0,0,1-.3-.09.22.22,0,0,1,.08-.3,10.55,10.55,0,0,1,14.87,13.31A.22.22,0,0,1,200.5,257.77Z"/><circle class="cls-115" cx="190.7" cy="253.53" r="5.35" transform="translate(-99.86 380.88) rotate(-76.72)"/><circle class="cls-116" cx="157.85" cy="253.53" r="14.36"/><circle class="cls-8" cx="157.85" cy="253.53" r="11.66" transform="translate(-26.72 18.74) rotate(-6.26)"/><path class="cls-117" d="M167.64,257.77l-.08,0a.22.22,0,0,1-.12-.29,10,10,0,0,0,.79-3.93,10.1,10.1,0,0,0-15-8.82.22.22,0,0,1-.3-.09.22.22,0,0,1,.09-.3,10.56,10.56,0,0,1,14.87,13.31A.23.23,0,0,1,167.64,257.77Z"/><circle class="cls-118" cx="157.85" cy="253.53" r="5.35" transform="translate(-130.54 331.13) rotate(-73.16)"/><rect class="cls-119" x="294.96" y="235.3" width="6.63" height="7.95" rx="1.42"/><path class="cls-10" d="M297.61,235.3v7.51h-1a1.75,1.75,0,0,1-1.66-1.53v-4.66c0-.79.88-1.32,1.66-1.32Z"/><path class="cls-7" d="M262.72,233.54a.22.22,0,0,1-.22-.22V200.63a.22.22,0,0,1,.22-.22.22.22,0,0,1,.22.22v32.69A.22.22,0,0,1,262.72,233.54Z"/><path class="cls-7" d="M275.39,195.87a.22.22,0,0,1-.21-.15c-4.27-12.36-13.07-11.47-13.16-11.46a.22.22,0,0,1-.25-.19.24.24,0,0,1,.2-.25,10.3,10.3,0,0,1,5.17,1.07c4.7,2.21,7.19,7,8.45,10.69a.22.22,0,0,1-.13.28Z"/><path class="cls-7" d="M139.57,234a1.65,1.65,0,1,1-2.11-1.51A1.86,1.86,0,0,1,139.57,234Z"/><circle class="cls-7" cx="132.75" cy="257.02" r="1.65"/><path class="cls-43" d="M12.79,224.64h-3a1.3,1.3,0,0,1-1.3-1.23l-1.65-29A1.31,1.31,0,0,1,8,193l19.55-1.49A1.31,1.31,0,0,1,29,192.62L33.31,223A1.29,1.29,0,0,1,32,224.49Z"/><path class="cls-8" d="M12,191l-.37-9.51a1.67,1.67,0,0,1,1.55-1.73l12.19-.88.74,12.78-12.31.94A1.67,1.67,0,0,1,12,191Z"/><polygon class="cls-9" points="25.34 178.84 35.27 178.84 35.27 191.5 26.08 191.62 25.34 178.84"/><path class="cls-9" d="M15.68,179.84l.5,12.54H18s-.07-13-.47-13.25S15.65,178.94,15.68,179.84Z"/><path class="cls-120" d="M14.94,192,18,224.6h2s-2.17-32.95-2.85-33S14.86,191.19,14.94,192Z"/><path class="cls-120" d="M10.35,200.55l4-.24a.56.56,0,0,1,.59.51l.47,6a.55.55,0,0,1-.55.6H10.7a.56.56,0,0,1-.56-.53l-.31-5.72A.57.57,0,0,1,10.35,200.55Z"/><path class="cls-120" d="M22.67,211.86h3.12a.56.56,0,0,1,.56.56v5.31a.56.56,0,0,1-.56.56H23.13a.56.56,0,0,1-.56-.51l-.46-5.32A.56.56,0,0,1,22.67,211.86Z"/><path class="cls-9" d="M20.13,182h3.12a.51.51,0,0,1,.56.46v4.39a.52.52,0,0,1-.56.46H20.59a.53.53,0,0,1-.56-.42l-.46-4.39A.51.51,0,0,1,20.13,182Z"/><rect class="cls-121" x="42.78" y="222.4" width="9.53" height="26.68"/><path class="cls-122" d="M66.22,245.63c-.15-1.3-3.06-30.71-4-31.75s-15.43-6.61-21-4.8a13,13,0,0,0-2.65,6.1l-4.17,9.19h9.41c2.5.06,11.31-2.15,11.7-2.23,2.3-.45-.06,7.37,2.41,12.94s5.18,11.22,6,11.15S66.37,246.93,66.22,245.63Z"/><rect class="cls-7" x="55.3" y="199.81" width="17.12" height="1.17" rx="0.49"/><path class="cls-123" d="M71.93,199.91a.38.38,0,0,1,.39.39v.19a.38.38,0,0,1-.39.39H55.78a.39.39,0,0,1-.39-.39v-.19a.39.39,0,0,1,.39-.39H71.93m0-.2H55.78a.58.58,0,0,0-.58.59v.19a.58.58,0,0,0,.58.59H71.93a.59.59,0,0,0,.59-.59v-.19a.59.59,0,0,0-.59-.59Z"/><path class="cls-124" d="M65.86,197s4.54-.34,4.94,1.36-.15,2.7-1,2.56-1.21.42-1.36-.77-1.81-.84-1.81-.84Z"/><path class="cls-8" d="M60.23,193.34l-.08-.07c-.64-.45-3.66-.86-6.07-1.31L53,191.74a9.39,9.39,0,0,1-1.51-.42,6.78,6.78,0,0,1-3.56-5.4c-.06-1.95-1-5.86-4.11-2.72,0,0-3,2.4-1.52,8.76,1.17,4.9,7.13,6.08,10.69,6.29,1.81.87,13.93,1.51,13.7,1.27s-.09-2.16.48-3.53C67.45,195.31,63.87,194.23,60.23,193.34Z"/><path class="cls-124" d="M44,178.34s0-2.07,0-2.89a2.17,2.17,0,0,1,.33-1.38c.07,0,1.6,0,2-.38s1.46-3.2,1.11-4.63a6.55,6.55,0,0,1,.07-4.14c.53-1.19.54-3.52.26-3.63s-7.21-3.52-10.57.87.55,9.91.2,10.94a10.23,10.23,0,0,0-.4,2.44l6.46,4.52Z"/><path class="cls-9" d="M36.17,176.19c-.3.24-5.72,2.68-6.85,8.69s1.05,24.13,2.1,24.54,16.06,1.1,16.59-1,2.31-15.05,1.33-19.27-3.46-9.67-4.14-10.32-3.38-.9-3.8-.9S36.17,176.19,36.17,176.19Z"/><path class="cls-8" d="M46.55,209.48l-.29-.06c0-.11,1.89-11.6.78-18.95s-4.55-11-4.58-11.08l.21-.23s3.55,3.83,4.67,11.26S46.57,209.37,46.55,209.48Z"/><path class="cls-8" d="M36.17,176.19s-.15-2.28,1.35-1.71,5.55,1.11,5.8,2.44-.3,2.43-.75,2.35S36.24,177.89,36.17,176.19Z"/><path class="cls-125" d="M54.69,246.13c.16.75-.62,1.51,0,1.51h6.13a1.54,1.54,0,0,0-.37-1.92C59.46,245,54.69,246.13,54.69,246.13Z"/><path class="cls-125" d="M31.42,209.42a13.16,13.16,0,0,0-2.61,8.06c.09,4.83,3.07,7.16,5.57,7.16s11.26-2.43,11.64-2.51c2.3-.5.13,7.37,2.73,12.88s5.45,11.08,6.32,11,2.44.65,2.26-.65-3.81-30.63-4.74-31.65S37,207.47,31.42,209.42Z"/><path class="cls-124" d="M54.53,197.06s5-.38,5.47,1.5-.17,3-1.11,2.84-1.34.46-1.5-.85-2-.94-2-.94Z"/><polygon class="cls-126" points="44.3 174.07 39.77 172.83 43.97 176.19 44.3 174.07"/><path class="cls-8" d="M49.22,161.29a.88.88,0,0,1-.27.11c-1.56.46-7.83.37-9.18,1.62a8,8,0,0,0-.83.93,3,3,0,0,0-.67,1.46,38.64,38.64,0,0,0-.2,4.58c.1,1.59-.64,3.71-2.32,2.84s-5.46-1.19-5-7.37.4-12,7.52-13,9.69,3,10.95,5.15S50.07,160.7,49.22,161.29Z"/><path class="cls-126" d="M45.43,171.52a2,2,0,0,1-.8-.14c-.76-.35-.67-.86-.67-.89a.15.15,0,1,1,.3.07s0,.28.49.52a3,3,0,0,0,1.63,0,.16.16,0,0,1,.19.12.17.17,0,0,1-.11.2A4.44,4.44,0,0,1,45.43,171.52Z"/><path class="cls-126" d="M45.26,169.63a.16.16,0,0,1-.13-.08.17.17,0,0,1,.06-.22c.18-.1.63-.43.63-.75a1.14,1.14,0,0,0-.35-.65,2.2,2.2,0,0,1-.35-.51c-.17-.47.52-1.37.73-1.63a.15.15,0,0,1,.22,0,.17.17,0,0,1,0,.23c-.38.48-.75,1.11-.68,1.3a2.28,2.28,0,0,0,.29.42,1.34,1.34,0,0,1,.43.85c0,.58-.7,1-.79,1A.08.08,0,0,1,45.26,169.63Z"/><path class="cls-127" d="M44.11,165.46c0,.41-.16.73-.37.73s-.36-.32-.36-.73.16-.73.36-.73S44.11,165.06,44.11,165.46Z"/><path class="cls-127" d="M47,165.44c0,.33-.13.6-.3.6s-.3-.27-.3-.6.14-.6.3-.6S47,165.11,47,165.44Z"/><path class="cls-127" d="M43,164.39a2.13,2.13,0,0,1,.36-.6c.1-.1.14-.13.27-.08a.87.87,0,0,0,.31.07c.29,0,.29-.48,0-.49s-.26-.1-.41-.1a.51.51,0,0,0-.38.15,2.46,2.46,0,0,0-.54.8c-.12.29.27.53.39.25Z"/><path class="cls-127" d="M46.67,163.91A.28.28,0,0,1,47,164a.23.23,0,0,0,.31.08.25.25,0,0,0,.08-.33.72.72,0,0,0-.87-.33c-.28.1-.16.57.12.47Z"/><g class="cls-128"><path class="cls-7" d="M49.28,168.41c-.5,1-8.8,1.07-9.6.78s-.69-.94-.79-2c0-.52,0-1.9,0-3.14a8,8,0,0,1,.83-.93c1.35-1.25,7.62-1.16,9.18-1.62h0S49.78,167.38,49.28,168.41Z"/></g><path class="cls-8" d="M32.83,188.43s1.26,9.72,4.63,14.81,5.32,6.54,5.32,6.54l3.48-.36.66-11.14Z"/><path class="cls-8" d="M50.21,193.05l-.07-.08c-.54-.56-3.44-1.51-5.73-2.4l-1-.41a9.29,9.29,0,0,1-1.41-.69,6.78,6.78,0,0,1-2.52-5.95c.3-1.93.09-5.94-3.55-3.42,0,0-3.42,1.81-3.08,8.33.26,5,5.91,7.28,9.37,8.14,1.62,1.18,13.42,4,13.24,3.73s.31-2.13,1.11-3.38C57,196.3,53.63,194.59,50.21,193.05Z"/><circle class="cls-129" cx="27.58" cy="253.46" r="12.34"/><circle class="cls-130" cx="25.12" cy="253.46" r="12.34"/><circle class="cls-131" cx="25.12" cy="253.46" r="9.86" transform="matrix(0.15, -0.99, 0.99, 0.15, -229.18, 239.23)"/><rect class="cls-132" x="12.34" y="225.1" width="30.87" height="23.78"/><path class="cls-7" d="M25.12,254.25a1.56,1.56,0,1,1,1.56-1.56A1.56,1.56,0,0,1,25.12,254.25Z"/><path class="cls-123" d="M25.12,251.24a1.46,1.46,0,1,1-1.45,1.45,1.45,1.45,0,0,1,1.45-1.45m0-.19a1.65,1.65,0,1,0,1.65,1.64,1.64,1.64,0,0,0-1.65-1.64Z"/><path class="cls-133" d="M85.16,247.64c-1,.25-22.23,2.48-22.23,2.48l-4.4-2.48a28.51,28.51,0,0,0,0-10c-1-5.45-5.94-20.19-5.07-21.3.49-.64,6.24-2.89,11.4-4.41l1.07-.3c3.44-.95,6.42-1.49,7.09-.86,1.74,1.6,10.28,10.77,12.14,21.54S86.15,247.39,85.16,247.64Z"/><path class="cls-131" d="M76.4,240.37l-.93-.07A79.84,79.84,0,0,0,75,228.24c-.69-7.37-8.77-15.08-10.14-16.34l1.07-.3c1.46,1.33,9.27,8.79,10,16.55A79.63,79.63,0,0,1,76.4,240.37Z"/><rect class="cls-134" x="33.64" y="247.64" width="30.22" height="2.48" rx="0.97"/><path class="cls-43" d="M35.87,243.4c.23,6.06,0,8.26-3.63,10.2a24,24,0,0,1-2.78,1.22c-6.31,2.42-22.2.93-27.23-1.48s0-17.93,0-17.93,22.15-4.66,29.49-5.53a15.6,15.6,0,0,1,1.64-.13C38,229.65,35.59,236.06,35.87,243.4Z"/><path class="cls-135" d="M35.87,243.4c.23,6.06,0,8.26-3.63,10.2h0c-3.63,1-4.18-13-4.18-13,.17-5.72,1.72-8.94,3.66-10.72a15.6,15.6,0,0,1,1.64-.13C38,229.65,35.59,236.06,35.87,243.4Z"/><path class="cls-136" d="M9.62,228.07s-5.52,1.21-6.72,5.2-1.77,5-.65,5.67,18.48,1.95,21.27,1.86,4.73.83,5.38-1.49,1.4-3.43,3.35-5.76,3.25-3.13,2.79-3.41S18.1,226.59,9.62,228.07Z"/><path class="cls-7" d="M11.26,239.08s-.47,1.62,0,2.14,4.83.92,4.92.27.79-1.39.28-2S11.38,238.56,11.26,239.08Z"/><circle class="cls-137" cx="77.84" cy="253.46" r="12.34" transform="translate(-186.83 269.24) rotate(-76.34)"/><circle class="cls-130" cx="75.39" cy="253.46" r="12.34" transform="translate(-188.7 266.86) rotate(-76.34)"/><circle class="cls-131" cx="75.39" cy="253.46" r="9.86" transform="translate(-188.69 267.22) rotate(-76.42)"/><ellipse class="cls-7" cx="66.45" cy="233.25" rx="1.93" ry="2.35" transform="translate(-62.22 27.66) rotate(-16.14)"/><path class="cls-138" d="M71.54,212.53c-.54.18-6,.86-9.34,1.09a11.53,11.53,0,0,1-2.64,0c-1.15-.36-2.13-4.23-1.34-5.37A5.5,5.5,0,0,1,62,205.41a8.4,8.4,0,0,1,2.6-.19c5,.38,7.06-.39,7.55,1.51S72.28,212.28,71.54,212.53Z"/><path class="cls-139" d="M62.2,213.62a11.53,11.53,0,0,1-2.64,0c-1.15-.36-2.13-4.23-1.34-5.37A5.5,5.5,0,0,1,62,205.41c-.57.43-1,1-1,1.36C61,207.57,61,212.9,62.2,213.62Z"/><rect class="cls-7" x="64.48" y="207.7" width="3.59" height="2.48" rx="1.08" transform="translate(-28.15 11.12) rotate(-7.92)"/><rect class="cls-8" x="8.56" y="224.64" width="35.57" height="3.05" rx="0.97"/><polygon class="cls-140" points="77.04 252.69 73.74 241.24 67.98 243.6 75.39 252.69 77.04 252.69"/><path class="cls-141" d="M65.72,246.53a1.93,1.93,0,0,1-1.86-2.85c1-2.85,6.07-8.67,11.89-8.67S85.9,237.66,87,242.9s-1.63,6.8-3.35,6-6.93-7-11.14-6S66.72,246.73,65.72,246.53Z"/><polygon class="cls-142" points="62.2 201.08 63.86 205.2 66.52 205.41 67.19 201.08 62.2 201.08"/></g></g></svg>