<svg xmlns="http://www.w3.org/2000/svg" viewBox="0 0 816.51 819.57"><defs><style>.cls-1{fill:#ebb36b;}.cls-2{fill:#fff;stroke:#fffefd;stroke-miterlimit:10;stroke-width:0.25px;}</style></defs><title>SAMLL ICONS</title><g id="Layer_2_copy" data-name="Layer 2 copy"><rect class="cls-1" x="6.55" y="8.59" width="801.59" height="801.59" rx="101.09"/><path class="cls-2" d="M522.49,162.4H287.86a39.27,39.27,0,0,0-39.23,39.23V585.29a39.27,39.27,0,0,0,39.23,39.23H522.49a39.28,39.28,0,0,0,39.23-39.23V201.63A39.28,39.28,0,0,0,522.49,162.4ZM545,585.29a22.52,22.52,0,0,1-22.49,22.49H287.86a22.52,22.52,0,0,1-22.49-22.49V201.63a22.52,22.52,0,0,1,22.49-22.5H522.49A22.52,22.52,0,0,1,545,201.63Z"/><path class="cls-2" d="M405.17,189.79a4.32,4.32,0,1,0-4.32-4.33A4.32,4.32,0,0,0,405.17,189.79Z"/><path class="cls-2" d="M389,207.2h32.35a4.3,4.3,0,0,0,0-8.6H389a4.3,4.3,0,0,0,0,8.6Z"/><path class="cls-2" d="M374.54,206.24a3.35,3.35,0,1,0-3.36-3.34A3.36,3.36,0,0,0,374.54,206.24Z"/><path class="cls-2" d="M405.17,553A25.8,25.8,0,1,0,431,578.84,25.83,25.83,0,0,0,405.17,553Zm0,43.22a17.42,17.42,0,1,1,17.43-17.41A17.43,17.43,0,0,1,405.17,596.25Z"/><path class="cls-2" d="M515.24,217H295.11a4.19,4.19,0,0,0-4.18,4.19V547.23a4.19,4.19,0,0,0,4.18,4.19H515.24a4.19,4.19,0,0,0,4.18-4.19V221.16A4.19,4.19,0,0,0,515.24,217ZM511.05,543H299.3V225.34H511.05Z"/></g></svg>