<svg xmlns="http://www.w3.org/2000/svg" viewBox="0 0 809.19 814.21"><defs><style>.cls-1{fill:#77b2e8;}.cls-2{fill:#fff;stroke:#fffefd;stroke-miterlimit:10;stroke-width:0.25px;}</style></defs><title>SAMLL ICONS</title><g id="Layer_2_copy" data-name="Layer 2 copy"><rect class="cls-1" x="3.26" y="5.98" width="803.74" height="803.74" rx="106.15"/><path class="cls-2" d="M603.14,239.05H507.38v60.6h95.76Zm-26.56,8.1-21.32,17-21.33-17ZM595,291.56H515.48V247.15H521l34.29,27.38,34.29-27.38H595Z"/><path class="cls-2" d="M376,579.51A66.64,66.64,0,0,0,395.25,620a7,7,0,0,0,4.93,2,7.25,7.25,0,0,0,2.11-.32,7,7,0,0,0,4.78-5.46A21.26,21.26,0,0,1,428,598.64h34.88a21.16,21.16,0,0,1,19.82,13.62,7,7,0,0,0,12,1.83,66.65,66.65,0,0,0-45.43-107.83,68.06,68.06,0,0,0-6.83-.36A66.8,66.8,0,0,0,376,579.51Zm66.44,9a25.29,25.29,0,1,1,25.28-25.29A25.33,25.33,0,0,1,442.42,588.54Zm-39.15-51.29a52.91,52.91,0,0,1,39.15-17.37c1.7,0,3.53.1,5.45.28a52.7,52.7,0,0,1,41.52,76.51A34.87,34.87,0,0,0,467.67,585a33.38,33.38,0,1,0-49.52,1.09A35.1,35.1,0,0,0,398,601.36a52.88,52.88,0,0,1,5.23-64.11Z"/><path class="cls-2" d="M201.69,446.61a7,7,0,0,0,11.9-5V435.5a42.3,42.3,0,0,1,37.58-42.08l.25,0a43.68,43.68,0,0,1,4.54-.26h60.79a42.42,42.42,0,0,1,42.37,42.37v6.14a7,7,0,0,0,4.29,6.45,6.89,6.89,0,0,0,2.7.54,7,7,0,0,0,4.92-2,120.56,120.56,0,1,0-169.34,0Zm91.09-67.46H279.9a46.44,46.44,0,1,1,12.88,0Zm-6.43-124.8A106.68,106.68,0,0,1,392.92,360.92,105.58,105.58,0,0,1,372,424.28a56.45,56.45,0,0,0-49.81-44.85,58.57,58.57,0,1,0-71.64,0l-.54.05a4.81,4.81,0,0,0-.85.1,56.26,56.26,0,0,0-48.42,44.69,105.54,105.54,0,0,1-20.95-63.36A106.69,106.69,0,0,1,286.35,254.35Z"/><path class="cls-2" d="M555.25,356.92a90.33,90.33,0,1,0-90.32-90.33A90.43,90.43,0,0,0,555.25,356.92Zm0-166.67a76.35,76.35,0,1,1-76.33,76.34A76.42,76.42,0,0,1,555.25,190.25Z"/><path class="cls-2" d="M145.11,360.92c0,77.89,63.35,141.26,141.24,141.26a141.23,141.23,0,0,0,60.77-13.85l27.61,30.74a86.32,86.32,0,0,0,58.92,139.5,86.68,86.68,0,0,0,72.76-27.94,86.34,86.34,0,0,0-55.26-143.86,87.11,87.11,0,0,0-50.78,10.63L375.75,470a141.77,141.77,0,0,0,51.87-109.1,140.15,140.15,0,0,0-4.05-33.23l33.49-11.85a109.83,109.83,0,1,0-11.69-49.25,108.36,108.36,0,0,0,1.41,17.32l-35,12.37a141.8,141.8,0,0,0-125.43-76.61C208.46,219.67,145.11,283,145.11,360.92ZM286.35,233.65a127.77,127.77,0,0,1,115.54,74.22,7,7,0,0,0,8.67,3.66l46.53-16.43a7,7,0,0,0,4.5-8.09,95.86,95.86,0,1,1,5.55,17.37,7,7,0,0,0-8.76-3.83l-45.56,16.12a7,7,0,0,0-4.38,8.55,126.48,126.48,0,0,1-47,138.25,7,7,0,0,0-1.07,10.31L393.82,511a7,7,0,0,0,9,1.19,73.28,73.28,0,0,1,46.95-11.54A72.36,72.36,0,0,1,442.42,645a71.36,71.36,0,0,1-7.38-.37A72.36,72.36,0,0,1,388.5,524.39c.2-.18.63-.62.82-.82a7,7,0,0,0-.07-9.26L353.94,475a7,7,0,0,0-5.2-2.31,7.07,7.07,0,0,0-3.26.8,125.38,125.38,0,0,1-59.13,14.69,127.28,127.28,0,0,1,0-254.55Z"/></g></svg>