<svg xmlns="http://www.w3.org/2000/svg" viewBox="0 0 827.23 819.06"><defs><style>.cls-1{fill:#efb30a;}.cls-2{fill:#fff;stroke:#fffefd;stroke-miterlimit:10;stroke-width:0.25px;}</style></defs><title>SAMLL ICONS</title><g id="Layer_2_copy" data-name="Layer 2 copy"><rect class="cls-1" x="14.21" y="8.08" width="801.59" height="801.59" rx="101.09"/><path class="cls-2" d="M568.34,607.68c.07-1.89,1.27-46.72-28.5-72.58a8.58,8.58,0,0,0-10.5-.45c-1.32,1-32.64,23-62.23.09a8.53,8.53,0,0,0-10.54.16,70.26,70.26,0,0,0-9,9.64A97.79,97.79,0,0,0,431,525.83a8.55,8.55,0,0,0-10.51-.44c-2,1.42-48.83,34.47-93.38.05a8.53,8.53,0,0,0-10.55.16c-1.7,1.4-41.56,35-42.56,101.17a7.55,7.55,0,0,0,2.36,5.56,8.43,8.43,0,0,0,5.83,2.32l180.26,0a8,8,0,0,0,8.19-7.51c0-.66.15-5.08-.33-11.89h89.89A8,8,0,0,0,568.34,607.68ZM290.67,619.1c2.89-41.45,22.91-67.45,32.07-77.3,42.57,28.14,86,8.61,101.62-.3,24.16,24.62,28.82,61.79,29.69,77.58Zm177.79-19.43a149.16,149.16,0,0,0-12.13-39.8,77.6,77.6,0,0,1,6.6-8.82c26.32,16.19,54.41,8.64,70.24-.17,14,15.44,17.62,37.39,18.51,48.78Z"/><path class="cls-2" d="M483.47,333H419.58v19.08c0,9.54,8.18,17.3,18.23,17.3h56.82L510.77,387a6.35,6.35,0,0,0,7,1.55,5.79,5.79,0,0,0,3.75-5.82l-1.1-13.34h29.2c10,0,18.22-7.76,18.22-17.3V283.73c0-9.54-8.18-17.28-18.22-17.28H509.85V308C509.85,321.75,498,333,483.47,333Zm27.85-24.67V278.1h38.31a5.79,5.79,0,0,1,5.93,5.63v68.32a5.8,5.8,0,0,1-5.93,5.64H513.78a6.33,6.33,0,0,0-4.51,1.87,5.66,5.66,0,0,0-1.61,4.42l.16,2-5.76-6.28a6.28,6.28,0,0,0-4.63-2H437.81a5.8,5.8,0,0,1-5.94-5.64V333.86h52.5C499.23,333.86,511.32,322.4,511.32,308.3Z"/><path class="cls-2" d="M261.64,308c0,13.8,11.83,25,26.38,25h70.91l-2,24.12a6.7,6.7,0,0,0,4.32,6.72,7.48,7.48,0,0,0,2.74.52,7.26,7.26,0,0,0,5.34-2.31L396,333h87.51c14.54,0,26.38-11.22,26.38-25V208.13c0-13.8-11.84-25-26.38-25H288c-14.55,0-26.38,11.23-26.38,25Zm14.15-99.82c0-6.4,5.49-11.61,12.23-11.61H483.47c6.74,0,12.23,5.21,12.23,11.61V308c0,6.4-5.49,11.6-12.23,11.6H392.73a7.22,7.22,0,0,0-5.34,2.31l-14.67,16,.92-11.07a6.5,6.5,0,0,0-1.86-5.08,7.24,7.24,0,0,0-5.2-2.16H288c-6.74,0-12.23-5.2-12.23-11.6Z"/><path class="cls-2" d="M497.16,534.6h0A57.49,57.49,0,0,0,537,518.92a51.72,51.72,0,0,0,16.53-37.79c0-29.48-25.31-53.45-56.38-53.45a57.58,57.58,0,0,0-39.85,15.68,55.27,55.27,0,0,0-8.27,10,67.54,67.54,0,0,0,.38-7.27c0-40.33-34.63-73.13-77.13-73.13a78.76,78.76,0,0,0-54.53,21.47,70.83,70.83,0,0,0-22.6,51.71c0,40.32,34.62,73.12,77.13,73.12h0a78.66,78.66,0,0,0,54.5-21.46,73.61,73.61,0,0,0,14.07-18.29c0,.54-.09,1.07-.09,1.61C440.81,510.63,466.1,534.6,497.16,534.6ZM468.9,454.35a40.8,40.8,0,0,1,28.26-11.13c22,0,40,17,40,37.91a36.64,36.64,0,0,1-11.73,26.8,40.74,40.74,0,0,1-28.24,11.13h0c-22,0-40-17-40-37.9A36.73,36.73,0,0,1,468.9,454.35Zm-53.68,32.51a61.93,61.93,0,0,1-42.91,16.89h0c-33.48,0-60.73-25.83-60.74-57.57a55.75,55.75,0,0,1,17.8-40.73,62,62,0,0,1,42.94-16.91c33.47,0,60.73,25.84,60.74,57.6A55.71,55.71,0,0,1,415.22,486.86Z"/></g></svg>