<svg xmlns="http://www.w3.org/2000/svg" viewBox="0 0 816 818.04"><defs><style>.cls-1{fill:#81c341;}.cls-2{fill:#fff;stroke:#fffefd;stroke-miterlimit:10;stroke-width:0.25px;}</style></defs><title>SAMLL ICONS</title><g id="Layer_2_copy" data-name="Layer 2 copy"><rect class="cls-1" x="6.04" y="8.08" width="801.59" height="801.59" rx="101.09"/><path class="cls-2" d="M419,439.74a9.87,9.87,0,0,0-11.55,7.86l-8.33,43.66a9.87,9.87,0,0,0,7.85,11.56L423.78,506a116.09,116.09,0,0,0,5.64,27.1l-14.21,9.66a9.88,9.88,0,0,0-2.63,13.73l25,36.76a9.89,9.89,0,0,0,13.73,2.62l14.21-9.65a116.69,116.69,0,0,0,23.13,15.21l-3.21,16.87a9.88,9.88,0,0,0,7.86,11.55l43.66,8.33a9.84,9.84,0,0,0,11.55-7.86l3.22-16.85a116.27,116.27,0,0,0,27.11-5.64l9.66,14.22a9.88,9.88,0,0,0,13.73,2.61l36.76-25A9.9,9.9,0,0,0,641.59,586l-9.66-14.21a116.78,116.78,0,0,0,15.23-23.13L664,551.87A9.9,9.9,0,0,0,675.57,544l8.33-43.66A9.87,9.87,0,0,0,676,488.79l-16.85-3.22a116.79,116.79,0,0,0-5.64-27.11l14.22-9.65a9.9,9.9,0,0,0,2.62-13.73l-25-36.77a9.89,9.89,0,0,0-13.73-2.62l-14.21,9.66a117.18,117.18,0,0,0-23.13-15.22l3.22-16.85a9.89,9.89,0,0,0-7.86-11.56L546,353.38a9.89,9.89,0,0,0-11.56,7.86l-3.22,16.86a116.77,116.77,0,0,0-27.11,5.63l-9.65-14.21a9.91,9.91,0,0,0-13.74-2.62l-36.76,25a9.91,9.91,0,0,0-2.62,13.72L451,419.82A116.8,116.8,0,0,0,435.81,443Zm31.74,18.17a97.35,97.35,0,0,1,20-30.36,9.9,9.9,0,0,0,1.06-12.43l-8.46-12.44,20.42-13.87,8.46,12.45a9.92,9.92,0,0,0,12,3.58,97,97,0,0,1,35.57-7.39,9.91,9.91,0,0,0,9.55-8L552,374.66l24.24,4.62L573.47,394a9.87,9.87,0,0,0,5.91,11,97.32,97.32,0,0,1,30.36,20,9.88,9.88,0,0,0,12.43,1.07l12.44-8.46L648.48,438,636,446.47a9.88,9.88,0,0,0-3.58,11.94A97.5,97.5,0,0,1,639.84,494a9.89,9.89,0,0,0,8,9.54l14.76,2.82L658,530.6l-14.76-2.82a9.87,9.87,0,0,0-11,5.91,97.39,97.39,0,0,1-20,30.37,9.88,9.88,0,0,0-1.06,12.42l8.46,12.45L599.27,602.8l-8.46-12.45a9.89,9.89,0,0,0-11.93-3.58,97.84,97.84,0,0,1-35.59,7.4,9.87,9.87,0,0,0-9.54,8L530.94,617l-24.25-4.62,2.82-14.76a9.89,9.89,0,0,0-5.91-11,97.1,97.1,0,0,1-30.37-20,9.89,9.89,0,0,0-12.42-1.06L448.35,574l-13.87-20.42,12.45-8.45a9.89,9.89,0,0,0,3.59-11.94,97.39,97.39,0,0,1-7.4-35.59,9.88,9.88,0,0,0-8-9.54l-14.76-2.81L425,461l14.76,2.81A9.87,9.87,0,0,0,450.69,457.91Z"/><path class="cls-2" d="M528.17,565.57h0a71,71,0,1,0-45.44-29.84A70.69,70.69,0,0,0,528.17,565.57Zm-37-79.38a51.3,51.3,0,0,1,50.25-41.66,52.49,52.49,0,0,1,9.71.92,51.26,51.26,0,0,1-19.21,100.71h0a51.26,51.26,0,0,1-40.74-60Z"/><path class="cls-2" d="M156.09,363.92a9.87,9.87,0,0,0,11.19,8.38l17-2.44a116.59,116.59,0,0,0,14.14,23.8l-10.3,13.76a9.88,9.88,0,0,0,2,13.83l35.57,26.65a9.89,9.89,0,0,0,13.84-2l10.3-13.75A117.57,117.57,0,0,0,276.63,439l2.43,17a9.86,9.86,0,0,0,9.79,8.47,9.51,9.51,0,0,0,1.4-.1l44-6.31a9.89,9.89,0,0,0,8.39-11.19l-2.45-17A116.21,116.21,0,0,0,364,415.76l13.75,10.3a9.9,9.9,0,0,0,13.84-2l26.64-35.58a9.89,9.89,0,0,0-2-13.83l-13.75-10.3a117.3,117.3,0,0,0,6.87-26.83l17-2.44a9.88,9.88,0,0,0,8.38-11.18l-6.32-44a9.89,9.89,0,0,0-11.18-8.38l-17,2.44a116.44,116.44,0,0,0-14.13-23.81l10.3-13.75a9.9,9.9,0,0,0-2-13.84l-35.58-26.64a9.89,9.89,0,0,0-13.84,2l-10.3,13.75a116.65,116.65,0,0,0-26.83-6.87l-2.43-17a9.89,9.89,0,0,0-11.19-8.38l-44,6.32A9.92,9.92,0,0,0,241.86,197l2.45,17a116.71,116.71,0,0,0-23.81,14.15l-13.76-10.31a9.88,9.88,0,0,0-13.83,2l-26.64,35.58a9.88,9.88,0,0,0,2,13.84L182,279.47a116.72,116.72,0,0,0-6.88,26.82l-17,2.45a9.89,9.89,0,0,0-8.37,11.19Zm58.76-115.38a9.88,9.88,0,0,0,12.46-.49,97.13,97.13,0,0,1,31.26-18.56,9.88,9.88,0,0,0,6.4-10.7l-2.14-14.87,24.45-3.51,2.12,14.88a9.89,9.89,0,0,0,9.17,8.46,97.43,97.43,0,0,1,35.2,9,9.9,9.9,0,0,0,12.1-3l9-12.05,19.76,14.79-9,12.05a9.87,9.87,0,0,0,.49,12.45,97.63,97.63,0,0,1,18.57,31.26,9.88,9.88,0,0,0,10.69,6.41l14.88-2.14,3.5,24.43-14.87,2.14a9.88,9.88,0,0,0-8.46,9.16,97.7,97.7,0,0,1-9,35.21,9.88,9.88,0,0,0,3,12.09l12.05,9-14.79,19.76-12.05-9a9.88,9.88,0,0,0-12.46.49,97.59,97.59,0,0,1-31.25,18.56A9.91,9.91,0,0,0,319.51,425l2.14,14.88-24.43,3.51-2.14-14.88a9.88,9.88,0,0,0-9.15-8.46,97.34,97.34,0,0,1-35.22-9,9.86,9.86,0,0,0-12.09,3l-9,12-19.76-14.79,9-12.06a9.86,9.86,0,0,0-.5-12.45,97.48,97.48,0,0,1-18.56-31.25,9.89,9.89,0,0,0-10.69-6.41l-14.87,2.14-3.52-24.43,14.88-2.14a9.9,9.9,0,0,0,8.46-9.16,97.24,97.24,0,0,1,9-35.21,9.89,9.89,0,0,0-3-12.09l-12.05-9,14.8-19.76Z"/><path class="cls-2" d="M292.2,393a72.67,72.67,0,0,0,10.14-.72,71,71,0,1,0-10.14.72ZM343,314.64a51.26,51.26,0,1,1-58-43.47,51.9,51.9,0,0,1,7.32-.52A51.34,51.34,0,0,1,343,314.64Z"/></g></svg>