<svg xmlns="http://www.w3.org/2000/svg" viewBox="0 0 809.36 823.4"><defs><style>.cls-1{fill:#e59af7;}.cls-2{fill:#fff;stroke:#fffefd;stroke-miterlimit:10;stroke-width:0.25px;}</style></defs><title>SAMLL ICONS</title><g id="Layer_2_copy" data-name="Layer 2 copy"><rect class="cls-1" x="5.53" y="7.31" width="801.59" height="801.59" rx="101.09"/><path class="cls-2" d="M557.19,197.8l-47.6,47.58c-2.39-.33-4.78-.56-7.16-.73-17.05-6.91-47.38-11.77-83,15.62l-.83.73L407,272.73c-44-29.83-78.88-11.44-88.69-5L274.47,224,136.4,362l52.34,52.33c.4,23.46,8.74,47.5,24.94,71.81A189.88,189.88,0,0,0,236.6,514c10.78,10.93,21.72,21.73,32.58,32.59-11.79,17.17-6.72,31.36,5.55,44.15,12.73,13.26,24.47,14.82,41.74,9.82a.36.36,0,0,1,.41.15c12.39,18.55,23.82,27.54,36.14,28.53,5.12,5,10.18,10,15.31,14.95,15.25,14.71,38.48,18,56.86,7.47,7.94-4.54,9.28-8.29,13.34-14.74,31.08,26.07,51.81,26.55,76.23-10a.37.37,0,0,1,.42-.15c17.26,5,29,3.44,41.73-9.82,13-13.51,17.91-28.59,3.41-47.09-.1-.13-3.84-5-3.66-5,10.34.33,18.52-6.25,23-12.1,12-15.54,11.28-31.86-1.61-47.94,5.63-5.67,11.34-11.27,16.95-17A187.69,187.69,0,0,0,618,460c16.21-24.3,24.55-48.34,24.95-71.8l52.33-52.33ZM245,493.92c-15.89-16.77-27.78-35.3-33-56.3a97.69,97.69,0,0,1-2.45-14.43,102.83,102.83,0,0,1-.38-12.35l-53.07-53.08,114.1-114.11,36.58,36.58,2.41,2.41L309,283l17.67,1.47,1.16-2.86c7-4.75,35.9-20.8,74.52,8.64l51.1,51.33a13.76,13.76,0,0,1-.05,19.37l-3.37,3.37a13.73,13.73,0,0,1-19.38-.05l-52.27-52.52-12.71,8.88,14.15,16.57,6.12,6.16-18,18a10.24,10.24,0,0,0-2.77,4.77c-.3.3-.59.62-.89.92Q311.6,419.87,258.87,472.63C251.86,479.68,247.25,486.81,245,493.92ZM414.43,636.29c-4.05,3.83-8.21,6.19-14.25,5.72-8.35-.65-14.14-7-18.18-11-2.48-2.43-4.92-4.9-7.39-7.34a112.35,112.35,0,0,0,18.5-12.95c4.07,6.44,5.41,10.2,13.35,14.74A46.29,46.29,0,0,0,417.61,630,13.38,13.38,0,0,1,414.43,636.29Zm75.31-7.07c-7.83,9.21-16.8,10-28.26-.6-1.78-1.65-3.52-3.33-5.29-5a49.61,49.61,0,0,0,7.12-5.65c6.56-6.33,13-12.75,19.57-19.1L485,601C495.74,611.77,497.17,620.49,489.74,629.22Zm54.6-28.56c-7.91,10.82-20,11.05-30.87.25l-16.14-16.14c8.88-8.68,17.8-17.3,26.65-26,5,5,10,10,15,15C548.62,583.43,550.27,592.57,544.34,600.66Zm22.11-64c-4,10.07-16,14.83-25.48,9.6a27.56,27.56,0,0,1-2.68-1.7c8.55-8.48,17-17,25.53-25.55C567.5,523.91,569.4,529.33,566.45,536.68Zm56-152A99.12,99.12,0,0,1,622.1,397a96.13,96.13,0,0,1-2.45,14.41c-5.23,21.1-17.21,39.71-33.19,56.53-21.69,22.81-44.4,44.63-66.66,66.88-23.35,23.36-46.61,46.82-70.15,70-4,4-9.84,10.36-18.18,11-6.05.47-10.2-1.89-14.24-5.72-3.63-3.44-4.81-12.1-3.4-17.52,1.51-5.87,6.71-11.18,11.24-15.82,10.65-10.89,21.49-21.6,32.24-32.39,5.24-5.26,10.47-10.52,15.62-15.86,5.49-5.67,21.54-17.64,12.53-26.07-8.27-7.74-20.1,7.18-25.07,12.18q-7.86,7.9-15.8,15.71c-24.72,24.14-49.1,48.62-74.43,72.09-11.45,10.63-20.43,9.82-28.26.61-7.43-8.73-6-17.45,4.78-28.26q42-42.07,84.06-84.1c3.94-3.93,7.34-6.5,8-12.51.53-4.44-1.09-8.37-5.65-9.06-7.71-1.15-11.07,1.79-16,6.73q-49.47,49.45-98.94,98.89c-10.84,10.8-22.95,10.57-30.87-.25-5.92-8.09-4.28-17.23,5.36-26.9Q342.84,497.21,393.23,447c5.48-5.45,9.78-11.56,3.07-17.85-6.42-6-11.95-.69-16.85,4.22q-38.67,38.84-77.5,77.48c-3.45,3.42-7.07,6.92-11.27,9.23-9.5,5.23-21.47.47-25.49-9.59-4.13-10.32,1.17-16.86,7.72-23.39q64.3-64.08,128.22-128.52l17.55,17.64a30.67,30.67,0,0,0,43.32.09l3.37-3.35a30.49,30.49,0,0,0,1-42.19l-38.94-39.32h0l-7.64-7.68,10.39-10.45c16.1-12.26,30.46-16.56,42.29-17.14,21.68-2,40.85,9.37,40.85,9.37l11.51-11.52,36.57-36.58L675.56,331.59Z"/></g></svg>