<svg xmlns="http://www.w3.org/2000/svg" viewBox="0 0 825.19 827.23"><defs><style>.cls-1{fill:#f05123;}.cls-2{fill:#fff;stroke:#fffefd;stroke-miterlimit:10;stroke-width:0.25px;}</style></defs><title>SAMLL ICONS</title><g id="Layer_2_copy" data-name="Layer 2 copy"><rect class="cls-1" x="12.16" y="14.21" width="801.59" height="801.59" rx="101.09"/><path class="cls-2" d="M415.34,277.83a49.05,49.05,0,0,1-26.58-7.92l-5.11-3.4-8.17,22.8,2.95,2.11c7.05,5,18.08,8.62,29.06,9.58v20.77h22.4v-22C449.26,295,462,280,462,261.32c0-24.43-18.41-35.08-34.44-41.62-19-7.86-22.22-12.12-22.22-18.71,0-6.11,4.4-12.67,16.73-12.67a44.35,44.35,0,0,1,23.2,6.28l4.89,2.78,8.51-22.45-3.51-2.05a57.09,57.09,0,0,0-24-7.46v-20H408.91V166.8c-18.77,4.56-30.66,18.58-30.66,36.63,0,22.2,17.56,32.16,36.5,39.59,14.18,5.74,19.95,11.46,19.95,19.72C434.7,271.77,426.93,277.83,415.34,277.83Zm3-43.74c-21.93-8.59-30.47-17.19-30.47-30.66,0-14.57,10.21-25.29,26.65-28l4-.65V155h3v19.54l4.65.16a51.83,51.83,0,0,1,20.57,4.57l-1.66,4.38a54.31,54.31,0,0,0-23-4.94c-18.2,0-26.34,11.17-26.34,22.26,0,14.76,12.21,21,28.18,27.59,20.23,8.27,28.49,17.75,28.49,32.74,0,15.28-11,27-28.06,29.78l-4,.67v20.39H417.1V291.73l-4.71-.08c-9-.16-18.68-2.56-25.34-6.16l1.62-4.53a59.29,59.29,0,0,0,26.67,6.48c16.8,0,29-10.39,29-24.7C444.32,246.69,430.45,239,418.32,234.09Z"/><path class="cls-2" d="M523.29,289.65a119.58,119.58,0,1,0-207.85,0h-144L134.78,389.5l17.27,227.89H671.78l15-228.42-46.56-99.32Zm-209.77-59a105.76,105.76,0,0,1,168.11-85.52c1.34,1,2.65,2,3.95,3a106.47,106.47,0,0,1,25,28.82,105.2,105.2,0,0,1,14.67,53.68c0,3.66-.19,7.25-.54,10.81a104.85,104.85,0,0,1-7.79,30.35,106.55,106.55,0,0,1-38.37,46.6,105.83,105.83,0,0,1-165-87.76ZM445,347.4H588v24.52H233.58V347.4H393.76c.49.11,1,.18,1.49.28a119.64,119.64,0,0,0,23.57,2.5h.55A119.55,119.55,0,0,0,445,347.4ZM652.51,596.8H171.13L157.29,414.11H664.53Zm13.15-199.93-.17,2.71H156.19l-.2-2.69-.34-4.49,30.2-82.17H330.24c1.7,1.9,3.55,3.66,5.36,5.45a120.07,120.07,0,0,0,30.83,22.12H224v43.74H597.62V337.8H472.31a120.38,120.38,0,0,0,36.18-27.57H627.16l38.77,82.69Z"/></g></svg>