<svg id="blue" xmlns="http://www.w3.org/2000/svg" viewBox="0 0 841.89 213.96"><defs><style>.cls-1,.cls-2{fill:#427ebe;}.cls-1,.cls-4{stroke:#fff;stroke-miterlimit:10;}.cls-1{stroke-width:4px;}.cls-3{fill:#fff;}.cls-4{fill:#d37b47;}</style></defs><title>final logo logibee</title><path class="cls-1" d="M800.94,125.36H746.21l-3.74,21.89h67.11l-8.07,46.08H679.68l31.68-180H831.75l-15,46.08h-59l-4,24.2h54.72Z"/><path class="cls-1" d="M720.82,125.36H666.1l-3.75,21.89h67.11l-8.06,46.08H599.56l31.68-180h120.4l-15,46.08h-59l-4,24.2h54.73Z"/><polygon class="cls-1" points="215.3 197.49 105.85 197.49 137.53 17.47 192.26 17.47 168.64 151.4 223.37 151.4 215.3 197.49"/><path class="cls-1" d="M479.38,184.11a202.7,202.7,0,0,1-70.57,13q-35.43,0-51.12-14.12T342,139.47q0-12.37,4-36.58,8.64-50.11,30.53-72.29T449.13,8.42a204.35,204.35,0,0,1,27.37,2.3q16.41,2.31,24.19,5.19L484.85,60a217.12,217.12,0,0,0-39.6-4q-18,0-25.78,2.88t-9.22,11.52l-14.11,81.52h18.14q9.8,0,14.55-2.17c3.17-1.43,5.23-4.75,6.19-9.93l1.44-7.78H422.64l7.77-44.07h66Z"/><path class="cls-1" d="M615.11,13.32q20.75,0,30.1,7.2t9.36,22.17q0,21.9-9.65,36T621.45,96.27L621.16,98q25.92,4.89,25.93,34.27,0,25.92-14.12,43.49t-39.75,17.57h-98.5l31.68-180ZM583.43,121.61h-21.6L556.65,151H578a12.23,12.23,0,0,0,10.94-5.76q3.75-5.76,3.75-14.69T583.43,121.61Zm8.06-68.83H574.22l-4.9,26.78h17q13.25,0,13.25-18.72Q599.56,52.79,591.49,52.78Z"/><path class="cls-1" d="M453.11,192.12,489.71,13l54.7,1.49L507.82,193.62Z"/><rect class="cls-2" x="548.15" y="31.94" width="62.31" height="136.23"/><polygon class="cls-3" points="596.32 66.24 536.24 64.65 536.49 49.92 596.57 51.51 596.32 66.24"/><polygon class="cls-3" points="597.18 38.27 593.41 79.48 611.83 60.55 597.18 38.27"/><path class="cls-1" d="M296.4,7.81a100.7,100.7,0,1,0,85.34,114A100.81,100.81,0,0,0,296.4,7.81Z"/><polygon class="cls-4" points="330.29 142.17 338.18 82.64 290.57 46.04 235.07 68.97 227.18 128.51 274.79 165.11 330.29 142.17"/><polyline class="cls-4" points="235.07 68.97 282.68 105.57 338.18 82.64"/><line class="cls-4" x1="282.68" y1="105.57" x2="274.79" y2="165.11"/><polygon class="cls-2" points="101.66 185.57 10.14 174.02 103.39 174.02 101.66 185.57"/><polygon class="cls-2" points="105.33 160.66 13.81 149.1 107.06 149.1 105.33 160.66"/><polygon class="cls-2" points="109 136.01 17.48 124.45 110.73 124.45 109 136.01"/><polygon class="cls-2" points="112.67 111.35 21.15 99.8 114.4 99.8 112.67 111.35"/><polygon class="cls-2" points="116.34 86.7 24.82 75.14 118.07 75.14 116.34 86.7"/><polygon class="cls-2" points="120.01 62.04 28.48 50.48 121.52 50.48 120.01 62.04"/><polygon class="cls-2" points="123.47 37.39 32.16 25.83 125.19 25.83 123.47 37.39"/></svg>