<svg id="blue" xmlns="http://www.w3.org/2000/svg" viewBox="0 0 841.89 220.6"><defs><style>.cls-1,.cls-2{fill:#427ebe;}.cls-1,.cls-4{stroke:#fff;stroke-miterlimit:10;}.cls-1{stroke-width:4px;}.cls-3{fill:#fff;}.cls-4{fill:#d37b47;}</style></defs><title>final logo logibee</title><path class="cls-1" d="M800.94,134.36H746.21l-3.74,21.88h67.11l-8.07,46.09H679.68l31.68-180H831.75l-15,46.09h-59l-4,24.19h54.72Z"/><path class="cls-1" d="M720.82,134.36H666.1l-3.75,21.88h67.11l-8.06,46.09H599.56l31.68-180h120.4l-15,46.09h-59l-4,24.19h54.73Z"/><polygon class="cls-1" points="215.3 206.48 105.85 206.48 137.53 26.47 192.26 26.47 168.64 160.4 223.37 160.4 215.3 206.48"/><path class="cls-1" d="M479.38,193.11a202.68,202.68,0,0,1-70.57,13q-35.43,0-51.12-14.11T342,148.47q0-12.39,4-36.58,8.64-50.13,30.53-72.3t72.58-22.18a202.93,202.93,0,0,1,27.37,2.31Q492.91,22,500.69,24.9L484.85,69a217.05,217.05,0,0,0-39.6-4q-18,0-25.78,2.88t-9.22,11.52l-14.11,81.51h18.14q9.8,0,14.55-2.16t6.19-9.94l1.44-7.78H422.64l7.77-44.06h66Z"/><path class="cls-1" d="M615.11,22.31q20.75,0,30.1,7.2t9.36,22.18q0,21.89-9.65,36t-23.47,17.57l-.29,1.73q25.92,4.91,25.93,34.28,0,25.92-14.12,43.49t-39.75,17.57h-98.5l31.68-180Zm-31.68,108.3h-21.6L556.65,160H578a12.23,12.23,0,0,0,10.94-5.76q3.75-5.76,3.75-14.69T583.43,130.61Zm8.06-68.84H574.22l-4.9,26.79h17q13.25,0,13.25-18.73Q599.56,61.77,591.49,61.77Z"/><path class="cls-1" d="M453.11,201.11,489.71,22l54.7,1.5L507.82,202.61Z"/><rect class="cls-2" x="548.15" y="40.93" width="62.31" height="136.23"/><polygon class="cls-3" points="596.32 75.23 536.24 73.65 536.49 58.92 596.57 60.51 596.32 75.23"/><polygon class="cls-3" points="597.18 47.27 593.41 88.47 611.83 69.54 597.18 47.27"/><path class="cls-1" d="M296.4,16.8a100.7,100.7,0,1,0-28.65,199.35A100.7,100.7,0,0,0,296.4,16.8Z"/><polygon class="cls-4" points="330.29 151.17 338.18 91.64 290.57 55.04 235.07 77.97 227.18 137.5 274.79 174.1 330.29 151.17"/><polyline class="cls-4" points="235.07 77.97 282.68 114.57 338.18 91.64"/><line class="cls-4" x1="282.68" y1="114.57" x2="274.79" y2="174.1"/><polygon class="cls-3" points="101.66 194.57 10.14 183.01 103.39 183.01 101.66 194.57"/><polygon class="cls-3" points="105.33 169.66 13.81 158.1 107.06 158.1 105.33 169.66"/><polygon class="cls-3" points="109 145 17.48 133.44 110.73 133.44 109 145"/><polygon class="cls-3" points="112.67 120.35 21.15 108.79 114.4 108.79 112.67 120.35"/><polygon class="cls-3" points="116.34 95.69 24.82 84.14 118.07 84.14 116.34 95.69"/><polygon class="cls-3" points="120.01 71.04 28.48 59.48 121.52 59.48 120.01 71.04"/><polygon class="cls-3" points="123.47 46.38 32.16 34.83 125.19 34.83 123.47 46.38"/></svg>