<svg id="Layer_1" data-name="Layer 1" xmlns="http://www.w3.org/2000/svg" xmlns:xlink="http://www.w3.org/1999/xlink" viewBox="0 0 1703.49 878.3"><defs><style>.cls-1,.cls-6{fill:#231f20;}.cls-1{opacity:0.14;}.cls-2{fill:#a0bfe4;}.cls-3{fill:#f8a491;}.cls-4{fill:#34548a;}.cls-5{fill:#476eb5;}.cls-7{fill:#f79c8d;}.cls-8{fill:#f58d80;}.cls-9{fill:#e88039;}.cls-10{fill:#f8974c;}.cls-11{fill:#f8a592;}.cls-12{fill:#f37458;}.cls-13{fill:#8cb0dd;}.cls-14{fill:#f9e0b2;}.cls-15{fill:#51c0a5;}.cls-16{fill:#f7cc7f;}.cls-17{fill:#1a4755;}.cls-18{fill:#d5e0f2;}.cls-19{fill:#fff;}.cls-20{fill:url(#linear-gradient);}.cls-21{fill:url(#linear-gradient-2);}.cls-22{fill:url(#linear-gradient-3);}.cls-23{fill:#8193ca;}.cls-24{fill:url(#linear-gradient-4);}.cls-25{fill:url(#linear-gradient-5);}.cls-26{fill:url(#linear-gradient-6);}.cls-27{fill:url(#linear-gradient-7);}.cls-28{fill:url(#linear-gradient-8);}.cls-29{fill:url(#linear-gradient-9);}.cls-30{fill:url(#linear-gradient-10);}.cls-31{fill:url(#linear-gradient-11);}.cls-32{fill:url(#linear-gradient-12);}.cls-33{fill:url(#linear-gradient-13);}.cls-34{fill:url(#linear-gradient-14);}.cls-35{fill:url(#linear-gradient-15);}.cls-36{fill:url(#linear-gradient-16);}.cls-37{fill:#acc7e8;}.cls-38{fill:#22131e;}.cls-39{fill:#f89f74;}.cls-40{fill:url(#linear-gradient-17);}.cls-41{fill:url(#linear-gradient-18);}.cls-42{fill:#f07163;}.cls-43{fill:#f7956e;}.cls-44{fill:#f68d64;}.cls-45{fill:#f27584;}.cls-46{fill:#4eb8d9;}</style><linearGradient id="linear-gradient" x1="1430.8" y1="324.12" x2="1458.91" y2="353.48" gradientUnits="userSpaceOnUse"><stop offset="0" stop-color="#201b59"/><stop offset="1" stop-color="#2d2d84"/></linearGradient><linearGradient id="linear-gradient-2" x1="1387.41" y1="295" x2="1416.68" y2="184.76" gradientUnits="userSpaceOnUse"><stop offset="0" stop-color="#4c57a6"/><stop offset="1" stop-color="#5560ab"/></linearGradient><linearGradient id="linear-gradient-3" x1="1468.09" y1="397.81" x2="1521.26" y2="436.84" xlink:href="#linear-gradient"/><linearGradient id="linear-gradient-4" x1="1382.53" y1="372.46" x2="1366.68" y2="561.06" xlink:href="#linear-gradient-2"/><linearGradient id="linear-gradient-5" x1="1361.19" y1="289.19" x2="1343.75" y2="359.45" gradientUnits="userSpaceOnUse"><stop offset="0" stop-color="#f5928f"/><stop offset="1" stop-color="#f8b2b1"/></linearGradient><linearGradient id="linear-gradient-6" x1="1340.82" y1="207.27" x2="1157.74" y2="446.69" xlink:href="#linear-gradient"/><linearGradient id="linear-gradient-7" x1="1340.09" y1="292.65" x2="1412.25" y2="193.94" xlink:href="#linear-gradient-5"/><linearGradient id="linear-gradient-8" x1="1302.49" y1="188.19" x2="1271.86" y2="258.97" xlink:href="#linear-gradient-5"/><linearGradient id="linear-gradient-9" x1="1305.66" y1="138.71" x2="1305.66" y2="202.63" xlink:href="#linear-gradient-5"/><linearGradient id="linear-gradient-10" x1="1299.56" y1="119.04" x2="1310.45" y2="181.16" xlink:href="#linear-gradient"/><linearGradient id="linear-gradient-11" x1="1291.74" y1="138.71" x2="1291.74" y2="202.63" xlink:href="#linear-gradient-5"/><linearGradient id="linear-gradient-12" x1="1393.75" y1="270.31" x2="1448.65" y2="270.31" xlink:href="#linear-gradient"/><linearGradient id="linear-gradient-13" x1="1400.41" y1="294.31" x2="1356.51" y2="306.35" xlink:href="#linear-gradient"/><linearGradient id="linear-gradient-14" x1="1365.37" y1="175.6" x2="1300.01" y2="286.82" xlink:href="#linear-gradient-2"/><linearGradient id="linear-gradient-15" x1="1345.35" y1="163.84" x2="1279.99" y2="275.06" xlink:href="#linear-gradient-2"/><linearGradient id="linear-gradient-16" x1="1338.11" y1="159.58" x2="1272.74" y2="270.8" xlink:href="#linear-gradient-2"/><linearGradient id="linear-gradient-17" x1="164.28" y1="512.66" x2="201.64" y2="512.66" xlink:href="#linear-gradient"/><linearGradient id="linear-gradient-18" x1="197.4" y1="528.44" x2="210.54" y2="528.44" xlink:href="#linear-gradient"/></defs><title>Artboard 1</title><ellipse class="cls-1" cx="93.08" cy="851.86" rx="78.87" ry="5.34"/><ellipse class="cls-1" cx="448.94" cy="854.47" rx="87.1" ry="11.64"/><ellipse class="cls-1" cx="673.17" cy="837.55" rx="68.79" ry="9.91"/><path class="cls-2" d="M1568.81,718a2.44,2.44,0,0,0,2.53.31c4.07-1.89,12.11-1.49,16.17-.81l7.7,19.94c-2.54,3.23-8.23,8.93-12.52,10.27a2.44,2.44,0,0,0-1.66,1.93l-2.59,16.6a2.41,2.41,0,0,0,1,2.34c3.68,2.58,7.35,9.75,8.79,13.6l-13.42,16.64c-4.07-.59-11.85-2.66-15.16-5.7a2.4,2.4,0,0,0-2.49-.48l-15.67,6.05a2.4,2.4,0,0,0-1.53,2c-.41,4.48-4.78,11.24-7.4,14.41l-21.11-3.3c-1.53-3.82-3.62-11.59-2.64-16a2.41,2.41,0,0,0-.84-2.4l-13.07-10.55a2.44,2.44,0,0,0-2.53-.31c-4.08,1.89-12.12,1.49-16.17.8l-7.7-19.93c2.54-3.23,8.23-8.93,12.51-10.28a2.39,2.39,0,0,0,1.66-1.92l2.6-16.6a2.42,2.42,0,0,0-1-2.34c-3.67-2.59-7.34-9.75-8.78-13.61l13.42-16.63c4.07.59,11.85,2.66,15.15,5.7a2.42,2.42,0,0,0,2.5.48l15.67-6.06a2.39,2.39,0,0,0,1.53-2c.41-4.47,4.77-11.23,7.39-14.41l21.12,3.3c1.52,3.82,3.62,11.6,2.64,16a2.4,2.4,0,0,0,.84,2.4Zm-44.54,12.82a21,21,0,1,0,27.21,12A21,21,0,0,0,1524.27,730.85Zm-4.86-12.59A34.54,34.54,0,1,0,1564.07,738,34.55,34.55,0,0,0,1519.41,718.26Z"/><path class="cls-2" d="M1670.39,644.72a2.44,2.44,0,0,0,1.83,1.83c4.45,1.05,10.64,6.43,13.46,9.52l-6.36,20.81c-4.07,1-12.21,2-16.49.37a2.45,2.45,0,0,0-2.54.5l-12.5,11.66a2.45,2.45,0,0,0-.68,2.5c1.32,4.38-.24,12.42-1.51,16.41l-21.2,4.9c-2.89-3-7.82-9.58-8.56-14.09a2.45,2.45,0,0,0-1.7-2l-16.35-5a2.44,2.44,0,0,0-2.51.66c-3.13,3.33-10.88,6-15,6.9l-14.84-15.91c1.18-4,4.38-11.56,7.92-14.46a2.44,2.44,0,0,0,.84-2.45l-3.84-16.66a2.48,2.48,0,0,0-1.83-1.84c-4.45-1-10.64-6.42-13.46-9.52l6.36-20.8c4.07-1,12.2-2,16.48-.37a2.45,2.45,0,0,0,2.54-.5L1593,605.57a2.46,2.46,0,0,0,.67-2.5c-1.31-4.38.25-12.43,1.52-16.42l21.2-4.89c2.89,3,7.82,9.57,8.56,14.09a2.45,2.45,0,0,0,1.7,1.95l16.35,5a2.46,2.46,0,0,0,2.5-.67c3.14-3.33,10.89-6,15-6.89l14.84,15.91c-1.18,4-4.39,11.56-7.93,14.46a2.46,2.46,0,0,0-.84,2.45ZM1626.65,627a21.42,21.42,0,1,0,14.23,26.75A21.43,21.43,0,0,0,1626.65,627Zm4-13.14A35.16,35.16,0,1,0,1654,657.77,35.17,35.17,0,0,0,1630.67,613.86Z"/><path class="cls-2" d="M1467.1,487.25a4.57,4.57,0,0,0,4-2.72c3.49-7.84,15.55-17.37,22.24-21.48l36.12,19c.41,7.84-.6,23.18-5.07,30.5a4.62,4.62,0,0,0,0,4.86l17.13,27.12a4.6,4.6,0,0,0,4.37,2.12c8.54-.9,22.82,4.78,29.73,8.52l1.62,40.77c-6.59,4.27-20.38,11.07-29,10.86a4.58,4.58,0,0,0-4.18,2.46l-14.92,28.39a4.58,4.58,0,0,0,.35,4.84c5,6.95,7.26,22.16,7.48,30l-34.5,21.79c-7-3.57-19.78-12.11-23.88-19.65a4.61,4.61,0,0,0-4.22-2.4l-32,1.28a4.61,4.61,0,0,0-4,2.72c-3.49,7.84-15.55,17.37-22.25,21.49l-36.12-19c-.4-7.85.6-23.19,5.08-30.51a4.6,4.6,0,0,0,0-4.86l-17.12-27.11a4.63,4.63,0,0,0-4.38-2.12c-8.53.89-22.81-4.79-29.72-8.53l-1.63-40.77c6.6-4.27,20.38-11.07,29-10.86a4.6,4.6,0,0,0,4.19-2.45l14.92-28.4a4.6,4.6,0,0,0-.35-4.84c-5-6.94-7.26-22.15-7.48-30l34.49-21.79c7,3.58,19.78,12.11,23.89,19.65a4.58,4.58,0,0,0,4.22,2.4Zm-47.92,74.43a40.19,40.19,0,1,0,54.27-16.88A40.19,40.19,0,0,0,1419.18,561.68Zm-22.81-12a66,66,0,1,0,89.07-27.7A66,66,0,0,0,1396.37,549.69Z"/><path class="cls-3" d="M637,795.73s-1.42,15-5.06,17.78-8.51,13-6.08,18.48a6.16,6.16,0,0,0,4,3.27A10.49,10.49,0,0,0,642.64,829a32.58,32.58,0,0,0,2.5-11.45c.55-12.21,4.2-18.41,4.2-18.41Z"/><path class="cls-3" d="M693.05,801.88s1.15,15.16.21,20.08c-.5,2.64-3.28,8.07-2,10.55a6.51,6.51,0,0,0,2.73,3.1l33.07.56c1.8,0,.61-1.18-.84-2.29-2.38-1.82-4.29-3-11.89-6.85-.49-.25-2.3-1.44-3-1.85a23.4,23.4,0,0,1-4.73-4.35c-2.37-2.76-2.58-16.1-2.58-16.1Z"/><path class="cls-4" d="M718.89,600.41s4.17,24.61,1.43,40.74-15.85,165.68-15.85,165.68l-14.59.86s-3.06-62.47-2.51-71.16,4.88-23.23,4.88-23.23l-1.46-50.43,18.41-66.26Z"/><path class="cls-5" d="M676,595.23s-11.48,18-14.22,32.89,2,60.66-3.25,80.18c-2.85,10.56-13.64,26.87-15.28,40.53s-8.08,49.41-8.08,49.41l14.58,3,33.88-89.3,26.58-80.72,6.8-41.57Z"/><path class="cls-6" d="M643.63,826.35c-7.94,1.5-13.23-3.33-16-7-2,4.11-3.25,9.23-1.77,12.6,1.31,3,4.87,3.78,7.88,3.9a8.5,8.5,0,0,0,7.74-4.5A27.76,27.76,0,0,0,643.63,826.35Z"/><path class="cls-6" d="M711.38,825.17c-8.75,2.34-15.21.75-18.83-.77-.93,2.75-2.17,6.21-1.51,8.2.8,2.43,1.94,3.19,3,3.21,8,.22,29.27.32,35.36.4a1,1,0,0,0,.77-1.7C728.61,832.63,712,825.59,711.38,825.17Z"/><path class="cls-4" d="M720.28,465.9c-2.58-16.85-17.82-29-33.75-20.78a37.64,37.64,0,0,0-10.92,8.74c-6.8,8.74-8.45,19.57-15.67,28-6.22,7.24-22.83,5.88-30.58,11.45s-13.19,15.56-13.19,27.51c0,13.36,3,27.54,13.37,36s25.07,10.56,37.94,7,23.92-12.36,31.87-23.1a116.43,116.43,0,0,0,17.54-35.28C721.31,491.14,722,476.78,720.28,465.9Z"/><path class="cls-7" d="M662,488.74s-19.56-34.92-24.32-42.34-17.16-36.92-17.6-38.08,8.54-15.12,6.53-15.6-4.22,7.36-6.36,6.43-8.39-19.81-9.61-18.87c-2.28,1.75,3.37,11.7,2.15,12.33s-4.89-10.95-7.28-10.61,4.54,10.61,3.87,11.52-7.86-8.77-9.16-6.71c-.71,1.12,6.61,8.45,5.21,9.13s-7.92-4-8.61-2.68,6,3.24,8,6.91,5.42,5.27,6.84,12.08,3.54,31.44,10.82,43.74,23.26,39.49,23.26,39.49Z"/><path class="cls-8" d="M717,530.2l-15.68,9s29.76,39.18,31.48,41l12.52-11.08Z"/><path class="cls-9" d="M704,506.79s12.17,2.32,27.34,39.89L710.5,557.84l-14.86-23.08Z"/><path class="cls-8" d="M743.11,509.26s-2.75-.79-7.3,3.12c-5.61,4.83-5.92,41.89-4.45,54.85l1.48,12.95A23.83,23.83,0,0,0,747,562.25c2.69-13.91,3.72-50.09,3.72-50.09Z"/><path class="cls-10" d="M684.53,503s-15.33-1-21.39,5.62,13.45,58.78,14.55,67.18-9,25.14-9,25.14,42.19,19.72,52.48,12.93c0,0-1.65-67.29-2.76-73.29s-10.29-30.39-12.49-32.78S684.53,503,684.53,503Z"/><path class="cls-11" d="M689.64,482.51s-.08.45-.23,1.21c-.68,3.68-3.31,15.88-5.09,19.24-2.15,4.05,7.36,17,16.5,15.4,2.73-.47-2.3-11.88-2.06-13.09.47-2.31,1.09-5.47,1.73-8.7.37-1.83.73-3.68,1.08-5.42,1-4.94,1.77-9,1.77-9Z"/><path class="cls-12" d="M689.41,483.72c.15-.76.23-1.21.23-1.21l13.7-.34s-.79,4-1.77,9c-.34,1.73-.71,3.57-1.07,5.39a12.78,12.78,0,0,1-6.54-3.28,17.17,17.17,0,0,1-5-7.36C689.17,485,689.31,484.29,689.41,483.72Z"/><path class="cls-11" d="M698.86,451.41s-6.46-.75-10.51,4.48-8.42,21.4,1.65,30.19,20-1.16,21.47-11.71S713.52,451,698.86,451.41Z"/><path class="cls-11" d="M714.45,474.21c-1.2,2.33-3.22,3.62-4.5,2.88s-1.36-3.22-.16-5.55,3.22-3.62,4.51-2.88S715.65,471.88,714.45,474.21Z"/><path class="cls-4" d="M699.58,449.68s-8.63,15.37-14.8,16.08-7,8.88-7,8.88,2.21-18.82,8.32-22.45S699.58,449.68,699.58,449.68Z"/><path class="cls-11" d="M686.4,469.63c.5,2.73-.51,5.23-2.26,5.59s-3.57-1.56-4.07-4.29.5-5.24,2.25-5.6S685.89,466.9,686.4,469.63Z"/><path class="cls-10" d="M656.56,477.42S678.2,500.65,681.42,510s-3.14,22.74-11.92,23.33-28.3-41.22-28.3-41.22Z"/><path class="cls-5" d="M763.24,512.38h-15c-8.38,0-15.18,7.11-15.18,15.88V753.17h45.33V528.26C778.42,519.49,771.62,512.38,763.24,512.38Z"/><rect class="cls-13" x="746.96" y="512.38" width="17.59" height="240.79"/><path class="cls-4" d="M755.21,836.82h0a6.61,6.61,0,0,0,6.37-5.34l5.12-23.81H744l4.77,23.72A6.63,6.63,0,0,0,755.21,836.82Z"/><polygon class="cls-14" points="744.04 807.66 766.7 807.67 778.42 753.17 733.09 753.17 744.04 807.66"/><path class="cls-10" d="M769.57,512.38H741.94a9.06,9.06,0,0,0-8.85,9.26v33h45.33v-33A9.06,9.06,0,0,0,769.57,512.38Z"/><rect class="cls-13" x="730.35" y="554.61" width="50.8" height="9.94" rx="0.67" transform="translate(1511.51 1119.15) rotate(180)"/><polygon class="cls-15" points="1051.37 150.77 1044.16 152.51 1039.31 143.65 1028.37 145.18 1023.37 139.02 1019.42 141.02 1026.11 149.26 1036.48 147.81 1041.52 157.03 1052.37 154.4 1051.37 150.77"/><polygon class="cls-10" points="1523.99 318.5 1511.88 320.64 1505.27 310.33 1507.77 308.73 1513.31 317.38 1525.79 315.17 1531.42 328.22 1539.52 325.74 1540.15 328.65 1529.76 331.84 1523.99 318.5"/><polygon class="cls-10" points="598.54 680.49 596.23 668.4 606.45 661.65 608.09 664.13 599.51 669.79 601.89 682.23 588.92 688.05 591.52 696.11 588.62 696.78 585.28 686.43 598.54 680.49"/><path class="cls-16" d="M1143.11,151.77l-4.45-10.52-11.19-2.3a1.57,1.57,0,0,1-.71-2.73l8.63-7.48-1.27-11.36a1.57,1.57,0,0,1,2.37-1.52l9.79,5.9,10.41-4.72a1.56,1.56,0,0,1,2.17,1.78L1156.28,130l7.7,8.44a1.57,1.57,0,0,1-1,2.62l-11.39,1-5.64,9.94A1.58,1.58,0,0,1,1143.11,151.77Z"/><polygon class="cls-10" points="1460.92 115.89 1470.02 115.63 1474.07 105.06 1486.74 106.76 1488.55 99.46 1490.42 100.09 1488.22 108.95 1475.35 107.22 1471.39 117.56 1460.98 117.86 1460.92 115.89"/><polygon class="cls-10" points="726.72 353.78 724.63 363.25 713.65 359.77 714.6 356.8 722.33 359.26 723.68 353.11 726.72 353.78"/><polygon class="cls-10" points="1339.3 119.21 1329.78 121.66 1325.12 109.65 1315.5 113.69 1311.34 101.61 1302.5 101.96 1298.74 92.89 1293.18 94.54 1292.62 91.72 1300.02 89.52 1303.94 98.99 1312.91 98.64 1316.84 110.05 1326.37 106.05 1331.13 118.34 1340.36 115.96 1345.74 125.49 1343.78 127.14 1339.3 119.21"/><polygon class="cls-10" points="567.81 459.69 573.09 461 573.01 467.22 578.78 470 578.17 477.22 585.29 478.3 584.98 486.26 591.46 488.07 592.29 494.8 590.6 495.01 589.91 489.41 583.22 487.54 583.53 479.76 576.34 478.67 576.98 471.02 571.29 468.28 571.37 462.33 567.4 461.35 567.81 459.69"/><rect class="cls-5" x="800.64" y="330.26" width="669.38" height="510.88" rx="81.59"/><rect class="cls-17" x="815.3" y="342.26" width="643.92" height="483.49" rx="43"/><path class="cls-4" d="M800.64,810.37V827.7c0,7.43,16,13.44,35.63,13.44h684.08c19.68,0,35.63-6,35.63-13.44V810.37Z"/><rect class="cls-13" x="859.69" y="358.98" width="556.8" height="414.86"/><rect class="cls-10" x="878.73" y="391.86" width="508.69" height="362.35"/><rect class="cls-13" x="877.37" y="364.52" width="477.41" height="389.69"/><rect class="cls-2" x="886.75" y="382.09" width="452.82" height="31.72"/><rect class="cls-18" x="878.73" y="108.33" width="395.97" height="610.59"/><rect class="cls-10" x="889.17" y="373.96" width="365.41" height="32.01"/><rect class="cls-10" x="907.89" y="435.77" width="155.88" height="6.83"/><rect class="cls-10" x="1097.63" y="435.77" width="145.08" height="6.83"/><rect class="cls-10" x="907.89" y="453.03" width="155.88" height="6.83"/><rect class="cls-10" x="1097.63" y="453.03" width="145.08" height="6.83"/><rect class="cls-10" x="907.89" y="470.29" width="155.88" height="6.83"/><rect class="cls-10" x="1097.63" y="470.29" width="145.08" height="6.83"/><rect class="cls-10" x="907.89" y="487.56" width="155.88" height="6.83"/><rect class="cls-10" x="1097.63" y="487.56" width="145.08" height="6.83"/><rect class="cls-10" x="1097.63" y="504.82" width="145.08" height="6.83"/><rect class="cls-10" x="907.89" y="504.82" width="155.88" height="6.83"/><rect class="cls-10" x="907.89" y="522.08" width="155.88" height="6.83"/><rect class="cls-10" x="1097.63" y="522.08" width="145.08" height="6.83"/><rect class="cls-10" x="907.89" y="539.34" width="155.88" height="6.83"/><rect class="cls-10" x="1097.63" y="539.34" width="145.08" height="6.83"/><rect class="cls-10" x="907.89" y="556.6" width="155.88" height="6.83"/><rect class="cls-10" x="1097.63" y="556.6" width="145.08" height="6.83"/><rect class="cls-10" x="907.89" y="573.86" width="155.88" height="6.83"/><rect class="cls-10" x="1097.63" y="573.86" width="145.08" height="6.83"/><rect class="cls-10" x="907.89" y="591.13" width="155.88" height="6.83"/><rect class="cls-10" x="1097.63" y="591.13" width="145.08" height="6.83"/><rect class="cls-10" x="1097.63" y="608.39" width="145.08" height="6.83"/><rect class="cls-10" x="907.89" y="608.39" width="155.88" height="6.83"/><rect class="cls-10" x="907.89" y="625.65" width="155.88" height="6.83"/><rect class="cls-10" x="1097.63" y="625.65" width="145.08" height="6.83"/><rect class="cls-10" x="1097.63" y="642.91" width="145.08" height="6.83"/><rect class="cls-10" x="907.89" y="642.91" width="155.88" height="6.83"/><rect class="cls-10" x="1116.25" y="142.16" width="123.03" height="6.83"/><rect class="cls-10" x="1116.25" y="159.42" width="123.03" height="6.83"/><rect class="cls-10" x="1116.25" y="176.68" width="123.03" height="6.83"/><rect class="cls-10" x="1116.25" y="193.94" width="123.03" height="6.83"/><rect class="cls-10" x="1116.25" y="211.2" width="123.03" height="6.83"/><rect class="cls-10" x="1116.79" y="240.67" width="123.03" height="6.83"/><rect class="cls-10" x="1116.79" y="257.93" width="123.03" height="6.83"/><rect class="cls-10" x="1116.79" y="275.19" width="123.03" height="6.83"/><rect class="cls-10" x="1116.79" y="292.46" width="123.03" height="6.83"/><rect class="cls-10" x="1116.79" y="309.72" width="123.03" height="6.83"/><rect class="cls-10" x="915.58" y="143.8" width="168.12" height="208.29"/><path class="cls-10" d="M726.35,180.82c-48.57,19.56-48.75,89.09-.22,109.32a39.43,39.43,0,0,1,19.94,18.92l14.51,29.07a17.18,17.18,0,0,0,21.79,8.27l18.4-7.42a17.18,17.18,0,0,0,10-21.06c-9.76-31.19-15.61-42-8.45-58.47C823.25,211.23,774.93,161.24,726.35,180.82Z"/><path class="cls-19" d="M761.57,314.21c-9.37-26.5-20.4-54.21-23.79-62-28.55,8.06-24.38-24.86-8.27-15.46,4.59,2.68,7.46,7.07,9.81,12.05a76.6,76.6,0,0,0,25.75-14.18c-2-6.61-3.76-11.55-2.85-16.26,1.38-7.13,9.21-10.73,14-5.16a10.35,10.35,0,0,1,2.34,7.8c-.73,5.81-5.78,10.66-10.24,14.57,6.36,21.31,13.34,42.65,20.8,63.54l-2.66,1c-7.33-20.55-14.21-41.54-20.49-62.51a79.49,79.49,0,0,1-25.45,13.84c4.3,10,14.94,37,23.74,61.9Zm-39-65.37c3.18,2.2,7.76,2.45,14,.76-2.12-4.39-4.66-8.19-8.5-10.43C719.42,234.1,717.27,245.16,722.62,248.84Zm42.37-30c-.77,4,.86,8.46,2.41,13.7,3.61-3.28,7.75-7.29,8.34-11.94.41-3.26-1.77-7.26-5-7.36C770.37,213.26,765.53,216.09,765,218.87Z"/><path class="cls-10" d="M745.68,308.35c.12.24.27.46.39.71l14.51,29.07a17.18,17.18,0,0,0,21.79,8.27l18.4-7.42a17.18,17.18,0,0,0,10-21.06c-4.34-13.87-7.91-23.71-9.9-31.8Z"/><path class="cls-10" d="M683.84,166.18,662.61,142a5.63,5.63,0,0,1,8.46-7.44l21.23,24.15a5.63,5.63,0,1,1-8.46,7.44Z"/><path class="cls-10" d="M665.76,240.13l-33.51,4.47a5.63,5.63,0,0,1-1.49-11.17L664.27,229a5.63,5.63,0,1,1,1.49,11.17Z"/><path class="cls-10" d="M655.7,348.17a5.63,5.63,0,0,1-1.7-7.78,184.05,184.05,0,0,1,21.6-27.45,5.63,5.63,0,1,1,8.15,7.78,173.2,173.2,0,0,0-20.27,25.76A5.61,5.61,0,0,1,655.7,348.17Z"/><path class="cls-10" d="M764.71,146.55a5.64,5.64,0,0,1-5.4-5.87,214.05,214.05,0,0,0-2.77-44.22,5.64,5.64,0,0,1,11.12-1.86,226,226,0,0,1,2.91,46.55A5.65,5.65,0,0,1,764.71,146.55Z"/><path class="cls-10" d="M808,181.23a5.64,5.64,0,0,1,2.14-7.68L842,155.62a5.64,5.64,0,1,1,5.53,9.82l-31.87,17.93A5.62,5.62,0,0,1,808,181.23Z"/><path class="cls-10" d="M884.45,259.6a6,6,0,0,1-1.54.13,177.74,177.74,0,0,1-37.28-6.07,5.64,5.64,0,0,1,3-10.87,165.73,165.73,0,0,0,34.9,5.68,5.64,5.64,0,0,1,.93,11.13Z"/><path class="cls-10" d="M1424.09,95.44a16.15,16.15,0,1,1-21.33-8.17A16.15,16.15,0,0,1,1424.09,95.44Z"/><path class="cls-19" d="M1402.5,107.87a8.64,8.64,0,1,0,15.77-7Z"/><path class="cls-13" d="M973.55,279.1,959.2,322.56H940.75L987.69,184.4h21.53l47.15,138.16H1037.3l-14.76-43.46Zm45.3-13.94-13.53-39.77c-3.07-9-5.12-17.21-7.17-25.21h-.41c-2,8.2-4.31,16.6-7,25l-13.53,40Z"/><path class="cls-10" d="M1573.11,483.84l-6.24-5.46-8,2a1.14,1.14,0,0,1-1.33-1.55l3.27-7.62-4.43-7a1.14,1.14,0,0,1,1.07-1.74l8.26.75,5.3-6.38a1.14,1.14,0,0,1,2,.48l1.84,8.09,7.7,3.07a1.13,1.13,0,0,1,.16,2l-7.12,4.25-.54,8.27A1.14,1.14,0,0,1,1573.11,483.84Z"/><path class="cls-10" d="M678.14,79,671.9,73.5l-8,2A1.14,1.14,0,0,1,662.54,74l3.27-7.62-4.43-7a1.14,1.14,0,0,1,1.07-1.74l8.26.75L676,52a1.14,1.14,0,0,1,2,.47l1.84,8.09,7.7,3.07a1.13,1.13,0,0,1,.16,2l-7.12,4.25L680,78.18A1.14,1.14,0,0,1,678.14,79Z"/><path class="cls-10" d="M844.91,85.57l-6.24-5.46-8,2a1.13,1.13,0,0,1-1.32-1.55L832.57,73l-4.42-7a1.13,1.13,0,0,1,1.06-1.74l8.26.75,5.3-6.38a1.14,1.14,0,0,1,2,.48l1.83,8.08,7.7,3.08a1.13,1.13,0,0,1,.16,2l-7.12,4.25-.54,8.27A1.13,1.13,0,0,1,844.91,85.57Z"/><path class="cls-10" d="M1329.94,55.59l-6.68,4.07,6.93,31.12a4,4,0,0,0,6,2.56h0A4,4,0,0,0,1338,89l-1.69-7.31,7-4.26,5.79,4.85a4,4,0,0,0,4.67.35l.13-.08a4,4,0,0,0,.49-6.52Zm4.52,18.76-1.28-5.72,4.49,3.76Z"/><path class="cls-10" d="M1449.81,14.3A95.41,95.41,0,0,1,1465,17.49c7,2,11.13,3.92,14.2,7.16a11.53,11.53,0,0,1,3.27,11.71c-1.3,4.53-5.15,8-11.49,8.48l0,.15c5.36,3.24,8.41,8.85,6.53,15.42a14.07,14.07,0,0,1-8.37,9.28c-4.53,1.89-11.2,1.78-21.31-1.11a93.32,93.32,0,0,1-12.24-4.31ZM1455.64,37l3.78,1.08c6,1.72,10,.16,11.07-3.61s-1.26-6.73-6.47-8.22a33,33,0,0,0-5-1.1Zm-6.45,22.57A38.81,38.81,0,0,0,1453.6,61c5.21,1.49,10.37.84,11.91-4.52,1.46-5.13-2.56-8.48-8.29-10.12l-3.93-1.12Z"/><path class="cls-10" d="M1540.44,186.51a4.77,4.77,0,0,1-3.51,5.7,44.66,44.66,0,0,1-8.82,1.14c-18,.6-27.61-10.27-28.11-25.09-.6-17.74,11.72-28,27.46-28.58a40,40,0,0,1,8.1.52,4.78,4.78,0,0,1,3.83,5.73l0,.16a4.76,4.76,0,0,1-5.46,3.68,26.74,26.74,0,0,0-5.56-.38c-9.34.31-16.4,6.19-16,17.76.35,10.42,6.75,16.77,17.24,16.41a30.63,30.63,0,0,0,5.26-.66,4.77,4.77,0,0,1,5.62,3.61Z"/><path class="cls-20" d="M1423,309s-7.75.41-8.7,16.36c0,0,18,16.12,42.26,20,1.83.28-2.54-12.45-3.2-14.18C1450.19,322.9,1440.34,317.61,1423,309Z"/><path class="cls-21" d="M1335.64,290.2H1352s50.22-55.46,83.16-61.06c0,0,22.93,29.27-1.22,84-1.94,4.4-7.38,6.35-11.43,3.76a6.54,6.54,0,0,1-2.61-3.11l1.94-46.7s-42.84,37.47-50.29,44.7S1326.26,314.58,1335.64,290.2Z"/><path class="cls-22" d="M1493.83,406.65A61.56,61.56,0,0,0,1460.28,392l-5.34,3.26a57.94,57.94,0,0,0,9.62,10.32c5.71,3.32,14.52,7.81,21.84,8.78C1493.5,415.28,1494.55,411,1493.83,406.65Z"/><path class="cls-23" d="M1453.32,331.1c-4.23,1.37-6.08,7.36-16.8,3.4a94.93,94.93,0,0,1-22-11.62c-.09.78-.16,1.58-.21,2.44,0,0,19,18,43.24,21.87a2.41,2.41,0,0,0,2.61-3.26A61.1,61.1,0,0,0,1453.32,331.1Z"/><path class="cls-23" d="M1499,411.78a56.84,56.84,0,0,0-5.16-5.13c.72,4.33-.33,8.63-7.43,7.68-7.32-1-16.13-5.46-21.84-8.78,7.15,6.1,18,12.58,31.79,12.2A3.6,3.6,0,0,0,1499,411.78Z"/><path class="cls-24" d="M1336.23,302l76.63.83s43.76,36.2,51.7,91.41c0,0,1.31,4.06-6.6,4.75,0,0-26.45-17.27-43.7-47.82-21.15-37.46-55.18-24.09-55.18-24.09-41.28,14.07-55.42-6.82-55.76-11.77Z"/><path class="cls-25" d="M1338,240.32s8.25,41.34,48.67,57.69l14.38-1.69,3.39,5.4-33.72,1.08s-28.83-11.42-44.1-42.53C1326.15,259.24,1317.74,241.88,1338,240.32Z"/><path class="cls-26" d="M1342.46,301.37s-9.38-25.5-11.39-50.28c0,0,6.86-5.9,11.15-8.44a3.1,3.1,0,0,0,1.21-4c-3.15-6.54-22.22-32.19-23.65-32.54-7.77-1.94-39.61-17.08-62,13.6-9.62,13.16,1.91,53.69,45.58,95.66l1.45.28a22.12,22.12,0,0,0,14.38-2.11Z"/><path class="cls-27" d="M1306.32,256.68s26.06,30.86,59.38,35.37c0,0,8.61-7.85,15-5.05s15.18,15.17,15.18,15.17h-42.78s-40.46-1.42-60.67-25.95C1294.08,267.64,1299,262.51,1306.32,256.68Z"/><path class="cls-28" d="M1291.12,184.44l-5.71,19a2.1,2.1,0,0,0,.82,2.33c2.74,1.88,9.92,5.62,19.76,2a3.09,3.09,0,0,0,2-2.67l1.36-16.56Z"/><path class="cls-29" d="M1324.51,169s-2.81,19.72-10.38,25.78-22.33,1.5-27.31-13.37l9.93-25.41Z"/><path class="cls-30" d="M1295.63,172.49a1,1,0,0,0,1.27-.79,25.13,25.13,0,0,1,2.34-7.87s-.73-2.59,6.53,1.32,18.17,9.65,24.59,6.23c6.25-3.33,12.59-20.1-3.95-17a1,1,0,0,1-1.16-1c.2-2.76-.07-9.1-6.49-11.13-6-1.91-9.3.81-10.65,2.44a1,1,0,0,1-1.52,0c-1.8-2.35-6.69-7.35-13.89-4.18-5.93,2.61-6.85,6.26-6.75,8.54a1,1,0,0,1-1.39.93c-1.81-.84-4.73-1.28-7.53,2.23-3.87,4.84,1.66,9.05,3.32,10.15a1,1,0,0,1,.44.8c0,2.52.41,13.52,5.92,19.72a1,1,0,0,0,1.63-.29l4.24-10.1a1,1,0,0,1,1.21-.56Z"/><path class="cls-31" d="M1295.72,174.54s-2.59-10.55-6.53-7.13,1,11,5.54,12.4Z"/><path class="cls-32" d="M1393.75,304.57l19.2-64.06a6.57,6.57,0,0,1,5.83-4.66l25.94-1.77a3.68,3.68,0,0,1,3.72,4.89L1427,300.15a5.38,5.38,0,0,1-4.54,3.57l-25.53,2.84Z"/><path class="cls-33" d="M1396.89,306.56h-.13l-54.42-2.75a2.44,2.44,0,0,1,.25-4.87l54.42,2.75a2.44,2.44,0,0,1-.12,4.88Z"/><path class="cls-34" d="M1331.07,251.58h0a.49.49,0,0,1-.49-.49c0-11.36-4.35-26.45-4.39-26.6a.48.48,0,1,1,.93-.27c.05.15,4.47,15.37,4.44,26.87A.49.49,0,0,1,1331.07,251.58Z"/><path class="cls-35" d="M1306.32,257.17a.49.49,0,0,1-.38-.19c-.12-.15-12-15.29-16.12-25.66a.48.48,0,1,1,.9-.36c4,10.24,15.86,25.27,16,25.42a.49.49,0,0,1-.38.79Z"/><path class="cls-36" d="M1289.59,280.31l-.36-.15c-17.24-7.38-27.88-28-28-28.17a.48.48,0,0,1,.21-.65.49.49,0,0,1,.66.21c.1.2,10.44,20.18,27.14,27.55l1.75-2.47a.49.49,0,0,1,.79.57Z"/><path class="cls-19" d="M332.87,792.08s-13.35,33.58-2.16,59L74.13,853.21l-23.68-2.15L29.59,838.12V818.34L35.39,802l18.94-9.9Z"/><path class="cls-4" d="M62.11,856.48H339.33a3.27,3.27,0,0,0,0-6.54H62.11c-16.73,0-30.34-12.63-30.34-28.16s13.61-28.16,30.34-28.16H339.33a3.27,3.27,0,0,0,0-6.54H62.11c-20.33,0-36.88,15.57-36.88,34.7S41.78,856.48,62.11,856.48Z"/><path class="cls-37" d="M329.1,822.51h-136a.73.73,0,1,1,0-1.46h136a.73.73,0,0,1,0,1.46Z"/><path class="cls-37" d="M173.9,822.51H41.74a.73.73,0,1,1,0-1.46H173.9a.73.73,0,0,1,0,1.46Z"/><path class="cls-37" d="M113.1,835.52H45.29a.73.73,0,1,1,0-1.45H113.1a.73.73,0,1,1,0,1.45Z"/><path class="cls-37" d="M329.1,835.52h-206a.73.73,0,1,1,0-1.45H329.1a.73.73,0,1,1,0,1.45Z"/><path class="cls-19" d="M75.59,727.32s12.39,31.16,2,54.73l238.13,2,22-2,19.36-12V751.69l-5.38-15.19-17.58-9.18Z"/><path class="cls-4" d="M326.87,787.08H69.6a3,3,0,1,1,0-6.06H326.87C342.4,781,355,769.29,355,754.88s-12.64-26.13-28.17-26.13H69.6a3,3,0,0,1,0-6.07H326.87c18.88,0,34.24,14.45,34.24,32.2S345.75,787.08,326.87,787.08Z"/><path class="cls-37" d="M205.35,755.61H79.09a.73.73,0,1,1,0-1.45H205.35a.73.73,0,0,1,0,1.45Z"/><path class="cls-37" d="M345.79,755.61H223.13a.73.73,0,1,1,0-1.45H345.79a.73.73,0,0,1,0,1.45Z"/><path class="cls-37" d="M342.49,767.69H279.56a.73.73,0,0,1-.73-.73.72.72,0,0,1,.73-.72h62.93a.73.73,0,0,1,.73.72A.73.73,0,0,1,342.49,767.69Z"/><path class="cls-37" d="M342.49,743.52H79.09a.73.73,0,0,1-.73-.72.73.73,0,0,1,.73-.73h263.4a.73.73,0,0,1,.73.73A.73.73,0,0,1,342.49,743.52Z"/><path class="cls-38" d="M339.33,857.2H62.11c-20.74,0-37.61-15.89-37.61-35.42s16.87-35.42,37.61-35.42H339.33a4,4,0,0,1,0,8,.73.73,0,0,1-.73-.73.72.72,0,0,1,.73-.72,2.55,2.55,0,0,0,0-5.09H62.11c-19.93,0-36.15,15.24-36.15,34s16.22,34,36.15,34H339.33a2.54,2.54,0,1,0,0-5.08.73.73,0,0,1,0-1.46,4,4,0,0,1,0,8Z"/><path class="cls-38" d="M326.87,787.81H69.6a3.76,3.76,0,0,1,0-7.52.73.73,0,1,1,0,1.45,2.31,2.31,0,1,0,0,4.62H326.87c18.48,0,33.51-14.12,33.51-31.48s-15-31.47-33.51-31.47H69.6a2.31,2.31,0,1,0,0,4.61.73.73,0,0,1,0,1.46,3.76,3.76,0,0,1,0-7.52H326.87c19.28,0,35,14.77,35,32.92S346.15,787.81,326.87,787.81Z"/><path class="cls-10" d="M295.39,808.76s8.73,21.75,3.7,37.76l-7.1-11a94.54,94.54,0,0,0-7.81,11s-5.42-35.76-15.92-37.76Z"/><path class="cls-10" d="M229.62,767s-8.74,21.75-3.7,37.76l7.09-11a94.54,94.54,0,0,1,7.81,11S246.24,769,256.74,767Z"/><path class="cls-37" d="M329.1,809.48H45.29a.73.73,0,0,1-.73-.72.73.73,0,0,1,.73-.73H329.1a.73.73,0,0,1,.73.73A.73.73,0,0,1,329.1,809.48Z"/><path class="cls-37" d="M270.32,767.69H79.09a.73.73,0,0,1-.73-.73.73.73,0,0,1,.73-.72H270.32a.73.73,0,0,1,.73.72A.73.73,0,0,1,270.32,767.69Z"/><polygon class="cls-39" points="120.33 827.8 132.87 834.85 147.86 820.1 148.26 817.71 144.59 790.89 115.42 796.32 120.33 827.8"/><path class="cls-6" d="M141.75,835.63l-40.21,5.47a5.36,5.36,0,0,1-.9-.06c-4-.64-3-3.21-3-3.21l17.63-14.58.13-1.8c.21-2.88,3.54-4.34,6.38-2.8l7.41,4s17.42.25,19.11-4.94l1.58,12.65S151.69,834.21,141.75,835.63Z"/><polygon class="cls-39" points="68.37 829.52 80.91 836.57 95.9 821.82 96.3 819.43 92.63 792.61 63.46 798.04 68.37 829.52"/><path class="cls-6" d="M89.79,837.35l-40.21,5.47a5.36,5.36,0,0,1-.9-.06c-4-.64-3-3.21-3-3.21L63.27,825l.13-1.8c.21-2.88,3.54-4.34,6.38-2.8l7.41,4s17.42.25,19.11-4.94l1.58,12.65S99.73,835.93,89.79,837.35Z"/><path class="cls-5" d="M167,722.37s50.16,2.36,64.09-.73,17.36-46.57,1.54-73.21-71.15,55.15-71.15,55.15Z"/><path class="cls-4" d="M135.94,657.8s-69.85,10.87-71.87,19S56.24,771,60.58,807.7c0,0,26.61,1.83,39.34-1.25l3.6-84.15,21.42.39,47.2-66.07Z"/><path class="cls-5" d="M169.92,662.86s-54.08,15.26-56.11,23.36-7.79,84.94-3.45,121.67c0,0,28.61,1.64,41.34-1.44L155.13,722l12.34.43,29.93-52.65Z"/><path class="cls-10" d="M203.45,559.81s23.91.4,29.46,3.68,31,45.22,36.51,63c0,0-14.37,12.58-32.88,13.06l-4.44-8.39,2.54,17.17-48.49,14.38A79.49,79.49,0,0,1,136,661.09l-5-1.85s.08-81.61,14.65-90.23C158.62,561.33,186.75,557.28,203.45,559.81Z"/><path class="cls-39" d="M173.41,519.71v23.11s-.32,7.8,6.51,8.78L178.64,562a8.15,8.15,0,0,0,5.56,8.76,21.53,21.53,0,0,0,6.46,1c7.81,0,12-5.86,12.69-8.79s-1.3-16.92-1.3-16.92l.23-6.88-.88-26.64Z"/><path class="cls-40" d="M200.49,513.84,195,521.55s-16.51,6.41-25-1.18-5.85-11.24-3.37-15c1.22-1.88,7.06-5.69,14.21-2.51,3.91,1.73,6.8-3.44,11.36-.84s9.93,7.11,9.32,8.89S200.49,513.84,200.49,513.84Z"/><path class="cls-41" d="M200.16,510.58s7.51-.36,9.6,6.87-.72,11-.79,13.18,1.39,16.69-8.81,15.6l-2.76-24,3.55-9.56Z"/><circle class="cls-39" cx="199.61" cy="532.24" r="5.86" transform="translate(-317.89 297.03) rotate(-45)"/><path class="cls-42" d="M195.76,545S195.3,558,179,559.29l.94-7.69S190.51,553.73,195.76,545Z"/><path class="cls-38" d="M232.75,632.23A61.7,61.7,0,0,0,265,616.88l-.69-.68a60.85,60.85,0,0,1-31.73,15.06Z"/><path class="cls-38" d="M134.53,808.89c12.64,0,17.15-1.9,17.37-2l.28-.13,3.32-85-5.23,2.46.42.88,3.77-1.78-3.23,82.75c-1.37.48-7.93,2.37-23.42,1.65l0,1Q131.48,808.9,134.53,808.89Z"/><path class="cls-38" d="M146.39,790.57c1.35-5.21,1.73-56,1.75-58.13h-1c0,.53-.4,52.8-1.72,57.89Z"/><path class="cls-38" d="M81.69,809.21a89.12,89.12,0,0,0,18.7-1.88l3.13-85-4,2.77.62.76,2.33-1.88-3,82.6a88.83,88.83,0,0,1-18.69,1.67v1Z"/><path class="cls-38" d="M95.3,792.45c1.34-7.86.06-61.07,0-63.34l-1,0c0,.55,1.33,55.38,0,63.15Z"/><path class="cls-39" d="M143.55,667.06l5.53-8.6h0c3-4.92,8-11.37,13.08-11.94,8.36-.94,59.3-3,75.47-5,0,0-1.11-2-1.09-1.94.19,0,13.22-2.22,13.22-2.22l8.39-4,7.54-3.26c2.08,8.12,7.8,21.45,1.93,30.74-10.83,17.16-93.67,8.71-101,6.47l-6.77,7.33-1.38,2.12a2.17,2.17,0,1,1-3.64-2.37l-.58.89a2.17,2.17,0,0,1-3,.64h0a2.18,2.18,0,0,1-.64-3,2.17,2.17,0,0,1-3.64-2.36l.58-.89a2.18,2.18,0,0,1-3,.63h0l-.11-.08,0,0,0,0h0a2.44,2.44,0,0,1-.35-.37A2.37,2.37,0,0,1,143.55,667.06Z"/><path class="cls-38" d="M236.28,640.23h.31c16.46-.39,33-13,33.17-13.17l.3-.23-10.43-23.13-.89.4,10.11,22.42c-2.3,1.7-17.16,12.24-32,12.72l-4.48-9.11-.87.43Z"/><path class="cls-42" d="M243.44,649.47a.33.33,0,0,0,.33-.52l-5.93-7.63a.32.32,0,1,0-.51.4l5.93,7.63A.32.32,0,0,0,243.44,649.47Z"/><path class="cls-42" d="M146.58,670.9a.33.33,0,0,0,.33-.12l7.76-10.66a.32.32,0,1,0-.52-.38l-7.76,10.65a.32.32,0,0,0,.07.46A.33.33,0,0,0,146.58,670.9Z"/><path class="cls-42" d="M150,674a.33.33,0,0,0,.35-.14l7.4-11a.32.32,0,0,0-.09-.45.33.33,0,0,0-.45.08l-7.4,11a.33.33,0,0,0,.08.45Z"/><path class="cls-42" d="M154.1,676a.34.34,0,0,0,.34-.14l6.16-9.31a.32.32,0,1,0-.54-.36l-6.16,9.31a.32.32,0,0,0,.09.45Z"/><path class="cls-38" d="M188.45,723.28c-24.74,0-39.69-1.66-39.91-1.69l.11-1c.34,0,33.89,3.76,83.91,0l.08,1C215.85,722.86,200.91,723.28,188.45,723.28Z"/><rect class="cls-38" x="132.87" y="612.63" width="41.47" height="0.98" transform="translate(-464.06 747.29) rotate(-88.19)"/><rect class="cls-38" x="226.42" y="593.6" width="0.98" height="48.63" transform="translate(-227.41 141.57) rotate(-23.48)"/><rect class="cls-38" x="232.12" y="628.47" width="0.98" height="13.54" transform="translate(-98.33 45.23) rotate(-9.18)"/><polygon class="cls-17" points="49.08 603.69 126.61 603.69 153.66 672.55 76.12 672.55 49.08 603.69"/><polygon class="cls-17" points="153.66 672.55 149.61 672.55 122.57 603.69 126.61 603.69 153.66 672.55"/><path class="cls-17" d="M99.77,635.93c1.08,3.16.29,6.29-1.76,7s-4.57-1.3-5.65-4.47-.29-6.29,1.76-7S98.7,632.76,99.77,635.93Z"/><path class="cls-17" d="M179.28,667h-29v5.56h29a2.78,2.78,0,0,0,2.79-2.78h0A2.78,2.78,0,0,0,179.28,667Z"/><rect class="cls-17" x="153.65" y="668.9" width="18.3" height="0.87"/><rect class="cls-17" x="142.74" y="672.55" width="34.12" height="12.19"/><path class="cls-43" d="M451.8,743.33c-.46-.35-10.73-8.63-11.54-9-7.56,5.1-6.55,18.9-14.88,24.51,5.41,1.14,9.24,1.87,10.77,2.09l4.63,10.27.63,2.69a3.14,3.14,0,0,0,3.35,2.07c1.54-.13,2.55-1.27,2.25-2.54l.27,1.12a3.13,3.13,0,0,0,3.34,2.08h0c1.55-.13,2.56-1.27,2.26-2.55a3.12,3.12,0,0,0,3.35,2.07c1.54-.13,2.55-1.27,2.25-2.54l-.26-1.13a3.12,3.12,0,0,0,3.34,2.08h0l.27,0h0l.29-.06c1.47-.35,2.08-1,2.23-1.71.31-1.45-1.91-9.51-2.88-13.32C460.05,753.46,457.34,747.52,451.8,743.33Z"/><path class="cls-42" d="M458.52,773.67l.15,0a.43.43,0,0,0,.26-.55l-6.09-16.36a.44.44,0,0,0-.56-.25.43.43,0,0,0-.25.55l6.09,16.36A.43.43,0,0,0,458.52,773.67Z"/><path class="cls-42" d="M453,775l.15,0a.42.42,0,0,0,.25-.55l-5.52-14.84a.42.42,0,0,0-.55-.25.43.43,0,0,0-.26.55l5.53,14.84A.43.43,0,0,0,453,775Z"/><path class="cls-43" d="M428.81,724.86c8.14,6.63,22.79,18.58,25.8,21.3,4.23,3.8-15.51,20.22-15.51,20.22s-22.85-12.1-35.41-20.74Z"/><path class="cls-42" d="M447.2,774.68l.15,0a.43.43,0,0,0,.26-.55l-4.44-11.93a.44.44,0,0,0-.56-.25.43.43,0,0,0-.25.55l4.44,11.93A.43.43,0,0,0,447.2,774.68Z"/><path class="cls-38" d="M511.41,761.11a.6.6,0,0,0,.4-.15l9.08-7.87a.62.62,0,0,0,.07-.87.63.63,0,0,0-.88-.07L511,760a.62.62,0,0,0,.41,1.09Z"/><path class="cls-4" d="M327.62,775.85S334.85,754,411.83,758c88,4.65,148-10.55,163.53,17.82l-122,45.27Z"/><path class="cls-5" d="M466.06,814.85s-69.83-42.07-94.33-48.38-41.45,2-44.11,9.38-5.17,27.27,11.12,39c7.05,5.08,87.59,29,108.89,34.63C447.63,849.48,467.4,841.16,466.06,814.85Z"/><path class="cls-38" d="M451.27,806.77a.63.63,0,0,0,.53-.3.62.62,0,0,0-.21-.85c-66.87-40-88.78-41.94-89.67-42a.62.62,0,1,0-.09,1.24h0c.21,0,22.64,2.09,89.12,41.83A.62.62,0,0,0,451.27,806.77Z"/><path class="cls-39" d="M433.44,856.29,465,840.2l-15.19-29.82-25.76,13.13h0s-42.6-.37-44.64,1.62S423.54,861.33,433.44,856.29Z"/><path class="cls-6" d="M444.28,850.76c-9.06-10-14-24.49-15.54-29.64l-4.67,2.39s-42.6-.37-44.64,1.62,44.11,36.2,54,31.16Z"/><path class="cls-5" d="M436.92,814.85s69.83-42.07,94.32-48.38,41.45,2,44.12,9.38,5.16,27.27-11.12,39c-7,5.08-93.25,30.56-114.55,36.16C449.69,851,435.57,841.16,436.92,814.85Z"/><path class="cls-38" d="M449.69,851.62a.61.61,0,0,0,.34-1.13c-11.78-7.78-12.46-32.07-12.49-35.28,4.89-2.84,65.55-38,89.75-47.07a.62.62,0,0,0-.43-1.16c-25.2,9.44-89.61,47-90.25,47.34l-.31.18v.35c0,1.14-.07,28,13.05,36.67A.61.61,0,0,0,449.69,851.62Z"/><path class="cls-38" d="M334.85,775.22a.61.61,0,0,0,.5-.26c0-.05,2.5-3.23,10.49-3.13a.61.61,0,0,0,.63-.61.63.63,0,0,0-.61-.63c-8.74-.11-11.41,3.5-11.51,3.65a.62.62,0,0,0,.14.87A.69.69,0,0,0,334.85,775.22Z"/><path class="cls-38" d="M338.82,778.31a.63.63,0,0,0,.45-.19s2.94-2.83,10.83-1.56a.62.62,0,0,0,.2-1.22c-8.64-1.39-11.8,1.79-11.92,1.92a.63.63,0,0,0,0,.88A.65.65,0,0,0,338.82,778.31Z"/><path class="cls-4" d="M467.69,594.24s-3.67,33-8.6,33.33,3.4,39,16.46,20c4.58-6.63,4.37-50.05-6.55-59.33S467.69,594.24,467.69,594.24Z"/><path class="cls-39" d="M469.48,586s4.53,31.18.45,36.73c0,0-2,3-6.86,3.1l.38,18.33-22-2.52-.74-52.11S447,576.6,447,577.13,469.48,586,469.48,586Z"/><path class="cls-42" d="M463.15,632l-.08-6.24s-10.55-.47-17.07-4.45C446,621.33,454.89,629.64,463.15,632Z"/><path class="cls-39" d="M459.93,586.56l-5.35-7.42s8.59,5.38,7.88,5.6A13,13,0,0,0,459.93,586.56Z"/><path class="cls-4" d="M443.88,583s1.53,11.63,29.38,14c0,0,6.47-17.2-13.75-23s-22.06,9.76-21.65,9.62S443.88,583,443.88,583Z"/><path class="cls-4" d="M448.08,589.56a105.8,105.8,0,0,0-7.53,13.16s9.3,48.7-9.45,46l-3.35-.05c-16.58-.22-5.11-36.11-4.82-55.16.17-11.93,14.65-24,24.07-16.77S448.08,589.56,448.08,589.56Z"/><path class="cls-4" d="M470.72,580.68s9.66,10.19,7.44,39.5l-6.65-28.91Z"/><path class="cls-10" d="M464.26,695.6l-13.42-56.36H414.28c-3.89,0-9.23,2.56-9.46,2.67-14.68,7.81-55.05,52.31-53,80.34,1.83,25.45,38.47,20.4,75,26.29l8.11-33.75-13.2-3.53Z"/><path class="cls-10" d="M452.16,703.92V639.24h36.56c3.88,0,9.23,2.56,9.46,2.67,14.67,7.81,60.1,53.72,58.09,81.75-1.83,25.45-44.67,24.43-64.75,30.62l-11.15-40.35,1-2Z"/><path class="cls-10" d="M511.43,712.72,511,783.26s-63.85,11.67-120.7-3.45c-1.4-.37,2.66-58.3,2.66-58.3s0-11.24,5.93-14.71,54.28-24.93,55.44-24.93S511.43,712.72,511.43,712.72Z"/><path class="cls-38" d="M450.21,658.85a.69.69,0,0,0,0-1.38c-21-1.32-27.83-15.69-27.89-15.83a.69.69,0,0,0-1.26.57c.07.15,7.23,15.26,29.06,16.64Z"/><path class="cls-39" d="M473.33,639.24H427.08s8.36,14.48,24.34,14.42C458.75,653.63,466.59,650.93,473.33,639.24Z"/><path class="cls-44" d="M444.83,732.52c-2.93-3-.21-6.75-.21-6.75-1.09-4.5.11-6.47.11-6.47s12.34,3.66,19.35,6.26c3.95-.6,5.35-2.53,5.35-2.53l.1.17c.08-3.43.17-7.72.17-8.2,0-.82,1.31-2.13,3.35.46s6,9.54,6,9.54l10.22-6,8.31,28.75s-24.79,3.5-28.61,3.77-17.09-2.85-21-6.12-3.1-6.2-3.1-6.2A5,5,0,0,1,444.83,732.52Z"/><path class="cls-45" d="M471.74,713.5v8.91a8.1,8.1,0,0,1-7.66,3.15l-3.83-1.42,3-12.94Z"/><path class="cls-42" d="M453,730.18a.45.45,0,0,0,.14-.89,56.37,56.37,0,0,1-8.3-3.92.46.46,0,0,0-.46.8,56.29,56.29,0,0,0,8.48,4A.34.34,0,0,0,453,730.18Z"/><path class="cls-42" d="M453,736a.47.47,0,0,0,.09-.92,28.75,28.75,0,0,1-8-3,.45.45,0,0,0-.62.16.46.46,0,0,0,.16.63,29,29,0,0,0,8.33,3.09Z"/><path class="cls-42" d="M452,742.65a.47.47,0,0,0,.45-.37.46.46,0,0,0-.35-.54,24.15,24.15,0,0,1-7-2.93.46.46,0,0,0-.5.78,25.35,25.35,0,0,0,7.31,3Z"/><path class="cls-46" d="M481.91,719.53,496,716s7.94,19.68,7.94,20.33-4,18-4.47,17.93-5-4.74-5-4.74Z"/><path class="cls-38" d="M507.77,706.71l6.94-1.11a.84.84,0,0,0,.69-1,.82.82,0,0,0-1-.69l-5.86.93-13.05-20.11a.85.85,0,0,0-1.16-.24.83.83,0,0,0-.24,1.16Z"/><path class="cls-38" d="M505.17,657.63a.71.71,0,0,1-.57-.3c-5.19-7.47-9.63-7.48-9.63-7.48h0a.69.69,0,1,1,0-1.38h0c.25,0,5.22.11,10.77,8.07a.7.7,0,0,1-.17,1A.68.68,0,0,1,505.17,657.63Z"/><path class="cls-38" d="M503.69,664.64a.71.71,0,0,1-.62-.38c-4-8-8.39-8.81-8.43-8.82a.69.69,0,0,1-.58-.78.7.7,0,0,1,.78-.58c.2,0,5.13.83,9.47,9.56a.7.7,0,0,1-.31.93A.67.67,0,0,1,503.69,664.64Z"/><path class="cls-42" d="M464.81,720.74a.45.45,0,0,1-.49-.22.46.46,0,0,1,.17-.63,57.07,57.07,0,0,0,7.32-5.54.46.46,0,1,1,.61.68,55.6,55.6,0,0,1-7.47,5.66Z"/><path class="cls-42" d="M466,726.44a.46.46,0,0,1-.27-.88A28.34,28.34,0,0,0,473,721a.46.46,0,0,1,.62.68,28.71,28.71,0,0,1-7.51,4.74Z"/><path class="cls-42" d="M468.39,732.73a.48.48,0,0,1-.52-.27.45.45,0,0,1,.23-.6,24.57,24.57,0,0,0,6.26-4.31.46.46,0,0,1,.65,0,.47.47,0,0,1,0,.65,24.78,24.78,0,0,1-6.52,4.49Z"/><path class="cls-38" d="M405.57,706.26l-7,.35a.84.84,0,1,1-.08-1.68l5.92-.29L413,682.27a.84.84,0,0,1,1.56.6Z"/><path class="cls-46" d="M434.88,714.79l-7.23,34.65S412.77,737.33,412.77,736s4.71-17.43,5.21-17.75S434.88,714.79,434.88,714.79Z"/><path class="cls-38" d="M428.14,750.31l-.74,0a128,128,0,0,1-37.56-9.53.84.84,0,0,1-.44-1.1.83.83,0,0,1,1.09-.44,128.51,128.51,0,0,0,36.28,9.34l6.2-32.63-28.25-9.67a.83.83,0,1,1,.54-1.58l29.62,10.13Z"/><path class="cls-38" d="M485.59,750.31l.74,0a128,128,0,0,0,37.56-9.53.84.84,0,0,0,.44-1.1.83.83,0,0,0-1.09-.44A128.51,128.51,0,0,1,487,748.54l-6.2-32.63L509,706.24a.83.83,0,1,0-.54-1.58l-29.62,10.13Z"/><rect class="cls-17" x="383.66" y="703.92" width="142.54" height="83.75" rx="6.29" transform="translate(909.86 1491.6) rotate(180)"/><circle class="cls-19" cx="453.47" cy="738.74" r="5.69"/></svg>