<svg xmlns="http://www.w3.org/2000/svg" xmlns:xlink="http://www.w3.org/1999/xlink" viewBox="0 0 718.62 278.3"><defs><style>.cls-1,.cls-6{fill:#231f20;}.cls-1{opacity:0.14;}.cls-2{fill:#a0bfe4;}.cls-3{fill:#f8a491;}.cls-4{fill:#34548a;}.cls-5{fill:#476eb5;}.cls-7{fill:#f79c8d;}.cls-8{fill:#f58d80;}.cls-9{fill:#e88039;}.cls-10{fill:#f8974c;}.cls-11{fill:#f8a592;}.cls-12{fill:#f37458;}.cls-13{fill:#8cb0dd;}.cls-14{fill:#f9e0b2;}.cls-15{fill:#51c0a5;}.cls-16{fill:#f7cc7f;}.cls-17{fill:#1a4755;}.cls-18{fill:#d5e0f2;}.cls-19{fill:#fff;}.cls-20{fill:url(#linear-gradient);}.cls-21{fill:url(#linear-gradient-2);}.cls-22{fill:url(#linear-gradient-3);}.cls-23{fill:#8193ca;}.cls-24{fill:url(#linear-gradient-4);}.cls-25{fill:url(#linear-gradient-5);}.cls-26{fill:url(#linear-gradient-6);}.cls-27{fill:url(#linear-gradient-7);}.cls-28{fill:url(#linear-gradient-8);}.cls-29{fill:url(#linear-gradient-9);}.cls-30{fill:url(#linear-gradient-10);}.cls-31{fill:url(#linear-gradient-11);}.cls-32{fill:url(#linear-gradient-12);}.cls-33{fill:url(#linear-gradient-13);}.cls-34{fill:url(#linear-gradient-14);}.cls-35{fill:url(#linear-gradient-15);}.cls-36{fill:url(#linear-gradient-16);}.cls-37{fill:#acc7e8;}.cls-38{fill:#22131e;}.cls-39{fill:#f89f74;}.cls-40{fill:url(#linear-gradient-17);}.cls-41{fill:url(#linear-gradient-18);}.cls-42{fill:#f07163;}.cls-43{fill:#f7956e;}.cls-44{fill:#f68d64;}.cls-45{fill:#f27584;}.cls-46{fill:#4eb8d9;}</style><linearGradient id="linear-gradient" x1="540.6" y1="84.65" x2="551.23" y2="95.75" gradientUnits="userSpaceOnUse"><stop offset="0" stop-color="#201b59"/><stop offset="1" stop-color="#2d2d84"/></linearGradient><linearGradient id="linear-gradient-2" x1="524.18" y1="73.63" x2="535.26" y2="31.92" gradientUnits="userSpaceOnUse"><stop offset="0" stop-color="#4c57a6"/><stop offset="1" stop-color="#5560ab"/></linearGradient><linearGradient id="linear-gradient-3" x1="554.7" y1="112.53" x2="574.82" y2="127.29" xlink:href="#linear-gradient"/><linearGradient id="linear-gradient-4" x1="522.34" y1="102.93" x2="516.34" y2="174.29" xlink:href="#linear-gradient-2"/><linearGradient id="linear-gradient-5" x1="514.26" y1="71.43" x2="507.67" y2="98.01" gradientUnits="userSpaceOnUse"><stop offset="0" stop-color="#f5928f"/><stop offset="1" stop-color="#f8b2b1"/></linearGradient><linearGradient id="linear-gradient-6" x1="506.55" y1="40.44" x2="437.29" y2="131.02" xlink:href="#linear-gradient"/><linearGradient id="linear-gradient-7" x1="506.28" y1="72.74" x2="533.58" y2="35.39" xlink:href="#linear-gradient-5"/><linearGradient id="linear-gradient-8" x1="492.06" y1="33.22" x2="480.47" y2="60" xlink:href="#linear-gradient-5"/><linearGradient id="linear-gradient-9" x1="493.26" y1="14.5" x2="493.26" y2="38.68" xlink:href="#linear-gradient-5"/><linearGradient id="linear-gradient-10" x1="490.95" y1="7.06" x2="495.07" y2="30.56" xlink:href="#linear-gradient"/><linearGradient id="linear-gradient-11" x1="487.99" y1="14.5" x2="487.99" y2="38.68" xlink:href="#linear-gradient-5"/><linearGradient id="linear-gradient-12" x1="526.58" y1="64.29" x2="547.35" y2="64.29" xlink:href="#linear-gradient"/><linearGradient id="linear-gradient-13" x1="529.1" y1="73.37" x2="512.49" y2="77.92" xlink:href="#linear-gradient"/><linearGradient id="linear-gradient-14" x1="515.84" y1="28.46" x2="491.12" y2="70.54" xlink:href="#linear-gradient-2"/><linearGradient id="linear-gradient-15" x1="508.27" y1="24.01" x2="483.54" y2="66.09" xlink:href="#linear-gradient-2"/><linearGradient id="linear-gradient-16" x1="505.53" y1="22.4" x2="480.8" y2="64.47" xlink:href="#linear-gradient-2"/><linearGradient id="linear-gradient-17" x1="56.77" y1="144.58" x2="70.91" y2="144.58" xlink:href="#linear-gradient"/><linearGradient id="linear-gradient-18" x1="69.3" y1="150.55" x2="74.28" y2="150.55" xlink:href="#linear-gradient"/></defs><title>Artboard 1 copy 4</title><g id="Layer_5" data-name="Layer 5"><ellipse class="cls-1" cx="29.84" cy="272.91" rx="29.84" ry="2.02"/><ellipse class="cls-1" cx="164.47" cy="273.89" rx="32.95" ry="4.41"/><ellipse class="cls-1" cx="249.3" cy="267.49" rx="26.03" ry="3.75"/><path class="cls-2" d="M588.14,222.27a.91.91,0,0,0,1,.12c1.54-.71,4.58-.56,6.12-.3l2.91,7.54c-1,1.22-3.11,3.38-4.74,3.89a.89.89,0,0,0-.62.73l-1,6.27a.93.93,0,0,0,.38.89c1.39,1,2.78,3.69,3.32,5.15l-5.07,6.29c-1.54-.22-4.49-1-5.74-2.16a.92.92,0,0,0-.94-.18l-5.93,2.29a.93.93,0,0,0-.58.77c-.15,1.7-1.8,4.25-2.8,5.45l-8-1.24c-.58-1.45-1.37-4.39-1-6a.93.93,0,0,0-.32-.91l-5-4a.91.91,0,0,0-.95-.11c-1.54.71-4.59.56-6.12.3l-2.91-7.54c1-1.23,3.11-3.38,4.73-3.89a.91.91,0,0,0,.63-.73l1-6.28a.91.91,0,0,0-.37-.88c-1.39-1-2.78-3.69-3.33-5.15l5.08-6.29c1.54.22,4.48,1,5.73,2.15a.9.9,0,0,0,1,.18l5.93-2.29a.9.9,0,0,0,.57-.77c.16-1.69,1.81-4.25,2.8-5.45l8,1.25c.58,1.45,1.37,4.39,1,6a.89.89,0,0,0,.32.9Zm-16.85,4.86a8,8,0,1,0,10.29,4.56A8,8,0,0,0,571.29,227.13Zm-1.84-4.77a13.07,13.07,0,1,0,16.9,7.49A13.07,13.07,0,0,0,569.45,222.36Z"/><path class="cls-2" d="M626.57,194.54a.93.93,0,0,0,.69.69c1.69.4,4,2.43,5.09,3.61l-2.4,7.87c-1.54.37-4.62.75-6.24.14a.92.92,0,0,0-1,.18L618,211.45a.92.92,0,0,0-.26.94c.5,1.66-.09,4.7-.57,6.21l-8,1.85c-1.09-1.14-3-3.62-3.24-5.33a.91.91,0,0,0-.64-.73l-6.19-1.9a.92.92,0,0,0-.94.26C597,214,594,215,592.49,215.35l-5.61-6c.44-1.53,1.66-4.38,3-5.47a.94.94,0,0,0,.31-.93l-1.45-6.3a.93.93,0,0,0-.69-.7c-1.69-.4-4-2.43-5.1-3.6l2.41-7.87c1.54-.38,4.62-.75,6.24-.14a.94.94,0,0,0,1-.19l4.73-4.41a.91.91,0,0,0,.25-.95c-.49-1.66.1-4.7.58-6.21l8-1.85c1.09,1.15,3,3.62,3.23,5.33a.93.93,0,0,0,.65.74l6.19,1.89a.92.92,0,0,0,.94-.25c1.19-1.26,4.12-2.27,5.67-2.61l5.61,6c-.44,1.52-1.66,4.37-3,5.47a.93.93,0,0,0-.31.93ZM610,187.84A8.1,8.1,0,1,0,615.4,198,8.1,8.1,0,0,0,610,187.84Zm1.52-5a13.3,13.3,0,1,0,8.84,16.61A13.3,13.3,0,0,0,611.54,182.87Z"/><path class="cls-2" d="M549.66,135a1.76,1.76,0,0,0,1.52-1c1.32-3,5.89-6.57,8.42-8.13L573.26,133c.16,3-.22,8.77-1.92,11.54a1.74,1.74,0,0,0,0,1.84l6.48,10.26a1.73,1.73,0,0,0,1.65.8c3.23-.34,8.63,1.81,11.25,3.22l.61,15.43c-2.49,1.62-7.71,4.19-11,4.11a1.73,1.73,0,0,0-1.58.93l-5.64,10.74a1.73,1.73,0,0,0,.13,1.83c1.91,2.63,2.75,8.38,2.83,11.35l-13,8.25c-2.65-1.36-7.49-4.59-9-7.44a1.72,1.72,0,0,0-1.6-.9l-12.12.48a1.72,1.72,0,0,0-1.52,1c-1.32,3-5.88,6.57-8.42,8.13l-13.66-7.18c-.16-3,.23-8.78,1.92-11.55a1.75,1.75,0,0,0,0-1.83l-6.48-10.26a1.75,1.75,0,0,0-1.66-.8c-3.23.34-8.63-1.81-11.24-3.23l-.62-15.42c2.5-1.62,7.71-4.19,11-4.11a1.73,1.73,0,0,0,1.58-.93l5.65-10.74a1.75,1.75,0,0,0-.14-1.83c-1.91-2.63-2.75-8.39-2.83-11.36l13-8.24c2.65,1.35,7.49,4.58,9,7.43a1.74,1.74,0,0,0,1.6.91Zm-18.13,28.16a15.2,15.2,0,1,0,20.53-6.39A15.21,15.21,0,0,0,531.53,163.13Zm-8.63-4.54a25,25,0,1,0,33.7-10.48A25,25,0,0,0,522.9,158.59Z"/><path class="cls-3" d="M235.62,251.67s-.53,5.68-1.91,6.73-3.22,4.9-2.3,7a2.34,2.34,0,0,0,1.52,1.24,4,4,0,0,0,4.82-2.36,12.6,12.6,0,0,0,.95-4.33,16.15,16.15,0,0,1,1.58-7Z"/><path class="cls-3" d="M256.82,254s.43,5.73.08,7.59c-.19,1-1.24,3.06-.76,4a2.42,2.42,0,0,0,1,1.17l12.51.21c.68,0,.23-.45-.32-.87a26,26,0,0,0-4.5-2.59c-.19-.09-.87-.54-1.11-.7a8.85,8.85,0,0,1-1.79-1.64c-.9-1.05-1-6.1-1-6.1Z"/><path class="cls-4" d="M266.6,177.78s1.57,9.31.54,15.41-6,62.68-6,62.68l-5.52.32s-1.15-23.63-1-26.92a52.89,52.89,0,0,1,1.85-8.78L256,201.41l7-25.07Z"/><path class="cls-5" d="M250.38,175.82S246,182.63,245,188.26s.76,23-1.23,30.33c-1.08,4-5.16,10.17-5.78,15.34s-3.05,18.69-3.05,18.69l5.51,1.14L253.27,220l10-30.54,2.58-15.72Z"/><path class="cls-6" d="M238.13,263.25a6.07,6.07,0,0,1-6-2.63c-.76,1.56-1.23,3.49-.67,4.77.49,1.12,1.84,1.43,3,1.47a3.21,3.21,0,0,0,2.93-1.7A11.06,11.06,0,0,0,238.13,263.25Z"/><path class="cls-6" d="M263.75,262.81a11,11,0,0,1-7.12-.29c-.35,1-.82,2.35-.57,3.1.3.92.73,1.21,1.12,1.22,3,.08,11.07.12,13.37.15a.4.4,0,0,0,.29-.65C270.27,265.63,264,263,263.75,262.81Z"/><path class="cls-4" d="M267.12,126.89c-1-6.37-6.74-11-12.77-7.86a14.36,14.36,0,0,0-4.13,3.3c-2.57,3.31-3.2,7.41-5.93,10.58-2.35,2.75-8.63,2.23-11.57,4.34a12.68,12.68,0,0,0-5,10.4c0,5.06,1.14,10.43,5.06,13.62a16.16,16.16,0,0,0,14.36,2.64,23.07,23.07,0,0,0,12.06-8.74,44.31,44.31,0,0,0,6.63-13.34A34.56,34.56,0,0,0,267.12,126.89Z"/><path class="cls-7" d="M245.06,135.53s-7.4-13.21-9.2-16-6.49-14-6.66-14.41,3.23-5.72,2.47-5.9-1.59,2.79-2.4,2.43-3.18-7.49-3.64-7.13c-.86.66,1.28,4.42.82,4.66s-1.86-4.14-2.76-4,1.72,4,1.47,4.35-3-3.31-3.47-2.53c-.27.42,2.5,3.19,2,3.45s-3-1.53-3.26-1,2.28,1.22,3,2.61,2.05,2,2.59,4.57,1.34,11.9,4.09,16.55,8.8,14.94,8.8,14.94Z"/><path class="cls-8" d="M265.9,151.22,260,154.63s11.26,14.82,11.91,15.49l4.74-4.19Z"/><path class="cls-9" d="M261,142.36s4.61.87,10.34,15.09l-7.89,4.22-5.62-8.73Z"/><path class="cls-8" d="M275.76,143.29s-1-.29-2.76,1.18c-2.12,1.83-2.24,15.85-1.69,20.75l.56,4.9a9,9,0,0,0,5.35-6.78c1-5.26,1.4-19,1.4-19Z"/><path class="cls-10" d="M253.6,140.9s-5.8-.36-8.1,2.13,5.09,22.24,5.51,25.42-3.42,9.51-3.42,9.51,16,7.46,19.85,4.89c0,0-.62-25.46-1-27.73s-3.89-11.49-4.73-12.4S253.6,140.9,253.6,140.9Z"/><path class="cls-11" d="M255.53,133.17s0,.17-.09.46a43.35,43.35,0,0,1-1.92,7.28c-.82,1.53,2.78,6.42,6.24,5.83,1-.18-.87-4.5-.78-5,.18-.87.41-2.06.66-3.29.13-.69.27-1.39.4-2.05l.67-3.4Z"/><path class="cls-12" d="M255.44,133.63c.06-.29.09-.46.09-.46l5.18-.13-.67,3.4c-.13.66-.26,1.35-.4,2a4.92,4.92,0,0,1-2.48-1.24,6.56,6.56,0,0,1-1.87-2.78Z"/><path class="cls-11" d="M259,121.41a4.66,4.66,0,0,0-4,1.69c-1.53,2-3.18,8.1.62,11.42s7.57-.44,8.13-4.43S264.56,121.26,259,121.41Z"/><path class="cls-11" d="M264.92,130c-.46.88-1.22,1.37-1.71,1.09s-.51-1.22-.06-2.1,1.22-1.37,1.71-1.09S265.37,129.15,264.92,130Z"/><path class="cls-4" d="M259.29,120.75s-3.26,5.82-5.6,6.09-2.64,3.36-2.64,3.36.83-7.12,3.15-8.5A8.62,8.62,0,0,1,259.29,120.75Z"/><path class="cls-11" d="M254.3,128.3c.19,1-.19,2-.85,2.11s-1.35-.59-1.54-1.62.19-2,.85-2.12S254.11,127.27,254.3,128.3Z"/><path class="cls-10" d="M243,131.25s8.19,8.78,9.41,12.32-1.19,8.61-4.51,8.83-10.7-15.59-10.7-15.59Z"/><path class="cls-5" d="M283.37,144.47h-5.66a5.88,5.88,0,0,0-5.74,6v85.09h17.15V150.48A5.88,5.88,0,0,0,283.37,144.47Z"/><rect class="cls-13" x="277.22" y="144.47" width="6.66" height="91.1"/><path class="cls-4" d="M280.34,267.22h0a2.51,2.51,0,0,0,2.41-2l1.93-9h-8.57l1.81,9A2.5,2.5,0,0,0,280.34,267.22Z"/><polygon class="cls-14" points="276.11 256.19 284.68 256.19 289.12 235.57 271.97 235.57 276.11 256.19"/><path class="cls-10" d="M285.77,144.47H275.32A3.43,3.43,0,0,0,272,148v12.47h17.15V148A3.43,3.43,0,0,0,285.77,144.47Z"/><rect class="cls-13" x="270.93" y="160.45" width="19.22" height="3.76" rx="0.67" transform="translate(561.09 324.66) rotate(180)"/><polygon class="cls-15" points="392.38 7.67 389.65 8.33 387.82 4.97 383.68 5.55 381.79 3.22 380.3 3.98 382.82 7.1 386.75 6.55 388.65 10.04 392.76 9.04 392.38 7.67"/><polygon class="cls-10" points="571.19 71.13 566.6 71.94 564.1 68.03 565.05 67.43 567.14 70.7 571.86 69.87 574 74.8 577.06 73.86 577.3 74.96 573.37 76.17 571.19 71.13"/><polygon class="cls-10" points="221.06 208.07 220.19 203.5 224.06 200.95 224.68 201.88 221.43 204.03 222.33 208.73 217.43 210.93 218.41 213.98 217.31 214.24 216.05 210.32 221.06 208.07"/><path class="cls-16" d="M277.79,78.45l-1.68-4-4.24-.87a.59.59,0,0,1-.26-1l3.26-2.83-.48-4.3a.59.59,0,0,1,.9-.57L279,67.1l3.94-1.79a.59.59,0,0,1,.82.68l-1,4.21,2.92,3.19a.6.6,0,0,1-.39,1l-4.31.37-2.13,3.76A.6.6,0,0,1,277.79,78.45Z"/><polygon class="cls-10" points="637.08 61.52 640.52 61.42 642.05 57.43 646.85 58.07 647.53 55.31 648.24 55.55 647.41 58.9 642.54 58.24 641.04 62.15 637.1 62.27 637.08 61.52"/><polygon class="cls-10" points="269.56 84.47 268.77 88.05 264.62 86.74 264.97 85.61 267.9 86.54 268.41 84.22 269.56 84.47"/><polygon class="cls-10" points="591.06 62.78 587.47 63.71 585.7 59.16 582.06 60.69 580.49 56.12 577.14 56.25 575.72 52.82 573.62 53.45 573.41 52.38 576.21 51.55 577.69 55.13 581.08 55 582.57 59.31 586.17 57.8 587.98 62.45 591.47 61.55 593.5 65.15 592.76 65.78 591.06 62.78"/><polygon class="cls-10" points="209.44 124.54 211.44 125.03 211.41 127.39 213.59 128.44 213.36 131.17 216.05 131.58 215.93 134.59 218.39 135.28 218.7 137.82 218.06 137.9 217.8 135.78 215.27 135.07 215.39 132.13 212.67 131.72 212.91 128.83 210.75 127.79 210.78 125.54 209.28 125.17 209.44 124.54"/><rect class="cls-5" x="297.52" y="75.57" width="253.24" height="193.28" rx="81.59"/><rect class="cls-17" x="303.07" y="80.11" width="243.61" height="182.92" rx="43"/><path class="cls-4" d="M297.52,257.21v6.56c0,2.81,6,5.08,13.48,5.08H569.81c7.44,0,13.48-2.27,13.48-5.08v-6.56Z"/><rect class="cls-13" x="319.87" y="86.44" width="210.65" height="156.95"/><rect class="cls-10" x="327.07" y="98.88" width="192.45" height="137.08"/><rect class="cls-13" x="326.55" y="88.53" width="180.61" height="147.43"/><rect class="cls-2" x="330.1" y="95.18" width="171.31" height="12"/><rect class="cls-18" x="327.07" y="3.22" width="149.8" height="219.39"/><rect class="cls-10" x="331.02" y="92.11" width="138.24" height="12.11"/><rect class="cls-10" x="338.1" y="115.49" width="58.97" height="2.58"/><rect class="cls-10" x="409.88" y="115.49" width="54.89" height="2.58"/><rect class="cls-10" x="338.1" y="122.02" width="58.97" height="2.58"/><rect class="cls-10" x="409.88" y="122.02" width="54.89" height="2.58"/><rect class="cls-10" x="338.1" y="128.55" width="58.97" height="2.58"/><rect class="cls-10" x="409.88" y="128.55" width="54.89" height="2.58"/><rect class="cls-10" x="338.1" y="135.08" width="58.97" height="2.58"/><rect class="cls-10" x="409.88" y="135.08" width="54.89" height="2.58"/><rect class="cls-10" x="409.88" y="141.61" width="54.89" height="2.58"/><rect class="cls-10" x="338.1" y="141.61" width="58.97" height="2.58"/><rect class="cls-10" x="338.1" y="148.14" width="58.97" height="2.58"/><rect class="cls-10" x="409.88" y="148.14" width="54.89" height="2.58"/><rect class="cls-10" x="338.1" y="154.67" width="58.97" height="2.58"/><rect class="cls-10" x="409.88" y="154.67" width="54.89" height="2.58"/><rect class="cls-10" x="338.1" y="161.2" width="58.97" height="2.58"/><rect class="cls-10" x="409.88" y="161.2" width="54.89" height="2.58"/><rect class="cls-10" x="338.1" y="167.73" width="58.97" height="2.58"/><rect class="cls-10" x="409.88" y="167.73" width="54.89" height="2.58"/><rect class="cls-10" x="338.1" y="174.26" width="58.97" height="2.58"/><rect class="cls-10" x="409.88" y="174.26" width="54.89" height="2.58"/><rect class="cls-10" x="409.88" y="180.8" width="54.89" height="2.58"/><rect class="cls-10" x="338.1" y="180.8" width="58.97" height="2.58"/><rect class="cls-10" x="338.1" y="187.33" width="58.97" height="2.58"/><rect class="cls-10" x="409.88" y="187.33" width="54.89" height="2.58"/><rect class="cls-10" x="409.88" y="193.86" width="54.89" height="2.58"/><rect class="cls-10" x="338.1" y="193.86" width="58.97" height="2.58"/><rect class="cls-10" x="416.93" y="4.41" width="46.55" height="2.58"/><rect class="cls-10" x="416.93" y="10.94" width="46.55" height="2.58"/><rect class="cls-10" x="416.93" y="17.47" width="46.55" height="2.58"/><rect class="cls-10" x="416.93" y="24" width="46.55" height="2.58"/><rect class="cls-10" x="416.93" y="30.53" width="46.55" height="2.58"/><rect class="cls-10" x="417.13" y="41.68" width="46.55" height="2.58"/><rect class="cls-10" x="417.13" y="48.21" width="46.55" height="2.58"/><rect class="cls-10" x="417.13" y="54.74" width="46.55" height="2.58"/><rect class="cls-10" x="417.13" y="61.27" width="46.55" height="2.58"/><rect class="cls-10" x="417.13" y="67.8" width="46.55" height="2.58"/><rect class="cls-10" x="341.01" y="5.03" width="63.61" height="78.8"/><path class="cls-10" d="M664.87,89.93c-18.84-6.1-35.76,14-26.57,31.69A15,15,0,0,1,639.5,132l-2.84,12a6.49,6.49,0,0,0,4.32,7.68l7.14,2.31a6.5,6.5,0,0,0,8-3.69c4.73-11.42,5.65-16,11.72-19C685.63,122.26,683.73,96,664.87,89.93Z"/><path class="cls-19" d="M642.75,137.2c3.7-10,7.22-20.69,8.13-23.77-10.24-4.59-1-13.13,1.35-6.5a9.84,9.84,0,0,1-.07,5.88,29,29,0,0,0,10.91,2.13c1-2.4,1.71-4.27,3.12-5.42,2.13-1.73,5.28-.88,5.31,1.9a3.94,3.94,0,0,1-1.22,2.83c-1.62,1.51-4.26,1.69-6.5,1.74-3.33,7.73-6.47,15.62-9.38,23.5l-1-.37c2.86-7.75,6-15.51,9.21-23.12a29.77,29.77,0,0,1-10.74-2.16c-1.17,4-4.64,14.38-8.12,23.73Zm4.54-28.42c.39,1.41,1.66,2.59,3.88,3.6a8.75,8.75,0,0,0,.06-5.09C649.94,103.72,646.63,106.41,647.29,108.78Zm19.57,1.57c-1.18,1-1.8,2.67-2.62,4.56,1.84-.07,4-.23,5.32-1.44.91-.85,1.24-2.54.33-3.35C669.79,110,667.69,109.67,666.86,110.35Z"/><path class="cls-10" d="M639.55,131.65c0,.1,0,.2,0,.3l-2.84,12a6.49,6.49,0,0,0,4.32,7.68l7.14,2.31a6.5,6.5,0,0,0,8-3.69c2.1-5.08,3.45-8.8,4.84-11.64Z"/><path class="cls-10" d="M656.08,75.37l-.31-12.16A2.14,2.14,0,1,1,660,63.1l.3,12.16a2.13,2.13,0,1,1-4.26.11Z"/><path class="cls-10" d="M632.9,92.46l-10.82-6.83A2.13,2.13,0,0,1,624.36,82l10.81,6.83a2.13,2.13,0,0,1-2.27,3.61Z"/><path class="cls-10" d="M603.77,121.39a2.14,2.14,0,0,1,1.4-2.68A70.39,70.39,0,0,1,618.09,116a2.13,2.13,0,0,1,.48,4.24,66.11,66.11,0,0,0-12.13,2.56A2.12,2.12,0,0,1,603.77,121.39Z"/><path class="cls-10" d="M684.32,89.28a2.13,2.13,0,0,1-.14-3,81.08,81.08,0,0,0,9.92-13.51,2.13,2.13,0,0,1,3.68,2.16,86,86,0,0,1-10.45,14.22A2.13,2.13,0,0,1,684.32,89.28Z"/><path class="cls-10" d="M688.48,109.85a2.14,2.14,0,0,1,2.49-1.71l13.6,2.53a2.13,2.13,0,1,1-.78,4.19l-13.6-2.52A2.14,2.14,0,0,1,688.48,109.85Z"/><path class="cls-10" d="M691.67,151.15a2.21,2.21,0,0,1-.48-.34,67.33,67.33,0,0,1-9.35-10.8,2.13,2.13,0,1,1,3.5-2.43,62.53,62.53,0,0,0,8.76,10.11,2.13,2.13,0,0,1-2.43,3.46Z"/><path class="cls-10" d="M623.14,53.79a6.11,6.11,0,1,1-8.07-3.1A6.1,6.1,0,0,1,623.14,53.79Z"/><path class="cls-19" d="M615,58.49a3.26,3.26,0,1,0,6-2.66Z"/><path class="cls-13" d="M362.94,56.22l-5.43,16.44h-7l17.76-52.27h8.14l17.84,52.27h-7.21l-5.58-16.44Zm17.14-5.28L375,35.9c-1.16-3.41-1.94-6.51-2.71-9.54h-.16c-.77,3.1-1.63,6.28-2.64,9.46l-5.11,15.12Z"/><path class="cls-10" d="M589.77,133.68l-2.36-2.07-3,.77a.43.43,0,0,1-.5-.58l1.23-2.89-1.67-2.65a.43.43,0,0,1,.4-.66l3.13.29,2-2.42a.43.43,0,0,1,.75.18l.7,3.06,2.91,1.16a.43.43,0,0,1,.06.77l-2.69,1.61-.21,3.13A.43.43,0,0,1,589.77,133.68Z"/><path class="cls-10" d="M646.38,214,644,211.89l-3,.77a.43.43,0,0,1-.51-.58l1.24-2.89L640,206.54a.43.43,0,0,1,.4-.66l3.12.29,2-2.41a.43.43,0,0,1,.75.18L647,207l2.92,1.17a.43.43,0,0,1,.06.77l-2.7,1.6-.2,3.13A.43.43,0,0,1,646.38,214Z"/><path class="cls-10" d="M709.47,216.46l-2.36-2.07-3,.78a.44.44,0,0,1-.51-.59l1.24-2.88L703.13,209a.43.43,0,0,1,.4-.66l3.12.29,2-2.41a.43.43,0,0,1,.75.18l.69,3.05,2.92,1.17a.43.43,0,0,1,.06.77l-2.7,1.6-.2,3.13A.43.43,0,0,1,709.47,216.46Z"/><path class="cls-10" d="M587.52,38.71,585,40.25,587.62,52a1.51,1.51,0,0,0,2.27,1h0a1.52,1.52,0,0,0,.7-1.64L590,48.59,592.6,47l2.19,1.84a1.52,1.52,0,0,0,1.77.13l.05,0a1.52,1.52,0,0,0,.18-2.47Zm1.71,7.1-.48-2.17,1.7,1.43Z"/><path class="cls-10" d="M632.87,23.09a36.31,36.31,0,0,1,5.74,1.21c2.66.76,4.21,1.48,5.38,2.71a4.36,4.36,0,0,1,1.23,4.43,4.52,4.52,0,0,1-4.34,3.2l0,.06a5,5,0,0,1,2.47,5.83,5.32,5.32,0,0,1-3.16,3.52c-1.72.71-4.24.67-8.07-.43A34.9,34.9,0,0,1,627.47,42Zm2.21,8.6,1.43.41c2.28.65,3.78.06,4.19-1.37s-.48-2.55-2.45-3.11a12.44,12.44,0,0,0-1.89-.42Zm-2.44,8.54a15.88,15.88,0,0,0,1.67.54c2,.56,3.92.31,4.5-1.71s-1-3.21-3.13-3.83l-1.49-.43Z"/><path class="cls-10" d="M577.41,21.19a1.81,1.81,0,0,1-1.33,2.16,17,17,0,0,1-3.34.42c-6.8.23-10.44-3.88-10.63-9.48-.23-6.72,4.43-10.62,10.39-10.82a14.75,14.75,0,0,1,3.06.2A1.8,1.8,0,0,1,577,5.84V5.9a1.8,1.8,0,0,1-2.07,1.39,10.53,10.53,0,0,0-2.1-.15c-3.54.12-6.21,2.35-6.06,6.72.13,3.95,2.55,6.35,6.52,6.21a10.94,10.94,0,0,0,2-.25,1.81,1.81,0,0,1,2.13,1.37Z"/><path class="cls-20" d="M537.63,78.91s-2.93.16-3.29,6.19a34.82,34.82,0,0,0,16,7.55c.69.11-1-4.71-1.21-5.36C547.93,84.18,544.21,82.18,537.63,78.91Z"/><path class="cls-21" d="M504.6,71.81h6.19s19-21,31.46-23.1c0,0,8.67,11.08-.46,31.77a3,3,0,0,1-4.33,1.42,2.47,2.47,0,0,1-1-1.18l.74-17.66S521,77.23,518.18,80,501.05,81,504.6,71.81Z"/><path class="cls-22" d="M564.44,115.87a23.24,23.24,0,0,0-12.69-5.55l-2,1.23a22,22,0,0,0,3.64,3.9c2.16,1.26,5.5,3,8.26,3.33S564.72,117.51,564.44,115.87Z"/><path class="cls-23" d="M549.12,87.29c-1.6.52-2.3,2.78-6.36,1.28a35.93,35.93,0,0,1-8.34-4.39c0,.29-.06.6-.08.92,0,0,7.17,6.82,16.36,8.27a.91.91,0,0,0,1-1.23A23.37,23.37,0,0,0,549.12,87.29Z"/><path class="cls-23" d="M566.4,117.81a21.24,21.24,0,0,0-2-1.94c.28,1.64-.12,3.26-2.81,2.91s-6.1-2.07-8.26-3.33a17.89,17.89,0,0,0,12,4.62A1.37,1.37,0,0,0,566.4,117.81Z"/><path class="cls-24" d="M504.82,76.29l29,.32s16.56,13.69,19.56,34.58c0,0,.5,1.54-2.5,1.8a57.56,57.56,0,0,1-16.53-18.1c-8-14.17-20.88-9.11-20.88-9.11-15.61,5.32-21-2.58-21.09-4.45Z"/><path class="cls-25" d="M505.51,52.94s3.12,15.64,18.41,21.83l5.44-.64,1.28,2-12.76.41A34.91,34.91,0,0,1,501.2,60.49C501,60.1,497.83,53.53,505.51,52.94Z"/><path class="cls-26" d="M507.18,76a83.46,83.46,0,0,1-4.31-19,41,41,0,0,1,4.22-3.2,1.17,1.17,0,0,0,.45-1.52c-1.19-2.47-8.4-12.17-8.94-12.31-2.94-.73-15-6.46-23.47,5.15-3.65,5,.72,20.31,17.24,36.19l.55.11a8.4,8.4,0,0,0,5.44-.8Z"/><path class="cls-27" d="M493.5,59.13S503.36,70.81,516,72.51c0,0,3.26-3,5.68-1.91s5.74,5.74,5.74,5.74H511.21s-15.31-.54-22.95-9.82C488.87,63.28,490.71,61.34,493.5,59.13Z"/><path class="cls-28" d="M487.75,31.8,485.59,39a.81.81,0,0,0,.31.88,8,8,0,0,0,7.48.75,1.15,1.15,0,0,0,.75-1l.52-6.26Z"/><path class="cls-29" d="M500.38,26s-1.06,7.45-3.92,9.75-8.45.57-10.33-5.06l3.75-9.61Z"/><path class="cls-30" d="M489.46,27.28a.37.37,0,0,0,.48-.3,9.68,9.68,0,0,1,.88-3s-.27-1,2.48.5,6.87,3.65,9.3,2.36,4.76-7.6-1.49-6.43a.36.36,0,0,1-.44-.39c.07-1,0-3.44-2.46-4.21a3.49,3.49,0,0,0-4,.93.37.37,0,0,1-.58,0,4.25,4.25,0,0,0-5.25-1.58c-2.24,1-2.59,2.37-2.55,3.23a.37.37,0,0,1-.53.35,2.22,2.22,0,0,0-2.85.84c-1.46,1.84.63,3.43,1.26,3.84a.37.37,0,0,1,.16.31c0,1,.16,5.11,2.24,7.45a.37.37,0,0,0,.62-.1l1.61-3.83a.36.36,0,0,1,.45-.2Z"/><path class="cls-31" d="M489.49,28.06s-1-4-2.47-2.7.39,4.15,2.1,4.69Z"/><path class="cls-32" d="M526.58,77.25,533.85,53a2.48,2.48,0,0,1,2.2-1.76l9.81-.67a1.39,1.39,0,0,1,1.41,1.85l-8.12,23.15a2.05,2.05,0,0,1-1.72,1.35L527.77,78Z"/><path class="cls-33" d="M527.77,78h0l-20.59-1a.92.92,0,0,1-.87-1,.91.91,0,0,1,1-.87l20.58,1a.92.92,0,0,1,0,1.84Z"/><path class="cls-34" d="M502.87,57.2h0a.18.18,0,0,1-.19-.18A43.05,43.05,0,0,0,501,47a.18.18,0,0,1,.13-.23.17.17,0,0,1,.22.12A43.58,43.58,0,0,1,503.05,57,.18.18,0,0,1,502.87,57.2Z"/><path class="cls-35" d="M493.5,59.32a.21.21,0,0,1-.14-.07c-.05-.06-4.55-5.79-6.1-9.71a.18.18,0,1,1,.34-.14c1.53,3.88,6,9.56,6,9.62a.19.19,0,0,1,0,.26A.28.28,0,0,1,493.5,59.32Z"/><path class="cls-36" d="M487.18,68.07,487,68c-6.52-2.79-10.55-10.57-10.59-10.65a.19.19,0,0,1,.08-.25.19.19,0,0,1,.25.08c0,.08,4,7.64,10.27,10.43l.66-.94a.18.18,0,0,1,.25,0,.17.17,0,0,1,.05.25Z"/><path class="cls-19" d="M120.55,250.29s-5,12.7-.81,22.31l-97.07.82-9-.82-7.89-4.89v-7.49L8,254l7.17-3.74Z"/><path class="cls-4" d="M18.12,274.65H123a1.24,1.24,0,0,0,0-2.47H18.12c-6.33,0-11.48-4.78-11.48-10.65s5.15-10.66,11.48-10.66H123a1.24,1.24,0,0,0,0-2.47H18.12c-7.69,0-13.95,5.89-13.95,13.13S10.43,274.65,18.12,274.65Z"/><path class="cls-37" d="M119.13,261.8H67.66a.28.28,0,0,1,0-.55h51.47a.28.28,0,0,1,0,.55Z"/><path class="cls-37" d="M60.41,261.8h-50a.28.28,0,0,1,0-.55h50a.28.28,0,1,1,0,.55Z"/><path class="cls-37" d="M37.41,266.73H11.76a.29.29,0,0,1-.28-.28.28.28,0,0,1,.28-.27H37.41a.28.28,0,0,1,.28.27A.29.29,0,0,1,37.41,266.73Z"/><path class="cls-37" d="M119.13,266.73H41.18a.28.28,0,0,1-.28-.28.27.27,0,0,1,.28-.27h77.95a.27.27,0,0,1,.27.27A.28.28,0,0,1,119.13,266.73Z"/><path class="cls-19" d="M23.22,225.79s4.69,11.79.76,20.71l90.09.75,8.31-.75,7.33-4.54v-7l-2-5.75L121,225.79Z"/><path class="cls-4" d="M118.29,248.4H21a1.15,1.15,0,1,1,0-2.3h97.33c5.87,0,10.65-4.43,10.65-9.88s-4.78-9.89-10.65-9.89H21A1.15,1.15,0,1,1,21,224h97.33c7.14,0,13,5.46,13,12.18S125.43,248.4,118.29,248.4Z"/><path class="cls-37" d="M72.31,236.49H24.55a.27.27,0,0,1-.28-.27.28.28,0,0,1,.28-.28H72.31a.29.29,0,0,1,.28.28A.28.28,0,0,1,72.31,236.49Z"/><path class="cls-37" d="M125.44,236.49H79a.28.28,0,0,1-.28-.27.29.29,0,0,1,.28-.28h46.4a.29.29,0,0,1,.28.28A.28.28,0,0,1,125.44,236.49Z"/><path class="cls-37" d="M124.2,241.06H100.39a.27.27,0,0,1-.28-.27.28.28,0,0,1,.28-.28H124.2a.28.28,0,0,1,.27.28A.27.27,0,0,1,124.2,241.06Z"/><path class="cls-37" d="M124.2,231.92H24.55a.28.28,0,1,1,0-.55H124.2a.28.28,0,0,1,0,.55Z"/><path class="cls-38" d="M123,274.93H18.12c-7.84,0-14.23-6-14.23-13.4s6.39-13.4,14.23-13.4H123a1.51,1.51,0,1,1,0,3,.28.28,0,1,1,0-.55,1,1,0,1,0,0-1.92H18.12c-7.54,0-13.68,5.76-13.68,12.85s6.14,12.85,13.68,12.85H123a1,1,0,0,0,0-1.93.28.28,0,0,1-.28-.27.29.29,0,0,1,.28-.28,1.52,1.52,0,0,1,0,3Z"/><path class="cls-38" d="M118.29,248.68H21a1.43,1.43,0,1,1,0-2.85.28.28,0,0,1,0,.55.88.88,0,1,0,0,1.75h97.33c7,0,12.67-5.35,12.67-11.91s-5.68-11.91-12.67-11.91H21a.88.88,0,1,0,0,1.75.27.27,0,0,1,.27.27.28.28,0,0,1-.27.28,1.43,1.43,0,1,1,0-2.85h97.33c7.29,0,13.22,5.59,13.22,12.46S125.58,248.68,118.29,248.68Z"/><path class="cls-10" d="M106.38,256.6s3.3,8.23,1.4,14.29l-2.69-4.15a35.56,35.56,0,0,0-3,4.15s-2-13.53-6-14.29Z"/><path class="cls-10" d="M81.49,240.79s-3.3,8.23-1.4,14.28l2.69-4.14a36,36,0,0,1,3,4.14s2-13.52,6-14.28Z"/><path class="cls-37" d="M119.13,256.87H11.76a.28.28,0,0,1-.28-.27.29.29,0,0,1,.28-.28H119.13a.28.28,0,0,1,.27.28A.27.27,0,0,1,119.13,256.87Z"/><path class="cls-37" d="M96.89,241.06H24.55a.27.27,0,0,1-.28-.27.28.28,0,0,1,.28-.28H96.89a.29.29,0,0,1,.28.28A.28.28,0,0,1,96.89,241.06Z"/><polygon class="cls-39" points="40.15 263.81 44.89 266.47 50.56 260.89 50.72 259.99 49.33 249.84 38.29 251.89 40.15 263.81"/><path class="cls-6" d="M48.25,266.76,33,268.84a2.51,2.51,0,0,1-.34,0c-1.5-.24-1.15-1.21-1.15-1.21l6.67-5.52.05-.68a1.56,1.56,0,0,1,2.41-1.06l2.8,1.52s6.59.09,7.24-1.87l.59,4.78S52,266.23,48.25,266.76Z"/><polygon class="cls-39" points="20.49 264.45 25.23 267.12 30.9 261.54 31.06 260.64 29.67 250.49 18.63 252.54 20.49 264.45"/><path class="cls-6" d="M28.59,267.42l-15.21,2.07a1.52,1.52,0,0,1-.34,0c-1.49-.24-1.15-1.21-1.15-1.21l6.67-5.52.05-.68A1.56,1.56,0,0,1,21,261l2.81,1.52s6.59.09,7.23-1.87l.59,4.78S32.35,266.88,28.59,267.42Z"/><path class="cls-5" d="M57.79,223.92s19,.89,24.25-.28,6.57-17.62.58-27.7S55.7,216.81,55.7,216.81Z"/><path class="cls-4" d="M46.05,199.49s-26.42,4.11-27.19,7.18-3,35.63-1.32,49.53c0,0,10.07.69,14.88-.47l1.37-31.84,8.1.15,17.86-25Z"/><path class="cls-5" d="M58.91,201.4s-20.46,5.78-21.23,8.84-3,32.14-1.3,46c0,0,10.82.62,15.64-.54l1.29-32,4.67.16L69.3,204Z"/><path class="cls-10" d="M71.59,162.42s9,.15,11.15,1.39,11.73,17.11,13.81,23.84c0,0-5.43,4.76-12.44,4.94l-1.68-3.18,1,6.5-18.34,5.44a30.11,30.11,0,0,1-19-.61l-1.9-.71s0-30.87,5.54-34.13C54.63,163,65.27,161.46,71.59,162.42Z"/><path class="cls-39" d="M60.23,147.25V156s-.12,2.95,2.46,3.32l-.48,3.94a3.09,3.09,0,0,0,2.1,3.32,8.35,8.35,0,0,0,2.44.37,4.92,4.92,0,0,0,4.8-3.32c.25-1.11-.49-6.4-.49-6.4l.09-2.6-.33-10.08Z"/><path class="cls-40" d="M70.47,145l-2.06,2.92s-6.24,2.43-9.44-.44-2.22-4.26-1.28-5.7a4.57,4.57,0,0,1,5.38-.94c1.48.65,2.57-1.31,4.29-.32s3.76,2.69,3.53,3.36S70.47,145,70.47,145Z"/><path class="cls-41" d="M70.35,143.79a3.67,3.67,0,0,1,3.63,2.6c.8,2.74-.27,4.17-.3,5s.53,6.31-3.33,5.9l-1-9.08,1.35-3.62Z"/><circle class="cls-39" cx="70.14" cy="151.99" r="2.22"/><path class="cls-42" d="M68.68,156.8s-.17,4.95-6.34,5.42l.35-2.91S66.7,160.12,68.68,156.8Z"/><path class="cls-38" d="M82.68,189.81A23.44,23.44,0,0,0,94.89,184l-.27-.26a23,23,0,0,1-12,5.7Z"/><path class="cls-38" d="M45.52,256.65c4.78,0,6.49-.72,6.57-.75l.11-.05,1.25-32.15-2,.93.16.33,1.43-.67L51.84,255.6c-.52.17-3,.89-8.86.62l0,.37C43.9,256.63,44.75,256.65,45.52,256.65Z"/><path class="cls-38" d="M50,249.72c.51-2,.65-21.18.66-22H50.3c0,.2-.15,20-.65,21.9Z"/><path class="cls-38" d="M25.53,256.77a33.69,33.69,0,0,0,7.07-.71l1.19-32.17-1.51,1.05.23.29.88-.71-1.15,31.24a32.87,32.87,0,0,1-7.07.64v.37Z"/><path class="cls-38" d="M30.68,250.43c.5-3,0-23.11,0-24h-.37c0,.21.5,21,0,23.89Z"/><path class="cls-39" d="M48.93,203,51,199.74h0c1.16-1.86,3-4.3,4.95-4.52,3.17-.35,22.44-1.14,28.55-1.9,0,0-.42-.73-.41-.73s5-.84,5-.84l3.18-1.51L95.14,189c.79,3.07,3,8.11.73,11.63-4.1,6.49-35.44,3.3-38.22,2.45l-2.56,2.77-.52.8a.82.82,0,0,1-1.14.24.81.81,0,0,1-.24-1.13l-.22.33a.81.81,0,0,1-1.13.24h0a.82.82,0,0,1-.25-1.13.82.82,0,1,1-1.37-.9l.22-.34a.82.82,0,0,1-1.14.24h0l0,0h0l0,0h0a.87.87,0,0,1-.13-.15A.89.89,0,0,1,48.93,203Z"/><path class="cls-38" d="M84,192.84h.12c6.23-.15,12.49-4.94,12.55-5l.11-.09L92.85,179l-.34.15,3.83,8.48c-.88.65-6.5,4.63-12.1,4.81L82.55,189l-.33.16Z"/><path class="cls-42" d="M86.72,196.34a.14.14,0,0,0,.11,0,.12.12,0,0,0,0-.17l-2.25-2.89a.12.12,0,1,0-.19.15l2.24,2.89A.15.15,0,0,0,86.72,196.34Z"/><path class="cls-42" d="M50.08,204.45a.12.12,0,0,0,.12,0l2.94-4a.13.13,0,1,0-.2-.15l-2.94,4a.13.13,0,0,0,0,.17Z"/><path class="cls-42" d="M51.37,205.62a.11.11,0,0,0,.13-.05l2.8-4.15a.13.13,0,0,0-.21-.14l-2.8,4.16a.13.13,0,0,0,0,.17Z"/><path class="cls-42" d="M52.92,206.38a.12.12,0,0,0,.13-.06l2.33-3.52a.12.12,0,1,0-.2-.13l-2.33,3.52a.13.13,0,0,0,0,.17Z"/><path class="cls-38" d="M65.92,224.26a149.07,149.07,0,0,1-15.1-.64l0-.36a189,189,0,0,0,31.75,0l0,.36C76.28,224.1,70.63,224.26,65.92,224.26Z"/><rect class="cls-38" x="44.89" y="182.4" width="15.69" height="0.37" transform="translate(-131.42 229.53) rotate(-88.19)"/><rect class="cls-38" x="80.28" y="175.2" width="0.37" height="18.4" transform="translate(-66.81 47.33) rotate(-23.48)"/><rect class="cls-38" x="82.44" y="188.39" width="0.37" height="5.12" transform="translate(-29.4 15.62) rotate(-9.18)"/><polygon class="cls-17" points="13.19 179.02 42.52 179.02 52.76 205.07 23.42 205.07 13.19 179.02"/><polygon class="cls-17" points="52.76 205.07 51.22 205.07 40.99 179.02 42.52 179.02 52.76 205.07"/><path class="cls-17" d="M32.37,191.21c.41,1.2.11,2.38-.67,2.65s-1.73-.5-2.13-1.69-.11-2.38.66-2.65S32,190,32.37,191.21Z"/><path class="cls-17" d="M62.45,203h-11v2.1h11a1,1,0,0,0,1-1h0A1,1,0,0,0,62.45,203Z"/><rect class="cls-17" x="52.75" y="203.69" width="6.92" height="0.33"/><rect class="cls-17" x="48.62" y="205.07" width="12.91" height="4.61"/><path class="cls-43" d="M165.55,231.85c-.17-.14-4.06-3.27-4.37-3.42-2.85,1.93-2.48,7.16-5.62,9.28,2,.43,3.49.7,4.07.79l1.75,3.88.24,1a1.18,1.18,0,0,0,1.27.78.83.83,0,0,0,.85-1l.1.43a1.18,1.18,0,0,0,1.27.78h0a.83.83,0,0,0,.85-1,1.18,1.18,0,0,0,1.26.78c.59-.05,1-.48.86-1l-.1-.42a1.18,1.18,0,0,0,1.26.78h.1l.11,0c.56-.13.79-.38.85-.64a29.92,29.92,0,0,0-1.09-5A10.29,10.29,0,0,0,165.55,231.85Z"/><path class="cls-42" d="M168.09,243.33l.06,0a.16.16,0,0,0,.1-.2l-2.31-6.19a.16.16,0,1,0-.3.11l2.3,6.19A.17.17,0,0,0,168.09,243.33Z"/><path class="cls-42" d="M166,243.82h.06a.17.17,0,0,0,.1-.21L164.06,238a.18.18,0,0,0-.21-.1.17.17,0,0,0-.1.21l2.09,5.62A.16.16,0,0,0,166,243.82Z"/><path class="cls-43" d="M156.85,224.86c3.08,2.51,8.62,7,9.76,8.06,1.6,1.44-5.87,7.65-5.87,7.65s-8.64-4.58-13.39-7.85Z"/><path class="cls-42" d="M163.81,243.71h.06a.17.17,0,0,0,.09-.21L162.28,239a.16.16,0,1,0-.3.12l1.68,4.51A.15.15,0,0,0,163.81,243.71Z"/><path class="cls-38" d="M188.1,238.57a.2.2,0,0,0,.15-.06l3.44-3a.23.23,0,0,0-.31-.35l-3.43,3a.24.24,0,0,0,0,.33A.27.27,0,0,0,188.1,238.57Z"/><path class="cls-4" d="M118.57,244.15s2.74-8.28,31.86-6.74c33.29,1.76,56-4,61.86,6.74l-46.13,17.13Z"/><path class="cls-5" d="M170.94,258.91S144.52,243,135.26,240.6s-15.68.76-16.69,3.55-2,10.32,4.21,14.76c2.66,1.92,33.14,11,41.19,13.1C164,272,171.45,268.86,170.94,258.91Z"/><path class="cls-38" d="M165.35,255.85a.22.22,0,0,0,.2-.12.23.23,0,0,0-.08-.32c-25.3-15.12-33.59-15.86-33.93-15.89a.24.24,0,0,0,0,.47h0c.08,0,8.57.79,33.72,15.82A.19.19,0,0,0,165.35,255.85Z"/><path class="cls-39" d="M158.6,274.58l12-6.08-5.74-11.29-9.75,5h0s-16.12-.14-16.89.62S154.86,276.49,158.6,274.58Z"/><path class="cls-6" d="M162.71,272.49c-3.43-3.78-5.3-9.26-5.88-11.21l-1.77.9s-16.12-.14-16.89.62,16.69,13.69,20.43,11.78Z"/><path class="cls-5" d="M159.92,258.91S186.34,243,195.6,240.6s15.69.76,16.69,3.55,2,10.32-4.2,14.76c-2.67,1.92-35.28,11.56-43.34,13.67C164.75,272.58,159.41,268.86,159.92,258.91Z"/><path class="cls-38" d="M164.75,272.82a.24.24,0,0,0,.2-.11.23.23,0,0,0-.07-.32c-4.46-2.94-4.71-12.13-4.73-13.35,1.85-1.07,24.81-14.38,34-17.81a.23.23,0,1,0-.17-.43c-9.53,3.57-33.89,17.76-34.14,17.9l-.11.07v.13c0,.44,0,10.6,4.93,13.88A.33.33,0,0,0,164.75,272.82Z"/><path class="cls-38" d="M121.3,243.91a.23.23,0,0,0,.2-.1s.94-1.22,4-1.18a.23.23,0,0,0,.24-.23.23.23,0,0,0-.23-.24c-3.31,0-4.31,1.32-4.36,1.38a.24.24,0,0,0,.06.33A.22.22,0,0,0,121.3,243.91Z"/><path class="cls-38" d="M122.81,245.08A.23.23,0,0,0,123,245s1.11-1.07,4.09-.59a.24.24,0,0,0,.27-.2.23.23,0,0,0-.19-.26c-3.27-.53-4.46.67-4.51.73a.23.23,0,0,0,.17.39Z"/><path class="cls-4" d="M171.56,175.44s-1.39,12.49-3.25,12.61,1.28,14.75,6.23,7.58c1.73-2.51,1.65-18.93-2.48-22.44S171.56,175.44,171.56,175.44Z"/><path class="cls-39" d="M172.24,172.31s1.71,11.79.17,13.89a3.28,3.28,0,0,1-2.6,1.18l.15,6.93-8.34-.95-.28-19.72s2.38-4.87,2.38-4.67S172.24,172.31,172.24,172.31Z"/><path class="cls-42" d="M169.85,189.73l0-2.35s-4-.18-6.45-1.69C163.36,185.69,166.72,188.84,169.85,189.73Z"/><path class="cls-39" d="M168.62,172.54l-2-2.81s3.25,2,3,2.12A4.91,4.91,0,0,0,168.62,172.54Z"/><path class="cls-4" d="M162.55,171.21s.58,4.39,11.12,5.28c0,0,2.45-6.51-5.2-8.68s-8.35,3.69-8.19,3.64S162.55,171.21,162.55,171.21Z"/><path class="cls-4" d="M164.14,173.67a41.23,41.23,0,0,0-2.85,5s3.52,18.42-3.57,17.39l-1.27,0c-6.27-.08-1.93-13.66-1.82-20.87.06-4.51,5.54-9.09,9.1-6.34S164.14,173.67,164.14,173.67Z"/><path class="cls-4" d="M172.71,170.31s3.65,3.86,2.81,14.95L173,174.32Z"/><path class="cls-10" d="M170.26,213.79l-5.07-21.32H151.35a10.38,10.38,0,0,0-3.57,1c-5.56,3-20.83,19.79-20.07,30.39.69,9.63,14.56,7.72,28.37,9.95l3.07-12.77-5-1.34Z"/><path class="cls-10" d="M165.68,216.94V192.47h13.84a10.46,10.46,0,0,1,3.58,1c5.55,3,22.74,20.32,22,30.93-.69,9.62-16.9,9.24-24.49,11.58l-4.22-15.26.37-.78Z"/><path class="cls-10" d="M188.11,220.27,187.93,247s-24.15,4.42-45.66-1.3c-.53-.14,1-22.06,1-22.06s0-4.25,2.24-5.56,20.53-9.43,21-9.43S188.11,220.27,188.11,220.27Z"/><path class="cls-38" d="M165,199.89a.27.27,0,0,0,.26-.25.27.27,0,0,0-.25-.28c-7.93-.49-10.52-5.93-10.55-6a.26.26,0,0,0-.35-.12.25.25,0,0,0-.12.34c0,.06,2.73,5.78,11,6.29Z"/><path class="cls-39" d="M173.7,192.47H156.2s3.16,5.48,9.21,5.45C168.18,197.91,171.15,196.89,173.7,192.47Z"/><path class="cls-44" d="M162.91,227.76a2,2,0,0,1-.08-2.56,3.45,3.45,0,0,1,0-2.44s4.67,1.38,7.32,2.36a3.06,3.06,0,0,0,2-1l0,.06c0-1.3.06-2.92.06-3.1s.5-.81,1.27.17,2.27,3.61,2.27,3.61l3.86-2.27,3.15,10.88s-9.38,1.32-10.82,1.43-6.47-1.08-8-2.32-1.18-2.35-1.18-2.35A1.88,1.88,0,0,1,162.91,227.76Z"/><path class="cls-45" d="M173.1,220.56v3.37a3.08,3.08,0,0,1-2.91,1.19l-1.44-.53,1.14-4.9Z"/><path class="cls-42" d="M166,226.87a.16.16,0,0,0,.16-.12.18.18,0,0,0-.11-.22,21.11,21.11,0,0,1-3.14-1.48.17.17,0,0,0-.24.07.16.16,0,0,0,.07.23,19.92,19.92,0,0,0,3.2,1.51Z"/><path class="cls-42" d="M166,229.08a.18.18,0,0,0,.17-.15.18.18,0,0,0-.14-.2,11.33,11.33,0,0,1-3-1.12.18.18,0,0,0-.24.06.18.18,0,0,0,.07.24,11.07,11.07,0,0,0,3.15,1.16Z"/><path class="cls-42" d="M165.62,231.59a.18.18,0,0,0,0-.35,9,9,0,0,1-2.65-1.1.17.17,0,0,0-.19.29,9.23,9.23,0,0,0,2.77,1.15Z"/><path class="cls-46" d="M176.94,222.84l5.33-1.32s3,7.44,3,7.69a64.57,64.57,0,0,1-1.69,6.78,20.72,20.72,0,0,1-1.89-1.79Z"/><path class="cls-38" d="M186.72,218l2.63-.42a.31.31,0,0,0-.1-.62l-2.22.35-4.94-7.61a.32.32,0,0,0-.43-.09.32.32,0,0,0-.1.44Z"/><path class="cls-38" d="M185.74,199.42a.26.26,0,0,1-.21-.11c-2-2.82-3.65-2.83-3.65-2.83h0a.26.26,0,0,1,0-.52h0c.1,0,2,0,4.08,3a.27.27,0,0,1-.07.37A.28.28,0,0,1,185.74,199.42Z"/><path class="cls-38" d="M185.18,202.08a.26.26,0,0,1-.23-.15c-1.51-3-3.18-3.33-3.19-3.33a.27.27,0,0,1-.22-.3.26.26,0,0,1,.29-.22c.08,0,1.94.32,3.59,3.62a.26.26,0,0,1-.12.35Z"/><path class="cls-42" d="M170.47,223.3a.16.16,0,0,1-.18-.08.18.18,0,0,1,.06-.24,21,21,0,0,0,2.77-2.1.18.18,0,0,1,.25,0,.17.17,0,0,1,0,.24,21,21,0,0,1-2.83,2.14Z"/><path class="cls-42" d="M170.93,225.46a.19.19,0,0,1-.2-.11.16.16,0,0,1,.1-.22,11.22,11.22,0,0,0,2.74-1.73.17.17,0,0,1,.23.25,10.78,10.78,0,0,1-2.84,1.8Z"/><path class="cls-42" d="M171.83,227.83a.18.18,0,0,1-.2-.09.17.17,0,0,1,.09-.23,9.3,9.3,0,0,0,2.36-1.63.18.18,0,0,1,.25,0,.16.16,0,0,1,0,.24,9.36,9.36,0,0,1-2.47,1.7Z"/><path class="cls-38" d="M148.06,217.82l-2.65.13a.3.3,0,0,1-.33-.3.31.31,0,0,1,.3-.33l2.24-.11,3.26-8.46a.32.32,0,0,1,.41-.19.33.33,0,0,1,.18.41Z"/><path class="cls-46" d="M159.15,221.05l-2.74,13.11s-5.62-4.58-5.62-5.08a56.51,56.51,0,0,1,2-6.72C152.94,222.25,159.15,221.05,159.15,221.05Z"/><path class="cls-38" d="M156.6,234.49l-.28,0a48.33,48.33,0,0,1-14.21-3.6.32.32,0,0,1-.17-.42.33.33,0,0,1,.42-.17,48.64,48.64,0,0,0,13.72,3.54l2.34-12.35-10.68-3.65a.32.32,0,0,1-.2-.41.32.32,0,0,1,.4-.19l11.21,3.83Z"/><path class="cls-38" d="M178.34,234.49l.27,0a48.33,48.33,0,0,0,14.21-3.6.32.32,0,0,0-.24-.59,48.68,48.68,0,0,1-13.73,3.54l-2.34-12.35,10.68-3.65a.32.32,0,0,0,.2-.41.32.32,0,0,0-.4-.19l-11.21,3.83Z"/><rect class="cls-17" x="139.77" y="216.94" width="53.93" height="31.69" rx="6.29" transform="translate(333.47 465.56) rotate(180)"/><circle class="cls-19" cx="166.18" cy="230.11" r="2.15"/></g></svg>