<svg xmlns="http://www.w3.org/2000/svg" xmlns:xlink="http://www.w3.org/1999/xlink" viewBox="0 0 1080 1080"><defs><style>.cls-1{fill:none;}.cls-2{fill:#fff;}.cls-3{fill:#ebebeb;}.cls-4{fill:#fbebdb;}.cls-5{clip-path:url(#clip-path);}.cls-6{fill:#ee985e;}.cls-7{fill:#ec7e2a;}.cls-8{fill:#6db7c0;}.cls-9{fill:#599dad;}.cls-10{fill:#f89748;}.cls-11{fill:#2b4f97;}.cls-12{fill:#1e3e70;}.cls-13{fill:#fab17e;}.cls-14{fill:#dfebf8;}.cls-15{fill:#7a97cd;}.cls-16{fill:#acc1e4;}.cls-17{fill:#a8d29f;}.cls-18,.cls-19{fill:#82b379;}.cls-19{opacity:0.5;}.cls-20{fill:#fdb83f;}.cls-21{fill:#faa31c;}.cls-22{fill:#e18226;}.cls-23{fill:#2e3652;}.cls-24{fill:#f0a350;}.cls-25{fill:#fcb874;}.cls-26{fill:#d76927;}.cls-27{fill:#183660;}.cls-28{fill:#5ba9ad;}.cls-29{fill:#5074b9;}.cls-30{fill:#313c60;}.cls-31{fill:#d39e7a;}.cls-32{fill:#e0b594;}.cls-33{fill:#2b488c;}.cls-34{fill:#243962;}</style><clipPath id="clip-path"><path class="cls-1" d="M745.46,543.85C665.05,617.8,565,617.66,463.24,576.65h0c-59.56-24-122.56-65.6-156.8-119.25-46.31-71.56-30.15-133.12,5.56-210.12C359.4,145,436.12,84.4,549,96.91c144.9,16,236.37,121.42,261.4,261.39C823.05,428.81,796.45,497,745.46,543.85Z"/></clipPath></defs><title>overview section</title><g id="Layer_6" data-name="Layer 6"><rect class="cls-2" width="1080" height="1080"/><rect class="cls-3" y="989.45" width="1080" height="90.55"/></g><g id="Layer_5" data-name="Layer 5"><path class="cls-4" d="M745.46,543.85C665.05,617.8,565,617.66,463.24,576.65h0c-59.56-24-122.56-65.6-156.8-119.25-46.31-71.56-30.15-133.12,5.56-210.12C359.4,145,436.12,84.4,549,96.91c144.9,16,236.37,121.42,261.4,261.39C823.05,428.81,796.45,497,745.46,543.85Z"/><g class="cls-5"><path class="cls-6" d="M597.26,402.72s-37.6-7.57-43.88-7-28,10.38-28.29,12.16.84,3.22,4.65,3.38,16.28-1.78,15.53-.24-36.62,9.56-36.83,16.83,19.9,20.23,36.61,20.69,49-19.77,51.81-20.09C620.66,425.77,597.26,402.72,597.26,402.72Z"/><path class="cls-7" d="M802.63,319.16c-14.69,18.29-26.93,32.47-33.39,37.62a145.3,145.3,0,0,1-19.06,12.49c-53.6,30.25-156.7,61-156.7,61l-.2-.15a44.84,44.84,0,0,1-12.87-15.47c-3.93-7.94-3.12-12.87-2-15.45a6.75,6.75,0,0,1,1.56-2.28s123.54-79,133.43-87.18c5.6-4.67,25.89-51.91,42.42-92q3.46,5,6.72,10.21C779.92,255.46,793.3,286.2,802.63,319.16Z"/><path class="cls-8" d="M803.47,459c-.78,2.21-1.59,4.4-2.45,6.58a205.76,205.76,0,0,1-14.43,29.58h0q-5,8.44-10.75,16.43a219.74,219.74,0,0,1-29.48,33.15l.18-2.47c.09-1.28.18-2.54.27-3.8q.3-4.17.58-8.19c.08-1,.15-2.07.23-3.09q.71-10,1.33-18.82c.13-1.7.24-3.36.36-5,0-.48.07-1,.1-1.45.07-.95.14-1.91.21-2.85s.12-1.68.18-2.52c0-.08,0-.17,0-.25l.18-2.51c.1-1.39.2-2.76.29-4.09q.09-1.24.18-2.46c.08-1.26.17-2.48.25-3.68,0-.29,0-.58.07-.87l.12-1.69.06-.83v-.1c.08-1.07.15-2.12.23-3.13,0-.05,0-.11,0-.16,0-.74.1-1.46.15-2.17,0-.24,0-.47,0-.7,0-.4.06-.8.08-1.19s0-.65.07-1c.16-2.21.3-4.23.43-6,0-.25,0-.51,0-.76l.06-.76q0-.72.09-1.38c.23-3.19.39-5.52.49-6.89q0-.21,0-.39a.49.49,0,0,1,0-.12c0-.13,0-.24,0-.34l0-.58Z"/><path class="cls-9" d="M803.47,459c-.78,2.21-1.59,4.4-2.45,6.58a205.76,205.76,0,0,1-14.43,29.58h0q-5,8.44-10.75,16.43a219.74,219.74,0,0,1-29.48,33.15l.18-2.47c.09-1.28.18-2.54.27-3.8q.3-4.17.58-8.19c.08-1,.15-2.07.23-3.09q.71-10,1.33-18.82c.13-1.7.24-3.36.36-5,0-.48.07-1,.1-1.45.07-.95.14-1.91.21-2.85s.12-1.68.18-2.52c0-.08,0-.17,0-.25l.18-2.51c.1-1.39.2-2.76.29-4.09q.09-1.24.18-2.46c.08-1.26.17-2.48.25-3.68,0-.29,0-.58.07-.87l.12-1.69.06-.83v-.1c.08-1.07.15-2.12.23-3.13,0-.05,0-.11,0-.16,0-.74.1-1.46.15-2.17,0-.24,0-.47,0-.7,0-.4.06-.8.08-1.19s0-.65.07-1c.16-2.21.3-4.23.43-6,0-.25,0-.51,0-.76l.06-.76q0-.72.09-1.38c.23-3.19.39-5.52.49-6.89q0-.21,0-.39a.49.49,0,0,1,0-.12c0-.13,0-.24,0-.34l0-.58Z"/><path class="cls-10" d="M811.63,358.34A196.8,196.8,0,0,1,803.47,459c-.78,2.21-1.59,4.4-2.45,6.58a205.76,205.76,0,0,1-14.43,29.58h0q-5,8.44-10.75,16.43c-11-1.59-20-2.89-25.5-3a7.89,7.89,0,0,1-1.39-.19,7.3,7.3,0,0,1-3.27-1.78c-1.09-.95-.06-51.84,3.3-115.94.1-2.47.19-5.18.51-7.64l0-.9q.32-6.36.66-12.82.21-3.72.44-7.49c1-17.09,2.32-34.58,3.71-52,.14-1.67.27-3.34.4-5,2.2-26.84,4.79-53.22,7.85-76.82,17.34,27.52,30.72,58.26,40,91.22C806.24,331.9,809.24,345,811.63,358.34Z"/><path class="cls-11" d="M350.31,453c-.62-18-1.53-39.32-2.74-62.41-.09-2.47-.2-5.18-.51-7.64l0-.9q-.15-3.07-.3-6.18c-.06-1.16-.12-2.33-.19-3.5-.18-3.52-.39-7.06-.61-10.63-1-17.09-2.32-34.58-3.7-52-.15-1.67-.28-3.34-.41-5-2-24.87-4.41-49.34-7.18-71.57h0c0-.12,0-.25-.05-.37-.34-2.79-.71-5.57-1.07-8.28-.72-5.48-1.47-10.81-2.26-15.94q-1.61,2.63-3.16,5.3Q318.9,229.61,311,246.82A525.82,525.82,0,0,0,283.26,322l-.15.5a163.58,163.58,0,0,0-5.25,25.72h0c-.15,1.21-.28,2.41-.4,3.61h0c-3.69,38.25,7.21,74.05,27.91,106,.7,1.1,1.43,2.2,2.17,3.3,1.46,2.17,3,4.33,4.53,6.46q1.64,2.28,3.36,4.51c.23.32.48.63.72.94a261.78,261.78,0,0,0,26.54,29.31c1.58,1.51,3.17,3,4.79,4.48l1.21,1.1a7.87,7.87,0,0,0,2.18-1.42C351.57,506,351.4,484.91,350.31,453Z"/><path class="cls-12" d="M350.31,453c-28.83-30.21-52.85-67.28-72.45-104.8h0a163.58,163.58,0,0,1,5.25-25.72l.15-.5A525.82,525.82,0,0,1,311,246.82c17.69,25.29,30.09,48.56,30.86,57.94.13,1.66.26,3.33.41,5,1.38,17.44,2.67,34.93,3.7,52,.22,3.57.43,7.11.61,10.63.07,1.17.13,2.34.19,3.5q.15,3.1.3,6.18l0,.9c.31,2.46.42,5.17.51,7.64C348.78,413.72,349.69,435.09,350.31,453Z"/><path class="cls-13" d="M481.19,405s38.35,0,44.39,1.86,25.43,15.73,25.31,17.54-1.46,3-5.22,2.38-15.6-5-15.17-3.31,34,16.63,32.75,23.79-23.51,15.89-40,13-44.11-29.1-46.8-30C453.68,422.93,481.19,405,481.19,405Z"/><path class="cls-11" d="M488.14,418.07a45.27,45.27,0,0,1-11.09,12.54,31.84,31.84,0,0,1-3,2.14s-73.8-27.63-127.29-56.84c-17.68-9.65-33.15-19.47-43-28.52-4.45-4.09-11.66-13.22-20.46-25.37A525.82,525.82,0,0,1,311,246.82q8-17.17,17.14-32.93c2.14,6.36,4.33,12.85,6.54,19.29h0c11.72,34.19,23.73,67,28,71.05,9.29,8.89,127.11,96.16,127.11,96.16a8.25,8.25,0,0,1,1.94,4.65C492.07,407.93,491.54,412.22,488.14,418.07Z"/><rect class="cls-14" x="432.04" y="146.89" width="201.22" height="182.51"/><rect class="cls-15" x="432.04" y="135.94" width="201.22" height="10.95"/><path class="cls-14" d="M438.8,139.22a2.19,2.19,0,1,0,2.19,2.19A2.2,2.2,0,0,0,438.8,139.22Z"/><path class="cls-14" d="M447.37,139.22a2.19,2.19,0,1,0,2.19,2.19A2.19,2.19,0,0,0,447.37,139.22Z"/><path class="cls-14" d="M456,139.22a2.19,2.19,0,1,0,2.19,2.19A2.19,2.19,0,0,0,456,139.22Z"/><path class="cls-16" d="M492.47,170.66h76.88A3.66,3.66,0,0,0,573,167h0a3.66,3.66,0,0,0-3.65-3.64H492.47a3.65,3.65,0,0,0-3.64,3.64h0A3.66,3.66,0,0,0,492.47,170.66Z"/><path class="cls-16" d="M475,183.19H586.87a3.65,3.65,0,0,0,0-7.3H475a3.65,3.65,0,1,0,0,7.3Z"/><path class="cls-16" d="M465.5,216.15H600.37a2.68,2.68,0,1,0,0-5.35H465.5a2.68,2.68,0,1,0,0,5.35Z"/><rect class="cls-16" x="462.82" y="223.15" width="140.23" height="5.35" rx="2.68"/><path class="cls-16" d="M600.37,235.5H465.5a2.68,2.68,0,1,0,0,5.35H600.37a2.68,2.68,0,1,0,0-5.35Z"/><path class="cls-16" d="M479,280.38H465.5a2.68,2.68,0,1,0,0,5.35H479a2.68,2.68,0,1,0,0-5.35Z"/><path class="cls-16" d="M501.66,280.38H488.12a2.68,2.68,0,0,0,0,5.35h13.54a2.68,2.68,0,1,0,0-5.35Z"/><path class="cls-16" d="M577.75,280.38H564.21a2.68,2.68,0,1,0,0,5.35h13.54a2.68,2.68,0,0,0,0-5.35Z"/><path class="cls-16" d="M600.37,280.38H586.83a2.68,2.68,0,1,0,0,5.35h13.54a2.68,2.68,0,1,0,0-5.35Z"/><path class="cls-16" d="M482.79,289a14.27,14.27,0,1,0,14.26,14.26A14.28,14.28,0,0,0,482.79,289Zm0,27.81a13.55,13.55,0,1,1,13.55-13.55A13.57,13.57,0,0,1,482.79,316.8Z"/><path class="cls-16" d="M482.79,291.76a11.5,11.5,0,1,0,11.49,11.49A11.5,11.5,0,0,0,482.79,291.76Zm0,22.27a10.78,10.78,0,1,1,10.77-10.78A10.8,10.8,0,0,1,482.79,314Z"/><path class="cls-16" d="M478.88,308c-1.53-.12-2.32-.84-2.35-2.14a3.33,3.33,0,0,1,1.08-2.57c.29,1.49,1.08,2.75,1.95,3a1.23,1.23,0,0,0,1.34-.47,9.12,9.12,0,0,0,1-1.7.84.84,0,0,0,.57.26c.53,0,1.06-.4,1.53-1.22.12-.22.23-.46.34-.71a.31.31,0,0,0,.11.09.45.45,0,0,0,.52-.08,4.55,4.55,0,0,0,.89-1.31.58.58,0,0,0,.24.27c.11.07.35.14.65-.14a.33.33,0,0,0,.09-.42,1,1,0,0,0-.7-.31h0a4.24,4.24,0,0,0,.52-2.22.35.35,0,0,0-.35-.22c-.26,0-.45.29-.56.81a4.92,4.92,0,0,0-.07,1.56v0a8.61,8.61,0,0,0-.9,0,1.09,1.09,0,0,0-.13-.55c-.14-.2-.29-.2-.36-.18s-.28.29-.31.5,0,.17,0,.27a17.49,17.49,0,0,0-2.92.5,9.87,9.87,0,0,0-3.11,1.39c0-.45,0-1,.34-1.2s1,.05,1.27.18l.23-.38s-1.06-.61-1.74-.19q-.63.4-.54,1.68a1.94,1.94,0,0,1,0,.24,3.93,3.93,0,0,0-1.44,3.12c0,1.51,1,2.43,2.77,2.57a11,11,0,0,0,4.09-.64c3.32-1.07,6.4-3.37,7-5.45C489.07,304.92,482.62,308.27,478.88,308Zm7.4-9.25a2.66,2.66,0,0,1-.1.47A3.13,3.13,0,0,1,486.28,298.7Zm-1.5,2.2h.72a4.26,4.26,0,0,1-.8,1.21s-.06,0-.13-.25A5.48,5.48,0,0,0,484.78,300.9Zm-2.4.25c.55-.1,1.1-.16,1.59-.2a4.54,4.54,0,0,0,.13.91,6.35,6.35,0,0,1-.46,1c-.37.65-.78,1-1.12,1a.53.53,0,0,1-.4-.27A3.37,3.37,0,0,0,482.38,301.15Zm-.45.14a2.2,2.2,0,0,1-.05,1.68A3.5,3.5,0,0,1,481.93,301.29Zm-2.6.8a11.24,11.24,0,0,1,2.11-.74,4.33,4.33,0,0,0,0,1.72,2.92,2.92,0,0,0,.19.59,7.87,7.87,0,0,1-1.08,1.84.76.76,0,0,1-.86.33c-.67-.21-1.45-1.36-1.69-2.94A7,7,0,0,1,479.33,302.09Z"/><path class="cls-16" d="M490,302.31A1.34,1.34,0,0,0,490,302,1.34,1.34,0,0,1,490,302.31Z"/><path class="cls-16" d="M581.9,289.37A14.61,14.61,0,1,0,596.51,304,14.62,14.62,0,0,0,581.9,289.37Zm0,28.48A13.88,13.88,0,1,1,595.77,304,13.88,13.88,0,0,1,581.9,317.85Z"/><path class="cls-16" d="M581.9,292.2A11.78,11.78,0,1,0,593.67,304,11.79,11.79,0,0,0,581.9,292.2Zm0,22.81a11,11,0,1,1,11-11A11,11,0,0,1,581.9,315Z"/><path class="cls-16" d="M589.25,303a2.68,2.68,0,0,0,.07-.27C589.3,302.83,589.27,302.92,589.25,303Z"/><path class="cls-16" d="M577.9,308.79c-1.57-.13-2.38-.86-2.41-2.19a3.41,3.41,0,0,1,1.1-2.63c.3,1.52,1.11,2.81,2,3.09a1.23,1.23,0,0,0,1.37-.49,8.21,8.21,0,0,0,1.06-1.73.86.86,0,0,0,.58.26c.55,0,1.09-.41,1.57-1.25.12-.22.24-.47.35-.73a.52.52,0,0,0,.11.1.48.48,0,0,0,.54-.08,4.71,4.71,0,0,0,.9-1.35.63.63,0,0,0,.25.28.54.54,0,0,0,.67-.14.34.34,0,0,0,.09-.43c-.08-.15-.34-.25-.72-.32h0a4.29,4.29,0,0,0,.54-2.27.37.37,0,0,0-.37-.23c-.26,0-.45.3-.57.83a5.16,5.16,0,0,0-.07,1.6v0a8.8,8.8,0,0,0-.91,0,1.1,1.1,0,0,0-.15-.56.33.33,0,0,0-.37-.19c-.21.05-.28.3-.31.51s0,.17,0,.28a17.32,17.32,0,0,0-3,.51,9.68,9.68,0,0,0-3.18,1.43c0-.46,0-1,.34-1.24s1.07.06,1.3.19l.24-.39c-.05,0-1.09-.62-1.78-.19-.44.27-.62.85-.56,1.72l0,.25a4,4,0,0,0-1.48,3.18c0,1.56,1,2.49,2.83,2.64a11.4,11.4,0,0,0,4.2-.65c3.4-1.11,6.56-3.46,7.19-5.59C588.34,305.68,581.73,309.11,577.9,308.79Zm7.58-9.47a3.13,3.13,0,0,1-.11.48A2.89,2.89,0,0,1,585.48,299.32Zm-1.54,2.25h.73a4.27,4.27,0,0,1-.81,1.25.54.54,0,0,1-.14-.26A4.8,4.8,0,0,0,583.94,301.57Zm-2.46.26c.57-.1,1.12-.17,1.63-.21a5.63,5.63,0,0,0,.13.93,6.23,6.23,0,0,1-.47,1.07c-.38.66-.8,1-1.15,1a.53.53,0,0,1-.4-.27A3.48,3.48,0,0,0,581.48,301.83ZM581,302a2.32,2.32,0,0,1-.06,1.72A3.5,3.5,0,0,1,581,302Zm-2.67.82a11.53,11.53,0,0,1,2.16-.76,4.35,4.35,0,0,0,0,1.76,2.83,2.83,0,0,0,.19.6,7.92,7.92,0,0,1-1.1,1.89.78.78,0,0,1-.88.34c-.69-.21-1.49-1.4-1.73-3A7,7,0,0,1,578.36,302.79Z"/><path class="cls-17" d="M651,472l-17.52,23.63-1.72,2.32-.84,1.13L628.73,502l-1.17,1.58-2.16,2.91-2.27,3.06L621,512.4l0,0h0l-2,2.69,0,0-.3.4,0,0h0l-.37.5h0l-2.16,2.67V519l-2,2.72h0l-2.61,3.52h0l-2,2.65h0l-2.15,2.91h0l-3.6,4.86h0l-.35.48-1.23,1.65h0l-2.83,3.82-3.76,4.84v.23l-1.95,2.63-.21.27h0l-2.71,3.65h0l-2.52,3.41,0,0h0l-6.26,8.44h0l-9.31,12.57-15.59,21L555,601.41,553.89,603l1.79.25h0q3.1.42,6.2.75l1.74.19,1.09.11,2.62.24,1.11.09.51,0,1.74.13.33,0c1.28.1,2.56.18,3.83.25.57,0,1.16.06,1.74.09l1.35.07h.26l2.26.08,1.74.05c.66,0,1.31,0,2,0l1.74,0h7l1,0h.73l.69,0q6.76-.18,13.42-.74h0c5.11-.41,10.17-1,15.17-1.74q8.11-1.2,16-3l.26-.06a.2.2,0,0,1,0,.07l5-1.22,2.07-.52q9.78-2.48,19.19-5.75l3.13-1.12.78-.28c2-.71,3.89-1.45,5.8-2.22l1.56-.62h0l.32-.12h0l1.82-.76,1.37-.57,1.59-.69,1-.45h0l1.78-.79h0q8.73-3.91,17-8.53l1.74-1h0l30.47-41.13Z"/><path class="cls-18" d="M604.87,556.71v2.43l1.78-2.39,0,0h-1.8Zm-3.34,3.21a13.72,13.72,0,0,0-1.8.89l-3.89,5.25-3,4v5.28l3.53-4.76,8.48-11.45A10.21,10.21,0,0,0,601.53,559.92Zm-14.37,17.84-.44.59-1.7,2.29L577.36,591v5.28l5.41-7.31,4.34-5.85,2.27-3.06,1.69-2.28h-3.91ZM652,490.32l-18.23,24.61-.16.22-1.11,1.49L631,518.55l-.74,1v0l-3.38,4.56-1.4,1.67V526l-.92,1.25-1.24,1.66-5,6.79h0l-.11.14-.25.34h0l-1.6,2.16v.23l-4.78,6.22-1.86,2.5-.3.42-5.14,6.93-1.53,2.06,0,0-3,4.06-3.89,5.25-3,4L590.7,573l-3.54,4.77-.44.59-1.7,2.29L577.36,591l-2.15,2.91-3.64,4.91-4.22,5.69,1.11.09.51,0,1.74.13.33,0,4.43-6h0l1.88-2.54,5.41-7.31,4.34-5.85,2.27-3.06,1.69-2.28h0l1.78-2.4,3.53-4.76,8.48-11.45h0l1.78-2.39,0,0h0l2.76-3.48V553l2.15-2.91,1.72-2.32,3.07-4.14,2.15-2.91,2.43-3.27.93-1.26.36-.48h0l1.12-1.52,2.16-2.91,2.27-3.07,2.29-3.08.22-.29h0l2.16-2.91,1.65-2.23.77-1v0l2-2.68.17-.23.44-.58,8.31-11.21a11.45,11.45,0,0,1,16-2.39L704.29,533a12.62,12.62,0,0,1,2.63,17.67L681.3,585.25l-1.51,2,1.37-.57,1.59-.69,1-.45h0l1.78-.79h0l33.28-44.89Zm-64.8,87.44-.44.59-1.7,2.29L577.36,591v5.28l5.41-7.31,4.34-5.85,2.27-3.06,1.69-2.28h-3.91Zm14.37-17.84a13.72,13.72,0,0,0-1.8.89l-3.89,5.25-3,4v5.28l3.53-4.76,8.48-11.45A10.21,10.21,0,0,0,601.53,559.92Zm3.34-3.21v2.43l1.78-2.39,0,0h-1.8Z"/><path class="cls-18" d="M640.16,599.91a.2.2,0,0,0,0-.07l-.26.06q-7.92,1.74-16,3c-5,.74-10.06,1.33-15.17,1.74h0q-6.66.57-13.42.74l-.69,0h-.73c-.05-.65-.06-1.31-.05-2a25.42,25.42,0,0,1,.46-4.59,25.83,25.83,0,0,1,4.63-10.51l.05-.07a25.87,25.87,0,0,1,3.83-4.11,24.3,24.3,0,0,1,2.15-1.67,25.6,25.6,0,0,1,6.59-3.3c.71-.24,1.43-.44,2.15-.61a25.44,25.44,0,0,1,5.13-.7c.72,0,1.44,0,2.16,0a26,26,0,0,1,4.78.67c.73.17,1.44.38,2.15.62a23.9,23.9,0,0,1,2.43.94c.73.33,1.45.69,2.15,1.09a24.85,24.85,0,0,1,2.27,1.45l.41.29c.57.43,1.12.87,1.65,1.33h0l.09.08c.41.36.8.72,1.18,1.1a27.46,27.46,0,0,1,2.15,2.43v0c.3.37.57.75.84,1.14v0a25.72,25.72,0,0,1,2.15,3.69v0c.28.6.53,1.21.76,1.83h0a25.17,25.17,0,0,1,1.16,4.07Z"/><path class="cls-19" d="M618.24,516.12h0l-2.16,2.7v.2l-2,2.72-2.61,3.52h0l-2,2.65h0l-2.15,2.91h0l-3.6,4.86h0l-.35.48-1.23,1.65h0l-2.83,3.82-3.76,4.87v.2l-1.95,2.63-.21.27h0l-2.71,3.65-2.52,3.41,0,0h0l-6.26,8.44h0l-9.31,12.57-15.59,21L555,601.41,553.89,603l1.79.25h0q3.1.42,6.2.75l1.74.19,1.09.11,2.62.24,1.11.09.51,0,1.74.13.33,0c1.28.1,2.56.18,3.83.25.57,0,1.16.06,1.74.09l1.35.07h.26c.45-2.11,1-4.25,1.54-6.4q1.32-4.89,3-9.85c.86-2.53,1.79-5.07,2.77-7.6.38-1,.78-2,1.18-3l.24-.59h0q1.8-4.43,3.74-8.76v-.19c.71-1.58,1.43-3,2.16-4.52q1.8-3.84,3.65-7.55v0c1.66-3.35,3.34-6.59,5-9.69.21-.41.43-.66.65-1v-.2q1.08-2.06,2.15-4,1.59-2.92,3.08-5.61c.1-.16.18-.32.28-.48.62-1.13,1.24-2,1.83-3.09v-.2l4-7c.71-1.27,1.37-2.44,2-3.51.23-.41.45-.8.65-1.18.95-1.73,1.69-3.14,2.16-4.17.15-.34.28-.64.37-.9Z"/><path class="cls-20" d="M644,582.37v11.9c0,.12,0,.23,0,.35h0a4.41,4.41,0,0,1-.77,2.2,4.53,4.53,0,0,1-2.15,1.71,3.3,3.3,0,0,1-.63.2l-.21,0a2.57,2.57,0,0,1-.4.06l-.41,0H531.09c-2.44-.53-4.87-1.08-7.31-1.66l-1.74-.42c-1.62-.39-3.24-.8-4.87-1.21l-2.15-.56c-1.23-.32-2.46-.64-3.69-1s-2.66-.72-4-1.1l-1.74-.49q-4.95-1.41-9.9-3h0l-.39-.12-3-.95-1.74-.56c-9.3-3-18.56-6.4-27.71-10.09h2.64l49.52,0H639.61a4.07,4.07,0,0,1,.61.08,4,4,0,0,1,.84.23,4.59,4.59,0,0,1,2.14,1.72A4.5,4.5,0,0,1,644,582.37Z"/><path class="cls-21" d="M551,598.78H531.09c-2.44-.53-4.87-1.08-7.31-1.66l-1.74-.42c-1.62-.39-3.24-.8-4.87-1.21l-2.15-.56c-1.23-.32-2.46-.64-3.69-1s-2.66-.72-4-1.1l-1.74-.49q-4.95-1.41-9.9-3h0l-.39-.12-3-.95-1.74-.56c-9.3-3-18.56-6.4-27.71-10.09h2.64l49.52,0h23.51a43.32,43.32,0,0,0,3.64,10.09,34.73,34.73,0,0,0,7.44,9.8l.62.54a1.31,1.31,0,0,0,.12.11Z"/><rect class="cls-21" x="618.79" y="577.78" width="2.15" height="21.05"/><rect class="cls-21" x="611.5" y="577.77" width="2.15" height="21.05"/><rect class="cls-21" x="602.77" y="577.77" width="2.15" height="21.05" transform="translate(0.61 -0.63) rotate(0.06)"/><rect class="cls-21" x="589.37" y="577.76" width="2.15" height="21.05"/><rect class="cls-21" x="575.21" y="577.75" width="2.15" height="21.05"/><rect class="cls-21" x="553.5" y="577.73" width="2.15" height="21.05"/><rect class="cls-21" x="533.18" y="577.72" width="2.15" height="21.05"/><path class="cls-21" d="M517.19,577.71l0,17.77-2.15-.56V577.71Z"/><rect class="cls-21" x="625.72" y="577.78" width="2.15" height="21.05"/><rect class="cls-21" x="630.3" y="577.79" width="2.15" height="21.05"/><rect class="cls-21" x="634.73" y="577.79" width="2.15" height="21.05" transform="translate(0.61 -0.66) rotate(0.06)"/><path class="cls-21" d="M640.22,577.87l0,20.9a4.28,4.28,0,0,1-.81.07h-1.34V577.79h1.35A4.45,4.45,0,0,1,640.22,577.87Z"/><path class="cls-21" d="M643.2,579.82v17a4.61,4.61,0,0,1-2.15,1.72l0-20.44A4.64,4.64,0,0,1,643.2,579.82Z"/><path class="cls-20" d="M659.48,561.33v11.89a4.51,4.51,0,0,1-.79,2.56,4.59,4.59,0,0,1-2.15,1.71,4,4,0,0,1-.84.24,4.28,4.28,0,0,1-.81.07l-189.37-.13a4.59,4.59,0,0,1-4.57-4.35c0-.08,0-.15,0-.23V561.2a1.93,1.93,0,0,1,0-.24,4.59,4.59,0,0,1,4-4.31,4.93,4.93,0,0,1,.55,0l189.37.13a4.43,4.43,0,0,1,.81.07,3.78,3.78,0,0,1,.83.24,4.55,4.55,0,0,1,2.15,1.72A4.5,4.5,0,0,1,659.48,561.33Z"/><path class="cls-21" d="M566.47,577.74,465,577.67a4.34,4.34,0,0,1-4.08-4.35c0-.08,0-.15,0-.23V561.2a1.93,1.93,0,0,1,0-.24,4.42,4.42,0,0,1,3.6-4.31l.48,0,89,.06v0C555.46,562.91,558.77,571.46,566.47,577.74Z"/><rect class="cls-21" x="634.28" y="556.74" width="2.15" height="21.05"/><rect class="cls-21" x="626.99" y="556.73" width="2.15" height="21.05"/><rect class="cls-21" x="618.26" y="556.73" width="2.15" height="21.05"/><rect class="cls-21" x="604.86" y="556.72" width="2.15" height="21.05"/><rect class="cls-21" x="590.7" y="556.71" width="2.15" height="21.05"/><rect class="cls-21" x="568.99" y="556.69" width="2.15" height="21.05"/><rect class="cls-21" x="548.67" y="556.68" width="2.15" height="21.05"/><rect class="cls-21" x="530.52" y="556.66" width="2.15" height="21.05"/><rect class="cls-21" x="641.21" y="556.74" width="2.15" height="21.05"/><rect class="cls-21" x="645.79" y="556.74" width="2.15" height="21.05"/><rect class="cls-21" x="650.22" y="556.75" width="2.15" height="21.05"/><path class="cls-21" d="M655.71,556.82l0,20.91a4.28,4.28,0,0,1-.81.07h-1.34v-21h1.35A4.36,4.36,0,0,1,655.71,556.82Z"/><path class="cls-21" d="M658.69,558.78v17a4.59,4.59,0,0,1-2.15,1.71l0-20.43A4.57,4.57,0,0,1,658.69,558.78Z"/><path class="cls-20" d="M634.63,540.3v11.89a4.5,4.5,0,0,1-.79,2.55,4.61,4.61,0,0,1-2.15,1.72,4.74,4.74,0,0,1-.84.23l-.26,0-.21,0H630l-189.38-.14a4.59,4.59,0,0,1-4.57-4.34V540.16c0-.08,0-.16,0-.23a4.6,4.6,0,0,1,4.58-4.35l189.37.13h.24a3.55,3.55,0,0,1,.57.07,4.74,4.74,0,0,1,.84.23c.13.06.27.11.39.18l.24.13h0l.23.15,0,0,.21.15a3.39,3.39,0,0,1,.45.4l.13.13,0,0,.07.08,0,0,.13.17a2.35,2.35,0,0,1,.19.25A4.58,4.58,0,0,1,634.63,540.3Z"/><path class="cls-21" d="M541.63,556.7l-101.46-.07a4.33,4.33,0,0,1-4.08-4.34V540.16c0-.08,0-.16,0-.23a4.34,4.34,0,0,1,4.09-4.35l89,.06c0,.16.07.32.12.49,1.47,6.14,4.79,14.42,12.29,20.54Z"/><rect class="cls-21" x="609.43" y="535.7" width="2.15" height="21.05"/><rect class="cls-21" x="602.14" y="535.69" width="2.15" height="21.05"/><rect class="cls-21" x="593.41" y="535.69" width="2.15" height="21.05"/><rect class="cls-21" x="580.02" y="535.68" width="2.15" height="21.05"/><rect class="cls-21" x="565.85" y="535.67" width="2.15" height="21.05"/><rect class="cls-21" x="544.15" y="535.65" width="2.15" height="21.05"/><rect class="cls-21" x="523.82" y="535.64" width="2.15" height="21.05"/><rect class="cls-21" x="505.67" y="535.63" width="2.15" height="21.05" transform="translate(0.57 -0.53) rotate(0.06)"/><rect class="cls-21" x="616.37" y="535.7" width="2.15" height="21.05"/><rect class="cls-21" x="620.95" y="535.71" width="2.15" height="21.05"/><rect class="cls-21" x="625.37" y="535.71" width="2.15" height="21.05"/><path class="cls-21" d="M630.86,535.79l0,20.9a4.26,4.26,0,0,1-.8.08h-1.35l0-21h1.34A4.28,4.28,0,0,1,630.86,535.79Z"/><path class="cls-21" d="M633.85,537.74l0,17a4.61,4.61,0,0,1-2.15,1.72l0-20.44A4.61,4.61,0,0,1,633.85,537.74Z"/><path class="cls-20" d="M648.57,519.74v11.89a4.53,4.53,0,0,1-.79,2.56,4.59,4.59,0,0,1-2.15,1.71,4.76,4.76,0,0,1-.84.24,5.31,5.31,0,0,1-.81.07l-189.37-.13a4.6,4.6,0,0,1-4.56-4.16,1.28,1.28,0,0,1,0-.19,1.93,1.93,0,0,1,0-.24V519.6a1.85,1.85,0,0,1,0-.23,4.59,4.59,0,0,1,4-4.31,4.93,4.93,0,0,1,.55,0l189.37.13a4.43,4.43,0,0,1,.81.07,4,4,0,0,1,.83.24,4.59,4.59,0,0,1,2.15,1.71A4.51,4.51,0,0,1,648.57,519.74Z"/><path class="cls-21" d="M555.56,536.15l-101.45-.07a3.71,3.71,0,0,1-1.83-.49,4.62,4.62,0,0,1-2.24-3.67,1.28,1.28,0,0,1,0-.19,1.93,1.93,0,0,1,0-.24V519.6a1.85,1.85,0,0,1,0-.23,4.41,4.41,0,0,1,3.6-4.31,2.58,2.58,0,0,1,.48,0l89,.06v0c1.38,6,4.56,14.31,11.85,20.54Z"/><rect class="cls-21" x="623.37" y="515.14" width="2.15" height="21.05"/><rect class="cls-21" x="616.08" y="515.14" width="2.15" height="21.05"/><rect class="cls-21" x="607.34" y="515.13" width="2.15" height="21.05"/><rect class="cls-21" x="593.95" y="515.12" width="2.15" height="21.05"/><rect class="cls-21" x="579.79" y="515.11" width="2.15" height="21.05"/><rect class="cls-21" x="558.08" y="515.1" width="2.15" height="21.05"/><rect class="cls-21" x="537.76" y="515.08" width="2.15" height="21.05"/><rect class="cls-21" x="519.6" y="515.07" width="2.15" height="21.05"/><rect class="cls-21" x="630.3" y="515.15" width="2.15" height="21.05"/><rect class="cls-21" x="634.88" y="515.15" width="2.15" height="21.05"/><rect class="cls-21" x="639.31" y="515.15" width="2.15" height="21.05"/><path class="cls-21" d="M644.8,515.23l0,20.9a4.28,4.28,0,0,1-.81.08h-1.34V515.15H644A4.45,4.45,0,0,1,644.8,515.23Z"/><path class="cls-21" d="M647.78,517.18v17a4.59,4.59,0,0,1-2.15,1.71V515.46A4.61,4.61,0,0,1,647.78,517.18Z"/><path class="cls-20" d="M634.66,498.71V510.6a4.51,4.51,0,0,1-.79,2.56,4.59,4.59,0,0,1-2.15,1.71,4,4,0,0,1-.84.24l-.26,0h-.54l-189.38-.13a4.59,4.59,0,0,1-4.57-4.35c0-.08,0-.16,0-.24V498.57a1.85,1.85,0,0,1,0-.23,4.58,4.58,0,0,1,4.58-4.34l189.37.13a4.36,4.36,0,0,1,.81.07,4,4,0,0,1,.84.24,4.69,4.69,0,0,1,2.15,1.71A4.58,4.58,0,0,1,634.66,498.71Z"/><path class="cls-21" d="M541.65,515.12l-101.45-.07a4.34,4.34,0,0,1-4.08-4.35c0-.08,0-.16,0-.24V498.57a1.85,1.85,0,0,1,0-.23,4.33,4.33,0,0,1,4.09-4.34l89,.06c1.41,6.19,4.71,14.74,12.4,21Z"/><rect class="cls-21" x="609.46" y="494.11" width="2.15" height="21.05" transform="matrix(1, 0, 0, 1, 0.52, -0.63)"/><rect class="cls-21" x="602.17" y="494.11" width="2.15" height="21.05"/><rect class="cls-21" x="593.44" y="494.1" width="2.15" height="21.05"/><rect class="cls-21" x="580.04" y="494.09" width="2.15" height="21.05"/><rect class="cls-21" x="565.88" y="494.08" width="2.15" height="21.05"/><rect class="cls-21" x="544.17" y="494.07" width="2.15" height="21.05"/><rect class="cls-21" x="523.85" y="494.05" width="2.15" height="21.05"/><rect class="cls-21" x="505.7" y="494.04" width="2.15" height="21.05"/><rect class="cls-21" x="616.39" y="494.12" width="2.15" height="21.05"/><rect class="cls-21" x="620.98" y="494.12" width="2.15" height="21.05"/><rect class="cls-21" x="625.4" y="494.12" width="2.15" height="21.05"/><path class="cls-21" d="M630.89,494.2l0,20.91a5.29,5.29,0,0,1-.8.07h-1.35V494.12h1.35A4.36,4.36,0,0,1,630.89,494.2Z"/><path class="cls-21" d="M633.88,496.15l0,17a4.59,4.59,0,0,1-2.15,1.71l0-20.43A4.69,4.69,0,0,1,633.88,496.15Z"/><path class="cls-22" d="M660.25,594.45q-6.43,2.06-13.06,3.72l-2.07.52q-2.46.6-5,1.15l-.26.06q-7.92,1.74-16,3c-5,.74-10.06,1.33-15.17,1.74h0q-6.66.57-13.42.74l-.69,0h-.73l-1,0h-7l-1.74,0c-.66,0-1.31,0-2,0l-1.74-.05-2.26-.08H578l-1.35-.07c-.58,0-1.17,0-1.74-.09-1.27-.07-2.55-.15-3.83-.25l-.33,0-1.74-.13-.51,0-1.11-.09-2.62-.24-1.09-.11L561.9,604q-3.09-.33-6.2-.75h0l-1.79-.25-.6-.09a4,4,0,0,1-.48-.07l-1.23-.18-.34-.05h-.08l-.1,0c-1.54-.23-3.09-.48-4.64-.75l-1.63-.28-1.62-.3-1.82-.34-1.75-.33c-2.83-.56-5.67-1.14-8.51-1.76h0c-2.44-.53-4.87-1.08-7.31-1.66l-1.74-.42-.84-.21a67.26,67.26,0,0,1,34.57-64.67c.86-.47,1.73-.92,2.6-1.36s1.68-1,2.54-1.47a67.22,67.22,0,0,1,99.34,65.47Z"/><path class="cls-22" d="M673.22,546.88a66.91,66.91,0,0,0-24.65-25.45l-.79-.45c-.71-.41-1.42-.81-2.15-1.18-.28-.15-.56-.3-.84-.43-.71-.37-1.42-.72-2.15-1l-1.17-.53c-.72-.32-1.43-.62-2.16-.9s-1.5-.59-2.27-.87l-.17-.06c-.65-.23-1.31-.46-2-.67l-.46-.14h-.19a3.11,3.11,0,0,0-.51-.22l-1.34-.39-.68-.18-.84-.22c-.71-.19-1.43-.36-2.15-.51l-1.17-.25c-.72-.14-1.44-.28-2.16-.39s-1.51-.25-2.27-.35-1.41-.17-2.12-.24h0c-.81-.08-1.62-.14-2.43-.2s-1.43-.08-2.15-.1c-1.59-.05-3.19,0-4.78,0q-1.08,0-2.16.12c-1.71.12-3.42.31-5.13.58-.72.1-1.44.22-2.15.35a63.62,63.62,0,0,0-6.59,1.56l-1.31.4h0l-.1,0-.2.07a67.41,67.41,0,0,0-12,5.16l-.05,0c-.71.4-1.42.8-2.11,1.21l-.37.23a66.85,66.85,0,0,0-16.26,13.82l-.41.48A67.3,67.3,0,0,0,551,556.68s0,0,0,0c0,.17-.11.33-.17.5a66.83,66.83,0,0,0-2.16,7.62v.2a65.84,65.84,0,0,0-1.57,12.7h0a66.92,66.92,0,0,0,2.52,19.88c.1.39.22.78.34,1.17.39,1.27.81,2.53,1.28,3.78l.34.05,1.23.18a4,4,0,0,0,.48.07l.6.09,1.79.25h0q3.1.42,6.2.75l1.74.19,1.09.11,2.62.24,1.11.09.51,0,1.74.13.33,0c1.28.1,2.56.18,3.83.25.57,0,1.16.06,1.74.09l1.35.07h.26l2.26.08,1.74.05c.66,0,1.31,0,2,0l1.74,0h7l1,0h.73l.69,0q6.76-.18,13.42-.74h0c5.11-.41,10.17-1,15.17-1.74q8.11-1.2,16-3l.26-.06a.2.2,0,0,1,0,.07l5-1.22,2.07-.52q9.78-2.48,19.19-5.75l3.13-1.12.78-.28c2-.71,3.89-1.45,5.8-2.22l1.56-.62h0l.32-.12h0l1.82-.76,1.37-.57c.05-.49.1-1,.14-1.47A66.87,66.87,0,0,0,673.22,546.88Z"/><path class="cls-20" d="M668.08,549.7a66.77,66.77,0,0,0-19.52-22.08c-.25-.19-.52-.38-.78-.56-.71-.5-1.42-1-2.15-1.45l-.84-.53c-.71-.44-1.43-.87-2.15-1.28-.39-.22-.78-.44-1.18-.65-.71-.39-1.43-.77-2.15-1.13s-1.51-.74-2.27-1.08-1.43-.64-2.16-.94l-.77-.31-1.65-.64-1.42-.5-.73-.24c-1.58-.53-3.17-1-4.78-1.4-.72-.18-1.44-.34-2.16-.5-1.56-.34-3.13-.62-4.72-.84a2.9,2.9,0,0,0-.41-.06c-.72-.1-1.43-.18-2.15-.26l-.85-.08H615a.57.57,0,0,0-.16,0h-.42c-.91-.1-2-.17-2.84-.2-.72,0-1.44-.05-2.16-.05-1.71,0-3.42.05-5.13.17l-.81.07h-.28l-.11,0h-.26a59.75,59.75,0,0,0-6.75,1c-.72.14-1.43.29-2.15.46a67,67,0,0,0-12,4c-.72.32-1.44.66-2.16,1l-.37.18c-.9.44-1.78.9-2.66,1.39a67.36,67.36,0,0,0-16.19,12.42c-.11.12-.23.24-.34.37l-.12.12h0A67.19,67.19,0,0,0,547,556.67s0,0,0,0a67.24,67.24,0,0,0-4.77,31.1,66.87,66.87,0,0,0,1.85,11c.23.91.49,1.82.76,2.72l1.63.28c1.55.27,3.1.52,4.64.75l.1,0h.08l.34.05,1.23.18a4,4,0,0,0,.48.07l.6.09,1.79.25h0q3.1.42,6.2.75l1.74.19,1.09.11,2.62.24,1.11.09.51,0,1.74.13.33,0c1.28.1,2.56.18,3.83.25.57,0,1.16.06,1.74.09l1.35.07h.26l2.26.08,1.74.05c.66,0,1.31,0,2,0l1.74,0h7l1,0h.73l.69,0q6.76-.18,13.42-.74h0c5.11-.41,10.17-1,15.17-1.74q8.11-1.2,16-3l.26-.06a.2.2,0,0,1,0,.07l5-1.22,2.07-.52q9.78-2.48,19.19-5.75l3.13-1.12.78-.28c2-.71,3.89-1.45,5.8-2.22A66.87,66.87,0,0,0,668.08,549.7Z"/><path class="cls-21" d="M663.23,553.28a60.87,60.87,0,0,0-15.82-18.62c-.59-.47-1.19-.91-1.79-1.35l-.84-.6c-.7-.5-1.42-1-2.15-1.44l-1.17-.73c-.71-.43-1.43-.85-2.16-1.25s-1.5-.82-2.27-1.2-1.43-.7-2.15-1-1.61-.71-2.43-1-1.43-.57-2.15-.82l-.22-.09c-1.05-.37-2.1-.71-3.16-1l-1.4-.4c-.71-.19-1.43-.37-2.15-.54q-2.55-.58-5.14-1c-.71-.11-1.43-.19-2.15-.27l-.65-.07-1.36-.12h0c-1.52-.11-3-.17-4.57-.17-.72,0-1.44,0-2.15,0a60.48,60.48,0,0,0-11.24,1.44c-.72.16-1.44.34-2.16.53a61.21,61.21,0,0,0-12,4.57c-.64.32-1.28.66-1.91,1l-.24.14a60.87,60.87,0,0,0-9.33,6.36l-.59.49c-.63.53-1.25,1.08-1.86,1.64s-1.45,1.36-2.15,2.08a60.57,60.57,0,0,0-11.7,16.8s0,0,0,0l-.07.16a61.45,61.45,0,0,0-3.26,8.62v.13a.48.48,0,0,0-.08.16,56.14,56.14,0,0,0-2.08,10h0q-.09.76-.15,1.53c-.15,1.73-.22,3.46-.22,5.19a60.24,60.24,0,0,0,2,15.23c0,.21.11.42.17.63.34,1.29.73,2.56,1.17,3.83l1.23.18a4,4,0,0,0,.48.07l.6.09,1.79.25c-.23-.6-.45-1.19-.64-1.79-.31-.87-.58-1.74-.84-2.62s-.49-1.54-.7-2.43v-.23a56.87,56.87,0,0,1-1.32-18.4,57.69,57.69,0,0,1,2.07-10.93c.43-1.51.93-3,1.48-4.44h0a55.76,55.76,0,0,1,2.49-5.64.06.06,0,0,1,0,0,56.61,56.61,0,0,1,7.63-11.4c.69-.81,1.4-1.59,2.15-2.36a56.56,56.56,0,0,1,7.78-6.76h0l.69-.48h0c1.07-.76,2.12-1.47,3.25-2.15.66-.4,1.33-.79,2-1.16l.15-.08a56.84,56.84,0,0,1,12-4.91c.71-.2,1.43-.39,2.15-.56a56.81,56.81,0,0,1,11.25-1.54c.71,0,1.42,0,2.13,0h0c.65,0,1.31,0,2,0h0c.67,0,1.34.06,2,.11.87,0,1.75.14,2.61.23s1.44.18,2.15.3c1.72.26,3.44.6,5.13,1l1.24.32.92.26c.76.22,1.52.45,2.27.7s1.68.58,2.51.9,1.44.57,2.15.88,1.63.73,2.43,1.11,1.44.73,2.15,1.11,1.53.85,2.27,1.3,1.44.89,2.15,1.36c.4.26.79.52,1.18.8s.51.35.76.54h0a57.61,57.61,0,0,1,23,56.21l3.13-1.12.78-.28A60.78,60.78,0,0,0,663.23,553.28Z"/><path class="cls-21" d="M607.82,603.8a14.59,14.59,0,0,1-3-4.86l-11,4.47c0,.65,0,1.31.05,2h.73l.69,0q6.76-.18,13.42-.74A9.13,9.13,0,0,1,607.82,603.8Zm0,0a14.59,14.59,0,0,1-3-4.86l-11,4.47c0,.65,0,1.31.05,2h.73l.69,0q6.76-.18,13.42-.74A9.13,9.13,0,0,1,607.82,603.8Zm0,0a14.59,14.59,0,0,1-3-4.86l-11,4.47c0,.65,0,1.31.05,2h.73l.69,0q6.76-.18,13.42-.74A9.13,9.13,0,0,1,607.82,603.8Zm0,0a14.59,14.59,0,0,1-3-4.86l-11,4.47c0,.65,0,1.31.05,2h.73l.69,0q6.76-.18,13.42-.74A9.13,9.13,0,0,1,607.82,603.8Zm0,0a14.59,14.59,0,0,1-3-4.86l-11,4.47c0,.65,0,1.31.05,2h.73l.69,0q6.76-.18,13.42-.74A9.13,9.13,0,0,1,607.82,603.8Zm0,0a14.59,14.59,0,0,1-3-4.86l-11,4.47c0,.65,0,1.31.05,2h.73l.69,0q6.76-.18,13.42-.74A9.13,9.13,0,0,1,607.82,603.8Zm32.39-11.94a21.48,21.48,0,0,0-1-3.17,25.76,25.76,0,0,0-1.14-2.42,18.22,18.22,0,0,0-1.18-1.88l-.09-.13h0a15,15,0,0,0-2.06-2.32l0,0a18.2,18.2,0,0,0-2.24-1.75,19.46,19.46,0,0,0-2.15-1.2,17.11,17.11,0,0,0-2-.83l-.41-.13-.64-.21h0l-.24-.06a30.82,30.82,0,0,0-6.59-1.12l-.27,0c-.62,0-1.24-.06-1.88-.09-2.47-.1-5.11-.12-7.91,0-1.21,0-2.32,0-3.33,0-.77,0-1.49-.07-2.15-.13h-.12a14.11,14.11,0,0,1-3.94-.87,6.92,6.92,0,0,1-2.62-1.78,9.22,9.22,0,0,1-1.67-2.75c0-.11-.09-.23-.13-.34a10.14,10.14,0,0,1-.63-2.9,6.38,6.38,0,0,1,.09-1.64,6.94,6.94,0,0,1,.39-1.4A7.49,7.49,0,0,1,598.1,562a9.17,9.17,0,0,1,1.63-1.2,13.72,13.72,0,0,1,1.8-.89,10.21,10.21,0,0,1,3.33-.77h0a8.13,8.13,0,0,1,2.15.19,8.27,8.27,0,0,1,1.86.66q3.4,1.66,5.55,7l3.83-1.55,2.15-.88,6.59-2.67,1.12-.45c-.35-.86-.72-1.69-1.12-2.47v-.23c-.39-.73-.8-1.26-1.24-1.94l0,0c-.12-.2-.25-.39-.38-.57a21.1,21.1,0,0,0-1.71-2.2c-.18-.21-.36-.4-.56-.6h0a22,22,0,0,0-2.15-2,19.34,19.34,0,0,0-2.42-1.63c-.31-.18-.63-.34-.94-.5s-.81-.37-1.22-.54a19.75,19.75,0,0,0-3.06-1c-.57-.13-1.13-.22-1.72-.3s-.9-.11-1.36-.14l-.49,0-.3,0a25.74,25.74,0,0,0-5.13.37c-.71.12-1.43.28-2.16.47l-.18,0L601.5,547l-2.18-5.36-1.24-3-2.52,1-2.15.87-2.91,1.19,2.9,7.17.21.5.71,1.75-.92.5a31.12,31.12,0,0,0-2.71,1.68h0a26.88,26.88,0,0,0-3.33,2.77l-.62.64,0,0a20.94,20.94,0,0,0-3.74,5.43,18.67,18.67,0,0,0-1.08,3h0a17.53,17.53,0,0,0-.53,3.9,18.52,18.52,0,0,0,1.44,7.37c.19.44.38.88.58,1.3h0a20.86,20.86,0,0,0,1.65,2.88c.17.25.34.48.52.71a14.7,14.7,0,0,0,1.57,1.75l.19.18a17.15,17.15,0,0,0,2.08,1.63,18.2,18.2,0,0,0,2.15,1.24,17.45,17.45,0,0,0,2.18.89,27.43,27.43,0,0,0,5.23,1.2c.95.14,1.92.23,2.93.28l.89.05c.7,0,1.42,0,2.15.06,2.09,0,4.28,0,6.59-.1h.19c.68,0,1.34-.07,2-.08a29.81,29.81,0,0,1,3.39.12,14.91,14.91,0,0,1,1.74.24,11.67,11.67,0,0,1,2.16.62h0a7.24,7.24,0,0,1,2.74,1.86,10.09,10.09,0,0,1,1.84,3,1.75,1.75,0,0,0,.19.27v.23a8.33,8.33,0,0,1,.47,2.75,6.72,6.72,0,0,1-.12,1.26,6.91,6.91,0,0,1-.61,1.83,8.26,8.26,0,0,1-1.59,2.18q8.11-1.2,16-3l.26-.06a11,11,0,0,0,.24-1.11,19.19,19.19,0,0,0,.26-2.53A17.11,17.11,0,0,0,640.21,591.86ZM607.82,603.8a14.59,14.59,0,0,1-3-4.86l-11,4.47c0,.65,0,1.31.05,2h.73l.69,0q6.76-.18,13.42-.74A9.13,9.13,0,0,1,607.82,603.8Zm0,0a14.59,14.59,0,0,1-3-4.86l-11,4.47c0,.65,0,1.31.05,2h.73l.69,0q6.76-.18,13.42-.74A9.13,9.13,0,0,1,607.82,603.8Zm0,0a14.59,14.59,0,0,1-3-4.86l-11,4.47c0,.65,0,1.31.05,2h.73l.69,0q6.76-.18,13.42-.74A9.13,9.13,0,0,1,607.82,603.8Zm0,0a14.59,14.59,0,0,1-3-4.86l-11,4.47c0,.65,0,1.31.05,2h.73l.69,0q6.76-.18,13.42-.74A9.13,9.13,0,0,1,607.82,603.8Zm0,0a14.59,14.59,0,0,1-3-4.86l-11,4.47c0,.65,0,1.31.05,2h.73l.69,0q6.76-.18,13.42-.74A9.13,9.13,0,0,1,607.82,603.8Zm0,0a14.59,14.59,0,0,1-3-4.86l-11,4.47c0,.65,0,1.31.05,2h.73l.69,0q6.76-.18,13.42-.74A9.13,9.13,0,0,1,607.82,603.8Zm0,0a14.59,14.59,0,0,1-3-4.86l-11,4.47-2.67,1.08c.12.31.25.62.39.92h1.36l1,0h.73l.69,0q6.76-.18,13.42-.74A9.13,9.13,0,0,1,607.82,603.8Z"/></g><path class="cls-3" d="M42.43,992.19S-22,774.55,96.27,708.63s189.62,39.25,231.22,94.15,221.29,163.59,330.25,61.37c114.8-107.68,171.75-138.24,253.65-140.84s48.11,85.36,117,119.38,35.46,143.08-28.42,150.95Z"/><rect class="cls-23" y="991.87" width="1080" height="2.86" rx="1.38"/><path class="cls-18" d="M343.71,919.41s-11.63-13.57-.72-22.18c0,0,8-4.83,14.47-4.44,0,0-9.21,15.44-6.23,17s9-17.95,9-17.95,18.14-1.76,24,1c0,0-15.5,12.69-12.24,13.44s20-11.69,20-11.69,16.88,2.87,16,13.17-6.71,13.47-9.27,13.2-17.51-6-17.84-3.89,8.68,8.94,15,9.26c0,0-11.9,13.13-19.81,9.34s-8.58-9.79-13.51-12.05-9.14-2.24-7.11.06,11,4.52,13.78,9.51,5.35,8.35-2.83,7.12-21.49-7.22-22.07-14.07Z"/><path class="cls-18" d="M399.68,908.06s-45.85-1.76-56,11.35a33.12,33.12,0,0,1-9.13,12.81l-1.08,2.93s7.95-8.38,10.79-8.88C344.29,926.27,339.84,910,399.68,908.06Z"/><path class="cls-18" d="M334.58,932.22s-9.85,7.28-10.53,20.29l1.79.15s3.14-13.44,8.82-18.7S334.58,932.22,334.58,932.22Z"/><path class="cls-17" d="M303.05,902.35s18.5-10.36,9.86-24.42c0,0-6.9-8.63-14.3-10.85,0,0,3.94,21,0,21.46s-2.72-23.68-2.72-23.68-19.48-9.37-27.13-8.63c0,0,12.09,20.47,8.14,20S259.39,855,259.39,855s-20-3.7-23.18,8.14,2,17.76,4.93,18.5,21.95.49,21.46,3-13.32,6.41-20.47,4.19c0,0,7.89,19.49,18.25,18.5s13.56-7.4,20-7.89,11.1,1.23,7.89,3-14.06.56-19.24,5-9.37,7.11.25,9.09,26.88.74,30.33-6.66Z"/><path class="cls-18" d="M245.33,866.83s51.8,16.77,57.72,35.52a39.3,39.3,0,0,0,4.93,18v3.7s-5.43-12.58-8.39-14.3C299.59,909.75,311.19,893.47,245.33,866.83Z"/><path class="cls-18" d="M308,920.35s8,12.13,3.43,26.9l-2.05-.56s2-16.26-2.19-24.44S308,920.35,308,920.35Z"/><path class="cls-17" d="M332.48,888.06s-24.39-13.65-13-32.19c0,0,9.11-11.37,18.86-14.3,0,0-5.2,27.64,0,28.28s3.57-31.21,3.57-31.21,25.69-12.35,35.77-11.38c0,0-15.93,27-10.73,26.34s23.08-28,23.08-28,26.34-4.88,30.56,10.73-2.6,23.41-6.5,24.38-28.93.65-28.28,3.9,17.55,8.46,27,5.53c0,0-10.4,25.68-24.06,24.38s-17.88-9.75-26.33-10.4-14.63,1.63-10.41,3.9,18.54.75,25.36,6.55,12.36,9.38-.32,12-35.44,1-40-8.77Z"/><path class="cls-18" d="M408.55,841.24s-68.27,22.11-76.07,46.82c0,0,.32,11.06-6.51,23.74v4.87s7.16-16.58,11.06-18.85C337,897.82,321.75,876.36,408.55,841.24Z"/><path class="cls-18" d="M326,911.8s-10.53,16-4.52,35.45l2.71-.73s-2.63-21.44,2.88-32.22S326,911.8,326,911.8Z"/><path class="cls-24" d="M331.65,989.45a47.76,47.76,0,0,0,47.77-47.76H283.89A47.76,47.76,0,0,0,331.65,989.45Z"/><path class="cls-25" d="M343.41,989.09a48.46,48.46,0,0,1-5.94.36,47.76,47.76,0,0,1-47.76-47.76h11.87A47.77,47.77,0,0,0,343.41,989.09Z"/><path class="cls-24" d="M380.08,991.88H283.23a5.89,5.89,0,0,1,5.89-5.89h85.07a5.89,5.89,0,0,1,5.89,5.89Z"/><rect class="cls-26" x="282.32" y="941.69" width="98.19" height="1.47"/><path class="cls-27" d="M825.18,961.78s-1.83,29.6-7.56,30c-.76.06-29,.06-29,.06l-36.11-.21s.24-8.7,10.79-10.54,28.22-9.26,34.61-23.21C804.6,943.24,825.18,961.78,825.18,961.78Z"/><path class="cls-6" d="M844.45,611.72s-17,9.7-21.81,9.69-23.5-3.62-28.73-.95-14.67,13.4-16.44,16.91c-3.19,6.3,12.84,3.52,20.41-1.85a4.76,4.76,0,0,1,3.78-.78c3.93.85,12.08,2.33,16,.88,5.29-2,33.17-4.14,33.17-4.14Z"/><path class="cls-7" d="M974.14,479.72S956.47,605.3,927.21,616.55C912.77,622.1,849,634.68,830.09,636c0,0-4.62-3.76-3.49-19,0,0,66.84-24.54,76.34-37.89,14.13-19.86-8.77-81.15,9-99.8S959.51,452.56,974.14,479.72Z"/><path class="cls-9" d="M968.18,744.3A219.41,219.41,0,0,1,950.92,769c-19,24-39.66,43.74-43.26,62.42a85.61,85.61,0,0,1-3.34,12c-1.51,4.28-3.37,8.78-5.51,13.44-8.06,17.5-20.11,37.12-32.14,54.95-20.81,30.82-37.83,51.5-37.83,51.5s-5.45,4.25-21.06,4.25c-4.34,0-18.95-2.38-18.95-2.38,1.43-3.6,18.69-44.52,39.61-96.52l26.26-65.23,3.47-8.63,7.85-19.5c19.65-48.84,35.31-87.73,35.31-87.73s78.54-29.75,86.7-10.47C994.75,693,989.28,708.53,968.18,744.3Z"/><path class="cls-27" d="M908.24,877.22s25,16,22.53,21.24c-.32.7-14.11,25.39-14.11,25.39l-17.78,31.42s-7.48-4.44-3.94-14.56,5.67-29.15-3.39-41.53C882,886.16,908.24,877.22,908.24,877.22Z"/><path class="cls-8" d="M894.07,908s17.56-16.31,20.31-26.4c0,0-64.25-77-78.19-94.24-.64-.79-.47-1.66.37-2.61,10.52-11.86,127.43-36,142.71-59.75a74,74,0,0,0,9.87-22.76c3.46-14.51.72-24.53.72-24.53l-116.75-3.38s-97.21,60.53-108.22,101.8S894.07,908,894.07,908Z"/><path class="cls-28" d="M836.56,784.71c10.52-11.86,127.43-36,142.71-59.75a74,74,0,0,0,9.87-22.76V687.42l-49.62-7.81s-14.08,43.3-55.75,59.54C844.73,754.36,837.34,781.35,836.56,784.71Z"/><path class="cls-13" d="M905.06,471.8c23.62,6.11,62.77-15.78,62.77-15.78s-15.2-10.21-20.84-32.66c-.28-1.13-.54-2.29-.77-3.48l-12.13-2.57-18,16.16a154.91,154.91,0,0,0,2.67,18.25q.59,3,1.36,6.47A55.58,55.58,0,0,0,905.06,471.8Z"/><path class="cls-10" d="M992.84,569.7c-3.38,45.51,1.07,114.71-2.77,126.69-3.31,10.35-41.05,4.2-56.12.75-5.57-1.28-12.33-3.11-19.3-5.27-19.46-6-40.66-14.62-42.93-21a5.4,5.4,0,0,1-.21-.73,5.91,5.91,0,0,1,0-2.68c.76-3.25,3.68-6.78,4-14.84.39-9,.33-19.59.67-31,0-1.28,0-2.68.17-4v-.46c0-.25,0-.49,0-.73.32-12.71,1-26.07,1.76-39.32.49-8.33,1-16.57,1.71-24.46,1.7-20.39,4-38.51,7-50,4.94-18.68,15.85-30.87,25.78-39.79l7.18-6.16c8,1.75,17.48.59,26-3.47,9.27-4.41,12.47-7.56,14.09-6.37C981.43,463.45,996.84,514.08,992.84,569.7Z"/><path class="cls-7" d="M914.65,691.87c-19.46-6-40.66-14.62-42.93-21a5.4,5.4,0,0,1-.21-.73c0-.9,0-1.79,0-2.68.76-3.25,3.68-6.78,4-14.84.39-9,.33-19.59.67-31,0-1.28,0-2.68.17-4v-.46c0-.25,0-.49,0-.73l78.65-100.21S1008,626.36,914.65,691.87Z"/><path class="cls-6" d="M916.05,433.47a154.91,154.91,0,0,0,2.67,18.25c17.62-5.7,25.61-21.61,28.27-28.36-.28-1.13-.54-2.29-.77-3.48l-12.13-2.57Z"/><path class="cls-13" d="M913.68,443.64s38.42-6.41,34.06-30.27-2.34-40.77-27.06-37.68-27.8,13.06-28.28,21.38S903.57,444.69,913.68,443.64Z"/><polygon class="cls-29" points="856.8 640.98 760.9 643.03 733.63 559.11 730.24 560.21 759.07 648.92 856.93 646.84 856.8 640.98"/><path class="cls-13" d="M855,651.51s-31.44,8.29-43.24,7.42-21.59-6.48-23.08-9.41-4.6-8.12,3.43-7.16,19,2.67,19.33,1.12-6.55-1.39-6.55-1.39-2.08-3,.54-3.14,10.26-2.18,13.1-.76,5.46,6.66,7.54,6.44,26.31-10.92,26.31-10.92Z"/><path class="cls-10" d="M966.34,484.87S962.62,611.64,934.78,626C921,633.15,859,652.69,840.4,656c0,0-5-3.22-5.57-18.52,0,0,63.73-31.76,71.7-46.07,11.85-21.3-17.67-79.69-2.1-100.18S948.8,459.5,966.34,484.87Z"/><path class="cls-30" d="M947,423.36s.44-8.19-4.61-12.88c0,0,1.76-8.21-1.49-9.56s-3.92,5.55-5.41,4.46-8.12-6.22-11-13.8-28.85,1.6-31.88,3-12.77-3.64-14.67-7.7c0,0,5.42-4.33,7.85-7.58s19.49-25.17,43.3-18.94,27.06,17.59,25.71,27.33S956.75,420.09,947,423.36Z"/><path class="cls-31" d="M1063.2,988.46c-15-15.33-41.43-25.88-72-27.12V910.66h47.17c1.17,0,2.21-1,2.87-2.59a10.39,10.39,0,0,0,.74-4v-2.28c0-3.6-1.63-6.55-3.61-6.55H991.24V774.58a6.08,6.08,0,0,0-6.07-6.06h0a6.08,6.08,0,0,0-6.06,6.06v120.7H931.94c-2,0-3.61,3-3.61,6.55v2.28a10.11,10.11,0,0,0,.79,4.07c.66,1.51,1.68,2.48,2.82,2.48h47.17v50.68c-30.53,1.24-57,11.79-72,27.12-1.09,1.11-2.12,2.24-3.08,3.41h162.21C1065.32,990.7,1064.29,989.57,1063.2,988.46Z"/><path class="cls-32" d="M991.24,961.56c-21.31,2-39.62,12.26-50.22,26.9-.8,1.11-1.56,2.24-2.28,3.41h-15c.71-1.17,1.47-2.3,2.28-3.41,11.82-16.34,33.24-27.24,57.71-27.24Q987.54,961.22,991.24,961.56Z"/><rect class="cls-7" x="895.48" y="727.94" width="175.19" height="45" rx="7.28"/><g id="man"><path class="cls-13" d="M388.73,501.12c-2.67,7.17-7.29,15.5-12.14,17.57a18.69,18.69,0,0,0-7.8,5.66l-4.44-2.58L359,518.69s.13-.59.39-1.55.65-2.29,1.19-3.76a5.12,5.12,0,0,0,.63-4.72,11,11,0,0,1,.9-9.16c1.71-2.48,3.35-8.57,4.37-8.39,2.48.43-1.22,8.8-.15,10.36a1.83,1.83,0,0,0,2.38.81l0,0c7-3.06,15.4-19.56,19.14-17.33C389.33,485.76,389.87,498.06,388.73,501.12Z"/><path class="cls-33" d="M364.65,511.11l8.72,6.13a1.38,1.38,0,0,0,1.91-.34l22.33-31.78a1.36,1.36,0,0,0-.33-1.91l-8.72-6.13a1.38,1.38,0,0,0-1.91.34L364.32,509.2A1.36,1.36,0,0,0,364.65,511.11Z"/><path class="cls-34" d="M372.63,516.72l5.11,3.59a1,1,0,0,0,1.45-.25l22.72-32.32a1,1,0,0,0-.25-1.45l-5.12-3.59a1,1,0,0,0-1.45.25l-22.71,32.32A1,1,0,0,0,372.63,516.72Z"/><path class="cls-34" d="M239.55,465.5s44.37,77.39,60.47,91.63l59-44a21.52,21.52,0,0,1,12.32,11.22s-35.84,73-71.13,76.12-84.82-87.53-84.82-87.53Z"/><path class="cls-34" d="M139.15,991.86H113.51c-3.23-1.75-6.1-5.76-7-11.74C105.24,971.86,96,967.36,94,960.6s8.26-16.26,8.26-16.26l1.72-2.21,1.79-2.3,17,4s.42,4,.68,9.21c.18,3.73.28,8,.07,11.81-.5,9,2.52,18.7,10.52,20.46C140,986.61,139.69,990.12,139.15,991.86Z"/><path class="cls-34" d="M287.93,991.86H229.3c-2.82-3.44-1.78-16.13-1.35-20.28.08-.83.14-1.32.14-1.32s20-16,22.78-3.75c.08.38.18.76.29,1.13,3.47,11.47,19,16.68,28,18.13C285,986.72,287.13,989.75,287.93,991.86Z"/><path class="cls-10" d="M276.76,664.61s-3,37.93-6.61,83.52c-4.86,61.93-10.7,138-11.28,152.42-1,25-5,65.05-5,65.05s-9.5,9.51-28.52,5.51c0,0-17-57.15-21.79-117.61-.07-1-.15-2-.22-3-4.51-61.55-11.51-191.16-11.51-191.16Z"/><path class="cls-7" d="M276.76,664.61s-3,37.93-6.61,83.52L203.55,853.5c-.07-1-.15-2-.22-3-4.51-61.55-11.51-191.16-11.51-191.16Z"/><path class="cls-10" d="M262.88,669.11S208.08,806.47,172.05,871s-47.29,82.56-47.29,82.56-20.64-8.25-22.52-13.88c0,0,13.78-124.63,37.91-155,13.63-17.17,29.65-68.69,30.4-86.7s4.88-53.67,4.88-53.67Z"/><path class="cls-13" d="M249.23,468.86c-21.41,6.76-58.46-11.47-58.46-11.47s19.75-14.82,18.71-45.63L226,425.1l11.24,9.07a133.27,133.27,0,0,1-1.27,14.7c-.33,2.46-.73,5.21-1.24,8.21A51.32,51.32,0,0,1,249.23,468.86Z"/><path class="cls-6" d="M237.28,434.17a133.27,133.27,0,0,1-1.27,14.7c-12.46-2.14-26.6-22.28-26.6-22.28A39.8,39.8,0,0,1,226,425.1Z"/><path class="cls-13" d="M243.83,433.66s-35.37,5.87-38.69-16.21S195,381.26,217.46,376.57s28.11,3.08,31,10.18S253,431.56,243.83,433.66Z"/><path class="cls-33" d="M279.12,667.77a3.47,3.47,0,0,1-2.25.85c-8-.11-31.49,4.36-51.33,2.32-16.72-1.6-31.53-6.56-47.43-13.68-2.11-1-7-3.54-6.86-5.9.07-2.59.33-6.33.65-11.05,1.13-16.41,3.09-44.64,1.18-77.2-.35-6.06-.53-12.08-.55-18-.16-44.13,8.59-82.95,26.17-96.08,1.5-1.08,10.73,3.43,19.2,7.6a35.05,35.05,0,0,0,23,2.8l7.4,6.53c9,8.37,18.87,19.73,23.16,37,3.65,14.68,5.79,41.17,7,68.62.53,12.44,1,25,1.07,36.89v.43c.11,1.18.11,2.47.11,3.65C280.09,643.1,279.66,667.33,279.12,667.77Z"/><path class="cls-34" d="M171.9,640.31c1.13-16.41,3.09-44.64,1.18-77.2-.35-6.06-.53-12.08-.55-18,7.33-17.77,13.31-30.65,13.31-30.65h18.47S217.84,606.91,171.9,640.31Z"/><path class="cls-34" d="M166.24,684.92,87.5,673.7a18.88,18.88,0,0,0-21.29,16L61.35,723.8a18.88,18.88,0,0,0,16,21.29l78.74,11.22a18.88,18.88,0,0,0,21.29-16l4.86-34.12A18.88,18.88,0,0,0,166.24,684.92Z"/><path class="cls-33" d="M170.69,695.1h0a18.94,18.94,0,0,0-13-11.39h0c-.6-.14-1.2-.26-1.82-.35l-15.68-2.23,1.05-7.37a6.23,6.23,0,0,0-5.29-7l-4.09-.59-16.47-2.35-3-.42a6.25,6.25,0,0,0-7,5.29l-1,7.37L77.2,672.14a19,19,0,0,0-21.37,16L50.92,722.7a18.93,18.93,0,0,0,16,21.36l78.6,11.21a18.25,18.25,0,0,0,4.1.13h0a18.45,18.45,0,0,0,6.13-1.55,18.91,18.91,0,0,0,11.12-14.62l4.93-34.52A18.81,18.81,0,0,0,170.69,695.1Zm-61.51-25.91a2.35,2.35,0,0,1,2.64-2l3.49.5,13,1.85,7.06,1a2.34,2.34,0,0,1,2,2.63l-1.05,7.37-28.13-4Z"/><path class="cls-13" d="M132.83,652.49c0-.42,0-.86.08-1.3.16-2.2,4.3-7.71,4.3-7.71l-10.37-5.38-4.11,6.79c-6.2,4.93-6.31,5-5.18,14.46,1,8.19-4.38,8.29-4.25,14.14s7.66,3,7.66,3c11.68-5.48,12.65-8.24,12.29-13.8,1.1,1.57,2.34,2.49,3.4,1.8s-.93-3-1.73-8.54A10,10,0,0,0,132.83,652.49Z"/><path class="cls-33" d="M126.69,647.7a60.58,60.58,0,0,0,13.86.78s19.73-61,22.27-66.55,58.63-71.5,58.63-71.5L198.09,452S137.42,553.3,131.26,567.53c-10.18,23.53-13.71,76.29-13.71,76.29A25.32,25.32,0,0,0,126.69,647.7Z"/><path class="cls-30" d="M205.11,415.33s3.63-.61,3-5.61-.58-11.53,3.49-10.31,4.26,4.47,5.93,2.57,1.7-9.91,13.8-10.47,17,3.65,22.63,1.18,5.92-11,5.92-11-1.6,3-4,4c0,0,9.39-12.83-1.48-21.63s-21.94-3-28.22-2.66c-13.85.84-22.8,1.67-27.33,10.77S196.23,406.57,205.11,415.33Z"/></g></g></svg>