<svg xmlns="http://www.w3.org/2000/svg" xmlns:xlink="http://www.w3.org/1999/xlink" viewBox="0 0 1080 1080"><defs><style>.cls-1{fill:none;}.cls-2{opacity:0.29;}.cls-3{clip-path:url(#clip-path);}.cls-4{fill:#e1e2e1;}.cls-5{fill:#f6f6f6;}.cls-6{fill:#f5f6f6;}.cls-7{fill:#97a5d4;}.cls-8{fill:#bac5e5;}.cls-9{fill:#fff;}.cls-10{fill:#e4e9f6;}.cls-11{fill:#6488c5;}.cls-12{fill:#3c3f96;}.cls-13{fill:#9dafda;}.cls-14{fill:#f9af19;}.cls-15{fill:#272b66;}.cls-16{fill:#303680;}.cls-17{fill:#45489e;}.cls-18{fill:#f37b51;}.cls-19{fill:#de623c;}.cls-20{fill:#201d3f;}.cls-21{fill:#010101;}.cls-22{fill:#082540;}.cls-23{fill:#2d2958;}.cls-24{fill:#dbe4ea;}.cls-25{fill:#d6d7d8;}.cls-26{fill:#82bc46;}.cls-27{fill:#1d9647;}.cls-28{fill:#161616;}.cls-29{fill:#302740;}.cls-30{fill:#353635;}.cls-31{fill:#322b40;}.cls-32{fill:#452325;}.cls-33{fill:#0e100e;}.cls-34{fill:#151a15;}.cls-35{fill:#b5b3c0;}.cls-36{fill:#f5a794;}.cls-37{fill:#c4c4c4;}.cls-38{fill:#d86650;}.cls-39{fill:#623c3e;}.cls-40{fill:#9593a0;}.cls-41{fill:#cac9d3;}.cls-42{fill:#d8e6ef;}</style><clipPath id="clip-path"><rect class="cls-1" x="1.85" width="1080" height="1080"/></clipPath></defs><title>overview section</title><g id="Layer_1" data-name="Layer 1"><g id="background_with_map" data-name="background with map" class="cls-2"><g class="cls-3"><rect class="cls-4" x="-50.41" y="-128.72" width="1206.78" height="1344"/><rect class="cls-5" x="531.97" y="-31.68" width="21.01" height="582.21"/><rect class="cls-5" x="752.75" y="888.96" width="16.62" height="513.49"/><rect class="cls-5" x="547.96" y="466.6" width="483.49" height="21.01"/><rect class="cls-5" x="-50.41" y="199.74" width="1206.78" height="21.01"/><rect class="cls-5" x="56.46" y="-128.64" width="30.95" height="467.21"/><rect class="cls-5" x="-74.91" y="-15.6" width="367.68" height="19.13"/><rect class="cls-5" x="449.25" y="975.65" width="311.82" height="19.13"/><path class="cls-5" d="M151.37,314.29l-201.78-.1v27l201.78.25c51.26,0,76.53,28.79,76.48,65.46v325.7h32.7V407.93C260.66,356.35,223.59,314.34,151.37,314.29Z"/><path class="cls-5" d="M329.79,840.1l898,.09V810.81l-898-.24c-51.26,0-69.33-16.79-69.28-53.46V732.58h-32.7v23.47C227.7,807.63,257.57,840,329.79,840.1Z"/><path class="cls-5" d="M419.57,304.29a36,36,0,0,0-36,36v35.76l0,3.55v78.11a19.41,19.41,0,0,1-19.39,19.39H243.24v16.62h121a36,36,0,0,0,36-36V340.3a19.41,19.41,0,0,1,19.39-19.39H671.34V304.29Z"/><rect class="cls-5" x="105.07" y="235.76" width="84.21" height="51.94"/><rect class="cls-5" x="650.23" y="860.59" width="84.21" height="37.01"/><rect class="cls-5" x="114.22" y="27.22" width="84.21" height="51.94"/><rect class="cls-5" x="322.22" y="857.62" width="55.23" height="51.94"/><rect class="cls-5" x="147.02" y="778.42" width="55.23" height="33.58"/><rect class="cls-5" x="225.64" y="27.22" width="48.27" height="51.94"/><rect class="cls-5" x="207.62" y="235.76" width="85.15" height="24.79"/><rect class="cls-5" x="817.22" y="758.4" width="85.15" height="24.79"/><rect class="cls-5" x="26.82" y="916" width="85.15" height="24.79"/><rect class="cls-5" x="314.64" y="235.76" width="41.48" height="68.53"/><rect class="cls-5" x="42.24" y="994.16" width="41.48" height="68.53"/><path class="cls-5" d="M715.65,284.84a19.41,19.41,0,0,1-19.39,19.39h-121v16.62h121a36.05,36.05,0,0,0,36-36V210.25H715.65Z"/><path class="cls-5" d="M1038.19,360.63a36,36,0,0,0-36-36H966.43l-3.55,0H884.76a19.42,19.42,0,0,1-19.39-19.39V205.9H848.76v99.35a36,36,0,0,0,36,36h117.42a19.41,19.41,0,0,1,19.39,19.39V550.54h16.62Z"/><path class="cls-5" d="M1038.19,712.63a36,36,0,0,1-36,36H788.76A19.41,19.41,0,0,0,769.37,768V889H752.76V768a36,36,0,0,1,36-36h213.42a19.41,19.41,0,0,0,19.39-19.39V544.32h16.62Z"/><rect class="cls-5" x="899.93" y="239.96" width="81.35" height="46.59"/><rect class="cls-5" x="800.18" y="155.64" width="52.2" height="28.96"/><rect class="cls-5" x="788.61" y="933.62" width="44.85" height="52.2"/><rect class="cls-5" x="881.98" y="859.5" width="28.96" height="47.7"/><rect class="cls-5" x="158.58" y="978.04" width="52.2" height="28.96"/><rect class="cls-5" x="241.85" y="1023.52" width="23.1" height="28.96"/><rect class="cls-5" x="326.7" y="999" width="40.55" height="34.68"/><rect class="cls-5" x="515.76" y="764.71" width="52.2" height="28.96"/><rect class="cls-5" x="390.96" y="764.71" width="84.38" height="28.96"/><rect class="cls-5" x="898.23" y="155.64" width="92.79" height="28.96"/><rect class="cls-5" x="1045.11" y="155.64" width="52.2" height="28.96"/><rect class="cls-5" x="1067.38" y="451.15" width="63.36" height="72.93"/><rect class="cls-5" x="622.11" y="683.95" width="63.36" height="72.93"/><rect class="cls-5" x="448.25" y="644.32" width="83.72" height="43.67"/><rect class="cls-5" x="1067.38" y="239.96" width="63.36" height="163.39"/><rect class="cls-5" x="282.96" y="557.02" width="37.18" height="163.39"/><rect class="cls-5" x="663.6" y="1018.79" width="63.36" height="163.39"/><rect class="cls-5" x="1036.45" y="421.09" width="119.93" height="16.62"/><path class="cls-6" d="M541.87,170.12c-28.9,0-52.25,18.58-52.25,41.49s23.35,41.47,52.25,41.47,52.22-18.53,52.22-41.47S570.68,170.12,541.87,170.12Zm0,70.51c-20.23,0-36.58-13-36.58-29s16.35-29.05,36.58-29.05,36.55,13,36.55,29.05S562,240.63,541.87,240.63Z"/><path class="cls-4" d="M541.87,182.56c-20.23,0-36.58,13-36.58,29.05s16.35,29,36.58,29,36.55-13,36.55-29S562,182.56,541.87,182.56Zm0,44.72c-10.92,0-19.75-7-19.75-15.68s8.83-15.68,19.75-15.68,19.74,7,19.74,15.68S552.75,227.28,541.86,227.28Z"/><path class="cls-6" d="M562.53,211.6c0,9.13-9.25,16.54-20.67,16.54s-20.67-7.41-20.67-16.54,9.26-16.55,20.67-16.55S562.53,202.46,562.53,211.6Z"/><path class="cls-5" d="M707.35,208.69H695.28c0-1.94.28-47.64,24.16-68.8,20-17.75,27.8-42.75,28.41-60.23,1.51-43.3,4.73-103.43,4.76-104l12,.65c0,.6-3.24,60.61-4.75,103.8-.34,9.7-3.69,43.32-32.47,68.84C707.58,166.52,707.35,208.27,707.35,208.69Z"/><path class="cls-5" d="M760.39,55.74l-11-4.84c1.22-3,14.68-29.11,110.1-35.21,17.44-1.11,35.27-2,52.52-2.86,71.38-3.56,145.19-7.24,160.48-27.09,18.26-23.71,15-37.72,15-37.86l11.6-3.31c.59,2,5,19.87-17,48.53-18.69,24.26-88.55,27.75-169.44,31.78-17.2.86-35,1.74-52.35,2.85C773.09,33.3,760.51,55.52,760.39,55.74Z"/><path class="cls-5" d="M345.88,206.77c-.59-4.05-14.13-99.58,11.08-135.72a199.52,199.52,0,0,1,19.57-23.94c9.88-10.63,14-15,17.16-41.7,1.88-15.73,0-72,0-72.62l12.06-.41c.08,2.35,2,57.83,0,74.46-3.51,29.34-8.76,36.07-20.3,48.48A189.23,189.23,0,0,0,366.86,78c-22.5,32.23-9.17,126.13-9,127.07Z"/><rect class="cls-5" x="789.7" y="362.38" width="8.18" height="114.73"/><rect class="cls-5" x="715.9" y="390.39" width="180.73" height="10.19"/><rect class="cls-5" x="596.24" y="637.05" width="10.19" height="180.73"/><rect class="cls-5" x="100.24" y="961.05" width="10.19" height="180.73"/><rect class="cls-5" x="426.51" y="699.15" width="177.75" height="10.19"/><polygon class="cls-5" points="226.33 954.75 232.78 964.94 -13.35 964.94 -13.35 954.75 226.33 954.75"/><rect class="cls-5" x="284.25" y="1045.35" width="93.4" height="10.19"/><rect class="cls-5" x="761.85" y="1005.15" width="180.14" height="10.19"/><path class="cls-5" d="M833.17,474.32V614.88c0,17.55-14.22,22.17-31.77,22.17H596.24v10.19H802c22.85,0,41.36-8.92,41.36-31.76V474.32Z"/><rect class="cls-5" x="632.41" y="335.22" width="50.4" height="36.46"/><rect class="cls-5" x="764.5" y="235.35" width="50.4" height="36.46"/><rect class="cls-5" x="582.02" y="414.13" width="100.79" height="36.45"/><rect class="cls-5" x="416.09" y="344.15" width="100.79" height="36.45"/><rect class="cls-5" x="290.27" y="430.68" width="59.75" height="36.46"/><rect class="cls-5" x="947.96" y="539.93" width="56.38" height="79.83"/><rect class="cls-5" x="743.56" y="597.36" width="51.62" height="27.72"/><rect class="cls-5" x="644.96" y="597.36" width="70.93" height="27.72"/><rect class="cls-5" x="682.81" y="500.49" width="130" height="43.83"/><path class="cls-5" d="M-194.22,941.81l-3.34-11.52c1.29-.37,129.46-37.72,164.77-55.84C-16.39,866,.36,843.65,16.57,822c18.2-24.31,37-49.45,58-59.13,38.71-17.89,165.71-18.12,171.84-18.12h0v12h0c-1.44,0-130.43.18-166.86,17-18.18,8.4-36.08,32.31-53.38,55.42C8.37,853-8.45,875.45-27.31,885.13-63.64,903.77-188.9,940.27-194.22,941.81Z"/><path class="cls-5" d="M1162.37,1279.66h-12c0-48.42-91.37-153.3-148.76-182.6-73.2-37.38-74-124.68-74-128.38V831.51h12V968.68c0,.83.93,83.7,67.49,117.69C1062.74,1114.79,1162.37,1223.12,1162.37,1279.66Z"/><path class="cls-5" d="M401.16,1144.79c-98.71,0-123.24-40.86-123.24-135,0-14.28-4.26-25.35-12.67-32.9C248.92,962.23,221.91,965,221.64,965l-1-10c1.28-.14,31.46-2.82,51,14.7,10.55,9.45,15.9,22.94,15.9,40.09,0,87.36,22.43,125.41,114.22,125.41Z"/></g></g></g><g id="Layer_2" data-name="Layer 2"><rect class="cls-7" y="1022.7" width="1077.94" height="14.5" rx="4.13" transform="translate(1077.94 2059.9) rotate(180)"/><rect class="cls-8" x="579.66" y="369.79" width="187.38" height="103.83" rx="36.93"/><path class="cls-8" d="M740.51,469v38.65a3,3,0,0,1-5.58,1.34l-20.32-40Z"/><path class="cls-9" d="M742.61,402.24H605.85a9.52,9.52,0,0,1-9.52-9.52h0a9.53,9.53,0,0,1,9.52-9.53H742.61a9.53,9.53,0,0,1,9.52,9.53h0A9.52,9.52,0,0,1,742.61,402.24Z"/><path class="cls-9" d="M742.61,432.45H605.85a9.52,9.52,0,0,1-9.52-9.52h0a9.53,9.53,0,0,1,9.52-9.53H742.61a9.53,9.53,0,0,1,9.52,9.53h0A9.52,9.52,0,0,1,742.61,432.45Z"/><path class="cls-9" d="M654.9,443.61h90.46a6.78,6.78,0,0,1,6.78,6.78v5.5a6.78,6.78,0,0,1-6.78,6.78H654.9a6.77,6.77,0,0,1-6.77-6.77v-5.5A6.78,6.78,0,0,1,654.9,443.61Z"/><path class="cls-10" d="M485.14,425.85a46.23,46.23,0,0,0-69.2-38h0a23.26,23.26,0,0,0-45.86-3.66h0a39.15,39.15,0,0,0-45.64,23.93,29.17,29.17,0,0,0-33.28,8.64,5.58,5.58,0,0,0,4.36,9.08Z"/><path class="cls-10" d="M78.65,545.7c0,.34,0,.67,0,1h150.5c0-.33,0-.66,0-1a26.64,26.64,0,0,0-34.58-25.41A41.88,41.88,0,0,0,117.37,522,26.63,26.63,0,0,0,78.65,545.7Z"/><path class="cls-10" d="M935.23,512.84c0,.33,0,.66,0,1h150.5c0-.34,0-.67,0-1a26.64,26.64,0,0,0-34.58-25.41A41.88,41.88,0,0,0,974,489.12a26.63,26.63,0,0,0-38.72,23.72Z"/><path class="cls-8" d="M514.36,690c0,2,0,4.09.06,6.18,0,0,.73,24.76,3.05,28.61s354,1.66,355.07,1.26c5.32-2,7.88-32.4,7.88-32.4s1.14-86.08,1.14-98.47c0-17.33-5.43-25.52-20.59-25.52H622.23c-14.26,0-22.9,1.28-27.89,6-16.09,15.15-66.4,75.24-78.38,89a6.42,6.42,0,0,0-1.58,4.18c0,.45,0,1,0,1.53C514.33,674.64,514.3,681.89,514.36,690Z"/><path class="cls-11" d="M514.34,693.19s-.3,28.66,1.62,31.38a13.71,13.71,0,0,0,9.16,4c3.81.52,33.71.28,33.71.28s308.59-2.3,313.71-2.79,7.14-3.8,7.31-8.54c0-1,.48-16.81.57-25.81Z"/><circle class="cls-12" cx="580.38" cy="712.37" r="34.01" transform="translate(-275.65 378.42) rotate(-29.52)"/><circle class="cls-8" cx="580.38" cy="712.37" r="24.8"/><circle class="cls-13" cx="580.38" cy="712.37" r="13.37"/><circle class="cls-12" cx="832.08" cy="712.37" r="34.01" transform="translate(-4.37 1419.59) rotate(-80.78)"/><circle class="cls-8" cx="832.08" cy="712.37" r="24.8"/><circle class="cls-13" cx="832.08" cy="712.37" r="13.37"/><path class="cls-11" d="M573.21,641.09h68.21a3.81,3.81,0,0,0,3.81-3.82V592a6.27,6.27,0,0,0-6.27-6.28H615.44a19.86,19.86,0,0,0-16,8.07l-29.77,40.37A4.38,4.38,0,0,0,573.21,641.09Z"/><ellipse class="cls-13" cx="575.54" cy="634.39" rx="12.43" ry="9.82"/><path class="cls-14" d="M514.36,690h3.57a9.8,9.8,0,1,0,0-19.6h-3.57C514.33,674.64,514.3,681.89,514.36,690Z"/><path class="cls-15" d="M708.6,579.13H742.5A38.85,38.85,0,0,1,781.34,618v42.44a38.84,38.84,0,0,1-38.84,38.84H708.6a38.85,38.85,0,0,1-38.85-38.85V618a38.85,38.85,0,0,1,38.85-38.85Z"/><rect class="cls-16" x="696.26" y="602.09" width="48.22" height="96.91" transform="translate(1440.73 1301.08) rotate(180)"/><rect class="cls-12" x="715.32" y="624.57" width="47.94" height="74.42" transform="translate(1478.58 1323.57) rotate(180)"/><rect class="cls-17" x="674.89" y="645.63" width="50.28" height="53.36" transform="translate(1400.05 1344.63) rotate(180)"/><path class="cls-13" d="M793.68,578.86h33.89a38.85,38.85,0,0,1,38.85,38.85v42.44A38.84,38.84,0,0,1,827.57,699H793.68a38.85,38.85,0,0,1-38.85-38.85V617.71A38.85,38.85,0,0,1,793.68,578.86Z"/><rect class="cls-8" x="754.83" y="659.31" width="111.58" height="11.08" transform="translate(1621.24 1329.7) rotate(180)"/><rect class="cls-11" x="766.45" y="585.67" width="90.84" height="55.42" rx="27.71" transform="translate(1623.74 1226.76) rotate(-180)"/><path class="cls-8" d="M563.21,748.32c0,2,0,4.09.06,6.18,0,0,.73,24.76,3.05,28.61s354,1.66,355.07,1.26c5.32-2,7.88-32.4,7.88-32.4s1.14-86.08,1.14-98.47c0-17.33-5.43-25.52-20.59-25.52H671.08c-14.26,0-22.9,1.28-27.89,6-16.09,15.15-66.4,75.24-78.38,89a6.42,6.42,0,0,0-1.58,4.18c0,.45,0,1,0,1.53C563.18,733,563.15,740.22,563.21,748.32Z"/><path class="cls-11" d="M563.19,751.52s-.3,28.66,1.62,31.38a13.71,13.71,0,0,0,9.16,4c3.81.52,33.71.28,33.71.28s308.59-2.31,313.71-2.79,7.14-3.8,7.31-8.55c0-1,.48-16.8.57-25.8Z"/><circle class="cls-12" cx="629.23" cy="770.69" r="34.01" transform="translate(-298.05 410.06) rotate(-29.52)"/><circle class="cls-8" cx="629.23" cy="770.69" r="24.8"/><circle class="cls-13" cx="629.23" cy="770.69" r="13.37"/><circle class="cls-12" cx="880.93" cy="770.69" r="34.01" transform="translate(-20.92 1516.79) rotate(-80.78)"/><circle class="cls-8" cx="880.93" cy="770.69" r="24.8"/><circle class="cls-13" cx="880.93" cy="770.69" r="13.37"/><path class="cls-11" d="M622.06,699.41h68.21a3.8,3.8,0,0,0,3.81-3.81V650.27a6.27,6.27,0,0,0-6.27-6.27H664.29a19.83,19.83,0,0,0-16,8.07l-29.77,40.36A4.38,4.38,0,0,0,622.06,699.41Z"/><ellipse class="cls-13" cx="624.39" cy="692.72" rx="12.43" ry="9.82"/><path class="cls-14" d="M563.21,748.32h3.57a9.8,9.8,0,1,0,0-19.6h-3.57C563.18,733,563.15,740.22,563.21,748.32Z"/><path class="cls-15" d="M757.45,637.46h33.89a38.85,38.85,0,0,1,38.85,38.85v42.44a38.84,38.84,0,0,1-38.84,38.84H757.45a38.85,38.85,0,0,1-38.85-38.85V676.3A38.85,38.85,0,0,1,757.45,637.46Z"/><rect class="cls-16" x="745.11" y="660.41" width="48.22" height="96.91" transform="translate(1538.43 1417.74) rotate(180)"/><rect class="cls-12" x="764.17" y="682.9" width="47.94" height="74.42" transform="translate(1576.28 1440.22) rotate(180)"/><rect class="cls-17" x="723.74" y="703.96" width="50.28" height="53.36" transform="translate(1497.75 1461.29) rotate(180)"/><path class="cls-13" d="M842.53,637.19h33.89A38.85,38.85,0,0,1,915.27,676v42.44a38.84,38.84,0,0,1-38.84,38.84H842.53a38.85,38.85,0,0,1-38.85-38.85V676A38.85,38.85,0,0,1,842.53,637.19Z"/><rect class="cls-8" x="803.68" y="717.64" width="111.58" height="11.08" transform="translate(1718.95 1446.36) rotate(180)"/><rect class="cls-11" x="815.3" y="644" width="90.84" height="55.42" rx="27.71" transform="translate(1721.44 1343.41) rotate(-180)"/><path class="cls-8" d="M627.07,810.14c0,2,0,4.1.06,6.19,0,0,.73,24.75,3,28.6s354,1.67,355.07,1.26c5.32-2,7.88-32.39,7.88-32.39s1.14-86.09,1.14-98.48c0-17.32-5.43-25.52-20.59-25.52H734.94c-14.26,0-22.9,1.29-27.89,6-16.09,15.14-66.4,75.24-78.38,89a6.46,6.46,0,0,0-1.58,4.18c0,.46,0,1,0,1.53C627,794.79,627,802.05,627.07,810.14Z"/><path class="cls-11" d="M627.05,813.34s-.3,28.67,1.62,31.39a13.65,13.65,0,0,0,9.16,4c3.81.53,33.71.28,33.71.28s308.59-2.3,313.71-2.79,7.14-3.8,7.31-8.54c0-1,.48-16.81.57-25.8Z"/><circle class="cls-12" cx="693.09" cy="832.52" r="34.01" transform="translate(-320.22 449.54) rotate(-29.52)"/><circle class="cls-8" cx="693.09" cy="832.52" r="24.8"/><circle class="cls-13" cx="693.09" cy="832.52" r="13.37"/><circle class="cls-12" cx="944.79" cy="832.52" r="34.01" transform="translate(-28.32 1631.75) rotate(-80.78)"/><circle class="cls-8" cx="944.79" cy="832.52" r="24.8"/><circle class="cls-13" cx="944.79" cy="832.52" r="13.37"/><path class="cls-11" d="M685.92,761.24h68.21a3.81,3.81,0,0,0,3.81-3.82V712.1a6.27,6.27,0,0,0-6.27-6.28H728.15a19.86,19.86,0,0,0-16,8.07L682.4,754.26A4.38,4.38,0,0,0,685.92,761.24Z"/><ellipse class="cls-13" cx="688.25" cy="754.54" rx="12.43" ry="9.82"/><path class="cls-14" d="M627.07,810.14h3.57a9.8,9.8,0,1,0,0-19.6h-3.57C627,794.79,627,802.05,627.07,810.14Z"/><path class="cls-15" d="M821.31,699.28h33.89a38.85,38.85,0,0,1,38.85,38.85v42.44a38.84,38.84,0,0,1-38.84,38.84H821.31a38.85,38.85,0,0,1-38.85-38.85V738.13a38.85,38.85,0,0,1,38.85-38.85Z"/><rect class="cls-16" x="808.97" y="722.24" width="48.22" height="96.91" transform="translate(1666.15 1541.39) rotate(180)"/><rect class="cls-12" x="828.03" y="744.73" width="47.94" height="74.42" transform="translate(1704 1563.88) rotate(180)"/><rect class="cls-17" x="787.6" y="765.79" width="50.28" height="53.36" transform="translate(1625.47 1584.94) rotate(180)"/><path class="cls-13" d="M906.39,699h33.89a38.85,38.85,0,0,1,38.85,38.85V780.3a38.84,38.84,0,0,1-38.84,38.84H906.39a38.85,38.85,0,0,1-38.85-38.85V737.86A38.85,38.85,0,0,1,906.39,699Z"/><rect class="cls-8" x="867.54" y="779.47" width="111.58" height="11.08" transform="translate(1846.67 1570.01) rotate(180)"/><rect class="cls-11" x="879.16" y="705.82" width="90.84" height="55.42" rx="27.71" transform="translate(1849.16 1467.06) rotate(-180)"/><polygon id="v-2" class="cls-18" points="914.96 569.2 914.94 569.2 901.08 569.25 897.93 602.01 914.12 610.56 931.39 602.11 928.6 569.25 914.96 569.2"/><path class="cls-18" d="M942.52,545.84c-3.16,23.75-20.84,41-39.49,38.52S871.81,560.62,875,536.87s20.84-41,39.49-38.52S945.67,522.09,942.52,545.84Z"/><path class="cls-19" d="M897,546.36c-3.43,4.47-7.75,9.91-7.75,9.91s1.25,5.18,7.87,5.89c-2.69-1.43-5.28-3.58-3.78-7.2S897,546.36,897,546.36Z"/><path class="cls-20" d="M950.21,526.75c2-22.64-18.78-30.07-18.78-30.07s4.66-1.64,3.53-8.48a18.19,18.19,0,0,1-11.15,2.58c-25.88-2.57-42.16,1.69-39.59,11.83.92,3.61-15.87,5.46-8.39,29.4,1.6-2.83,3-13.44,8.07-15.78s2.05,5.94,13.48,4.65,19-6.08,27.44-1.52c6.71,4.12,15.12,31.68,14.73,33.56C940.43,548.6,949.33,536.69,950.21,526.75Z"/><path class="cls-20" d="M874.78,549.84s2.2,12.9,5,16.35c.61-5.55,12.8-2.06,18.1-1.59,9.59.84,19.33-7.67,22.56,4.92,12.21.71,16.66-26.18,16.66-26.18,7.51,26.87-5.94,46.47-35.55,49.2C882.06,594.34,871.25,569.44,874.78,549.84Z"/><path class="cls-18" d="M937.43,543.45c-4.08,3.88-4.81,9.74-1.64,13.08s9.07,2.9,13.15-1,4.82-9.74,1.64-13.08S941.51,539.57,937.43,543.45Z"/><path class="cls-19" d="M941.12,554.94a1.31,1.31,0,0,1-.47-.32c-1.92-2.09-2.34-4.61-1.1-6.75A5.92,5.92,0,0,1,945.8,545a1.23,1.23,0,0,1-.54,2.4,3.51,3.51,0,0,0-3.58,1.69c-.68,1.19-.41,2.56.78,3.85a1.23,1.23,0,0,1-1.34,2Z"/><path class="cls-21" d="M889.65,998.17c-12.26,16.92-42.37,6.54-41.38,29.42H913.1c-.06-5.26-1-17.73-2-22.61Z"/><path class="cls-21" d="M958.17,998.17c-12.27,16.92-42.38,6.54-41.38,29.42h64.82c-.06-5.26-1-17.73-2-22.61Z"/><path class="cls-22" d="M868.45,739.44S861,847.87,864,872s13.71,55,12.5,134.75c14.93,3.74,36.56,0,36.56,0s3.2-90.16-12.58-130.43c6.42-39.12,27-128.72,27-128.72Z"/><path class="cls-23" d="M896.71,742.4s15,121.74,22.36,144.83,13.74,40,27,118.56c15.34.76,37.5.29,37.5.29s-2-97.33-25.9-120c-.81-39.66,3.86-142.91,3.86-142.91Z"/><g id="v"><path id="h-5" class="cls-24" d="M965.92,604.24s-26.08-9.13-34.77-4.94c-27,13-33.22,0-33.22,0-8.63.74-34.69,4.94-34.69,4.94,0,29.1-1.94,58.31-1.41,80.33.37,19.18-3.29,71.38-3.29,71.38s28.75,7.53,56,7.73c27.19-.18,54.87-7.43,54.87-7.43s-1.45-52.86-2.66-72.51C967.09,661.71,965.92,633.26,965.92,604.24Z"/></g><g id="c"><path id="c-2" data-name="c" class="cls-25" d="M816.89,647.49c10.76-25.67,42.7-42,46.35-43.25l7.41,33a193.15,193.15,0,0,0-26.48,18.89c1.89,9.18,1.57,18.18,6.88,29.79,0,0-4.61-6.37-10.3-2.6C835.21,687,825,679.47,825,679.47S808.67,667.11,816.89,647.49Z"/></g><g id="c-3" data-name="c"><g id="c-4" data-name="c"><path id="c-5" data-name="c" class="cls-26" d="M822.89,712.39a3.69,3.69,0,0,1-.56.11h-.61a2.92,2.92,0,0,1-2.48-2L790.55,618a3,3,0,0,1-.12-.56c0-.13,0-.25,0-.37a1.62,1.62,0,0,1,0-.22c0-.06,0-.13,0-.19a2.9,2.9,0,0,1,2-2.31,3.37,3.37,0,0,1,.55-.12,3.21,3.21,0,0,1,.62,0h72.23l28.94,98.3h-72Z"/><path id="c-6" data-name="c" class="cls-27" d="M865.2,614.32a2.91,2.91,0,0,1,3.65,1.92l28.51,92.27.07.22a2.91,2.91,0,0,1-1.91,3.63h0a2.91,2.91,0,0,1-3.65-1.92L863.28,618A2.91,2.91,0,0,1,865.2,614.32Z"/></g></g><path id="c-7" data-name="c" class="cls-18" d="M810.63,673a3.11,3.11,0,0,0-.86-.37l.09-.14c1.8-2.71,1.68-6-.26-7.23a2.89,2.89,0,0,0-1-.44c.5-2,.05-3.92-1.34-4.84a3.2,3.2,0,0,0-1.86-.52,4.35,4.35,0,0,0-1.43-5.07c-1.94-1.29-4.76-.46-6.29,1.85s-1.2,5.24.74,6.52a3.52,3.52,0,0,0,1.61.58c-1.29,2.53-1,5.29.73,6.45a3.34,3.34,0,0,0,1,.44c-.5,2,0,3.92,1.34,4.84a3.16,3.16,0,0,0,1.72.52,3.73,3.73,0,0,0,1.13,4.49c1.65,1.09,4,.39,5.32-1.57S812.28,674.09,810.63,673Z"/><path class="cls-18" d="M899.43,667.16l-6.58-3.82a12.45,12.45,0,0,0-12.4-9.56c1.21,3.92,3,9.56,3,9.56s-5.21,4-17.55-2.87c-12.07-2.71-6.91,6.08-10.91,6.72-5.9.93,4.3,12.52,16.35,14.3,15.59,2.29,17.43-.9,17.43-.9l8.83,3.09Z"/><path id="c-8" data-name="c" class="cls-25" d="M966.76,678c-22-1.54-66-13.29-66-13.29-6,9.21-4.35,21.45-4.35,21.45,34.18,30,85.61,39.65,101.39,32.44,14.41-6.59,4.18-94.31-32-114.4Z"/><path class="cls-27" d="M850.48,628.36c1.25,3.13,4.45,4.78,7.16,3.7s3.89-4.49,2.64-7.61-4.45-4.78-7.16-3.7S849.23,625.24,850.48,628.36Z"/><path class="cls-27" d="M841.26,627.3a3.18,3.18,0,1,0,1.58-4.54A3.42,3.42,0,0,0,841.26,627.3Z"/><polygon class="cls-28" points="112.82 751.66 137.28 857.3 143.79 885.44 154.19 885.44 147.38 856.01 122.65 749.18 112.82 751.66"/><path class="cls-29" d="M240.43,791.17H127.19c-9.35,0-17.51-7-19.82-17.07L92.28,708.69c-3.31-14.35,6.47-28.31,19.83-28.31H225.34c9.35,0,17.51,7,19.83,17.07l15.08,65.41C263.56,777.21,253.79,791.17,240.43,791.17Z"/><path class="cls-28" d="M111.74,1027.29h0a5.07,5.07,0,0,1-4.27-5.84l26.69-161.31,10,1.46-26.72,161.5a5.06,5.06,0,0,1-5.73,4.19Z"/><path class="cls-28" d="M213.14,1027.29h0a5.06,5.06,0,0,1-4.27-5.84l26.68-161.31,10,1.46-26.72,161.5a5.07,5.07,0,0,1-2.26,3.44A5,5,0,0,1,213.14,1027.29Z"/><path class="cls-30" d="M246.18,1027.29h0a5.06,5.06,0,0,0,4.28-5.84L223.77,860.14l-10,1.46,26.72,161.5A5.05,5.05,0,0,0,246.18,1027.29Z"/><path class="cls-30" d="M347.58,1027.29h0a5,5,0,0,0,4.27-5.84L325.17,860.14l-10,1.46,26.71,161.5A5.06,5.06,0,0,0,347.58,1027.29Z"/><path class="cls-31" d="M128.57,870.73a14.72,14.72,0,0,0,14.72,14.71H351.38a14.72,14.72,0,0,0,0-29.43H143.29a14.76,14.76,0,0,0-10.4,4.31A14.68,14.68,0,0,0,128.57,870.73Z"/><polygon class="cls-32" points="535.83 1029.61 549.51 1026.08 487.62 779.86 460.11 786.96 535.83 1029.61"/><polygon class="cls-32" points="59.63 1029.61 45.95 1026.08 107.84 779.86 135.35 786.96 59.63 1029.61"/><path class="cls-33" d="M398.18,994.31s7.48,14,17.86,16.17,24.86-2.66,23.9,16.65H380.56s-4.35-15.2,0-29.93S398.18,994.31,398.18,994.31Z"/><path class="cls-34" d="M354.62,994.31s7.48,14,17.86,16.17,24.87-2.66,23.9,16.65H337s-4.34-15.2,0-29.93S354.62,994.31,354.62,994.31Z"/><path class="cls-23" d="M274.92,802.17s90.92,2.9,102.5,34.76,28.17,161.36,28.17,161.36-12.24,15.33-31.22,7.14L331.8,878.2S173.11,884,163,818.1l84.63-15.93Z"/><path class="cls-22" d="M231.36,802.17s90.92,2.9,102.5,34.76S362,998.29,362,998.29s-12.24,15.33-31.21,7.14L288.24,878.2S173.11,884,163,818.1l41.07-15.93Z"/><path class="cls-9" d="M282.05,802.17S222.56,834.76,163,818.1c0,0-4.35-135.05,12-151.71,9-9.24,24.06-12.16,35.85-12.91a107.31,107.31,0,0,1,17.37.25,100.68,100.68,0,0,1,19.07,2.42c15.11,3.32,30.31,9.89,33.06,18.9C284.27,688.08,282.05,802.17,282.05,802.17Z"/><path class="cls-35" d="M247.33,767.87c0,8.58,46,8.58,46,0s-10.29-15.55-23-15.55S247.33,759.28,247.33,767.87Z"/><path class="cls-36" d="M303.32,707.28l26.8,22.6L394.71,725S426,705,434.12,719.86c13.46,24.58-35.27,24.87-35.27,24.87S333.62,762,316.18,758.85c-12.9-2.31-38.38-25.8-38.38-25.8Z"/><path class="cls-9" d="M278.1,671.32l33.73,39.22s-4.4,25.11-30.85,28.86L254.75,709Z"/><polygon class="cls-37" points="198.82 699.16 193.88 762.72 154.81 746.11 168.57 707.28 198.82 699.16"/><path class="cls-36" d="M182.89,725.78l-7.6,22.08,60.48,2.9s28.35-16.26,36.67-.73c7.07,13.19-17.82,22.43-34.84,18.81,0,0-77.55,14.24-93.47,2.14-9-6.88,9.07-54.62,9.07-54.62Z"/><path class="cls-9" d="M174.93,666.4s-15.93,18.82-26.8,54.31c0,0,12.31,9.41,36.21,11.22l14.48-32.77Z"/><path class="cls-36" d="M240.46,637.7v20.36a11.85,11.85,0,0,1-11.86,11.85h0a11.86,11.86,0,0,1-11.83-12.72l1.65-22.36.44-6Z"/><path class="cls-38" d="M240.46,658.06V638.51l-22-3.68s1.88,24,20.23,25.65c.55,0,1,.08,1.54.08Z"/><path class="cls-36" d="M246.26,610.59s9,41.95-9.66,41.95c-20,0-18.86-36.06-18.86-36.06l17.44-11.08Z"/><path class="cls-34" d="M233.07,617.74s17.19,4.55,20.18-6.76-3.3-19.79-11.63-20.11-.78,9.11-15.39,8.49-23.88,18.85-7.44,30.95C218.79,630.31,219.49,615.07,233.07,617.74Z"/><circle class="cls-36" cx="219.12" cy="633.26" r="4.84"/><path class="cls-39" d="M526.56,788.89H68.91a9.42,9.42,0,0,1-9.42-9.41h0a9.42,9.42,0,0,1,9.42-9.42H526.56a9.43,9.43,0,0,1,9.41,9.42h0A9.42,9.42,0,0,1,526.56,788.89Z"/><polygon class="cls-40" points="450.34 741.31 272.61 741.31 286.89 619.32 464.62 619.32 450.34 741.31"/><polygon class="cls-35" points="458.19 741.31 280.46 741.31 294.74 619.32 472.47 619.32 458.19 741.31"/><polygon class="cls-41" points="390.96 770.19 361.98 770.19 369.12 677.37 398.1 677.37 390.96 770.19"/><rect class="cls-35" x="331.74" y="759.38" width="89.45" height="10.81"/><path class="cls-38" d="M236,654a18.06,18.06,0,0,0,2.85-.24c13.42-2.25,11-25.93,10.87-26.94a1.43,1.43,0,0,0-2.84.31c0,.22,2.27,22-8.5,23.81s-14.81-9.27-15-9.74a1.43,1.43,0,1,0-2.71.91C220.75,642.24,224.87,654,236,654Z"/><path class="cls-38" d="M235.77,752.19a1.43,1.43,0,0,0,.07-2.86l-58.58-2.8,4.41-12.81a1.43,1.43,0,1,0-2.7-.93l-5.65,16.41,62.38,3Z"/><path class="cls-42" d="M359.05,989.31l3.55-.42c-.05-.38-4.53-37.88-10.73-76.25-12.65-78.25-19.93-83.74-22.32-85.54-14.65-11.05-34.87-17.46-35.72-17.73l-1.07,3.41c.2.06,20.49,6.5,34.64,17.17C337.64,837.67,351.94,929.48,359.05,989.31Z"/></g></svg>