<svg xmlns="http://www.w3.org/2000/svg" xmlns:xlink="http://www.w3.org/1999/xlink" viewBox="0 0 717.96 396.69"><defs><style>.cls-1{isolation:isolate;}.cls-2,.cls-36{fill:#231f20;}.cls-2{opacity:0.18;}.cls-2,.cls-60,.cls-63,.cls-68,.cls-69{mix-blend-mode:multiply;}.cls-19,.cls-20,.cls-21,.cls-24,.cls-25,.cls-26,.cls-28,.cls-3,.cls-32,.cls-38,.cls-47,.cls-6{fill:#fff;}.cls-13,.cls-3,.cls-6,.cls-7{stroke:#263238;}.cls-14,.cls-3{stroke-miterlimit:10;}.cls-17,.cls-4{fill:#dee6f5;}.cls-5{fill:#2b3379;}.cls-10,.cls-6,.cls-7{stroke-linecap:round;}.cls-10,.cls-13,.cls-6,.cls-7{stroke-linejoin:round;}.cls-10,.cls-13,.cls-14,.cls-7{fill:none;}.cls-8{opacity:0.15;}.cls-9{fill:#2b347a;}.cls-10{stroke:#fff;}.cls-11{opacity:0.05;}.cls-12{fill:#263238;}.cls-14{stroke:#2b3379;stroke-width:6px;}.cls-15,.cls-16{fill:#bdc9e7;}.cls-16,.cls-27,.cls-32{opacity:0.6;}.cls-17,.cls-26,.cls-39{opacity:0.3;}.cls-18{fill:#2d3588;}.cls-20,.cls-40{opacity:0.7;}.cls-21,.cls-34{opacity:0.4;}.cls-22{fill:#010101;}.cls-23{fill:#5274b8;}.cls-24,.cls-30,.cls-31,.cls-60,.cls-63,.cls-66,.cls-68,.cls-69,.cls-70{opacity:0.5;}.cls-25{opacity:0.9;}.cls-28{opacity:0.8;}.cls-29,.cls-38{opacity:0.2;}.cls-33{fill:#f58a7d;}.cls-35{fill:#f89750;}.cls-37{fill:#ce7a63;}.cls-41{fill:url(#linear-gradient);}.cls-42{fill:url(#linear-gradient-2);}.cls-43{fill:url(#linear-gradient-3);}.cls-44{fill:url(#linear-gradient-4);}.cls-45{fill:url(#linear-gradient-5);}.cls-46{fill:url(#linear-gradient-6);}.cls-47{opacity:0.58;}.cls-48{fill:url(#linear-gradient-7);}.cls-49{fill:url(#linear-gradient-8);}.cls-50{fill:url(#linear-gradient-9);}.cls-51{fill:url(#linear-gradient-10);}.cls-52{fill:url(#linear-gradient-11);}.cls-53{fill:url(#linear-gradient-12);}.cls-54{fill:url(#linear-gradient-13);}.cls-55{fill:url(#linear-gradient-14);}.cls-56{fill:url(#linear-gradient-15);}.cls-57{fill:url(#linear-gradient-16);}.cls-58{fill:url(#linear-gradient-17);}.cls-59{fill:url(#linear-gradient-18);}.cls-60{fill:#1b2540;}.cls-61{fill:#ebaf7f;}.cls-62{fill:#e48855;}.cls-63{fill:#871b1b;}.cls-64,.cls-69{fill:#c7762e;}.cls-65,.cls-66{fill:#f4ad49;}.cls-66,.cls-70{mix-blend-mode:screen;}.cls-67,.cls-68{fill:#e38b3b;}.cls-70{fill:#f47949;}.cls-71{fill:#911c1d;}.cls-72{fill:#5e2c15;}.cls-73{fill:#f48051;}</style><linearGradient id="linear-gradient" x1="203.75" y1="216.91" x2="207.94" y2="215.46" gradientUnits="userSpaceOnUse"><stop offset="0" stop-color="#f9baba"/><stop offset="1" stop-color="#f5928f"/></linearGradient><linearGradient id="linear-gradient-2" x1="-997.29" y1="178.31" x2="-1003.52" y2="159.61" gradientTransform="translate(1290.1)" xlink:href="#linear-gradient"/><linearGradient id="linear-gradient-3" x1="275.25" y1="146.35" x2="297.65" y2="156.09" xlink:href="#linear-gradient"/><linearGradient id="linear-gradient-4" x1="273.85" y1="149.56" x2="296.26" y2="159.3" xlink:href="#linear-gradient"/><linearGradient id="linear-gradient-5" x1="1386.96" y1="372.92" x2="1394.81" y2="372.92" gradientTransform="matrix(-1, 0, 0, 1, 1702.18, 0)" xlink:href="#linear-gradient"/><linearGradient id="linear-gradient-6" x1="1337.1" y1="366.39" x2="1346.47" y2="366.39" gradientTransform="matrix(-1, 0, 0, 1, 1702.18, 0)" xlink:href="#linear-gradient"/><linearGradient id="linear-gradient-7" x1="328.23" y1="223.61" x2="307" y2="264.43" xlink:href="#linear-gradient"/><linearGradient id="linear-gradient-8" x1="-1155.82" y1="357.88" x2="-1159.31" y2="388.33" gradientTransform="translate(1290.1)" xlink:href="#linear-gradient"/><linearGradient id="linear-gradient-9" x1="-959.75" y1="335.06" x2="-963.24" y2="365.52" gradientTransform="translate(1098.98 -33.67) rotate(-3.61)" xlink:href="#linear-gradient"/><linearGradient id="linear-gradient-10" x1="140.91" y1="171.69" x2="165.2" y2="157.24" xlink:href="#linear-gradient"/><linearGradient id="linear-gradient-11" x1="167.4" y1="161.95" x2="153.23" y2="141.12" xlink:href="#linear-gradient"/><linearGradient id="linear-gradient-12" x1="160.53" y1="166.63" x2="146.36" y2="145.81" xlink:href="#linear-gradient"/><linearGradient id="linear-gradient-13" x1="223.09" y1="176.53" x2="172.12" y2="201.89" xlink:href="#linear-gradient"/><linearGradient id="linear-gradient-14" x1="222.35" y1="170.17" x2="204.91" y2="188.38" xlink:href="#linear-gradient"/><linearGradient id="linear-gradient-15" x1="223.34" y1="176.23" x2="172.36" y2="201.59" xlink:href="#linear-gradient"/><linearGradient id="linear-gradient-16" x1="244.64" y1="219.25" x2="96.7" y2="192.5" xlink:href="#linear-gradient"/><linearGradient id="linear-gradient-17" x1="172.16" y1="154.37" x2="107.46" y2="253.53" gradientUnits="userSpaceOnUse"><stop offset="0" stop-color="#e1483d"/><stop offset="1" stop-color="#e9625a"/></linearGradient><linearGradient id="linear-gradient-18" x1="171.26" y1="153.79" x2="106.57" y2="252.95" xlink:href="#linear-gradient-17"/></defs><title>Artboard 1</title><g class="cls-1"><g id="Layer_1" data-name="Layer 1"><ellipse class="cls-2" cx="154.19" cy="386.26" rx="36.28" ry="4.47"/><ellipse class="cls-2" cx="334.26" cy="386.26" rx="49.06" ry="4.47"/><ellipse class="cls-2" cx="433.89" cy="387.35" rx="49.06" ry="4.47"/><ellipse class="cls-2" cx="664.82" cy="387.35" rx="49.06" ry="4.47"/><rect class="cls-3" x="303.22" y="8.26" width="261.63" height="192.22"/><rect class="cls-4" x="303.22" y="8.26" width="43.11" height="192.22"/><rect class="cls-5" x="303.22" y="8.26" width="261.63" height="15.78"/><path class="cls-6" d="M315.3,45.62A4.35,4.35,0,1,0,311,50,4.34,4.34,0,0,0,315.3,45.62Z"/><line class="cls-7" x1="318.92" y1="45.99" x2="340.28" y2="45.99"/><path class="cls-6" d="M315.3,65.54A4.35,4.35,0,1,0,311,69.88,4.34,4.34,0,0,0,315.3,65.54Z"/><line class="cls-7" x1="318.92" y1="65.9" x2="340.28" y2="65.9"/><path class="cls-6" d="M315.3,85.45A4.35,4.35,0,1,0,311,89.79,4.34,4.34,0,0,0,315.3,85.45Z"/><line class="cls-7" x1="318.92" y1="85.81" x2="340.28" y2="85.81"/><path class="cls-6" d="M315.3,105.36a4.35,4.35,0,1,0-4.34,4.35A4.34,4.34,0,0,0,315.3,105.36Z"/><line class="cls-7" x1="318.92" y1="105.72" x2="340.28" y2="105.72"/><path class="cls-6" d="M315.3,125.28a4.35,4.35,0,1,0-4.34,4.34A4.34,4.34,0,0,0,315.3,125.28Z"/><line class="cls-7" x1="318.92" y1="125.64" x2="340.28" y2="125.64"/><g class="cls-8"><rect class="cls-9" x="351.75" y="139.48" width="171.27" height="6.14"/><rect class="cls-9" x="351.75" y="150.32" width="171.27" height="6.14"/><rect class="cls-9" x="351.75" y="161.16" width="171.27" height="6.14"/><rect class="cls-9" x="351.75" y="172" width="171.27" height="6.14"/></g><rect class="cls-4" x="423.03" y="155.24" width="9.82" height="28.68"/><rect class="cls-4" x="412.12" y="143.4" width="9.82" height="40.52"/><rect class="cls-4" x="401.21" y="157.97" width="9.82" height="25.95"/><rect class="cls-4" x="390.3" y="173.45" width="9.82" height="10.47"/><rect class="cls-4" x="379.39" y="152.96" width="9.82" height="30.96"/><rect class="cls-4" x="368.48" y="159.34" width="9.82" height="24.58"/><rect class="cls-4" x="357.57" y="174.81" width="9.82" height="9.11"/><rect class="cls-4" x="445.92" y="155.24" width="9.82" height="28.68"/><rect class="cls-4" x="456.83" y="143.4" width="9.82" height="40.52"/><rect class="cls-4" x="467.74" y="157.97" width="9.82" height="25.95"/><rect class="cls-4" x="478.65" y="173.45" width="9.82" height="10.47"/><rect class="cls-4" x="489.56" y="152.96" width="9.82" height="30.96"/><rect class="cls-4" x="500.48" y="159.34" width="9.82" height="24.58"/><rect class="cls-4" x="511.39" y="174.81" width="9.82" height="9.11"/><line class="cls-7" x1="308.98" y1="153.49" x2="340.84" y2="153.49"/><line class="cls-7" x1="308.98" y1="159.21" x2="340.84" y2="159.21"/><line class="cls-7" x1="308.98" y1="164.92" x2="340.84" y2="164.92"/><line class="cls-7" x1="308.98" y1="170.64" x2="340.84" y2="170.64"/><line class="cls-7" x1="308.98" y1="176.36" x2="340.84" y2="176.36"/><line class="cls-7" x1="308.98" y1="182.08" x2="340.84" y2="182.08"/><line class="cls-10" x1="314.76" y1="13.3" x2="328.74" y2="13.3"/><line class="cls-10" x1="314.76" y1="17.09" x2="328.74" y2="17.09"/><line class="cls-10" x1="314.76" y1="20.89" x2="328.74" y2="20.89"/><rect class="cls-11" x="440.18" y="59.66" width="81.68" height="33.08"/><polygon class="cls-5" points="521.86 87.01 521.86 92.73 440.18 92.73 440.18 74.35 453.25 70.68 471.62 70.68 478.98 80.07 492.04 80.07 502.25 87.01 521.86 87.01"/><line class="cls-7" x1="497.36" y1="65.78" x2="516.96" y2="65.78"/><path class="cls-12" d="M502.43,78.67v1.67h-.9V78.67h-2.69v-.84l2.58-5.8h1v5.8h.66v.84Zm-2.73-.84h1.83V73.77Z"/><path class="cls-12" d="M504.73,75.42a1.33,1.33,0,0,1,1.24-.69c1.07,0,1.54.78,1.54,2v1.63c0,1.27-.6,2.1-1.87,2.1s-1.87-.83-1.87-2.1v-.56h.87v.62c0,.74.31,1.19,1,1.19s1-.45,1-1.19V76.77c0-.75-.3-1.2-1-1.2a.9.9,0,0,0-.94.89v.19h-.86L504,72h3.28v.83h-2.45Z"/><path class="cls-12" d="M510.73,73.33V76c0,.81-.38,1.34-1.19,1.34s-1.19-.53-1.19-1.34V73.33c0-.8.38-1.35,1.19-1.35S510.73,72.53,510.73,73.33Zm-1.78,0V76c0,.45.16.75.59.75s.59-.3.59-.75V73.29c0-.45-.17-.76-.59-.76S509,72.84,509,73.29ZM513.47,72l-3.28,8.31h-.55L512.91,72Zm1.34,4.4V79c0,.81-.36,1.34-1.18,1.34s-1.19-.53-1.19-1.34V76.43c0-.8.38-1.33,1.19-1.33S514.81,75.63,514.81,76.43Zm-1.78,0v2.7c0,.45.18.76.6.76s.59-.31.59-.76v-2.7c0-.45-.18-.75-.59-.75S513,75.94,513,76.39Z"/><rect class="cls-4" x="402.05" y="64.42" width="5.37" height="5.37"/><line class="cls-13" x1="410.78" y1="67.11" x2="432.61" y2="67.11"/><rect class="cls-4" x="402.05" y="74.16" width="5.37" height="5.37"/><line class="cls-13" x1="410.78" y1="76.85" x2="432.61" y2="76.85"/><rect class="cls-4" x="402.05" y="83.91" width="5.37" height="5.37"/><line class="cls-13" x1="410.78" y1="86.59" x2="432.61" y2="86.59"/><path class="cls-14" d="M379.5,92.82a19.16,19.16,0,0,0,7.43-29.69"/><path class="cls-14" d="M356,85.65a19.15,19.15,0,0,0,23.49,7.17"/><path class="cls-14" d="M386.93,63.13A19.15,19.15,0,0,0,356,85.65"/><line class="cls-14" x1="363.96" y1="73.09" x2="380.72" y2="73.09"/><line class="cls-14" x1="363.96" y1="78.04" x2="380.72" y2="78.04"/><path class="cls-4" d="M553.39,97.93a11.86,11.86,0,0,0-21.45,7h23.71A11.36,11.36,0,0,0,553.39,97.93Z"/><path class="cls-4" d="M543.8,104.9l9.59-7a11.36,11.36,0,0,1,2.26,7Z"/><path class="cls-4" d="M543.8,104.9l3.66-11.27a11.36,11.36,0,0,1,5.93,4.3Z"/><path class="cls-4" d="M543.8,104.9l-3.67-11.27a11.36,11.36,0,0,1,7.33,0Z"/><path class="cls-4" d="M543.8,104.9l-9.59-7a11.33,11.33,0,0,1,5.92-4.3Z"/><path class="cls-4" d="M543.8,104.9H531.94a11.37,11.37,0,0,1,2.27-7Z"/><path class="cls-4" d="M545.23,104.9a1.44,1.44,0,0,0-2.87,0,1.44,1.44,0,1,0,2.87,0Z"/><line class="cls-4" x1="543.8" y1="104.9" x2="548.67" y2="97.81"/><path class="cls-4" d="M553.39,121.67a11.86,11.86,0,0,0-21.45,7h23.71A11.36,11.36,0,0,0,553.39,121.67Z"/><path class="cls-4" d="M543.8,128.64l9.59-7a11.36,11.36,0,0,1,2.26,7Z"/><path class="cls-4" d="M543.8,128.64l3.66-11.28a11.37,11.37,0,0,1,5.93,4.31Z"/><path class="cls-4" d="M543.8,128.64l-3.67-11.28a11.36,11.36,0,0,1,7.33,0Z"/><path class="cls-4" d="M543.8,128.64l-9.59-7a11.35,11.35,0,0,1,5.92-4.31Z"/><path class="cls-4" d="M543.8,128.64H531.94a11.37,11.37,0,0,1,2.27-7Z"/><path class="cls-4" d="M545.23,128.64a1.44,1.44,0,1,0-1.43,1.43A1.44,1.44,0,0,0,545.23,128.64Z"/><line class="cls-4" x1="543.8" y1="128.64" x2="539.03" y2="121.89"/><path class="cls-4" d="M534.21,145.4a11.85,11.85,0,0,1,21.44,7H531.94A11.37,11.37,0,0,1,534.21,145.4Z"/><path class="cls-4" d="M543.8,152.37l-9.59-7a11.37,11.37,0,0,0-2.27,7Z"/><path class="cls-4" d="M543.8,152.37l-3.67-11.27a11.39,11.39,0,0,0-5.92,4.3Z"/><path class="cls-4" d="M543.8,152.37l3.66-11.27a11.36,11.36,0,0,0-7.33,0Z"/><path class="cls-4" d="M543.8,152.37l9.59-7a11.41,11.41,0,0,0-5.93-4.3Z"/><path class="cls-4" d="M543.8,152.37h11.85a11.36,11.36,0,0,0-2.26-7Z"/><path class="cls-4" d="M542.36,152.37a1.44,1.44,0,1,1,1.44,1.44A1.44,1.44,0,0,1,542.36,152.37Z"/><line class="cls-4" x1="543.8" y1="152.37" x2="535.07" y2="148.87"/><path class="cls-4" d="M553.39,169.14a11.86,11.86,0,0,0-21.45,7h23.71A11.36,11.36,0,0,0,553.39,169.14Z"/><path class="cls-4" d="M543.8,176.11l9.59-7a11.36,11.36,0,0,1,2.26,7Z"/><path class="cls-4" d="M543.8,176.11l3.66-11.28a11.37,11.37,0,0,1,5.93,4.31Z"/><path class="cls-4" d="M543.8,176.11l-3.67-11.28a11.36,11.36,0,0,1,7.33,0Z"/><path class="cls-4" d="M543.8,176.11l-9.59-7a11.35,11.35,0,0,1,5.92-4.31Z"/><path class="cls-4" d="M543.8,176.11H531.94a11.37,11.37,0,0,1,2.27-7Z"/><path class="cls-4" d="M545.23,176.11a1.44,1.44,0,1,0-1.43,1.43A1.44,1.44,0,0,0,545.23,176.11Z"/><line class="cls-4" x1="543.8" y1="176.11" x2="533.01" y2="176.09"/><rect class="cls-15" x="424.83" y="53.88" width="264.33" height="195.06" rx="3.88"/><rect class="cls-16" x="424.83" y="53.88" width="264.33" height="195.06" rx="3.88"/><path class="cls-17" d="M476.34,53.88H429.78a4.94,4.94,0,0,0-4.95,4.94V244a5,5,0,0,0,4.95,4.95h46.56Z"/><path class="cls-18" d="M684.21,53.88H429.78a4.94,4.94,0,0,0-4.95,4.94V71.73H689.16V58.82A4.94,4.94,0,0,0,684.21,53.88Z"/><path class="cls-19" d="M433.47,60.21a.87.87,0,1,1,0-1.73h6.81a.87.87,0,0,1,0,1.73Z"/><path class="cls-19" d="M433.47,63.67a.87.87,0,1,1,0-1.73h6.81a.87.87,0,0,1,0,1.73Z"/><path class="cls-19" d="M433.47,67.12a.87.87,0,1,1,0-1.73h6.81a.87.87,0,0,1,0,1.73Z"/><rect class="cls-20" x="485.44" y="83.2" width="22.28" height="61.74" rx="2.19"/><rect class="cls-21" x="513.29" y="83.2" width="22.28" height="61.74" rx="2.19"/><rect class="cls-20" x="541.14" y="83.2" width="22.28" height="61.74" rx="2.19"/><rect class="cls-21" x="568.99" y="83.2" width="22.28" height="61.74" rx="2.19"/><rect class="cls-20" x="596.84" y="83.2" width="22.28" height="61.74" rx="2.19"/><rect class="cls-21" x="624.69" y="83.2" width="22.28" height="61.74" rx="2.19"/><rect class="cls-20" x="652.54" y="83.2" width="22.28" height="61.74" rx="2.19"/><path class="cls-22" d="M543.55,182.79h-.8v1h-1.1v-1H539V182l2.29-3.09h1.19l-2.13,2.93h1.31V181h1.06v.91h.8Z"/><path class="cls-22" d="M547.06,181.18a1.36,1.36,0,0,1,.49,1.1,1.49,1.49,0,0,1-.22.81,1.58,1.58,0,0,1-.68.59,2.71,2.71,0,0,1-1.13.22,3.85,3.85,0,0,1-1-.14,2.66,2.66,0,0,1-.85-.39l.45-.86a2.28,2.28,0,0,0,.64.33,2.67,2.67,0,0,0,.75.11,1.15,1.15,0,0,0,.66-.17.51.51,0,0,0,.25-.46.54.54,0,0,0-.26-.48,1.82,1.82,0,0,0-.88-.16H544l.25-2.74h3v.91h-2l-.08.92h.4A2.38,2.38,0,0,1,547.06,181.18Z"/><path class="cls-22" d="M548.19,181.21a1.42,1.42,0,0,1-.33-1,1.4,1.4,0,0,1,.33-1,1.22,1.22,0,0,1,1.75,0,1.4,1.4,0,0,1,.33,1,1.42,1.42,0,0,1-.33,1,1.24,1.24,0,0,1-1.75,0Zm1.25-.4a1,1,0,0,0,.14-.58,1,1,0,0,0-.14-.58.44.44,0,0,0-.74,0,1.06,1.06,0,0,0-.14.58,1,1,0,0,0,.14.57.43.43,0,0,0,.37.2A.42.42,0,0,0,549.44,180.81Zm2.53-1.87h.83l-3.33,4.87h-.83Zm-.22,4.77a1.22,1.22,0,0,1-.43-.47,1.64,1.64,0,0,1-.15-.71,1.58,1.58,0,0,1,.15-.71,1.1,1.1,0,0,1,.43-.47,1.18,1.18,0,0,1,.62-.17,1.13,1.13,0,0,1,.88.37,1.57,1.57,0,0,1,0,1.95,1.13,1.13,0,0,1-.88.37A1.27,1.27,0,0,1,551.75,183.71Zm1-.61a1,1,0,0,0,.13-.57,1,1,0,0,0-.13-.58.44.44,0,0,0-.38-.2.42.42,0,0,0-.36.2.94.94,0,0,0-.14.58.92.92,0,0,0,.14.57.42.42,0,0,0,.36.2A.44.44,0,0,0,552.75,183.1Z"/><path class="cls-22" d="M619.11,181a1.43,1.43,0,0,1,.61.53,1.4,1.4,0,0,1,.22.79,1.52,1.52,0,0,1-.24.86,1.56,1.56,0,0,1-.67.57,2.18,2.18,0,0,1-.93.2,2.06,2.06,0,0,1-1.6-.63,2.52,2.52,0,0,1-.58-1.79,3,3,0,0,1,.31-1.42,2.18,2.18,0,0,1,.88-.9,2.67,2.67,0,0,1,1.29-.3,3.67,3.67,0,0,1,.75.08,1.9,1.9,0,0,1,.61.25l-.42.83a1.6,1.6,0,0,0-.91-.24,1.33,1.33,0,0,0-1,.36,1.52,1.52,0,0,0-.39,1.05,1.62,1.62,0,0,1,1.2-.43A1.8,1.8,0,0,1,619.11,181Zm-.49,1.91a.73.73,0,0,0,0-1.06,1,1,0,0,0-1.2,0,.68.68,0,0,0-.24.53.67.67,0,0,0,.23.52.88.88,0,0,0,.63.2A.85.85,0,0,0,618.62,182.86Z"/><path class="cls-22" d="M623.55,181.18a1.39,1.39,0,0,1,.49,1.1,1.54,1.54,0,0,1-.9,1.4,2.71,2.71,0,0,1-1.13.22,3.85,3.85,0,0,1-1-.14,2.56,2.56,0,0,1-.85-.39l.45-.86a2.15,2.15,0,0,0,.64.33,2.65,2.65,0,0,0,.74.11,1.16,1.16,0,0,0,.67-.17.53.53,0,0,0,.25-.46.54.54,0,0,0-.26-.48,1.82,1.82,0,0,0-.88-.16h-1.25l.25-2.74h3v.91h-2l-.07.92h.4A2.38,2.38,0,0,1,623.55,181.18Z"/><path class="cls-22" d="M624.68,181.21a1.42,1.42,0,0,1-.34-1,1.41,1.41,0,0,1,.34-1,1.22,1.22,0,0,1,1.75,0,1.4,1.4,0,0,1,.33,1,1.42,1.42,0,0,1-.33,1,1.24,1.24,0,0,1-1.75,0Zm1.25-.4a1,1,0,0,0,.13-.58,1,1,0,0,0-.13-.58.44.44,0,0,0-.37-.2.43.43,0,0,0-.37.2,1,1,0,0,0-.14.58.92.92,0,0,0,.14.57.45.45,0,0,0,.74,0Zm2.53-1.87h.83L626,183.81h-.83Zm-.22,4.77a1.15,1.15,0,0,1-.43-.47,1.64,1.64,0,0,1-.15-.71,1.58,1.58,0,0,1,.15-.71,1,1,0,0,1,.43-.47,1.18,1.18,0,0,1,.62-.17,1.13,1.13,0,0,1,.88.37,1.61,1.61,0,0,1,0,1.95,1.13,1.13,0,0,1-.88.37A1.27,1.27,0,0,1,628.24,183.71Zm1-.61a.92.92,0,0,0,.14-.57.94.94,0,0,0-.14-.58.43.43,0,0,0-.37-.2.45.45,0,0,0-.37.2,1,1,0,0,0-.14.58,1,1,0,0,0,.14.57.45.45,0,0,0,.37.2A.43.43,0,0,0,629.23,183.1Z"/><path class="cls-22" d="M494.49,152.66v4.87h-1.13v-4h-1v-.9Z"/><path class="cls-22" d="M495.64,152.66h2.22a3.13,3.13,0,0,1,1.4.3,2.24,2.24,0,0,1,.95.85,2.44,2.44,0,0,1,.34,1.28,2.42,2.42,0,0,1-.34,1.28,2.33,2.33,0,0,1-.95.86,3.13,3.13,0,0,1-1.4.3h-2.22Zm2.16,3.94a1.65,1.65,0,0,0,1.17-.4,1.45,1.45,0,0,0,.43-1.11A1.43,1.43,0,0,0,499,154a1.65,1.65,0,0,0-1.17-.41h-1v3Z"/><path class="cls-22" d="M521.17,152.66v4.87H520v-4h-1v-.9Z"/><path class="cls-22" d="M529.69,152.66l-1.6,4.87h-1.21l-1.07-3.3-1.11,3.3h-1.2l-1.6-4.87h1.17l1.1,3.42,1.15-3.42h1l1.11,3.45,1.14-3.45Z"/><path class="cls-22" d="M549.74,152.66v4.87h-1.13v-4h-1v-.9Z"/><path class="cls-22" d="M555.33,157.53V154.6L553.89,157h-.51L552,154.67v2.86H550.9v-4.87h.93l1.82,3,1.8-3h.93v4.87Z"/><rect class="cls-23" x="571.08" y="149.65" width="18.1" height="11.14" rx="4"/><path class="cls-19" d="M578.27,155.12a1.28,1.28,0,0,1,.35.92,1.45,1.45,0,0,1-.23.78,1.57,1.57,0,0,1-.68.58,2.62,2.62,0,0,1-1.11.21,3.91,3.91,0,0,1-1-.13,2.51,2.51,0,0,1-.84-.39l.44-.86a2.13,2.13,0,0,0,.64.32,2.36,2.36,0,0,0,.75.12,1.21,1.21,0,0,0,.67-.17.52.52,0,0,0,.24-.46c0-.4-.3-.6-.91-.6h-.52v-.74l1-1.14H575v-.9h3.41v.73l-1.1,1.25A1.6,1.6,0,0,1,578.27,155.12Z"/><path class="cls-19" d="M583.88,157.53V154.6L582.44,157h-.51l-1.43-2.34v2.86h-1.06v-4.87h.94l1.82,3,1.8-3h.92l0,4.87Z"/><path class="cls-22" d="M605.91,154.66a1.54,1.54,0,0,1,.6.53,1.44,1.44,0,0,1,.22.8,1.54,1.54,0,0,1-.24.86,1.58,1.58,0,0,1-.66.56,2.12,2.12,0,0,1-.94.2,2.09,2.09,0,0,1-1.6-.62,2.54,2.54,0,0,1-.58-1.79,3,3,0,0,1,.31-1.42,2.07,2.07,0,0,1,.88-.9,2.58,2.58,0,0,1,1.3-.31,3,3,0,0,1,.74.09,1.9,1.9,0,0,1,.61.25l-.41.82a1.66,1.66,0,0,0-.92-.24,1.33,1.33,0,0,0-1,.36,1.52,1.52,0,0,0-.39,1.05,1.67,1.67,0,0,1,1.21-.43A2,2,0,0,1,605.91,154.66Zm-.49,1.92a.67.67,0,0,0,.22-.53.69.69,0,0,0-.22-.54.93.93,0,0,0-.61-.2.86.86,0,0,0-.6.21.66.66,0,0,0-.24.53.68.68,0,0,0,.23.52.93.93,0,0,0,.63.2A.89.89,0,0,0,605.42,156.58Z"/><path class="cls-22" d="M611.89,157.53V154.6L610.45,157h-.51l-1.43-2.34v2.86h-1.06v-4.87h.93l1.83,3,1.8-3h.92l0,4.87Z"/><path class="cls-22" d="M634.27,152.66v4.87h-1.13v-4h-1v-.9Z"/><path class="cls-22" d="M637.76,155.8v1.73h-1.13v-1.74l-1.88-3.13h1.19l1.31,2.16,1.3-2.16h1.1Z"/><path class="cls-22" d="M662.83,155.12a1.28,1.28,0,0,1,.34.92,1.44,1.44,0,0,1-.22.78,1.57,1.57,0,0,1-.68.58,2.63,2.63,0,0,1-1.12.21,3.83,3.83,0,0,1-1-.13,2.51,2.51,0,0,1-.84-.39l.43-.86a2.32,2.32,0,0,0,.65.32,2.36,2.36,0,0,0,.75.12,1.21,1.21,0,0,0,.67-.17A.52.52,0,0,0,662,156c0-.4-.3-.6-.91-.6h-.52v-.74l1-1.14h-2.07v-.9H663v.73l-1.1,1.25A1.6,1.6,0,0,1,662.83,155.12Z"/><path class="cls-22" d="M666.27,155.8v1.73h-1.13v-1.74l-1.88-3.13h1.19l1.31,2.16,1.3-2.16h1.11Z"/><circle class="cls-23" cx="450.59" cy="87.49" r="7.58" transform="translate(261.92 505.93) rotate(-76.72)"/><rect class="cls-24" x="430.75" y="100.41" width="39.68" height="10.77" rx="1.54"/><polygon class="cls-23" points="435.9 107.4 434.32 108.23 434.62 106.47 433.34 105.22 435.11 104.97 435.9 103.36 436.69 104.97 438.46 105.22 437.18 106.47 437.48 108.23 435.9 107.4"/><polygon class="cls-23" points="443.25 107.4 441.67 108.23 441.97 106.47 440.69 105.22 442.46 104.97 443.25 103.36 444.04 104.97 445.81 105.22 444.53 106.47 444.83 108.23 443.25 107.4"/><polygon class="cls-23" points="450.59 107.4 449.01 108.23 449.31 106.47 448.03 105.22 449.8 104.97 450.59 103.36 451.38 104.97 453.15 105.22 451.87 106.47 452.17 108.23 450.59 107.4"/><polygon class="cls-25" points="457.94 107.4 456.36 108.23 456.66 106.47 455.38 105.22 457.15 104.97 457.94 103.36 458.73 104.97 460.5 105.22 459.22 106.47 459.52 108.23 457.94 107.4"/><polygon class="cls-25" points="465.29 107.4 463.7 108.23 464.01 106.47 462.73 105.22 464.5 104.97 465.29 103.36 466.08 104.97 467.84 105.22 466.56 106.47 466.87 108.23 465.29 107.4"/><circle class="cls-12" cx="450.59" cy="129.19" r="7.58" transform="translate(221.34 538.05) rotate(-76.72)"/><circle class="cls-20" cx="450.59" cy="129.19" r="7.58" transform="translate(221.34 538.05) rotate(-76.72)"/><rect class="cls-24" x="430.75" y="142.11" width="39.68" height="10.77" rx="1.54"/><polygon class="cls-23" points="435.9 149.1 434.32 149.93 434.62 148.17 433.34 146.92 435.11 146.66 435.9 145.06 436.69 146.66 438.46 146.92 437.18 148.17 437.48 149.93 435.9 149.1"/><polygon class="cls-23" points="443.25 149.1 441.67 149.93 441.97 148.17 440.69 146.92 442.46 146.66 443.25 145.06 444.04 146.66 445.81 146.92 444.53 148.17 444.83 149.93 443.25 149.1"/><polygon class="cls-25" points="450.59 149.1 449.01 149.93 449.31 148.17 448.03 146.92 449.8 146.66 450.59 145.06 451.38 146.66 453.15 146.92 451.87 148.17 452.17 149.93 450.59 149.1"/><polygon class="cls-25" points="457.94 149.1 456.36 149.93 456.66 148.17 455.38 146.92 457.15 146.66 457.94 145.06 458.73 146.66 460.5 146.92 459.22 148.17 459.52 149.93 457.94 149.1"/><polygon class="cls-25" points="465.29 149.1 463.7 149.93 464.01 148.17 462.73 146.92 464.5 146.66 465.29 145.06 466.08 146.66 467.84 146.92 466.56 148.17 466.87 149.93 465.29 149.1"/><circle class="cls-23" cx="450.59" cy="170.88" r="7.58" transform="translate(11.14 368.67) rotate(-45)"/><circle class="cls-26" cx="450.59" cy="170.88" r="7.58" transform="translate(11.14 368.67) rotate(-45)"/><rect class="cls-24" x="430.75" y="183.81" width="39.68" height="10.77" rx="1.54"/><polygon class="cls-23" points="435.9 190.79 434.32 191.63 434.62 189.87 433.34 188.62 435.11 188.36 435.9 186.76 436.69 188.36 438.46 188.62 437.18 189.87 437.48 191.63 435.9 190.79"/><polygon class="cls-23" points="443.25 190.79 441.67 191.63 441.97 189.87 440.69 188.62 442.46 188.36 443.25 186.76 444.04 188.36 445.81 188.62 444.53 189.87 444.83 191.63 443.25 190.79"/><polygon class="cls-23" points="450.59 190.79 449.01 191.63 449.31 189.87 448.03 188.62 449.8 188.36 450.59 186.76 451.38 188.36 453.15 188.62 451.87 189.87 452.17 191.63 450.59 190.79"/><polygon class="cls-23" points="457.94 190.79 456.36 191.63 456.66 189.87 455.38 188.62 457.15 188.36 457.94 186.76 458.73 188.36 460.5 188.62 459.22 189.87 459.52 191.63 457.94 190.79"/><polygon class="cls-25" points="465.29 190.79 463.7 191.63 464.01 189.87 462.73 188.62 464.5 188.36 465.29 186.76 466.08 188.36 467.84 188.62 466.56 189.87 466.87 191.63 465.29 190.79"/><circle class="cls-12" cx="450.59" cy="212.58" r="7.58" transform="translate(-18.34 380.88) rotate(-45)"/><circle class="cls-24" cx="450.59" cy="212.58" r="7.58" transform="translate(-18.34 380.88) rotate(-45)"/><rect class="cls-24" x="430.75" y="225.5" width="39.68" height="10.77" rx="1.54"/><polygon class="cls-23" points="435.9 232.49 434.32 233.32 434.62 231.56 433.34 230.31 435.11 230.06 435.9 228.46 436.69 230.06 438.46 230.31 437.18 231.56 437.48 233.32 435.9 232.49"/><polygon class="cls-23" points="443.25 232.49 441.67 233.32 441.97 231.56 440.69 230.31 442.46 230.06 443.25 228.46 444.04 230.06 445.81 230.31 444.53 231.56 444.83 233.32 443.25 232.49"/><polygon class="cls-25" points="450.59 232.49 449.01 233.32 449.31 231.56 448.03 230.31 449.8 230.06 450.59 228.46 451.38 230.06 453.15 230.31 451.87 231.56 452.17 233.32 450.59 232.49"/><polygon class="cls-23" points="450.59 232.49 449.01 233.32 449.31 231.56 448.03 230.31 449.8 230.06 450.59 228.46 450.59 232.49"/><polygon class="cls-25" points="457.94 232.49 456.36 233.32 456.66 231.56 455.38 230.31 457.15 230.06 457.94 228.46 458.73 230.06 460.5 230.31 459.22 231.56 459.52 233.32 457.94 232.49"/><polygon class="cls-25" points="465.29 232.49 463.7 233.32 464.01 231.56 462.73 230.31 464.5 230.06 465.29 228.46 466.08 230.06 467.84 230.31 466.56 231.56 466.87 233.32 465.29 232.49"/><rect class="cls-23" x="485.44" y="219.37" width="8.11" height="15.35"/><rect class="cls-23" x="505.01" y="213.5" width="8.11" height="21.21"/><rect class="cls-23" x="524.59" y="202.73" width="8.11" height="31.98"/><rect class="cls-12" x="495.23" y="210.55" width="8.11" height="24.17"/><rect class="cls-12" x="514.8" y="208.12" width="8.11" height="26.6"/><rect class="cls-12" x="534.38" y="208.74" width="8.11" height="25.97"/><g class="cls-27"><rect class="cls-19" x="495.23" y="210.55" width="8.11" height="24.17"/><rect class="cls-19" x="514.8" y="208.12" width="8.11" height="26.6"/><rect class="cls-19" x="534.38" y="208.74" width="8.11" height="25.97"/></g><rect class="cls-23" x="544.17" y="199.65" width="8.11" height="35.06"/><polygon class="cls-23" points="630.26 234.71 563.42 234.71 567.95 219.37 577.26 210.55 587.05 224.11 596.84 208.12 606.63 218.72 616.42 208.75 626.21 199.65 630.26 199.65 630.26 234.71"/><polygon class="cls-28" points="630.26 234.71 563.42 234.71 567.95 224.47 577.26 216.92 587.05 224.11 596.84 215.76 606.63 218.72 616.42 216.39 626.21 212.4 630.26 199.65 630.26 234.71"/><path class="cls-23" d="M658.06,184.16h16.3a16.3,16.3,0,0,0-32.59,0h16.29Z"/><path class="cls-24" d="M658.06,184.16h16.3a16.3,16.3,0,0,0-32.59,0h16.29Z"/><path class="cls-20" d="M669.58,172.64a16.29,16.29,0,0,0-27.81,11.52h16.29Z"/><path class="cls-29" d="M646.54,172.62l11.52,11.52V167.85A16.23,16.23,0,0,0,646.54,172.62Z"/><path class="cls-23" d="M646.54,172.62l11.52,11.52V167.85A16.23,16.23,0,0,0,646.54,172.62Z"/><path class="cls-24" d="M646.54,172.62l11.52,11.52V167.85A16.23,16.23,0,0,0,646.54,172.62Z"/><path d="M667.05,176.35l-1.17-1.18-7.37,7.36a1.68,1.68,0,1,0,1.26,1.61,1.56,1.56,0,0,0-.09-.44Z"/><path class="cls-23" d="M658.06,209.77h16.3a16.3,16.3,0,1,0-32.59,0h16.29Z"/><path class="cls-24" d="M658.06,209.77h16.3a16.3,16.3,0,1,0-32.59,0h16.29Z"/><path class="cls-20" d="M669.58,198.25a16.28,16.28,0,0,0-27.81,11.52h16.29Z"/><path class="cls-23" d="M646.54,198.22l11.52,11.53v-16.3A16.27,16.27,0,0,0,646.54,198.22Z"/><path class="cls-24" d="M646.54,198.22l11.52,11.53v-16.3A16.27,16.27,0,0,0,646.54,198.22Z"/><path d="M658.89,208.29v-9.47h-1.66v9.47a1.68,1.68,0,0,0-.87,1.46,1.71,1.71,0,0,0,3.41,0A1.66,1.66,0,0,0,658.89,208.29Z"/><path class="cls-23" d="M658.06,235.37h16.3a16.3,16.3,0,0,0-32.59,0h16.29Z"/><path class="cls-24" d="M658.06,235.37h16.3a16.3,16.3,0,0,0-32.59,0h16.29Z"/><path class="cls-20" d="M669.58,223.85a16.29,16.29,0,0,0-27.81,11.52h16.29Z"/><path class="cls-23" d="M646.54,223.83l11.52,11.52V219.06A16.23,16.23,0,0,0,646.54,223.83Z"/><path class="cls-24" d="M646.54,223.83l11.52,11.52V219.06A16.23,16.23,0,0,0,646.54,223.83Z"/><path d="M667.05,227.56l-1.17-1.17-7.37,7.35a1.85,1.85,0,1,0,1.17,1.17Z"/><path class="cls-12" d="M565.36,181.1a1.32,1.32,0,0,1,0-2.63H606a1.32,1.32,0,0,1,0,2.63Z"/><path class="cls-12" d="M565.36,190.58a1.32,1.32,0,0,1,0-2.63h32.75a1.32,1.32,0,1,1,0,2.63Z"/><path class="cls-12" d="M565.36,185.84a1.32,1.32,0,0,1,0-2.63h29.4a1.32,1.32,0,1,1,0,2.63Z"/><g class="cls-30"><path class="cls-19" d="M565.36,181.1a1.32,1.32,0,0,1,0-2.63H606a1.32,1.32,0,0,1,0,2.63Z"/><path class="cls-19" d="M565.36,190.58a1.32,1.32,0,0,1,0-2.63h32.75a1.32,1.32,0,1,1,0,2.63Z"/><path class="cls-19" d="M565.36,185.84a1.32,1.32,0,0,1,0-2.63h29.4a1.32,1.32,0,1,1,0,2.63Z"/></g><path class="cls-12" d="M486.75,181.1a1.32,1.32,0,0,1,0-2.63h40.68a1.32,1.32,0,0,1,0,2.63Z"/><path class="cls-12" d="M486.75,190.58a1.32,1.32,0,0,1,0-2.63h23.83a1.32,1.32,0,0,1,0,2.63Z"/><path class="cls-12" d="M486.75,185.84a1.32,1.32,0,0,1,0-2.63h34.5a1.32,1.32,0,1,1,0,2.63Z"/><g class="cls-30"><path class="cls-19" d="M486.75,181.1a1.32,1.32,0,0,1,0-2.63h40.68a1.32,1.32,0,0,1,0,2.63Z"/><path class="cls-19" d="M486.75,190.58a1.32,1.32,0,0,1,0-2.63h23.83a1.32,1.32,0,0,1,0,2.63Z"/><path class="cls-19" d="M486.75,185.84a1.32,1.32,0,0,1,0-2.63h34.5a1.32,1.32,0,1,1,0,2.63Z"/></g><path class="cls-23" d="M649.05,199.38H631.66a1.73,1.73,0,0,1-1.69-1.56l-2.27-25.88a1.41,1.41,0,0,1,1.42-1.56h17.39a1.73,1.73,0,0,1,1.69,1.56l2.27,25.88A1.41,1.41,0,0,1,649.05,199.38Z"/><path class="cls-23" d="M650.05,199.38H632.66a1.73,1.73,0,0,1-1.69-1.56l-2.27-25.88a1.41,1.41,0,0,1,1.42-1.56h17.39a1.73,1.73,0,0,1,1.69,1.56l2.27,25.88A1.41,1.41,0,0,1,650.05,199.38Z"/><path class="cls-31" d="M650.05,199.38H632.66a1.73,1.73,0,0,1-1.69-1.56l-2.27-25.88a1.41,1.41,0,0,1,1.42-1.56h17.39a1.73,1.73,0,0,1,1.69,1.56l2.27,25.88A1.41,1.41,0,0,1,650.05,199.38Z"/><path class="cls-32" d="M647.6,171.38H630.21a.51.51,0,0,0-.51.56L632,197.82a.62.62,0,0,0,.6.56H650a.51.51,0,0,0,.51-.56l-2.27-25.88A.62.62,0,0,0,647.6,171.38Z"/><path class="cls-26" d="M650.47,197.82l-2.24-25.53-16.05,25.94a.63.63,0,0,0,.39.15H650A.51.51,0,0,0,650.47,197.82Z"/><path class="cls-25" d="M644.86,184.88h-9a1.17,1.17,0,0,1-1.14-1l-.46-5.32a.94.94,0,0,1,1-1h9a1.16,1.16,0,0,1,1.13,1l.47,5.32A.94.94,0,0,1,644.86,184.88Z"/><path class="cls-25" d="M645.67,194.13h-9a1.16,1.16,0,0,1-1.13-1l-.46-5.32a.94.94,0,0,1,.95-1h9a1.16,1.16,0,0,1,1.13,1l.47,5.32A.94.94,0,0,1,645.67,194.13Z"/><path class="cls-12" d="M636,179.62a.36.36,0,0,1-.35-.32A.29.29,0,0,1,636,179h7.23a.36.36,0,0,1,.35.31.29.29,0,0,1-.29.32Z"/><path class="cls-12" d="M636.21,181.9a.36.36,0,0,1-.35-.31.29.29,0,0,1,.29-.32h6a.35.35,0,0,1,.34.32.28.28,0,0,1-.29.31Z"/><path class="cls-12" d="M636.11,180.76a.36.36,0,0,1-.35-.32.29.29,0,0,1,.29-.31h4.78a.35.35,0,0,1,.34.31.28.28,0,0,1-.29.32Z"/><g class="cls-30"><path class="cls-19" d="M636,179.62a.36.36,0,0,1-.35-.32A.29.29,0,0,1,636,179h7.23a.36.36,0,0,1,.35.31.29.29,0,0,1-.29.32Z"/><path class="cls-19" d="M636.21,181.9a.36.36,0,0,1-.35-.31.29.29,0,0,1,.29-.32h6a.35.35,0,0,1,.34.32.28.28,0,0,1-.29.31Z"/><path class="cls-19" d="M636.11,180.76a.36.36,0,0,1-.35-.32.29.29,0,0,1,.29-.31h4.78a.35.35,0,0,1,.34.31.28.28,0,0,1-.29.32Z"/></g><path class="cls-12" d="M636.83,189a.34.34,0,0,1-.34-.31.28.28,0,0,1,.28-.32H644a.35.35,0,0,1,.34.32.28.28,0,0,1-.29.31Z"/><path class="cls-12" d="M636.93,190.14a.34.34,0,0,1-.34-.31.28.28,0,0,1,.28-.32h4.78a.34.34,0,0,1,.34.32.28.28,0,0,1-.28.31Z"/><g class="cls-30"><path class="cls-19" d="M636.83,189a.34.34,0,0,1-.34-.31.28.28,0,0,1,.28-.32H644a.35.35,0,0,1,.34.32.28.28,0,0,1-.29.31Z"/><path class="cls-19" d="M636.93,190.14a.34.34,0,0,1-.34-.31.28.28,0,0,1,.28-.32h4.78a.34.34,0,0,1,.34.32.28.28,0,0,1-.28.31Z"/></g><path class="cls-33" d="M684.37,161c-3,7-4.07,10-9,12.42-6.84,1.79-15.34-1.57-14.52-9.31.73-7,5.44-17.21,13.46-17.62a10.36,10.36,0,0,1,10,14.51Z"/><path class="cls-29" d="M668.07,170.16s-5.08,1-7.09-3.4c.68,3.56,3.64,5.83,7.21,6.72l1.23-.85-.66-1.81Z"/><path class="cls-33" d="M677.32,181.77s-4.4-2.16-1.23-10.54c0,0-3.51-3.48-7.16-2s-.58,9.2-4.88,10.39C664.05,179.62,666.3,182.72,677.32,181.77Z"/><path class="cls-23" d="M662,180s2.62-4.09,9.69-3.27,5.67,5.08,5.67,5.08Z"/><path class="cls-26" d="M662,180s2.62-4.09,9.69-3.27,5.67,5.08,5.67,5.08Z"/><path class="cls-12" d="M667.65,159.13a11.51,11.51,0,0,1,2-5.77c2-3,.88-5,1-6.85s9.86-3.82,13.61,2.68c0,0,6.75,5.83,2,12.83s-6.67,12.34-12.42,11.46S671.4,163.09,667.65,159.13Z"/><path class="cls-34" d="M684.3,149.19a9.22,9.22,0,0,0-7.39-4.43c-1.49,3.32,2.44,7,2.44,7s-5.78,1.42-4.86,6.16,7.66,2.24,7.66,2.24-4.25,4.12-1.14,6.56a2.22,2.22,0,0,0,1.94.49c1-1.55,2.07-3.31,3.35-5.19C691.05,155,684.3,149.19,684.3,149.19Z"/><path class="cls-23" d="M684.3,149.19a8.68,8.68,0,0,0-1.5-1.9,8.17,8.17,0,0,0-4.44,7.27c0,6.73,6,8,7.49,8.13l.45-.67C691.05,155,684.3,149.19,684.3,149.19Z"/><path class="cls-33" d="M668.14,156.94a5.78,5.78,0,0,0-2.37,3.79c-.32,2,1.56,2.83,3.35,2.09,1.63-.68,3.74-2.56,3.24-4.51A2.64,2.64,0,0,0,668.14,156.94Z"/><path class="cls-12" d="M681.81,152.29s-5.18-5.76-.84-9.1c3.5-2.7,6.19,4.12,6.19,4.12s-.57-7.62,4.81-6.75,2.12,7.5,2.12,7.5,4.75-3,6.75.25S697,153.7,697,153.7s6.57,3.87,3.45,6.55-6.13-.52-6.13-.52,1.88,5.21-1.62,6c-3.17.74-4.13-4.07-4.13-4.07s-2.37,5.75-5.25,3.5.13-6.06.13-6.06-5.3,2.31-6.15-2.07S681.81,152.29,681.81,152.29Z"/><path class="cls-33" d="M690.84,198.27s9.51,20.44,4.93,22.29-18.55,5-18.55,5L670.5,228l-3.9-2.53,1-6.55,9.84,2.14,11.8-5.28-5.57-12.42Z"/><path class="cls-18" d="M686.3,187.3a.66.66,0,0,1,1.09.19c2.18,5,12.43,29.29,9.57,32.82-2.13,2.63-12.42,4-12.42,4l-2.18-5.87,6.23-2.88-7-16S680.83,193.45,686.3,187.3Z"/><path class="cls-29" d="M681.58,199.57l3.74,8.52c3.1-18.43,1-20.79,1-20.79C680.83,193.45,681.58,199.57,681.58,199.57Z"/><polygon class="cls-33" points="683.03 362.35 688.39 380.58 693.84 380.27 692.68 360.48 683.03 362.35"/><path class="cls-35" d="M654.82,227.38s-6.62,13.3-.26,37.76S686.37,374.8,686.37,374.8l7.17-.86s.45-30.57-9.63-55.25c0,0-4.84-41.94-2.48-51.81,1.64-6.89,2.65-12.65-.2-23.09a71.43,71.43,0,0,0-4.59-13c-1.87-3.73-1.32-5.16-1.32-5.16Z"/><path class="cls-31" d="M686.37,374.8l7.17-.86s0-1.18,0-3.24l-8,1.09Z"/><path class="cls-34" d="M663.28,296.31c9.2-25.56,6.67-44.1,6.67-44.1l-5.75-.75-4.5,8-3.14,13.11C658.34,279,660.69,287.3,663.28,296.31Z"/><path class="cls-36" d="M688.25,380.06l6.47-.9a.61.61,0,0,1,.65.39l3.08,5.92a1,1,0,0,1-.6,1.29l-.21.05c-2.7.28-5.11.42-8.46.83-4,.48-2.9.83-7.54,1.46-2.8.38-3.7-2.75-2.53-3.05,5.36-1.34,5.72-3.05,7.59-5.25A2.42,2.42,0,0,1,688.25,380.06Z"/><polygon class="cls-12" points="684.8 373.48 694.73 372.23 694.58 375.19 685.82 376.28 684.8 373.48"/><polygon class="cls-33" points="655.57 363.59 657.91 381.75 663.41 381.75 664.82 363.92 655.57 363.59"/><path class="cls-35" d="M646.07,225.34a17.28,17.28,0,0,1-1.33,4.76,64.57,64.57,0,0,0-4.14,32.6c2.92,25.1,16.34,113,16.34,113h7.23s5-29.87-.89-56.19c0,0-2.07-37,1-46.7,2.15-6.73,8.22-13.23,6.66-27.44s-5.32-19.07-5.32-19.07Z"/><path class="cls-31" d="M656.44,372.44l.5,3.27h7.23s.19-1.19.46-3.27Z"/><path class="cls-36" d="M657.79,381.18l6.43.14a.61.61,0,0,1,.58.48l1.23,6.07a1,1,0,0,1-.77,1.18.75.75,0,0,1-.21,0c-2.68-.09-5.06-.28-8.39-.34-3.94-.07-2.95.42-7.58.4-2.79,0-3.25-3.19-2.06-3.33,5.43-.58,7-2.21,9.14-4.1A2.4,2.4,0,0,1,657.79,381.18Z"/><polygon class="cls-12" points="655.57 374.18 665.59 374.18 665.02 377.09 656.19 377.09 655.57 374.18"/><path class="cls-18" d="M681.46,237.94c-10.25-14.13,7.62-45.5,5.53-51.37s-34.66-15.63-38.93,1-2,28-2.65,35.24c-.95,10.63-5.33,14.88-5.33,14.88S662.71,246.19,681.46,237.94Z"/><path class="cls-29" d="M645.79,200.49a116.25,116.25,0,0,0-.34,14.65c12.12-14,9.43-27.33,9.43-27.33l-1,.63-4.38,3.62S647.79,195.79,645.79,200.49Z"/><path class="cls-33" d="M626.9,198.39s3.39,17.69,7.27,20.76,17.24-18.81,17.24-18.81l-6.61-4-9.17,12.33L630.22,196l1.07-6.77-1.76-4.15a1.45,1.45,0,0,0-2.59.11l-2,4.43a3.91,3.91,0,0,0-.11,2.93Z"/><path class="cls-18" d="M635.63,207.59l-3.17-7.66-4.22,6.25s2.09,14.93,7.47,13.54c5.13-1.33,16.74-18.79,19.25-25.52s-.89-13.3-.89-13.3-4.11-1.07-9.4,11.34C640.13,202.9,635.63,207.59,635.63,207.59Z"/><path class="cls-35" d="M411.71,174.84a2.38,2.38,0,0,0-3.6.69c-4.06,7.31-15.72,29.41-12,35.56,4.47,7.4,25.71,6.81,25.71,6.81l1-6.28-13.63-7.05s4.2-8.38,5.48-11.23C416.66,189,419.59,181.49,411.71,174.84Z"/><path class="cls-34" d="M409.21,204.57s4.2-8.38,5.48-11.23c1.42-3.17,3.34-8,1.33-12.86l-3.48-3.69-3.33,1.05s-6.75,32.55,0,39.23c2.32.36,4.61.57,6.59.69,2.38-1.38,4.12-4.36,5.27-7Z"/><path class="cls-37" d="M409.1,151.21c3.38,8,4.65,11.43,10.24,14.17,7.8,2,17.5-1.79,16.56-10.63-.83-7.94-6.21-19.63-15.36-20.1a11.84,11.84,0,0,0-11.44,16.56Z"/><path class="cls-29" d="M427.7,161.63s5.8,1.18,8.09-3.89c-.78,4.06-4.16,6.66-8.23,7.67l-1.4-1,.76-2.07Z"/><path class="cls-37" d="M416.46,176.56s5.6-2.75,1.56-13.42c0,0,4.47-4.43,9.12-2.55s.74,11.71,6.21,13.23C433.35,173.82,430.5,177.77,416.46,176.56Z"/><path class="cls-12" d="M417.52,171.18s-1-3.63,5.2-5.16,11.38.35,12.21,3.08S417.52,171.18,417.52,171.18Z"/><path class="cls-38" d="M417.52,171.18s-1-3.63,5.2-5.16,11.38.35,12.21,3.08S417.52,171.18,417.52,171.18Z"/><path class="cls-12" d="M430.07,149.25a2.25,2.25,0,0,0,0-3.57c-2-1.87-5-3.47-4.15-6.05s-3.11-4.36-3.11-4.36,3.91-2.55,1.61-4.59-3.33,1.78-8.84,4c-6.34,2.5-13.43,8.53-9.09,16.44s8.16,14.53,13.34,13.26S427.48,153,427.48,153Z"/><path class="cls-37" d="M428.64,146.54a6.6,6.6,0,0,1,2.71,4.33c.36,2.32-1.78,3.23-3.83,2.37-1.86-.77-4.26-2.91-3.69-5.14A3,3,0,0,1,428.64,146.54Z"/><polygon class="cls-37" points="440.85 369.13 442.81 382.46 450.84 382.17 451.44 368.37 440.85 369.13"/><path class="cls-36" d="M450.39,381.22l-7.91.17a.73.73,0,0,0-.7.58l-1.52,7.47a1.22,1.22,0,0,0,.95,1.45l.25,0c3.3-.11,6.22-.35,10.32-.42,4.84-.08,3.63.52,9.32.49,3.43,0,4-3.92,2.53-4.09-6.67-.71-8.63-2.71-11.24-5A3,3,0,0,0,450.39,381.22Z"/><polygon class="cls-37" points="401.73 369.13 401.2 380.95 409.54 382.04 412.32 368.37 401.73 369.13"/><path class="cls-36" d="M409.05,379.9l-7.89-.5a.75.75,0,0,0-.76.53l-2.13,7.31a1.21,1.21,0,0,0,.82,1.52,1.11,1.11,0,0,0,.25.05c3.29.16,6.23.17,10.32.44,4.83.32,3.57.82,9.24,1.27,3.42.27,4.3-3.57,2.86-3.86-6.58-1.27-8.36-3.42-10.77-6A3,3,0,0,0,409.05,379.9Z"/><polygon class="cls-37" points="420.83 211.94 425.73 213.12 434.03 211.03 435.37 214.69 436.4 219.83 429.8 220.96 424.38 217.69 417.46 217.55 420.83 211.94"/><path class="cls-35" d="M409.09,176.17l4.05,56.94,43.53.34s5.31-15.73-1.25-38L449,174a5.33,5.33,0,0,0-3.82-3.65c-6.46-1.59-22.15-3.49-34.39,2.83A3.17,3.17,0,0,0,409.09,176.17Z"/><path class="cls-18" d="M412.17,233.56c-2.44,11.28-3.08,19.19-3.05,24.47,0,1.87.11,3.41.24,4.65a68.42,68.42,0,0,1,.3,11.27l-.06,1c-.67,10.83-.79,21.91-.77,29.21v.15a44.72,44.72,0,0,1-2.23,14.07c-.23.7-.45,1.42-.67,2.16-6.15,21.09-5.62,54.76-5.62,54.76l11.93.67,32.84-144.45H414.6A2.53,2.53,0,0,0,412.17,233.56Z"/><path class="cls-29" d="M430,255.44l-4.09-.94-2.53-3.06s.26,22.87,6.89,45.15l6.46-28.42Z"/><polygon class="cls-23" points="399.25 372.95 399.43 376.46 413.01 377.02 413.61 373.45 399.25 372.95"/><polygon class="cls-39" points="399.25 372.95 399.43 376.46 413.01 377.02 413.61 373.45 399.25 372.95"/><path class="cls-18" d="M424.15,231.49c-2.78,16.7-1.07,26.22.78,31.2.19.48.37.93.55,1.33a34.26,34.26,0,0,1,2.73,9.51l.06.46a295.21,295.21,0,0,0,7,34.07l0,.11a26.17,26.17,0,0,1,.66,10.16c-.16,1.11-.28,2.3-.36,3.55-1.31,19.44,5.08,54.88,5.08,54.88l11.68-1.08,5.1-142.5a1.6,1.6,0,0,0-1.54-1.69Z"/><polygon class="cls-23" points="439.17 374.97 440.16 378.4 453.29 377.26 453.48 373.64 439.17 374.97"/><polygon class="cls-39" points="439.17 374.97 440.16 378.4 453.29 377.26 453.48 373.64 439.17 374.97"/><g class="cls-40"><rect class="cls-19" x="424.39" y="233.92" width="22.05" height="3.06"/><polygon class="cls-19" points="421.47 233.92 413 233.92 412.54 236.98 421.47 236.98 421.47 233.92"/><rect class="cls-19" x="449.41" y="233.92" width="6.72" height="3.06"/></g><path class="cls-34" d="M455.42,195.45,452,183.85l-2.36-3.3-3.06-2.36-1.45,3.57A28.87,28.87,0,0,0,456.84,201C456.44,199.21,456,197.35,455.42,195.45Z"/><path class="cls-37" d="M476.18,176.15l2.1-4.58-.37-7.13a3.52,3.52,0,0,1,.86-2.5l1.21-1.41a3.55,3.55,0,0,1,5.38,0l.69.82a3.52,3.52,0,0,1,.85,2.39l-.11,4a3.53,3.53,0,0,1-.91,2.29l-3.38,3.71L481,180.55Z"/><path class="cls-35" d="M448.8,171.39l20.54,16.53L476.52,174l6.16,2.58s-4.39,24.66-10,25.06S453,195.41,447.22,187.5c-4.21-5.75-2.29-12.33-.94-15.49A1.63,1.63,0,0,1,448.8,171.39Z"/><path class="cls-41" d="M215.91,209.43s-2-5.3-4.37-4.82a16.22,16.22,0,0,0-4.93,2.3L202.83,212s10.61,4.18,14.35,1.78a81.39,81.39,0,0,0,24.52-.37,53.43,53.43,0,0,1-3.85-11.62C230.91,205.73,223.45,208.66,215.91,209.43Z"/><path class="cls-18" d="M273.33,171s-15.52,19.55-35.48,30.85a53.43,53.43,0,0,0,3.85,11.62c10.36-1.7,22.34-5.75,32.5-14.76Z"/><path class="cls-18" d="M292.68,257.6c-3-14.42-6.07-22.76-16.23-50.09-3.2-8.6-6.1-17.3-4.7-26.36L273.33,171s19.74-6.68,41.64-.28c0,0,29.86,13,9.58,77.06C315.4,258,304.7,260.88,292.68,257.6Z"/><path class="cls-42" d="M276.69,158l5.12,12.3a2.43,2.43,0,0,0,1.85,1.47c2.95.51,10.09,1.3,14.78-1.78a1.2,1.2,0,0,0,.32-1.68L289.3,154.7Z"/><path class="cls-43" d="M282,139.14c-.21.21-9.07,17.61-9.07,17.61l10,4.85,10.85-15.25S285.58,135.75,282,139.14Z"/><path class="cls-35" d="M289.24,148.18l-5,8.35a1.54,1.54,0,0,1-.28.34c-.59.56-2.64,2.17-4.21,0-1.35-1.87-2.61-3.57-4-4.28a1.6,1.6,0,0,0-2.16.72,58.39,58.39,0,0,0-3.43,8.13,1.59,1.59,0,0,0,.93,2,43.83,43.83,0,0,0,9.62,2.81,1.62,1.62,0,0,0,1.51-.64c1.54-2.11,5.86-8,7.34-9.45s3.9-.85,5-.52a1.63,1.63,0,0,0,1.28-.17c1.16-.7,3.18-2.44,1.33-5.37a1.61,1.61,0,0,1,.5-2.18,3.55,3.55,0,0,0,1.36-5,5,5,0,0,0-5.42-2.65,1.66,1.66,0,0,1-1.74-1,1.05,1.05,0,0,0-.83-.65,1.56,1.56,0,0,1-1.26-1.83,4.09,4.09,0,0,0-2.29-4.7c-4.33-2.38-8.13,1.5-9.09,4.78s3.88,5.59,6.93,6c2.23.28,3.46,2.73,4,4A1.63,1.63,0,0,1,289.24,148.18Z"/><path class="cls-44" d="M287.48,158.58s2.16-5.07,4.62-4.87,4.41,2.67,1.35,5.43C289.65,162.58,287.48,158.58,287.48,158.58Z"/><path class="cls-36" d="M290.74,384.65c4.77.41,13,1.08,19.57,1.37,3.92.17,6.18-.21,7.48-.73,0,.15,0,.28,0,.41A1.35,1.35,0,0,1,316.5,387a226.43,226.43,0,0,1-25.63,0,1,1,0,0,1-.79-1.44A7.75,7.75,0,0,1,290.74,384.65Z"/><path class="cls-36" d="M310.31,386c-6.53-.29-14.8-1-19.57-1.37,4.69-5.75,19.57-9.63,19.57-9.63h4.2a17.6,17.6,0,0,1,3.28,10.27C316.49,385.81,314.23,386.19,310.31,386Z"/><path class="cls-45" d="M315.22,368.16l-.39,7.78a1.77,1.77,0,0,1-1.52,1.67,6.89,6.89,0,0,1-3.16-.26,2.09,2.09,0,0,1-1.41-1.61l-1.36-7.58Z"/><path class="cls-36" d="M369.83,386a3.77,3.77,0,0,0,3.39-2.51v0a2.69,2.69,0,0,1-1.81,3.07,11.87,11.87,0,0,1-5,.78,5,5,0,0,1-3.76-1.73v0C364.19,386.35,366.38,386.44,369.83,386Z"/><path class="cls-36" d="M360.07,368.11h3.47c5.28-.11,8.6,11,9.68,15.34a3.77,3.77,0,0,1-3.39,2.51c-3.45.48-5.64.39-7.2-.38-2.85-3.75-4.27-9.25-4.95-12.46A4.37,4.37,0,0,1,360.07,368.11Z"/><path class="cls-46" d="M363.09,360.88l1.93,7.66a2.06,2.06,0,0,1-1.08,2.35,7.3,7.3,0,0,1-4,1,1.73,1.73,0,0,1-1.41-1.16l-2.83-8.05Z"/><path class="cls-18" d="M365.39,363.09c-2.39,2.13-10.18,2.41-10.18,2.41-28.07-67.35-39.77-85.9-39.77-85.9,4.05,25.43.88,90.68.88,90.68-4.64,2.05-10.61,0-10.61,0-.37-41.62-6.23-86.34-13.79-115,19-.42,29.28-4.56,32.57-7.16C340.3,273.65,365.39,363.09,365.39,363.09Z"/><path class="cls-35" d="M287.14,274.15l3.49,21.7a7.16,7.16,0,0,0,7.94,5.95l52.24-6.37a5.17,5.17,0,0,0,4.54-5c.11-5.61-.11-15.59-2.46-24.69Z"/><path class="cls-19" d="M300,300.35a.13.13,0,0,1-.14-.13.14.14,0,0,1,.12-.16l1.19-.15a.15.15,0,0,1,.16.13.14.14,0,0,1-.13.17l-1.18.14Zm-2.76-.06h0a6.53,6.53,0,0,1-1.16-.37.15.15,0,1,1,.12-.27,6.12,6.12,0,0,0,1.1.35.16.16,0,0,1,.12.18A.16.16,0,0,1,297.27,300.29Zm6.71-.42a.14.14,0,0,1-.15-.13.15.15,0,0,1,.13-.16l1.18-.15a.15.15,0,0,1,0,.3l-1.19.14Zm3.94-.48a.14.14,0,0,1-.15-.13.15.15,0,0,1,.13-.16l1.18-.15a.15.15,0,0,1,.17.13.16.16,0,0,1-.13.17l-1.18.14Zm3.94-.48a.15.15,0,0,1-.15-.13.15.15,0,0,1,.13-.16l1.18-.15a.15.15,0,0,1,.17.13.16.16,0,0,1-.13.17l-1.18.14Zm3.94-.48a.15.15,0,0,1-.15-.13.16.16,0,0,1,.13-.17L317,298a.15.15,0,0,1,.16.13.16.16,0,0,1-.13.17l-1.18.14Zm-21.94-.07a.14.14,0,0,1-.1-.05,7.7,7.7,0,0,1-.77-.94.17.17,0,0,1,0-.21.15.15,0,0,1,.21,0,7.1,7.1,0,0,0,.73.91.15.15,0,0,1,0,.21A.21.21,0,0,1,293.86,298.36Zm25.88-.41a.14.14,0,0,1-.14-.13.15.15,0,0,1,.13-.17l1.18-.14a.15.15,0,0,1,.16.13.13.13,0,0,1-.13.16l-1.18.15Zm3.95-.48a.15.15,0,0,1-.15-.13.16.16,0,0,1,.13-.17l1.18-.14a.16.16,0,0,1,.17.13.15.15,0,0,1-.13.16l-1.19.15Zm3.94-.48a.15.15,0,0,1-.15-.13.16.16,0,0,1,.13-.17l1.18-.14a.15.15,0,0,1,.17.13.15.15,0,0,1-.13.16l-1.18.15Zm3.94-.48a.16.16,0,0,1-.15-.13.16.16,0,0,1,.13-.17l1.19-.14a.15.15,0,0,1,0,.29l-1.18.15Zm3.94-.48a.14.14,0,0,1-.14-.13.14.14,0,0,1,.13-.17l1.18-.14a.13.13,0,0,1,.16.13.14.14,0,0,1-.13.16l-1.18.15Zm3.95-.48a.15.15,0,0,1-.15-.13.15.15,0,0,1,.13-.17l1.18-.14a.15.15,0,0,1,.17.12.15.15,0,0,1-.13.17l-1.19.15Zm3.94-.48a.15.15,0,0,1-.15-.14.15.15,0,0,1,.13-.16l1.18-.15a.15.15,0,0,1,0,.3l-1.18.14Zm-51.31-.2a.15.15,0,0,1-.15-.12l-.19-1.18a.15.15,0,1,1,.29-.05l.19,1.18a.15.15,0,0,1-.12.17Zm55.25-.29a.15.15,0,0,1-.15-.13.15.15,0,0,1,.13-.16l1.18-.15a.15.15,0,0,1,.17.13.16.16,0,0,1-.13.17l-1.18.14Zm3.84-.85a.13.13,0,0,1-.12-.08.14.14,0,0,1,.05-.2,4.49,4.49,0,0,0,.93-.69.15.15,0,1,1,.2.22,5.31,5.31,0,0,1-1,.73ZM291.45,291a.14.14,0,0,1-.14-.12l-.19-1.18a.15.15,0,0,1,.12-.17.14.14,0,0,1,.17.12l.19,1.18a.15.15,0,0,1-.12.17Zm62.07-.3h0a.15.15,0,0,1-.11-.18,4.49,4.49,0,0,0,.14-1v-.1a.15.15,0,0,1,.15-.15h0a.15.15,0,0,1,.15.15v.11a5.11,5.11,0,0,1-.15,1.1A.16.16,0,0,1,353.52,290.65ZM290.82,287a.14.14,0,0,1-.14-.13l-.19-1.17a.15.15,0,0,1,.12-.17.14.14,0,0,1,.17.12l.19,1.18a.15.15,0,0,1-.12.17Zm62.86-.34a.15.15,0,0,1-.15-.15c0-.38,0-.78,0-1.19a.15.15,0,0,1,.15-.15.14.14,0,0,1,.15.15c0,.4,0,.8,0,1.19a.15.15,0,0,1-.15.15Zm-63.49-3.58a.14.14,0,0,1-.14-.13l-.19-1.17a.15.15,0,0,1,.12-.17.14.14,0,0,1,.17.12l.19,1.18a.15.15,0,0,1-.12.17Zm63.39-.39a.16.16,0,0,1-.15-.15c0-.39,0-.78-.05-1.18a.14.14,0,0,1,.14-.16.13.13,0,0,1,.15.14c0,.4,0,.8.06,1.19a.16.16,0,0,1-.14.16Zm-64-3.53a.14.14,0,0,1-.14-.13l-.19-1.17a.15.15,0,0,1,.12-.18.16.16,0,0,1,.17.13l.19,1.17a.16.16,0,0,1-.12.18Zm63.78-.44a.15.15,0,0,1-.15-.14c0-.39-.06-.78-.1-1.18a.14.14,0,0,1,.13-.16.14.14,0,0,1,.16.13c0,.4.08.8.11,1.19a.16.16,0,0,1-.14.16Zm-64.41-3.48a.15.15,0,0,1-.14-.13l-.22-1.33.62-.08a.15.15,0,0,1,0,.3l-.3,0,.16,1a.15.15,0,0,1-.12.17Zm64-.47a.15.15,0,0,1-.15-.13c-.05-.39-.1-.79-.16-1.18a.16.16,0,0,1,.13-.17.15.15,0,0,1,.17.13l.15,1.18a.15.15,0,0,1-.13.17Zm-61-1.12a.16.16,0,0,1-.15-.13.16.16,0,0,1,.13-.17l1.18-.15a.14.14,0,0,1,.17.13.16.16,0,0,1-.13.17l-1.18.15Zm3.94-.51a.15.15,0,0,1-.15-.13.15.15,0,0,1,.13-.16l1.18-.15a.13.13,0,0,1,.17.12.15.15,0,0,1-.13.17l-1.18.15Zm3.94-.5a.16.16,0,0,1-.15-.13.16.16,0,0,1,.13-.17l1.18-.15a.15.15,0,0,1,.17.13.16.16,0,0,1-.13.17l-1.18.15Zm3.94-.5a.16.16,0,0,1-.15-.13.15.15,0,0,1,.13-.17l1.18-.15a.15.15,0,1,1,0,.29l-1.18.15Zm3.94-.51a.15.15,0,0,1-.15-.13.16.16,0,0,1,.13-.17l1.18-.15a.14.14,0,0,1,.17.13.16.16,0,0,1-.13.17l-1.18.15Zm3.94-.5a.16.16,0,0,1-.15-.13.16.16,0,0,1,.13-.17l1.18-.15a.14.14,0,0,1,.17.13.16.16,0,0,1-.13.17l-1.18.15Zm40.69-.29a.15.15,0,0,1-.15-.12c-.07-.39-.14-.78-.22-1.17a.15.15,0,0,1,.3-.06l.21,1.18a.14.14,0,0,1-.12.17Zm-36.75-.22a.14.14,0,0,1-.15-.13.15.15,0,0,1,.13-.16l1.18-.15a.14.14,0,0,1,.17.12.15.15,0,0,1-.13.17l-1.18.15Zm3.94-.5a.15.15,0,0,1-.15-.13.16.16,0,0,1,.13-.17l1.18-.15a.15.15,0,0,1,.17.13.16.16,0,0,1-.13.17l-1.18.15Zm3.94-.5a.15.15,0,0,1-.15-.13.15.15,0,0,1,.13-.17l1.18-.15a.14.14,0,0,1,.17.13.15.15,0,0,1-.13.16l-1.18.15Zm3.94-.51a.14.14,0,0,1-.15-.13.16.16,0,0,1,.13-.17l1.18-.15a.15.15,0,0,1,.17.13.16.16,0,0,1-.13.17l-1.18.15Zm3.94-.5a.15.15,0,0,1-.15-.13.16.16,0,0,1,.13-.17l1.18-.15a.15.15,0,0,1,.17.13.15.15,0,0,1-.13.16l-1.18.16Zm3.94-.51a.14.14,0,0,1-.15-.13.14.14,0,0,1,.13-.16l1.18-.16a.14.14,0,0,1,.16.13.14.14,0,0,1-.12.17l-1.19.15Zm3.93-.5a.15.15,0,0,1,0-.3l1.18-.15a.14.14,0,0,1,.16.13.15.15,0,0,1-.12.17l-1.19.15Zm3.94-.51A.14.14,0,0,1,343,267a.14.14,0,0,1,.12-.16l1.19-.15a.13.13,0,0,1,.16.13.14.14,0,0,1-.13.16l-1.18.15Zm8.37-.14a.15.15,0,0,1-.15-.11c-.06-.26-.12-.52-.19-.77l-.13,0a.16.16,0,0,1-.17-.13.15.15,0,0,1,.13-.17l.39-.05,0,.13c.08.3.15.6.22.9a.15.15,0,0,1-.11.18Zm-4.43-.36a.14.14,0,0,1-.14-.13.15.15,0,0,1,.12-.17l1.19-.15a.14.14,0,0,1,.16.13.15.15,0,0,1-.13.17l-1.18.15Z"/><path class="cls-35" d="M300.42,256.36l-.06-1.7a1.3,1.3,0,0,1,.88-.88c1.59-.46,5.57-1.43,7.7-.23l.54,1.91Z"/><path class="cls-35" d="M305.29,254.1a2.4,2.4,0,0,1-1.13.14,1,1,0,0,1-.9-.89l-.67-5.26,2.68-.34.67,5.26A1,1,0,0,1,305.29,254.1Z"/><path class="cls-35" d="M326.36,253l-.06-1.7a1.33,1.33,0,0,1,.89-.88c1.59-.46,5.56-1.44,7.69-.23l.54,1.91Z"/><path class="cls-35" d="M331.23,250.78a2.36,2.36,0,0,1-1.12.14,1,1,0,0,1-.9-.89l-.75-5.81,2.68-.35.75,5.82A1,1,0,0,1,331.23,250.78Z"/><path class="cls-35" d="M302.48,249.42l28.69-4.64a1.41,1.41,0,0,0,1.18-1.31,11.85,11.85,0,0,0-.38-3.67,3.35,3.35,0,0,0-3.58-2.4c-5.39.56-19.07,2.32-26.23,6.26a2.67,2.67,0,0,0-1.36,2,6.44,6.44,0,0,0,.31,2.93A1.25,1.25,0,0,0,302.48,249.42Z"/><path class="cls-47" d="M301.77,248.25a.39.39,0,0,1-.38-.3,7.06,7.06,0,0,1-.11-2.3,2.68,2.68,0,0,1,1.58-2.08,32.48,32.48,0,0,1,7.07-2.28.4.4,0,1,1,.12.79,31.46,31.46,0,0,0-6.87,2.22,1.89,1.89,0,0,0-1.12,1.46,6.61,6.61,0,0,0,.1,2,.39.39,0,0,1-.3.47Z"/><path class="cls-35" d="M287,257.42c9.29-1.31,49.5-6.89,61.37-7a2.39,2.39,0,0,1,2.28,1.58,79.08,79.08,0,0,1,4.17,17.33,2.11,2.11,0,0,1-1.45,2.21l-26,8.47-9.49,1.21-29.17-2a2.23,2.23,0,0,1-2.05-1.83c-.65-3.6-2-12-1.75-17.64A2.49,2.49,0,0,1,287,257.42Z"/><path class="cls-19" d="M317.74,279.07h0l-1.19-.08a.15.15,0,0,1-.14-.16c0-.08.08-.13.16-.14l1.19.08a.15.15,0,0,1,.13.16A.14.14,0,0,1,317.74,279.07Zm1.08-.14a.15.15,0,0,1-.15-.13.16.16,0,0,1,.13-.17l1.18-.15a.14.14,0,0,1,.17.13.16.16,0,0,1-.13.17l-1.18.15Zm-5.05-.13h0l-1.19-.09a.14.14,0,0,1-.13-.16c0-.08.07-.13.16-.13l1.18.08a.14.14,0,0,1,.14.16A.15.15,0,0,1,313.77,278.8Zm-4-.28h0l-1.19-.08a.16.16,0,0,1-.14-.16.18.18,0,0,1,.16-.14l1.19.08a.15.15,0,0,1,.14.16A.15.15,0,0,1,309.81,278.52Zm12.95-.09a.16.16,0,0,1-.15-.13.15.15,0,0,1,.13-.17l1.18-.15a.15.15,0,1,1,0,.29l-1.18.15Zm-16.91-.18h0l-1.19-.08a.15.15,0,0,1,0-.3l1.19.08a.16.16,0,0,1,.14.16A.15.15,0,0,1,305.85,278.25Zm-4-.28h0l-1.19-.08a.14.14,0,0,1-.14-.16.17.17,0,0,1,.16-.14l1.19.09a.15.15,0,0,1,.14.16A.15.15,0,0,1,301.89,278Zm24.81-.05a.15.15,0,0,1-.15-.13.16.16,0,0,1,.13-.17h.08l1-.33a.14.14,0,0,1,.19.09.16.16,0,0,1-.1.19l-1.16.36Zm-28.77-.22h0l-1.19-.08a.15.15,0,0,1-.14-.16.15.15,0,0,1,.16-.14l1.19.08a.15.15,0,0,1,.13.16A.14.14,0,0,1,297.93,277.7Zm-4-.27h0l-1.19-.09a.13.13,0,0,1-.13-.15.14.14,0,0,1,.15-.14l1.19.08a.14.14,0,0,1,.14.16A.15.15,0,0,1,294,277.43Zm-4-.28h0l-1.27-.08,0-.12a.18.18,0,0,1,.12-.19.17.17,0,0,1,.12,0l1.07.08a.14.14,0,0,1,.14.15A.15.15,0,0,1,290,277.15Zm40.48-.44a.15.15,0,0,1-.14-.1.15.15,0,0,1,.09-.19l1.14-.37a.17.17,0,0,1,.19.09.15.15,0,0,1-.1.19l-1.13.37Zm3.78-1.23a.15.15,0,0,1-.05-.29l1.13-.37a.15.15,0,0,1,.1.29l-1.14.36Zm-45.88-1.18a.15.15,0,0,1-.15-.13c-.06-.38-.12-.77-.18-1.18a.14.14,0,0,1,.12-.17.14.14,0,0,1,.17.13c.06.4.12.8.18,1.17a.14.14,0,0,1-.12.17Zm49.65-.05a.15.15,0,0,1-.14-.1.16.16,0,0,1,.1-.19l1.13-.37a.15.15,0,1,1,.09.29l-1.13.37Zm3.78-1.22a.15.15,0,0,1-.14-.11.15.15,0,0,1,.09-.19l1.14-.36a.14.14,0,0,1,.19.09.16.16,0,0,1-.1.19l-1.13.37Zm3.78-1.23a.15.15,0,0,1-.14-.11.13.13,0,0,1,.09-.18l1.14-.37a.15.15,0,0,1,.09.28l-1.14.37Zm3.78-1.23a.15.15,0,0,1-.15-.1.16.16,0,0,1,.1-.19l1.13-.37a.16.16,0,0,1,.19.1.14.14,0,0,1-.1.18l-1.13.37Zm-61.57-.21a.14.14,0,0,1-.14-.13l-.15-1.18a.16.16,0,0,1,.13-.17.15.15,0,0,1,.16.13c.05.4.1.8.15,1.18a.15.15,0,0,1-.13.17Zm64.58-1.51a.15.15,0,0,1-.15-.13c-.05-.39-.1-.78-.16-1.17a.15.15,0,0,1,.13-.17.14.14,0,0,1,.17.12c.06.4.11.79.16,1.19a.15.15,0,0,1-.13.16Zm-65-2.44a.14.14,0,0,1-.14-.13c0-.4-.07-.8-.1-1.19a.14.14,0,0,1,.14-.16.15.15,0,0,1,.16.13l.09,1.19a.15.15,0,0,1-.13.16Zm64.4-1.48a.15.15,0,0,1-.15-.12l-.24-1.16a.16.16,0,0,1,.12-.18.13.13,0,0,1,.17.11c.09.39.16.78.24,1.17a.15.15,0,0,1-.12.18Zm-64.63-2.48a.15.15,0,0,1-.15-.15c0-.32,0-.64,0-.95v-.25a.14.14,0,0,1,.14-.14h0a.14.14,0,0,1,.14.15v.24c0,.31,0,.62,0,.94a.15.15,0,0,1-.14.16Zm63.76-1.4a.15.15,0,0,1-.14-.11l-.3-1.15a.15.15,0,0,1,.11-.18.14.14,0,0,1,.18.1l.3,1.16a.15.15,0,0,1-.11.18Zm-62.29-1.37a.14.14,0,0,1-.15-.13.14.14,0,0,1,.12-.16l1.19-.17c.07,0,.15,0,.16.13a.15.15,0,0,1-.12.17l-1.18.16Zm3.93-.55a.15.15,0,0,1,0-.29l1.18-.16a.14.14,0,0,1,.17.12.16.16,0,0,1-.13.17l-1.18.16Zm3.94-.53a.15.15,0,0,1-.15-.13.16.16,0,0,1,.13-.17l1.18-.16a.16.16,0,0,1,.17.13.15.15,0,0,1-.13.16l-1.18.16Zm3.93-.54a.14.14,0,0,1-.14-.12.14.14,0,0,1,.12-.17l1.19-.16a.15.15,0,0,1,.16.13.15.15,0,0,1-.12.17l-1.19.15Zm3.94-.52a.14.14,0,0,1-.14-.13.15.15,0,0,1,.12-.17l1.19-.15a.15.15,0,0,1,.16.13.14.14,0,0,1-.13.16l-1.18.16Zm45.5-.32a.15.15,0,0,1-.14-.1l-.35-1.14a.15.15,0,1,1,.28-.09c.12.36.23.74.35,1.14a.15.15,0,0,1-.1.19ZM308.28,257a.14.14,0,0,1-.14-.13.14.14,0,0,1,.12-.17l1.19-.15a.15.15,0,0,1,0,.29l-1.18.15Zm3.94-.51a.15.15,0,0,1-.15-.13.16.16,0,0,1,.13-.17l1.19-.15a.15.15,0,0,1,.16.13.14.14,0,0,1-.13.17l-1.18.15Zm3.94-.49a.15.15,0,0,1,0-.3l1.19-.15a.15.15,0,0,1,.16.13.15.15,0,0,1-.13.17l-1.18.14Zm3.94-.49a.14.14,0,0,1-.14-.13.15.15,0,0,1,.13-.16l1.18-.15a.15.15,0,0,1,.17.13.16.16,0,0,1-.13.17l-1.19.14Zm3.95-.47a.14.14,0,0,1-.15-.13.15.15,0,0,1,.13-.16l1.19-.14a.15.15,0,0,1,.16.13.14.14,0,0,1-.13.16l-1.18.14Zm3.94-.45a.14.14,0,0,1-.14-.13.16.16,0,0,1,.13-.17l1.18-.13a.16.16,0,0,1,.17.14.15.15,0,0,1-.14.16l-1.18.13Zm3.95-.43a.16.16,0,0,1-.15-.13.17.17,0,0,1,.14-.17l1.18-.12a.16.16,0,0,1,.17.13.16.16,0,0,1-.14.17l-1.18.12Zm3.95-.4a.14.14,0,0,1-.14-.14.15.15,0,0,1,.13-.16l1.19-.11a.14.14,0,0,1,.16.13.15.15,0,0,1-.14.16l-1.18.12Zm12.72-.35a.15.15,0,0,1-.14-.1l-.15-.42h-.54a.15.15,0,0,1-.15-.15.14.14,0,0,1,.14-.15h.59a.23.23,0,0,1,.22.15l.17.47a.14.14,0,0,1-.09.19Zm-8.76,0a.15.15,0,0,1-.15-.14.15.15,0,0,1,.14-.16L341,253a.16.16,0,0,1,.17.14.16.16,0,0,1-.14.16l-1.19.1Zm4-.31a.15.15,0,0,1-.15-.13.14.14,0,0,1,.14-.16l1.19-.08a.15.15,0,1,1,0,.3l-1.19.07Z"/><path class="cls-19" d="M326.9,284.13l-8.3,1.06a2.17,2.17,0,0,1-2.38-1.61l-2-7.87a2.17,2.17,0,0,1,1.83-2.67l10-1.27a2.15,2.15,0,0,1,2.44,2.05l.31,8.09A2.17,2.17,0,0,1,326.9,284.13Z"/><path class="cls-35" d="M325.69,282.79l-6.32.81a1.64,1.64,0,0,1-1.81-1.23l-1.51-6a1.65,1.65,0,0,1,1.39-2l7.6-1a1.65,1.65,0,0,1,1.86,1.56l.23,6.16A1.64,1.64,0,0,1,325.69,282.79Z"/><path class="cls-48" d="M320.75,219.08A65.23,65.23,0,0,1,322.47,238a2.26,2.26,0,0,1-2.08,2l-4.43.29a8.29,8.29,0,0,1-4.73-1.83.74.74,0,0,0-1.09.94,9.12,9.12,0,0,0,2.7,2.9c.62.47,2.71,1.32,2.56,2.26a1.73,1.73,0,0,1-.41.78,9.45,9.45,0,0,1-4.64,2.66,1.42,1.42,0,0,0-.6.3c0,1.12,3.4,2.36,4.28,2.66a10,10,0,0,0,4.14.48,12.24,12.24,0,0,0,8.51-5.63c5-7.69,7.55-17,8.49-24.08C330.54,217.1,323.55,218.27,320.75,219.08Z"/><path class="cls-18" d="M335.17,222.46c3.69-27.9-17.81-49.35-17.81-49.35L304.57,188c9.71,12.1,14.33,23.2,16.44,31.91C323.81,219.11,330.54,217.83,335.17,222.46Z"/><path class="cls-18" d="M320.7,219.79a.78.78,0,0,1-.76-.6c-2.6-10.74-8.08-21.38-16.29-31.6a.8.8,0,1,1,1.24-1c8.35,10.42,13.93,21.26,16.59,32.22a.79.79,0,0,1-.59,1Z"/><path class="cls-36" d="M147.47,385.18a1.4,1.4,0,0,0-.05-.41c-2-8.16-12.26-13.24-12.26-13.24l-4,.32c-2.33,7.19-2,11.59-1.65,13.56a.94.94,0,0,0,0,.16A96.17,96.17,0,0,0,147.47,385.18Z"/><path class="cls-36" d="M129.5,385.57a1.76,1.76,0,0,0,1.28,1.3c4.75,1,12.3.19,15.46-.22a1.5,1.5,0,0,0,1.23-1.47A96.17,96.17,0,0,1,129.5,385.57Z"/><path class="cls-49" d="M129.48,365.82l1.72,8.25a1.34,1.34,0,0,0,1.15,1.11,11.93,11.93,0,0,0,2.65,0,1.7,1.7,0,0,0,1.35-2l-1.19-7.33Z"/><path class="cls-36" d="M165,385.46c-4.47-.12-6.78-.65-8-1.14,0,.45,0,.9,0,1.37a.88.88,0,0,0,.84.9l24.54-.16a1.12,1.12,0,0,0,.9-1.63C180.09,385.06,171.9,385.66,165,385.46Z"/><path class="cls-36" d="M183.31,384.8a1.14,1.14,0,0,0-.1-.19c-2.17-3-7.69-9.05-18.59-11.67l-5.23-.16s-2.33,4-2.38,11.54c1.2.49,3.51,1,8,1.14C171.9,385.66,180.09,385.06,183.31,384.8Z"/><path class="cls-50" d="M158.18,365.09c.09.39,1.18,6.26,1.6,8.53a1.14,1.14,0,0,0,1,1,12.19,12.19,0,0,0,3.58-.28,1.57,1.57,0,0,0,1.08-1.63l-.59-9.28Z"/><path class="cls-18" d="M154.22,256.71s7.2,49.45,12.39,108.3a2.24,2.24,0,0,1-1.85,2.27,27.14,27.14,0,0,1-5.85.68,2.18,2.18,0,0,1-2.07-1.81c-1.77-10.38-14.39-66.06-17.71-78.32,0,0-3.8,52.06-2.59,79.07a1.27,1.27,0,0,1-1.12,1.33,21.26,21.26,0,0,1-4.7,0,1.73,1.73,0,0,1-1.53-1.45c-1.26-8.79-8.51-61-8.2-98.71,0-2.12,2.49-19.57,2.49-19.57Z"/><path class="cls-35" d="M122.4,259.56a2,2,0,0,1-1.34-1.72c-1-9.28-5.59-66.85,23.66-90.53,0,0,1.68-4.39,15.47,6.4s6.41,22.1,3.11,37.7c-4,18.87-11,34.3-7.91,45.92a1.6,1.6,0,0,1-1,1.93A45.7,45.7,0,0,1,122.4,259.56Z"/><path class="cls-51" d="M156.14,150.06c0,.82-11.7,17.41-11.7,17.41s2.1,4.13,12.11,7.48l8.64-17.76Z"/><path class="cls-52" d="M165.33,140.55s4.16,9.55,4.44,14.56,1.36,8.27-4.44,9.27-10.67-1.87-13.32-6.87c0,0-4.14-7.69-3.21-10.84S165.33,140.55,165.33,140.55Z"/><path class="cls-18" d="M154,153.93l.33-.15a.79.79,0,0,0,.39-1.09c-.82-1.58-2.41-5.2-.35-6,2.65-1.09,13.15-3.23,15.42-7a6.93,6.93,0,0,0-2.65-9.52.39.39,0,0,0-.52.17l-.25.46a.39.39,0,0,1-.72-.08h0a.39.39,0,0,0-.71-.1c-.7,1.11-2.58,2.92-7.61,3.85-7.15,1.32-11.87,4.21-12,9.15a.4.4,0,0,1-.61.33c-.53-.32-1.37-.48-2.5.47-2,1.65-1.16,5.94,3.14,9.46a.38.38,0,0,1,0,.63c-.78.51-1.94,1.72,1.07,3.33a10.2,10.2,0,0,0,6.35,1.38.39.39,0,0,0,.31-.47l-.95-4.35a.38.38,0,0,1,.38-.47Z"/><path class="cls-53" d="M154.17,154.84s-1.58-6.1-4.32-4.39,1.42,6.84,3.62,7.06Z"/><path class="cls-35" d="M164.63,178.72l.8,21.63A59.74,59.74,0,0,0,172,202.2c1.3-4.17,4.16-9.3,6.49-13.11C169.87,186.05,164.63,178.72,164.63,178.72Z"/><path class="cls-54" d="M207.53,178.35c-11.79,12.73-21.33,13.47-29.07,10.74-2.33,3.81-5.19,8.94-6.49,13.11,31.48,6.94,38.89-22,38.89-22Z"/><path class="cls-55" d="M209.92,177a4.32,4.32,0,0,1,3.87-1c2.52.45,4.75,1.33,6.32,0s2.12.45,2.12.45L217.54,180Z"/><path class="cls-56" d="M207.12,179.49s.93-3.89,3.73-3.36,9.17,4,10.81,3.36,3.74-2.17,4.82-1.63l-1.9,2.36s4.87-2.81,5.71-1.08l-8.11,4.56S210.32,182.51,207.12,179.49Z"/><path class="cls-57" d="M151.54,207s22.16,18.56,46.1,10.46a5.67,5.67,0,0,1,4.49.34l6.88,3.63a6.15,6.15,0,0,0,8.14-2.28,13,13,0,0,0,1.93-5.17l-13.46-5.45,1-1.65s-6.57-.56-8.29,4.15c0,0-12.52,5.21-33.63-18C164.69,193,155.1,201.19,151.54,207Z"/><path class="cls-58" d="M150.35,206.83a.39.39,0,0,1-.21-.06c-9.34-6.31-13.73-16.48-13.77-16.59a.38.38,0,0,1,.7-.29c0,.1,4.35,10.07,13.49,16.25a.38.38,0,0,1-.21.69Z"/><path class="cls-59" d="M164.25,192.73a.36.36,0,0,1-.32-.18s-2.88-4.48-8.31-14.2a11,11,0,0,0-6.52-5.63c-4.4-1.23-8.65,1.13-8.69,1.16a.38.38,0,0,1-.52-.15.37.37,0,0,1,.15-.51,13.16,13.16,0,0,1,9.25-1.23,11.63,11.63,0,0,1,7,6c5.42,9.7,8.26,14.12,8.29,14.16a.39.39,0,0,1-.12.53A.36.36,0,0,1,164.25,192.73Z"/><path class="cls-2" d="M100,392.72c0,2.19-21,4-47,4s-46.95-1.78-46.95-4,21-4,47-4S100,390.53,100,392.72Z"/><polygon class="cls-18" points="83.54 383.35 67.85 383.35 37.9 295.65 39.28 240.36 58.25 234.39 64.57 271.63 83.54 383.35"/><path class="cls-60" d="M71.94,383.35H67.85L37.9,295.65l1.38-55.29,19-6,6.32,37.24h0a114.25,114.25,0,0,0-3.47,75.71Z"/><path class="cls-36" d="M69,384.51a8.32,8.32,0,0,0,0,7.69H94.18s.82-1.42,0-2.16-9.16-1-12.88-6.68H68.8Z"/><rect class="cls-36" x="68.56" y="391.72" width="25.99" height="1.01"/><path class="cls-18" d="M23.92,236s-2.65,10.42-.72,18.44l.63,62.89-4.75,66.08H33.87l20-128,4.41-21Z"/><path class="cls-36" d="M20.46,384.51a8.32,8.32,0,0,0,0,7.69H45.67s.82-1.42,0-2.16-9.16-1-12.88-6.68H20.29Z"/><rect class="cls-36" x="20.04" y="391.72" width="25.99" height="1.01"/><path class="cls-61" d="M41.25,184.2c2.64,2.22,6.22,5.34,9.78,5.86a4.79,4.79,0,0,0,4.28-1.3l.28-.73c-.49-.74-1-1.53-1.55-2.4-1.47-2.36-2.68-4.19-4.63-5.25V163.91H39.66V179.2c-.92.05-1.9.14-2.93.26A31.93,31.93,0,0,0,41.25,184.2Z"/><path class="cls-62" d="M49.41,174.38v2.74a10.73,10.73,0,0,1-1.09-.31A11.47,11.47,0,0,1,44,174a11.92,11.92,0,0,1-1.76-2.34A11,11,0,0,0,46,173.89,8.46,8.46,0,0,0,49.41,174.38Z"/><path class="cls-35" d="M59.54,225.4c-.45,6.3-.83,11-.83,11s-3.48.71-8.74,1.24l-.7.06c-7.07.66-17.05.91-26.07-1.3l4.67-19.55,1.54-14,2.5-22.79a20.78,20.78,0,0,1,7.75-1s7.55,6.16,9.72,5.64h0a1.13,1.13,0,0,0,.62-.37c.66-.74.18-2.24-.22-3.18-.21-.48-.4-.82-.4-.82a2.31,2.31,0,0,1,.34.09,5.2,5.2,0,0,1,1.94.95,154.58,154.58,0,0,1,8.92,13.05C61.45,196.05,60.38,213.51,59.54,225.4Z"/><path class="cls-35" d="M39.36,179.39s-.52-4.65,0-4.7,8.3,3.2,8.86,4.36a39.56,39.56,0,0,1,1.39,5.61S47.28,186.38,39.36,179.39Z"/><path class="cls-35" d="M49.65,184.66l-.3-5.83.06-1.71a8.59,8.59,0,0,1,2.83,1.49c.56.74.38,4,.38,4S52.29,184.53,49.65,184.66Z"/><path class="cls-35" d="M50,237.68l-.7.06c2.42-13.05.84-42,.11-53h0a1.13,1.13,0,0,0,.62-.37C50.74,195.08,52.38,224.3,50,237.68Z"/><path class="cls-63" d="M59.54,225.4c-.45,6.3-.83,11-.83,11s-3.48.71-8.74,1.24l-.7.06c-7.07.66-17.05.91-26.07-1.3l4.67-19.55,1.54-14a21.94,21.94,0,0,1,6-1.27A24.87,24.87,0,0,0,59.54,225.4Z"/><polygon class="cls-64" points="98.63 215.15 98.63 218.5 48.54 218.5 56.67 215.76 58.48 215.15 98.63 215.15"/><rect class="cls-65" x="48.54" y="218.5" width="43.5" height="41.48"/><rect class="cls-64" x="50.51" y="253.44" width="18.28" height="2.55"/><rect class="cls-64" x="50.51" y="250.49" width="12.26" height="1.85"/><path class="cls-64" d="M88.69,224.49a3.33,3.33,0,1,1-3.33-3.33A3.33,3.33,0,0,1,88.69,224.49Z"/><rect class="cls-66" x="48.54" y="218.5" width="1.96" height="41.48" transform="translate(99.05 478.47) rotate(180)"/><polygon class="cls-67" points="98.63 215.15 98.63 256.16 92.04 259.98 92.04 218.5 93.8 217.6 98.63 215.15"/><path class="cls-68" d="M98.63,248.47v7.69L92,260V218.5l1.76-.89a134,134,0,0,0,.83,18.89,29.75,29.75,0,0,0,2,8.66A14.35,14.35,0,0,0,98.63,248.47Z"/><path class="cls-69" d="M98.63,215.14v.47a171.44,171.44,0,0,1-42,.15l1.81-.62Z"/><path class="cls-61" d="M55.7,256s3.42.26,3.62-.23-3.19-1.58-3.19-1.58l-3-1.95c-2-2.34-4-4.72-6-7.13l-.4.27A41.49,41.49,0,0,1,42,248.87c-.62.57-1.26,1.14-1.91,1.69q3.81,3.39,7.78,6.74c.9,1.3,3.07,3.87,3.07,3.87a7.22,7.22,0,0,0,2.28.06,9.91,9.91,0,0,0,2.38-.22,2.27,2.27,0,0,0,1.79-.59,5.21,5.21,0,0,0,4.16-.52h-2Z"/><path class="cls-35" d="M53.06,249.87l-1.46,1.22-5.18,4.29-1.22,1s-28.37-25.29-29.58-29.62c-.51-1.8-.18-5.31.36-8.79a94.48,94.48,0,0,1,3.85-15.44c2.23-6.57,6-16.86,8.51-20.08.11-.15.23-.28.33-.4l.43-.41c5.35-4.81,13.79-.2,13.14,7a10,10,0,0,1-.48,2.45l-.67,2.1,0,0L39.55,198l-7.41,25.35Z"/><polygon class="cls-63" points="53.06 249.87 51.6 251.09 27.64 222.48 29.49 221.22 26.72 216.82 31.33 218.5 41.07 193.21 39.55 197.97 32.14 223.32 53.06 249.87"/><path class="cls-70" d="M46.42,255.38l-1.22,1s-28.37-25.29-29.58-29.62c-.51-1.8-.18-5.31.36-8.79a94.48,94.48,0,0,1,3.85-15.44c2.23-6.57,6-16.86,8.51-20.08C25.89,190,15.57,222.39,16.66,226S42,251.47,46.42,255.38Z"/><path class="cls-71" d="M43.87,238.21c-1.23-1.33-2.41-2.71-3.57-4.09s-2.3-2.79-3.43-4.2-2.23-2.84-3.3-4.29L32,223.44c-.52-.74-1.05-1.47-1.55-2.22.62.66,1.2,1.34,1.81,2L34,225.3c1.17,1.38,2.3,2.79,3.42,4.2s2.23,2.84,3.31,4.3S42.86,236.7,43.87,238.21Z"/><path class="cls-71" d="M41.09,193.17c-.6,2.55-1.27,5.08-2,7.6s-1.41,5-2.12,7.55-1.48,5-2.27,7.51l-1.18,3.74c-.42,1.24-.82,2.49-1.26,3.72.29-1.27.63-2.54.94-3.81l1-3.79c.68-2.53,1.42-5,2.12-7.55s1.49-5,2.27-7.51S40.22,195.64,41.09,193.17Z"/><path class="cls-61" d="M61.56,162.59a8.27,8.27,0,0,0-1.42-2.49,7.85,7.85,0,0,1-.91-1.56,37,37,0,0,0-2.09-10.15c-1-2-6.33-3.72-11.58-2.73s-9.61,4.5-9.84,6.68c-.09.83-.48,4.14,2.32,12.27a17.77,17.77,0,0,0,3.64,6.52A11.52,11.52,0,0,0,46,173.9a7.89,7.89,0,0,0,4.36.35l1-.19A8.15,8.15,0,0,0,56,171.48a12,12,0,0,0,2.26-3.4,12.64,12.64,0,0,0,.91-3.55,3.27,3.27,0,0,0,2-.71A1.19,1.19,0,0,0,61.56,162.59Z"/><path class="cls-72" d="M48.5,153.31a11.94,11.94,0,0,1-2.58,8.7,4,4,0,0,0-2.67-3.17,2.25,2.25,0,0,0-2,.21,2.39,2.39,0,0,0-.65,2.38,4.8,4.8,0,0,0,2.66,3.4,14.3,14.3,0,0,1-1.15,2.78,4.21,4.21,0,0,1-1.93,2,15.85,15.85,0,0,1-3.83-10.75c.09-2.07-.49-4.33.33-6.23a10.94,10.94,0,0,1,4-4.63,17.63,17.63,0,0,1,5.73-2.34,6.78,6.78,0,0,1,1.9-.23,2.73,2.73,0,0,1,1.76.7,3.16,3.16,0,0,1,.8,2.26A5.89,5.89,0,0,1,48.5,153.31Z"/><path class="cls-73" d="M42.11,144.83s-.82-.52-.12-1.09,2-.45,1.83.46Z"/><path class="cls-35" d="M36.29,160.74s-4.15-8.59,2.65-14.12,17.64-3.75,19.59,3.75l-7.66,4.2Z"/><path class="cls-35" d="M43.21,144.23s8.12,4.25,7.47,10.39l9.47-3.89S56,139.76,43.21,144.23Z"/><path class="cls-72" d="M35.14,156.61a1.28,1.28,0,0,1,1.4-.16,1.74,1.74,0,0,1,.88,1.15l.25,1-1.9.84A9.34,9.34,0,0,1,35.14,156.61Z"/><path class="cls-35" d="M45.56,156.82s13.79-5.62,13.8-7.64c0,0,6.53-2.65,8.78.21s-24.49,8.24-24.49,8.24Z"/></g></g></svg>