<svg xmlns="http://www.w3.org/2000/svg" xmlns:xlink="http://www.w3.org/1999/xlink" viewBox="0 0 1080 1080"><defs><style>.cls-1{isolation:isolate;}.cls-2{fill:#ebebeb;}.cls-3{fill:#dcdbdb;}.cls-4{fill:#c7c7c6;}.cls-5{fill:#1a2f36;}.cls-6{fill:#263238;}.cls-7{fill:#fff;}.cls-8{fill:#455b64;}.cls-9{fill:#ffc829;}.cls-10{fill:#d67d47;}.cls-11{fill:#3c7ec0;}.cls-12,.cls-13,.cls-14,.cls-15,.cls-16{opacity:0.6;}.cls-12{fill:url(#linear-gradient);}.cls-13{fill:url(#linear-gradient-2);}.cls-14{fill:url(#linear-gradient-3);}.cls-15{fill:url(#linear-gradient-4);}.cls-16{fill:url(#linear-gradient-5);}.cls-17{fill:#fdfeff;}.cls-18,.cls-19{fill:#4e6f91;}.cls-19{opacity:0.1;}.cls-20{fill:#7a4f35;}.cls-21{fill:#313c60;}.cls-22{fill:#ef995a;}.cls-23{fill:#202e51;}.cls-24{fill:#3a394d;}.cls-25{fill:#2e2e3e;}.cls-26{fill:#dbe4ea;}.cls-27{fill:#f2f2f2;}.cls-28{fill:#efceb4;mix-blend-mode:multiply;}.cls-29{fill:#993343;}.cls-30{opacity:0.5;}.cls-31{fill:#bccbd3;}.cls-32{fill:url(#Безымянный_градиент_12);}.cls-33{fill:url(#Безымянный_градиент_12-2);}.cls-34{fill:#e3843e;}.cls-35{fill:#a76c48;}.cls-36{fill:#5a3724;}.cls-37{fill:#e8e4cf;}</style><linearGradient id="linear-gradient" x1="413.84" y1="760.96" x2="436.64" y2="760.96" gradientUnits="userSpaceOnUse"><stop offset="0" stop-color="#9dc8eb"/><stop offset="1" stop-color="#6891cb"/></linearGradient><linearGradient id="linear-gradient-2" x1="439.39" y1="739.19" x2="450.5" y2="739.19" xlink:href="#linear-gradient"/><linearGradient id="linear-gradient-3" x1="683.24" y1="755.45" x2="694.35" y2="755.45" xlink:href="#linear-gradient"/><linearGradient id="linear-gradient-4" x1="794.48" y1="806.16" x2="805.59" y2="806.16" xlink:href="#linear-gradient"/><linearGradient id="linear-gradient-5" x1="370.83" y1="697.53" x2="797.07" y2="697.53" xlink:href="#linear-gradient"/><linearGradient id="Безымянный_градиент_12" x1="3733.47" y1="500.64" x2="3777" y2="553.78" gradientTransform="matrix(-1, 0, 0, 1, 3880.32, 0)" gradientUnits="userSpaceOnUse"><stop offset="0" stop-color="#212f53"/><stop offset="0.41" stop-color="#293558"/><stop offset="1" stop-color="#313c60"/></linearGradient><linearGradient id="Безымянный_градиент_12-2" x1="3661.51" y1="461.72" x2="3623.6" y2="583.71" xlink:href="#Безымянный_градиент_12"/></defs><title>overview section</title><g class="cls-1"><g id="Layer_3" data-name="Layer 3"><path class="cls-2" d="M155.7,378.25l-16.92-10.5-3.21,5.18a4.74,4.74,0,0,1-4.46,2.2,29.37,29.37,0,0,0-3-.09,4.75,4.75,0,0,1-4.3-2.47L121,367.2l-17.55,9.41,2.88,5.37a4.75,4.75,0,0,1-.32,4.95,27.36,27.36,0,0,0-1.57,2.53,4.72,4.72,0,0,1-4.29,2.49l-6.1-.19-.61,19.9,6.11.19a4.74,4.74,0,0,1,4.12,2.77c.21.44.43.88.66,1.31s.47.86.73,1.27a4.74,4.74,0,0,1,0,4.95l-3.23,5.22,16.92,10.49,3.22-5.19a4.73,4.73,0,0,1,4.46-2.19,29.18,29.18,0,0,0,3,.1,4.7,4.7,0,0,1,4.29,2.47l2.89,5.37L154.11,429l-2.88-5.38a4.73,4.73,0,0,1,.31-4.94,26.32,26.32,0,0,0,1.56-2.52,4.72,4.72,0,0,1,4.3-2.5l6.1.19.62-19.91-6.11-.19a4.71,4.71,0,0,1-4.1-2.76c-.21-.45-.43-.89-.67-1.32s-.47-.86-.72-1.28a4.73,4.73,0,0,1,0-5ZM143.13,395.1a16.31,16.31,0,1,1-22.08-6.68A16.29,16.29,0,0,1,143.13,395.1Z"/><path class="cls-2" d="M103.73,473.79l-7-12.08-3.69,2.14a3.31,3.31,0,0,1-3.48-.12,17,17,0,0,0-1.81-1,3.33,3.33,0,0,1-1.83-2.95v-4.27H72v4.27a3.32,3.32,0,0,1-1.84,2.95,19.22,19.22,0,0,0-1.81,1,3.29,3.29,0,0,1-3.47.12l-3.7-2.14-7,12.08,3.71,2.14A3.33,3.33,0,0,1,59.54,479c0,.34,0,.68,0,1s0,.68,0,1a3.32,3.32,0,0,1-1.62,3.07l-3.72,2.15,7,12.08,3.71-2.14a3.33,3.33,0,0,1,3.48.13c.57.37,1.17.72,1.79,1A3.31,3.31,0,0,1,72,500.33v4.27h14v-4.27a3.32,3.32,0,0,1,1.83-2.94c.62-.32,1.22-.67,1.8-1a3.33,3.33,0,0,1,3.48-.13l3.7,2.14,7-12.08L100,484.14a3.3,3.3,0,0,1-1.62-3.07c0-.34,0-.69,0-1s0-.69,0-1a3.31,3.31,0,0,1,1.62-3.08ZM90.39,480A11.43,11.43,0,1,1,79,468.61,11.42,11.42,0,0,1,90.39,480Z"/><path class="cls-2" d="M989.08,559.8l-7-12.08-3.7,2.14a3.29,3.29,0,0,1-3.47-.12,18,18,0,0,0-1.81-1,3.31,3.31,0,0,1-1.83-3v-4.27h-14v4.27a3.33,3.33,0,0,1-1.83,3,18,18,0,0,0-1.81,1,3.31,3.31,0,0,1-3.48.12l-3.69-2.14-7,12.08,3.71,2.14a3.31,3.31,0,0,1,1.62,3.08c0,.34,0,.68,0,1s0,.68,0,1a3.31,3.31,0,0,1-1.61,3.07l-3.72,2.15,7,12.08,3.7-2.14a3.33,3.33,0,0,1,3.48.12,20.12,20.12,0,0,0,1.8,1,3.29,3.29,0,0,1,1.83,2.94v4.27h14v-4.27a3.29,3.29,0,0,1,1.83-2.94,20.12,20.12,0,0,0,1.8-1,3.31,3.31,0,0,1,3.47-.12l3.71,2.14,7-12.08-3.71-2.14a3.31,3.31,0,0,1-1.61-3.07c0-.34,0-.69,0-1s0-.69,0-1a3.31,3.31,0,0,1,1.62-3.08Zm-13.33,6.25a11.43,11.43,0,1,1-11.43-11.44A11.42,11.42,0,0,1,975.75,566.05Z"/><g id="aiZGp2"><path class="cls-2" d="M857.7,345.14A109.34,109.34,0,0,0,850.3,379l-.44,0H820.69l-.37,0v-.84c.08-.76.17-1.53.24-2.3a84.38,84.38,0,0,1,2-11.81,91.69,91.69,0,0,1,6.67-18.46.66.66,0,0,1,.72-.44H857.7Z"/><path class="cls-2" d="M856.8,420.74h-.48q-13.53,0-27.06,0a.63.63,0,0,1-.67-.44,84,84,0,0,1-6.84-20.82A83,83,0,0,1,820.4,389a2.33,2.33,0,0,0-.08-.36v-.83l.45,0h29c.53,0,.51,0,.55.54.18,2.4.34,4.81.57,7.22a96.69,96.69,0,0,0,1.84,11.34,103.27,103.27,0,0,0,3.92,13.47Z"/><path class="cls-2" d="M972.62,429.46c-.1.17-.16.29-.24.41a83.07,83.07,0,0,1-7.8,10.12,77.16,77.16,0,0,1-11.44,10.54A81.7,81.7,0,0,1,926.34,464a84.49,84.49,0,0,1-11.47,2.45c-.37,0-.75.12-1.13.19h-.66l-.64-.41.73-.52a88.16,88.16,0,0,0,21.72-21.06,98.25,98.25,0,0,0,8.87-14.73.64.64,0,0,1,.69-.42h28.17Z"/><path class="cls-2" d="M945.07,379H906.38v-33.8l.45,0h29.75a.55.55,0,0,1,.61.4,93.4,93.4,0,0,1,6.15,19.81,97,97,0,0,1,1.49,10.72C944.91,377,945,378,945.07,379Z"/><path class="cls-2" d="M944.84,388c0,.8-.05,1.59-.12,2.38-.17,1.89-.3,3.77-.56,5.65-.37,2.59-.76,5.18-1.28,7.74a92.38,92.38,0,0,1-5,16.5.64.64,0,0,1-.7.5q-15.24,0-30.46,0h-.55V388Z"/><path class="cls-2" d="M897.66,345.36v33.85H859.88c.06-.86.08-1.7.17-2.53.2-1.9.35-3.8.65-5.68.46-2.87,1-5.73,1.57-8.58a88.25,88.25,0,0,1,5.46-16.66.59.59,0,0,1,.64-.41h29.29Z"/><path class="cls-2" d="M897.7,388.43q0,15.92,0,31.83v.48h-.5q-14.85,0-29.68,0a.61.61,0,0,1-.66-.45,85.57,85.57,0,0,1-5.15-17.06c-.56-3-1-6-1.38-9.07-.25-2-.3-4-.44-6,0-.05,0-.11,0-.21l.43,0h36.89C897.61,387.94,897.7,388.05,897.7,388.43Z"/><path class="cls-2" d="M986.09,379.2h-31.7A110.12,110.12,0,0,0,947,345.14h29.55a.65.65,0,0,1,.69.41,83.33,83.33,0,0,1,7.31,21.2,93.26,93.26,0,0,1,1.54,11.88C986.1,378.8,986.09,379,986.09,379.2Z"/><path class="cls-2" d="M986.12,387.73c0,.76-.06,1.49-.11,2.21-.21,2.87-.55,5.71-1,8.54a83.29,83.29,0,0,1-5.83,19c-.43,1-.9,2-1.34,2.93a.43.43,0,0,1-.47.3H948.2l-.31,0c.35-1,.7-2,1-3a101.54,101.54,0,0,0,3.92-15.44,98.81,98.81,0,0,0,1.36-11.5c.06-.91.12-1.82.16-2.73,0-.24.07-.36.33-.34a1.41,1.41,0,0,0,.29,0Z"/><path class="cls-2" d="M971.75,336.51l-.06.13H943.56a.61.61,0,0,1-.66-.39,95.38,95.38,0,0,0-13.77-20.39,77.34,77.34,0,0,0-10.56-9.74c-1.89-1.45-3.85-2.81-5.78-4.21l-.32-.25.38-.26c-.05-.17-.11-.35-.18-.6a82.94,82.94,0,0,1,59.08,35.71Z"/><path class="cls-2" d="M892.29,466.21a3.11,3.11,0,0,1-.8.13,75.12,75.12,0,0,1-9-1.75A81.43,81.43,0,0,1,850,447.86,77.76,77.76,0,0,1,840.1,438a81.6,81.6,0,0,1-6.15-8.53c0-.07-.07-.14-.13-.26h26.27a.62.62,0,0,1,.65.42,99.52,99.52,0,0,0,9.49,15.46,96.91,96.91,0,0,0,11.12,12.32,85,85,0,0,0,10.7,8.6C892.1,466,892.14,466.09,892.29,466.21Z"/><path class="cls-2" d="M892,301.63c-1.18.86-2.57,1.84-3.91,2.87a96.39,96.39,0,0,0-12.51,11.64,88.05,88.05,0,0,0-13.13,18.73c-.22.43-.42.87-.67,1.28a.56.56,0,0,1-.4.25c-.46,0-.94,0-1.41,0H834.69c14.06-19.85,32.94-31.78,57-35.43l-.17.32Z"/><path class="cls-2" d="M933.52,429.49a90.13,90.13,0,0,1-12.77,17.28,80.5,80.5,0,0,1-14.59,12.38V429.49Z"/><path class="cls-2" d="M897.65,429.5v29.09A84.18,84.18,0,0,1,871.4,429.5Z"/><path class="cls-2" d="M932.66,336.38H906.39V308.66A80.51,80.51,0,0,1,921.13,321,92.91,92.91,0,0,1,932.66,336.38Z"/><path class="cls-2" d="M897.66,309.53v27.08H872.44A79.75,79.75,0,0,1,897.66,309.53Z"/></g><path class="cls-3" d="M106.75,737.92a46.54,46.54,0,1,1-46-53.36v46.53Z"/><path class="cls-2" d="M116.73,721.62a45.15,45.15,0,0,1-.51,6.82l-46-6.82V675.08a46.48,46.48,0,0,1,46.53,46.54Z"/><rect class="cls-4" x="84.32" y="756.06" width="49.49" height="1.61"/><path class="cls-4" d="M137.28,761.13a4.27,4.27,0,1,1,4.28-4.27A4.27,4.27,0,0,1,137.28,761.13Zm0-6.93a2.67,2.67,0,1,0,2.67,2.66A2.66,2.66,0,0,0,137.28,754.2Z"/><rect class="cls-4" x="149.86" y="754.26" width="38.44" height="1.73"/><rect class="cls-4" x="149.86" y="757.73" width="21.76" height="1.73"/><rect class="cls-2" x="219.32" y="331.7" width="15.15" height="107.81"/><rect class="cls-2" x="245.36" y="357.79" width="15.15" height="81.72"/><rect class="cls-2" x="271.4" y="398.65" width="15.15" height="40.86"/><rect class="cls-2" x="297.44" y="375.31" width="15.15" height="64.2"/><rect class="cls-2" x="323.49" y="350.81" width="15.15" height="88.7"/><rect class="cls-2" x="349.53" y="336.39" width="15.15" height="103.12"/><path class="cls-2" d="M210.54,318l.17,30.39.09,30.38.12,60.76-.38-.38q20.88-.06,41.77,0l41.77.08,41.77.08,41.78.23-41.78.22-41.77.09-41.77.08q-20.88.08-41.77,0h-.39v-.38l.12-60.76.09-30.38Z"/><path class="cls-2" d="M207.19,324.08a13.23,13.23,0,0,1,6.69,0,11.61,11.61,0,0,1-3.34.43A12,12,0,0,1,207.19,324.08Z"/><path class="cls-2" d="M207.19,333.31a12.42,12.42,0,0,1,3.35-.43,12,12,0,0,1,3.34.43,13.23,13.23,0,0,1-6.69,0Z"/><path class="cls-2" d="M207.19,342.55a13.23,13.23,0,0,1,6.69,0,13.23,13.23,0,0,1-6.69,0Z"/><path class="cls-2" d="M207.19,351.79a13.23,13.23,0,0,1,6.69,0,11.6,11.6,0,0,1-3.34.42A12,12,0,0,1,207.19,351.79Z"/><path class="cls-2" d="M207.19,361a12,12,0,0,1,3.35-.43,11.61,11.61,0,0,1,3.34.43,13.23,13.23,0,0,1-6.69,0Z"/><path class="cls-2" d="M207.19,370.26a13.23,13.23,0,0,1,6.69,0,12,12,0,0,1-3.34.43A12.42,12.42,0,0,1,207.19,370.26Z"/><path class="cls-2" d="M207.19,379.49a12.42,12.42,0,0,1,3.35-.43,12,12,0,0,1,3.34.43,13.23,13.23,0,0,1-6.69,0Z"/><path class="cls-2" d="M207.19,388.73a13.23,13.23,0,0,1,6.69,0,11.61,11.61,0,0,1-3.34.43A12,12,0,0,1,207.19,388.73Z"/><path class="cls-2" d="M207.19,398a12,12,0,0,1,3.35-.42,11.6,11.6,0,0,1,3.34.42,13.23,13.23,0,0,1-6.69,0Z"/><path class="cls-2" d="M207.19,407.2a12,12,0,0,1,3.35-.43,11.61,11.61,0,0,1,3.34.43,13.23,13.23,0,0,1-6.69,0Z"/><path class="cls-2" d="M207.19,416.44a13.23,13.23,0,0,1,6.69,0,12,12,0,0,1-3.34.43A12.42,12.42,0,0,1,207.19,416.44Z"/><path class="cls-2" d="M207.19,425.67a12,12,0,0,1,3.35-.43,11.61,11.61,0,0,1,3.34.43,13.23,13.23,0,0,1-6.69,0Z"/><polygon class="cls-5" points="15.16 825.86 147.1 825.47 279.04 825.32 542.91 825.05 806.79 825.32 938.73 825.46 1070.67 825.86 938.73 826.25 806.79 826.39 542.91 826.66 279.04 826.39 147.1 826.25 15.16 825.86"/><rect class="cls-3" x="281.53" y="423.73" width="613.36" height="410.29"/><rect class="cls-6" x="285.99" y="428.74" width="604.45" height="400.28"/><rect class="cls-4" x="201.64" y="864.79" width="773.13" height="28.16"/><polygon class="cls-3" points="201.64 864.79 281.53 834.02 894.89 834.02 974.78 864.79 201.64 864.79"/><polygon class="cls-6" points="288.66 853.88 340.21 834.02 836.2 834.02 887.76 853.88 288.66 853.88"/><rect class="cls-7" x="320.15" y="459.15" width="536.13" height="339.46"/><rect class="cls-8" x="319.69" y="459.15" width="536.58" height="13.06"/><circle class="cls-4" cx="326.84" cy="465.68" r="3.24"/><circle class="cls-7" cx="340.06" cy="465.68" r="3.24"/><circle class="cls-9" cx="353.29" cy="465.68" r="3.24"/><rect class="cls-2" x="343.92" y="679.39" width="81.49" height="55.76"/><path class="cls-7" d="M343.92,683.47c3.5,2,6.94,4.07,10.41,6.1s6.89,4.13,10.32,6.23c6.86,4.18,13.67,8.45,20.48,12.73h-.92c6.8-4.28,13.61-8.55,20.48-12.73,3.42-2.1,6.87-4.17,10.31-6.23s6.92-4.11,10.42-6.1c-3.3,2.32-6.65,4.54-10,6.8s-6.69,4.46-10.05,6.66c-6.72,4.41-13.49,8.74-20.27,13.05l-.46.29-.46-.29c-6.78-4.31-13.55-8.64-20.27-13.05-3.37-2.2-6.71-4.43-10.05-6.66S347.21,685.79,343.92,683.47Z"/><path class="cls-7" d="M344.12,725.24c2.47-2.16,5-4.18,7.64-6.15s5.25-3.88,7.92-5.77,5.38-3.69,8.13-5.45,5.53-3.49,8.41-5.06c-2.47,2.16-5,4.18-7.64,6.15s-5.26,3.88-7.92,5.76-5.38,3.7-8.14,5.45S347,723.66,344.12,725.24Z"/><path class="cls-7" d="M425.22,725.24c-2.88-1.58-5.66-3.3-8.41-5.07s-5.45-3.59-8.13-5.45-5.32-3.78-7.92-5.76-5.17-4-7.64-6.15c2.88,1.57,5.66,3.29,8.41,5.06s5.44,3.6,8.13,5.45,5.32,3.78,7.91,5.77S422.75,723.08,425.22,725.24Z"/><polygon class="cls-6" points="430.57 747.75 435.75 760.26 430.57 762.4 425.37 749.81 416.81 756.45 416.81 721.2 441.48 746.12 430.57 747.75"/><path class="cls-6" d="M416.81,717.36a5.21,5.21,0,0,1,0-3.54,5.06,5.06,0,0,1,0,3.54Z"/><path class="cls-6" d="M413.76,718.62a5.18,5.18,0,0,1-2.5-2.5,5.18,5.18,0,0,1,2.5,2.5Z"/><path class="cls-6" d="M412.5,721.68a4.79,4.79,0,0,1-1.77.31,4.84,4.84,0,0,1-1.78-.31,4.66,4.66,0,0,1,1.78-.32A4.61,4.61,0,0,1,412.5,721.68Z"/><path class="cls-6" d="M413.76,724.73a5.18,5.18,0,0,1-2.5,2.5,5.18,5.18,0,0,1,2.5-2.5Z"/><path class="cls-6" d="M421.13,721.68a5.06,5.06,0,0,1,3.54,0,5.21,5.21,0,0,1-3.54,0Z"/><path class="cls-6" d="M419.87,718.62a5.18,5.18,0,0,1,2.5-2.5,5.18,5.18,0,0,1-2.5,2.5Z"/><polygon class="cls-2" points="664.85 757.73 604.28 742.17 624.24 664.41 669.22 675.96 681.01 694.78 664.85 757.73"/><polygon class="cls-3" points="669.22 675.96 681.01 694.78 665.41 690.78 669.22 675.96"/><rect class="cls-3" x="626" y="683.27" width="34.77" height="2.06" transform="translate(1096.37 1507.11) rotate(-165.6)"/><rect class="cls-3" x="624.71" y="688.31" width="34.77" height="2.06" transform="translate(1092.57 1516.71) rotate(-165.6)"/><rect class="cls-3" x="623.41" y="693.35" width="34.77" height="2.06" transform="translate(1088.76 1526.31) rotate(-165.6)"/><rect class="cls-3" x="621.86" y="700.4" width="50.95" height="2.06" transform="translate(1099.88 1541.82) rotate(-165.6)"/><rect class="cls-3" x="620.57" y="705.44" width="50.95" height="2.06" transform="translate(1096.08 1551.42) rotate(-165.6)"/><rect class="cls-3" x="619.28" y="710.48" width="50.95" height="2.06" transform="translate(1092.28 1561.02) rotate(-165.6)"/><rect class="cls-3" x="617.98" y="715.52" width="50.95" height="2.06" transform="translate(1088.48 1570.62) rotate(-165.6)"/><rect class="cls-3" x="616.69" y="720.56" width="50.95" height="2.06" transform="translate(1084.68 1580.21) rotate(-165.6)"/><rect class="cls-3" x="615.39" y="725.6" width="50.95" height="2.06" transform="translate(1080.88 1589.81) rotate(-165.6)"/><rect class="cls-3" x="614.1" y="730.64" width="50.95" height="2.06" transform="translate(1077.08 1599.41) rotate(-165.6)"/><rect class="cls-3" x="612.81" y="735.68" width="50.95" height="2.06" transform="translate(1073.28 1609.01) rotate(-165.6)"/><rect class="cls-3" x="611.51" y="740.72" width="50.95" height="2.06" transform="translate(1069.48 1618.61) rotate(-165.6)"/><polygon class="cls-2" points="477.89 647.99 556.12 650.88 558 598.56 479.77 595.67 477.89 647.99"/><polygon class="cls-7" points="481.26 644.85 553 647.5 554.63 601.7 482.9 599.04 481.26 644.85"/><path class="cls-3" d="M488.89,613.57a7.81,7.81,0,1,0,8.09-7.52A7.81,7.81,0,0,0,488.89,613.57Z"/><polygon class="cls-3" points="503.53 645.75 552.95 647.57 529.48 613.17 503.53 645.75"/><polygon class="cls-2" points="484.16 645.05 524.96 646.55 505.37 623.99 484.16 645.05"/><polygon class="cls-2" points="448.31 685.21 524.95 669.23 514.21 617.99 437.57 633.97 448.31 685.21"/><polygon class="cls-7" points="450.83 681.36 521.1 666.7 511.69 621.84 441.42 636.5 450.83 681.36"/><path class="cls-3" d="M450.72,649.15a7.81,7.81,0,1,0,6.06-9.24A7.81,7.81,0,0,0,450.72,649.15Z"/><polygon class="cls-3" points="472.66 676.88 521.07 666.78 490.03 639.02 472.66 676.88"/><polygon class="cls-2" points="453.69 680.85 493.66 672.51 469.22 655.32 453.69 680.85"/><path class="cls-10" d="M987.13,682c12.1-24.89,33.29-37.67,57.16-30.61s27.58,40.36,9.76,48.76S1018.4,684,1009,678.92,987.13,682,987.13,682Z"/><path class="cls-6" d="M975.41,748.18c.06-3,.18-6,.28-9q.31-9,.64-18c.41-11,1.59-21.71,6.12-31.81a49.37,49.37,0,0,1,19.21-22.13,40.68,40.68,0,0,1,10.09-4.35c3-3.31,7.57-5.45,11.78-6.48,5.53-1.34,11.2-1,16.8-.42.2,0,.19.34,0,.32a40.39,40.39,0,0,0-15.89,1.13A34.08,34.08,0,0,0,1018,660a30.52,30.52,0,0,0-3.7,2.35,34.36,34.36,0,0,1,14.59.14,32.24,32.24,0,0,1,5.06,1.67,14.93,14.93,0,0,1,4-.34,23.8,23.8,0,0,1,5.17.74,38.85,38.85,0,0,1,9.82,4.29c.18.1,0,.37-.16.27a36.56,36.56,0,0,0-9.59-3.61,32.62,32.62,0,0,0-4.92-.73,25.2,25.2,0,0,0-2.75,0A31.6,31.6,0,0,1,1051,680.16c.08.18-.19.34-.28.15-3.58-8.09-11.21-13.62-19.67-15.77-.53-.13-1.06-.2-1.6-.31a22.44,22.44,0,0,1,.26,2.41c.16,1.21.36,2.41.61,3.61a60.5,60.5,0,0,0,1.94,7.28,56.36,56.36,0,0,0,2.89,7.07,33.6,33.6,0,0,0,4,6.81.16.16,0,1,1-.26.19c-1.43-2.25-3.1-4.32-4.41-6.65a51,51,0,0,1-3.24-7,47,47,0,0,1-2.12-7.46q-.39-2-.63-4a9.29,9.29,0,0,1-.15-2.47,32.52,32.52,0,0,0-8.48-.17c1.06,5.93,2.2,12.12,5.52,17.28.11.17-.18.33-.27.15a68.44,68.44,0,0,1-4.11-8.49,32.38,32.38,0,0,1-2-8.84,39.09,39.09,0,0,0-14,4.7,46.37,46.37,0,0,0-18.66,20.41c-4.48,9.21-6.28,19.12-6.92,29.27-.79,12.72-1,25.51-2.23,38.19-.08.83-1.4,1.11-1.56.18A44.89,44.89,0,0,1,975.41,748.18Z"/><path class="cls-6" d="M1003.39,665.29a13.86,13.86,0,0,1,2.75-2.54c1-.82,2-1.62,3.07-2.34a22.82,22.82,0,0,1,6.88-3.19.16.16,0,0,1,.08.31,18.18,18.18,0,0,0-6.79,3.33c-1,.74-2,1.54-2.93,2.37a17.81,17.81,0,0,1-2.78,2.36C1003.49,665.68,1003.26,665.47,1003.39,665.29Z"/><path class="cls-6" d="M1042,674.31a74.74,74.74,0,0,1,5.55,7.34,44.91,44.91,0,0,1,4.13,8.19c0,.09-.11.13-.15.06-2.93-5.28-5.88-10.72-9.76-15.38C1041.67,674.37,1041.9,674.15,1042,674.31Z"/><path class="cls-6" d="M1016,671.84a17.81,17.81,0,0,0,1.37,4.51,30.91,30.91,0,0,0,2.3,4c.06.09-.07.18-.14.11a16.25,16.25,0,0,1-3.84-8.52C1015.64,671.72,1016,671.64,1016,671.84Z"/><path class="cls-10" d="M977.1,682.56S960,661,926.87,668.65c-31.45,7.26-46,64.92-14.18,71.82S938.86,694,950.44,685C958.94,678.31,971.16,679.74,977.1,682.56Z"/><path class="cls-6" d="M901.32,700.14a63.66,63.66,0,0,1,6.81-5.22,29.61,29.61,0,0,1,7.27-3.63,43.49,43.49,0,0,1,4.32-5.55,42.55,42.55,0,0,1,10-8c-.33,0-.65-.06-1-.07a51.28,51.28,0,0,0-5.26.06,29.11,29.11,0,0,0-10.21,2.54c-.19.08-.32-.21-.14-.29a47.22,47.22,0,0,1,10.2-3.07,28.8,28.8,0,0,1,5.17-.44c.92,0,1.85.07,2.78.16l.53,0a44.46,44.46,0,0,1,9.53-3.51c-.3-.08-.61-.18-.92-.25a45.06,45.06,0,0,0-4.9-.8,38.6,38.6,0,0,0-9.9.15c-.2,0-.26-.29-.06-.31a63.13,63.13,0,0,1,10-.41,43,43,0,0,1,8.32,1.08,44.69,44.69,0,0,1,6-.69c11.54-.48,24.11,3.83,31.22,13.31s8.49,22.15,9.75,33.6c1.74,15.94,2.54,32.1,1.26,48.09-.08.95-1.4.77-1.43-.13-.44-13.59-.91-27.19-2.22-40.74-.6-6.27-1.27-12.57-2.31-18.79a55.23,55.23,0,0,0-4.56-15.47,28.34,28.34,0,0,0-11.17-12A37.71,37.71,0,0,0,954.64,675a42.39,42.39,0,0,0-14.85,1.39,9.9,9.9,0,0,1,.09,2.93,17.13,17.13,0,0,1-.73,3.61,18.94,18.94,0,0,1-1.38,3.21c-.62,1.14-1.39,2.15-2.07,3.24-.11.17-.38,0-.26-.19a15,15,0,0,0,2.57-6.52,27.18,27.18,0,0,0,.4-3.37c0-.85,0-1.71,0-2.56A43.63,43.63,0,0,0,924,684.34c-.81.64-1.58,1.32-2.34,2a16.24,16.24,0,0,1,2.8,3.45,33.69,33.69,0,0,1,3,5.24,44.79,44.79,0,0,1,3.06,11.51c0,.2-.29.26-.31.05a33.4,33.4,0,0,0-3.77-10.9,43.38,43.38,0,0,0-2.93-4.85c-.56-.79-1.14-1.58-1.74-2.34-.32-.41-.68-.83-1-1.27a45.79,45.79,0,0,0-9.38,13.21s0,0,.06,0a22.27,22.27,0,0,1,3.88,5.57,52.43,52.43,0,0,1,3.1,6.62,111.36,111.36,0,0,1,3.95,13.49c.05.2-.27.26-.31.06a56.68,56.68,0,0,0-4.7-13.29c-1-2.07-2-4.11-3.13-6.13a57.35,57.35,0,0,1-3.11-5.78,42.45,42.45,0,0,0-3.77,15.32.16.16,0,0,1-.32,0,53.46,53.46,0,0,1,7.43-23.52c-2,.86-4,1.69-6,2.74a33.68,33.68,0,0,0-6.88,4.83C901.37,700.52,901.16,700.27,901.32,700.14Z"/><path class="cls-6" d="M925.58,701.36c1,3.27,2.24,6.44,3.14,9.74a37.33,37.33,0,0,1,1.46,9.73c0,.09-.14.09-.16,0a94.26,94.26,0,0,0-4.74-19.38A.16.16,0,1,1,925.58,701.36Z"/><path class="cls-6" d="M904.62,693.26a18.52,18.52,0,0,1,4.38-3.13,31.58,31.58,0,0,1,5.08-1.79c.19-.06.25.26,0,.31a19.55,19.55,0,0,0-4.88,2,35.56,35.56,0,0,0-4.49,2.76A.11.11,0,0,1,904.62,693.26Z"/><path class="cls-10" d="M960.81,653.78s-3.17-38.7-31.94-51.24c-24-10.48-37.79,16.52-20.8,33.05C921.81,649,943.85,642.92,960.81,653.78Z"/><path class="cls-6" d="M913.39,610a120.65,120.65,0,0,1,12.8,6.06,95,95,0,0,1,9.93,6.6c-.47-1-.89-2-1.37-3-.75-1.5-1.56-3-2.45-4.38a40.89,40.89,0,0,0-6.33-8c-.15-.14.08-.37.23-.22a64.17,64.17,0,0,1,6.67,7.77,47.09,47.09,0,0,1,2.73,4.38,17.63,17.63,0,0,1,1.94,4.45l.31.23a95,95,0,0,1,13.75,13.45c-.08-.38-.16-.76-.26-1.11q-.81-2.84-1.75-5.62a47.74,47.74,0,0,0-5.19-11.29c-.12-.17.17-.33.27-.15a88.27,88.27,0,0,1,6,11,41.18,41.18,0,0,1,2,5.72,24.74,24.74,0,0,1,.94,3.88c1.25,1.59,2.48,3.19,3.65,4.85,12.35,17.58,18.55,38.85,20,60.14a186.4,186.4,0,0,1,.32,19.06c-.22,6.37-.45,12.88-1.69,19.14-.08.4-.7.28-.69-.12.14-5.59.72-11.16.83-16.75s-.09-11.22-.54-16.8a157.1,157.1,0,0,0-6.28-32.94,117.56,117.56,0,0,0-14.63-31c-1.21-.24-2.41-.57-3.61-.88-1.43-.37-2.87-.73-4.3-1.13a42.13,42.13,0,0,1-8-3c-.18-.09,0-.37.16-.26A25.7,25.7,0,0,0,947,643c2.25.45,4.59.74,6.85,1.26a107.78,107.78,0,0,0-6.7-8.79,50.13,50.13,0,0,1-16.37-1.22,66,66,0,0,1-8.37-2.61c-2.89-1.11-5.62-2.54-8.46-3.73-.21-.09-.06-.4.13-.28,4.88,3,11,4.48,16.59,5.43a103.61,103.61,0,0,0,15.53,1.28c-2.05-2.34-4.16-4.63-6.41-6.78-7.56-7.19-16.54-13.81-26.49-17.26C913.11,610.27,913.21,610,913.39,610Z"/><path class="cls-6" d="M936.81,610.15a44.36,44.36,0,0,1,3.53,5.16,28,28,0,0,1,2.53,6c0,.07-.08.11-.11.05-1-1.9-1.77-3.87-2.75-5.76a28.75,28.75,0,0,0-3.43-5.23C936.45,610.21,936.68,610,936.81,610.15Z"/><path class="cls-6" d="M910.05,623a29.59,29.59,0,0,0,5.9,2.47,54.33,54.33,0,0,0,6,1.61c.1,0,.07.18,0,.17a29.4,29.4,0,0,1-6.22-1.36,52.3,52.3,0,0,1-5.82-2.62C909.71,623.22,909.87,622.93,910.05,623Z"/><path class="cls-10" d="M983.17,646.82c.18,1.67,4.36-14.05,28.69-28,22.09-12.68,48.46-45.65,26.8-66.48C1021.17,535.51,975.1,572.17,983.17,646.82Z"/><path class="cls-6" d="M966.43,737a430.51,430.51,0,0,1,3.86-48.92,220,220,0,0,1,10.28-43.79c1.81-5.11,3.87-10.15,6.12-15.11a34.76,34.76,0,0,1,.1-5.78c.12-2.48.34-5,.57-7.42s.48-4.94.77-7.41.82-4.92.92-7.38c0-.22.36-.17.31.05a52.83,52.83,0,0,0-.87,7.84q-.29,3.57-.4,7.16c-.07,2.4-.06,4.79-.06,7.19,0,.86,0,1.78.08,2.7,2.29-4.84,4.74-9.59,7.39-14.23-1.65-10.09.49-20.63,2.55-30.49.05-.2.35-.11.31.09a85.35,85.35,0,0,0-1.61,15.63c-.09,4.14.1,8.29.12,12.43.58-1,1.16-2,1.76-3,3.16-5.15,6.53-10.2,10.11-15.1a23.68,23.68,0,0,1,.23-7.18,56.9,56.9,0,0,1,1.77-7.86q1.15-3.87,2.69-7.6c1.06-2.56,2.46-5,3.48-7.54.08-.22.4-.07.28.12a37.12,37.12,0,0,0-3,7.64,67.38,67.38,0,0,0-2,7.57c-.52,2.56-.94,5.12-1.3,7.71-.24,1.71-.39,3.49-.68,5.22a186.21,186.21,0,0,1,17-19.83c.15-.14.35.08.22.23a224.46,224.46,0,0,0-24.74,33.65l-.78,1.35c1.34-.84,2.88-1.5,4.14-2.2,2.36-1.31,4.72-2.62,7.1-3.9s4.6-2.5,6.89-3.77c1.18-.65,2.34-1.34,3.54-2a29.15,29.15,0,0,0,4.13-2.29c.18-.13.38.15.18.26-2.34,1.28-4.41,3.2-6.67,4.64s-4.59,2.85-7,4.17c-4.32,2.41-9,4.14-13.28,6.64q-4.43,7.76-8.19,15.88,3.88-2.49,7.91-4.73,2.58-1.46,5.2-2.84a25.66,25.66,0,0,0,4.9-3,.16.16,0,0,1,.22.23,46.54,46.54,0,0,1-9.35,6.5c-3.13,1.83-6.28,3.59-9.53,5.18q-3.92,8.55-7,17.41c-10.23,29-14,59.78-15.8,90.35-.53,9.12-.81,18.22-.92,27.35s.37,18.22.35,27.33c0,.27-.45.34-.48.06-1.1-8.08-1.29-16.3-1.64-24.44S966.24,745.25,966.43,737Z"/><path class="cls-6" d="M1010.63,605.7a117.14,117.14,0,0,0,12.93-6.69,136.51,136.51,0,0,0,12.27-7.79c.07-.05.15.06.09.11a102,102,0,0,1-11.79,8.24,116,116,0,0,1-13.35,6.4C1010.6,606.05,1010.44,605.77,1010.63,605.7Z"/><path class="cls-6" d="M1003.58,572.92c.36-1.42.81-2.8,1.28-4.18a.14.14,0,0,1-.06-.17c.31-.78.63-1.56,1-2.34,0-.1.08-.2.12-.28l.18-.44a0,0,0,0,1,.08,0c-.09.27-.16.54-.24.81a3.66,3.66,0,0,1-.13.44,115,115,0,0,0-3.61,16.52c0,.18-.29.18-.28,0A55.26,55.26,0,0,1,1003.58,572.92Z"/><polygon class="cls-8" points="940.72 742.85 942.46 763.42 947.77 826.18 1004.7 826.18 1010.01 763.42 1011.75 742.85 940.72 742.85"/><polygon class="cls-6" points="940.72 742.85 942.46 763.42 1010.01 763.42 1011.75 742.85 940.72 742.85"/><rect class="cls-8" x="935.13" y="734.59" width="82.2" height="19.74" transform="translate(1952.47 1488.92) rotate(180)"/><rect class="cls-11" x="688.79" y="680.91" width="25.92" height="101.11"/><rect class="cls-11" x="688.79" y="787.02" width="25.92" height="16.65"/><rect class="cls-11" x="688.79" y="808.66" width="25.92" height="10.27"/><rect class="cls-11" x="688.79" y="823.93" width="25.92" height="5.09"/><polygon class="cls-11" points="723.34 680.9 680.15 680.9 701.75 651.02 723.34 680.9"/><rect class="cls-11" x="740.37" y="648.77" width="25.92" height="133.25"/><rect class="cls-11" x="740.37" y="787.02" width="25.92" height="16.65"/><rect class="cls-11" x="740.37" y="808.66" width="25.92" height="10.27"/><rect class="cls-11" x="740.37" y="823.93" width="25.92" height="5.09"/><polygon class="cls-11" points="774.93 648.77 731.74 648.77 753.33 618.88 774.93 648.77"/><rect class="cls-11" x="791.96" y="616.64" width="25.92" height="165.38"/><rect class="cls-11" x="791.96" y="787.02" width="25.92" height="16.65"/><rect class="cls-11" x="791.96" y="808.66" width="25.92" height="10.27"/><rect class="cls-11" x="791.96" y="823.93" width="25.92" height="5.09"/><polygon class="cls-11" points="826.51 616.63 783.32 616.63 804.92 586.75 826.51 616.63"/><rect class="cls-11" x="843.54" y="584.5" width="25.92" height="197.52"/><rect class="cls-11" x="843.54" y="787.02" width="25.92" height="16.65"/><rect class="cls-11" x="843.54" y="808.66" width="25.92" height="10.27"/><rect class="cls-11" x="843.54" y="823.93" width="25.92" height="5.09"/><polygon class="cls-11" points="878.1 584.5 834.91 584.5 856.5 554.61 878.1 584.5"/><path class="cls-12" d="M436.64,761a11.4,11.4,0,1,1-11.4-11.4A11.41,11.41,0,0,1,436.64,761Z"/><path class="cls-13" d="M450.5,739.19a5.56,5.56,0,1,1-5.56-5.55A5.56,5.56,0,0,1,450.5,739.19Z"/><path class="cls-14" d="M694.35,755.45a5.56,5.56,0,1,1-5.55-5.56A5.55,5.55,0,0,1,694.35,755.45Z"/><path class="cls-15" d="M805.59,806.16A5.56,5.56,0,1,1,800,800.6,5.55,5.55,0,0,1,805.59,806.16Z"/><path class="cls-16" d="M797.07,822.4a6.63,6.63,0,0,1-6.62,6.62h-413a6.62,6.62,0,1,1,0-13.24A6.75,6.75,0,0,1,379,816a13.05,13.05,0,0,1,22.4-9.12l.12-.06q-.12-1.2-.12-2.43a24.66,24.66,0,0,1,35.5-22.15,17.6,17.6,0,0,1,34-5.35,24.61,24.61,0,0,1,20.87-11.52,25.16,25.16,0,0,1,4.71.45,33.37,33.37,0,0,1,54.65-31,6.62,6.62,0,0,1,5.88-3.59,6.69,6.69,0,0,1,2.54.5l6.2-165.61h36.38l6.2,165.61a6.69,6.69,0,0,1,2.54-.5,6.62,6.62,0,0,1,5.88,3.59,33.37,33.37,0,0,1,54.65,31,25.16,25.16,0,0,1,4.71-.45A24.64,24.64,0,0,1,697,776.85a17.6,17.6,0,0,1,34,5.35,24.67,24.67,0,0,1,35.51,22.15q0,1.23-.12,2.43l.12.06A13,13,0,0,1,788.87,816a6.83,6.83,0,0,1,1.58-.18A6.62,6.62,0,0,1,797.07,822.4Z"/><polygon class="cls-17" points="692.36 767.88 683.77 769.46 681.85 778.52 679.93 769.46 671.35 767.87 679.9 765.78 681.85 757.23 683.81 765.78 692.36 767.88"/><polygon class="cls-17" points="608.82 695.27 600.24 696.86 598.32 705.91 596.4 696.86 587.81 695.27 596.36 693.18 598.32 684.63 600.27 693.18 608.82 695.27"/><polygon class="cls-17" points="484.01 785.12 479.21 786 478.14 791.07 477.06 786 472.26 785.11 477.04 783.95 478.14 779.17 479.23 783.95 484.01 785.12"/><polygon class="cls-17" points="742.3 800.21 737.5 801.1 736.43 806.16 735.35 801.1 730.55 800.21 735.33 799.04 736.43 794.26 737.52 799.04 742.3 800.21"/><polygon class="cls-17" points="417.94 817.95 413.14 818.83 412.07 823.89 411 818.83 406.2 817.94 410.98 816.77 412.07 812 413.17 816.77 417.94 817.95"/><polygon class="cls-17" points="626.76 813.74 621.96 814.62 620.88 819.68 619.81 814.62 615.01 813.73 619.79 812.57 620.88 807.79 621.98 812.57 626.76 813.74"/><polygon class="cls-17" points="591.61 681.51 586.81 682.39 585.74 687.46 584.66 682.39 579.87 681.5 584.64 680.34 585.74 675.56 586.83 680.34 591.61 681.51"/><path class="cls-17" d="M753.65,811.16a1.39,1.39,0,0,0,0,2.78A1.39,1.39,0,0,0,753.65,811.16Z"/><path class="cls-17" d="M573,664a1.4,1.4,0,0,0,0,2.79A1.4,1.4,0,0,0,573,664Z"/><path class="cls-17" d="M454.31,817.94a1.4,1.4,0,0,0,0,2.79A1.4,1.4,0,0,0,454.31,817.94Z"/><path class="cls-17" d="M542.51,798.82a1.39,1.39,0,0,0,0,2.78A1.39,1.39,0,0,0,542.51,798.82Z"/><path class="cls-17" d="M718.8,786.13a1,1,0,0,0,0,2A1,1,0,0,0,718.8,786.13Z"/><path class="cls-17" d="M597.16,771.37a1,1,0,0,0,0,2A1,1,0,0,0,597.16,771.37Z"/><path class="cls-17" d="M508.12,752.14a1,1,0,0,0,0,2A1,1,0,0,0,508.12,752.14Z"/><path class="cls-17" d="M660.46,756.15c-3.44,0-3.44,5.34,0,5.34S663.89,756.15,660.46,756.15Z"/><path class="cls-17" d="M520.72,743.08c-3.43,0-3.43,5.34,0,5.34S524.16,743.08,520.72,743.08Z"/><path class="cls-18" d="M522,435.12c-1.3,0-49.84,22.4-52.71,77.57-2.64,50.72,32.43,98.88,36.95,95.69,5.54-3.9-3.88-35.5,6.89-71.65,3.82-12.81,20.54-24.19,20.54-24.19Z"/><path class="cls-19" d="M533.71,512.54a76.84,76.84,0,0,0-13.29,12c-7.22-16.11-20.68-46.2-29.38-65.69,14.21-16.44,30.26-23.69,31-23.69Z"/><path class="cls-18" d="M645.56,435.21c1.3,0,49.8,22.48,52.6,77.64,2.57,50.73-32.57,98.84-37.09,95.65-5.54-3.92,3.93-35.5-6.79-71.66-3.8-12.83-20.5-24.23-20.5-24.23Z"/><path class="cls-19" d="M676.7,459.14c-8.79,19.66-22.28,49.8-29.41,65.72a77.35,77.35,0,0,0-13.51-12.25l11.78-77.4C646.3,435.21,662.47,442.55,676.7,459.14Z"/><path class="cls-2" d="M620.5,562,547.26,562s-34.5-61.69-30.41-135.24c2.06-36.7,11.65-73.67,23.2-104.25,15.89-42.25,35.54-72.21,44.06-72.2s28.11,30,44,72.26c11.47,30.6,21,67.58,23,104.29C655.09,500.39,620.5,562,620.5,562Z"/><path class="cls-4" d="M627.81,417.32a42.23,42.23,0,1,1-42.2-42.26A42.22,42.22,0,0,1,627.81,417.32Z"/><path class="cls-18" d="M626.32,413a42.24,42.24,0,1,1-42.2-42.26A42.24,42.24,0,0,1,626.32,413Z"/><path class="cls-7" d="M613.38,413a29.29,29.29,0,1,1-29.29-29.29A29.29,29.29,0,0,1,613.38,413Z"/><path class="cls-2" d="M613.38,413a29.25,29.25,0,0,1-2,10.61l-16.69,16.69a29.35,29.35,0,0,1-18.45.91l36-36.05A28.93,28.93,0,0,1,613.38,413Z"/><path class="cls-2" d="M588.39,384l-33.27,33.27a29,29,0,0,1-.33-4.29,29.28,29.28,0,0,1,33.6-29Z"/><path class="cls-2" d="M609.72,398.81l-39.81,39.8a23.66,23.66,0,0,1-2.24-1.38l40.67-40.67C608.83,397.28,609.28,398,609.72,398.81Z"/><path class="cls-18" d="M628.09,322.55l-88-.06c15.89-42.25,35.54-72.21,44.06-72.2S612.22,280.28,628.09,322.55Z"/><path class="cls-7" d="M555.21,313.4a2.47,2.47,0,1,1-2.46-2.46A2.47,2.47,0,0,1,555.21,313.4Z"/><path class="cls-7" d="M570.88,313.41a2.47,2.47,0,1,1-2.47-2.46A2.47,2.47,0,0,1,570.88,313.41Z"/><path class="cls-7" d="M586.54,313.43a2.47,2.47,0,1,1-2.47-2.47A2.47,2.47,0,0,1,586.54,313.43Z"/><path class="cls-7" d="M602.2,313.44a2.47,2.47,0,1,1-2.46-2.47A2.47,2.47,0,0,1,602.2,313.44Z"/><path class="cls-7" d="M617.86,313.45A2.47,2.47,0,1,1,615.4,311,2.47,2.47,0,0,1,617.86,313.45Z"/><path class="cls-4" d="M555.11,550.72a2.47,2.47,0,1,1-2.46-2.47A2.45,2.45,0,0,1,555.11,550.72Z"/><path class="cls-4" d="M570.77,550.73a2.47,2.47,0,1,1-2.46-2.46A2.47,2.47,0,0,1,570.77,550.73Z"/><path class="cls-4" d="M586.43,550.74a2.47,2.47,0,1,1-2.46-2.46A2.47,2.47,0,0,1,586.43,550.74Z"/><path class="cls-4" d="M602.1,550.75a2.47,2.47,0,1,1-2.47-2.46A2.48,2.48,0,0,1,602.1,550.75Z"/><path class="cls-4" d="M617.76,550.77a2.47,2.47,0,1,1-2.47-2.47A2.47,2.47,0,0,1,617.76,550.77Z"/><polygon class="cls-18" points="613.74 584.05 554.18 584 551.4 561.99 616.55 562.04 613.74 584.05"/><polygon class="cls-19" points="616.55 562.04 615.17 572.76 552.47 570.41 551.41 562 616.55 562.04"/></g><g id="Layer_4" data-name="Layer 4"><ellipse class="cls-2" cx="176.7" cy="981.72" rx="133.66" ry="60.13"/><path class="cls-20" d="M230.35,962c7.34,15.29,38.52,22,28.74,26.9s-36.69,0-47.69-3.05-23.7-3.67-26.15-4.89,1.07-23.24,1.07-23.24Z"/><path class="cls-21" d="M158.93,310.48c-10-1.67-19.73,22.2-7.24,45.28,7.38,13.65,8.22,30.65,8.22,30.65l23.68-70.08Z"/><path class="cls-21" d="M222.46,310.06c4.18,31.35-4.17,50.58-9.61,51.41s-13-48.07-13-48.07Z"/><path class="cls-20" d="M143.52,965c6.12,19.56,7.95,22,3.67,25.07s-13.45,4.89-28.13,3.06-17.73-6.73-17.73-6.73-.61-23.85,3.67-28.74S143.52,965,143.52,965Z"/><path class="cls-22" d="M258.63,657.14s1.38,22,.92,25.22S247.17,697,243.5,700.25s-13.76,5-13.76,5L232.49,664l18.35-20.18Z"/><path class="cls-7" d="M261.38,651.64l1.38,16.05S244,672.27,238,669.52s4.13-17.42,4.13-17.42Z"/><path class="cls-23" d="M242.92,419.58c14.79,16.4,18,129.33,18,149.51s4.59,90.34,3.67,93.1-33,3.66-33,3.66Z"/><path class="cls-24" d="M238,577.34s.92,124.74-1.83,210c-2.13,66.07-.92,180.69-.92,180.69s-13.76,5.51-24.76,3.67S183,968.07,183,968.07s-14.67-144-18.34-170.6S137.1,590.18,141.69,590.18,238,577.34,238,577.34Z"/><path class="cls-25" d="M141.69,590.18c4.58,0,94.16-14.67,94.16-14.67s2.45,50,2,118.32c-25,100-42.88,213.4-46.27,275.26-5-.61-8.61-1-8.61-1s-14.67-144-18.34-170.6S137.1,590.18,141.69,590.18Z"/><path class="cls-24" d="M107.57,575.78c-13.14,68-12,390.56-12,390.56s18.41,11.21,32.63,10.49c10.12-.51,20.46-6.52,20.46-6.52s27-215.55,35.32-262,12.89-115.15,12.89-115.15Z"/><path class="cls-26" d="M158.66,397.57c-28.9,6-56.41,18.34-58.25,20.18s2.75,129.33,2.75,162.35c0,37.74,98.15,38.21,122,22.62C252.28,585,237.08,480.12,237.08,459S233,423.71,233,423.71s-44-20.18-50-22.47S158.66,397.57,158.66,397.57Z"/><path class="cls-27" d="M206.81,415.91c.31,30.27-8.06,74.79-8.87,72.46-7.64-22-28.43-62.67-30.57-73.37C181.43,420.81,206.81,415.91,206.81,415.91Z"/><path class="cls-22" d="M168.62,413.22c3.24,2.1,11,5.75,18.93,5.75,4.8,0,8.1-4.74,8.37-12l3.66-38.79a11,11,0,0,0-9.92-12l-15.52-1.46c-6-.57-12.32-19.49-12.89-13.47l-2.55,59.91C158.13,407.25,162.17,409,168.62,413.22Z"/><path class="cls-28" d="M160.25,364.8l1-23.49c.57-6,6.86,12.9,12.89,13.47l15.52,1.46a11,11,0,0,1,9.92,12L196.49,401C181.55,400.48,167.26,383.79,160.25,364.8Z"/><path class="cls-22" d="M161.44,345.87c3.63,19.52,6.16,36.91,40.13,38.45,12.26.56,17.28-19.72,17.55-39.57.28-20.06-3.06-39.57-28.14-39.57C170.91,305.18,157.82,326.36,161.44,345.87Z"/><path class="cls-29" d="M189.38,438.54c-5.2-3.67-6.11-15.29-6.11-15.29l3.55-5.42c2.19,0,4.33-.11,6.35-.25l5.69,4.45c-.31,9.48-3.42,13.78-2.45,16.2,2.23,5.57,4.91,15.43,6.67,24.16-2.23,15.63-4.71,27.2-5.14,26-2.55-7.35-6.58-16.8-10.88-26.51C188,453.43,189.06,443.47,189.38,438.54Z"/><g class="cls-30"><path class="cls-31" d="M198.13,502a3,3,0,0,0,2.3-1.41c2.47-3.22,14.86-59,13.72-86.13l-1.84.08c1.18,28.08-11.45,82.45-13.34,84.93-.41.54-.73.72-.87.7-.57-.07-1.35-1.8-1.65-2.45-.1-.24-.2-.45-.29-.62s-1.7-4-3.85-9.18c-8.13-19.48-27.17-65.1-30.81-70.93l-1.56,1c3.56,5.69,22.57,51.22,30.68,70.66,2.59,6.21,3.75,9,3.9,9.29.08.15.17.34.26.55.6,1.33,1.51,3.33,3.11,3.52Z"/></g><path class="cls-7" d="M197.47,390.58l6.6,10.55,3.33,10.94s-.28,19.13-3.65,19.74-13.14-12.23-13.14-12.23-6.89,20.46-9.79,18.65c-13.26-8.26-24.29-23.6-26.9-28.74-3-6-5.1-9.68-5.1-9.68s9.45-17.2,10.67-17.2c.76,4.13,21.59,28.87,25.92,28.87,2.9,0,7.79.48,8.56-1.37C196.11,404.91,197.47,390.58,197.47,390.58Z"/><path class="cls-21" d="M157.89,384.43c-2.95.45-11,5.7-22.32,11.92-.82.45-2.52,4.43-3.36,4.89-18.66,10.32-40.66,19.57-40.66,19.57S94,551.66,94,578.57s-2.44,89.88-2.44,89.88,14.12,6.21,36.07,9.18c22.63,3,37.91,4.89,37.91,4.89s7.34-89.28.62-167.55S157.89,384.43,157.89,384.43Z"/><path class="cls-21" d="M197.47,390.58c25.07,47.7,20.65,74.56,21.87,118s2.6,168.31,2.6,168.31,17.58-3.21,20.64-5,4.28-221.36,1.83-236.64L242,419.89,219,407.66l-3.36-5.5Z"/><path class="cls-32" d="M168.29,624.73l-75.43,6.06c.58-18.46,1.13-39.42,1.13-52.22,0-26.91-4.58-158.07-4.58-158.07s24.14-8.94,42.8-19.26a6.27,6.27,0,0,0,1.35-1.87l.18.34-4.89,33,15.28,15-12.23,7s26.6,70.63,30.88,105.79S168.29,624.73,168.29,624.73Z"/><path class="cls-33" d="M215.68,402.16l3.36,5.5,23.88,11.92s.12,3.14,1.8,15.67c1.43,10.63,1.32,117.63.11,183.07-9.55-4.26-18.35-9.36-18.76-13.77-.92-9.78,3.67-56.25,4.59-84.07S234.94,448,234.94,448l-12.23-4.59,6.42-12.23a38.59,38.59,0,0,1-3.67-7.95A117.64,117.64,0,0,0,215.68,402.16Z"/><path class="cls-23" d="M94,425.55c30.73,14.21,41.74,81.63,44.49,116.94,2.36,30.35-4.61,136-10.86,135.14-22-3-36.07-9.18-36.07-9.18s2.44-63,2.44-89.88c0-23.55-1.87-126.75-2.34-152.12Z"/><path class="cls-34" d="M107.75,660.2s2,24.78,1.53,30.27c-1.22,15.13-8.41,10.47-8.41,10.47l-2.75-31.19Z"/><path class="cls-35" d="M42.08,787l92.35,24.62c13.07,0,24.76-4.58,25-9.2V719.56a6.31,6.31,0,0,0-5.34-6.23L42.71,696.5c-9.58.71-23.85,4.55-23.85,8.42v79.41C18.86,787.44,39,786.51,42.08,787Z"/><path class="cls-20" d="M38.35,697.65l111.37,17.74a6.31,6.31,0,0,1,5.34,6.24v82.84a5.67,5.67,0,0,1-2.23,3.84,49.63,49.63,0,0,1-18.4,3.3L42.08,787c-3.07-.48-23.22.45-23.22-2.66V705.51C21,702,30,698.27,38.35,697.65Z"/><path class="cls-36" d="M27,792.27l88.21,15c19.5,5.73,28.9,5,29.13.42V724.84A6.32,6.32,0,0,0,139,718.6L27.57,700.86c-9.57.7-8.25,6.68-8.25,10.55L21.38,780C21.38,783.08,23.88,791.79,27,792.27Z"/><path class="cls-35" d="M23.23,793.33l111.26,18.41a5.72,5.72,0,0,0,6.59-5.65V725.47a5.72,5.72,0,0,0-4.84-5.64L25,701.43a5.71,5.71,0,0,0-6.59,5.64v80.62A5.7,5.7,0,0,0,23.23,793.33Z"/><path class="cls-37" d="M139.11,711.1c.69-3.21-2.56-3.18-6.94-3.67-3.09-.34-4.24-.28-5.39.41s-11.81,4.41-12.72,6.47-.46,2.18-.46,2.18,12.34,2.18,13.26,1.72S139.11,711.1,139.11,711.1Z"/><path class="cls-7" d="M136.3,709.61c-7.34,4.13-8.71,4.47-9.75,5.28s-.91,2.75-.91,2.75-10.09-1.15-9.86-1.84,10.66-.57,6.88-1.26-2.3-1.6-2.3-1.6a45.33,45.33,0,0,1,6.65-2.52A23,23,0,0,1,136.3,709.61Z"/><path class="cls-37" d="M62.2,699.26c.68-3.21-2.55-2.63-6.88-3.44-1.84-.35-4.7-.23-5.85.45S39.9,699.49,39,701.55s-.52,2.29-.52,2.29,11.47,2.29,12.39,1.84S62.2,699.26,62.2,699.26Z"/><path class="cls-7" d="M60.07,697.59c-6.07,3-8.19,3.84-9.22,4.65s-.92,2.75-.92,2.75-10.55-1.38-10.32-2.07,11.12-.34,7.34-1-3.67-1.26-3.67-1.26,3.32-1.37,8-2.86A15.65,15.65,0,0,1,60.07,697.59Z"/><path class="cls-36" d="M73.66,683.28c-8,6.88-12.23,14.22-14.06,16.36s-5.81,5-5.05,5.35a11.17,11.17,0,0,0,5.2.15c2-.46,14.22-10.39,18.19-11.31S73.66,683.28,73.66,683.28Z"/><path class="cls-22" d="M110.5,659.59c-2,8.27-3.24,19-5.5,23.39-7,13.75-1.53,19.33-1.38,21.17-3,3-26.29-2.22-30.42-5.43-10.52-8.18,2.68-32.87,2.68-32.87Z"/><path class="cls-7" d="M111,658.29l-1.38,19s-40.43-4.89-40.89-6.27S70,633.45,70,633.45Z"/><path class="cls-21" d="M89.41,420.65C79,446.34,70.12,551.2,69.38,584.22c-.76,34.09-2,80.87-2,80.87s39.14,3.67,44.64,3.67c2.75-2.06,5.35-40.51,9.94-98.3s-6.8-118.77-11.47-129.78C104.08,425.55,89.41,420.65,89.41,420.65Z"/><path class="cls-36" d="M113.27,714.24a.63.63,0,0,1-.64.21c-4.78-1.28-9.22-9.44-10.27-13.51a26.39,26.39,0,0,1-1-8.49c0-.63.69-3.49,1.07-3,1.46,2,4.1,5.76,6.65,9.17,5.12,6.88,13.52,10,13,10.17C116.34,711.15,114,713.44,113.27,714.24Z"/><path class="cls-35" d="M144.74,982.75c-15-6-35.46-.31-33,1.53S147.8,984,144.74,982.75Z"/><path class="cls-22" d="M167.52,340.28s-9.17-5.19-11.92.31,1.53,15,5.5,15.59a49.19,49.19,0,0,0,6.73.61Z"/><path class="cls-21" d="M159,312.93H159a.91.91,0,0,0,.83-.9c.15-10.68,7.24-14.49,7.31-14.53a.92.92,0,0,0-.85-1.63,16.5,16.5,0,0,0-7.1,9,34.24,34.24,0,0,1,1.09-8.31.92.92,0,0,0-1.76-.52,36.53,36.53,0,0,0-.51,16.13A.93.93,0,0,0,159,312.93Z"/><path class="cls-21" d="M222.46,319.67c13.38-38.45-30.35-38.79-47-27.88-13.76,9-17.27,20.94-17.27,20.94l1.43,25.34s6.27,1.67,7.66,13.09,5.57-.56,7.53-10-5.58-20.9-.84-20.06,11.42,5,26.19,8.08c18.38,3.81,20.62-5.85,20.62-5.85Z"/></g></g></svg>