<svg xmlns="http://www.w3.org/2000/svg" viewBox="0 0 694.73 278.3"><defs><style>.cls-1{fill:#f6b687;}.cls-2{fill:#2d4d9d;}.cls-3{fill:#2f1b31;}.cls-4{fill:#f79750;}.cls-5{fill:#030303;}.cls-6{fill:#98a7d5;}.cls-7{fill:#ddebe8;}.cls-8{fill:#456f8f;}.cls-14,.cls-9{fill:#ebebeb;}.cls-10{fill:#e6e6e6;}.cls-11{fill:#f1f0f0;}.cls-12,.cls-18,.cls-24{fill:#fff;}.cls-13{fill:#fafbfb;}.cls-14{opacity:0.6;}.cls-15{fill:#e0e0e0;}.cls-16{fill:#f5f5f5;}.cls-17,.cls-20,.cls-21{fill:#5274b8;}.cls-18{opacity:0.7;}.cls-19,.cls-20{opacity:0.8;}.cls-21,.cls-24{opacity:0.3;}.cls-22{fill:#fab176;}.cls-23{fill:#263238;}.cls-25{fill:#f6893f;}.cls-26{opacity:0.2;}.cls-27{fill:#2b488c;}.cls-28{opacity:0.5;}.cls-29{fill:#ec7e2a;}.cls-30{fill:#f89748;}.cls-31{fill:#db6b27;}.cls-32{fill:#ea863b;}.cls-33{fill:#243962;}.cls-34{fill:#fab17e;}.cls-35{fill:#b6473d;}.cls-36{fill:#ee985e;}.cls-37{fill:#2b4f97;}.cls-38{fill:#1e3e70;}.cls-39{fill:#fdb83f;}</style></defs><title>privacy policy</title><g id="Layer_7" data-name="Layer 7"><path class="cls-1" d="M581.49,161.78c-1.48,2.63-16.3,25.59-13.2,48.05L584.43,204l7.37-30.28Z"/><path class="cls-2" d="M645.92,152.36s-9.91-17.78-34-12.86S574.57,179,581.12,247.37c0,0,38.34-15.24,88.19-3C669.31,244.41,661.1,178.16,645.92,152.36Z"/><path class="cls-2" d="M664.33,145.18l-17,16.93s-43.48,11.75-55.56,11.61-16.83-9-16.83-9a64.37,64.37,0,0,1,30.82-23.44,60,60,0,0,1,6.08-1.81,62.27,62.27,0,0,1,10.78-1.56C644,136.67,664.33,145.18,664.33,145.18Z"/><path class="cls-3" d="M664.33,145.18c2.71,2.95-1.47,6.17-6.16,10.84s-9.52,7.4-10.8,6.09,1.47-6.16,6.15-10.84S663.08,143.83,664.33,145.18Z"/><path class="cls-1" d="M649.62,162.18s-.25-3.38,4-7.7a25.84,25.84,0,0,1,8-5.24,2.48,2.48,0,0,1,3.3,1.39l1.36,3.51-6.33,4.08Z"/><path class="cls-4" d="M619.65,224.9s52.33-28.35,71.08,2.58c13.89,22.9-7,44.23-84.4,42.06,0,0-7.65-3.58-5.79-22.17C601.28,240,619.65,224.9,619.65,224.9Z"/><path class="cls-4" d="M619.65,224.9s-69.7-28.55-83.49-10.7c-15.85,20.51-.65,55.34,72.82,42.89l8.95-9.72Z"/><path class="cls-5" d="M606.25,269.66c-8.6-6.13-5.88-22.16-5.85-22.32v-.08l.08,0L653.4,228l.1.27-52.83,19.23c-.2,1.25-2.38,16.14,5.75,21.94Z"/><path class="cls-3" d="M600.1,252.48s-12.85.52-18.88,3.48-2.81,10.18,9.44,10,11.32-2,11.32-2S599.65,257.6,600.1,252.48Z"/><path class="cls-1" d="M616.54,226.26A17,17,0,0,1,606,223.05a15.23,15.23,0,0,1-5.57-14.75l5.12-3c.25-1.41,10.13,3.81,10.12,3.81s4.71,1.36,20.9-6.91c11.27-5.76,17-13.94,17.37-25,.31-8.34-3.4-13-4.28-15-.12-.27,5.45-5.85,5.29-6.41l4.17-2.12c-.13-.48,4-2.12,3.95-2.25l3.22,2.74a53.58,53.58,0,0,1,4.53,23.73c-.45,12.08-5.44,28.75-26.62,39.57C632.61,223.34,623.55,226.26,616.54,226.26Z"/><path class="cls-6" d="M613.1,226.94H567.94a2.2,2.2,0,0,1-2.08-1.49l-9.39-28a2.19,2.19,0,0,1,2.09-2.87H602a4.6,4.6,0,0,1,4.36,3.13l8.84,26.39A2.19,2.19,0,0,1,613.1,226.94Z"/><path class="cls-6" d="M610.27,226.94H565.11a2.2,2.2,0,0,1-2.09-1.49l-9.38-28a2.19,2.19,0,0,1,2.08-2.87h43.43a4.59,4.59,0,0,1,4.36,3.13l8.84,26.39A2.18,2.18,0,0,1,610.27,226.94Z"/><path class="cls-7" d="M578.63,209.83c0-1.06,1.22-1.5,2.29-1.5s2.83,1.17,2.81,2.66-1.26,1.82-2.34,1.82A3.54,3.54,0,0,1,578.63,209.83Z"/><path class="cls-6" d="M565.09,223H628a1.47,1.47,0,0,1,1.47,1.47v1.75a.75.75,0,0,1-.75.75H565.09a0,0,0,0,1,0,0v-4a0,0,0,0,1,0,0Z"/><path class="cls-8" d="M607.06,208.72c0-.08-2.24-8.39-3.67-11a6.15,6.15,0,0,0-3.18-3.06l.08-.28c.08,0,1.88.54,3.35,3.2s3.61,10.69,3.7,11Z"/><path class="cls-8" d="M613.73,223.13c-1.67,0-2.09-.74-2.11-.77l-3.52-10.54.27-.09,3.52,10.51h0s.38.59,1.84.59Z"/><path class="cls-1" d="M623,137.9c-3-.09-5.21-.4-6.92-2.4l-5.28-6.22-1.54-1.81-9-10.63L605,129.28l2.85,7.46.9,2.36c.61,1.61-.2,2.35-.77,4.23-.23.76-1.79,5.44,2.27,5.47,5.06,0,11.46-5.84,12.86-10.92Z"/><path class="cls-3" d="M612.29,125.29s10-9.57,4.21-17.64-7.18,13-7.18,13l1.6,4.86Z"/><path class="cls-3" d="M610.77,129.07c0,.07,0,.14.05.21.92,4.2-3,7.47-3,7.47h0L605,129.28c1.21-.91,3-2,4.29-1.81C610,127.58,610.5,128,610.77,129.07Z"/><path class="cls-1" d="M589.69,123.87c-2.24-7.48.92-15.06,7.06-16.94s12.94,2.66,15.18,10.13-.91,15.07-7,16.95S591.94,131.35,589.69,123.87Z"/><path class="cls-3" d="M609.83,116s-3.17,2.31-5.83.36-4.54-3.79-10.49-.8-12.46,1.65-13.66-1.72,1.63-6,5.37-5.79-.79-1.88,1.81-5.42,9.19.1,12.46-1.65,14.91-3.29,17,6.69Z"/><path class="cls-1" d="M612.31,118a2.39,2.39,0,0,1-3.27.89,2.46,2.46,0,0,1-.51-3.39,2.4,2.4,0,0,1,3.28-.88A2.44,2.44,0,0,1,612.31,118Z"/><rect class="cls-3" x="581.28" y="167.9" width="8.53" height="0.72" transform="translate(242.54 671.77) rotate(-71.77)"/><rect class="cls-9" x="-4.5" y="239.05" width="360.16" height="0.18"/><path class="cls-9" d="M166.23,206.92H27.13A4.12,4.12,0,0,1,23,202.81V7.29a4.12,4.12,0,0,1,4.11-4.11h139.1a4.12,4.12,0,0,1,4.11,4.11V202.81A4.12,4.12,0,0,1,166.23,206.92ZM27.13,3.36A3.94,3.94,0,0,0,23.2,7.29V202.81a3.94,3.94,0,0,0,3.93,3.93h139.1a3.93,3.93,0,0,0,3.93-3.93V7.29a3.93,3.93,0,0,0-3.93-3.93Z"/><path class="cls-9" d="M322,206.92H182.94a4.11,4.11,0,0,1-4.11-4.11V7.29a4.12,4.12,0,0,1,4.11-4.11H322a4.12,4.12,0,0,1,4.11,4.11V202.81A4.11,4.11,0,0,1,322,206.92ZM182.94,3.36A3.93,3.93,0,0,0,179,7.29V202.81a3.93,3.93,0,0,0,3.93,3.93H322a3.93,3.93,0,0,0,3.93-3.93V7.29A3.93,3.93,0,0,0,322,3.36Z"/><rect class="cls-9" x="32.44" y="245.91" width="18.73" height="0.18"/><rect class="cls-9" x="100.06" y="243.95" width="32.43" height="0.18"/><rect class="cls-9" x="51.89" y="252.6" width="43.79" height="0.18"/><rect class="cls-9" x="304.87" y="251.39" width="13.86" height="0.18"/><rect class="cls-9" x="258.63" y="251.39" width="39.83" height="0.18"/><rect class="cls-9" x="180.66" y="248.34" width="53.64" height="0.18"/><polygon class="cls-10" points="117.7 176.57 78.38 176.57 76 149.04 115.31 149.04 117.7 176.57"/><polygon class="cls-11" points="119.73 176.57 80.42 176.57 78.03 149.04 117.35 149.04 119.73 176.57"/><polygon class="cls-12" points="85.79 170.66 84.48 154.95 111.97 154.95 113.28 170.66 85.79 170.66"/><rect class="cls-10" x="137.27" y="176.57" width="5.61" height="62.47"/><rect class="cls-11" x="140.76" y="176.57" width="3.9" height="62.47"/><rect class="cls-11" x="90.34" y="176.57" width="54.32" height="6.9" transform="translate(234.99 360.04) rotate(180)"/><rect class="cls-10" x="86.64" y="183.47" width="5.61" height="55.58"/><rect class="cls-11" x="90.13" y="183.47" width="3.9" height="55.58"/><rect class="cls-10" x="46.7" y="183.47" width="5.61" height="55.58"/><rect class="cls-11" x="50.18" y="183.47" width="3.9" height="55.58"/><rect class="cls-10" x="101.76" y="183.47" width="5.61" height="55.58"/><rect class="cls-11" x="105.24" y="183.47" width="3.9" height="55.58"/><rect class="cls-10" x="46.7" y="176.57" width="43.64" height="6.9"/><rect class="cls-10" x="45.21" y="22.96" width="162.96" height="93.48"/><rect class="cls-11" x="47.24" y="22.96" width="165.28" height="93.48"/><rect class="cls-10" x="45.21" y="116.45" width="162.96" height="8.09"/><rect class="cls-11" x="54.5" y="116.45" width="165.28" height="8.09"/><rect class="cls-13" x="89.24" y="-6.84" width="81.29" height="153.08" transform="translate(199.59 -60.18) rotate(90)"/><polygon class="cls-12" points="64.59 110.35 100.38 29.06 117.27 29.06 81.48 110.35 64.59 110.35"/><path class="cls-11" d="M56.16,104.28a.44.44,0,0,1-.43-.44V33a.44.44,0,0,1,.43-.44.44.44,0,0,1,.44.44v70.81A.44.44,0,0,1,56.16,104.28Z"/><polygon class="cls-12" points="85.11 110.35 120.9 29.06 127.49 29.06 91.7 110.35 85.11 110.35"/><rect class="cls-10" x="165.39" y="69.32" width="81.29" height="0.77" transform="translate(275.74 -136.33) rotate(90)"/><polygon class="cls-14" points="213.96 38.26 51.01 38.26 50.44 31.43 213.4 31.43 213.96 38.26"/><polygon class="cls-14" points="213.96 49.45 51.01 49.45 50.44 42.62 213.4 42.62 213.96 49.45"/><polygon class="cls-14" points="213.96 60.64 51.01 60.64 50.44 53.82 213.4 53.82 213.96 60.64"/><polygon class="cls-14" points="213.96 71.83 51.01 71.83 50.44 65.01 213.4 65.01 213.96 71.83"/><polygon class="cls-14" points="213.96 83.02 51.01 83.02 50.44 76.2 213.4 76.2 213.96 83.02"/><polygon class="cls-14" points="213.96 94.22 51.01 94.22 50.44 87.39 213.4 87.39 213.96 94.22"/><rect class="cls-9" x="258.72" y="22.96" width="43.88" height="43.88" transform="translate(561.33 89.81) rotate(180)"/><rect class="cls-15" x="256.78" y="22.96" width="1.95" height="43.88"/><rect class="cls-12" x="264.67" y="28.91" width="31.99" height="31.99" transform="translate(561.33 89.81) rotate(180)"/><rect class="cls-16" x="273.09" y="37.33" width="15.14" height="15.14" transform="translate(510.87 -121.8) rotate(135)"/><rect class="cls-9" x="243.6" y="80.66" width="43.88" height="43.88" transform="translate(531.09 205.2) rotate(180)"/><rect class="cls-15" x="241.66" y="80.66" width="1.95" height="43.88"/><rect class="cls-12" x="249.55" y="86.61" width="31.99" height="31.99" transform="translate(531.09 205.2) rotate(180)"/><rect class="cls-16" x="258.72" y="95.78" width="13.64" height="13.64" rx="6.31" transform="translate(531.09 205.2) rotate(180)"/><rect class="cls-11" x="206.22" y="145.86" width="10.94" height="90.24"/><rect class="cls-11" x="207.74" y="236.1" width="105.07" height="2.95"/><rect class="cls-13" x="217.16" y="145.86" width="97.16" height="90.24" transform="translate(531.48 381.97) rotate(180)"/><path class="cls-11" d="M295.3,198.59H236.18a10.52,10.52,0,0,1,0-21H295.3a10.52,10.52,0,0,1,0,21Zm-59.12-20.34a9.82,9.82,0,0,0,0,19.64H295.3a9.82,9.82,0,0,0,0-19.64Z"/><path class="cls-11" d="M295.3,224.77H236.18a10.52,10.52,0,0,1,0-21H295.3a10.52,10.52,0,0,1,0,21Zm-59.12-20.34a9.82,9.82,0,0,0,0,19.64H295.3a9.82,9.82,0,0,0,0-19.64Z"/><path class="cls-9" d="M274.66,185.8H256.82a2.2,2.2,0,0,1-2.19-2.2h0a2.2,2.2,0,0,1,2.19-2.19h17.84a2.2,2.2,0,0,1,2.2,2.19h0A2.21,2.21,0,0,1,274.66,185.8Z"/><path class="cls-11" d="M295.3,172.41H236.18a10.52,10.52,0,0,1,0-21H295.3a10.52,10.52,0,0,1,0,21Zm-59.12-20.34a9.82,9.82,0,0,0,0,19.64H295.3a9.82,9.82,0,0,0,0-19.64Z"/><path class="cls-9" d="M274.66,159.62H256.82a2.2,2.2,0,0,1-2.19-2.2h0a2.2,2.2,0,0,1,2.19-2.19h17.84a2.2,2.2,0,0,1,2.2,2.19h0A2.21,2.21,0,0,1,274.66,159.62Z"/><path class="cls-9" d="M274.66,212H256.82a2.2,2.2,0,0,1-2.19-2.19h0a2.2,2.2,0,0,1,2.19-2.2h17.84a2.21,2.21,0,0,1,2.2,2.2h0A2.2,2.2,0,0,1,274.66,212Z"/><rect class="cls-11" x="217.16" y="141.28" width="99.15" height="4.59"/><rect class="cls-10" x="204.08" y="141.28" width="13.09" height="4.59" transform="translate(421.24 287.14) rotate(180)"/><ellipse id="_Path_" data-name="&lt;Path&gt;" class="cls-16" cx="175.58" cy="263.42" rx="139.66" ry="8.16"/><path class="cls-17" d="M293.46,70.37H184.89s-19.56,18-19.56,61.79c0,37.65,14.83,88.7,9.26,109.6-4.19,15.77-24.56,18.47-34.31,18.85H243.61s34,2.05,39.55-18.85-9.26-71.95-9.26-109.6C273.9,88.35,293.46,70.37,293.46,70.37Z"/><path class="cls-18" d="M293.46,70.37H184.89s-19.56,18-19.56,61.79c0,37.65,14.83,88.7,9.26,109.6-4.19,15.77-24.56,18.47-34.31,18.85H243.61s34,2.05,39.55-18.85-9.26-71.95-9.26-109.6C273.9,88.35,293.46,70.37,293.46,70.37Z"/><g class="cls-19"><path class="cls-20" d="M263.92,116.54H177.09c2.46-19.26,9.08-30.47,12.73-35.36h83.69A109.5,109.5,0,0,0,263.92,116.54Z"/><path class="cls-21" d="M263.19,126.76H176.24c.08-1.75.18-3.45.32-5.1h86.9Q263.28,124.15,263.19,126.76Z"/><path class="cls-21" d="M203.51,137H176.22c-.05-1.62-.08-3.22-.08-4.8v-.28h27.29v.28C203.43,133.74,203.46,135.35,203.51,137Z"/><path class="cls-21" d="M263.71,147.17H176.83c-.15-1.71-.28-3.41-.37-5.08h86.92C263.47,143.77,263.58,145.46,263.71,147.17Z"/><path class="cls-21" d="M264.67,157.39H177.86c-.2-1.71-.39-3.41-.56-5.1h86.85C264.3,154,264.48,155.69,264.67,157.39Z"/><path class="cls-21" d="M265.92,167.59H179.17c-.24-1.7-.46-3.4-.68-5.08h86.79C265.48,164.2,265.69,165.89,265.92,167.59Z"/><path class="cls-21" d="M267.36,177.8H180.65c-.26-1.7-.51-3.39-.75-5.09h86.73C266.87,174.41,267.11,176.11,267.36,177.8Z"/><path class="cls-21" d="M268.89,188h-86.7c-.14-.93-.28-1.87-.43-2.81-.11-.76-.23-1.52-.34-2.28h86.7C268.38,184.62,268.63,186.32,268.89,188Z"/><path class="cls-21" d="M183.7,198.22c-.24-1.68-.48-3.37-.74-5.09h86.71c.25,1.7.51,3.4.76,5.09Z"/><path class="cls-21" d="M185.08,208.43c-.21-1.67-.43-3.37-.66-5.09h72.32c.24,1.72.47,3.42.69,5.09Z"/><path class="cls-21" d="M186.14,218.64c-.13-1.66-.29-3.36-.47-5.09h86.81c.19,1.74.37,3.44.53,5.09Z"/><path class="cls-21" d="M186.64,228.85c0-1.64-.07-3.34-.16-5.09h45.81c.11,1.78.18,3.48.2,5.09Z"/></g><path class="cls-17" d="M252,255.1c-5.52,1-11.1.23-16.64,0a44.22,44.22,0,0,0-8,.21c-2.59.34-5.17,1-7.78.79a14.06,14.06,0,0,0,2.43-1.65c.17-.14,0-.39-.12-.45-8.13-2.85-15.54,4.92-23.64,3.1,2.29-1.7,5.53-1.74,7.49-4a.27.27,0,0,0-.19-.46c-7.26-.11-14.11,2.7-21.28,3.33-.35,0-.35.57,0,.54,6.95-.61,13.61-3.26,20.62-3.32-2.09,1.87-5.29,1.94-7.43,3.82a.28.28,0,0,0,.12.45c8.17,2.26,15.6-5.53,23.67-3.12A14.32,14.32,0,0,1,218.5,256a.27.27,0,0,0,.06.49c2.66.45,5.26-.12,7.88-.54a43.15,43.15,0,0,1,8.87-.34c5.6.27,11.22,1,16.78,0C252.43,255.56,252.29,255,252,255.1Z"/><path class="cls-22" d="M104.9,97c.46.58,1,1.27,1.57,1.9s1.12,1.28,1.7,1.9c1.16,1.23,2.33,2.46,3.57,3.58a32.37,32.37,0,0,0,7.91,5.55c.35.16.7.3,1,.43l.49.17.48.14a12.26,12.26,0,0,0,2.11.33,23.71,23.71,0,0,0,4.77-.27,44.83,44.83,0,0,0,5-1.06c1.65-.43,3.35-1,4.93-1.52l1.46,2.85a40.23,40.23,0,0,1-10.3,4.58,24.26,24.26,0,0,1-5.88,1,16.13,16.13,0,0,1-3.22-.21c-.27,0-.55-.11-.83-.18a7.73,7.73,0,0,1-.8-.21c-.5-.15-1-.32-1.47-.5a33.83,33.83,0,0,1-9.91-6.26,52.38,52.38,0,0,1-4.09-3.93c-.64-.69-1.26-1.39-1.87-2.11s-1.19-1.42-1.81-2.27Z"/><path class="cls-17" d="M97.58,94.91C97.42,99,99,106.22,99,106.22L109,105s.37-10.64-1.57-13.22C104.15,87.47,97.73,91.1,97.58,94.91Z"/><path class="cls-22" d="M137.13,109.14l4.68-4.28.59,4.61s-1.93,2.6-4.13,1.51Z"/><polygon class="cls-22" points="144.16 105.11 146.14 107.71 142.41 109.47 141.81 104.86 144.16 105.11"/><path class="cls-23" d="M143,93.45c.49,0,.76,0,1.12,0a2.72,2.72,0,0,1,.45,0l.38,0a2,2,0,0,1,.89.36,1,1,0,0,1,.24.53l.17.55.67,2.18,1.34,4.38,2.67,8.74c1.76,5.84,3.6,11.66,5.3,17.51,3.5,11.68,6.81,23.41,10,35.16s6.3,23.54,9.44,35.32,6,23.63,7,36a3.57,3.57,0,0,1-6.81,1.76c-5.12-11.26-8.46-23-11.39-34.81s-6-23.61-8.9-35.46-5.66-23.7-8.28-35.61c-1.35-5.94-2.57-11.92-3.87-17.88l-1.91-9-1-4.47-.48-2.24-.12-.56a1,1,0,0,1,0-.57,1.8,1.8,0,0,1,.61-.75l.3-.23a3.25,3.25,0,0,1,.38-.24,9.86,9.86,0,0,1,1-.55A2.16,2.16,0,0,1,143,93.45Z"/><path class="cls-17" d="M182,236a.79.79,0,0,0-.94-.55l-1.59.41-1.58.42a.77.77,0,0,0-.56.93c1,4.53,0,7.78,1.06,11.77,1.08,4.2,5.82,6.35,5.82,6.35l-.16-1.79.74,1.64s3.09-4.18,2-8.38C185.73,242.81,183.3,240.44,182,236Z"/><path class="cls-24" d="M182,236a.79.79,0,0,0-.94-.55l-1.59.41-1.58.42a.77.77,0,0,0-.56.93c1,4.53,0,7.78,1.06,11.77,1.08,4.2,5.82,6.35,5.82,6.35l-.16-1.79.74,1.64s3.09-4.18,2-8.38C185.73,242.81,183.3,240.44,182,236Z"/><path class="cls-23" d="M183.2,246.41a1,1,0,1,1-1.21-.71A1,1,0,0,1,183.2,246.41Z"/><path class="cls-23" d="M184.08,253.76a.24.24,0,0,1-.28-.16L182,246.72a.23.23,0,0,1,.44-.12l1.78,6.89A.22.22,0,0,1,184.08,253.76Z"/><path class="cls-17" d="M178.25,211.25l-9.71,2.52a1.06,1.06,0,0,1-1.28-.75h0a1.06,1.06,0,0,1,.75-1.28l9.71-2.51A1,1,0,0,1,179,210h0A1,1,0,0,1,178.25,211.25Z"/><path class="cls-23" d="M129,79.43c-.17.43-.09.88.2,1s.65-.13.82-.56.09-.88-.19-1S129.13,79,129,79.43Z"/><path class="cls-23" d="M129.65,78.83l1.16.15S130,79.57,129.65,78.83Z"/><path class="cls-25" d="M129.15,80a12.9,12.9,0,0,0,.44,3.44,2,2,0,0,1-1.66-.38Z"/><path class="cls-23" d="M130.7,76.79a.34.34,0,0,1-.12-.06,2.27,2.27,0,0,0-2-.56.27.27,0,1,1-.14-.53,2.8,2.8,0,0,1,2.45.67.28.28,0,0,1,0,.39A.28.28,0,0,1,130.7,76.79Z"/><path class="cls-22" d="M113.69,79.2c.31,3.51-.87,9.25-3.51,11.21,0,0,2,3.68,8.38,4.54,7,.94,3.73-3,3.73-3-3.74-1.42-3.34-4.23-2.39-6.8Z"/><path class="cls-22" d="M132.83,97.92c.55,3.27,1.23,6.67,1.95,10,.37,1.65.76,3.3,1.21,4.93s.89,3.24,1.39,4.83c.27.78.51,1.58.8,2.35l.43,1.15.11.29,0,.08.06.13a1.1,1.1,0,0,0,.67.53,6.2,6.2,0,0,0,1.77.33,20.83,20.83,0,0,0,4.61-.37c1.6-.29,3.27-.68,4.84-1.11L152,124a26.27,26.27,0,0,1-2.45,1.29c-.83.4-1.67.77-2.54,1.09a21.62,21.62,0,0,1-5.66,1.35,10.63,10.63,0,0,1-3.4-.23,6.8,6.8,0,0,1-3.66-2.21,6.14,6.14,0,0,1-.67-1,4.74,4.74,0,0,1-.26-.5l-.15-.32-.56-1.26c-.37-.84-.69-1.69-1-2.54-.62-1.7-1.21-3.41-1.73-5.12s-1-3.44-1.41-5.17c-.86-3.47-1.55-6.91-2.08-10.51Z"/><path class="cls-22" d="M150,121.23l2.78-2.21,1.25,4.29s-3.8,2.75-4.82-.49Z"/><polygon class="cls-22" points="155.26 119.79 156.25 122.91 154 123.31 152.75 119.03 155.26 119.79"/><polygon class="cls-22" points="103.31 257.06 109.12 257.49 110.85 244.15 105.04 243.72 103.31 257.06"/><polygon class="cls-22" points="66.09 240.11 71.12 243.17 79.5 232.71 74.46 229.65 66.09 240.11"/><path class="cls-17" d="M74.63,244.71a.47.47,0,0,1-.21,0c-.74,0-1.57-1.13-2-1.79a.14.14,0,0,1,0-.15.15.15,0,0,1,.15-.06c.23.05,2.31.49,2.59,1.18a.48.48,0,0,1-.07.46A.85.85,0,0,1,74.63,244.71Zm-1.79-1.63c.61.86,1.19,1.37,1.59,1.38a.51.51,0,0,0,.42-.25.18.18,0,0,0,0-.2C74.74,243.65,73.66,243.28,72.84,243.08Z"/><path class="cls-17" d="M74.33,242.91a4.22,4.22,0,0,1-1.84.09.13.13,0,0,1-.09-.1.13.13,0,0,1,0-.13c0-.05,1.19-1.22,2-1.19a.75.75,0,0,1,.56.28.5.5,0,0,1,.08.61A1.41,1.41,0,0,1,74.33,242.91Zm-1.51-.13a2.91,2.91,0,0,0,2-.46c0-.06.07-.14,0-.28a.45.45,0,0,0-.36-.18A3.07,3.07,0,0,0,72.82,242.78Z"/><path class="cls-23" d="M72.63,242.05l-4.77-4.6a.46.46,0,0,0-.61,0l-4.08,3.15a.93.93,0,0,0,0,1.39c1.69,1.57,2.58,2.25,4.68,4.27,1.29,1.25,3.06,3.2,4.84,4.92s3.53.09,2.94-.78c-2.67-3.9-2.27-5.37-2.51-7.37A1.49,1.49,0,0,0,72.63,242.05Z"/><path class="cls-17" d="M111.65,257.68a9.61,9.61,0,0,1-1.83-.21.13.13,0,0,1,0-.25c.27-.14,2.63-1.33,3.32-.93a.43.43,0,0,1,.23.37.79.79,0,0,1-.27.67A2.25,2.25,0,0,1,111.65,257.68Zm-1.37-.4a3.8,3.8,0,0,0,2.6-.16.51.51,0,0,0,.17-.45.15.15,0,0,0-.08-.14C112.59,256.31,111.25,256.82,110.28,257.28Z"/><path class="cls-17" d="M109.85,257.48a.11.11,0,0,1-.08,0,.14.14,0,0,1-.06-.13c0-.1.28-2.48,1.58-2.48h.11c.38,0,.49.23.51.38.11.66-1.3,1.92-2,2.23Zm1.45-2.36c-.84,0-1.17,1.38-1.28,2,.73-.43,1.68-1.42,1.62-1.82,0,0,0-.12-.26-.15Z"/><path class="cls-23" d="M109.48,256.66H103a.47.47,0,0,0-.47.4l-.88,5.17a.9.9,0,0,0,.91,1c2.27,0,3.38-.17,6.25-.17,1.77,0,5.42.19,7.86.19s2.63-2.42,1.62-2.64c-4.53-1-6.29-2.33-7.79-3.62A1.51,1.51,0,0,0,109.48,256.66Z"/><polygon class="cls-26" points="110.85 244.15 109.89 251.57 104.14 250.6 105.03 243.72 110.85 244.15"/><polygon class="cls-26" points="74.46 229.65 79.5 232.71 76.03 237.04 70.88 234.11 74.46 229.65"/><path class="cls-17" d="M100.38,125.42l23.53,3.17c9.12-33,6.44-33.91,6.43-33.91a22.73,22.73,0,0,0-3.2-1.26c-1.11-.4-2.23-.77-3.36-1.1a60.56,60.56,0,0,0-6.9-1.61,59.87,59.87,0,0,0-13.7-.77,3.08,3.08,0,0,0-2.31,1.32,2.46,2.46,0,0,0-.25.45,3.21,3.21,0,0,0-.29,1.75C102.34,110.83,101.7,116.54,100.38,125.42Z"/><path class="cls-26" d="M126.21,104.8a19.62,19.62,0,0,0,1.27,10.12c1.56-6.45,2.41-10.84,2.83-13.83C128.52,101,126.65,101.64,126.21,104.8Z"/><path class="cls-17" d="M130.14,94.58c4,2.31,6.83,7.8,7.68,11l-8.59,7.86s-4.45-10.35-4.09-13.57S128.62,93.71,130.14,94.58Z"/><path class="cls-22" d="M115,72c-1.81,5.46-2.69,7.73-1.1,11.62,2.39,5.86,9.47,7.09,12.87,2.33,3.06-4.28,5.5-12.49,1.15-16.86A7.69,7.69,0,0,0,115,72Z"/><path class="cls-22" d="M123.91,76.8a5.28,5.28,0,0,0-.17,3.14c.36,1.45,1.45,1.56,2.11.63a3.89,3.89,0,0,0,.4-3.82C125.54,75.56,124.38,75.7,123.91,76.8Z"/><path class="cls-23" d="M116.92,65.16C113,63,106,69.32,104.27,79.65c-1.26,7.39,14.52,11,24.49,10.84-.66-1.74-4.8-7-2.16-12,1.92-3.66,4.11-2.82,4.26-7.08C131,66,123.92,62.4,116.92,65.16Z"/><path class="cls-23" d="M125.77,67.48c4.52-.44,9.07,4,5.7,8.44a7.18,7.18,0,0,0-5.94-1.43C123.47,74.94,125.77,67.48,125.77,67.48Z"/><path class="cls-27" d="M117.7,127.75s-9.14,38.63-13.41,60.82c-4.5,23.41-26.12,47.8-26.12,47.8l-7.35-4.1s13.61-22.26,18-44.12c9-44.37,2.89-53.31,11.54-62.72Z"/><polygon class="cls-17" points="78.89 237.06 69.73 231.94 71.06 229.24 81.35 233.97 78.89 237.06"/><path class="cls-26" d="M112.85,136.15c-7.11,6.16-6.34,28.06-5.6,37.92,3-14,6.57-29.64,8.67-38.68C115.17,134.83,114.15,135,112.85,136.15Z"/><path class="cls-27" d="M123.57,128.6s4.11,45.86,1.86,63.35c-2.33,18.2-14.2,57.78-14.2,57.78l-8.38-1.08s6.81-39.23,8-57.24c1.32-19.64-4.54-65.12-4.54-65.12Z"/><polygon class="cls-17" points="113.01 250.21 101.06 248.67 101.25 245.14 114.21 246.4 113.01 250.21"/><path class="cls-17" d="M100.17,124,98.89,126c-.1.15.08.34.35.37l24.68,3.32c.21,0,.4-.05.43-.18l.43-2.07c0-.14-.14-.29-.37-.32l-23.83-3.2A.44.44,0,0,0,100.17,124Z"/><path class="cls-28" d="M100.17,124,98.89,126c-.1.15.08.34.35.37l24.68,3.32c.21,0,.4-.05.43-.18l.43-2.07c0-.14-.14-.29-.37-.32l-23.83-3.2A.44.44,0,0,0,100.17,124Z"/><path class="cls-23" d="M103.09,127.08l-.63-.08c-.13,0-.22-.1-.2-.18l.58-2.67c0-.08.14-.13.27-.12l.63.09c.13,0,.22.1.2.17l-.58,2.68C103.34,127.05,103.22,127.1,103.09,127.08Z"/><path class="cls-23" d="M119.22,129.28l-.64-.08c-.13,0-.22-.1-.2-.18l.59-2.67c0-.08.13-.13.26-.11l.64.08c.12,0,.21.1.2.17l-.59,2.68C119.46,129.25,119.34,129.3,119.22,129.28Z"/><path class="cls-29" d="M410.67,69.24a66.07,66.07,0,0,0-66,63.83,1.09,1.09,0,0,1,0,.18,19.34,19.34,0,0,1,2.65-.18h7.1a56.26,56.26,0,0,1,112.44,0h9.74A66.08,66.08,0,0,0,410.67,69.24Z"/><path class="cls-29" d="M461.65,274.26H328.76a13.72,13.72,0,0,1-13.69-14.68l1.76-25.07.83-11.78,5.38-76.9a13.73,13.73,0,0,1,13.69-12.76H452.47a13.73,13.73,0,0,1,13.68,12.61l9.17,113.76A13.71,13.71,0,0,1,461.65,274.26Z"/><path class="cls-30" d="M490.5,274.26H357.61a13.73,13.73,0,0,1-13.69-14.68l8-113.75a13.71,13.71,0,0,1,13.68-12.76H481.33A13.72,13.72,0,0,1,495,145.68l9.17,113.76A13.71,13.71,0,0,1,490.5,274.26Z"/><path class="cls-31" d="M445.11,215.65A19.66,19.66,0,1,1,419,197.1V162.43a5,5,0,0,1,3.41-4.75,4.82,4.82,0,0,1,1.61-.27h2.92a5,5,0,0,1,5,5V197.1A19.65,19.65,0,0,1,445.11,215.65Z"/><path class="cls-32" d="M439,215.65a19.65,19.65,0,0,1-16.59,19.42,19.65,19.65,0,0,1-3.41-38V162.43a3.6,3.6,0,1,1,6.83,0V197.1A19.65,19.65,0,0,1,439,215.65Z"/><path class="cls-33" d="M490.58,122.23c-4.4,7.65-9.92,10.6-9.92,10.6h-23S493.93,116.39,490.58,122.23Z"/><path class="cls-34" d="M472.92,181.39a2.15,2.15,0,0,0-.38,2.28h0c.55,1.51,2.36,3.21,4.46,4.9.27.21.51.41.72.59l.16.15.12.11c2,1.81,1.23,2.22,4.75,5.89,4,4.18,6.79,4.26,7.58,3.88s-.69-2.54-2.19-5c-.07-.12-.14-.24-.22-.36l-.59-1c-1.76-3-1.31-4.41-.89-8.88.33-3.62,5.64-20.27,5.64-20.27l-7.7-1.33s-2.32,13.26-4.88,15.3c-1.36,1.09-2.89,1.1-4.21,1.91l-.27.17A10.11,10.11,0,0,0,472.92,181.39Z"/><path class="cls-33" d="M472.92,181.39a2.15,2.15,0,0,0-.38,2.28h0c.67,1.51,2.44,3.2,4.47,4.88l.71.61.16.15.12.11c2,1.81,1.23,2.22,4.75,5.89,4,4.18,6.79,4.26,7.58,3.88s-.69-2.54-2.19-5a17.06,17.06,0,0,1-7.17-5.28c-2.42-3.09-4-7-5.68-9.35l-.27.17A10.11,10.11,0,0,0,472.92,181.39Z"/><path class="cls-34" d="M535,176.58c.48,2.38,3.87,2,7.66,1.06s2.88.17,8.27-.42,7-2.61,7.19-3.41-2.52-1-5.37-1.29l-1.08-.13c-3.23-.41-5.59-2.49-8.52-4.2-2.77-1.61-6.92-8.21-6.92-8.21l-7.39.59s3.88,5.89,5.38,8.45a8.93,8.93,0,0,1,.73,5A9.74,9.74,0,0,0,535,176.58Z"/><path class="cls-33" d="M542.69,177.64c3.78-.93,2.88.17,8.27-.42s7-2.61,7.19-3.41-2.52-1-5.37-1.29l0,0A15.1,15.1,0,0,1,545,175c-3.65.09-7.53-1-10-.92a9.74,9.74,0,0,0,0,2.53C535.51,179,538.9,178.56,542.69,177.64Z"/><path class="cls-33" d="M506.71,129.32l-6.91,18.6-9,24.27a14.45,14.45,0,0,1-4.79-.44,20.75,20.75,0,0,1-4.64-2.25s2.51-26.07,7.18-41c1.2-3.84,2.54-7,4-8.7C499.8,111.21,506.71,129.32,506.71,129.32Z"/><path class="cls-27" d="M443.71,112s45.77-15.47,56-12.18,40.85,64.27,40.85,64.27A5.92,5.92,0,0,1,538,165.7c-1.75.66-6,.61-6,.61s-27.66-23.71-31-30.62-4.61-13.5-7.9-12.84c-2,.4-17.56,10-31.49,10H441.44c-8.71-9.39-6.27-24.27-6.27-24.27Z"/><path class="cls-35" d="M475.5,6.69a11,11,0,0,0-5.9-1.61,2.82,2.82,0,0,1,1.31-.51,9.35,9.35,0,0,0-3.38.61C453.7-1.42,449.82,19.4,449.74,24.3s-.48,10.52-7.94,14.34c-14.68,7.52-4,23.47-4,23.47s5.67,11.44,5.67,11.44c-.05-4,19.76-23.36,29.73-28.85,2.58-3.22,3.86-9.17,4-9.63-.77,4.73-1.79,7.34-2.64,8.78C483.11,37.08,480.5,10.07,475.5,6.69Z"/><path class="cls-34" d="M469,44.12s-4.91,1.72-8.22.26c-3.12-1.38-5.48-6.51-5.43-6.51,1.42-.06,3-1.3,4.17-9.43l.6.21,10.15,3.66s-.74,3.25-1.21,6.35C468.67,41.26,468.45,43.75,469,44.12Z"/><path class="cls-36" d="M470.28,32.31s-.74,3.25-1.21,6.35c-5.83-1-8.12-6.85-8.94-10Z"/><path class="cls-35" d="M457.68,26.12s-3.1-4.9-3.84-9.09c-.53-3,1-14.08,12.13-12.49a15.11,15.11,0,0,1,6.28,2.38c2.42,1.63,5.91,5.16,2,14.84l-1,3.27Z"/><path class="cls-34" d="M471.79,35.54s-13.88-1.87-12.59-10.49.37-14.68,9.29-13.85,10.14,4.37,10.41,7.35S475.43,35.8,471.79,35.54Z"/><path class="cls-35" d="M474.83,11.94s-5.32,9.54-11.36,10.16-8.34-1.32-8.34-1.32A16.65,16.65,0,0,0,462,11.86S472.7,6.69,474.83,11.94Z"/><path class="cls-35" d="M473.76,12.62s2.49,2.68,2.85,5,0,6.87,1.33,6.92c0,0,3.9-6.45,1.27-10.82C476.43,9.06,473.76,12.62,473.76,12.62Z"/><path class="cls-37" d="M433,112.22c.76,2.1,3.07,2.64,6.18,2.27,5.92-.69,14.71-4.66,21-7.41,9.66-4.19,14.05-.25,17.13-2.92s-3.52-8.59,2.19-36.1c1.94-9.33-10.44-29.4-10.44-29.4s-.95,5.86-12.69-1.11c-.41-.25-5,6.6-9.48,15-4.9,9.3-9.6,20.54-8.22,26.33C441.31,90,430.78,106.13,433,112.22Z"/><path class="cls-38" d="M433,112.22c.76,2.1,3.07,2.64,6.18,2.27,4.09-1.78,21.79-8.64,21.59-13.28-.29-6.88-3.4-7.1-1.21-15.59,1.77-6.81-14.58-19.49-17.19-22.24-4.91,9.3-5,9.74-3.66,15.53C441.31,90,430.78,106.13,433,112.22Z"/><path class="cls-27" d="M499.8,147.92l-9,24.27a14.45,14.45,0,0,1-4.79-.44,20.75,20.75,0,0,1-4.64-2.25s2.51-26.07,7.18-41Z"/><path class="cls-37" d="M469.07,38.66s12.07,2.05,13.49,7.25,9.76,35.75,9.76,35.75-6.14,1.11-9-1.73-9.87-26.31-9.87-26.31Z"/><path class="cls-37" d="M456.38,37.55S445,38.25,441,43.76c-5.56,7.76-16.59,40.82-10.27,45.23,7.12,5,32.41,1.3,32.41,1.3s.84-3.94-.33-5.84-20.2-5-21.08-5.85,11-17.13,11-19.76S456.38,37.55,456.38,37.55Z"/><polygon class="cls-30" points="456.86 101 505.59 101 514.38 70.36 465.72 70.36 456.86 101"/><rect class="cls-29" x="441.71" y="99.81" width="63.72" height="1.19" transform="translate(947.14 200.81) rotate(180)"/><path class="cls-39" d="M490.12,85.19a1.42,1.42,0,0,0-1.39-2,2.79,2.79,0,0,0-2.51,2,1.42,1.42,0,0,0,1.39,2A2.81,2.81,0,0,0,490.12,85.19Z"/></g></svg>