<svg xmlns="http://www.w3.org/2000/svg" xmlns:xlink="http://www.w3.org/1999/xlink" viewBox="0 0 718.62 270.81"><defs><style>.cls-1,.cls-6{fill:#dfe8f6;}.cls-16,.cls-2{fill:#faab77;}.cls-12,.cls-3{fill:#fff;}.cls-3,.cls-8{stroke:#263238;}.cls-13,.cls-3,.cls-8{stroke-linecap:round;stroke-linejoin:round;}.cls-4{fill:#254790;}.cls-5{clip-path:url(#clip-path);}.cls-6,.cls-7{opacity:0.17;}.cls-13,.cls-8{fill:none;}.cls-10,.cls-9{fill:#697abb;}.cls-10{opacity:0.7;}.cls-11{fill:#263238;}.cls-13{stroke:#fff;}.cls-14{fill:#f89e58;}.cls-15{clip-path:url(#clip-path-2);}.cls-16,.cls-18{opacity:0.15;}.cls-17{clip-path:url(#clip-path-3);}.cls-19{clip-path:url(#clip-path-4);}.cls-20{fill:#1a3763;}.cls-21{clip-path:url(#clip-path-5);}.cls-22{fill:#2d4d9d;}.cls-23{clip-path:url(#clip-path-6);}.cls-24{clip-path:url(#clip-path-7);}.cls-25{clip-path:url(#clip-path-8);}.cls-26{fill:#231f20;}.cls-27{fill:#7694cc;}.cls-28{fill:#f2fafe;}.cls-29{fill:#b0c0e3;}.cls-30{fill:#8d98cc;}.cls-31{fill:#accbeb;}.cls-32{fill:#f79134;}.cls-33{fill:#0f4c92;}.cls-34{fill:#f68a41;}.cls-35{fill:#f89e63;}.cls-36{fill:#0a4e89;}.cls-37{opacity:0.5;}.cls-38{fill:#b0cdeb;}.cls-39{fill:#1e3966;}.cls-40{fill:#f58022;}.cls-41{fill:#a2add8;}.cls-42{fill:#132d4f;}.cls-43{fill:#f8cba6;}.cls-44{fill:#f5904e;}</style><clipPath id="clip-path"><rect class="cls-1" x="333.48" y="16.98" width="238.26" height="172.08"/></clipPath><clipPath id="clip-path-2"><path class="cls-2" d="M559.87,47.58c.29-.59,2.21,1.36,2.21,1.36,1.55,1.55,13.17,13.17,15.25,13.17s39.48,12.51,39.48,12.51l29.58-8C649,73.32,640.16,86,640.16,86s-23.09,1.82-27.5,0-36.57-19.71-36.57-19.71-3.9.05-6-1a10.62,10.62,0,0,1-3.88-2.9c-.52-.78-.78-.78-2.6-2.34a1.62,1.62,0,0,1-.31-2.57l1,.1-3.2-5.07A9.1,9.1,0,0,1,560,50.79c-.47-1.09.28-1.36.28-1.36S559.58,48.16,559.87,47.58Z"/></clipPath><clipPath id="clip-path-3"><path class="cls-3" d="M561.46,48.39s4.06,1.93,5.71,3.58a46,46,0,0,1,4.25,5.8S562.33,50.13,561.46,48.39Z"/></clipPath><clipPath id="clip-path-4"><path class="cls-2" d="M560,50.79c-.47-1.09.28-1.36.28-1.36s-.68-1.27-.39-1.85,2.21,1.36,2.21,1.36c1.55,1.55,13.17,13.17,15.25,13.17,1,0,11,3.15,20.63,6.29l-3.73,7.92c-9.14-5-18.14-10-18.14-10s-3.9.05-6-1a10.62,10.62,0,0,1-3.88-2.9c-.52-.78-.78-.78-2.6-2.34a1.62,1.62,0,0,1-.31-2.57l1,.1-3.2-5.07A9.1,9.1,0,0,1,560,50.79Z"/></clipPath><clipPath id="clip-path-5"><path class="cls-2" d="M673.62,121.31s9.34,6.75,10.64,13,3.63,16.87,3.89,18.16,11.16,37.62,11.42,38.91,10.11,9.34,9.85,17.38,4.67,45.4,4.93,47.74-2.07,3.63-4.41,4.92-7,6.11-12.45,3.12c-4.19-2.31,9.86-10.64,9.86-14.79S693.6,208,689.71,200.17s-13.23-26.2-16.09-30.61A64.42,64.42,0,0,1,668.7,160s-.78,17.12,1.29,25.94,3.89,22.82,1,36.57-3.63,27.24-2.85,31.65-.52,4.67-3.12,5.45-7.55-.16-10.66,1.17-9.37,1.11-9.81-1.07,10.1-6.33,13.47-8.92,2.33-7,3.11-17.64-5.7-37.88-6.74-43.84-7.27-28-7.27-40.47.78-17.64.78-17.64,3.63-3.63,11.42-7A32.78,32.78,0,0,1,673.62,121.31Z"/></clipPath><clipPath id="clip-path-6"><path class="cls-2" d="M633.07,35.81c0-2-1.83-9,3.25-13.67s14-3.58,14-3.58C660.88,19.27,667.15,31.39,665,40s-8.27,9.55-10.41,12.26c-1.15,1.47-.35,5.27.63,8.45,9.1.41,8.42,7.63,10.09,12.66,2.08,6.23,4.93,25.94,5.71,30.35s6.49,11.94,6.49,14.53-11.42,6.74-21.28,11.67-9.7,5.17-11.52,2.58-3.78-28.52-3.78-31.63-9.34-10.9-7.27-15.31c1.68-3.55,9.24-16.86,12.12-21.9l-.17-.56a75.92,75.92,0,0,0-4.14-9.27s-5.41.29-7,.14-2.43-.57-2.71-2a7.06,7.06,0,0,1,.43-3.28s-.58.14-.86-.72.71-1.56.71-1.56c-.71-.29-.72-1.7-.72-1.7l1.33-1.33s-2.32-.66-2.55-2.43S633.07,37.8,633.07,35.81Z"/></clipPath><clipPath id="clip-path-7"><path class="cls-2" d="M646.5,42.05s3.28-5.49,6.57-3.79-.79,7.24-3.29,8.63-3.45-2.16-3.45-2.16"/></clipPath><clipPath id="clip-path-8"><path class="cls-2" d="M647.94,71.25s5.71-9.08,12.45-6.49S689.19,95.63,690,100s6.74,40.47,6.74,40.47,1.3,3.89,0,7-1.3,4.41,0,7,1,3.63-1,2.07-2.33-2.07-4.67-6.74,1.56-11.42,1.56-11.42-13.23-30.35-13.75-33.2a16.26,16.26,0,0,0-1.55-4.67s-23.87-19.72-26.2-23.35"/></clipPath></defs><title>terms and conditons</title><g id="Layer_7" data-name="Layer 7"><polygon class="cls-4" points="397.06 12.1 390.39 1.46 331.68 1.46 331.68 12.1 331.68 15.93 331.68 192.91 573.33 192.91 573.33 12.1 397.06 12.1"/><rect class="cls-1" x="333.48" y="16.98" width="238.26" height="172.08"/><g class="cls-5"><rect class="cls-6" x="567.37" y="15.5" width="5.53" height="174.86"/><rect class="cls-6" x="567.37" y="121.22" width="5.53" height="67.72"/><rect class="cls-1" x="332.53" y="14.65" width="239.52" height="9.36"/></g><g class="cls-7"><path d="M457.61,33H441a1.48,1.48,0,0,1-1.48-1.48h0A1.47,1.47,0,0,1,441,30.09h16.66a1.47,1.47,0,0,1,1.47,1.47h0A1.47,1.47,0,0,1,457.61,33Z"/><path d="M491,33H474.28a1.47,1.47,0,0,1-1.47-1.48h0a1.47,1.47,0,0,1,1.47-1.47H491a1.47,1.47,0,0,1,1.47,1.47h0A1.47,1.47,0,0,1,491,33Z"/><path d="M524.29,33H507.62a1.47,1.47,0,0,1-1.47-1.48h0a1.47,1.47,0,0,1,1.47-1.47h16.67a1.47,1.47,0,0,1,1.47,1.47h0A1.47,1.47,0,0,1,524.29,33Z"/><path d="M557.63,33H541a1.47,1.47,0,0,1-1.47-1.48h0A1.47,1.47,0,0,1,541,30.09h16.67a1.47,1.47,0,0,1,1.47,1.47h0A1.47,1.47,0,0,1,557.63,33Z"/></g><line class="cls-8" x1="436.81" y1="96.77" x2="446.58" y2="96.77"/><line class="cls-8" x1="380.82" y1="96.77" x2="430.91" y2="96.77"/><line class="cls-8" x1="342.15" y1="96.77" x2="375.52" y2="96.77"/><line class="cls-8" x1="405.57" y1="102.85" x2="446.58" y2="102.85"/><line class="cls-8" x1="383.18" y1="102.85" x2="399.09" y2="102.85"/><line class="cls-8" x1="342.15" y1="102.85" x2="376.11" y2="102.85"/><line class="cls-8" x1="364.32" y1="108.94" x2="446.58" y2="108.94"/><line class="cls-8" x1="342.15" y1="108.94" x2="356.66" y2="108.94"/><line class="cls-8" x1="426.2" y1="115.02" x2="446.58" y2="115.02"/><line class="cls-8" x1="387.3" y1="115.02" x2="419.13" y2="115.02"/><line class="cls-8" x1="342.15" y1="115.02" x2="380.82" y2="115.02"/><line class="cls-8" x1="376.11" y1="121.11" x2="446.58" y2="121.11"/><line class="cls-8" x1="342.15" y1="121.11" x2="369.62" y2="121.11"/><line class="cls-8" x1="553.57" y1="96.77" x2="563.54" y2="96.77"/><line class="cls-8" x1="496.45" y1="96.77" x2="547.56" y2="96.77"/><line class="cls-8" x1="457" y1="96.77" x2="491.04" y2="96.77"/><line class="cls-8" x1="521.71" y1="102.85" x2="563.54" y2="102.85"/><line class="cls-8" x1="498.86" y1="102.85" x2="515.09" y2="102.85"/><line class="cls-8" x1="457" y1="102.85" x2="491.64" y2="102.85"/><line class="cls-8" x1="479.62" y1="108.94" x2="563.54" y2="108.94"/><line class="cls-8" x1="457" y1="108.94" x2="471.8" y2="108.94"/><line class="cls-8" x1="542.75" y1="115.02" x2="563.54" y2="115.02"/><line class="cls-8" x1="503.07" y1="115.02" x2="535.54" y2="115.02"/><line class="cls-8" x1="457" y1="115.02" x2="496.45" y2="115.02"/><line class="cls-8" x1="491.64" y1="121.11" x2="563.54" y2="121.11"/><line class="cls-8" x1="457" y1="121.11" x2="485.03" y2="121.11"/><line class="cls-8" x1="436.81" y1="126.93" x2="446.58" y2="126.93"/><line class="cls-8" x1="380.82" y1="126.93" x2="430.91" y2="126.93"/><line class="cls-8" x1="342.15" y1="126.93" x2="375.52" y2="126.93"/><line class="cls-8" x1="405.57" y1="133.01" x2="446.58" y2="133.01"/><line class="cls-8" x1="383.18" y1="133.01" x2="399.09" y2="133.01"/><line class="cls-8" x1="342.15" y1="133.01" x2="376.11" y2="133.01"/><line class="cls-8" x1="364.32" y1="139.09" x2="446.58" y2="139.09"/><line class="cls-8" x1="342.15" y1="139.09" x2="356.66" y2="139.09"/><line class="cls-8" x1="426.2" y1="145.18" x2="446.58" y2="145.18"/><line class="cls-8" x1="387.3" y1="145.18" x2="419.13" y2="145.18"/><line class="cls-8" x1="342.15" y1="145.18" x2="380.82" y2="145.18"/><line class="cls-8" x1="376.11" y1="151.26" x2="446.58" y2="151.26"/><line class="cls-8" x1="342.15" y1="151.26" x2="369.62" y2="151.26"/><line class="cls-8" x1="553.57" y1="126.93" x2="563.54" y2="126.93"/><line class="cls-8" x1="496.45" y1="126.93" x2="547.56" y2="126.93"/><line class="cls-8" x1="457" y1="126.93" x2="491.04" y2="126.93"/><line class="cls-8" x1="521.71" y1="133.01" x2="563.54" y2="133.01"/><line class="cls-8" x1="498.86" y1="133.01" x2="515.09" y2="133.01"/><line class="cls-8" x1="457" y1="133.01" x2="491.64" y2="133.01"/><line class="cls-8" x1="479.62" y1="139.09" x2="563.54" y2="139.09"/><line class="cls-8" x1="457" y1="139.09" x2="471.8" y2="139.09"/><line class="cls-8" x1="542.75" y1="145.18" x2="563.54" y2="145.18"/><line class="cls-8" x1="503.07" y1="145.18" x2="535.54" y2="145.18"/><line class="cls-8" x1="457" y1="145.18" x2="496.45" y2="145.18"/><line class="cls-8" x1="491.64" y1="151.26" x2="563.54" y2="151.26"/><line class="cls-8" x1="457" y1="151.26" x2="485.03" y2="151.26"/><path class="cls-9" d="M563.54,90.64H341.67V44.86H563.54Z"/><path class="cls-10" d="M563.54,90.64H341.67V44.86H563.54Z"/><path class="cls-11" d="M447,90.64H341.67V44.86h96.58l8.7,6.78Z"/><polygon class="cls-12" points="438.25 44.86 438.25 51.64 446.95 51.64 438.25 44.86"/><line class="cls-13" x1="425.44" y1="58.13" x2="432.61" y2="58.13"/><line class="cls-13" x1="384.37" y1="58.13" x2="421.12" y2="58.13"/><line class="cls-13" x1="356.01" y1="58.13" x2="380.48" y2="58.13"/><line class="cls-13" x1="402.53" y1="62.05" x2="432.61" y2="62.05"/><line class="cls-13" x1="386.1" y1="62.05" x2="397.78" y2="62.05"/><line class="cls-13" x1="356.01" y1="62.05" x2="380.91" y2="62.05"/><line class="cls-13" x1="372.27" y1="65.97" x2="432.61" y2="65.97"/><line class="cls-13" x1="356.01" y1="65.97" x2="366.65" y2="65.97"/><line class="cls-13" x1="417.66" y1="69.89" x2="432.61" y2="69.89"/><line class="cls-13" x1="389.13" y1="69.89" x2="412.47" y2="69.89"/><line class="cls-13" x1="356.01" y1="69.89" x2="384.37" y2="69.89"/><line class="cls-13" x1="380.91" y1="73.81" x2="432.61" y2="73.81"/><line class="cls-13" x1="356.01" y1="73.81" x2="376.16" y2="73.81"/><path class="cls-14" d="M454.46,177.7h-47a2.51,2.51,0,0,1-2.51-2.51V160.48a2.51,2.51,0,0,1,2.51-2.51h47a2.51,2.51,0,0,1,2.51,2.51v14.71A2.51,2.51,0,0,1,454.46,177.7Z"/><path class="cls-11" d="M421,168.91h-2.79l-.4,1.05a.62.62,0,0,1-.23.33.57.57,0,0,1-.34.1.64.64,0,0,1-.42-.15.52.52,0,0,1-.18-.4.62.62,0,0,1,0-.23l1.92-4.81a1.47,1.47,0,0,1,.43-.66,1,1,0,0,1,.57-.16,1,1,0,0,1,.58.16,1.39,1.39,0,0,1,.42.66l1.93,4.81a.62.62,0,0,1,0,.23.52.52,0,0,1-.18.4.68.68,0,0,1-.42.15.62.62,0,0,1-.35-.1.66.66,0,0,1-.22-.33Zm-1.4-3.73-1.08,2.89h2.17Z"/><path class="cls-11" d="M424.6,169.22a1.06,1.06,0,0,0,.87.4,1.55,1.55,0,0,0,.88-.23.43.43,0,0,1,.23-.08.3.3,0,0,1,.23.11.35.35,0,0,1,.1.26.45.45,0,0,1-.18.35,1.54,1.54,0,0,1-.53.28,2.88,2.88,0,0,1-.83.11,2.09,2.09,0,0,1-1.58-.63,2.44,2.44,0,0,1-.34-2.76,2.12,2.12,0,0,1,.78-.82,2.22,2.22,0,0,1,1.15-.3,2.1,2.1,0,0,1,1.25.35.42.42,0,0,1,.2.34.38.38,0,0,1-.36.36.36.36,0,0,1-.2-.06,1.77,1.77,0,0,0-.78-.2,1.08,1.08,0,0,0-.89.4,1.62,1.62,0,0,0-.32,1.05A1.7,1.7,0,0,0,424.6,169.22Z"/><path class="cls-11" d="M428.9,169.22a1.06,1.06,0,0,0,.87.4,1.57,1.57,0,0,0,.88-.23.4.4,0,0,1,.23-.08.3.3,0,0,1,.23.11.35.35,0,0,1,.1.26.45.45,0,0,1-.18.35,1.54,1.54,0,0,1-.53.28,2.93,2.93,0,0,1-.83.11,2.12,2.12,0,0,1-1.59-.63,2.26,2.26,0,0,1-.61-1.63,2.39,2.39,0,0,1,.27-1.13,2.22,2.22,0,0,1,.79-.82,2.19,2.19,0,0,1,1.15-.3,2.1,2.1,0,0,1,1.25.35.4.4,0,0,1,.19.34.33.33,0,0,1-.1.25.34.34,0,0,1-.25.11.42.42,0,0,1-.21-.06,1.73,1.73,0,0,0-.77-.2,1.08,1.08,0,0,0-.89.4,1.62,1.62,0,0,0-.32,1.05A1.64,1.64,0,0,0,428.9,169.22Z"/><path class="cls-11" d="M432,167a2,2,0,0,1,.75-.81,2.23,2.23,0,0,1,1.16-.31,2.29,2.29,0,0,1,.9.17,1.54,1.54,0,0,1,.63.47,2.3,2.3,0,0,1,.37.67,2.64,2.64,0,0,1,.12.81.45.45,0,0,1-.07.27.3.3,0,0,1-.24.11h-2.77a1.15,1.15,0,0,0,1.27,1.23,2,2,0,0,0,1.16-.44.27.27,0,0,1,.17-.06.31.31,0,0,1,.24.12.42.42,0,0,1,.1.28.37.37,0,0,1-.14.3,2.47,2.47,0,0,1-1.61.58,2.27,2.27,0,0,1-1.67-.61,2.24,2.24,0,0,1-.62-1.68A2.34,2.34,0,0,1,432,167Zm3,.76a1.46,1.46,0,0,0-.3-.83,1,1,0,0,0-1.52,0,1.33,1.33,0,0,0-.32.81Z"/><path class="cls-11" d="M437,171.87a.58.58,0,0,1-.16-.44V166.6a.69.69,0,0,1,.16-.46.56.56,0,0,1,.4-.17.57.57,0,0,1,.4.14.58.58,0,0,1,.14.41v.15a1.51,1.51,0,0,1,1.45-.76,1.75,1.75,0,0,1,1,.3,1.88,1.88,0,0,1,.65.82,2.86,2.86,0,0,1,.23,1.16,2.34,2.34,0,0,1-.54,1.63,1.81,1.81,0,0,1-1.42.6,1.51,1.51,0,0,1-1.39-.71v1.72a.6.6,0,0,1-.15.44.57.57,0,0,1-.79,0Zm2.53-2.29a.79.79,0,0,0,.31-.22A1.15,1.15,0,0,0,440,169a1.82,1.82,0,0,0,.11-.4,2,2,0,0,0,0-.44,2.83,2.83,0,0,0,0-.41,2.28,2.28,0,0,0-.11-.41,1.33,1.33,0,0,0-.2-.35.84.84,0,0,0-.31-.25.92.92,0,0,0-.44-.1,1,1,0,0,0-.9.38,2,2,0,0,0-.26,1.14,2.19,2.19,0,0,0,.11.75,1.16,1.16,0,0,0,.37.53,1,1,0,0,0,.66.21A1,1,0,0,0,439.5,169.58Z"/><path class="cls-11" d="M442.86,170a1.45,1.45,0,0,1-.34-1v-2.27h-.42a.37.37,0,0,1-.29-.1.37.37,0,0,1-.11-.27.36.36,0,0,1,.1-.26.36.36,0,0,1,.28-.1h.46l.14-1.09a.63.63,0,0,1,.16-.39.49.49,0,0,1,.38-.15.35.35,0,0,1,.3.13.57.57,0,0,1,.11.38V166h.7a.36.36,0,0,1,.28.1.37.37,0,0,1,.1.28.34.34,0,0,1-.1.26.39.39,0,0,1-.28.09h-.7v2a1.39,1.39,0,0,0,.1.62.38.38,0,0,0,.37.21h0l.31,0h0a.35.35,0,0,1,.29.13.4.4,0,0,1,.1.28.54.54,0,0,1,0,.19.33.33,0,0,1-.11.13l-.16.07a.54.54,0,0,1-.21,0h-.58A1.24,1.24,0,0,1,442.86,170Z"/><path class="cls-9" d="M391.49,177.7h-47a2.52,2.52,0,0,1-2.51-2.51V160.48a2.51,2.51,0,0,1,2.51-2.51h47a2.51,2.51,0,0,1,2.51,2.51v14.71A2.51,2.51,0,0,1,391.49,177.7Z"/><path class="cls-12" d="M347,170.22a.55.55,0,0,1-.17-.41v-5a.82.82,0,0,1,.19-.56.65.65,0,0,1,.47-.2.81.81,0,0,1,.41.12.83.83,0,0,1,.35.32l2.89,4V164.6a.52.52,0,0,1,.16-.4.61.61,0,0,1,.4-.16.53.53,0,0,1,.39.16.48.48,0,0,1,.17.4v4.91a1,1,0,0,1-.18.62.58.58,0,0,1-.48.24.78.78,0,0,1-.41-.14,1.2,1.2,0,0,1-.37-.34l-2.86-4v3.88a.48.48,0,0,1-.17.4.54.54,0,0,1-.4.16A.56.56,0,0,1,347,170.22Z"/><path class="cls-12" d="M354.58,170.23a1.72,1.72,0,0,1-.73-.51,2.37,2.37,0,0,1-.4-.71,2.32,2.32,0,0,1-.14-.84,2.58,2.58,0,0,1,.08-.68,2.37,2.37,0,0,1,.27-.61,2,2,0,0,1,.45-.5,2,2,0,0,1,.65-.35,3,3,0,0,1,1.67,0,2.09,2.09,0,0,1,.65.33,1.91,1.91,0,0,1,.45.49,2.15,2.15,0,0,1,.28.62,2.74,2.74,0,0,1,.09.7,3,3,0,0,1-.08.67,2.53,2.53,0,0,1-.27.61,2,2,0,0,1-.45.5,1.9,1.9,0,0,1-.65.34,2.57,2.57,0,0,1-.85.13A2.54,2.54,0,0,1,354.58,170.23Zm1.91-.95a1.76,1.76,0,0,0,.31-1.11,1.75,1.75,0,0,0-.31-1.11,1.06,1.06,0,0,0-.89-.4,1,1,0,0,0-.88.4,1.73,1.73,0,0,0-.32,1.11,1.77,1.77,0,0,0,.32,1.11,1.06,1.06,0,0,0,.88.39A1.08,1.08,0,0,0,356.49,169.28Z"/><path class="cls-12" d="M365.38,168.91h-2.79l-.4,1.05a.62.62,0,0,1-.23.33.57.57,0,0,1-.34.1.66.66,0,0,1-.42-.15.52.52,0,0,1-.18-.4.62.62,0,0,1,0-.23L363,164.8a1.39,1.39,0,0,1,.42-.66A1,1,0,0,1,364,164a1,1,0,0,1,.58.16,1.39,1.39,0,0,1,.42.66l1.93,4.81a.62.62,0,0,1,0,.23.52.52,0,0,1-.18.4.68.68,0,0,1-.42.15.62.62,0,0,1-.35-.1.66.66,0,0,1-.22-.33Zm-1.4-3.73-1.08,2.89h2.17Z"/><path class="cls-12" d="M369,169.22a1.06,1.06,0,0,0,.87.4,1.55,1.55,0,0,0,.88-.23.43.43,0,0,1,.23-.08.3.3,0,0,1,.23.11.35.35,0,0,1,.1.26.47.47,0,0,1-.17.35,1.7,1.7,0,0,1-.54.28,2.88,2.88,0,0,1-.83.11,2.09,2.09,0,0,1-1.58-.63,2.44,2.44,0,0,1-.34-2.76,2.12,2.12,0,0,1,.78-.82,2.22,2.22,0,0,1,1.15-.3,2.1,2.1,0,0,1,1.25.35.42.42,0,0,1,.2.34.34.34,0,0,1-.11.25.33.33,0,0,1-.25.11.36.36,0,0,1-.2-.06,1.77,1.77,0,0,0-.78-.2,1.08,1.08,0,0,0-.89.4,1.62,1.62,0,0,0-.32,1.05A1.7,1.7,0,0,0,369,169.22Z"/><path class="cls-12" d="M373.27,169.22a1.06,1.06,0,0,0,.87.4,1.57,1.57,0,0,0,.88-.23.43.43,0,0,1,.23-.08.3.3,0,0,1,.23.11.35.35,0,0,1,.1.26.45.45,0,0,1-.18.35,1.54,1.54,0,0,1-.53.28,2.93,2.93,0,0,1-.83.11,2.12,2.12,0,0,1-1.59-.63,2.3,2.3,0,0,1-.61-1.63,2.39,2.39,0,0,1,.27-1.13,2.15,2.15,0,0,1,1.94-1.12,2.1,2.1,0,0,1,1.25.35.42.42,0,0,1,.2.34.38.38,0,0,1-.36.36.42.42,0,0,1-.21-.06,1.73,1.73,0,0,0-.77-.2,1.08,1.08,0,0,0-.89.4,1.62,1.62,0,0,0-.32,1.05A1.64,1.64,0,0,0,373.27,169.22Z"/><path class="cls-12" d="M376.39,167a2,2,0,0,1,.75-.81,2.23,2.23,0,0,1,1.16-.31,2.29,2.29,0,0,1,.9.17,1.54,1.54,0,0,1,.63.47,2.3,2.3,0,0,1,.37.67,2.64,2.64,0,0,1,.12.81.45.45,0,0,1-.07.27.3.3,0,0,1-.24.11h-2.77a1.15,1.15,0,0,0,1.27,1.23,2,2,0,0,0,1.16-.44.27.27,0,0,1,.17-.06.31.31,0,0,1,.24.12.42.42,0,0,1,.1.28.37.37,0,0,1-.14.3,2.47,2.47,0,0,1-1.61.58,2.27,2.27,0,0,1-1.67-.61,2.24,2.24,0,0,1-.62-1.68A2.34,2.34,0,0,1,376.39,167Zm3,.76a1.46,1.46,0,0,0-.3-.83.92.92,0,0,0-.76-.32,1,1,0,0,0-.77.34,1.39,1.39,0,0,0-.31.81Z"/><path class="cls-12" d="M381.34,171.87a.58.58,0,0,1-.16-.44V166.6a.65.65,0,0,1,.17-.46.52.52,0,0,1,.39-.17.57.57,0,0,1,.4.14.58.58,0,0,1,.14.41v.15a1.52,1.52,0,0,1,1.45-.76,1.75,1.75,0,0,1,1,.3,1.88,1.88,0,0,1,.65.82,2.86,2.86,0,0,1,.23,1.16,2.34,2.34,0,0,1-.54,1.63,1.8,1.8,0,0,1-1.42.6,1.51,1.51,0,0,1-1.39-.71v1.72a.6.6,0,0,1-.15.44.57.57,0,0,1-.79,0Zm2.53-2.29a.79.79,0,0,0,.31-.22,1.15,1.15,0,0,0,.21-.34,1.82,1.82,0,0,0,.11-.4,2,2,0,0,0,0-.44,2.83,2.83,0,0,0,0-.41,2.28,2.28,0,0,0-.11-.41,1.33,1.33,0,0,0-.2-.35.76.76,0,0,0-.31-.25.92.92,0,0,0-.44-.1,1,1,0,0,0-.9.38,2,2,0,0,0-.26,1.14,2.19,2.19,0,0,0,.11.75,1.11,1.11,0,0,0,.38.53,1.11,1.11,0,0,0,1.09.12Z"/><path class="cls-12" d="M387.23,170a1.45,1.45,0,0,1-.34-1v-2.27h-.42a.37.37,0,0,1-.29-.1.37.37,0,0,1-.11-.27.33.33,0,0,1,.1-.26.36.36,0,0,1,.28-.1h.46l.14-1.09a.63.63,0,0,1,.16-.39.49.49,0,0,1,.38-.15.35.35,0,0,1,.3.13.57.57,0,0,1,.11.38V166h.7a.36.36,0,0,1,.28.1.37.37,0,0,1,.1.28.34.34,0,0,1-.1.26.39.39,0,0,1-.28.09H388v2a1.39,1.39,0,0,0,.1.62.38.38,0,0,0,.37.21h0l.31,0h0a.35.35,0,0,1,.29.13.4.4,0,0,1,.1.28.54.54,0,0,1,0,.19.33.33,0,0,1-.11.13l-.16.07a.54.54,0,0,1-.21,0h-.58A1.24,1.24,0,0,1,387.23,170Z"/><path class="cls-11" d="M466.86,71.39a4,4,0,0,1-1.68-1.69,5.74,5.74,0,0,1-.6-2.73,6.07,6.07,0,0,1,.3-1.94,4.7,4.7,0,0,1,.9-1.57,4,4,0,0,1,1.54-1.08,5.66,5.66,0,0,1,2.16-.39,6.63,6.63,0,0,1,2.84.58.77.77,0,0,1,.31.28.72.72,0,0,1,.11.36.84.84,0,0,1-.19.53.57.57,0,0,1-.47.24.56.56,0,0,1-.23,0,7.83,7.83,0,0,0-2.3-.43,3.51,3.51,0,0,0-1.36.25,2.23,2.23,0,0,0-.93.71,3,3,0,0,0-.52,1.09,5.47,5.47,0,0,0-.16,1.41q0,3.47,2.91,3.47a7.27,7.27,0,0,0,1.71-.21V68h-1.38a.6.6,0,0,1-.47-.19.72.72,0,0,1-.17-.48.81.81,0,0,1,.16-.47.55.55,0,0,1,.46-.21h2.55c.48,0,.72.3.72.89v2.77a1.48,1.48,0,0,1-.21.88,1.21,1.21,0,0,1-.7.39,13.74,13.74,0,0,1-2.77.39A5.43,5.43,0,0,1,466.86,71.39Z"/><path class="cls-11" d="M474.66,66.74a3,3,0,0,1,1.13-1.21,3.33,3.33,0,0,1,1.75-.46,3.39,3.39,0,0,1,1.35.26,2.43,2.43,0,0,1,.95.7,3.07,3.07,0,0,1,.54,1,3.65,3.65,0,0,1,.19,1.21.77.77,0,0,1-.11.42.43.43,0,0,1-.36.15h-4.17a1.73,1.73,0,0,0,1.91,1.86,3.09,3.09,0,0,0,1.75-.66.39.39,0,0,1,.25-.1.47.47,0,0,1,.36.19.59.59,0,0,1,.16.41.57.57,0,0,1-.21.45,3.62,3.62,0,0,1-2.43.88,3.42,3.42,0,0,1-2.5-.91,3.36,3.36,0,0,1-.94-2.54A3.56,3.56,0,0,1,474.66,66.74Zm4.5,1.15a2.2,2.2,0,0,0-.43-1.24,1.37,1.37,0,0,0-1.15-.49,1.43,1.43,0,0,0-1.16.51,2.15,2.15,0,0,0-.47,1.22Z"/><path class="cls-11" d="M482.1,71.53a.9.9,0,0,1-.23-.67V66a.79.79,0,0,1,.23-.61.93.93,0,0,1,1.19,0,.78.78,0,0,1,.23.61v.23a1.94,1.94,0,0,1,.85-.85,2.75,2.75,0,0,1,1.33-.29,2.64,2.64,0,0,1,.89.15,2.23,2.23,0,0,1,.75.46,2.06,2.06,0,0,1,.52.79,3.08,3.08,0,0,1,.19,1.13v3.26a.9.9,0,0,1-.24.67.8.8,0,0,1-.6.24.75.75,0,0,1-.58-.24.9.9,0,0,1-.23-.67V67.59a1.41,1.41,0,0,0-.36-1,1.19,1.19,0,0,0-.9-.36,1.52,1.52,0,0,0-1.14.52,1.93,1.93,0,0,0-.48,1.36v2.79a.94.94,0,0,1-.23.67.81.81,0,0,1-.6.24A.78.78,0,0,1,482.1,71.53Z"/><path class="cls-11" d="M489.77,66.74a3,3,0,0,1,1.14-1.21,3.32,3.32,0,0,1,1.74-.46,3.44,3.44,0,0,1,1.36.26,2.43,2.43,0,0,1,.95.7,3.07,3.07,0,0,1,.54,1,3.93,3.93,0,0,1,.19,1.21.7.7,0,0,1-.12.42.41.41,0,0,1-.35.15h-4.17A1.73,1.73,0,0,0,493,70.68,3.06,3.06,0,0,0,494.7,70a.44.44,0,0,1,.26-.1.47.47,0,0,1,.36.19.59.59,0,0,1,.16.41.57.57,0,0,1-.21.45,3.64,3.64,0,0,1-2.43.88,3.42,3.42,0,0,1-2.5-.91,3.36,3.36,0,0,1-.94-2.54A3.68,3.68,0,0,1,489.77,66.74Zm4.51,1.15a2.13,2.13,0,0,0-.44-1.24,1.35,1.35,0,0,0-1.14-.49,1.43,1.43,0,0,0-1.16.51,2.16,2.16,0,0,0-.48,1.22Z"/><path class="cls-11" d="M497.22,71.54a.94.94,0,0,1-.23-.67V66a.69.69,0,0,1,.25-.58.87.87,0,0,1,.59-.21.85.85,0,0,1,.58.2.62.62,0,0,1,.24.55l0,.68a2.12,2.12,0,0,1,.68-1,1.69,1.69,0,0,1,1.12-.43.55.55,0,0,1,.46.21.77.77,0,0,1,.17.49.81.81,0,0,1-.15.49.48.48,0,0,1-.41.21,2.87,2.87,0,0,0-.69.07,1.87,1.87,0,0,0-.58.22,1.07,1.07,0,0,0-.43.48,1.86,1.86,0,0,0-.15.79v2.78a.9.9,0,0,1-.23.66.9.9,0,0,1-1.2,0Z"/><path class="cls-11" d="M502.33,71.35a1.68,1.68,0,0,1-.65-1.39,2.43,2.43,0,0,1,.09-.7,1.64,1.64,0,0,1,.23-.52,1.25,1.25,0,0,1,.42-.36,2.41,2.41,0,0,1,.57-.25,4,4,0,0,1,.77-.15c.31,0,.62-.06.94-.07l1.15,0v-.5a1.2,1.2,0,0,0-.3-.91,1.18,1.18,0,0,0-.87-.29h-.26l-.26,0-.23,0-.23,0-.22.06-.21.07-.17.06-.18.07-.15.06a.48.48,0,0,1-.18,0,.47.47,0,0,1-.39-.19.67.67,0,0,1-.17-.44.47.47,0,0,1,.29-.46,5.56,5.56,0,0,1,2.44-.52,4.11,4.11,0,0,1,1.09.14,2.53,2.53,0,0,1,.85.43,1.93,1.93,0,0,1,.57.78,3.18,3.18,0,0,1,.2,1.17v3.35a.81.81,0,0,1-.23.61.78.78,0,0,1-.56.22.75.75,0,0,1-.55-.22.78.78,0,0,1-.24-.61v-.22a1.81,1.81,0,0,1-.68.82,2.21,2.21,0,0,1-1.24.31A2.6,2.6,0,0,1,502.33,71.35Zm3-1.06a1.82,1.82,0,0,0,.51-1.32v-.19c-.44,0-.79,0-1,0s-.5,0-.73.07a1.25,1.25,0,0,0-.51.18.92.92,0,0,0-.26.32,1.18,1.18,0,0,0-.09.5.9.9,0,0,0,.27.7,1,1,0,0,0,.71.24A1.59,1.59,0,0,0,505.33,70.29Z"/><path class="cls-11" d="M509.47,71.53a1,1,0,0,1-.23-.68V63.19a1,1,0,0,1,.23-.68.79.79,0,0,1,.59-.24.78.78,0,0,1,.6.24.94.94,0,0,1,.24.68v7.66a.94.94,0,0,1-.24.68.82.82,0,0,1-.61.24A.75.75,0,0,1,509.47,71.53Z"/><path class="cls-11" d="M518.86,71.5a1,1,0,0,1-.28-.71v-7h-2.15a.67.67,0,0,1-.53-.22.77.77,0,0,1-.2-.52.82.82,0,0,1,.2-.54.68.68,0,0,1,.53-.22h6.19a.66.66,0,0,1,.52.22.76.76,0,0,1,.2.53.78.78,0,0,1-.19.53.68.68,0,0,1-.53.22h-2.15v7a.93.93,0,0,1-.28.71.88.88,0,0,1-.66.28A.91.91,0,0,1,518.86,71.5Z"/><path class="cls-11" d="M524.39,66.74a3.05,3.05,0,0,1,1.13-1.21,3.38,3.38,0,0,1,1.75-.46,3.44,3.44,0,0,1,1.36.26,2.43,2.43,0,0,1,1,.7,3.07,3.07,0,0,1,.54,1,3.93,3.93,0,0,1,.19,1.21.7.7,0,0,1-.12.42.41.41,0,0,1-.35.15h-4.17a1.73,1.73,0,0,0,1.91,1.86,3.06,3.06,0,0,0,1.74-.66.44.44,0,0,1,.26-.1.47.47,0,0,1,.36.19.59.59,0,0,1,.16.41.57.57,0,0,1-.21.45,3.65,3.65,0,0,1-2.43.88,3.44,3.44,0,0,1-2.51-.91A3.39,3.39,0,0,1,524,68.4,3.68,3.68,0,0,1,524.39,66.74Zm4.51,1.15a2.13,2.13,0,0,0-.44-1.24,1.35,1.35,0,0,0-1.14-.49,1.43,1.43,0,0,0-1.16.51,2.16,2.16,0,0,0-.48,1.22Z"/><path class="cls-11" d="M531.84,71.54a.94.94,0,0,1-.23-.67V66a.69.69,0,0,1,.25-.58.87.87,0,0,1,.59-.21.85.85,0,0,1,.58.2.62.62,0,0,1,.24.55l0,.68a2.12,2.12,0,0,1,.68-1,1.69,1.69,0,0,1,1.12-.43.55.55,0,0,1,.46.21.77.77,0,0,1,.17.49.81.81,0,0,1-.15.49.48.48,0,0,1-.41.21,2.87,2.87,0,0,0-.69.07,1.87,1.87,0,0,0-.58.22,1,1,0,0,0-.43.48,1.86,1.86,0,0,0-.15.79v2.78a.9.9,0,0,1-.23.66.85.85,0,0,1-.61.23A.84.84,0,0,1,531.84,71.54Z"/><path class="cls-11" d="M537,71.53a.92.92,0,0,1-.23-.67V66a.89.89,0,0,1,.23-.65.78.78,0,0,1,.6-.23.87.87,0,0,1,.59.21.7.7,0,0,1,.24.57v.33a2.19,2.19,0,0,1,2.12-1.2,2.34,2.34,0,0,1,1.38.39,1.93,1.93,0,0,1,.77,1.06A2.3,2.3,0,0,1,545,65.07a2.35,2.35,0,0,1,1.74.64,2.46,2.46,0,0,1,.66,1.87v3.28a.88.88,0,0,1-.23.67.81.81,0,0,1-.6.24.78.78,0,0,1-.59-.24.92.92,0,0,1-.23-.67V67.59a1.48,1.48,0,0,0-.33-1,1.17,1.17,0,0,0-.91-.36,1.46,1.46,0,0,0-1.16.52,2.06,2.06,0,0,0-.45,1.41v2.74a.94.94,0,0,1-.23.67.82.82,0,0,1-.61.24.78.78,0,0,1-.58-.24.9.9,0,0,1-.23-.67V67.63a1.54,1.54,0,0,0-.33-1.07,1.14,1.14,0,0,0-.91-.37,1.48,1.48,0,0,0-1.16.48,1.83,1.83,0,0,0-.44,1.29v2.9a.89.89,0,0,1-.24.67.82.82,0,0,1-.61.24A.77.77,0,0,1,537,71.53Z"/><path class="cls-11" d="M548.86,70.66a.55.55,0,0,1,.15-.38.46.46,0,0,1,.37-.16.79.79,0,0,1,.35.09l.46.26a4.62,4.62,0,0,0,.57.19,2.92,2.92,0,0,0,.77.11,2.84,2.84,0,0,0,.69-.08,1.14,1.14,0,0,0,.51-.27.71.71,0,0,0,.22-.52c0-.38-.31-.64-.92-.79l-1-.26-.76-.22a4.26,4.26,0,0,1-.59-.26,1.66,1.66,0,0,1-.45-.34,1.51,1.51,0,0,1-.26-.47,2.11,2.11,0,0,1-.1-.65,1.57,1.57,0,0,1,.73-1.39,3.31,3.31,0,0,1,1.9-.49,4.9,4.9,0,0,1,2.17.5.56.56,0,0,1,.35.52.48.48,0,0,1-.13.36.46.46,0,0,1-.36.15.91.91,0,0,1-.26,0l-.14-.05-.2-.07-.21-.07a1.71,1.71,0,0,0-.26-.07l-.26,0-.3,0h-.3a2,2,0,0,0-.86.17.54.54,0,0,0-.36.52.52.52,0,0,0,.2.45,2.23,2.23,0,0,0,.74.28l1,.26a3.56,3.56,0,0,1,1.55.71,1.64,1.64,0,0,1,.49,1.26,1.8,1.8,0,0,1-.74,1.55,3.29,3.29,0,0,1-1.93.53,4.28,4.28,0,0,1-2.59-.77A.53.53,0,0,1,548.86,70.66Z"/><path class="cls-2" d="M559.87,47.58c.29-.59,2.21,1.36,2.21,1.36,1.55,1.55,13.17,13.17,15.25,13.17s39.48,12.51,39.48,12.51l29.58-8C649,73.32,640.16,86,640.16,86s-23.09,1.82-27.5,0-36.57-19.71-36.57-19.71-3.9.05-6-1a10.62,10.62,0,0,1-3.88-2.9c-.52-.78-.78-.78-2.6-2.34a1.62,1.62,0,0,1-.31-2.57l1,.1-3.2-5.07A9.1,9.1,0,0,1,560,50.79c-.47-1.09.28-1.36.28-1.36S559.58,48.16,559.87,47.58Z"/><g class="cls-15"><path class="cls-16" d="M559.87,47.58c.29-.59,2.21,1.36,2.21,1.36,1.55,1.55,13.17,13.17,15.25,13.17s39.48,12.51,39.48,12.51l29.58-8C649,73.32,640.16,86,640.16,86s-23.09,1.82-27.5,0-36.57-19.71-36.57-19.71-3.9.05-6-1a10.62,10.62,0,0,1-3.88-2.9c-.52-.78-.78-.78-2.6-2.34a1.62,1.62,0,0,1-.31-2.57l1,.1-3.2-5.07A9.1,9.1,0,0,1,560,50.79c-.47-1.09.28-1.36.28-1.36S559.58,48.16,559.87,47.58Z"/></g><path class="cls-14" d="M563.63,60.09a1.62,1.62,0,0,1-.31-2.57l1,.1-3.2-5.07A9.1,9.1,0,0,1,560,50.79c-.47-1.09.28-1.36.28-1.36s-.68-1.27-.39-1.85,2.21,1.36,2.21,1.36c1.55,1.55,13.17,13.17,15.25,13.17s39.48,12.51,39.48,12.51l14.48-3.94a129.71,129.71,0,0,0,11.26,11.44c-1.3,2.34-2.39,3.91-2.39,3.91s-23.09,1.82-27.5,0-36.57-19.71-36.57-19.71-3.9.05-6-1a10.62,10.62,0,0,1-3.88-2.9C565.71,61.65,565.45,61.65,563.63,60.09Z"/><path class="cls-12" d="M561.46,48.39s4.06,1.93,5.71,3.58a46,46,0,0,1,4.25,5.8S562.33,50.13,561.46,48.39Z"/><g class="cls-17"><path class="cls-18" d="M561.46,48.39s4.06,1.93,5.71,3.58a46,46,0,0,1,4.25,5.8S562.33,50.13,561.46,48.39Z"/></g><path class="cls-8" d="M561.46,48.39s4.06,1.93,5.71,3.58a46,46,0,0,1,4.25,5.8S562.33,50.13,561.46,48.39Z"/><path class="cls-2" d="M560,50.79c-.47-1.09.28-1.36.28-1.36s-.68-1.27-.39-1.85,2.21,1.36,2.21,1.36c1.55,1.55,13.17,13.17,15.25,13.17,1,0,11,3.15,20.63,6.29l-3.73,7.92c-9.14-5-18.14-10-18.14-10s-3.9.05-6-1a10.62,10.62,0,0,1-3.88-2.9c-.52-.78-.78-.78-2.6-2.34a1.62,1.62,0,0,1-.31-2.57l1,.1-3.2-5.07A9.1,9.1,0,0,1,560,50.79Z"/><g class="cls-19"><path class="cls-16" d="M560,50.79c-.47-1.09.28-1.36.28-1.36s-.68-1.27-.39-1.85,2.21,1.36,2.21,1.36c1.55,1.55,13.17,13.17,15.25,13.17,1,0,11,3.15,20.63,6.29l-3.73,7.92c-9.14-5-18.14-10-18.14-10s-3.9.05-6-1a10.62,10.62,0,0,1-3.88-2.9c-.52-.78-.78-.78-2.6-2.34a1.62,1.62,0,0,1-.31-2.57l1,.1-3.2-5.07A9.1,9.1,0,0,1,560,50.79Z"/><path class="cls-2" d="M563.63,57.24s3,1.85,5.51,3.31"/><path class="cls-2" d="M560.26,49.43a7.25,7.25,0,0,1,2.46,2.34,32.42,32.42,0,0,0,5.15,5.56"/></g><path class="cls-20" d="M662.45,26.54a30.21,30.21,0,0,1,2.85-9c2.28-4.42,9.13-5.42,9.84-4.56s.86,1.14,3.56.71,9.27,1.43,8,2.71-.43,1.71,2.71,2.85,3,4.42,1,5.56-1.14,2,.43,3.85,1,3.71-.43,3.85-2.43-.57-1,1.86.86,5-1.28,5.27-1.71,1.29-1.71,3.28-1.43,3.14-2.57,2.86-2.28.42-2.85,2-2.29,1.43-3.43.71-2-.28-2.28.58-.57,1.42-2.71.28-2.85-3-4-1.71a1.84,1.84,0,0,1-3.14-1.28,20.23,20.23,0,0,0-1.42-6C663.16,38.52,661.31,31.11,662.45,26.54Z"/><path class="cls-2" d="M673.62,121.31s9.34,6.75,10.64,13,3.63,16.87,3.89,18.16,11.16,37.62,11.42,38.91,10.11,9.34,9.85,17.38,4.67,45.4,4.93,47.74-2.07,3.63-4.41,4.92-7,6.11-12.45,3.12c-4.19-2.31,9.86-10.64,9.86-14.79S693.6,208,689.71,200.17s-13.23-26.2-16.09-30.61A64.42,64.42,0,0,1,668.7,160s-.78,17.12,1.29,25.94,3.89,22.82,1,36.57-3.63,27.24-2.85,31.65-.52,4.67-3.12,5.45-7.55-.16-10.66,1.17-9.37,1.11-9.81-1.07,10.1-6.33,13.47-8.92,2.33-7,3.11-17.64-5.7-37.88-6.74-43.84-7.27-28-7.27-40.47.78-17.64.78-17.64,3.63-3.63,11.42-7A32.78,32.78,0,0,1,673.62,121.31Z"/><g class="cls-21"><path class="cls-16" d="M673.62,121.31s9.34,6.75,10.64,13,3.63,16.87,3.89,18.16,11.16,37.62,11.42,38.91,10.11,9.34,9.85,17.38,4.67,45.4,4.93,47.74-2.07,3.63-4.41,4.92-7,6.11-12.45,3.12c-4.19-2.31,9.86-10.64,9.86-14.79S693.6,208,689.71,200.17s-13.23-26.2-16.09-30.61A64.42,64.42,0,0,1,668.7,160s-.78,17.12,1.29,25.94,3.89,22.82,1,36.57-3.63,27.24-2.85,31.65-.52,4.67-3.12,5.45-7.55-.16-10.66,1.17-9.37,1.11-9.81-1.07,10.1-6.33,13.47-8.92,2.33-7,3.11-17.64-5.7-37.88-6.74-43.84-7.27-28-7.27-40.47.78-17.64.78-17.64,3.63-3.63,11.42-7A32.78,32.78,0,0,1,673.62,121.31Z"/></g><path class="cls-22" d="M661,226c-1.17-12.62-5.68-31.8-6.53-36.69-1-6-7.27-28-7.27-40.47s.78-17.64.78-17.64,3.63-3.63,11.42-7a32.78,32.78,0,0,1,14.26-2.86s9.34,6.75,10.64,13,3.63,16.87,3.89,18.16,11.16,37.62,11.42,38.91,10.11,9.34,9.85,17.38c-.08,2.63.39,8.38,1.06,15a30.44,30.44,0,0,1-10.19,3.4c-4-11.14-8.59-23-10.58-27-3.89-7.78-13.23-26.2-16.09-30.61A64.42,64.42,0,0,1,668.7,160s-.78,17.12,1.29,25.94,3.89,22.82,1,36.57c-.22,1.07-.43,2.14-.63,3.2C668.76,226.26,665.85,226.71,661,226Z"/><line class="cls-22" x1="668.7" y1="159.97" x2="660.65" y2="148.81"/><path class="cls-14" d="M675.44,118.72l1.3,3.89S665.48,134,655.63,135.25s-9.5.33-9.5-2.26,9.08-6.23,17.12-10.38S673.11,117.94,675.44,118.72Z"/><path class="cls-2" d="M633.07,35.81c0-2-1.83-9,3.25-13.67s14-3.58,14-3.58C660.88,19.27,667.15,31.39,665,40s-8.27,9.55-10.41,12.26c-1.15,1.47-.35,5.27.63,8.45,9.1.41,8.42,7.63,10.09,12.66,2.08,6.23,4.93,25.94,5.71,30.35s6.49,11.94,6.49,14.53-11.42,6.74-21.28,11.67-9.7,5.17-11.52,2.58-3.78-28.52-3.78-31.63-9.34-10.9-7.27-15.31c1.68-3.55,9.24-16.86,12.12-21.9l-.17-.56a75.92,75.92,0,0,0-4.14-9.27s-5.41.29-7,.14-2.43-.57-2.71-2a7.06,7.06,0,0,1,.43-3.28s-.58.14-.86-.72.71-1.56.71-1.56c-.71-.29-.72-1.7-.72-1.7l1.33-1.33s-2.32-.66-2.55-2.43S633.07,37.8,633.07,35.81Z"/><g class="cls-23"><path class="cls-16" d="M633.07,35.81c0-2-1.83-9,3.25-13.67s14-3.58,14-3.58C660.88,19.27,667.15,31.39,665,40s-8.27,9.55-10.41,12.26c-1.15,1.47-.35,5.27.63,8.45,9.1.41,8.42,7.63,10.09,12.66,2.08,6.23,4.93,25.94,5.71,30.35s6.49,11.94,6.49,14.53-11.42,6.74-21.28,11.67-13,4.15-14.78,1.56-.52-27.5-.52-30.61-9.34-10.9-7.27-15.31c1.68-3.55,9.24-16.86,12.12-21.9l-.17-.56a75.92,75.92,0,0,0-4.14-9.27s-5.41.29-7,.14-2.43-.57-2.71-2a7.06,7.06,0,0,1,.43-3.28s-.58.14-.86-.72.71-1.56.71-1.56c-.71-.29-.72-1.7-.72-1.7l1.33-1.33s-2.32-.66-2.55-2.43S633.07,37.8,633.07,35.81Z"/></g><path class="cls-14" d="M633.67,85.51c.68-1.43,2.32-4.47,4.23-7.91l.7.39a38.31,38.31,0,0,0,28.75,3.94c1.59,8.19,3.14,18.67,3.68,21.74.78,4.41,6.49,11.94,6.49,14.53s-6.15,7.48-16,12.41-15,4.43-16.8,1.84-3.78-28.52-3.78-31.63S631.6,89.92,633.67,85.51Z"/><path class="cls-14" d="M663.51,86.55s-9.08-.26-13.23-1.55"/><path class="cls-14" d="M666.88,88.89s-8.17,1.29-10.51.77"/><path class="cls-20" d="M643.44,18.88a25.27,25.27,0,0,1,6.89-.32C660.88,19.27,667.15,31.39,665,40c-1.83,7.32-6.57,9.11-9.25,11.17-2.13-.87-4.44-2.12-5.15-3.61a20.43,20.43,0,0,1-1.71-4.71s-1.43,1-1.85-1.43-3-3.82-4.55-6.82.57-6.26,2.5-8.84C646.5,23.71,647.71,20.07,643.44,18.88Z"/><path class="cls-20" d="M644.81,17.3a7.49,7.49,0,0,0-7.76-.8c-4.94,2.25,2.24,5.39,4.93,9.65s4,10.78,5.39,7,2.19-8.18.48-12A9.8,9.8,0,0,0,644.81,17.3Z"/><path class="cls-2" d="M646.5,42.05s3.28-5.49,6.57-3.79-.79,7.24-3.29,8.63-3.45-2.16-3.45-2.16"/><g class="cls-24"><path class="cls-16" d="M646.5,42.05s3.28-5.49,6.57-3.79-.79,7.24-3.29,8.63-3.45-2.16-3.45-2.16"/></g><path class="cls-2" d="M647.94,71.25s5.71-9.08,12.45-6.49S689.19,95.63,690,100s6.74,40.47,6.74,40.47,1.3,3.89,0,7-1.3,4.41,0,7,1,3.63-1,2.07-2.33-2.07-4.67-6.74,1.56-11.42,1.56-11.42-13.23-30.35-13.75-33.2a16.26,16.26,0,0,0-1.55-4.67s-23.87-19.72-26.2-23.35"/><g class="cls-25"><path class="cls-16" d="M647.94,71.25s5.71-9.08,12.45-6.49S689.19,95.63,690,100s6.74,40.47,6.74,40.47,1.3,3.89,0,7-1.3,4.41,0,7,1,3.63-1,2.07-2.33-2.07-4.67-6.74,1.56-11.42,1.56-11.42-13.23-30.35-13.75-33.2a16.26,16.26,0,0,0-1.55-4.67s-23.87-19.72-26.2-23.35"/></g><path class="cls-14" d="M675.07,78.88c7.35,8.74,14.46,18.69,14.9,21.16.78,4.41,6.74,40.47,6.74,40.47s1.3,3.89,0,7-1.3,4.41,0,7,1,3.63-1,2.07-2.33-2.07-4.67-6.74,1.56-11.42,1.56-11.42-13.23-30.35-13.75-33.2a16.26,16.26,0,0,0-1.55-4.67S664.72,90.2,656.93,83.12A41.75,41.75,0,0,0,675.07,78.88Z"/><path class="cls-18" d="M690.55,103.45c1.72,10.19,6.16,37.06,6.16,37.06s1.3,3.89,0,7-1.3,4.41,0,7,1,3.63-1,2.07-2.33-2.07-4.67-6.74,1.56-11.42,1.56-11.42-12.08-27.7-13.6-32.66Z"/><path class="cls-2" d="M690.55,103.45c1.72,10.19,6.16,37.06,6.16,37.06s1.3,3.89,0,7-1.3,4.41,0,7,1,3.63-1,2.07-2.33-2.07-4.67-6.74,1.56-11.42,1.56-11.42-12.08-27.7-13.6-32.66Z"/><path class="cls-26" d="M707.23,250.4a2.34,2.34,0,0,1,1.62,1,9.12,9.12,0,0,1,1.41,3.12s1.67-1.53,3.46-3.12c.34,2.72.58,4.57.63,5,.26,2.33-2.07,3.63-4.41,4.92s-7,6.11-12.45,3.12C693.52,262.32,705.94,254.72,707.23,250.4Z"/><path class="cls-26" d="M658.06,250.76a6,6,0,0,0,.77-.73,4,4,0,0,1,1.65,1.09,5.11,5.11,0,0,1,.78,1.71l.16,1.25a15.33,15.33,0,0,0,6.68-.44c0,.17,0,.34.08.49.77,4.41-.52,4.67-3.12,5.45s-7.55-.16-10.66,1.17-9.37,1.11-9.81-1.07S654.69,253.35,658.06,250.76Z"/><rect class="cls-27" x="81.05" y="25.87" width="176.6" height="241.5"/><rect class="cls-28" x="88.57" y="32.39" width="161.55" height="228.33"/><path class="cls-4" d="M135.86,25.87V34.1a8.23,8.23,0,0,0,8.22,8.23h44.14a8.23,8.23,0,0,0,8.22-8.23V25.87Z"/><rect class="cls-29" x="107.33" y="228.4" width="19.99" height="2.02"/><rect class="cls-29" x="131.94" y="228.4" width="19.99" height="2.02"/><rect class="cls-29" x="107.33" y="232.89" width="27.72" height="2.02"/><path class="cls-30" d="M130.54,60h7.32a6.38,6.38,0,0,1,4.66,1.62,5.06,5.06,0,0,1,1.37,3.7,5,5,0,0,1-3.43,5L144.37,76h-4.11l-3.48-5.12h-2.72V76h-3.52Zm7.09,7.77c1.71,0,2.7-.92,2.7-2.31s-1.06-2.29-2.77-2.29h-3.5v4.6Z"/><path class="cls-30" d="M146.82,69.12V60h3.52V69c0,2.61,1.3,4,3.45,4s3.46-1.3,3.46-3.84V60h3.52v9c0,4.84-2.72,7.22-7,7.22S146.82,73.83,146.82,69.12Z"/><path class="cls-30" d="M164.36,60h3.52v12.8h8V76h-11.5Z"/><path class="cls-30" d="M178.51,60h12.07v3.13H182v3.24h7.54v3.14H182v3.36h8.69V76H178.51Z"/><path class="cls-30" d="M192.73,73.65l2.08-2.49a7.39,7.39,0,0,0,4.78,1.94c1.44,0,2.31-.57,2.31-1.56s-.55-1.34-3.22-2c-3.23-.82-5.31-1.72-5.31-4.94,0-2.9,2.33-4.82,5.6-4.82a9.27,9.27,0,0,1,5.95,2l-1.83,2.65a7.52,7.52,0,0,0-4.16-1.57c-1.35,0-2.06.61-2.06,1.44,0,1,.69,1.39,3.45,2.1,3.25.85,5.08,2,5.08,4.85,0,3.18-2.42,5-5.88,5A10.21,10.21,0,0,1,192.73,73.65Z"/><rect class="cls-30" x="124.57" y="79.75" width="86.79" height="1.12"/><path class="cls-31" d="M234,117.24H204.75V88H234Zm-27.85-1.38h26.47V89.4H206.12Z"/><path class="cls-32" d="M220.08,111.36a2.09,2.09,0,0,1-1.59-.74l-9-10.91a2.06,2.06,0,1,1,3.18-2.63l7.15,8.65L232.74,84a2.06,2.06,0,1,1,3.55,2.11l-14.43,24.23a2.09,2.09,0,0,1-1.62,1Z"/><rect class="cls-29" x="117.29" y="92.33" width="64.91" height="2.85"/><rect class="cls-29" x="117.29" y="105.06" width="59.82" height="2.85"/><rect class="cls-29" x="164.51" y="98.7" width="17.69" height="2.85"/><rect class="cls-29" x="117.29" y="98.7" width="42.31" height="2.85"/><path class="cls-29" d="M102.76,94.88l-2.9.81-.6-2.31L103.59,92h2v16.25h-2.81Z"/><path class="cls-29" d="M107.43,107.22a1,1,0,0,1,2,0,1,1,0,1,1-2,0Z"/><path class="cls-31" d="M234.19,160.88H205V131.67h29.22Zm-27.84-1.37h26.47V133H206.35Z"/><path class="cls-32" d="M220.31,155a2.05,2.05,0,0,1-1.59-.75l-9-10.9a2.07,2.07,0,0,1,.28-2.91,2.05,2.05,0,0,1,2.9.28l7.15,8.65L233,127.66a2.07,2.07,0,0,1,3.55,2.12L222.08,154a2.07,2.07,0,0,1-1.61,1Z"/><path class="cls-29" d="M99.13,149.67l5.52-4.69c2.19-1.85,3-2.88,3-4.32a2.41,2.41,0,0,0-2.59-2.5c-1.47,0-2.47.8-3.71,2.41l-2-1.56c1.53-2.15,3-3.36,5.91-3.36,3.13,0,5.28,1.92,5.28,4.82,0,2.52-1.35,3.87-4.16,6.21l-3.3,2.74h7.62v2.47H99.13Z"/><path class="cls-29" d="M112.62,150.88a1,1,0,1,1,1,1A1,1,0,0,1,112.62,150.88Z"/><rect class="cls-29" x="117.83" y="135.98" width="68.21" height="2.85"/><rect class="cls-29" x="117.83" y="148.71" width="62.86" height="2.85"/><rect class="cls-29" x="167.44" y="142.34" width="18.59" height="2.85"/><rect class="cls-29" x="117.83" y="142.34" width="44.46" height="2.85"/><path class="cls-31" d="M234.19,204.85H205V175.64h29.22Zm-27.84-1.37h26.47V177H206.35Z"/><path class="cls-32" d="M220.31,199a2.05,2.05,0,0,1-1.59-.75l-9-10.91a2.06,2.06,0,0,1,3.18-2.63l7.15,8.65L233,171.63a2.07,2.07,0,0,1,3.55,2.12L222.08,198a2,2,0,0,1-1.61,1Z"/><rect class="cls-29" x="117.83" y="179.95" width="68.21" height="2.85"/><rect class="cls-29" x="117.83" y="192.68" width="62.86" height="2.85"/><rect class="cls-29" x="167.44" y="186.31" width="18.59" height="2.85"/><rect class="cls-29" x="117.83" y="186.31" width="44.46" height="2.85"/><path class="cls-29" d="M98.93,193l1.92-1.79a5.13,5.13,0,0,0,4.13,2.06,2.46,2.46,0,0,0,2.71-2.42c0-1.55-1.42-2.42-3.61-2.42H102.8l-.44-1.73,4.23-4.5H99.8v-2.39h10.37v2.06l-4.37,4.48c2.49.35,4.62,1.63,4.62,4.45s-2.24,5-5.49,5A7.43,7.43,0,0,1,98.93,193Z"/><path class="cls-29" d="M111.21,194.71a1,1,0,0,1,2,0,1,1,0,1,1-2,0Z"/><path class="cls-29" d="M181.24,234.86A12.43,12.43,0,0,1,169.1,225a.85.85,0,1,1,1.66-.34,10.7,10.7,0,0,0,20.94.1.85.85,0,1,1,1.66.35A12.46,12.46,0,0,1,181.24,234.86Z"/><path class="cls-29" d="M169.91,221.11h-.16a.85.85,0,0,1-.67-1,12.39,12.39,0,0,1,24.18-.66.84.84,0,0,1-.62,1,.85.85,0,0,1-1-.61,10.69,10.69,0,0,0-20.87.56A.84.84,0,0,1,169.91,221.11Z"/><path class="cls-29" d="M181.24,240.09a17.62,17.62,0,1,1,17.62-17.62A17.64,17.64,0,0,1,181.24,240.09Zm0-32.82a15.2,15.2,0,1,0,15.2,15.2A15.22,15.22,0,0,0,181.24,207.27Z"/><rect class="cls-29" x="177.75" y="220.26" width="6.98" height="1.12"/><rect class="cls-29" x="177.75" y="224.83" width="6.98" height="1.12"/><rect class="cls-29" x="176.11" y="222.47" width="10.27" height="1.12"/><path class="cls-2" d="M96,76s.87-2,1.43-2.87,3-3.63,3.37-3,2,4.74,1.18,5.89,0,3.16-4.26,4.38Z"/><path class="cls-9" d="M48.07,63.66S70.16,82.1,78.77,80.39a167.9,167.9,0,0,0,17.07-4.88l2.07,5.29S88.64,93.37,79,93.46a55,55,0,0,1-26.27-6.54Z"/><path class="cls-33" d="M9.32,258.16S10,268.51,12,268.66c.26,0,10.15,0,10.15,0l12.62-.08s-.09-3-3.78-3.68-9.86-3.24-12.09-8.11C16.52,251.68,9.32,258.16,9.32,258.16Z"/><path class="cls-14" d="M8.6,258.88a26.3,26.3,0,0,0,6.83,1.28,25,25,0,0,0,6.37-.91s.73-7,4.7-22.37c2.08-8.06,5.06-18.43,9.29-31.32,11.71-35.62,15.27-56.45,15.59-58.42l0-.16,0,0-36-15.8s4.45,49.09-1.22,67.93a77.11,77.11,0,0,0-2.06,9C8.51,228.58,8.6,258.88,8.6,258.88Z"/><path class="cls-34" d="M26.5,236.88c2.08-8.06,5.06-18.43,9.29-31.32,11.71-35.62,15.27-56.45,15.59-58.42,0-.06,0-.12,0-.18l-36-15.8s4.45,49.09-1.22,67.93C13.36,201.72,26.5,236.88,26.5,236.88Z"/><path class="cls-33" d="M37.43,258.16s.64,10.35,2.64,10.5c.27,0,10.15,0,10.15,0l12.62-.08s-.08-3-3.77-3.68-9.86-3.24-12.1-8.11C44.62,251.68,37.43,258.16,37.43,258.16Z"/><path class="cls-14" d="M57.83,132.32a512.24,512.24,0,0,1-5,70.86c-5.51,39.06-3.64,55.63-3.64,55.63a36.79,36.79,0,0,1-5.31,1.35,24,24,0,0,1-7.87-.91s-7.88-39.07-5.62-58.61-10.79-67.08-10.79-67.08Z"/><path class="cls-2" d="M32.32,57.89l7,4.6,6.4-1.81C46.91,59,47.22,55.8,47.23,53A47.19,47.19,0,0,0,47,47.9l-9.47-4.18L34,42.16c0,.06.27,2.91.31,3.32A24.26,24.26,0,0,1,32.32,57.89Z"/><path class="cls-30" d="M58,141.16c-8.74,8.45-41.83,7-43.87-2.28s2.23-79.17,17.16-83.56C34.38,54.41,51,59.77,51,59.77a104.64,104.64,0,0,1,4.3,15.46c.33,1.68,1.3,19.54,2,36.24.34,7.81.63,15.38.77,20.91C58.17,137.57,58.18,141,58,141.16Z"/><path class="cls-35" d="M35,45.61c1.92,3.25,8.67,6.1,12.24,7.4A47.19,47.19,0,0,0,47,47.9l-9.47-4.18C35.41,43.69,34.14,44.16,35,45.61Z"/><path class="cls-2" d="M50.56,47.33s-15.27,4.76-18.09-4.79-6.69-15.38,2.94-18.82S48,23.35,49.73,26.31,54.46,45.84,50.56,47.33Z"/><path class="cls-20" d="M49.13,25.39s-1,11.12-3.27,10.64S41,34.52,41.37,37.87,39.13,47,35.82,47c-7.12,0-14.84-18.28-12.9-21.74C28.54,15.23,57.25,13.21,49.13,25.39Z"/><path class="cls-9" d="M46.89,55.56c-.2-.08-11.37-5.09-12.68-4.66s-2.93,4.42-2.93,4.42L51,59.77S49.4,56.62,46.89,55.56Z"/><path class="cls-36" d="M116.43,109.68,53.81,168.63c-1.22,1.16-2.77,1.52-3.44.82l-2.11-2.25c-.66-.7-.2-2.23,1-3.38l62.62-58.95c1.23-1.16,2.78-1.53,3.44-.82l2.11,2.24C118.12,107,117.66,108.52,116.43,109.68Z"/><path class="cls-27" d="M81.29,142.76,53.81,168.63c-1.22,1.16-2.77,1.52-3.44.82l-2.11-2.25c-.66-.7-.2-2.23,1-3.38L76.76,138Z"/><path class="cls-36" d="M102,87.42A49.08,49.08,0,1,0,183.38,38.1l-.77-.75A49.08,49.08,0,0,0,102,87.42Zm14-45.3A45.2,45.2,0,1,1,118,106,45.11,45.11,0,0,1,116.07,42.12Z"/><g class="cls-37"><path class="cls-38" d="M181.91,104.07A45.2,45.2,0,1,1,180,40.17,45,45,0,0,1,181.91,104.07Z"/></g><path class="cls-9" d="M58,132.38C23.54,107.8,26.41,75,26.41,75,39,82.11,51.53,97.83,57.27,111.47,57.61,119.28,57.9,126.85,58,132.38Z"/><path class="cls-2" d="M92.09,121.19a9.4,9.4,0,0,0,4.41-2.72s1,.07-.17,2.28l-.5,1a.22.22,0,0,0,.19.31c1.4.1,2.81-.45,5.52.11.37.08.48,1,.46,1.35a3.42,3.42,0,0,1-.72,2.36c-.44.58-1.66,1.19-4.36,2.28-1,.42-4,.11-6.75-.84l-2.21-1,.69-4.1.55.12C90.08,122.49,91.17,121.41,92.09,121.19Z"/><path class="cls-30" d="M37.12,59.77s-31,5.9,9.12,50.79c6.41,7.18,41.08,16.53,41.08,16.53s3.52-3,1.74-5.41c0,0-23.87-17.33-29.12-20.09-2.36-1.24-9.17-27.67-13-34A17.32,17.32,0,0,0,37.12,59.77Z"/><path class="cls-2" d="M96.86,76.51a15.55,15.55,0,0,0,1.22-3,15.93,15.93,0,0,1,2-4.52c.21-.21.9.06,1,1a5.13,5.13,0,0,1-.49,2c-.56,1.39-.47,3.27-.66,3.9C99.43,77.41,96.86,76.51,96.86,76.51Z"/><path class="cls-4" d="M132.29,259.41a8.22,8.22,0,0,0,.06,1,7.91,7.91,0,0,0,.92,2.88,7.67,7.67,0,0,0,1.39,1.85,8,8,0,0,0,5.72,2.37H254.22a8.1,8.1,0,0,0,0-16.19H140.38A8.1,8.1,0,0,0,132.29,259.41Z"/><path class="cls-4" d="M141,249.85h39a1.25,1.25,0,0,0,1.24-1.24h0a1.25,1.25,0,0,0-1.24-1.25H141a1.25,1.25,0,0,0-1.24,1.25h0A1.25,1.25,0,0,0,141,249.85Z"/><rect class="cls-39" x="143.12" y="249.85" width="4.23" height="1.47" transform="translate(290.48 501.16) rotate(180)"/><path class="cls-39" d="M133.27,263.28a7.67,7.67,0,0,0,1.39,1.85,8,8,0,0,0,5.72,2.37h24.11v-4.22Z"/><path class="cls-32" d="M277.38,257v4.74a5.72,5.72,0,0,1-5.72,5.72H153.08a5.72,5.72,0,0,1-5.72-5.72V257a5.73,5.73,0,0,1,5.72-5.73H271.66A5.73,5.73,0,0,1,277.38,257Z"/><path class="cls-40" d="M277.18,263.28a5.72,5.72,0,0,1-5.52,4.22H153.08a5.71,5.71,0,0,1-5.52-4.22Z"/><path class="cls-30" d="M265.6,259.44a9,9,0,0,0,2.36,6.25l.09.1a5.76,5.76,0,0,0,4.07,1.77c2.4,0,8.35-3.62,12-6,1.84-1.2,3.12-2.09,3.12-2.09s-1.28-.9-3.12-2.1c-3.68-2.4-9.63-6-12-6a5.4,5.4,0,0,0-2,.39,6.43,6.43,0,0,0-2.74,2.17,8.94,8.94,0,0,0-1.65,4,.43.43,0,0,0,0,.05A9.86,9.86,0,0,0,265.6,259.44Z"/><path class="cls-9" d="M265.6,259.44a9,9,0,0,0,2.36,6.25l18.25-6.28-20.49-1.53A9.86,9.86,0,0,0,265.6,259.44Z"/><path class="cls-41" d="M267.38,253.87l18.21,5-15.47-7.14A6.43,6.43,0,0,0,267.38,253.87Z"/><path class="cls-42" d="M283,259.44a2.23,2.23,0,0,0,1.18,2.09c1.84-1.2,3.12-2.09,3.12-2.09s-1.28-.9-3.12-2.1A2.26,2.26,0,0,0,283,259.44Z"/><path class="cls-20" d="M339.88,26.39a10.58,10.58,0,0,0-8.38-.9c-14.24-1.67-18.39,14.93-18.2,20.64s.85,11.85-5.51,19.27c-18.36,21.44,20.1,22.38,20.1,22.38.32-17.13,20.85-10.88,19.95-9.14C374.16,85,350.46,31.87,339.88,26.39Z"/><path class="cls-2" d="M285,94.36s-2.5-3.81-4.52-3.89-5.75-1.12-5.45-.37,2.61.82,2.84,1.27-3.44,1.12-4.49,1.2-3.51,0-3.43.52,4.44,2.69,7.53,2.39a20.82,20.82,0,0,1,6.89.9Z"/><path class="cls-14" d="M321.17,95.59a37.12,37.12,0,0,1-3.83,5.79c-3,3.73-7.56,8-13.32,8.88a14.23,14.23,0,0,1-7.91-1.28h0c-7-3.11-12.26-10.25-12.26-10.25a5.75,5.75,0,0,1,.79-5.64s14.12,3.18,15.47,2.5,9.61-19,11.1-22.07c3.17-6.5,8.19-8.36,8.19-8.36Z"/><path class="cls-34" d="M317.34,101.38c-3,3.73-7.56,8-13.32,8.88a14.23,14.23,0,0,1-7.91-1.28c.27,0,7.26.9,10-4.08s5.91-13.16,10.13-10.47C318.1,95.6,318,98.48,317.34,101.38Z"/><path class="cls-33" d="M373.86,248.05s4.31,3.93,3.47,6.73-4.73,4.65-5.25,8.07-2.63,5.28-4.52,5.28h-9s-1.4-2.41,2-3.13,4.63-4.74,4.42-8.46a66.22,66.22,0,0,1,.31-8.7l7.15-1.65Z"/><path class="cls-33" d="M337.39,249.72s1.55,16.66-.35,17.59l-24.21-.05s0-2.79,3.89-3.41,10.72-2.9,11.88-8S337.39,249.72,337.39,249.72Z"/><path class="cls-14" d="M356,84.36a96.59,96.59,0,0,1,0,11.19c-.24,4-4.33,9.46-4.91,10.8-1.46,3.37-3.1,3.91-3.1,3.91l-12.72,3.12-4.47,1.09-14.09-4.21s-6.42-17.92-3.84-28a77.4,77.4,0,0,1,6.51-17.09s9.56-3.77,26.48-1Z"/><path class="cls-43" d="M352.29,97.2c-.24,4-.61,7.81-1.19,9.15-1.46,3.37-3.1,3.91-3.1,3.91l-12.72,3.12-5.52-1.62S348.2,109,346.15,93.1Z"/><path class="cls-9" d="M317.61,113s-7,21.73-7.42,29.13,13.34,105.1,13.89,108.51c.53,3.21,4.52,5.26,4.52,5.26a6,6,0,0,0,4.45.34c3.64-1,4.78-2.25,4.78-2.25s5.44-69.68,2.08-94.57A393.46,393.46,0,0,1,336.5,113Z"/><path class="cls-30" d="M347.19,112.34s10.65,14.28,11.64,23.94,1.56,43.59,3.68,53,9.88,27.54,9.88,56.91a5.88,5.88,0,0,1-3.3,2.58c-.8.28-1.87.56-2.9.8a4.58,4.58,0,0,1-5.11-2.43c-5.25-10.57-22-44.69-22.85-51.77-.6-5-5.89-38.18-17.41-57.64-2.77-4.67,1.7-23.26,1.7-23.26Z"/><path class="cls-39" d="M316.5,109.63s2.8,2.22,8.37,2.33c6.65.13,23.13-1.7,23.13-1.7a13.7,13.7,0,0,1,.7,4.21s-20.13,5.08-31.79.74A7.38,7.38,0,0,1,316.5,109.63Z"/><path class="cls-12" d="M323.27,117.69a3.46,3.46,0,1,1,3-3.43A3.25,3.25,0,0,1,323.27,117.69Zm0-5.86a2.46,2.46,0,1,0,2,2.43A2.26,2.26,0,0,0,323.27,111.83Z"/><rect class="cls-4" x="333.39" y="89.71" width="27.34" height="37.42" rx="2.84" transform="translate(14.12 254.57) rotate(-41.05)"/><path class="cls-2" d="M343.35,113.63c-.24.06-8.68,1.05-8.69,2.8,0,2,2.48,4.72,4.81,4.59.95,0,5.31-4.06,5.31-4.06Z"/><path class="cls-2" d="M339,63.28A28.25,28.25,0,0,1,337.5,53l-.64.13-10.73,2.13s.25,3.37.25,6.55v.08c0,2.77-1.86,5.54,2.57,6.64C330.32,68.86,341,68.18,339,63.28Z"/><path class="cls-44" d="M326.13,55.26s.25,3.37.25,6.55c6-.16,9.18-5.64,10.48-8.68Z"/><path class="cls-2" d="M324.13,58.27s14.2.23,14.21-8.62,1.85-14.78-7.22-15.3-10.83,2.85-11.56,5.8S320.43,58,324.13,58.27Z"/><path class="cls-20" d="M324.65,34.13s3.89,10.38,9.86,11.92,8.56-.07,8.56-.07a16.87,16.87,0,0,1-5.53-10S327.59,29.19,324.65,34.13Z"/><path class="cls-20" d="M325.62,35a8.85,8.85,0,0,0-4.08,3.18,14.34,14.34,0,0,0-1.92,8.13s-2.93-7.06.37-11.05C323.48,31,325.62,35,325.62,35Z"/><path class="cls-2" d="M343.35,113.63a9.68,9.68,0,0,0-3.38-.46c-1.35.18-2.36,0-2.36.35s1.75.55,2.12.74A18.65,18.65,0,0,0,343.35,113.63Z"/><path class="cls-14" d="M345.87,64.21s10.09.7,14,10.1S371,99.49,371,102.15s-4.1,10.83-26.11,15.54c0,0-2.27-2.4-2.14-4.29,0,0,13.74-11.8,13.7-13.18-.06-2.61-2.25-6-14.31-18.11C338.89,78.83,345.87,64.21,345.87,64.21Z"/></g></svg>