<svg xmlns="http://www.w3.org/2000/svg" viewBox="0 0 933.93 488.68"><defs><style>.cls-1{fill:#231f20;opacity:0.11;}.cls-1,.cls-4,.cls-5{stroke:#fff;}.cls-1,.cls-2,.cls-4,.cls-5{stroke-miterlimit:10;}.cls-16,.cls-17,.cls-18,.cls-19,.cls-2,.cls-28{fill:#fff;}.cls-2{stroke:#e0e0e0;}.cls-19,.cls-20,.cls-25,.cls-3{opacity:0.3;}.cls-15,.cls-4,.cls-5{fill:#5274b8;}.cls-22,.cls-5,.cls-7{opacity:0.6;}.cls-6{fill:#263238;}.cls-25,.cls-27,.cls-8{fill:#2d4d9d;}.cls-9{fill:#fbbd9d;}.cls-10{fill:#ec996f;}.cls-11{fill:#455b64;}.cls-12{fill:#f79750;}.cls-13{fill:#ebebeb;}.cls-14{fill:#f5f5f5;}.cls-16{opacity:0.8;}.cls-17{opacity:0.4;}.cls-21,.cls-22,.cls-24{fill:#23375c;}.cls-23,.cls-26{fill:#faae7d;}.cls-24,.cls-27,.cls-28{opacity:0.5;}.cls-26{opacity:0.2;}.cls-29{opacity:0.1;}.cls-30{fill:#c43f52;}.cls-31{fill:#802038;}.cls-32{fill:#81573c;}.cls-33{fill:#f69782;}.cls-34{fill:#ffd38e;}.cls-35{fill:#d65f48;}.cls-36{fill:#f3a892;}.cls-37{fill:#fbc7b1;}.cls-38{fill:#fac4bd;}.cls-39{fill:#11143e;}.cls-40{fill:#9995a7;}.cls-41{fill:#6d7daa;}.cls-42{fill:#591239;opacity:0.37;}.cls-43{fill:#c3c2c7;}</style></defs><title>Artboard 1</title><g id="Layer_2" data-name="Layer 2"><ellipse class="cls-1" cx="71.54" cy="472.14" rx="59.29" ry="10.41"/><ellipse class="cls-1" cx="335.9" cy="472.14" rx="71.54" ry="10.5"/><ellipse class="cls-1" cx="461.38" cy="466.39" rx="51.04" ry="14.48"/><ellipse class="cls-1" cx="874.98" cy="465.54" rx="55.4" ry="14.17"/></g><g id="Layer_1" data-name="Layer 1"><rect class="cls-2" x="217.11" y="66.72" width="110.31" height="83.55"/><path class="cls-2" d="M327.42,150.28s0-.53,0-1.54,0-2.5,0-4.44c0-3.89,0-9.6,0-16.89,0-14.56,0-35.43-.07-60.69l.14.15-110.3,0h0l.18-.18c0,30.06,0,58.52,0,83.56l-.16-.16,79.64.08,22.6,0,6,0h0l-6,0-22.57.05-79.74.07H217v-.15c0-25,0-53.5,0-83.56v-.17h.18l110.3,0h.15v.14c0,25.29-.06,46.19-.08,60.78,0,7.27,0,13,0,16.86l0,4.41C327.43,149.77,327.42,150.28,327.42,150.28Z"/><rect class="cls-2" x="249.66" y="105.86" width="7.45" height="20.15"/><rect class="cls-2" x="281.27" y="105.86" width="7.45" height="20.15"/><rect class="cls-2" x="291.8" y="94.03" width="7.45" height="31.98"/><rect class="cls-2" x="240.02" y="119.67" width="7.45" height="6.78"/><rect class="cls-2" x="260.19" y="114.96" width="7.45" height="11.05"/><rect class="cls-2" x="270.73" y="112.43" width="7.45" height="13.59"/><circle class="cls-2" cx="245.46" cy="98.22" r="1.6"/><path class="cls-2" d="M270.15,103.69V70.84"/><path class="cls-2" d="M270.15,70.84c.1,0,.18,7.36.18,16.43s-.08,16.42-.18,16.42S270,96.34,270,87.27,270.06,70.84,270.15,70.84Z"/><path class="cls-2" d="M319.65,82.84a6.4,6.4,0,0,1-1.16.07l-3.17.06c-2.68,0-6.37,0-10.45,0l-5.76,0a7.33,7.33,0,0,0-1.26,0,2.68,2.68,0,0,0-2.15,2.15,4.9,4.9,0,0,0-.06.93c0,.3,0,.58,0,.85,0,.52,0,1,0,1.36a7.89,7.89,0,0,1-.07,1.17,6.46,6.46,0,0,1-.07-1.17c0-.39,0-.84,0-1.36,0-.27,0-.55,0-.85a5.38,5.38,0,0,1,0-1,3,3,0,0,1,2.34-2.42,8.39,8.39,0,0,1,1.32-.06h5.76c4.08,0,7.77,0,10.45,0l3.17,0A10.06,10.06,0,0,1,319.65,82.84Z"/><path class="cls-2" d="M304.92,92.5l-.18,0-.52-.19c-.23-.07-.51-.19-.84-.29l-1.18-.34a21.87,21.87,0,0,0-18.32,3.56A34.81,34.81,0,0,0,279,99.91a18.83,18.83,0,0,1-5.72,4.65,8.61,8.61,0,0,1-3.69.77,11,11,0,0,1-3.58-.76,31.72,31.72,0,0,1-6-3.4,29.32,29.32,0,0,0-5.41-2.92,11.89,11.89,0,0,0-5.23-.84A17.68,17.68,0,0,0,242,99.49a16.41,16.41,0,0,0-1.79,1.13l-.44.33a.67.67,0,0,1-.16.11,10.79,10.79,0,0,1,2.32-1.69,17.57,17.57,0,0,1,7.47-2.21,12.07,12.07,0,0,1,5.34.81,30.81,30.81,0,0,1,5.49,2.92,31.62,31.62,0,0,0,5.9,3.36,10.75,10.75,0,0,0,3.47.73,8.28,8.28,0,0,0,3.54-.74,18.59,18.59,0,0,0,5.6-4.56,35.56,35.56,0,0,1,4.95-4.75,21.92,21.92,0,0,1,10.77-4.09,21.46,21.46,0,0,1,7.78.66l1.17.37c.33.11.61.24.84.33l.51.21C304.87,92.46,304.93,92.49,304.92,92.5Z"/><circle class="cls-2" cx="270.15" cy="104.79" r="1.6"/><circle class="cls-2" cx="295.72" cy="90.85" r="1.6"/><path class="cls-2" d="M247.47,129.1a41.67,41.67,0,0,1-7.52,0,39.36,39.36,0,0,1,7.52,0Z"/><path class="cls-2" d="M257.24,129.1a41.67,41.67,0,0,1-7.52,0,39.36,39.36,0,0,1,7.52,0Z"/><path class="cls-2" d="M268.14,129.1a41.67,41.67,0,0,1-7.52,0,39.36,39.36,0,0,1,7.52,0Z"/><path class="cls-2" d="M278.53,129.1a41.67,41.67,0,0,1-7.52,0,39.36,39.36,0,0,1,7.52,0Z"/><path class="cls-2" d="M288.66,129.1a41.67,41.67,0,0,1-7.52,0,39.36,39.36,0,0,1,7.52,0Z"/><path class="cls-2" d="M298.79,129.1a41.67,41.67,0,0,1-7.52,0,39.36,39.36,0,0,1,7.52,0Z"/><path class="cls-2" d="M240.67,135.44h-1v-.61h2.84v.61h-1v2.65h-.76Z"/><path class="cls-2" d="M245,138.09l-.63-.91h-.69v.91h-.75v-3.26h1.4c.87,0,1.42.45,1.42,1.18a1.06,1.06,0,0,1-.67,1l.73,1.05Zm-.71-2.65h-.61v1.14h.61c.46,0,.7-.22.7-.57S244.7,135.44,244.24,135.44Z"/><path class="cls-2" d="M248.82,137.48v.61H246.3v-3.26h2.46v.6h-1.71v.71h1.51v.59h-1.51v.75Z"/><path class="cls-2" d="M252.41,134.83v3.26h-.62l-1.63-2v2h-.74v-3.26H250l1.62,2v-2Z"/><path class="cls-2" d="M253.18,134.83h1.48a1.64,1.64,0,1,1,0,3.26h-1.48Zm1.44,2.64a1,1,0,1,0,0-2h-.69v2Z"/><path class="cls-2" d="M244.26,97.86a1.38,1.38,0,0,1-.37,0l-1.07,0-3.91.06-5.8,0h-3.42a9.59,9.59,0,0,1-1.84-.08,5.41,5.41,0,0,1-4.51-5.26V91c0-2.18,0-4.14,0-5.8s0-2.94.06-3.91c0-.43,0-.78,0-1.07a1.82,1.82,0,0,1,0-.37s0,.13,0,.37,0,.64,0,1.07c0,1,0,2.29.06,3.91s0,3.62,0,5.8a9.42,9.42,0,0,0,.32,3.33A5,5,0,0,0,226.22,97a5.06,5.06,0,0,0,1.69.61,10.52,10.52,0,0,0,1.78.08h3.42l5.8,0,3.91.05,1.07,0A1.82,1.82,0,0,1,244.26,97.86Z"/><polygon class="cls-2" points="319.23 69.23 319.23 118.82 325.23 118.82 333.49 118.82 372 118.82 372 69.23 319.23 69.23"/><path class="cls-2" d="M319.23,69.23h.95l2.82,0,10.72,0L372,69.07h.15v.16c0,14.5,0,31.49,0,49.58h0V119H372l-52.77,0h-.15v-.15c0-14.92.05-27.33.07-36,0-4.33,0-7.72,0-10,0-1.14,0-2,0-2.63s0-.89,0-.89,0,.32,0,.92,0,1.5,0,2.66c0,2.34,0,5.75,0,10.08,0,8.67,0,21,.08,35.93l-.15-.15,52.77,0-.18.18h0c0-18.09,0-35.08,0-49.58l.16.15-38.18-.08-10.76,0-2.84,0h-1Z"/><path class="cls-2" d="M345.38,74.85a16.28,16.28,0,1,0,16.28,16.28A16.28,16.28,0,0,0,345.38,74.85Zm.24,26a10,10,0,1,1,10-10A10,10,0,0,1,345.62,100.88Z"/><path class="cls-2" d="M335.62,90.88a10,10,0,0,1,5.93-9.13L339,76.12a16.3,16.3,0,0,0-10,15c0,.23,0,.45,0,.68h6.56C335.64,91.51,335.62,91.2,335.62,90.88Z"/><path class="cls-2" d="M358.85,111.52c0,.08-6,.15-13.47.15s-13.48-.07-13.48-.15,6-.16,13.48-.16S358.85,111.43,358.85,111.52Z"/><path class="cls-2" d="M352.85,114c0,.09-3.35.16-7.47.16s-7.48-.07-7.48-.16,3.35-.15,7.48-.15S352.85,113.91,352.85,114Z"/><path class="cls-2" d="M344.2,88.77v.67l-1.32,3.09h-1.16L343,89.62h-1v.58h-.91V88.77Z"/><path class="cls-2" d="M347.4,91.32c0,.67-.51,1.28-1.64,1.28a2.84,2.84,0,0,1-1.45-.37l.38-.8a1.86,1.86,0,0,0,1,.31c.36,0,.6-.14.6-.39s-.15-.38-.73-.38h-1l.19-2.2h2.39v.82h-1.51l0,.55h.25C347,90.14,347.4,90.66,347.4,91.32Z"/><path class="cls-2" d="M347.58,89.77a1,1,0,1,1,1,1A.95.95,0,0,1,347.58,89.77Zm3.18-1h.77L349,92.53h-.77Zm-1.9,1c0-.38-.14-.53-.32-.53s-.31.15-.31.53.14.53.31.53S348.86,90.15,348.86,89.77Zm1.37,1.77a1,1,0,1,1,1,1A.94.94,0,0,1,350.23,91.54Zm1.28,0c0-.39-.14-.54-.32-.54s-.32.15-.32.54.14.53.32.53S351.51,91.92,351.51,91.54Z"/><polygon class="cls-2" points="252.78 14.55 252.78 70.67 259.57 70.67 268.92 70.67 312.5 70.67 312.5 14.55 252.78 14.55"/><path class="cls-2" d="M252.78,14.55h1.09l3.19,0,12.13,0,43.31-.08h.15v.16c0,16.41,0,35.64,0,56.11h0v.17h-.17l-59.72,0h-.15v-.15c0-16.88.06-30.93.08-40.76,0-4.89,0-8.74,0-11.37,0-1.3,0-2.3,0-3s0-1,0-1,0,.36,0,1l0,3c0,2.64,0,6.5,0,11.41,0,9.81,0,23.82.07,40.66l-.15-.15,59.72,0-.18.18h0c0-20.47,0-39.7,0-56.11l.15.15-43.21-.08-12.17,0h-4.34Z"/><path class="cls-2" d="M282.38,20.91A18.43,18.43,0,1,0,300.8,39.33,18.43,18.43,0,0,0,282.38,20.91Zm.27,29.46A11.32,11.32,0,1,1,294,39.05,11.31,11.31,0,0,1,282.65,50.37Z"/><path class="cls-2" d="M282.66,20.91v6.83a11.33,11.33,0,0,1,10.78,14.75l6.68,1.81a18.43,18.43,0,0,0-17.46-23.39Z"/><path class="cls-2" d="M271.34,39.05a11.3,11.3,0,0,1,6.71-10.33l-2.84-6.37a18.45,18.45,0,0,0-11.26,17c0,.26,0,.52,0,.78h7.42A9.29,9.29,0,0,1,271.34,39.05Z"/><path class="cls-2" d="M282.65,50.37a11.74,11.74,0,0,1-2.39-.25c-.28,1.64-.82,4.82-1.24,7.33a18.41,18.41,0,0,0,21.1-13.15l-6.68-1.81A11.31,11.31,0,0,1,282.65,50.37Z"/><path class="cls-2" d="M297.62,62.41c0,.09-6.82.17-15.24.17s-15.25-.08-15.25-.17,6.83-.18,15.25-.18S297.62,62.31,297.62,62.41Z"/><path class="cls-2" d="M290.83,65.21c0,.09-3.78.17-8.45.17s-8.46-.08-8.46-.17,3.79-.18,8.46-.18S290.83,65.11,290.83,65.21Z"/><path class="cls-2" d="M281.12,39.63c0,.63-.51,1.25-1.64,1.25a2.9,2.9,0,0,1-1.46-.37l.39-.8a1.94,1.94,0,0,0,1,.31c.36,0,.59-.14.59-.39s-.16-.37-.57-.37H279v-.67l.67-.72h-1.48v-.82h2.71v.66l-.78.84A1.08,1.08,0,0,1,281.12,39.63Z"/><path class="cls-2" d="M284.35,39.59c0,.67-.5,1.29-1.63,1.29a2.88,2.88,0,0,1-1.46-.37l.38-.8a2,2,0,0,0,1,.31c.36,0,.6-.15.6-.4s-.15-.38-.72-.38h-1l.19-2.19h2.39v.82H282.6l0,.55h.25C283.92,38.42,284.35,38.93,284.35,39.59Z"/><path class="cls-2" d="M284.54,38a1,1,0,1,1,1,1A.94.94,0,0,1,284.54,38Zm3.18-1h.77l-2.56,3.75h-.78Zm-1.91,1c0-.38-.13-.53-.31-.53s-.32.15-.32.53.14.53.32.53S285.81,38.42,285.81,38Zm1.38,1.77a1,1,0,1,1,.95,1A.94.94,0,0,1,287.19,39.81Zm1.27,0c0-.38-.14-.53-.32-.53s-.31.15-.31.53.14.53.31.53S288.46,40.19,288.46,39.81Z"/><polygon class="cls-2" points="186.46 30.09 186.46 79.69 192.46 79.69 200.72 79.69 239.23 79.69 239.23 30.09 186.46 30.09"/><path class="cls-2" d="M186.46,30.09h1l2.82,0L201,30l38.27-.08h.16v.15c0,14.5,0,31.5,0,49.59h0v.17h-.18l-52.77,0h-.15v-.15c0-14.92.06-27.33.08-36,0-4.33,0-7.72,0-10.05,0-1.15,0-2,0-2.63s0-.9,0-.9,0,.33,0,.93,0,1.5,0,2.66c0,2.34,0,5.74,0,10.08,0,8.67,0,21.05.07,35.93l-.15-.15,52.77,0-.17.18h0c0-18.09,0-35.09,0-49.59l.15.16-38.17-.08-10.76,0-2.85,0h-1Z"/><path class="cls-2" d="M212.61,35.71A16.29,16.29,0,1,0,228.9,52,16.28,16.28,0,0,0,212.61,35.71Zm.25,26a10,10,0,1,1,10-10A10,10,0,0,1,212.86,61.75Z"/><path class="cls-2" d="M212.86,35.72v6a10,10,0,0,1,10,10,9.76,9.76,0,0,1-.47,3l5.9,1.6a16.25,16.25,0,0,0-15.43-20.66Z"/><path class="cls-2" d="M202.86,51.75a10,10,0,0,1,5.93-9.13L206.28,37a16.3,16.3,0,0,0-9.95,15c0,.23,0,.45,0,.68h6.55C202.87,52.37,202.86,52.06,202.86,51.75Z"/><path class="cls-2" d="M212.86,61.75a10.59,10.59,0,0,1-2.12-.22c-.25,1.45-.72,4.26-1.1,6.47a16.24,16.24,0,0,0,18.65-11.62l-5.9-1.6A10,10,0,0,1,212.86,61.75Z"/><g class="cls-3"><path class="cls-2" d="M212.86,61.75a10.59,10.59,0,0,1-2.12-.22c-.25,1.45-.72,4.26-1.1,6.47a16.24,16.24,0,0,0,18.65-11.62l-5.9-1.6A10,10,0,0,1,212.86,61.75Z"/></g><path class="cls-2" d="M226.09,72.39c0,.08-6,.15-13.47.15s-13.48-.07-13.48-.15,6-.16,13.48-.16S226.09,72.3,226.09,72.39Z"/><path class="cls-2" d="M220.09,74.86c0,.09-3.35.16-7.47.16s-7.48-.07-7.48-.16,3.35-.15,7.48-.15S220.09,74.78,220.09,74.86Z"/><path class="cls-2" d="M210.66,52.2a1.33,1.33,0,0,1-1.47,1.28,1.65,1.65,0,0,1-1.74-1.85,1.89,1.89,0,0,1,2-2.06,2.06,2.06,0,0,1,1.1.28l-.39.76a1.15,1.15,0,0,0-.69-.19.89.89,0,0,0-.95.87,1.28,1.28,0,0,1,.85-.28A1.21,1.21,0,0,1,210.66,52.2Zm-1,0a.46.46,0,0,0-.51-.47.47.47,0,0,0-.52.48.52.52,0,0,0,1,0Z"/><path class="cls-2" d="M210.93,51.53c0-1.24.69-2,1.65-2s1.65.72,1.65,2-.69,1.95-1.65,1.95S210.93,52.76,210.93,51.53Zm2.24,0c0-.79-.25-1.09-.59-1.09s-.59.3-.59,1.09.25,1.08.59,1.08S213.17,52.31,213.17,51.53Z"/><path class="cls-2" d="M214.53,50.64a1,1,0,1,1,1,1A.95.95,0,0,1,214.53,50.64Zm3.18-1h.77l-2.56,3.75h-.77Zm-1.9,1c0-.38-.14-.53-.32-.53s-.32.15-.32.53.15.53.32.53S215.81,51,215.81,50.64Zm1.37,1.77a1,1,0,1,1,1,1A.94.94,0,0,1,217.18,52.41Zm1.28,0c0-.38-.14-.53-.32-.53s-.32.15-.32.53.14.53.32.53S218.46,52.79,218.46,52.41Z"/><rect class="cls-4" x="370.76" y="8.7" width="93.46" height="115.65"/><polygon class="cls-5" points="461.38 114.56 378.48 114.56 375.79 16.73 458.69 16.73 461.38 114.56"/><rect class="cls-4" x="375.98" y="16.39" width="82.9" height="94.46"/><circle class="cls-4" cx="455.02" cy="19.93" r="1.61"/><rect class="cls-4" x="385.45" y="28.62" width="62.49" height="9"/><rect class="cls-4" x="385.29" y="46.28" width="21.53" height="12.21"/><rect class="cls-4" x="410.36" y="61.7" width="21.53" height="12.21"/><rect class="cls-4" x="434.94" y="46.28" width="13.46" height="12.21"/><rect class="cls-4" x="434.94" y="61.94" width="13.46" height="12.21"/><rect class="cls-4" x="410.52" y="56.05" width="21.53" height="0.88"/><rect class="cls-4" x="410.52" y="52.94" width="21.53" height="0.88"/><rect class="cls-4" x="410.52" y="49.82" width="21.53" height="0.88"/><rect class="cls-4" x="410.52" y="46.71" width="21.53" height="0.88"/><rect class="cls-4" x="385.29" y="76.88" width="21.53" height="12.21"/><rect class="cls-4" x="434.94" y="76.88" width="13.46" height="12.21"/><rect class="cls-4" x="410.52" y="86.66" width="21.53" height="0.88"/><rect class="cls-4" x="410.52" y="83.54" width="21.53" height="0.88"/><rect class="cls-4" x="410.52" y="80.43" width="21.53" height="0.88"/><rect class="cls-4" x="410.52" y="77.31" width="21.53" height="0.88"/><rect class="cls-4" x="385.21" y="70.99" width="21.53" height="0.88"/><rect class="cls-4" x="385.21" y="67.88" width="21.53" height="0.88"/><rect class="cls-4" x="385.21" y="64.76" width="21.53" height="0.88"/><rect class="cls-4" x="385.21" y="61.65" width="21.53" height="0.88"/><circle class="cls-4" cx="379.19" cy="19.93" r="1.61"/><rect class="cls-4" x="494.96" y="8.7" width="93.46" height="115.65"/><polygon class="cls-5" points="585.43 114.56 502.54 114.56 499.84 16.73 582.74 16.73 585.43 114.56"/><rect class="cls-4" x="500.18" y="16.39" width="82.9" height="94.46"/><circle class="cls-4" cx="579.22" cy="19.93" r="1.61"/><circle class="cls-4" cx="503.39" cy="19.93" r="1.61"/><rect class="cls-4" x="535.02" y="25.24" width="6.35" height="25.8" transform="translate(576.34 -500.05) rotate(90)"/><rect class="cls-4" x="540.59" y="30.82" width="6.35" height="36.95" transform="translate(593.06 -494.48) rotate(90)"/><rect class="cls-4" x="532.39" y="50.16" width="6.35" height="20.55" transform="translate(596.01 -475.13) rotate(90)"/><rect class="cls-4" x="544.09" y="59.02" width="6.35" height="2.83" transform="translate(607.7 -486.82) rotate(90)"/><rect class="cls-4" x="551.12" y="34.94" width="6.35" height="6.41" transform="translate(592.44 -516.15) rotate(90)"/><rect class="cls-4" x="542.67" y="51.04" width="6.35" height="41.1" transform="translate(617.43 -474.26) rotate(90)"/><rect class="cls-4" x="535.02" y="69.93" width="6.35" height="25.8" transform="translate(621.02 -455.37) rotate(90)"/><rect class="cls-4" x="528.57" y="87.52" width="6.35" height="12.9" transform="translate(625.72 -437.77) rotate(90)"/><rect class="cls-4" x="516.59" y="36.02" width="6.35" height="4.25" rx="2.13" transform="translate(557.91 -481.63) rotate(90)"/><rect class="cls-4" x="516.59" y="47.17" width="6.35" height="4.25" rx="2.13" transform="translate(569.06 -470.48) rotate(90)"/><rect class="cls-4" x="516.59" y="58.31" width="6.35" height="4.25" rx="2.13" transform="translate(580.21 -459.33) rotate(90)"/><rect class="cls-4" x="516.59" y="69.46" width="6.35" height="4.25" rx="2.13" transform="translate(591.35 -448.18) rotate(90)"/><rect class="cls-4" x="516.59" y="80.7" width="6.35" height="4.25" rx="2.13" transform="translate(602.59 -436.94) rotate(90)"/><rect class="cls-4" x="516.59" y="91.85" width="6.35" height="4.25" rx="2.13" transform="translate(613.74 -425.79) rotate(90)"/><rect class="cls-4" x="534.25" y="90.37" width="6.35" height="7.21" transform="translate(631.39 -443.45) rotate(90)"/><rect class="cls-4" x="619.17" y="8.7" width="93.46" height="115.65"/><polygon class="cls-5" points="710.27 114.56 627.38 114.56 624.68 16.73 707.58 16.73 710.27 114.56"/><rect class="cls-4" x="624.38" y="16.39" width="82.9" height="94.46"/><circle class="cls-4" cx="703.43" cy="19.93" r="1.61"/><circle class="cls-4" cx="627.6" cy="19.93" r="1.61"/><rect class="cls-4" x="641.69" y="63.99" width="34.91" height="2.14"/><rect class="cls-4" x="641.69" y="68.8" width="54.51" height="2.14"/><rect class="cls-4" x="641.69" y="73.61" width="36.72" height="2.14"/><path class="cls-4" d="M639.46,65.06a1.74,1.74,0,1,1-1.73-1.61A1.67,1.67,0,0,1,639.46,65.06Z"/><path class="cls-4" d="M639.46,70.4a1.74,1.74,0,1,1-1.73-1.6A1.66,1.66,0,0,1,639.46,70.4Z"/><path class="cls-4" d="M639.46,75.21a1.74,1.74,0,1,1-1.73-1.6A1.66,1.66,0,0,1,639.46,75.21Z"/><line class="cls-4" x1="637.59" y1="84.3" x2="666.89" y2="84.3"/><line class="cls-4" x1="637.59" y1="93.56" x2="682.38" y2="93.56"/><line class="cls-4" x1="637.59" y1="87.38" x2="655.4" y2="87.38"/><line class="cls-4" x1="637.59" y1="90.47" x2="683.18" y2="90.47"/><rect class="cls-4" x="636.11" y="33.16" width="58.29" height="4.54"/><rect class="cls-4" x="636.11" y="41.18" width="58.29" height="4.54"/><rect class="cls-4" x="636.11" y="49.19" width="58.29" height="4.54"/><rect class="cls-4" x="743.37" y="8.7" width="93.46" height="115.65"/><polygon class="cls-5" points="834.1 114.56 751.2 114.56 748.51 16.73 831.41 16.73 834.1 114.56"/><rect class="cls-4" x="748.59" y="16.39" width="82.9" height="94.46"/><circle class="cls-4" cx="827.63" cy="19.93" r="1.61"/><circle class="cls-4" cx="751.8" cy="19.93" r="1.61"/><rect class="cls-4" x="781.24" y="32.71" width="35.54" height="2.67"/><rect class="cls-4" x="781.24" y="37.79" width="35.54" height="2.67"/><rect class="cls-4" x="781.24" y="43.14" width="35.54" height="2.67"/><rect class="cls-4" x="781.24" y="57.56" width="35.54" height="2.67"/><rect class="cls-4" x="781.24" y="62.64" width="35.54" height="2.67"/><rect class="cls-4" x="781.24" y="67.99" width="35.54" height="2.67"/><rect class="cls-4" x="781.51" y="79.74" width="35.54" height="2.67"/><rect class="cls-4" x="781.51" y="84.82" width="35.54" height="2.67"/><rect class="cls-4" x="781.51" y="90.16" width="35.54" height="2.67"/><rect class="cls-4" x="759.2" y="31.29" width="14.79" height="14.61" rx="5.95"/><rect class="cls-4" x="758.93" y="55.69" width="14.79" height="14.61" rx="5.95"/><rect class="cls-4" x="759.2" y="79.74" width="14.79" height="14.61" rx="5.95"/><rect class="cls-4" x="370.76" y="145.22" width="93.46" height="115.65"/><polygon class="cls-5" points="461.38 250.95 378.48 250.95 375.79 153.12 458.69 153.12 461.38 250.95"/><rect class="cls-4" x="375.98" y="152.91" width="82.9" height="94.46"/><path class="cls-4" d="M456.62,156.45a1.61,1.61,0,1,1-1.6-1.61A1.6,1.6,0,0,1,456.62,156.45Z"/><rect class="cls-4" x="385.45" y="171.87" width="62.49" height="9"/><path class="cls-4" d="M380.8,156.45a1.61,1.61,0,1,1-1.61-1.61A1.61,1.61,0,0,1,380.8,156.45Z"/><rect class="cls-4" x="384.94" y="183.48" width="29.28" height="10.51"/><rect class="cls-4" x="418.75" y="183.48" width="28.71" height="10.51"/><rect class="cls-4" x="436.42" y="195.95" width="10.69" height="8.19"/><rect class="cls-4" x="384.94" y="197.93" width="29.28" height="10.51"/><rect class="cls-4" x="418.75" y="197.93" width="28.71" height="10.51"/><rect class="cls-4" x="384.94" y="226.06" width="10.69" height="8.19"/><rect class="cls-4" x="402.1" y="226.06" width="10.69" height="8.19"/><rect class="cls-4" x="419.26" y="226.06" width="10.69" height="8.19"/><rect class="cls-4" x="436.42" y="225.88" width="10.69" height="8.19"/><rect class="cls-4" x="494.64" y="145.21" width="93.46" height="115.65"/><polygon class="cls-5" points="585.21 250.95 502.31 250.95 499.62 153.12 582.52 153.12 585.21 250.95"/><rect class="cls-4" x="499.86" y="152.91" width="82.9" height="94.46"/><path class="cls-4" d="M580.5,156.45a1.61,1.61,0,1,1-1.6-1.61A1.6,1.6,0,0,1,580.5,156.45Z"/><path class="cls-4" d="M504.68,156.45a1.61,1.61,0,1,1-1.61-1.61A1.61,1.61,0,0,1,504.68,156.45Z"/><path class="cls-4" d="M516.51,174.67h8a8,8,0,1,1-1.36-4.47Z"/><path class="cls-4" d="M516.77,198.45l-.2-8h.2a8,8,0,1,1-8,8Z"/><path class="cls-4" d="M516.51,222.23h8a8,8,0,1,1-8-8,8,8,0,0,1,3.49.8Z"/><rect class="cls-4" x="531.47" y="167.72" width="35.54" height="2.67"/><rect class="cls-4" x="531.47" y="172.8" width="35.54" height="2.67"/><rect class="cls-4" x="531.47" y="178.14" width="35.54" height="2.67"/><rect class="cls-4" x="531.47" y="192.57" width="35.54" height="2.67"/><rect class="cls-4" x="531.47" y="197.65" width="35.54" height="2.67"/><rect class="cls-4" x="531.47" y="202.99" width="35.54" height="2.67"/><rect class="cls-4" x="531.74" y="214.75" width="35.54" height="2.67"/><rect class="cls-4" x="531.74" y="219.83" width="35.54" height="2.67"/><rect class="cls-4" x="531.74" y="225.17" width="35.54" height="2.67"/><rect class="cls-4" x="742.4" y="145.22" width="93.46" height="115.65"/><polygon class="cls-5" points="832.87 250.95 749.97 250.95 747.28 153.12 830.18 153.12 832.87 250.95"/><rect class="cls-4" x="747.62" y="152.91" width="82.9" height="94.46"/><path class="cls-4" d="M828.26,156.45a1.61,1.61,0,1,1-1.6-1.61A1.6,1.6,0,0,1,828.26,156.45Z"/><path class="cls-4" d="M752.43,156.45a1.61,1.61,0,1,1-1.6-1.61A1.6,1.6,0,0,1,752.43,156.45Z"/><rect class="cls-4" x="769.67" y="188.11" width="38.74" height="8.07"/><rect class="cls-4" x="769.67" y="199.29" width="38.74" height="8.07"/><rect class="cls-4" x="769.67" y="221.64" width="38.74" height="8.07"/><rect class="cls-4" x="769.67" y="210.47" width="38.74" height="8.07"/><rect class="cls-4" x="769.58" y="165.02" width="17.39" height="18.29"/><path class="cls-4" d="M779.83,174.26a3,3,0,1,0-3.11,0,3,3,0,0,0-2.25,2.93v2.36h7.61v-2.36A3,3,0,0,0,779.83,174.26Z"/><rect class="cls-4" x="618.52" y="145.22" width="93.46" height="115.65"/><polygon class="cls-5" points="709.71 250.95 626.81 250.95 624.12 153.12 707.02 153.12 709.71 250.95"/><rect class="cls-4" x="623.74" y="152.91" width="82.9" height="94.46"/><path class="cls-4" d="M704.38,156.45a1.61,1.61,0,1,1-1.6-1.61A1.6,1.6,0,0,1,704.38,156.45Z"/><path class="cls-4" d="M628.55,156.45a1.61,1.61,0,1,1-1.6-1.61A1.6,1.6,0,0,1,628.55,156.45Z"/><rect class="cls-4" x="649.89" y="163.35" width="28.49" height="9.67" rx="4.64"/><path class="cls-4" d="M659.56,175.42l-9.67,6.33Z"/><line class="cls-4" x1="659.56" y1="175.42" x2="652" y2="180.37"/><polygon class="cls-4" points="651.47 178.62 649.89 181.75 653.39 181.56 651.47 178.62"/><path class="cls-4" d="M668.7,175.42l9.68,6.33Z"/><line class="cls-4" x1="668.7" y1="175.42" x2="676.26" y2="180.37"/><polygon class="cls-4" points="674.87 181.56 678.38 181.75 676.79 178.62 674.87 181.56"/><path class="cls-4" d="M664.13,175.42v0Z"/><line class="cls-4" x1="664.13" y1="175.42" x2="664.13" y2="179.23"/><polygon class="cls-4" points="662.38 178.72 664.13 181.75 665.89 178.72 662.38 178.72"/><path class="cls-4" d="M646,189.84l-9.67,6.33Z"/><line class="cls-4" x1="646.02" y1="189.84" x2="638.46" y2="194.79"/><polygon class="cls-4" points="637.93 193.04 636.35 196.17 639.85 195.97 637.93 193.04"/><path class="cls-4" d="M650.59,189.84v0Z"/><line class="cls-4" x1="650.59" y1="189.84" x2="650.59" y2="193.65"/><polygon class="cls-4" points="648.84 193.13 650.59 196.17 652.35 193.13 648.84 193.13"/><path class="cls-4" d="M665.19,189.84v0Z"/><line class="cls-4" x1="665.19" y1="189.84" x2="665.19" y2="193.65"/><polygon class="cls-4" points="663.43 193.13 665.19 196.17 666.94 193.13 663.43 193.13"/><rect class="cls-4" x="643.38" y="182.98" width="12.61" height="4.4"/><rect class="cls-4" x="673.63" y="182.98" width="12.61" height="4.4"/><rect class="cls-4" x="658.33" y="182.98" width="12.61" height="4.4"/><rect class="cls-4" x="673.63" y="205.31" width="12.61" height="4.4"/><rect class="cls-4" x="633.36" y="197.4" width="7.56" height="4.22"/><rect class="cls-4" x="646.29" y="197.4" width="7.56" height="4.22"/><path class="cls-4" d="M683,189.49l9.67,6.33Z"/><line class="cls-4" x1="682.95" y1="189.49" x2="690.51" y2="194.44"/><polygon class="cls-4" points="689.12 195.62 692.62 195.82 691.04 192.69 689.12 195.62"/><path class="cls-4" d="M678.38,189.49v0Z"/><line class="cls-4" x1="678.38" y1="189.49" x2="678.38" y2="193.3"/><polygon class="cls-4" points="676.62 192.78 678.38 195.82 680.13 192.78 676.62 192.78"/><rect class="cls-4" x="688.05" y="197.05" width="7.56" height="4.22" transform="translate(1383.65 398.32) rotate(180)"/><rect class="cls-4" x="675.12" y="197.05" width="7.56" height="4.22" transform="translate(1357.81 398.32) rotate(180)"/><rect class="cls-4" x="673.63" y="212.88" width="12.61" height="4.4"/><path class="cls-4" d="M683,219.38l9.67,6.33Z"/><line class="cls-4" x1="682.95" y1="219.38" x2="690.51" y2="224.33"/><polygon class="cls-4" points="689.12 225.51 692.62 225.71 691.04 222.58 689.12 225.51"/><path class="cls-4" d="M678.38,219.38v0Z"/><line class="cls-4" x1="678.38" y1="219.38" x2="678.38" y2="223.19"/><polygon class="cls-4" points="676.62 222.67 678.38 225.71 680.13 222.67 676.62 222.67"/><rect class="cls-4" x="688.05" y="226.94" width="7.56" height="4.22" transform="translate(1383.65 458.1) rotate(180)"/><rect class="cls-4" x="675.12" y="226.94" width="7.56" height="4.22" transform="translate(1357.81 458.1) rotate(180)"/><rect class="cls-4" x="661.41" y="197.4" width="7.56" height="4.22"/><rect class="cls-4" x="633.01" y="205.14" width="22.86" height="10.37"/><polyline class="cls-4" points="656.75 211.12 665.36 211.12 665.25 205.9"/><polygon class="cls-4" points="667.01 206.38 665.19 203.38 663.5 206.46 667.01 206.38"/><polyline class="cls-4" points="687.7 214.81 696.31 214.81 696.19 209.6"/><polygon class="cls-4" points="697.96 210.07 696.13 207.07 694.45 210.15 697.96 210.07"/><rect class="cls-4" x="633.01" y="225.35" width="22.86" height="4.93"/><rect class="cls-4" x="633.01" y="218.32" width="22.86" height="4.93"/><polyline class="cls-4" points="656.75 225.89 665.36 225.89 665.25 220.67"/><polygon class="cls-4" points="667.01 221.15 665.19 218.15 663.5 221.23 667.01 221.15"/><path class="cls-4" d="M524,190.57c-1.82,5.66-16.94,25.22-29.32,40.46V210.27l17.64-14.4Z"/><path class="cls-6" d="M446.22,427.85l-21.09,17.3,21.38,26.34c2.4-2.19-3.61-19.93-3.61-19.93l14-10.52Z"/><g class="cls-7"><path class="cls-6" d="M437.42,442.49a1.39,1.39,0,0,0-1.83.25,1.33,1.33,0,0,0,.24,1.82,1.45,1.45,0,0,0,1.93-.28,1.37,1.37,0,0,0-.45-1.86"/></g><g class="cls-7"><path class="cls-6" d="M425.21,445.07l2.12-1.75,19.6,26.12s.43,1.59-.51,2.12Z"/></g><path class="cls-6" d="M443.38,451.88c-.14.1-.72-.49-1.64-.79s-1.75-.2-1.79-.36.85-.57,2-.19S443.52,451.81,443.38,451.88Z"/><path class="cls-6" d="M444.48,455.57c-.11.13-.78-.25-1.67-.24s-1.58.34-1.68.21.56-.8,1.68-.79S444.6,455.47,444.48,455.57Z"/><path class="cls-6" d="M442.44,459.83c-.12-.1.38-.8,1.35-1s1.74.13,1.68.27-.74.08-1.54.29S442.56,459.94,442.44,459.83Z"/><path class="cls-6" d="M446.29,449.13c-.16,0-.46-.69-1.1-1.38s-1.33-1.07-1.27-1.22.95,0,1.7.83S446.44,449.11,446.29,449.13Z"/><path class="cls-6" d="M448.91,446c-.05.05-.54-.39-1.06-1.32a7.5,7.5,0,0,1-.7-1.72,7.26,7.26,0,0,1-.21-1.09,2.25,2.25,0,0,1,0-.65.72.72,0,0,1,.64-.61.9.9,0,0,1,.75.32,2.35,2.35,0,0,1,.33.55,5.86,5.86,0,0,1,.39,1.05,6.09,6.09,0,0,1,.19,1.87,2.84,2.84,0,0,1-.44,1.64c-.09,0,.07-.65,0-1.65a6.8,6.8,0,0,0-.29-1.71,7,7,0,0,0-.38-.95c-.16-.34-.35-.58-.53-.55s-.09,0-.12.15a1.57,1.57,0,0,0,0,.48,8.35,8.35,0,0,0,.16,1,9.9,9.9,0,0,0,.55,1.67A13.54,13.54,0,0,1,448.91,446Z"/><path class="cls-6" d="M448.59,446c-.06,0,.2-.66,1-1.39a5.42,5.42,0,0,1,2.67-1.3,1.39,1.39,0,0,1,1.34.3.77.77,0,0,1,.08.85,2.16,2.16,0,0,1-.37.53,4,4,0,0,1-.89.72,3.91,3.91,0,0,1-1.82.54c-1.1,0-1.69-.37-1.65-.42a13.54,13.54,0,0,0,1.61,0,4,4,0,0,0,1.58-.59,3.8,3.8,0,0,0,.75-.65c.24-.27.38-.55.27-.64a1,1,0,0,0-.81-.11,6,6,0,0,0-2.5,1.07C449,445.47,448.67,446,448.59,446Z"/><path class="cls-6" d="M436.66,442l.26,27.27,33.93-.14c-.21-3.24-17.79-9.68-17.79-9.68l.55-17.48Z"/><g class="cls-7"><path class="cls-6" d="M442.56,458a1.37,1.37,0,0,0-.95,1.58,1.33,1.33,0,0,0,1.56,1,1.46,1.46,0,0,0,1-1.69,1.39,1.39,0,0,0-1.74-.81"/></g><g class="cls-7"><path class="cls-6" d="M436.91,469.14l0-2.75,32.64,1.1s1.51.66,1.34,1.73Z"/></g><path class="cls-6" d="M453.61,459.26c0,.16-.84.24-1.65.78s-1.25,1.23-1.4,1.17.09-1,1.09-1.66S453.64,459.1,453.61,459.26Z"/><path class="cls-6" d="M457.17,460.71c0,.16-.68.45-1.24,1.15s-.72,1.45-.88,1.44-.28-.94.44-1.8S457.17,460.56,457.17,460.71Z"/><path class="cls-6" d="M459.21,465c-.15,0-.38-.8,0-1.7s1.19-1.28,1.26-1.14-.4.62-.74,1.38S459.37,465,459.21,465Z"/><path class="cls-6" d="M453.29,455.26c-.07.15-.83-.07-1.77,0s-1.66.37-1.75.23.61-.74,1.72-.8S453.37,455.13,453.29,455.26Z"/><path class="cls-6" d="M452.46,451.24a3.29,3.29,0,0,1-1.7,0,7.43,7.43,0,0,1-1.78-.53,9.17,9.17,0,0,1-1-.52,2,2,0,0,1-.52-.4.73.73,0,0,1-.08-.88.92.92,0,0,1,.73-.38,2,2,0,0,1,.63.09,5.5,5.5,0,0,1,1.06.36,5.84,5.84,0,0,1,1.57,1c.79.72,1.06,1.34,1,1.37s-.46-.46-1.27-1.06a6.29,6.29,0,0,0-2.49-1.14c-.36-.09-.67-.1-.76.06s0,.09,0,.19a1.35,1.35,0,0,0,.38.29,6.84,6.84,0,0,0,.9.51,9.34,9.34,0,0,0,1.64.63A9.91,9.91,0,0,1,452.46,451.24Z"/><path class="cls-6" d="M452.25,451.47c-.06,0-.39-.56-.46-1.63A5.65,5.65,0,0,1,452,448a5,5,0,0,1,.43-1,1.36,1.36,0,0,1,1.08-.86.78.78,0,0,1,.71.47,2.36,2.36,0,0,1,.18.62,4,4,0,0,1,0,1.15,3.84,3.84,0,0,1-.72,1.75c-.66.89-1.35,1.09-1.36,1s.52-.4,1-1.25a3.87,3.87,0,0,0,.53-1.6,3.23,3.23,0,0,0,0-1c-.06-.36-.19-.65-.33-.62s-.45.27-.59.56a6.36,6.36,0,0,0-.42.93,6,6,0,0,0-.32,1.69C452.16,450.83,452.34,451.45,452.25,451.47Z"/><path class="cls-8" d="M439.57,284a48.38,48.38,0,0,0-7.09,10c-2.34,4.87-3.83,16.52-3.83,16.52s-6.57,14.62-5.57,22.11,7.69,58.66,7.69,58.66-.33,49.76,4.4,58.63l1.06,4.79,19.13-3.4h0l-.12-2.87,4.52-97.56,11.51-66.41Z"/><path class="cls-8" d="M481.79,298.49s11.43,63,12.44,73.9S456.31,441,456.31,441l-17.8-18.54,25.55-47.49-8.31-47.87,11.56-42.29,12.13.42Z"/><path class="cls-8" d="M432.2,434.39a12.92,12.92,0,0,0,.14,1.39c.12.91.34,2.26.66,4,.64,3.46,1.67,8.49,3.05,14.77l0,.13.14,0,19.13-3.35.15,0v-.14c.54-13.13,1.17-28.83,1.85-45.66.71-18.11,1.36-34.9,1.9-48.67h0c1.43-11.06,2.62-20.21,3.45-26.62.4-3.18.71-5.68.93-7.4.1-.84.18-1.48.23-1.94s.06-.67.06-.67,0,.22-.11.66-.16,1.1-.28,1.94c-.24,1.72-.59,4.21-1,7.39-.87,6.4-2.11,15.54-3.6,26.6h0c-.56,13.78-1.24,30.57-2,48.68-.66,16.83-1.27,32.52-1.78,45.65l.15-.17-19.12,3.44.16.1c-1.42-6.26-2.5-11.28-3.18-14.73-.34-1.73-.59-3.06-.73-4-.08-.45-.12-.8-.16-1A3.44,3.44,0,0,0,432.2,434.39Z"/><path class="cls-6" d="M466.48,177.77c.57-3.34-2-6.7-5.21-7.71s-6.84,0-9.62,1.91c-2.07,1.44-3.78,3.38-6,4.63-2,1.14-4.29,1.66-6.25,2.84a10.86,10.86,0,0,0-5.16,8.92c0,2.49.75,5.14-.37,7.37-1.21,2.43-4.27,3.42-5.66,5.75-1.25,2.12-.84,4.79-.24,7.18s1.35,4.89.65,7.24c-.63,2.15-2.36,3.79-3.32,5.81a9.1,9.1,0,0,0,3.74,11.5l20.55-8.35Z"/><path class="cls-6" d="M466.72,176.45c3.16-.3,6,2.22,7.27,5.15s1.19,6.22,1.24,9.4.23,6.49,1.81,9.25c.83,1.45,2,2.66,3,4a6.93,6.93,0,0,1,1.49,4.66c-.39,3-3.69,4.86-4.52,7.78-.68,2.36.41,4.93-.13,7.33a7.37,7.37,0,0,1-3.38,4.39,19.89,19.89,0,0,1-5.26,2.1l-10.31-8,2.51-46.76Z"/><path class="cls-9" d="M444.07,192.34l1.23,33.18A9.87,9.87,0,0,0,456,235h0a9.57,9.57,0,0,0,8.71-10.15c-.09-2.49,0-5.45,0-5.71,0,0,8.31-1.86,8.61-10.24.14-4,.05-10.86-.39-18.42a15.61,15.61,0,0,0-15.23-14.72l-.81,0C448.15,176,443.53,183.62,444.07,192.34Z"/><path class="cls-10" d="M464.73,219.17a19.45,19.45,0,0,1-10.85-3.36s2.44,6.1,10.82,5.54Z"/><path class="cls-6" d="M445.38,203.53a.08.08,0,0,0-.1.09s.07.08.12,0a.08.08,0,0,0,0-.13s-.05,0-.06,0"/><path class="cls-6" d="M445.5,203.17a.08.08,0,0,0-.1.09c0,.05.08.08.12.05a.09.09,0,0,0,0-.13.08.08,0,0,0-.07,0"/><path class="cls-6" d="M440.93,199.61c-1.92-6.76-.94-14.49,3.37-20s12.15-8.41,18.79-6.12a6.38,6.38,0,0,1,2.56,1.48,2.91,2.91,0,0,1,.79,2.73c-.45,1.5-2.26,2.1-3.82,2.17s-3.24-.13-4.58.66c-2.38,1.4-2.33,4.9-4,7.08-.83,1.07-2.07,1.79-2.82,2.92-2,3-.36,4.89-1.66,8.31-.36,1-2,1.82-3,2s-.2.13-2.35-.11h0Z"/><path class="cls-9" d="M447,200.76c-.14-.07-5.63-2-5.74,3.71s5.62,4.64,5.63,4.47S447,200.76,447,200.76Z"/><path class="cls-10" d="M445.23,206.75s-.1.07-.27.14a1,1,0,0,1-.74,0,2.43,2.43,0,0,1-1.09-2.22,3.25,3.25,0,0,1,.3-1.42,1.19,1.19,0,0,1,.76-.75.5.5,0,0,1,.58.29c.08.16,0,.27.07.28s.12-.09.08-.33a.62.62,0,0,0-.21-.36.78.78,0,0,0-.55-.15,1.37,1.37,0,0,0-1.05.86,3.24,3.24,0,0,0-.38,1.58,2.58,2.58,0,0,0,1.4,2.49A1,1,0,0,0,445,207C445.22,206.89,445.25,206.76,445.23,206.75Z"/><path class="cls-11" d="M434.46,189.64a10.81,10.81,0,0,0,3.84.86,12.26,12.26,0,0,0,4.21-.66,19.46,19.46,0,0,0,4.66-2.39c1.55-1.06,2.95-2.19,4.23-3.2s2.45-1.91,3.49-2.6a19.33,19.33,0,0,1,2.54-1.47,4.93,4.93,0,0,1,1-.41,5.26,5.26,0,0,1-.93.55,24.6,24.6,0,0,0-2.45,1.57c-1,.71-2.15,1.62-3.42,2.65s-2.66,2.18-4.23,3.24a18.89,18.89,0,0,1-4.78,2.42,12.28,12.28,0,0,1-4.33.59,9,9,0,0,1-2.88-.63,4.7,4.7,0,0,1-.72-.36C434.53,189.71,434.45,189.65,434.46,189.64Z"/><path class="cls-11" d="M434,190.18c0-.06.81.41,2.14,1a25.31,25.31,0,0,0,5.4,1.8,25.94,25.94,0,0,0,5.67.51c1.46,0,2.37-.16,2.38-.1a1.91,1.91,0,0,1-.63.17,14.29,14.29,0,0,1-1.73.21,21,21,0,0,1-5.77-.4,21.28,21.28,0,0,1-5.45-1.93,15.75,15.75,0,0,1-1.51-.9C434.17,190.34,434,190.2,434,190.18Z"/><path class="cls-11" d="M475.07,186.74a4.45,4.45,0,0,1-2.63-1.22,4.4,4.4,0,0,1-1.64-2.4,22.29,22.29,0,0,0,1.9,2.09A25.9,25.9,0,0,0,475.07,186.74Z"/><path class="cls-11" d="M474.84,192.26c.07.09-.24.43-.76.61s-1,.1-1,0,.38-.22.84-.37S474.77,192.17,474.84,192.26Z"/><path class="cls-9" d="M506.66,261.37a8.81,8.81,0,0,1,1.36-4.95c1.49-2,4.65-2.94,4.92-4.36s2.69-4.23,3.86-3.57,1.69,2.17,0,3.93a28.63,28.63,0,0,0-3,3.73s15.12-2.62,16.23-2.43,2.21.39,2.22,1.32-2.93,1.19-2.93,1.19l-4.93,3.42a20.77,20.77,0,0,1-4,4.11,14.09,14.09,0,0,1-5.52,2l-5.23,3.34S504.5,265.27,506.66,261.37Z"/><path class="cls-10" d="M529,256.34s-.09-.12-.26-.28a1.64,1.64,0,0,0-.89-.41,5.53,5.53,0,0,0-3.17.94A14.36,14.36,0,0,0,522,258.8a5.62,5.62,0,0,1-1.06,1,5.68,5.68,0,0,1,.87-1.16,11.17,11.17,0,0,1,2.63-2.34,5.14,5.14,0,0,1,3.42-.89,1.63,1.63,0,0,1,1,.57C529,256.18,529,256.33,529,256.34Z"/><path class="cls-10" d="M523.7,256.52a8,8,0,0,1-2.28.68,7.76,7.76,0,0,1-2.35.31,8,8,0,0,1,2.27-.68A7.79,7.79,0,0,1,523.7,256.52Z"/><path class="cls-10" d="M515.89,257.24a3.51,3.51,0,0,1,3.49,2.56,6.43,6.43,0,0,0-3.49-2.56Z"/><path class="cls-12" d="M477.48,227.82s7.43,3.78,9.24,8.76c.95,2.62,6.57,30.5,6.57,30.5l11.31-7.69,7.66,11.52L494.17,285a16.8,16.8,0,0,1-10.64-.76c-1.23-.53-2.22-1.13-2.46-1.78C480.34,280.44,477.48,227.82,477.48,227.82Z"/><g class="cls-3"><path class="cls-12" d="M488.49,271.68a7,7,0,0,0-.94,6.4,1,1,0,0,0,.33.48.83.83,0,0,0,1.11-.35,2.69,2.69,0,0,0,.26-1.26,16.17,16.17,0,0,1,4.08-9.81V267A20.38,20.38,0,0,0,488.49,271.68Z"/></g><path class="cls-12" d="M425,231.53l21.46-7c4.17,11.08,17.61,9.2,18.29.27l12.75,3.07s4.27,27.07,3.24,32.7c-1.67,9,2.51,38.42,4.72,49,1.92,9.15-3.68,14.59-6.5,17.08-14.34,12.67-21.78,11-32.27,4.38a150.25,150.25,0,0,0-23.16-11.4c1-12.25,7.83-25,12.2-34.17h0l-2-21.37Z"/><path class="cls-12" d="M485.07,306.37a2.85,2.85,0,0,1-.18-.63c-.11-.41-.26-1-.44-1.81-.37-1.59-.85-3.88-1.34-6.74s-1-6.29-1.34-10.11-.57-8-.63-12.46-.13-8.64-.42-12.46a65.24,65.24,0,0,0-1.42-10.05,41.4,41.4,0,0,0-2-6.53c-.28-.76-.57-1.32-.73-1.72a4.71,4.71,0,0,1-.24-.6,3.76,3.76,0,0,1,.31.57c.18.38.5.93.81,1.69a38.51,38.51,0,0,1,2.14,6.53,62.33,62.33,0,0,1,1.51,10.09c.32,3.82.39,8.05.46,12.47s.26,8.62.6,12.44.78,7.23,1.24,10.09.9,5.16,1.21,6.75c.16.77.28,1.38.37,1.83A4.38,4.38,0,0,1,485.07,306.37Z"/><g class="cls-3"><path class="cls-12" d="M456.05,289.53c-4.51-.22-9.16-.41-13.39,1.16-6.44,2.39-10.76,8.39-16.41,12.3l.53.19a15.59,15.59,0,0,0,16.77-1.05c2.34-1.76,4.23-4.23,7-5.28a24.45,24.45,0,0,0,3.61-1.26A4.89,4.89,0,0,0,456.05,289.53Z"/></g><path class="cls-12" d="M425,231.6a12.8,12.8,0,0,0-5.44,6.18c-1.47,3.53-5.45,51.17-4.77,54.22s3.87,7.62,9.15,10c4.44,2,15.94-2.85,20.59-4.56.15-.05-1-1.84-1.51-3l-4-12.56-6.32.69L435,258.89Z"/><path class="cls-12" d="M432,247.61a9.34,9.34,0,0,1,.33,1.33c.16.86.37,2.11.57,3.67.4,3.11.78,7.43,1.13,12.2s.64,9,.86,12.21c.13,1.51.23,2.75.31,3.69a10.38,10.38,0,0,1,.1,1.36,8,8,0,0,1-.26-1.34c-.12-.87-.28-2.13-.43-3.69-.32-3.12-.64-7.44-1-12.2s-.68-9.08-1-12.2c-.16-1.55-.32-2.81-.44-3.68A11.22,11.22,0,0,1,432,247.61Z"/><path class="cls-12" d="M440,281.36a14.09,14.09,0,0,1-2.06.43c-1.3.23-3.13.53-5.28.87h-.06l-.05,0a10,10,0,0,0-3.59-.85,9.64,9.64,0,0,0-4.19.74,10.24,10.24,0,0,0-2.93,1.9,14.92,14.92,0,0,0-2,2.54,3.07,3.07,0,0,1,.37-.82,9.19,9.19,0,0,1,1.48-1.93,10,10,0,0,1,3-2,9.93,9.93,0,0,1,8.08.12l-.11,0c2.15-.31,4-.56,5.31-.72A13.47,13.47,0,0,1,440,281.36Z"/><path class="cls-12" d="M443.11,294.43a3.65,3.65,0,0,1,.48.75l1.19,2.13.07.14-.14.05c-2.15.84-5.32,2-8.85,3.33L432.81,302l-.12-.38h0l.09.38h-.07l-.09-.38h0l.11.38a14.41,14.41,0,0,1-6.71.6,15.14,15.14,0,0,1-1.92-.42,2.68,2.68,0,0,1-.66-.25c0-.06,1,.23,2.61.42a15,15,0,0,0,6.56-.72l.11.37h0l-.09-.38h.07l.09.38h0l-.12-.37,3.05-1.13c3.53-1.3,6.72-2.44,8.89-3.2l-.07.19-1.08-2.19A4.23,4.23,0,0,1,443.11,294.43Z"/><path class="cls-12" d="M493.46,266.94a30.84,30.84,0,0,0-2.17,2.85c-1,1.7-1.38,3.29-1.51,3.26a7.22,7.22,0,0,1,1.16-3.47A6.75,6.75,0,0,1,493.46,266.94Z"/><path class="cls-6" d="M467.19,180.3s0,.1,0,.16h0Z"/><path class="cls-11" d="M451.72,292.2a12.84,12.84,0,0,1-1-4,12.64,12.64,0,0,1-.1-4.07,30.94,30.94,0,0,1,.56,4A30.84,30.84,0,0,1,451.72,292.2Z"/><path class="cls-6" d="M444.21,208.93l-19.09,19.6a13.9,13.9,0,0,1,.36,13.68l15.94.51c0-1.43.07-2.86.1-4.3a5.56,5.56,0,0,0,3.8,3.76c2.43.69,5,0,7.43-.63A150,150,0,0,1,444.21,208.93Z"/><path class="cls-13" d="M448.48,250c0,.57-.11,35.48-.11,35.48l29.59,1,1.48-35.3Z"/><path class="cls-14" d="M451.51,247.38c0,.71-4.1,42.49-4.1,42.49l32.1-.76,5.4-41.73Z"/><path class="cls-6" d="M480.69,255.81c0,.11-5.5.2-12.29.2s-12.29-.09-12.29-.2,5.5-.2,12.29-.2S480.69,255.7,480.69,255.81Z"/><path class="cls-6" d="M480.39,258.56c0,.11-5.51.2-12.29.2s-12.29-.09-12.29-.2,5.5-.2,12.29-.2S480.39,258.45,480.39,258.56Z"/><path class="cls-6" d="M479.84,262c0,.11-5.51.2-12.29.2s-12.29-.09-12.29-.2,5.5-.2,12.29-.2S479.84,261.93,479.84,262Z"/><path class="cls-6" d="M479.25,265.16c0,.11-5.5.2-12.29.2s-12.29-.09-12.29-.2,5.5-.21,12.29-.21S479.25,265,479.25,265.16Z"/><path class="cls-6" d="M479.25,268.27c0,.11-5.5.2-12.29.2s-12.29-.09-12.29-.2,5.5-.2,12.29-.2S479.25,268.16,479.25,268.27Z"/><path class="cls-6" d="M479,271.54c0,.11-5.5.2-12.29.2s-12.29-.09-12.29-.2,5.5-.2,12.29-.2S479,271.43,479,271.54Z"/><path class="cls-6" d="M478.67,274.81c0,.11-5.51.21-12.29.21s-12.3-.1-12.3-.21,5.51-.2,12.3-.2S478.67,274.7,478.67,274.81Z"/><path class="cls-6" d="M478.37,278.08c0,.12-5.5.21-12.29.21s-12.29-.09-12.29-.21,5.5-.2,12.29-.2S478.37,278,478.37,278.08Z"/><path class="cls-6" d="M478.08,281.35c0,.12-5.51.21-12.29.21s-12.29-.09-12.29-.21,5.5-.2,12.29-.2S478.08,281.24,478.08,281.35Z"/><path class="cls-6" d="M477.78,284.62c0,.12-5.5.21-12.29.21s-12.29-.09-12.29-.21,5.5-.2,12.29-.2S477.78,284.51,477.78,284.62Z"/><path class="cls-9" d="M438.14,285.4s2.56-5.64,3.09-6,9.68-1.36,11.5-1.38,5,.05,5.51,1c.37.71,0,1.75-1.46,2,0,0,2-.11,1.82,1.17s-4.8,3.62-4.8,3.62.85,1-.85,2.77l-.75,1s.32,1.7-.64,2.45-7.05,2.87-7.05,2.87l-2.32-.74-1.49.74S435.84,290.15,438.14,285.4Z"/><path class="cls-10" d="M457.5,280.78a10,10,0,0,1-2,.73c-1.28.39-3.06.87-5.06,1.31s-3.81.75-5.13.94a11.09,11.09,0,0,1-2.16.21,12.21,12.21,0,0,1,2.11-.49c1.31-.26,3.11-.62,5.1-1.06s3.77-.87,5.06-1.19A14.33,14.33,0,0,1,457.5,280.78Z"/><path class="cls-10" d="M453.62,286a20,20,0,0,1-8.77,1.9c0-.12,2-.32,4.41-.85S453.57,285.89,453.62,286Z"/><path class="cls-10" d="M452.11,289.51a8.83,8.83,0,0,1-6,1.93c0-.12,1.4-.27,3-.81S452,289.4,452.11,289.51Z"/><path class="cls-10" d="M443,291.7s-.48.07-1.07-.36a2.56,2.56,0,0,1-.8-1,2.73,2.73,0,0,1-.22-1.51,1.08,1.08,0,0,0-.11-.62,3.72,3.72,0,0,0-.43-.5,2.14,2.14,0,0,1-.53-1.15,1.36,1.36,0,0,1,.23-1.11,6,6,0,0,0,0,1.06,2.14,2.14,0,0,0,.52.95,2.74,2.74,0,0,1,.5.55,1.35,1.35,0,0,1,.17.84,2.47,2.47,0,0,0,.8,2.24C442.56,291.55,443,291.63,443,291.7Z"/><path class="cls-10" d="M444.51,294.26c0,.12-.68.1-1.16-.5s-.36-1.27-.25-1.24.18.52.56,1S444.53,294.15,444.51,294.26Z"/><path class="cls-15" d="M169.4,469.31H274.09a14.64,14.64,0,0,0,14.76-15.58l-13.6-259.54a16.61,16.61,0,0,0-16.4-15.58H154.17a14.64,14.64,0,0,0-14.77,15.58L153,453.73A16.62,16.62,0,0,0,169.4,469.31Z"/><path class="cls-15" d="M154.72,189.06H259.4a10.54,10.54,0,0,1,10.4,9.88l13.1,250a9.28,9.28,0,0,1-9.36,9.88H168.85a10.55,10.55,0,0,1-10.4-9.88l-13.1-250A9.3,9.3,0,0,1,154.72,189.06Z"/><path class="cls-16" d="M154.72,189.06H259.4a10.54,10.54,0,0,1,10.4,9.88l13.1,250a9.28,9.28,0,0,1-9.36,9.88H168.85a10.55,10.55,0,0,1-10.4-9.88l-13.1-250A9.3,9.3,0,0,1,154.72,189.06Z"/><path class="cls-15" d="M145.62,178.61h8.55a14.64,14.64,0,0,0-14.77,15.58L153,453.73a16.62,16.62,0,0,0,16.4,15.58h-8.55a16.62,16.62,0,0,1-16.4-15.58l-13.6-259.54A14.64,14.64,0,0,1,145.62,178.61Z"/><path class="cls-17" d="M145.62,178.61h8.55a14.64,14.64,0,0,0-14.77,15.58L153,453.73a16.62,16.62,0,0,0,16.4,15.58h-8.55a16.62,16.62,0,0,1-16.4-15.58l-13.6-259.54A14.64,14.64,0,0,1,145.62,178.61Z"/><path class="cls-17" d="M259.41,189.06,245.2,458.86h-37l14.21-269.8h37.05Z"/><polygon class="cls-17" points="201.5 458.86 193.16 458.86 207.38 189.06 215.71 189.06 201.5 458.86"/><path class="cls-15" d="M254.13,174.06h-3.67a.45.45,0,0,1,0-.9h3.67a.45.45,0,0,1,0,.9Z"/><path class="cls-15" d="M280.81,203.68c-.23-4.28-.05-8.85-1-13.05a21.52,21.52,0,0,0-20.47-16.57c-.58,0-.58-.92,0-.9a22.45,22.45,0,0,1,20,13.26c2.36,5.34,2,11.54,2.32,17.26,0,.58-.87.58-.9,0Z"/><path class="cls-18" d="M198.81,242.61h24a7.67,7.67,0,0,0,7.74-8.16l-1.26-24a8.69,8.69,0,0,0-8.59-8.16h-24a7.67,7.67,0,0,0-7.74,8.16l1.26,24A8.69,8.69,0,0,0,198.81,242.61Z"/><path class="cls-15" d="M214.13,226.07a10.8,10.8,0,0,0,2.81-6.7h.1c1,0,1.7-1.07,1.64-2.38s-.92-2.39-1.89-2.39l-.25,0c0-.21-.12-.43-.18-.64-5.78-.31-9.05-2.22-10.77-3.78a6.14,6.14,0,0,1-3.8,3.27c-.09.37-.17.76-.23,1.15l-.25,0c-1,0-1.7,1.07-1.64,2.39s.92,2.38,1.89,2.38h.1a12.35,12.35,0,0,0,3.19,6.39,10.53,10.53,0,0,1-4.24.43c-5.85-.34-2.76-12.37.39-16.68,1.93-2.64,3-3.87,4.09-3.38,1.22-.67,8.55-3.69,13.29,5.19C223.3,220.56,224.76,229,214.13,226.07Z"/><path class="cls-15" d="M198,232.54l6.05-1.93s5.23,2,6.47,7c.72-5,5.74-7,5.74-7l6.25,1.93c3.75.52,5.57,3.73,6.46,7.05a7.71,7.71,0,0,1-6.19,3h-24a8.65,8.65,0,0,1-6.5-3C192.85,236.27,194.33,233.06,198,232.54Z"/><path class="cls-15" d="M181.62,240.49l-2.17,2.06a13.53,13.53,0,0,0,1.33,2.86l3.05-.16a11.54,11.54,0,0,0,2.12,2v3.06a13.74,13.74,0,0,0,2.92,1.18l1.94-2.27a11,11,0,0,0,1.42.1,10.88,10.88,0,0,0,1.41-.1l2.18,2.27a12.12,12.12,0,0,0,2.79-1.18l-.31-3.06a9.53,9.53,0,0,0,1.9-2l3.07.16a12.66,12.66,0,0,0,1-2.86l-2.38-2.06a11.1,11.1,0,0,0,0-1.42,10.87,10.87,0,0,0-.18-1.41l2.17-2.06a13.84,13.84,0,0,0-1.34-2.86l-3,.16a11.17,11.17,0,0,0-2.11-2v-3.06a13.61,13.61,0,0,0-2.93-1.18l-1.93,2.27a11.17,11.17,0,0,0-1.42-.1,10.91,10.91,0,0,0-1.42.1l-2.17-2.27a12.39,12.39,0,0,0-2.8,1.18l.32,3.06a9.53,9.53,0,0,0-1.9,2l-3.07-.16a12.05,12.05,0,0,0-1,2.86l2.39,2.06a11,11,0,0,0,0,1.41A10.8,10.8,0,0,0,181.62,240.49Zm6.86-1.42a3,3,0,0,1,3-3.21,3.43,3.43,0,0,1,3.39,3.21,3,3,0,0,1-3,3.22A3.43,3.43,0,0,1,188.48,239.07Z"/><path class="cls-17" d="M181.62,240.49l-2.17,2.06a13.53,13.53,0,0,0,1.33,2.86l3.05-.16a11.54,11.54,0,0,0,2.12,2v3.06a13.74,13.74,0,0,0,2.92,1.18l1.94-2.27a11,11,0,0,0,1.42.1,10.88,10.88,0,0,0,1.41-.1l2.18,2.27a12.12,12.12,0,0,0,2.79-1.18l-.31-3.06a9.53,9.53,0,0,0,1.9-2l3.07.16a12.66,12.66,0,0,0,1-2.86l-2.38-2.06a11.1,11.1,0,0,0,0-1.42,10.87,10.87,0,0,0-.18-1.41l2.17-2.06a13.84,13.84,0,0,0-1.34-2.86l-3,.16a11.17,11.17,0,0,0-2.11-2v-3.06a13.61,13.61,0,0,0-2.93-1.18l-1.93,2.27a11.17,11.17,0,0,0-1.42-.1,10.91,10.91,0,0,0-1.42.1l-2.17-2.27a12.39,12.39,0,0,0-2.8,1.18l.32,3.06a9.53,9.53,0,0,0-1.9,2l-3.07-.16a12.05,12.05,0,0,0-1,2.86l2.39,2.06a11,11,0,0,0,0,1.41A10.8,10.8,0,0,0,181.62,240.49Zm6.86-1.42a3,3,0,0,1,3-3.21,3.43,3.43,0,0,1,3.39,3.21,3,3,0,0,1-3,3.22A3.43,3.43,0,0,1,188.48,239.07Z"/><path class="cls-18" d="M188.48,239.07a3,3,0,0,1,3-3.21,3.43,3.43,0,0,1,3.39,3.21,3,3,0,0,1-3,3.22A3.43,3.43,0,0,1,188.48,239.07Z"/><polygon class="cls-15" points="212.49 353.28 215.89 353.28 215.58 347.42 212.18 347.42 212.49 353.28"/><polygon class="cls-15" points="196.97 353.28 200.37 353.28 199.87 343.62 196.46 343.62 196.97 353.28"/><polygon class="cls-15" points="181.45 353.28 184.86 353.28 184.15 339.82 180.75 339.82 181.45 353.28"/><polygon class="cls-18" points="165.94 353.28 169.34 353.28 168.43 336.02 165.03 336.02 165.94 353.28"/><path class="cls-18" d="M259.51,353.28h-17.3a9.22,9.22,0,0,1-9.11-8.65,8.13,8.13,0,0,1,8.2-8.65h17.31a9.22,9.22,0,0,1,9.1,8.65A8.13,8.13,0,0,1,259.51,353.28Z"/><path class="cls-15" d="M258.71,337.88H241.4a8.1,8.1,0,0,0-8.19,7.7c-.05-.31-.09-.63-.11-.95a8.13,8.13,0,0,1,8.2-8.65h17.31a9.22,9.22,0,0,1,9.1,8.65c0,.32,0,.64,0,.95A9.24,9.24,0,0,0,258.71,337.88Z"/><path class="cls-19" d="M258.71,337.88H241.4a8.1,8.1,0,0,0-8.19,7.7c-.05-.31-.09-.63-.11-.95a8.13,8.13,0,0,1,8.2-8.65h17.31a9.22,9.22,0,0,1,9.1,8.65c0,.32,0,.64,0,.95A9.24,9.24,0,0,0,258.71,337.88Z"/><ellipse class="cls-15" cx="259.06" cy="344.63" rx="8.43" ry="8.88" transform="translate(-168.56 289.67) rotate(-45.74)"/><polygon class="cls-15" points="269.26 427.85 272.66 427.85 272.25 420.09 268.85 420.09 269.26 427.85"/><polygon class="cls-15" points="256.64 425.95 260.04 425.95 259.89 422.94 256.48 422.94 256.64 425.95"/><polygon class="cls-15" points="244.17 426.9 247.58 426.9 247.32 421.99 243.91 421.99 244.17 426.9"/><polygon class="cls-15" points="231.6 425.95 235.01 425.95 234.85 422.94 231.45 422.94 231.6 425.95"/><polygon class="cls-15" points="219.19 427.85 222.59 427.85 222.18 420.09 218.78 420.09 219.19 427.85"/><polygon class="cls-15" points="206.57 425.95 209.97 425.95 209.81 422.94 206.41 422.94 206.57 425.95"/><polygon class="cls-15" points="194.1 426.9 197.5 426.9 197.25 421.99 193.84 421.99 194.1 426.9"/><polygon class="cls-15" points="181.53 425.95 184.94 425.95 184.78 422.94 181.37 422.94 181.53 425.95"/><polygon class="cls-15" points="169.11 427.85 172.52 427.85 172.11 420.09 168.71 420.09 169.11 427.85"/><g class="cls-3"><polygon points="269.26 427.85 272.66 427.85 272.25 420.09 268.85 420.09 269.26 427.85"/><polygon points="256.64 425.95 260.04 425.95 259.89 422.94 256.48 422.94 256.64 425.95"/><polygon points="244.17 426.9 247.58 426.9 247.32 421.99 243.91 421.99 244.17 426.9"/><polygon points="231.6 425.95 235.01 425.95 234.85 422.94 231.45 422.94 231.6 425.95"/><polygon points="219.19 427.85 222.59 427.85 222.18 420.09 218.78 420.09 219.19 427.85"/><polygon points="206.57 425.95 209.97 425.95 209.81 422.94 206.41 422.94 206.57 425.95"/><polygon points="194.1 426.9 197.5 426.9 197.25 421.99 193.84 421.99 194.1 426.9"/><polygon points="181.53 425.95 184.94 425.95 184.78 422.94 181.37 422.94 181.53 425.95"/><polygon points="169.11 427.85 172.52 427.85 172.11 420.09 168.71 420.09 169.11 427.85"/></g><path class="cls-15" d="M228.79,429.13c0-.86-.2-3.83-.24-4.68s-.2-3.83-.25-4.69a4.4,4.4,0,0,1,4.44-4.68,5,5,0,0,1,4.92,4.68c.05.86.2,3.83.25,4.69s.2,3.82.24,4.68a4.4,4.4,0,0,1-4.43,4.68A5,5,0,0,1,228.79,429.13Z"/><path class="cls-18" d="M261.7,395H244.39a9.21,9.21,0,0,1-9.1-8.65,8.13,8.13,0,0,1,8.2-8.65h17.3a9.22,9.22,0,0,1,9.11,8.65A8.13,8.13,0,0,1,261.7,395Z"/><path class="cls-15" d="M260.89,379.58h-17.3a8.12,8.12,0,0,0-8.2,7.7,7.46,7.46,0,0,1-.1-.95,8.13,8.13,0,0,1,8.2-8.65h17.3a9.22,9.22,0,0,1,9.11,8.65c0,.32,0,.64,0,.95A9.23,9.23,0,0,0,260.89,379.58Z"/><path class="cls-19" d="M260.89,379.58h-17.3a8.12,8.12,0,0,0-8.2,7.7,7.46,7.46,0,0,1-.1-.95,8.13,8.13,0,0,1,8.2-8.65h17.3a9.22,9.22,0,0,1,9.11,8.65c0,.32,0,.64,0,.95A9.23,9.23,0,0,0,260.89,379.58Z"/><path class="cls-15" d="M252.59,386.33a9.22,9.22,0,0,0-9.1-8.65,8.13,8.13,0,0,0-8.2,8.65,9.21,9.21,0,0,0,9.1,8.65A8.13,8.13,0,0,0,252.59,386.33Z"/><path class="cls-18" d="M260,273.94H165.64a4.88,4.88,0,0,1-4.83-4.59,4.31,4.31,0,0,1,4.35-4.59h94.36a4.91,4.91,0,0,1,4.84,4.59A4.32,4.32,0,0,1,260,273.94Z"/><path class="cls-15" d="M259.52,266.76H165.16a4.27,4.27,0,0,0-4.23,3.37,4,4,0,0,1-.12-.78,4.31,4.31,0,0,1,4.35-4.59h94.36a4.74,4.74,0,0,1,4.72,5.81A4.91,4.91,0,0,0,259.52,266.76Z"/><path class="cls-19" d="M259.52,266.76H165.16a4.27,4.27,0,0,0-4.23,3.37,4,4,0,0,1-.12-.78,4.31,4.31,0,0,1,4.35-4.59h94.36a4.74,4.74,0,0,1,4.72,5.81A4.91,4.91,0,0,0,259.52,266.76Z"/><ellipse class="cls-15" cx="242.74" cy="269.35" rx="8.43" ry="8.88" transform="translate(-119.58 255.3) rotate(-45.75)"/><path class="cls-15" d="M167.25,381a3.12,3.12,0,0,1,3.16-3.33h27.85a3.56,3.56,0,0,1,3.51,3.33l.56,10.64a3.13,3.13,0,0,1-3.16,3.33H171.31a3.56,3.56,0,0,1-3.51-3.33Z"/><path class="cls-15" d="M198.36,379.58H170.51a3.12,3.12,0,0,0-3.16,3.33l-.1-1.9a3.12,3.12,0,0,1,3.16-3.33h27.85a3.56,3.56,0,0,1,3.51,3.33l.1,1.9A3.56,3.56,0,0,0,198.36,379.58Z"/><path class="cls-20" d="M198.36,379.58H170.51a3.12,3.12,0,0,0-3.16,3.33l-.1-1.9a3.12,3.12,0,0,1,3.16-3.33h27.85a3.56,3.56,0,0,1,3.51,3.33l.1,1.9A3.56,3.56,0,0,0,198.36,379.58Z"/><path class="cls-18" d="M184.46,381a3.13,3.13,0,0,1,3.16-3.33h10.64a3.56,3.56,0,0,1,3.51,3.33l.56,10.64a3.13,3.13,0,0,1-3.16,3.33H188.53a3.56,3.56,0,0,1-3.51-3.33Z"/><polygon class="cls-15" points="191.85 389.26 195.25 389.26 194.94 383.4 191.54 383.4 191.85 389.26"/><path class="cls-15" d="M167.13,302.4H261.5a4.9,4.9,0,0,1,4.83,4.59,4.31,4.31,0,0,1-4.35,4.59H167.61a4.88,4.88,0,0,1-4.83-4.59A4.3,4.3,0,0,1,167.13,302.4Z"/><path class="cls-20" d="M261.5,304.4H167.13a4.28,4.28,0,0,0-4.23,3.37,4,4,0,0,1-.12-.78,4.3,4.3,0,0,1,4.35-4.59H261.5a4.89,4.89,0,0,1,4.83,4.59,4.48,4.48,0,0,1-.12,1.22A4.9,4.9,0,0,0,261.5,304.4Z"/><path class="cls-18" d="M181.77,315.64H189a4.73,4.73,0,0,0,4.78-5l-.38-7.23a5.37,5.37,0,0,0-5.3-5h-7.23a4.73,4.73,0,0,0-4.78,5l.38,7.23A5.37,5.37,0,0,0,181.77,315.64Z"/><polygon class="cls-15" points="183.01 309.92 186.41 309.92 186.1 304.06 182.7 304.06 183.01 309.92"/><path class="cls-21" d="M333.07,243.91l13.61,15.44c-1.1,7.36-3.29,28.69-3.29,28.69,2,2.7,7,1.94,7,1.94a70.88,70.88,0,0,0,4.87-32c-1-10-13.76-29.59-22.86-35.15a17.75,17.75,0,0,0-4.79-2l-1.79-.21,6.37,23.72Z"/><path class="cls-22" d="M333.07,243.91l13.61,15.44c-1.1,7.36-3.29,28.69-3.29,28.69,2,2.7,7,1.94,7,1.94a70.88,70.88,0,0,0,4.87-32c-1-10-13.76-29.59-22.86-35.15a17.75,17.75,0,0,0-4.79-2l-1.79-.21,6.37,23.72Z"/><path class="cls-23" d="M344.17,289.77l-3.3,3.52a1.14,1.14,0,0,0-.24.41l-1.94,5.45a1.11,1.11,0,0,0,.05.89l.94,1.93a1.14,1.14,0,0,0,.81.62l6.68,1.37a1.16,1.16,0,0,0,1.37-.92l1.3-7.18a1,1,0,0,0,0-.43l-.9-4.6a1.15,1.15,0,0,0-.93-.92l-2.8-.49A1.13,1.13,0,0,0,344.17,289.77Z"/><polygon class="cls-21" points="341.32 288.95 351.82 293.72 351.95 288.64 342.27 284.92 341.32 288.95"/><polygon class="cls-24" points="341.32 288.95 351.82 293.72 351.95 288.64 342.27 284.92 341.32 288.95"/><path class="cls-8" d="M345.39,307.73c6.26,22.39,3.61,55.36,7,77.48,2.37,15.24,18.53,65.4,18.53,65.4l-14.27,4.33s-17.8-44.18-21.24-57.35c-5.6-21.37-14-61.89-14-61.89s-3.13-11.5-1.71-12.75S345.39,307.73,345.39,307.73Z"/><path class="cls-25" d="M329.69,323.08l-10.31,3.35,3.86,18.13S321.33,327.21,329.69,323.08Z"/><polygon class="cls-23" points="368.09 449.97 370.64 458.07 363.74 461.18 360.3 452.57 368.09 449.97"/><polygon class="cls-26" points="369.61 454.77 362.3 457.59 361.33 455.15 369.01 452.88 369.61 454.77"/><polygon class="cls-8" points="370.81 446.18 353.36 450.95 356.52 456.56 371.78 452.06 370.81 446.18"/><polygon class="cls-27" points="370.81 446.18 353.36 450.95 356.52 456.56 371.78 452.06 370.81 446.18"/><path class="cls-6" d="M359.85,463.49a3.73,3.73,0,0,1-2.64.31.76.76,0,0,1-.31-.84,1.06,1.06,0,0,1,.43-.69c1.21-.91,4.69-.4,4.84-.38a.2.2,0,0,1,.17.17.22.22,0,0,1-.09.22A16.34,16.34,0,0,1,359.85,463.49Zm-1.92-1.08a1.7,1.7,0,0,0-.35.19.57.57,0,0,0-.27.42c-.05.3.05.39.13.44.58.38,2.64-.41,4.08-1.2A9.65,9.65,0,0,0,357.93,462.41Z"/><path class="cls-6" d="M362.22,462.29a.11.11,0,0,1-.08,0c-1.15-.05-3.8-1.05-4-2-.07-.23,0-.56.5-.83a1.59,1.59,0,0,1,1.21-.09c1.37.45,2.45,2.56,2.5,2.66a.22.22,0,0,1,0,.21A.31.31,0,0,1,362.22,462.29Zm-3.28-2.52-.12,0c-.33.17-.3.32-.3.37.17.57,2,1.45,3.24,1.65a4.9,4.9,0,0,0-2.06-2.07,1,1,0,0,0-.76,0Z"/><path class="cls-6" d="M362.64,460.81l8.89-3.48a.76.76,0,0,1,.91.28l4.45,6.61a1.28,1.28,0,0,1-.34,1.77.92.92,0,0,1-.24.13c-3.22,1.2-6.14,2.14-10.13,3.71-4.71,1.85-3.29,1.94-8.8,4.19-3.32,1.35-5.41-2.2-4.07-2.94,6.15-3.35,6.06-5.57,7.65-8.86A3.08,3.08,0,0,1,362.64,460.81Z"/><polygon class="cls-23" points="304.69 456.56 304.52 464.36 296.98 465.09 296.53 456.56 304.69 456.56"/><polygon class="cls-26" points="296.72 460.19 296.61 458.14 304.65 458.47 304.6 460.85 296.72 460.19"/><path class="cls-8" d="M345.39,307.73c-2.36-11.26-11.79-21.25-11.79-21.25l-36.16,2.33s-2.28,23.25-2.82,31c-1.07,15.69-5.46,40-5.58,55.78-.16,21.27,4.72,77.77,4.72,77.77L307.42,455s-.2-52.25,2-71.95c1.69-14.93,11.89-55.83,11.89-55.83S349.34,326.61,345.39,307.73Z"/><polygon class="cls-8" points="309.75 452.76 291.71 451.65 292.88 457.98 308.78 458.65 309.75 452.76"/><polygon class="cls-27" points="309.75 452.76 291.71 451.65 292.88 457.98 308.78 458.65 309.75 452.76"/><path class="cls-6" d="M292.68,466c-1.08,0-2.22-.11-2.59-.57a.77.77,0,0,1,0-.9,1.07,1.07,0,0,1,.63-.51c1.44-.46,4.56,1.17,4.7,1.24a.2.2,0,0,1,.11.21.26.26,0,0,1-.16.18A16,16,0,0,1,292.68,466Zm-1.45-1.65a1.76,1.76,0,0,0-.4.07.56.56,0,0,0-.39.31c-.15.26-.09.38,0,.45.43.55,2.64.48,4.25.21A9.62,9.62,0,0,0,291.23,464.34Z"/><path class="cls-6" d="M295.31,465.63h-.08c-1.07-.42-3.24-2.24-3.09-3.23,0-.23.17-.53.74-.61a1.53,1.53,0,0,1,1.17.31c1.15.87,1.47,3.22,1.49,3.33a.2.2,0,0,1-.08.19A.2.2,0,0,1,295.31,465.63ZM293,462.18h-.12c-.37.05-.39.2-.41.25,0,.6,1.41,2,2.52,2.62a4.89,4.89,0,0,0-1.27-2.63,1.09,1.09,0,0,0-.72-.23Z"/><path class="cls-6" d="M296.19,464.38l9.54-.38a.78.78,0,0,1,.78.57l2,7.69a1.31,1.31,0,0,1-1.17,1.62c-3.44.07-6.51,0-10.79.18-5.05.2-3.75.75-9.68,1.07-3.58.19-4.4-3.85-2.89-4.11,6.91-1.15,7.55-3.28,10.14-5.87A3.06,3.06,0,0,1,296.19,464.38Z"/><path class="cls-23" d="M307.5,211.68c.64,2,2.22,5.41,0,8.44l10.87-1.05s-1.17-8-1.84-10.63c-.44-1.69-1-3.52-6.71-1.93C306.55,207.42,307.08,210.33,307.5,211.68Z"/><path class="cls-23" d="M317.31,208.71c6-4.61,18.63-17.13,6.5-28.06-10.11-9.11-19.38-3.79-22.55,2.37-3.55,6.88-11.58,25.28,6.24,28.66C310.79,212.3,314.2,211.1,317.31,208.71Z"/><path class="cls-15" d="M325.86,219.42s-8.39-7.36-24.32,2.36l.22,2.27,23.95-2.32Z"/><path class="cls-28" d="M325.86,219.42s-8.39-7.36-24.32,2.36l.22,2.27,23.95-2.32Z"/><path class="cls-29" d="M309.8,209.51c-.06,2.46-.75,3.74-1.64,4.37a14.47,14.47,0,0,0-.66-2.2C309.64,210.74,309.8,209.51,309.8,209.51Z"/><path class="cls-21" d="M303.41,221.49a99.33,99.33,0,0,1,10.44-1.66c6.18-.73,10.89-1.21,14.3.29,5.43,2.39,6.12,3.93,6.12,3.93l-1.07,17.59a156.86,156.86,0,0,0-.46,25.55c0,.07.42,16.77,9.43,25.72a29.39,29.39,0,0,1-12.92,6l-5.08-12.17-1.61,12.82s-18.32,5.43-33.44.42c0,0,8.28-13.22,5.62-26.74-1.29-6.51-2.23-9.55-2.95-14.69a27.83,27.83,0,0,1,0-8.32l3.4-23.2S301.19,222,303.41,221.49Z"/><path class="cls-22" d="M303.41,221.49a99.33,99.33,0,0,1,10.44-1.66c6.18-.73,10.89-1.21,14.3.29,5.43,2.39,6.12,3.93,6.12,3.93l-1.07,17.59a156.86,156.86,0,0,0-.46,25.55c0,.07.42,16.77,9.43,25.72a29.39,29.39,0,0,1-12.92,6l-5.08-12.17-1.61,12.82s-18.32,5.43-33.44.42c0,0,8.28-13.22,5.62-26.74-1.29-6.51-2.23-9.55-2.95-14.69a27.83,27.83,0,0,1,0-8.32l3.4-23.2S301.19,222,303.41,221.49Z"/><path class="cls-21" d="M292.88,265.13c-.43-2.35-.81-4.57-1.09-6.54a27.83,27.83,0,0,1,0-8.32l4.85-5.46S292,251.38,292.88,265.13Z"/><path class="cls-23" d="M249.44,240.07l-3.35-9.56a.8.8,0,0,0-.39-.44l-5.27-2.7a.79.79,0,0,0-.88.12l-3.76,3.3a.79.79,0,0,0-.11,1.07l3.89,5.11a.69.69,0,0,1,.1.19c.3.76,2.3,5.54,6.57,6.73l.15.06,1.43.76a.79.79,0,0,0,1-.23l1.82-2.55a.79.79,0,0,0-.32-1.18l-.48-.22A.76.76,0,0,1,249.44,240.07Z"/><path class="cls-21" d="M303.5,221.48a27.19,27.19,0,0,0-15.74,10.77c-6.41,8.56-15.94,16.31-15.94,16.31s-12.3-2.61-20.07-9.33L247.2,246s18.69,14.1,26.3,13.36c6.49-.63,18.33-9.08,18.33-9.08l4.87-5.47Z"/><path class="cls-22" d="M303.5,221.48a27.19,27.19,0,0,0-15.74,10.77c-6.41,8.56-15.94,16.31-15.94,16.31s-12.3-2.61-20.07-9.33L247.2,246s18.69,14.1,26.3,13.36c6.49-.63,18.33-9.08,18.33-9.08l4.87-5.47Z"/><polygon class="cls-15" points="251.31 238.38 244.48 246.86 249.06 248.07 254.5 240.1 251.31 238.38"/><polygon class="cls-28" points="251.31 238.38 244.48 246.86 249.06 248.07 254.5 240.1 251.31 238.38"/><path class="cls-8" d="M314.27,217.48c5.12.53,20.25.82,18.43-10.26s.64-16.57-4.05-24.37-14.48-10.08-23.28-7.78c-7.33,1.92-7.93,7.05-5.94,10.14s2.89,3.66,2.53,5.85,1,3.42,1.56,4.45a6,6,0,0,0,2.33,1.69,13.44,13.44,0,0,1-.38,6.47C304.4,207.72,302.23,216.24,314.27,217.48Z"/><path class="cls-8" d="M307.46,175.16a20.63,20.63,0,0,0-7.09,2c-1.73.89-3.46,2.22-3.86,4.25-.56,2.93,1.7,5.71,3.5,7.73.29.33-.26.72-.54.4-3.18-3.58-5.66-8.61-1-12a18.84,18.84,0,0,1,8.89-3,.34.34,0,0,1,.07.67Z"/><path class="cls-8" d="M328.58,182.78c3.38,4.38,3.54,10.1,4.22,15.31.48,3.68,4.63,10.86,1.69,14.34-.28.33-.81-.09-.53-.42,2-2.37,0-5.86-.68-8.32a43,43,0,0,1-1.31-7.37c-.46-4.47-1.08-9.45-3.93-13.13a.34.34,0,0,1,.54-.41Z"/><path class="cls-23" d="M301.73,196.3c-.68,2,0,4.11,1.45,4.61s3.26-.76,3.94-2.81,0-4.11-1.45-4.61S302.42,194.25,301.73,196.3Z"/><path class="cls-21" d="M52.34,207.48S48,208.72,46,203.86,42.81,190.22,44,189.2s5-1.2,7.78-1.91a40.88,40.88,0,0,1,6-1s3,10.72,1.43,15.36S52.34,207.48,52.34,207.48Z"/><path class="cls-30" d="M55.32,196.76s.45-4-1.7-5.18-6.25,1.34-5.72,4.64S50.58,200,51,202a18.55,18.55,0,0,0,1.31,4.74c.57.89.36,3-.73,4.82a13.19,13.19,0,0,1-2.37,2.86s-1.62,7.77,6.12,9.56,9.88,4.49,13.36.9,2.15-5.81,1.88-6.62a40.56,40.56,0,0,1-.63-4.91l-.08-1a3.18,3.18,0,0,0,3.39-1.7c1-2.15,4.56-10,3-13.76a9.17,9.17,0,0,1-.5-7.06c.32-1.43-.57-5.36-.93-6.26A17.9,17.9,0,0,0,73.19,181l-15.46,5.28s-.57,7.23-.51,9.38S55.66,200.19,55.32,196.76Z"/><path class="cls-31" d="M69.89,212.4s-8-1.16-11.35-2.15-3.76-1.43-3.76-1.43,8.67,8.76,10,8.13S69.89,212.4,69.89,212.4Z"/><path class="cls-12" d="M84.45,176.57c-1,1-11.47,6-22.56,9.8-6.53,2.21-13.27,4-18.36,4.16,0,0-4.92-19.5,6.25-22.9s16.08-2.77,19,0,4.75,11.62,4.75,11.62h0C73.89,179.14,86,175.07,84.45,176.57Z"/><path class="cls-32" d="M84.45,176.57c-1,1-11.47,6-22.56,9.8-.86-.57,11.67-7.12,11.67-7.12h0C73.89,179.14,86,175.07,84.45,176.57Z"/><path class="cls-6" d="M38.52,449.54s-1.07,7-2.14,9.65,1.07,8.94,4.64,9.65,19.3,2.14,19.3,0-.76-5.18-2.43-6.08-5.61-1.19-7.75-3-1.93-7.54-1.93-7.54Z"/><path class="cls-6" d="M72.88,447.18S72,455.08,71,458.13s1.37,10.06,5,10.76,19.36,1.87,19.3-.55-.94-5.83-2.64-6.79-5.64-1.18-7.84-3.17S80.58,447,80.58,447Z"/><path class="cls-8" d="M31.2,301.39s-4.65,17.69,0,50,3.93,43.43,3.93,49.14.35,50.58,2.5,51.65,12.33,2,13,.89S60.32,385,60.32,385s4.83,32.88,7.69,46.28,3.75,17.52,5.9,18.23,7.68.18,7.86-.89,4.47-86.32,4.82-89.54-1.45-50.62-1.45-50.62Z"/><path class="cls-12" d="M43,215.79s-12.69,5.36-17.51,14.83-9.12,20.2-7.15,39.5,11.61,21.8,11.44,23.14-1.92,7.06.64,10.63,6.5,3.58,8.83,4.65,22.34,3.57,30.38,4.11,15.72-2.86,16.08-5.18,0-10.19,0-10.19l.16-50H96.6s-4.82-16.44-8.22-19.12-15.19-10.36-15.19-10.36-7.5,5.54-9.47,5.54-9.11-3.4-10.9-4.65S47.41,213.51,43,215.79Z"/><path class="cls-12" d="M49.69,212.84s10.67,6.62,10.19,7.87-4.19,5.09-5.09,4-11-7.69-9.92-9.12S47.67,211.55,49.69,212.84Z"/><path class="cls-12" d="M71.4,214.45c.63.54,5.21,3.39,4.17,4.87s-9.16,7.3-10.24,5.59-2.41-3.13-1.61-4.29S71.4,214.45,71.4,214.45Z"/><path class="cls-32" d="M65.34,312.36,64,312.1c0-.06,1.21-6.61.82-25.7s-3.24-62.91-3.27-63.35l1.34-.09c0,.44,2.87,44.18,3.27,63.41S65.39,312.09,65.34,312.36Z"/><path class="cls-32" d="M43,263.33v12a11.09,11.09,0,0,1-2.41-.91C35.94,272,35,260.29,34.81,254.62c0,.22,1.5,13.15,4.43,15.68S43,263.33,43,263.33Z"/><path class="cls-32" d="M29.77,293.26l-.26,1.34s12,3.48,12.81,5a8.08,8.08,0,0,0,5.32,3.27c1.52,0,20-1.34,26.58-1.08a32.48,32.48,0,0,0,11.58-1.61Z"/><rect class="cls-33" x="42.99" y="247.24" width="74.34" height="52.36" rx="1.88"/><path class="cls-34" d="M117.33,249.12v48.61a1.87,1.87,0,0,1-1.88,1.87H73.19V247.24h42.26A1.88,1.88,0,0,1,117.33,249.12Z"/><rect class="cls-35" x="47.64" y="253.32" width="8.31" height="8.31" rx="3"/><rect class="cls-33" x="87.49" y="253.32" width="18.23" height="4.15" rx="1.96"/><rect class="cls-33" x="80.16" y="278.16" width="16.44" height="16.44" rx="5"/><rect class="cls-18" x="81.5" y="279.5" width="13.76" height="13.76" rx="2.46"/><path class="cls-30" d="M51.5,280.55a15.65,15.65,0,0,0,3.42-1.05c1.67-.76,6.16-2.52,5.69-1.34s-2.68,2.32-1.27,2.39,6.24-3.62,6.67,0-1.37,6.64-2.65,7.31-6.25-.81-7.41-.81-5.45.27-5.45.27Z"/><path class="cls-12" d="M52.64,282.49c-1.07,9.39-1.88,13-4.16,13.27s-9.14,1.79-19-3.06S17.52,251.8,24,239.2s14.52-3.08,10.81,12.33c0,0,0,1.21,0,3.08h0c.18,5.67,1.13,17.41,5.77,19.83a11.09,11.09,0,0,0,2.41.91C48.41,276.72,53.57,274.33,52.64,282.49Z"/><rect class="cls-12" x="42.99" y="242.42" width="12.96" height="3.4" rx="1.48"/><polygon class="cls-32" points="84.72 247.24 83.11 240.1 88.02 247.24 84.72 247.24"/><polygon class="cls-21" points="60.32 385.03 62.83 335.44 66.27 422.25 60.32 385.03"/><path class="cls-36" d="M832.18,314.36l8.08-4.62a1.84,1.84,0,0,1,2.57.6l.09.16a2,2,0,0,1-.85,2.56L834,317.68a1.84,1.84,0,0,1-2.57-.6l-.09-.16A2,2,0,0,1,832.18,314.36Z"/><path class="cls-36" d="M849.55,317s-3.85,4.9-4.92,6.34c-2.08,2.8-3.79,3.72-5.7,2.68l-3.17-3.17c-1.48-2-2.07-3.05-1-5l3.48-6.32a4,4,0,0,1,5.38-1.6l3.81,2.08C849.32,313.09,850.6,315.09,849.55,317Z"/><path class="cls-36" d="M840.92,315.67l-5.33,6.24c-.83,1-2.05,1.45-2.72.92h0c-.67-.54-.54-1.82.29-2.86l5.33-6.24c.83-1,2-1.45,2.72-.91h0C841.88,313.35,841.75,314.63,840.92,315.67Z"/><path class="cls-36" d="M842.57,318.15l-5.32,6.25c-.83,1-2.06,1.44-2.73.91h0c-.67-.53-.53-1.82.3-2.85l5.32-6.25c.83-1,2.05-1.44,2.72-.91h0C843.53,315.84,843.4,317.12,842.57,318.15Z"/><path class="cls-36" d="M844.71,321.15l-5.33,6.25c-.82,1-2,1.44-2.72.91h0c-.67-.53-.53-1.82.29-2.85l5.33-6.25c.83-1,2.05-1.44,2.72-.91h0C845.67,318.83,845.54,320.12,844.71,321.15Z"/><path class="cls-36" d="M865.3,289.72a55.49,55.49,0,0,1-3.56,9.07,39,39,0,0,1-2.7,4.47l-10.83,15.59a4.82,4.82,0,0,1-2.43,1.87,5.34,5.34,0,0,1-5.43-1.49c-2.49-2.46-1.05-4.93.8-7.59,0,0,12.19-17.12,12.92-18.88s10.26-43.29,10.26-43.29c1-5,.77-7.77,3.56-9s5.17,4.21,6.51,7.62C874.4,248.1,872.88,265.78,865.3,289.72Z"/><path class="cls-8" d="M859.37,264.46c2-9.88,3.77-16.32,4.74-21.27s5.44-7.07,10-1.56-.64,18.29-2.9,31c-1.33,7.5-6.38,19.81-6.38,19.81l-10.8-6S857.4,274.06,859.37,264.46Z"/><polygon class="cls-18" points="854.59 282.43 860.68 285.06 861.33 289.73 864.53 286.23 867.97 287.63 865.87 294.02 852.53 288.19 854.59 282.43"/><circle class="cls-8" cx="896.08" cy="170.27" r="10.89" transform="translate(-14.53 117.99) rotate(-7.47)"/><path class="cls-8" d="M891.27,215.44a34.83,34.83,0,0,1-.09-4.84c0-8.3.08-24.49-2.28-25.72-6.48-3.39-32.77,15.09-34.39,7.83a24.72,24.72,0,0,1-.6-5.26c0-.38,0-.75,0-1.12A25,25,0,0,1,859.06,172h0a25,25,0,0,1,20.82-9.83q.57,0,1.14.06a26,26,0,0,1,22.36,16.31,27.39,27.39,0,0,1,1.87,9.52C905.68,208.87,893.73,211.73,891.27,215.44Z"/><path class="cls-8" d="M891.27,215.44a34.83,34.83,0,0,1-.09-4.84l.19-.66a28.07,28.07,0,0,0,10.72-16.14c1.87-7.8,1.61-13,1.3-15.28a27.39,27.39,0,0,1,1.87,9.52C905.68,208.87,893.73,211.73,891.27,215.44Z"/><path class="cls-36" d="M880.47,249.57h0a6.94,6.94,0,0,0,7.61-6.15l3.21-30.17a7,7,0,0,0-6.15-7.62h0a7,7,0,0,0-7.62,6.15L874.32,242A6.93,6.93,0,0,0,880.47,249.57Z"/><path class="cls-37" d="M891.65,203.54c0,.24,0,.47-.09.7a1.66,1.66,0,0,1,0,.22,21,21,0,0,1-2.92,8l-.22.35a20.33,20.33,0,0,1-9.92,8h0a18.65,18.65,0,0,1-4.94,1.1c-.63,0-1.26.08-1.89.08l-.64,0h-.13a17.44,17.44,0,0,1-2.72-.35,6.69,6.69,0,0,1-.75-.16,20,20,0,0,1-15-18.09,21,21,0,0,1,0-2.86l.09-1.47.56-9.8a25.67,25.67,0,0,1,.56-4.28,15.93,15.93,0,0,1,1-3.09,20.26,20.26,0,0,1,4.64-6.79,19.59,19.59,0,0,1,14.35-5.28,19.34,19.34,0,0,1,10.85,4.06c.44.34.87.7,1.28,1.08a20.36,20.36,0,0,1,4.87,6.84v0a19.2,19.2,0,0,1,.79,2.12l.12.4a24.14,24.14,0,0,1,.65,2.7c0,.21.08.42.11.62a16.5,16.5,0,0,1,.2,3.45v.21l0,.8-.05.87-.06,1.11h0v.25l0,.5h0l-.32,5.3-.09,1.75,0,.66,0,.15a.71.71,0,0,1,0,.14C891.7,203.09,891.68,203.32,891.65,203.54Z"/><path class="cls-38" d="M893.07,202.84a4.55,4.55,0,0,1-.53,0,1.2,1.2,0,0,1-.27,0l-.56,0-.69,0,.14-2.63,0-.59.26-4.78.73,0,.52,0a1.76,1.76,0,0,1,.33,0h0l.46.08h0a3.77,3.77,0,0,1,2,1.14,3.89,3.89,0,0,1,1,2.83A4.18,4.18,0,0,1,893.07,202.84Z"/><path class="cls-8" d="M892.85,185.75s-35-8.57-38.27-1.46c0,0-.6-7.64,10.49-14.25s28.56,1.74,29.68,5.19a13.72,13.72,0,0,1,.66,6Z"/><path class="cls-8" d="M905.86,262.26l-.44,7.39-3.18,53.45-.13,2.12h-.05l-12.84-.55-30.65-1.31,2.7-32.12-2.39-29.48a7.73,7.73,0,0,1,0-1.36c1-16.15,7-28.3,18.45-31.79l-1.11,20.28c1.38,0,11.65-20.16,13-19.94a13.69,13.69,0,0,1,5.43,2.23C901.82,236.14,905.48,248.11,905.86,262.26Z"/><path class="cls-36" d="M894.82,202.6a4.55,4.55,0,0,1-.53,0,.82.82,0,0,1-.27,0l-.56,0q0,.36-.06.69c0,.24,0,.47-.08.7a1.7,1.7,0,0,1,0,.22,20.85,20.85,0,0,1-2.91,8l-.23.35a20.28,20.28,0,0,1-9.92,8h0a18.43,18.43,0,0,1-5,1.11c-.63.05-1.26.08-1.89.08l-.64,0c1,0,6.88-.69,11.52-7.38,5-7.25,6.88-21.62,6.88-21.62s-.07-6.21.29-6.17c.12,0,1.15.36,2.52.83a16.5,16.5,0,0,1,.2,3.45v.21l0,.79-.05.87-.06,1.12h0v.24l0,.51.53,0,.32,0h0l.47.08h0a3.78,3.78,0,0,1,2,1.15,3.85,3.85,0,0,1,1,2.83A4.18,4.18,0,0,1,894.82,202.6Z"/><path class="cls-8" d="M859.46,182a5.08,5.08,0,1,1-4.52-5.59A5.09,5.09,0,0,1,859.46,182Z"/><path class="cls-8" d="M868.38,181.61a5.08,5.08,0,1,1-4.52-5.59A5.09,5.09,0,0,1,868.38,181.61Z"/><path class="cls-8" d="M878.05,182.19a5.08,5.08,0,1,1-4.51-5.59A5.08,5.08,0,0,1,878.05,182.19Z"/><circle class="cls-8" cx="883.01" cy="183.61" r="5.08"/><path class="cls-8" d="M887.35,180.62l3.94,17.78a1.13,1.13,0,0,0,2.15.19l5.6-13.48S894.86,171,887.35,180.62Z"/><polygon class="cls-18" points="890.8 228.8 891.04 223.71 882.49 223.71 878.29 237.27 877.32 223.88 874.1 223.71 873.13 260.02 890.8 228.8"/><path class="cls-39" d="M868.66,341.62,886.75,343c8,.61,14.89-3.06,15.33-8.46l-.11-9.92-46-.8-.59,7.18C854.94,336.39,860.67,341,868.66,341.62Z"/><path class="cls-6" d="M867.63,471.74h-1.17a1.27,1.27,0,0,1-1.27-1.27V452.75l5.3,1.11-1.6,16.73A1.27,1.27,0,0,1,867.63,471.74Z"/><path class="cls-6" d="M854.75,451.66l-6.33,11.23a6.14,6.14,0,0,1-5,2.95h0a3.19,3.19,0,0,0-3,3h0a3.19,3.19,0,0,0,3.21,3.39h5.13a10.48,10.48,0,0,0,7.16-2.83l13.86-12.94a4.37,4.37,0,0,0,.86-3.06h0a4.33,4.33,0,0,0-5-3.86Z"/><path class="cls-6" d="M854.42,450.23l-6.32,11.23a6.14,6.14,0,0,1-5,3h0a3.19,3.19,0,0,0-3.05,3h0a3.19,3.19,0,0,0,3.21,3.39h3.67a14.22,14.22,0,0,0,9.69-3.83L869.41,455a4.38,4.38,0,0,0,.86-3.07h0a4.34,4.34,0,0,0-5-3.86Z"/><line class="cls-6" x1="849.55" y1="458.59" x2="852.41" y2="460.33"/><line class="cls-6" x1="850.71" y1="456.34" x2="853.57" y2="458.08"/><line class="cls-6" x1="851.86" y1="454.2" x2="854.72" y2="455.94"/><path class="cls-39" d="M854.93,450.05l13.85.3-4.38-49.09a19.35,19.35,0,0,1-.1-5.21l11.08-64.49-19.76-2.28L846.31,391a41.65,41.65,0,0,0,.2,10.87Z"/><rect class="cls-40" x="853.51" y="447.1" width="16.42" height="3.46"/><path class="cls-6" d="M899.7,472.76h-1.16a1.27,1.27,0,0,1-1.27-1.27V453.77l5.3,1.12L901,471.61A1.27,1.27,0,0,1,899.7,472.76Z"/><path class="cls-6" d="M886.82,452.69l-6.32,11.23a6.14,6.14,0,0,1-5,2.95h0a3.18,3.18,0,0,0-3,3h0a3.18,3.18,0,0,0,3.21,3.38h5.12a10.51,10.51,0,0,0,7.17-2.84l13.86-12.93a4.37,4.37,0,0,0,.85-3.07h0a4.33,4.33,0,0,0-4.95-3.86Z"/><path class="cls-6" d="M886.5,451.25l-6.33,11.24a6.15,6.15,0,0,1-5,2.95h0a3.17,3.17,0,0,0-3,3h0a3.19,3.19,0,0,0,3.22,3.38H879A14.26,14.26,0,0,0,888.7,468l12.79-11.95a4.35,4.35,0,0,0,.85-3.06h0a4.33,4.33,0,0,0-5-3.86Z"/><line class="cls-6" x1="881.63" y1="459.62" x2="884.48" y2="461.36"/><line class="cls-6" x1="882.79" y1="457.37" x2="885.65" y2="459.11"/><line class="cls-6" x1="883.94" y1="455.22" x2="886.8" y2="456.96"/><polygon class="cls-39" points="887.13 450.95 900.94 451.04 901.8 330.09 878.81 328.9 887.13 450.95"/><rect class="cls-40" x="886.36" y="447.74" width="15.52" height="3.59"/><rect class="cls-41" x="858.36" y="321.98" width="44.05" height="4.6"/><path class="cls-42" d="M905.42,269.65l-3.09,51.85-13.47.73s-.48-27.84-.73-36.31S898.3,253,898.3,253A143.82,143.82,0,0,1,905.42,269.65Z"/><path class="cls-37" d="M861.67,317.35l9.23-2.55a1.93,1.93,0,0,1,2.43,1.24l0,.18a2,2,0,0,1-1.49,2.31l-9.23,2.55a1.92,1.92,0,0,1-2.43-1.23l-.05-.18A2,2,0,0,1,861.67,317.35Z"/><path class="cls-43" d="M866.22,340.67a4.76,4.76,0,0,1-2,.79l-18.83,3.33a5,5,0,0,1-5.8-4.06L834,308.46a5,5,0,0,1,4-5.8l.21,0,18.63-3.28a5,5,0,0,1,5.79,4.05l2.19,12.38L867,328.13l1.33,7.54A5,5,0,0,1,866.22,340.67Z"/><path class="cls-18" d="M851.14,313.91a2,2,0,1,1-3.9.75,2,2,0,1,1,3.9-.75Z"/><path class="cls-41" d="M870,331.81l-7.09,5.29c-1.17.93-2.6,1-3.17.27a1.35,1.35,0,0,1-.24-.93,3.31,3.31,0,0,1,1.32-2.2l4.93-3.67-.37-.63-6.94,5.19c-1.17.92-2.6,1-3.17.25a1.35,1.35,0,0,1-.24-.93,3.31,3.31,0,0,1,1.32-2.19l7.25-5.41,0-.1c-.07-.21-.15-.4-.22-.59l-5.72,4.27c-1.18.93-2.62,1.05-3.19.26a1.38,1.38,0,0,1-.23-.93,3.29,3.29,0,0,1,1.32-2.19L863,322l.11-.08a4.68,4.68,0,0,1,.72-1Z"/><path class="cls-37" d="M878.41,324.31s-5.06,3.89-6.5,5.05c-2.77,2.24-4.71,2.73-6.36,1.22l-2.4-3.93c-1-2.37-1.32-3.54.21-5.17l5-5.38a4.15,4.15,0,0,1,5.79-.23l3.3,3C879.14,320.39,879.94,322.68,878.41,324.31Z"/><path class="cls-37" d="M864.51,325l-6.88,4.84c-1.08.82-2.41.92-3,.22h0c-.54-.69-.09-1.93,1-2.74l6.87-4.85c1.09-.81,2.42-.91,3-.22h0C866,323,865.59,324.2,864.51,325Z"/><path class="cls-37" d="M865.31,329.16,858.43,334c-1.08.82-2.41.92-2.95.22h0c-.54-.69-.09-1.93,1-2.74l6.87-4.85c1.09-.81,2.42-.91,2.95-.22h0C866.84,327.11,866.39,328.34,865.31,329.16Z"/><path class="cls-37" d="M869.47,330.91l-6.88,4.85c-1.08.81-2.41.91-3,.22h0c-.54-.7-.09-1.93,1-2.75l6.87-4.84c1.09-.82,2.42-.92,3-.22h0C871,328.86,870.55,330.1,869.47,330.91Z"/><path class="cls-37" d="M900.92,301.27a45.59,45.59,0,0,1-5.8,8.09,40.75,40.75,0,0,1-3.81,3.74l-14.7,12.7a4.94,4.94,0,0,1-2.89,1.24,5.55,5.55,0,0,1-5.07-2.83c-1.89-3,.16-5.13,2.67-7.3l13.2-12.71a41.57,41.57,0,0,0,3.86-4.48,41.09,41.09,0,0,0,2.85-4.43A43.44,43.44,0,0,0,896,268.24l-2.14-15.46c-.51-3.7,1.59-7.12,4.69-7.62s6,2.07,6.53,5.78l2.14,15.46A55.65,55.65,0,0,1,900.92,301.27Z"/><path class="cls-36" d="M892.43,293.28l9.68,6a45.15,45.15,0,0,1-5.48,8.23l-7.65-8.6Z"/><path class="cls-8" d="M894.34,284.41c.1-.45,1.91-2.81.46-12.7s-3.34-20.28-1.14-24.94,8-7,11.21-.43,4.64,30.32,3.61,38-7.11,18.74-7.11,18.74l-11.8-8.62A30.79,30.79,0,0,0,894.34,284.41Z"/><polygon class="cls-18" points="891.7 290.9 897.14 295.02 896.64 299.8 900.72 297.14 903.82 299.39 900.13 305.18 888.21 296.08 891.7 290.9"/><path class="cls-37" d="M833,322.41h0a1.32,1.32,0,0,0,1.86,0l1.84-1.84a1.33,1.33,0,0,0,0-1.87h0a1.32,1.32,0,0,0-1.86,0L833,320.54A1.33,1.33,0,0,0,833,322.41Z"/><path class="cls-37" d="M834.49,325.41h0a1.32,1.32,0,0,0,1.86,0l1.84-1.84a1.3,1.3,0,0,0,0-1.86h0a1.32,1.32,0,0,0-1.86,0l-1.84,1.84A1.32,1.32,0,0,0,834.49,325.41Z"/><path class="cls-37" d="M835.64,328.15h0a1.33,1.33,0,0,0,1.87,0l1.84-1.84a1.33,1.33,0,0,0,0-1.87h0a1.33,1.33,0,0,0-1.87,0l-1.84,1.84A1.33,1.33,0,0,0,835.64,328.15Z"/></g></svg>