<svg xmlns="http://www.w3.org/2000/svg" viewBox="0 0 689.08 278.3"><defs><style>.cls-1{fill:#231f20;opacity:0.11;}.cls-1,.cls-4,.cls-5{stroke:#fff;}.cls-1,.cls-2,.cls-4,.cls-5{stroke-miterlimit:10;}.cls-16,.cls-2,.cls-29,.cls-47{fill:#fff;}.cls-2{stroke:#e0e0e0;}.cls-3,.cls-43{opacity:0.3;}.cls-4,.cls-46,.cls-5{fill:#5274b8;}.cls-40,.cls-5,.cls-7{opacity:0.6;}.cls-6{fill:#263238;}.cls-43,.cls-45,.cls-8{fill:#2d4d9d;}.cls-9{fill:#fbbf9e;}.cls-10{fill:#ec996f;}.cls-11{fill:#455b64;}.cls-12{fill:#f79750;}.cls-13{fill:#ebebeb;}.cls-14{fill:#f5f5f5;}.cls-15{fill:#f3a892;}.cls-17{fill:#fbc7b1;}.cls-18{fill:#fac4bd;}.cls-19{fill:#11143e;}.cls-20{fill:#9995a7;}.cls-21{fill:#6d7daa;}.cls-22{fill:#591239;opacity:0.37;}.cls-23{fill:#c3c2c7;}.cls-24{fill:#444f90;}.cls-25,.cls-26{fill:#5f6bb2;}.cls-26,.cls-48{opacity:0.1;}.cls-27{fill:#bec9e7;}.cls-28{fill:#f8974c;}.cls-29{font-size:7.25px;font-family:Poppins-Regular, Poppins;}.cls-30{fill:#dce3f3;}.cls-31{fill:#fabbaf;}.cls-32{fill:#f3f3f3;}.cls-33,.cls-40,.cls-42{fill:#23375c;}.cls-34{fill:#c43f52;}.cls-35{fill:#802038;}.cls-36{fill:#81573c;}.cls-37{fill:#f69782;}.cls-38{fill:#ffd38e;}.cls-39{fill:#d65f48;}.cls-41,.cls-44{fill:#faae7d;}.cls-42,.cls-45,.cls-47{opacity:0.5;}.cls-44{opacity:0.2;}</style></defs><title>Artboard 1 copy 5</title><g id="Layer_6" data-name="Layer 6"><ellipse class="cls-1" cx="36.85" cy="271.77" rx="36.85" ry="6.47"/><ellipse class="cls-1" cx="201.14" cy="271.77" rx="44.46" ry="6.52"/><ellipse class="cls-1" cx="307.75" cy="266.52" rx="31.72" ry="9"/><ellipse class="cls-1" cx="654.47" cy="264.4" rx="34.43" ry="8.81"/><rect class="cls-2" x="136.56" y="33.03" width="68.56" height="51.93"/><path class="cls-2" d="M205.12,85s0-.33,0-.95,0-1.55,0-2.76c0-2.42,0-6,0-10.5,0-9,0-22-.05-37.72l.09.09-68.55,0h0l.11-.11c0,18.68,0,36.37,0,51.93l-.1-.1,49.5,0,14.05,0h0l-14,0-49.56,0h-.09V85c0-15.56,0-33.25,0-51.93v-.11h.11l68.55,0h.09V33c0,15.72,0,28.71-.05,37.78,0,4.52,0,8.06,0,10.47V84C205.13,84.65,205.12,85,205.12,85Z"/><rect class="cls-2" x="156.79" y="57.36" width="4.63" height="12.52"/><rect class="cls-2" x="176.44" y="57.36" width="4.63" height="12.52"/><rect class="cls-2" x="182.98" y="50.01" width="4.63" height="19.87"/><rect class="cls-2" x="150.8" y="65.94" width="4.63" height="4.21"/><rect class="cls-2" x="163.34" y="63.01" width="4.63" height="6.87"/><rect class="cls-2" x="169.89" y="61.44" width="4.63" height="8.44"/><circle class="cls-2" cx="154.18" cy="52.61" r="0.99"/><path class="cls-2" d="M169.53,56V35.59"/><path class="cls-2" d="M169.53,35.59c.06,0,.11,4.57.11,10.21s0,10.21-.11,10.21-.11-4.57-.11-10.21S169.47,35.59,169.53,35.59Z"/><path class="cls-2" d="M200.29,43.05a3.78,3.78,0,0,1-.72,0l-2,0c-1.66,0-4,0-6.5,0h-3.57a4.05,4.05,0,0,0-.79,0,1.52,1.52,0,0,0-.65.28,1.71,1.71,0,0,0-.69,1.06,2.76,2.76,0,0,0,0,.57v.53l0,.85a5.07,5.07,0,0,1,0,.72,3.68,3.68,0,0,1,0-.72l0-.85v-.53a3.11,3.11,0,0,1,0-.6,1.82,1.82,0,0,1,.73-1.18,1.85,1.85,0,0,1,.73-.32,5.56,5.56,0,0,1,.82,0h3.57c2.54,0,4.84,0,6.5,0l2,0A5.25,5.25,0,0,1,200.29,43.05Z"/><path class="cls-2" d="M191.14,49.05s0,0-.11,0l-.33-.11-.52-.19-.73-.21a13.62,13.62,0,0,0-11.39,2.21,22.63,22.63,0,0,0-3,2.94,11.62,11.62,0,0,1-3.55,2.89,5.34,5.34,0,0,1-2.29.47,6.44,6.44,0,0,1-2.23-.47,19.48,19.48,0,0,1-3.7-2.11,19.17,19.17,0,0,0-3.36-1.82,7.63,7.63,0,0,0-3.25-.52A11,11,0,0,0,152,53.4a9,9,0,0,0-1.11.7l-.27.21-.1.06a6.57,6.57,0,0,1,1.44-1A10.64,10.64,0,0,1,156.63,52a7.48,7.48,0,0,1,3.32.51,18.18,18.18,0,0,1,3.41,1.81A19.51,19.51,0,0,0,167,56.35a6.56,6.56,0,0,0,2.15.46,5.16,5.16,0,0,0,2.21-.46,11.71,11.71,0,0,0,3.48-2.83,22.44,22.44,0,0,1,3.07-3,13.68,13.68,0,0,1,6.7-2.54,13.39,13.39,0,0,1,4.83.41l.73.23c.21.07.38.15.52.21L191,49Z"/><circle class="cls-2" cx="169.53" cy="56.69" r="0.99"/><circle class="cls-2" cx="185.42" cy="48.02" r="0.99"/><path class="cls-2" d="M155.43,71.8a12.64,12.64,0,0,1-2.34.11,12.48,12.48,0,0,1-2.33-.11,12.48,12.48,0,0,1,2.33-.11A12.64,12.64,0,0,1,155.43,71.8Z"/><path class="cls-2" d="M161.51,71.8a24.94,24.94,0,0,1-4.68,0,24.94,24.94,0,0,1,4.68,0Z"/><path class="cls-2" d="M168.28,71.8a24.94,24.94,0,0,1-4.68,0,24.94,24.94,0,0,1,4.68,0Z"/><path class="cls-2" d="M174.74,71.8a24.94,24.94,0,0,1-4.68,0,24.94,24.94,0,0,1,4.68,0Z"/><path class="cls-2" d="M181,71.8a24.84,24.84,0,0,1-4.67,0,24.84,24.84,0,0,1,4.67,0Z"/><path class="cls-2" d="M187.33,71.8a24.94,24.94,0,0,1-4.68,0,24.94,24.94,0,0,1,4.68,0Z"/><path class="cls-2" d="M151.21,75.74h-.65v-.38h1.76v.38h-.64v1.64h-.47Z"/><path class="cls-2" d="M153.87,77.38l-.4-.56H153v.56h-.46v-2h.87c.54,0,.88.28.88.73a.65.65,0,0,1-.42.64l.46.65Zm-.44-1.64H153v.71h.39c.28,0,.43-.14.43-.36S153.71,75.74,153.43,75.74Z"/><path class="cls-2" d="M156.27,77v.37H154.7v-2h1.53v.38h-1.06v.44h.94v.36h-.94V77Z"/><path class="cls-2" d="M158.5,75.36v2h-.39l-1-1.22v1.22h-.47v-2H157l1,1.23V75.36Z"/><path class="cls-2" d="M159,75.36h.92a1,1,0,1,1,0,2H159Zm.9,1.64a.63.63,0,1,0,0-1.25h-.43V77Z"/><path class="cls-2" d="M153.43,52.39l-.23,0-.66,0-2.43,0-3.6,0h-2.13a6.34,6.34,0,0,1-1.14-.05,3.27,3.27,0,0,1-1.12-.4,3.38,3.38,0,0,1-1.49-1.77,3.87,3.87,0,0,1-.2-1.1V48.12c0-1.34,0-2.56,0-3.6s0-1.83,0-2.43l0-.66a.72.72,0,0,1,0-.23s0,.08,0,.23l0,.66c0,.6,0,1.43,0,2.43s0,2.26,0,3.6a5.8,5.8,0,0,0,.2,2.07,3.1,3.1,0,0,0,1.39,1.66,3,3,0,0,0,1.05.38,6.65,6.65,0,0,0,1.1.05h2.13l3.6,0,2.43,0,.66,0C153.36,52.37,153.43,52.38,153.43,52.39Z"/><polygon class="cls-2" points="200.03 34.59 200.03 65.41 203.76 65.41 208.89 65.41 232.82 65.41 232.82 34.59 200.03 34.59"/><path class="cls-2" d="M200,34.59h2.34l6.66,0,23.79,0h.1v.1c0,9,0,19.57,0,30.82h0v.11h-.11L200,65.5h-.1v-.09c0-9.27,0-17,0-22.39,0-2.68,0-4.79,0-6.24V35.14c0-.37,0-.55,0-.55s0,.2,0,.57,0,.94,0,1.66c0,1.45,0,3.57,0,6.26,0,5.39,0,13.08.05,22.33l-.09-.09,32.79,0-.11.11h0c0-11.25,0-21.81,0-30.82l.09.09-23.72,0-6.69,0H200Z"/><path class="cls-2" d="M216.28,38.08A10.12,10.12,0,1,0,226.4,48.2,10.12,10.12,0,0,0,216.28,38.08Zm.15,16.18a6.22,6.22,0,1,1,6.22-6.21A6.21,6.21,0,0,1,216.43,54.26Z"/><path class="cls-2" d="M210.22,48.05a6.22,6.22,0,0,1,3.68-5.68l-1.56-3.49a10.11,10.11,0,0,0-6.18,9.32c0,.14,0,.28,0,.43h4.07C210.23,48.43,210.22,48.24,210.22,48.05Z"/><path class="cls-2" d="M224.65,60.87c0,.06-3.75.1-8.37.1s-8.37,0-8.37-.1,3.75-.09,8.37-.09S224.65,60.82,224.65,60.87Z"/><path class="cls-2" d="M220.92,62.41c0,.05-2.08.1-4.64.1s-4.64,0-4.64-.1,2.07-.1,4.64-.1S220.92,62.36,220.92,62.41Z"/><path class="cls-2" d="M215.55,46.74v.41l-.82,1.92H214l.78-1.81h-.61v.36h-.56v-.88Z"/><path class="cls-2" d="M217.54,48.32c0,.42-.32.8-1,.8a1.74,1.74,0,0,1-.9-.23l.23-.5a1.17,1.17,0,0,0,.65.19c.22,0,.37-.09.37-.24s-.09-.24-.45-.24h-.63l.11-1.36h1.49v.51h-.94l0,.34h.16C217.27,47.59,217.54,47.91,217.54,48.32Z"/><path class="cls-2" d="M217.65,47.35a.6.6,0,1,1,1.2,0,.6.6,0,1,1-1.2,0Zm2-.61h.48l-1.6,2.33H218Zm-1.19.61c0-.23-.08-.33-.19-.33s-.2.1-.2.33.09.33.2.33S218.44,47.59,218.44,47.35Zm.86,1.1a.6.6,0,1,1,.59.65A.58.58,0,0,1,219.3,48.45Zm.79,0c0-.23-.09-.33-.2-.33s-.19.1-.19.33.08.33.19.33S220.09,48.69,220.09,48.45Z"/><polygon class="cls-2" points="158.73 0.61 158.73 35.48 162.95 35.48 168.76 35.48 195.85 35.48 195.85 0.61 158.73 0.61"/><path class="cls-2" d="M158.73.61h.68l2,0,7.54,0L195.85.51h.09v.1c0,10.19,0,22.15,0,34.87h0v.11H158.64v-.1c0-10.49,0-19.21.05-25.33,0-3,0-5.43,0-7.06,0-.81,0-1.43,0-1.86s0-.62,0-.62,0,.22,0,.64l0,1.88c0,1.64,0,4,0,7.08,0,6.1,0,14.81.05,25.27l-.1-.09,37.12,0-.11.11h0c0-12.72,0-24.68,0-34.87l.1.09L169,.65l-7.56,0h-2.7Z"/><path class="cls-2" d="M177.13,4.56A11.45,11.45,0,1,0,188.58,16,11.46,11.46,0,0,0,177.13,4.56Zm.17,18.31a7,7,0,1,1,7-7A7,7,0,0,1,177.3,22.87Z"/><path class="cls-2" d="M177.3,4.56V8.8a7,7,0,0,1,7,7A6.83,6.83,0,0,1,184,18l4.15,1.13a11.3,11.3,0,0,0,.43-3.09A11.46,11.46,0,0,0,177.3,4.56Z"/><path class="cls-2" d="M170.26,15.84a7.05,7.05,0,0,1,4.17-6.43l-1.76-3.95a11.44,11.44,0,0,0-7,10.55c0,.16,0,.32,0,.48h4.61C170.28,16.27,170.26,16.06,170.26,15.84Z"/><path class="cls-2" d="M177.3,22.87a6.67,6.67,0,0,1-1.49-.16c-.18,1-.51,3-.77,4.56a11.86,11.86,0,0,0,2.09.19,11.45,11.45,0,0,0,11-8.36L184,18A7,7,0,0,1,177.3,22.87Z"/><path class="cls-2" d="M186.6,30.35c0,.06-4.24.11-9.47.11s-9.48-.05-9.48-.11,4.24-.11,9.48-.11S186.6,30.29,186.6,30.35Z"/><path class="cls-2" d="M182.38,32.09c0,.06-2.35.11-5.25.11s-5.26-.05-5.26-.11,2.35-.11,5.26-.11S182.38,32,182.38,32.09Z"/><path class="cls-2" d="M176.34,16.19c0,.4-.31.78-1,.78a1.78,1.78,0,0,1-.91-.23l.24-.5a1.18,1.18,0,0,0,.65.2c.22,0,.37-.09.37-.25s-.11-.22-.36-.22H175v-.42l.42-.45h-.92v-.51h1.69V15l-.49.52A.67.67,0,0,1,176.34,16.19Z"/><path class="cls-2" d="M178.35,16.17c0,.42-.31.8-1,.8a1.78,1.78,0,0,1-.91-.23l.24-.5a1.16,1.16,0,0,0,.65.2c.22,0,.37-.09.37-.25s-.1-.24-.45-.24h-.64l.12-1.36h1.49v.51h-.94l0,.34h.15C178.08,15.44,178.35,15.76,178.35,16.17Z"/><path class="cls-2" d="M178.47,15.21a.6.6,0,1,1,.59.64A.58.58,0,0,1,178.47,15.21Zm2-.62h.48l-1.59,2.33h-.48Zm-1.18.62c0-.24-.08-.33-.2-.33s-.19.09-.19.33.09.33.19.33S179.26,15.44,179.26,15.21Zm.85,1.1a.6.6,0,1,1,.6.64A.59.59,0,0,1,180.11,16.31Zm.8,0c0-.24-.09-.33-.2-.33s-.2.09-.2.33.09.33.2.33S180.91,16.54,180.91,16.31Z"/><polygon class="cls-2" points="117.52 10.27 117.52 41.09 121.25 41.09 126.38 41.09 150.31 41.09 150.31 10.27 117.52 10.27"/><path class="cls-2" d="M117.52,10.27h2.34l6.66,0,23.79-.05h.1v.1c0,9,0,19.57,0,30.82h0v.11h-.11l-32.79,0h-.1v-.09c0-9.27,0-17,0-22.39,0-2.68,0-4.79,0-6.24,0-.71,0-1.26,0-1.64s0-.55,0-.55,0,.2,0,.57V12.5c0,1.45,0,3.57,0,6.26,0,5.39,0,13.08,0,22.33l-.09-.09,32.79,0-.11.11h0c0-11.25,0-21.81,0-30.82l.09.09-23.73,0-6.68,0h-2.38Z"/><path class="cls-2" d="M133.77,13.76a10.12,10.12,0,1,0,10.12,10.12A10.12,10.12,0,0,0,133.77,13.76Zm.15,16.18a6.22,6.22,0,1,1,6.22-6.21A6.21,6.21,0,0,1,133.92,29.94Z"/><path class="cls-2" d="M133.92,13.77v3.74a6.22,6.22,0,0,1,6.22,6.22,6.43,6.43,0,0,1-.29,1.88l3.66,1a9.84,9.84,0,0,0,.38-2.73A10.11,10.11,0,0,0,133.92,13.77Z"/><path class="cls-2" d="M127.71,23.73a6.22,6.22,0,0,1,3.68-5.68l-1.56-3.49a10.11,10.11,0,0,0-6.18,9.32c0,.14,0,.28,0,.43h4.07C127.72,24.12,127.71,23.92,127.71,23.73Z"/><path class="cls-2" d="M133.92,29.94a6.26,6.26,0,0,1-1.31-.14c-.16.91-.46,2.65-.69,4a10.27,10.27,0,0,0,1.85.17,10.12,10.12,0,0,0,9.74-7.39l-3.66-1A6.22,6.22,0,0,1,133.92,29.94Z"/><g class="cls-3"><path class="cls-2" d="M133.92,29.94a6.26,6.26,0,0,1-1.31-.14c-.16.91-.46,2.65-.69,4a10.27,10.27,0,0,0,1.85.17,10.12,10.12,0,0,0,9.74-7.39l-3.66-1A6.22,6.22,0,0,1,133.92,29.94Z"/></g><path class="cls-2" d="M142.14,36.55c0,.06-3.75.1-8.37.1s-8.37,0-8.37-.1,3.74-.09,8.37-.09S142.14,36.5,142.14,36.55Z"/><path class="cls-2" d="M138.41,38.09s-2.08.1-4.64.1-4.65,0-4.65-.1,2.08-.1,4.65-.1S138.41,38,138.41,38.09Z"/><path class="cls-2" d="M132.56,24a.83.83,0,0,1-.92.8,1,1,0,0,1-1.08-1.15,1.17,1.17,0,0,1,1.24-1.28,1.33,1.33,0,0,1,.69.17l-.24.48a.69.69,0,0,0-.43-.12.54.54,0,0,0-.59.54.77.77,0,0,1,.52-.17A.75.75,0,0,1,132.56,24Zm-.64,0a.29.29,0,0,0-.32-.29.3.3,0,0,0-.33.3.3.3,0,0,0,.33.29A.29.29,0,0,0,131.92,24Z"/><path class="cls-2" d="M132.72,23.59c0-.77.43-1.22,1-1.22s1,.45,1,1.22-.44,1.21-1,1.21S132.72,24.36,132.72,23.59Zm1.39,0c0-.49-.15-.68-.36-.68s-.37.19-.37.68.16.67.37.67S134.11,24.08,134.11,23.59Z"/><path class="cls-2" d="M135,23a.6.6,0,1,1,.6.64A.59.59,0,0,1,135,23Zm2-.62h.48l-1.6,2.33h-.48Zm-1.19.62c0-.24-.08-.33-.19-.33s-.2.09-.2.33.09.33.2.33S135.75,23.27,135.75,23Zm.86,1.1a.6.6,0,1,1,.59.64A.58.58,0,0,1,136.61,24.14Zm.79,0c0-.24-.09-.33-.2-.33s-.19.09-.19.33.08.33.19.33S137.4,24.37,137.4,24.14Z"/><rect class="cls-4" x="336.83" y="4.32" width="58.09" height="71.87"/><polygon class="cls-5" points="393.15 70.11 341.63 70.11 339.95 9.31 391.48 9.31 393.15 70.11"/><rect class="cls-4" x="340.07" y="9.1" width="51.52" height="58.71"/><circle class="cls-4" cx="389.19" cy="11.3" r="1"/><rect class="cls-4" x="345.96" y="16.7" width="38.84" height="5.59"/><rect class="cls-4" x="345.86" y="27.67" width="13.38" height="7.59"/><rect class="cls-4" x="361.44" y="37.26" width="13.38" height="7.59"/><rect class="cls-4" x="376.71" y="27.67" width="8.36" height="7.59"/><rect class="cls-4" x="376.71" y="37.41" width="8.36" height="7.59"/><rect class="cls-4" x="361.54" y="33.75" width="13.38" height="0.54"/><rect class="cls-4" x="361.54" y="31.81" width="13.38" height="0.54"/><rect class="cls-4" x="361.54" y="29.87" width="13.38" height="0.54"/><rect class="cls-4" x="361.54" y="27.94" width="13.38" height="0.54"/><rect class="cls-4" x="345.86" y="46.69" width="13.38" height="7.59"/><rect class="cls-4" x="376.71" y="46.69" width="8.36" height="7.59"/><rect class="cls-4" x="361.54" y="52.77" width="13.38" height="0.54"/><rect class="cls-4" x="361.54" y="50.83" width="13.38" height="0.54"/><rect class="cls-4" x="361.54" y="48.89" width="13.38" height="0.54"/><rect class="cls-4" x="361.54" y="46.96" width="13.38" height="0.54"/><rect class="cls-4" x="345.81" y="43.03" width="13.38" height="0.54"/><rect class="cls-4" x="345.81" y="41.1" width="13.38" height="0.54"/><rect class="cls-4" x="345.81" y="39.16" width="13.38" height="0.54"/><rect class="cls-4" x="345.81" y="37.22" width="13.38" height="0.54"/><circle class="cls-4" cx="342.07" cy="11.3" r="1"/><rect class="cls-4" x="414.02" y="4.32" width="58.09" height="71.87"/><polygon class="cls-5" points="470.25 70.11 418.73 70.11 417.05 9.31 468.57 9.31 470.25 70.11"/><rect class="cls-4" x="417.26" y="9.1" width="51.52" height="58.71"/><circle class="cls-4" cx="466.39" cy="11.3" r="1"/><circle class="cls-4" cx="419.26" cy="11.3" r="1"/><rect class="cls-4" x="438.91" y="14.6" width="3.95" height="16.03" transform="translate(463.5 -418.27) rotate(90)"/><rect class="cls-4" x="442.38" y="18.06" width="3.95" height="22.96" transform="translate(473.9 -414.81) rotate(90)"/><rect class="cls-4" x="437.28" y="30.09" width="3.95" height="12.77" transform="translate(475.73 -402.78) rotate(90)"/><rect class="cls-4" x="444.55" y="35.59" width="3.95" height="1.76" transform="translate(483 -410.05) rotate(90)"/><rect class="cls-4" x="448.92" y="20.63" width="3.95" height="3.98" transform="translate(473.51 -428.28) rotate(90)"/><rect class="cls-4" x="443.67" y="30.63" width="3.95" height="25.54" transform="translate(489.05 -402.24) rotate(90)"/><rect class="cls-4" x="438.91" y="42.37" width="3.95" height="16.03" transform="translate(491.27 -390.5) rotate(90)"/><rect class="cls-4" x="434.91" y="53.31" width="3.95" height="8.02" transform="translate(494.19 -379.57) rotate(90)"/><rect class="cls-4" x="427.46" y="21.3" width="3.95" height="2.64" rx="1.23" transform="translate(452.05 -406.82) rotate(90)"/><rect class="cls-4" x="427.46" y="28.22" width="3.95" height="2.64" rx="1.23" transform="translate(458.98 -399.89) rotate(90)"/><rect class="cls-4" x="427.46" y="35.15" width="3.95" height="2.64" rx="1.23" transform="translate(465.91 -392.96) rotate(90)"/><rect class="cls-4" x="427.46" y="42.08" width="3.95" height="2.64" rx="1.23" transform="translate(472.84 -386.03) rotate(90)"/><rect class="cls-4" x="427.46" y="49.07" width="3.95" height="2.64" rx="1.23" transform="translate(479.82 -379.05) rotate(90)"/><rect class="cls-4" x="427.46" y="55.99" width="3.95" height="2.64" rx="1.23" transform="translate(486.75 -372.12) rotate(90)"/><rect class="cls-4" x="438.43" y="55.07" width="3.95" height="4.48" transform="translate(497.72 -383.09) rotate(90)"/><rect class="cls-4" x="491.21" y="4.32" width="58.09" height="71.87"/><polygon class="cls-5" points="547.84 70.11 496.31 70.11 494.64 9.31 546.16 9.31 547.84 70.11"/><rect class="cls-4" x="494.46" y="9.1" width="51.52" height="58.71"/><circle class="cls-4" cx="543.58" cy="11.3" r="1"/><circle class="cls-4" cx="496.45" cy="11.3" r="1"/><rect class="cls-4" x="505.21" y="38.68" width="21.69" height="1.33"/><rect class="cls-4" x="505.21" y="41.67" width="33.88" height="1.33"/><rect class="cls-4" x="505.21" y="44.66" width="22.82" height="1.33"/><path class="cls-4" d="M503.83,39.34a1.08,1.08,0,0,1-2.16,0,1.08,1.08,0,0,1,2.16,0Z"/><path class="cls-4" d="M503.83,42.66a1.08,1.08,0,0,1-2.16,0,1.08,1.08,0,0,1,2.16,0Z"/><path class="cls-4" d="M503.83,45.65a1.08,1.08,0,0,1-2.16,0,1.08,1.08,0,0,1,2.16,0Z"/><line class="cls-4" x1="502.67" y1="51.3" x2="520.87" y2="51.3"/><line class="cls-4" x1="502.67" y1="57.06" x2="530.5" y2="57.06"/><line class="cls-4" x1="502.67" y1="53.22" x2="513.73" y2="53.22"/><line class="cls-4" x1="502.67" y1="55.14" x2="531" y2="55.14"/><rect class="cls-4" x="501.74" y="19.52" width="36.23" height="2.82"/><rect class="cls-4" x="501.74" y="24.5" width="36.23" height="2.82"/><rect class="cls-4" x="501.74" y="29.48" width="36.23" height="2.82"/><rect class="cls-4" x="568.41" y="4.32" width="58.09" height="71.87"/><polygon class="cls-5" points="624.79 70.11 573.27 70.11 571.6 9.31 623.12 9.31 624.79 70.11"/><rect class="cls-4" x="571.65" y="9.1" width="51.52" height="58.71"/><circle class="cls-4" cx="620.77" cy="11.3" r="1"/><circle class="cls-4" cx="573.65" cy="11.3" r="1"/><rect class="cls-4" x="591.94" y="19.24" width="22.09" height="1.66"/><rect class="cls-4" x="591.94" y="22.4" width="22.09" height="1.66"/><rect class="cls-4" x="591.94" y="25.72" width="22.09" height="1.66"/><rect class="cls-4" x="591.94" y="34.69" width="22.09" height="1.66"/><rect class="cls-4" x="591.94" y="37.84" width="22.09" height="1.66"/><rect class="cls-4" x="591.94" y="41.16" width="22.09" height="1.66"/><rect class="cls-4" x="592.11" y="48.47" width="22.09" height="1.66"/><rect class="cls-4" x="592.11" y="51.63" width="22.09" height="1.66"/><rect class="cls-4" x="592.11" y="54.95" width="22.09" height="1.66"/><rect class="cls-4" x="578.24" y="18.36" width="9.19" height="9.08" rx="4.24"/><rect class="cls-4" x="578.08" y="33.52" width="9.19" height="9.08" rx="4.24"/><rect class="cls-4" x="578.24" y="48.47" width="9.19" height="9.08" rx="4.24"/><rect class="cls-4" x="336.83" y="89.16" width="58.09" height="71.87"/><polygon class="cls-5" points="393.15 154.88 341.63 154.88 339.95 94.08 391.48 94.08 393.15 154.88"/><rect class="cls-4" x="340.07" y="93.94" width="51.52" height="58.71"/><path class="cls-4" d="M390.19,96.14a1,1,0,1,1-1-1A1,1,0,0,1,390.19,96.14Z"/><rect class="cls-4" x="345.96" y="105.73" width="38.84" height="5.59"/><path class="cls-4" d="M343.07,96.14a1,1,0,1,1-1-1A1,1,0,0,1,343.07,96.14Z"/><rect class="cls-4" x="345.64" y="112.94" width="18.2" height="6.53"/><rect class="cls-4" x="366.66" y="112.94" width="17.84" height="6.53"/><rect class="cls-4" x="377.63" y="120.69" width="6.64" height="5.09"/><rect class="cls-4" x="345.64" y="121.92" width="18.2" height="6.53"/><rect class="cls-4" x="366.66" y="121.92" width="17.84" height="6.53"/><rect class="cls-4" x="345.64" y="139.4" width="6.64" height="5.09"/><rect class="cls-4" x="356.3" y="139.4" width="6.64" height="5.09"/><rect class="cls-4" x="366.97" y="139.4" width="6.64" height="5.09"/><rect class="cls-4" x="377.63" y="139.29" width="6.64" height="5.09"/><rect class="cls-4" x="413.82" y="89.16" width="58.09" height="71.87"/><polygon class="cls-5" points="470.11 154.88 418.59 154.88 416.91 94.08 468.44 94.08 470.11 154.88"/><rect class="cls-4" x="417.06" y="93.94" width="51.52" height="58.71"/><path class="cls-4" d="M467.18,96.14a1,1,0,1,1-1-1A1,1,0,0,1,467.18,96.14Z"/><path class="cls-4" d="M420.06,96.14a1,1,0,1,1-1-1A1,1,0,0,1,420.06,96.14Z"/><path class="cls-4" d="M427.41,107.47h5a5,5,0,1,1-.84-2.78Z"/><path class="cls-4" d="M427.58,122.25l-.13-5h.13a5,5,0,1,1-5,5Z"/><path class="cls-4" d="M427.41,137h5a5,5,0,1,1-5-5,5.06,5.06,0,0,1,2.17.49Z"/><rect class="cls-4" x="436.71" y="103.15" width="22.09" height="1.66"/><rect class="cls-4" x="436.71" y="106.3" width="22.09" height="1.66"/><rect class="cls-4" x="436.71" y="109.63" width="22.09" height="1.66"/><rect class="cls-4" x="436.71" y="118.59" width="22.09" height="1.66"/><rect class="cls-4" x="436.71" y="121.75" width="22.09" height="1.66"/><rect class="cls-4" x="436.71" y="125.07" width="22.09" height="1.66"/><rect class="cls-4" x="436.87" y="132.38" width="22.09" height="1.66"/><rect class="cls-4" x="436.87" y="135.53" width="22.09" height="1.66"/><rect class="cls-4" x="436.87" y="138.85" width="22.09" height="1.66"/><rect class="cls-4" x="567.8" y="89.16" width="58.09" height="71.87"/><polygon class="cls-5" points="624.03 154.88 572.51 154.88 570.83 94.08 622.35 94.08 624.03 154.88"/><rect class="cls-4" x="571.04" y="93.94" width="51.52" height="58.71"/><path class="cls-4" d="M621.17,96.14a1,1,0,1,1-1-1A1,1,0,0,1,621.17,96.14Z"/><path class="cls-4" d="M574,96.14a1,1,0,1,1-1-1A1,1,0,0,1,574,96.14Z"/><rect class="cls-4" x="584.75" y="115.82" width="24.07" height="5.01"/><rect class="cls-4" x="584.75" y="122.77" width="24.07" height="5.01"/><rect class="cls-4" x="584.75" y="136.66" width="24.07" height="5.01"/><rect class="cls-4" x="584.75" y="129.71" width="24.07" height="5.01"/><rect class="cls-4" x="584.69" y="101.47" width="10.81" height="11.37"/><path class="cls-4" d="M591.06,107.21a1.85,1.85,0,1,0-1.93,0,1.9,1.9,0,0,0-1.4,1.82v1.47h4.73V109A1.89,1.89,0,0,0,591.06,107.21Z"/><rect class="cls-4" x="490.81" y="89.16" width="58.09" height="71.87"/><polygon class="cls-5" points="547.49 154.88 495.96 154.88 494.29 94.08 545.81 94.08 547.49 154.88"/><rect class="cls-4" x="494.05" y="93.94" width="51.52" height="58.71"/><path class="cls-4" d="M544.18,96.14a1,1,0,1,1-1-1A1,1,0,0,1,544.18,96.14Z"/><path class="cls-4" d="M497.05,96.14a1,1,0,1,1-1-1A1,1,0,0,1,497.05,96.14Z"/><rect class="cls-4" x="510.31" y="100.43" width="17.7" height="6.01" rx="2.81"/><path class="cls-4" d="M516.32,107.93l-6,3.94Z"/><line class="cls-4" x1="516.32" y1="107.93" x2="511.62" y2="111.01"/><polygon class="cls-4" points="511.29 109.92 510.31 111.87 512.48 111.75 511.29 109.92"/><path class="cls-4" d="M522,107.93l6,3.94Z"/><line class="cls-4" x1="522" y1="107.93" x2="526.7" y2="111.01"/><polygon class="cls-4" points="525.84 111.75 528.01 111.87 527.03 109.92 525.84 111.75"/><path class="cls-4" d="M519.16,107.93v0Z"/><line class="cls-4" x1="519.16" y1="107.93" x2="519.16" y2="110.3"/><polygon class="cls-4" points="518.07 109.98 519.16 111.87 520.25 109.98 518.07 109.98"/><path class="cls-4" d="M507.9,116.9l-6,3.93Z"/><line class="cls-4" x1="507.9" y1="116.9" x2="503.21" y2="119.97"/><polygon class="cls-4" points="502.88 118.88 501.89 120.83 504.07 120.71 502.88 118.88"/><path class="cls-4" d="M510.74,116.9v0Z"/><line class="cls-4" x1="510.74" y1="116.9" x2="510.74" y2="119.26"/><polygon class="cls-4" points="509.65 118.94 510.74 120.83 511.83 118.94 509.65 118.94"/><path class="cls-4" d="M519.81,116.9v0Z"/><line class="cls-4" x1="519.81" y1="116.9" x2="519.81" y2="119.26"/><polygon class="cls-4" points="518.73 118.94 519.82 120.83 520.9 118.94 518.73 118.94"/><rect class="cls-4" x="506.26" y="112.63" width="7.84" height="2.73"/><rect class="cls-4" x="525.06" y="112.63" width="7.84" height="2.73"/><rect class="cls-4" x="515.55" y="112.63" width="7.84" height="2.73"/><rect class="cls-4" x="525.06" y="126.51" width="7.84" height="2.73"/><rect class="cls-4" x="500.03" y="121.59" width="4.7" height="2.62"/><rect class="cls-4" x="508.07" y="121.59" width="4.7" height="2.62"/><path class="cls-4" d="M530.85,116.68l6,3.93Z"/><line class="cls-4" x1="530.85" y1="116.68" x2="535.55" y2="119.75"/><polygon class="cls-4" points="534.69 120.49 536.86 120.61 535.88 118.67 534.69 120.49"/><path class="cls-4" d="M528,116.68v0Z"/><line class="cls-4" x1="528.01" y1="116.68" x2="528.01" y2="119.04"/><polygon class="cls-4" points="526.92 118.72 528.01 120.61 529.1 118.72 526.92 118.72"/><rect class="cls-4" x="534.02" y="121.38" width="4.7" height="2.62" transform="translate(1072.74 245.38) rotate(180)"/><rect class="cls-4" x="525.99" y="121.38" width="4.7" height="2.62" transform="translate(1056.68 245.38) rotate(180)"/><rect class="cls-4" x="525.06" y="131.21" width="7.84" height="2.73"/><path class="cls-4" d="M530.85,135.26l6,3.93Z"/><line class="cls-4" x1="530.85" y1="135.26" x2="535.55" y2="138.33"/><polygon class="cls-4" points="534.69 139.07 536.86 139.19 535.88 137.24 534.69 139.07"/><path class="cls-4" d="M528,135.26v0Z"/><line class="cls-4" x1="528.01" y1="135.26" x2="528.01" y2="137.62"/><polygon class="cls-4" points="526.92 137.3 528.01 139.19 529.1 137.3 526.92 137.3"/><rect class="cls-4" x="534.02" y="139.95" width="4.7" height="2.62" transform="translate(1072.74 282.53) rotate(180)"/><rect class="cls-4" x="525.99" y="139.95" width="4.7" height="2.62" transform="translate(1056.68 282.53) rotate(180)"/><rect class="cls-4" x="517.47" y="121.59" width="4.7" height="2.62"/><rect class="cls-4" x="499.82" y="126.4" width="14.21" height="6.45"/><polyline class="cls-4" points="514.57 130.12 519.92 130.12 519.85 126.88"/><polygon class="cls-4" points="520.95 127.17 519.82 125.31 518.77 127.22 520.95 127.17"/><polyline class="cls-4" points="533.8 132.41 539.16 132.41 539.08 129.17"/><polygon class="cls-4" points="540.18 129.47 539.05 127.61 538 129.52 540.18 129.47"/><rect class="cls-4" x="499.82" y="138.96" width="14.21" height="3.07"/><rect class="cls-4" x="499.82" y="134.59" width="14.21" height="3.07"/><polyline class="cls-4" points="514.57 139.3 519.92 139.3 519.85 136.06"/><polygon class="cls-4" points="520.95 136.35 519.82 134.49 518.77 136.4 520.95 136.35"/><path class="cls-4" d="M432,117.35c-1.13,3.51-10.53,15.67-18.22,25.14v-12.9l11-9Z"/><path class="cls-6" d="M303.37,245.78l-13.1,10.75,13.29,16.38c1.49-1.37-2.25-12.39-2.25-12.39L310,254Z"/><g class="cls-7"><path class="cls-6" d="M297.91,254.88a.88.88,0,0,0-1.14.16.83.83,0,0,0,.15,1.13.9.9,0,0,0,1.2-.17.86.86,0,0,0-.28-1.16"/></g><g class="cls-7"><path class="cls-6" d="M290.32,256.49l1.32-1.09,12.18,16.23s.27,1-.32,1.32Z"/></g><path class="cls-6" d="M301.61,260.72c-.08.06-.44-.31-1-.49s-1.08-.12-1.11-.22.53-.36,1.22-.12S301.7,260.68,301.61,260.72Z"/><path class="cls-6" d="M302.29,263c-.06.08-.48-.16-1-.16s-1,.22-1,.14.35-.5,1.05-.5S302.37,263,302.29,263Z"/><path class="cls-6" d="M301,265.66c-.08-.06.23-.5.84-.65s1.08.09,1,.17-.46.05-1,.18S301.1,265.73,301,265.66Z"/><path class="cls-6" d="M303.42,259c-.1,0-.29-.43-.68-.86s-.83-.66-.8-.76.6,0,1.06.52S303.52,259,303.42,259Z"/><path class="cls-6" d="M305.05,257s-.34-.24-.66-.82a5.15,5.15,0,0,1-.44-1.07,6.32,6.32,0,0,1-.13-.68,1.29,1.29,0,0,1,0-.4.45.45,0,0,1,.4-.38.56.56,0,0,1,.47.2,1.57,1.57,0,0,1,.2.34,3.69,3.69,0,0,1,.24.65,3.81,3.81,0,0,1,.12,1.16,1.73,1.73,0,0,1-.28,1s.05-.41,0-1a4.66,4.66,0,0,0-.19-1.07,3.5,3.5,0,0,0-.23-.58c-.1-.21-.22-.36-.33-.34s-.06,0-.08.09a1.5,1.5,0,0,0,0,.29,5.73,5.73,0,0,0,.1.64,6.35,6.35,0,0,0,.34,1A9.07,9.07,0,0,1,305.05,257Z"/><path class="cls-6" d="M304.85,257s.12-.41.61-.86a3.57,3.57,0,0,1,1-.61,3.48,3.48,0,0,1,.67-.2.9.9,0,0,1,.84.19.49.49,0,0,1,.05.53,1.39,1.39,0,0,1-.23.32,2.13,2.13,0,0,1-.56.45,2.39,2.39,0,0,1-1.13.34,1.4,1.4,0,0,1-1-.26c0-.06.4.09,1,0a2.34,2.34,0,0,0,1-.37,1.92,1.92,0,0,0,.46-.4c.16-.16.24-.34.17-.39s-.31-.12-.5-.07a3.88,3.88,0,0,0-.61.15,4,4,0,0,0-.95.51C305.13,256.74,304.9,257.07,304.85,257Z"/><path class="cls-6" d="M297.44,254.56l.15,17,21.09-.09c-.13-2-11.06-6-11.06-6l.35-10.86Z"/><g class="cls-7"><path class="cls-6" d="M301.1,264.53a.85.85,0,0,0-.59,1,.83.83,0,0,0,1,.6.91.91,0,0,0,.62-1.05.86.86,0,0,0-1.08-.51"/></g><g class="cls-7"><path class="cls-6" d="M297.59,271.45l0-1.71,20.28.68s.94.41.83,1.08Z"/></g><path class="cls-6" d="M308,265.3c0,.11-.52.16-1,.49s-.77.77-.87.73.06-.64.68-1S308,265.21,308,265.3Z"/><path class="cls-6" d="M310.18,266.21c0,.1-.42.28-.77.71s-.44.9-.55.9-.17-.59.28-1.12S310.18,266.11,310.18,266.21Z"/><path class="cls-6" d="M311.45,268.85c-.09,0-.24-.49,0-1.05s.75-.8.79-.71-.25.39-.46.86S311.55,268.84,311.45,268.85Z"/><path class="cls-6" d="M307.77,262.82c0,.09-.52-.05-1.1,0s-1,.22-1.09.14.38-.46,1.07-.5S307.82,262.74,307.77,262.82Z"/><path class="cls-6" d="M307.26,260.32a2,2,0,0,1-1.06,0,4.91,4.91,0,0,1-1.11-.34,3.5,3.5,0,0,1-.6-.32,1.12,1.12,0,0,1-.32-.24.45.45,0,0,1-.05-.55.57.57,0,0,1,.45-.24,1.45,1.45,0,0,1,.39.06,3.2,3.2,0,0,1,.66.22,4,4,0,0,1,1,.63c.49.45.66.84.62.86s-.28-.29-.78-.66a4,4,0,0,0-.95-.53,3.8,3.8,0,0,0-.6-.18c-.23-.06-.42-.06-.48,0s0,.05,0,.12a1.15,1.15,0,0,0,.23.18,6.38,6.38,0,0,0,.56.31,5,5,0,0,0,1,.39A7.35,7.35,0,0,1,307.26,260.32Z"/><path class="cls-6" d="M307.12,260.47a1.76,1.76,0,0,1-.28-1,3.33,3.33,0,0,1,.14-1.16,2.92,2.92,0,0,1,.27-.64.87.87,0,0,1,.67-.54.49.49,0,0,1,.44.3,1.59,1.59,0,0,1,.11.38,2.11,2.11,0,0,1,0,.71,2.4,2.4,0,0,1-.44,1.1c-.41.55-.84.67-.85.64s.32-.26.64-.78a2.51,2.51,0,0,0,.33-1,2.12,2.12,0,0,0,0-.61c0-.22-.11-.4-.2-.38s-.28.17-.37.35a4.8,4.8,0,0,0-.26.57,4.08,4.08,0,0,0-.2,1.06C307.07,260.07,307.18,260.45,307.12,260.47Z"/><path class="cls-8" d="M299.24,156.37a30.27,30.27,0,0,0-4.4,6.2c-1.46,3-2.38,10.27-2.38,10.27s-4.09,9.09-3.46,13.74S293.77,223,293.77,223s-.2,30.92,2.74,36.44l.66,3,11.89-2.11h0l-.08-1.78,2.81-60.64L319,156.65Z"/><path class="cls-8" d="M325.48,165.39s7.11,39.13,7.74,45.93-23.57,42.61-23.57,42.61l-11.07-11.52,15.88-29.52-5.16-29.75,7.18-26.29,7.54.27Z"/><path class="cls-8" d="M294.67,249.85a6.8,6.8,0,0,0,.08.86c.07.57.21,1.41.41,2.48.4,2.16,1,5.28,1.9,9.18l0,.08h.08l11.89-2.09h.09v-.09c.33-8.16.72-17.92,1.15-28.38.43-11.25.84-21.69,1.18-30.25h0c.9-6.88,1.63-12.56,2.15-16.54.25-2,.44-3.53.58-4.6.06-.52.11-.93.14-1.21s0-.42,0-.42,0,.14-.07.41-.1.69-.18,1.21c-.15,1.07-.36,2.62-.64,4.59-.54,4-1.3,9.66-2.24,16.53h0c-.34,8.56-.77,19-1.22,30.25-.41,10.46-.79,20.22-1.11,28.38l.09-.11-11.88,2.14.1.06c-.89-3.89-1.55-7-2-9.16-.21-1.07-.36-1.9-.45-2.46-.05-.28-.08-.5-.1-.64Z"/><path class="cls-6" d="M316,90.36a4.55,4.55,0,0,0-3.24-4.79,7,7,0,0,0-6,1.19c-1.28.89-2.35,2.1-3.71,2.88s-2.66,1-3.88,1.76A6.73,6.73,0,0,0,296,96.94c0,1.55.46,3.2-.23,4.58s-2.66,2.13-3.52,3.58-.52,3-.15,4.46.84,3,.41,4.5-1.47,2.35-2.07,3.61a5.65,5.65,0,0,0,2.33,7.14l12.77-5.18Z"/><path class="cls-6" d="M316.12,89.54c2-.18,3.75,1.38,4.51,3.2a15.52,15.52,0,0,1,.77,5.84,11.81,11.81,0,0,0,1.13,5.75c.52.9,1.25,1.66,1.85,2.51a4.24,4.24,0,0,1,.92,2.89c-.24,1.87-2.29,3-2.81,4.84-.42,1.47.26,3.07-.08,4.55a4.55,4.55,0,0,1-2.1,2.73,12.15,12.15,0,0,1-3.26,1.3l-6.41-5,1.56-29.06Z"/><path class="cls-9" d="M302,99.42l.77,20.62a6.13,6.13,0,0,0,6.66,5.88h0a5.93,5.93,0,0,0,5.41-6.3c-.06-1.56,0-3.39,0-3.55,0,0,5.16-1.16,5.35-6.37.09-2.52,0-6.75-.24-11.45a9.69,9.69,0,0,0-9.46-9.14l-.51,0C304.57,89.28,301.7,94,302,99.42Z"/><path class="cls-10" d="M314.88,116.09a12.13,12.13,0,0,1-6.75-2.09s1.52,3.79,6.73,3.44Z"/><path class="cls-6" d="M302.85,106.37a.05.05,0,0,0-.06,0,.05.05,0,0,0,.08,0s0-.07,0-.08h0"/><path class="cls-6" d="M302.93,106.15a.06.06,0,0,0-.07,0,.05.05,0,0,0,.08,0,.06.06,0,0,0,0-.09s0,0,0,0"/><path class="cls-6" d="M300.09,103.94a14.21,14.21,0,0,1,2.1-12.46c2.68-3.45,7.54-5.22,11.67-3.8a3.79,3.79,0,0,1,1.59.92,1.79,1.79,0,0,1,.49,1.69c-.28.94-1.4,1.31-2.37,1.35a6,6,0,0,0-2.85.41c-1.48.87-1.44,3-2.5,4.4-.51.67-1.28,1.12-1.75,1.82-1.27,1.89-.22,3-1,5.16a2.71,2.71,0,0,1-1.88,1.22c-.63.09-.13.08-1.47-.07h0Z"/><path class="cls-9" d="M303.88,104.65c-.09,0-3.5-1.23-3.57,2.3s3.5,2.89,3.5,2.79S303.88,104.65,303.88,104.65Z"/><path class="cls-10" d="M302.76,108.37s-.06,0-.17.09a.65.65,0,0,1-.46,0,1.54,1.54,0,0,1-.68-1.38,2,2,0,0,1,.19-.88.74.74,0,0,1,.48-.47.31.31,0,0,1,.36.18c0,.1,0,.17,0,.18s.08-.06.05-.21a.37.37,0,0,0-.13-.22.49.49,0,0,0-.34-.1.85.85,0,0,0-.66.54,2,2,0,0,0-.23,1,1.6,1.6,0,0,0,.87,1.55.66.66,0,0,0,.56-.09C302.75,108.46,302.77,108.38,302.76,108.37Z"/><path class="cls-11" d="M296.06,97.74a7.08,7.08,0,0,0,2.39.54,7.92,7.92,0,0,0,2.62-.41,12.49,12.49,0,0,0,2.9-1.49c1-.66,1.83-1.36,2.62-2s1.53-1.19,2.17-1.62a12.51,12.51,0,0,1,1.58-.91,2.17,2.17,0,0,1,.63-.25,6.51,6.51,0,0,1-.58.33c-.37.21-.9.54-1.53,1s-1.33,1-2.12,1.65-1.65,1.35-2.63,2a11.9,11.9,0,0,1-3,1.51,7.49,7.49,0,0,1-2.69.36,5.38,5.38,0,0,1-1.8-.39,4.4,4.4,0,0,1-.44-.22C296.11,97.78,296.06,97.75,296.06,97.74Z"/><path class="cls-11" d="M295.79,98.07s.5.26,1.33.64a15.17,15.17,0,0,0,3.35,1.12,16.11,16.11,0,0,0,3.53.32c.91,0,1.47-.1,1.48-.06a1.29,1.29,0,0,1-.39.1,8.61,8.61,0,0,1-1.08.13,13,13,0,0,1-7-1.45,7.89,7.89,0,0,1-.94-.55C295.89,98.17,295.78,98.09,295.79,98.07Z"/><path class="cls-11" d="M321.31,95.94a2.85,2.85,0,0,1-1.64-.76,2.8,2.8,0,0,1-1-1.49A17.46,17.46,0,0,0,319.83,95C320.57,95.61,321.33,95.86,321.31,95.94Z"/><path class="cls-11" d="M321.16,99.37s-.15.26-.47.37-.6.07-.6,0,.24-.13.52-.23S321.12,99.31,321.16,99.37Z"/><path class="cls-9" d="M340.94,142.32a5.52,5.52,0,0,1,.84-3.08c.93-1.25,2.89-1.83,3.06-2.71s1.68-2.63,2.4-2.22,1.05,1.35,0,2.45a17.82,17.82,0,0,0-1.88,2.31s9.41-1.62,10.09-1.5,1.38.23,1.38.81-1.82.74-1.82.74l-3.06,2.13a13,13,0,0,1-2.47,2.55A8.8,8.8,0,0,1,346,145l-3.25,2.08S339.59,144.74,340.94,142.32Z"/><path class="cls-10" d="M354.82,139.19s-.06-.07-.16-.17a1,1,0,0,0-.56-.25,3.34,3.34,0,0,0-2,.58,9,9,0,0,0-1.64,1.37,4,4,0,0,1-.65.61,2.74,2.74,0,0,1,.53-.72,7.4,7.4,0,0,1,1.64-1.46,3.25,3.25,0,0,1,2.12-.55,1,1,0,0,1,.59.36C354.82,139.09,354.83,139.19,354.82,139.19Z"/><path class="cls-10" d="M351.53,139.3a9.76,9.76,0,0,1-2.88.62,9.76,9.76,0,0,1,2.88-.62Z"/><path class="cls-10" d="M346.68,139.75a2.18,2.18,0,0,1,2.17,1.59c-.07,0-.34-.54-1-1A7.83,7.83,0,0,0,346.68,139.75Z"/><path class="cls-12" d="M322.81,121.47s4.61,2.34,5.74,5.44c.59,1.63,4.08,19,4.08,19l7-4.77,4.76,7.16L333.17,157a10.41,10.41,0,0,1-6.61-.48c-.76-.32-1.38-.7-1.52-1.1C324.58,154.17,322.81,121.47,322.81,121.47Z"/><g class="cls-3"><path class="cls-12" d="M329.65,148.72a4.36,4.36,0,0,0-.59,4,.65.65,0,0,0,.21.3.51.51,0,0,0,.69-.22,1.59,1.59,0,0,0,.16-.78,10.13,10.13,0,0,1,2.53-6.1v-.06A12.49,12.49,0,0,0,329.65,148.72Z"/></g><path class="cls-12" d="M290.17,123.77l13.35-4.32c2.59,6.89,10.94,5.71,11.36.17l7.93,1.9s2.65,16.83,2,20.32c-1,5.63,1.56,23.88,2.93,30.45,1.2,5.69-2.29,9.06-4,10.61-8.91,7.88-13.53,6.82-20,2.73a92.93,92.93,0,0,0-14.4-7.09c.65-7.61,4.87-15.52,7.58-21.24h0L295.61,144Z"/><path class="cls-12" d="M327.52,170.28a1.62,1.62,0,0,1-.11-.38c-.07-.26-.16-.64-.27-1.13-.23-1-.53-2.41-.84-4.19s-.6-3.91-.83-6.28-.35-5-.39-7.75-.08-5.37-.26-7.74a42,42,0,0,0-.88-6.24,26.78,26.78,0,0,0-1.25-4.07c-.18-.47-.36-.81-.46-1.06a2.44,2.44,0,0,1-.15-.38,2.14,2.14,0,0,1,.2.36c.11.24.31.58.5,1.05a24.64,24.64,0,0,1,1.33,4.06,39.07,39.07,0,0,1,.94,6.26c.19,2.38.24,5,.28,7.76s.17,5.36.37,7.73.49,4.49.78,6.27.55,3.21.75,4.2c.1.47.17.85.23,1.13A2,2,0,0,1,327.52,170.28Z"/><g class="cls-3"><path class="cls-12" d="M309.49,159.82c-2.81-.13-5.7-.26-8.33.72-4,1.49-6.68,5.22-10.2,7.64l.33.12a9.69,9.69,0,0,0,10.43-.65c1.45-1.09,2.62-2.63,4.32-3.28a15.77,15.77,0,0,0,2.25-.79A3,3,0,0,0,309.49,159.82Z"/></g><path class="cls-12" d="M290.17,123.81a8.07,8.07,0,0,0-3.38,3.85c-.91,2.19-3.38,31.8-3,33.69a10.09,10.09,0,0,0,5.69,6.21c2.76,1.25,9.9-1.77,12.79-2.83.1,0-.64-1.15-.94-1.89L298.89,155l-3.93.43,1.46-14.68Z"/><path class="cls-12" d="M294.53,133.77a4.93,4.93,0,0,1,.21.82c.1.54.23,1.32.35,2.28.25,1.94.48,4.62.7,7.58s.4,5.61.54,7.59c.08.94.14,1.72.19,2.3a4.39,4.39,0,0,1,.06.84,5.12,5.12,0,0,1-.16-.83c-.07-.54-.17-1.32-.27-2.29-.2-1.94-.39-4.62-.61-7.59s-.42-5.64-.63-7.58c-.1-1-.2-1.74-.27-2.28S294.52,133.77,294.53,133.77Z"/><path class="cls-12" d="M299.52,154.74a7.5,7.5,0,0,1-1.28.27l-3.29.54h-.07a6.19,6.19,0,0,0-2.22-.53,6.11,6.11,0,0,0-2.61.46,6.51,6.51,0,0,0-1.82,1.18,9.66,9.66,0,0,0-1.27,1.58,2,2,0,0,1,.23-.51,5.73,5.73,0,0,1,.92-1.2,6.12,6.12,0,0,1,6.87-1.2h-.06l3.3-.45A8,8,0,0,1,299.52,154.74Z"/><path class="cls-12" d="M301.45,162.87a2.77,2.77,0,0,1,.29.46l.74,1.33,0,.08-.09,0c-1.34.51-3.31,1.26-5.5,2.06l-1.9.7-.07-.24h0l.06.24h0l-.06-.24h0l.07.23a8.94,8.94,0,0,1-4.17.37,9.7,9.7,0,0,1-1.2-.26,1.53,1.53,0,0,1-.41-.16s.6.15,1.63.27a9.25,9.25,0,0,0,4.07-.45l.07.23h0l-.06-.24h0l.06.24h0l-.07-.23,1.89-.7c2.19-.81,4.17-1.52,5.53-2l-.05.12-.67-1.37A2.25,2.25,0,0,1,301.45,162.87Z"/><path class="cls-12" d="M332.74,145.78a17,17,0,0,0-1.35,1.77c-.63,1.06-.86,2-.94,2a4.47,4.47,0,0,1,.72-2.15A4.09,4.09,0,0,1,332.74,145.78Z"/><path class="cls-6" d="M316.41,91.93V92h0Z"/><path class="cls-11" d="M306.79,161.48a12.2,12.2,0,0,1-.66-5,17.32,17.32,0,0,1,.35,2.49A19.2,19.2,0,0,1,306.79,161.48Z"/><path class="cls-6" d="M302.13,109.73l-11.87,12.18a8.64,8.64,0,0,1,.23,8.5l9.91.32.06-2.67a3.43,3.43,0,0,0,2.36,2.33,8.62,8.62,0,0,0,4.62-.39A92.84,92.84,0,0,1,302.13,109.73Z"/><path class="cls-13" d="M304.78,135.24c0,.36-.07,22.06-.07,22.06l18.4.61L324,136Z"/><path class="cls-14" d="M306.67,133.62c0,.45-2.55,26.41-2.55,26.41l19.95-.47,3.35-25.94Z"/><path class="cls-6" d="M324.8,138.86c0,.07-3.42.13-7.64.13s-7.64-.06-7.64-.13,3.42-.12,7.64-.12S324.8,138.79,324.8,138.86Z"/><path class="cls-6" d="M324.61,140.57c0,.07-3.42.13-7.64.13s-7.64-.06-7.64-.13,3.42-.12,7.64-.12S324.61,140.5,324.61,140.57Z"/><path class="cls-6" d="M324.27,142.74c0,.06-3.42.12-7.64.12s-7.64-.06-7.64-.12,3.42-.13,7.64-.13S324.27,142.67,324.27,142.74Z"/><path class="cls-6" d="M323.91,144.67c0,.07-3.42.13-7.64.13s-7.64-.06-7.64-.13,3.42-.12,7.64-.12S323.91,144.6,323.91,144.67Z"/><path class="cls-6" d="M323.91,146.61c0,.07-3.42.12-7.64.12s-7.64,0-7.64-.12,3.42-.13,7.64-.13S323.91,146.54,323.91,146.61Z"/><path class="cls-6" d="M323.72,148.64c0,.07-3.42.13-7.63.13s-7.64-.06-7.64-.13,3.42-.13,7.64-.13S323.72,148.57,323.72,148.64Z"/><path class="cls-6" d="M323.54,150.67c0,.07-3.42.13-7.64.13s-7.64-.06-7.64-.13,3.42-.12,7.64-.12S323.54,150.6,323.54,150.67Z"/><path class="cls-6" d="M323.36,152.71c0,.07-3.42.12-7.64.12s-7.64-.05-7.64-.12,3.42-.13,7.64-.13S323.36,152.64,323.36,152.71Z"/><path class="cls-6" d="M323.18,154.74c0,.07-3.42.12-7.64.12s-7.64-.05-7.64-.12,3.42-.13,7.64-.13S323.18,154.67,323.18,154.74Z"/><path class="cls-6" d="M323,156.77c0,.07-3.42.13-7.63.13s-7.64-.06-7.64-.13,3.42-.13,7.64-.13S323,156.7,323,156.77Z"/><path class="cls-9" d="M298.36,157.26a28.85,28.85,0,0,1,1.92-3.71,60.3,60.3,0,0,1,7.14-.86c1.23,0,3.11,0,3.43.63.23.44,0,1.09-.91,1.22,0,0,1.27-.06,1.13.73s-3,2.25-3,2.25.53.6-.53,1.72l-.47.6s.2,1.06-.39,1.52a36.79,36.79,0,0,1-4.39,1.78l-1.44-.46-.92.46S296.93,160.21,298.36,157.26Z"/><path class="cls-10" d="M310.39,154.38a6.11,6.11,0,0,1-1.27.45c-.8.25-1.91.54-3.14.82s-2.37.47-3.19.59a7.22,7.22,0,0,1-1.34.12,8,8,0,0,1,1.31-.3c.81-.16,1.93-.39,3.16-.66s2.35-.54,3.15-.74A9.73,9.73,0,0,1,310.39,154.38Z"/><path class="cls-10" d="M308,157.62a8.63,8.63,0,0,1-2.65.9,9.1,9.1,0,0,1-2.79.29c0-.08,1.23-.2,2.73-.53S308,157.56,308,157.62Z"/><path class="cls-10" d="M307,159.81a4,4,0,0,1-1.74.93,4.18,4.18,0,0,1-2,.27c0-.08.87-.17,1.89-.51S307,159.74,307,159.81Z"/><path class="cls-10" d="M301.36,161.17a.9.9,0,0,1-.67-.22,1.57,1.57,0,0,1-.5-.61,1.66,1.66,0,0,1-.13-.94A.74.74,0,0,0,300,159a1.87,1.87,0,0,0-.27-.31,1.41,1.41,0,0,1-.33-.72c-.05-.45.12-.7.15-.68a3.52,3.52,0,0,0,0,.65,1.28,1.28,0,0,0,.32.59,1.74,1.74,0,0,1,.31.34.91.91,0,0,1,.11.53,1.54,1.54,0,0,0,.49,1.39A4.65,4.65,0,0,0,301.36,161.17Z"/><path class="cls-10" d="M302.31,162.76c0,.07-.42.06-.72-.31s-.22-.79-.15-.77.11.32.35.61S302.33,162.69,302.31,162.76Z"/><path class="cls-15" d="M627.87,170.44l5-2.87a1.14,1.14,0,0,1,1.6.37l0,.1a1.2,1.2,0,0,1-.53,1.59l-5,2.87a1.14,1.14,0,0,1-1.6-.37l-.06-.1A1.22,1.22,0,0,1,627.87,170.44Z"/><path class="cls-15" d="M638.66,172.09s-2.39,3-3,3.94c-1.29,1.74-2.36,2.31-3.55,1.66l-2-2c-.91-1.25-1.28-1.89-.63-3.09l2.16-3.92a2.49,2.49,0,0,1,3.35-1l2.36,1.3C638.52,169.65,639.32,170.89,638.66,172.09Z"/><path class="cls-15" d="M633.3,171.25,630,175.14c-.52.64-1.28.89-1.69.56h0c-.42-.33-.34-1.13.18-1.77l3.31-3.88c.51-.65,1.27-.9,1.69-.57h0C633.9,169.81,633.81,170.61,633.3,171.25Z"/><path class="cls-15" d="M634.32,172.8l-3.3,3.88c-.52.64-1.28.9-1.7.57h0c-.41-.34-.33-1.13.19-1.78l3.3-3.88c.52-.64,1.28-.9,1.7-.56h0C634.92,171.36,634.84,172.15,634.32,172.8Z"/><path class="cls-15" d="M635.65,174.66l-3.3,3.88c-.52.65-1.28.9-1.7.57h0c-.41-.33-.33-1.13.19-1.77l3.3-3.88c.52-.65,1.28-.9,1.7-.57h0C636.25,173.22,636.17,174,635.65,174.66Z"/><path class="cls-15" d="M648.45,155.13a35,35,0,0,1-2.21,5.64,24.31,24.31,0,0,1-1.68,2.77l-6.73,9.69a3,3,0,0,1-1.51,1.16,3.3,3.3,0,0,1-3.37-.92c-1.55-1.53-.65-3.06.5-4.72,0,0,7.57-10.64,8-11.73s6.38-26.91,6.38-26.91c.64-3.12.48-4.83,2.21-5.59s3.21,2.62,4.05,4.74A133,133,0,0,1,648.45,155.13Z"/><path class="cls-8" d="M644.77,139.43c1.26-6.14,2.34-10.14,3-13.22s3.37-4.4,6.23-1-.4,11.36-1.8,19.25c-.82,4.66-4,12.32-4,12.32l-6.72-3.73S643.54,145.4,644.77,139.43Z"/><polygon class="cls-16" points="641.79 150.59 645.58 152.23 645.98 155.13 647.98 152.96 650.11 153.83 648.81 157.8 640.52 154.18 641.79 150.59"/><circle class="cls-8" cx="667.58" cy="80.89" r="6.77" transform="matrix(0.99, -0.13, 0.13, 0.99, -4.85, 87.51)"/><path class="cls-8" d="M664.59,109a22,22,0,0,1-.05-3c0-5.17,0-15.23-1.42-16-4-2.11-20.37,9.38-21.37,4.86a15.3,15.3,0,0,1-.38-3.26c0-.24,0-.47,0-.7A15.58,15.58,0,0,1,644.57,82h0a15.58,15.58,0,0,1,12.94-6.11l.71,0A16.13,16.13,0,0,1,672.12,86a17.18,17.18,0,0,1,1.17,5.92C673.55,104.88,666.12,106.65,664.59,109Z"/><path class="cls-8" d="M664.59,109a22,22,0,0,1-.05-3l.12-.42a17.41,17.41,0,0,0,6.66-10,26.39,26.39,0,0,0,.8-9.5,17.18,17.18,0,0,1,1.17,5.92C673.55,104.88,666.12,106.65,664.59,109Z"/><path class="cls-15" d="M657.88,130.17h0a4.31,4.31,0,0,0,4.73-3.82l2-18.75a4.32,4.32,0,0,0-3.83-4.74h0a4.32,4.32,0,0,0-4.73,3.83l-2,18.75A4.31,4.31,0,0,0,657.88,130.17Z"/><path class="cls-17" d="M664.83,101.57c0,.15,0,.29-.05.43l0,.14a13,13,0,0,1-1.81,5,1.64,1.64,0,0,1-.14.22,12.54,12.54,0,0,1-6.16,5h0a11.78,11.78,0,0,1-3.08.69c-.39,0-.78,0-1.17,0l-.4,0h-.08a10.41,10.41,0,0,1-1.69-.22,4.4,4.4,0,0,1-.47-.1,12.45,12.45,0,0,1-9.34-11.24,11.72,11.72,0,0,1,0-1.78l0-.92.35-6.09a16.27,16.27,0,0,1,.35-2.65,9.57,9.57,0,0,1,.62-1.92,12.45,12.45,0,0,1,2.89-4.22,12,12,0,0,1,15.66-.77c.27.22.54.44.79.68a12.56,12.56,0,0,1,3,4.25s0,0,0,0a12.34,12.34,0,0,1,.5,1.32c0,.08,0,.16.07.25a12.88,12.88,0,0,1,.41,1.68l.06.38a11,11,0,0,1,.13,2.15V94l0,.49,0,.54,0,.69h0v.15l0,.32h0L665,99.46l-.06,1.09,0,.41v.18C664.86,101.29,664.85,101.43,664.83,101.57Z"/><path class="cls-18" d="M665.71,101.13a1.84,1.84,0,0,1-.33,0,1,1,0,0,1-.17,0l-.34,0-.43,0,.09-1.64,0-.36.16-3,.45,0,.33,0,.2,0h0l.29.05h0a2.35,2.35,0,0,1,1.23.71,2.39,2.39,0,0,1,.64,1.76A2.59,2.59,0,0,1,665.71,101.13Z"/><path class="cls-8" d="M665.57,90.51s-21.74-5.32-23.78-.91c0,0-.37-4.75,6.52-8.86s17.75,1.09,18.44,3.23a8.36,8.36,0,0,1,.41,3.74Z"/><path class="cls-8" d="M673.66,138.06l-.27,4.59-2,33.22-.08,1.32h0l-8-.34L644.27,176l1.68-20-1.49-18.32a5.89,5.89,0,0,1,0-.84c.64-10,4.36-17.59,11.47-19.76l-.69,12.6c.86,0,7.24-12.53,8-12.39a8.67,8.67,0,0,1,3.38,1.38C671.15,121.82,673.42,129.27,673.66,138.06Z"/><path class="cls-15" d="M666.8,101a1.84,1.84,0,0,1-.33,0h-.17l-.34,0c0,.15,0,.29,0,.43s0,.29,0,.43l0,.14a13,13,0,0,1-1.81,5,1.64,1.64,0,0,1-.14.22,12.54,12.54,0,0,1-6.16,5h0a11.78,11.78,0,0,1-3.08.69c-.39,0-.78.05-1.17.05l-.4,0c.63,0,4.27-.43,7.16-4.58,3.12-4.51,4.28-13.44,4.28-13.44s0-3.86.18-3.84c.07,0,.71.23,1.56.52a11,11,0,0,1,.13,2.15v.13l0,.49,0,.54,0,.69h0v.15l0,.32.33,0,.2,0h0l.29,0h0A2.41,2.41,0,0,1,669,98.58,2.59,2.59,0,0,1,666.8,101Z"/><path class="cls-8" d="M644.82,88.15A3.16,3.16,0,1,1,642,84.68,3.15,3.15,0,0,1,644.82,88.15Z"/><path class="cls-8" d="M650.37,87.94a3.16,3.16,0,1,1-2.81-3.48A3.16,3.16,0,0,1,650.37,87.94Z"/><path class="cls-8" d="M656.38,88.3a3.16,3.16,0,1,1-2.81-3.48A3.17,3.17,0,0,1,656.38,88.3Z"/><circle class="cls-8" cx="659.46" cy="89.18" r="3.16"/><path class="cls-8" d="M662.16,87.32l2.44,11.05a.71.71,0,0,0,1.34.12l3.48-8.38S666.82,81.37,662.16,87.32Z"/><polygon class="cls-16" points="664.3 117.26 664.45 114.1 659.13 114.1 656.53 122.53 655.92 114.2 653.92 114.1 653.32 136.67 664.3 117.26"/><path class="cls-19" d="M650.54,187.38l11.24.86c5,.37,9.26-1.91,9.53-5.26l-.07-6.17-28.59-.5-.36,4.46C642,184.13,645.57,187,650.54,187.38Z"/><path class="cls-6" d="M649.9,268.25h-.73a.79.79,0,0,1-.79-.79v-11l3.3.69-1,10.4A.79.79,0,0,1,649.9,268.25Z"/><path class="cls-6" d="M641.89,255.77l-3.93,7a3.82,3.82,0,0,1-3.1,1.84h0a2,2,0,0,0-1.9,1.86h0a2,2,0,0,0,2,2.1h3.19a6.52,6.52,0,0,0,4.45-1.76l8.62-8a2.73,2.73,0,0,0,.53-1.91h0a2.7,2.7,0,0,0-3.08-2.4Z"/><path class="cls-6" d="M641.69,254.88l-3.93,7a3.82,3.82,0,0,1-3.1,1.84h0a2,2,0,0,0-1.9,1.86h0a2,2,0,0,0,2,2.1H637a8.83,8.83,0,0,0,6-2.38l8-7.42a2.73,2.73,0,0,0,.53-1.91h0a2.7,2.7,0,0,0-3.08-2.4Z"/><line class="cls-6" x1="638.66" y1="260.08" x2="640.44" y2="261.16"/><line class="cls-6" x1="639.39" y1="258.68" x2="641.16" y2="259.77"/><line class="cls-6" x1="640.1" y1="257.35" x2="641.88" y2="258.43"/><path class="cls-19" d="M642,254.77l8.62.19-2.73-30.51a12.56,12.56,0,0,1-.06-3.24l6.89-40.08-12.29-1.41-5.78,38.37a25.51,25.51,0,0,0,.13,6.76Z"/><rect class="cls-20" x="641.13" y="252.94" width="10.21" height="2.15"/><path class="cls-6" d="M669.83,268.89h-.72a.79.79,0,0,1-.79-.79v-11l3.3.69-1,10.39A.79.79,0,0,1,669.83,268.89Z"/><path class="cls-6" d="M661.83,256.41l-3.93,7a3.83,3.83,0,0,1-3.11,1.83h0a2,2,0,0,0-1.9,1.87h0a2,2,0,0,0,2,2.1h3.18a6.58,6.58,0,0,0,4.46-1.77l8.61-8a2.69,2.69,0,0,0,.53-1.9h0a2.68,2.68,0,0,0-3.07-2.4Z"/><path class="cls-6" d="M661.63,255.52l-3.93,7a3.83,3.83,0,0,1-3.11,1.83h0a2,2,0,0,0-1.9,1.87h0a2,2,0,0,0,2,2.1H657a8.85,8.85,0,0,0,6-2.39l8-7.42a2.69,2.69,0,0,0,.53-1.9h0a2.68,2.68,0,0,0-3.07-2.4Z"/><line class="cls-6" x1="658.6" y1="260.72" x2="660.37" y2="261.8"/><line class="cls-6" x1="659.32" y1="259.32" x2="661.1" y2="260.4"/><line class="cls-6" x1="660.04" y1="257.99" x2="661.81" y2="259.07"/><polygon class="cls-19" points="662.02 255.33 670.61 255.38 671.14 180.21 656.85 179.48 662.02 255.33"/><rect class="cls-20" x="661.54" y="253.34" width="9.65" height="2.23"/><rect class="cls-21" x="644.14" y="175.18" width="27.38" height="2.86"/><path class="cls-22" d="M673.39,142.65l-1.92,32.23-8.38.45s-.3-17.3-.45-22.57S669,132.31,669,132.31A89.25,89.25,0,0,1,673.39,142.65Z"/><path class="cls-17" d="M646.2,172.3l5.73-1.58a1.19,1.19,0,0,1,1.51.76l0,.12a1.23,1.23,0,0,1-.92,1.44l-5.74,1.58a1.2,1.2,0,0,1-1.51-.77l0-.11A1.23,1.23,0,0,1,646.2,172.3Z"/><path class="cls-23" d="M649,186.79a2.91,2.91,0,0,1-1.22.49l-11.7,2.07a3.11,3.11,0,0,1-3.6-2.52L629,166.77a3.11,3.11,0,0,1,2.52-3.6l.13,0,11.57-2a3.11,3.11,0,0,1,3.61,2.51l1.35,7.7,1.36,7.68.82,4.68A3.11,3.11,0,0,1,649,186.79Z"/><path class="cls-16" d="M639.65,170.16a1.26,1.26,0,1,1-1.5-1.26A1.4,1.4,0,0,1,639.65,170.16Z"/><path class="cls-21" d="M651.39,181.29l-4.4,3.28c-.73.58-1.62.66-2,.17a.87.87,0,0,1-.14-.58,2,2,0,0,1,.82-1.36l3.06-2.29-.23-.39-4.31,3.23c-.73.57-1.62.65-2,.16a.84.84,0,0,1-.15-.58,2,2,0,0,1,.82-1.36l4.51-3.37,0-.06c0-.13-.1-.25-.14-.37l-3.56,2.66c-.73.58-1.62.65-2,.16a.87.87,0,0,1-.14-.58,2,2,0,0,1,.82-1.36l4.61-3.44a.18.18,0,0,1,.07-.05,2.62,2.62,0,0,1,.44-.64Z"/><path class="cls-17" d="M656.6,176.63s-3.15,2.41-4,3.13c-1.72,1.39-2.93,1.7-3.95.76l-1.49-2.44c-.61-1.47-.82-2.2.13-3.22l3.13-3.34a2.58,2.58,0,0,1,3.6-.14l2,1.87C657.05,174.19,657.55,175.61,656.6,176.63Z"/><path class="cls-17" d="M648,177.07l-4.27,3c-.68.5-1.5.56-1.84.13h0c-.33-.43-.05-1.2.62-1.7l4.27-3c.68-.51,1.5-.57,1.84-.14h0C648.91,175.79,648.63,176.56,648,177.07Z"/><path class="cls-17" d="M648.46,179.64l-4.28,3c-.67.5-1.5.57-1.83.13h0c-.33-.43-.05-1.2.62-1.7l4.27-3c.68-.51,1.5-.57,1.84-.14h0C649.41,178.36,649.13,179.13,648.46,179.64Z"/><path class="cls-17" d="M651,180.73l-4.27,3c-.67.51-1.5.57-1.83.14h0c-.34-.44-.06-1.2.62-1.71l4.27-3c.67-.51,1.5-.57,1.83-.14h0C652,179.45,651.72,180.22,651,180.73Z"/><path class="cls-17" d="M670.59,162.31a28.65,28.65,0,0,1-3.6,5,26.06,26.06,0,0,1-2.37,2.33l-9.14,7.89a3.08,3.08,0,0,1-1.79.77,3.47,3.47,0,0,1-3.16-1.76c-1.17-1.89.11-3.19,1.67-4.53l8.2-7.91a25,25,0,0,0,2.4-2.78,26.75,26.75,0,0,0,1.77-2.75,27,27,0,0,0,2.94-16.81l-1.32-9.61c-.32-2.3,1-4.42,2.91-4.74s3.74,1.29,4.06,3.59l1.33,9.61A34.66,34.66,0,0,1,670.59,162.31Z"/><path class="cls-15" d="M665.31,157.34l6,3.72a28.08,28.08,0,0,1-3.41,5.11l-4.75-5.34Z"/><path class="cls-8" d="M666.5,151.83c.06-.29,1.19-1.75.29-7.9s-2.08-12.6-.71-15.5,4.95-4.37,7-.26,2.88,18.84,2.24,23.62-4.42,11.65-4.42,11.65l-7.33-5.36A19.29,19.29,0,0,0,666.5,151.83Z"/><polygon class="cls-16" points="664.86 155.86 668.24 158.42 667.93 161.39 670.46 159.74 672.39 161.14 670.1 164.73 662.69 159.08 664.86 155.86"/><path class="cls-17" d="M628.36,175.44h0a.82.82,0,0,0,1.16,0l1.14-1.14a.82.82,0,0,0,0-1.16h0a.82.82,0,0,0-1.16,0l-1.14,1.14A.82.82,0,0,0,628.36,175.44Z"/><path class="cls-17" d="M629.3,177.31h0a.82.82,0,0,0,1.16,0l1.15-1.14a.84.84,0,0,0,0-1.16h0a.82.82,0,0,0-1.16,0l-1.15,1.14A.84.84,0,0,0,629.3,177.31Z"/><path class="cls-17" d="M630,179h0a.82.82,0,0,0,1.16,0l1.14-1.15a.81.81,0,0,0,0-1.15h0a.82.82,0,0,0-1.16,0L630,177.85A.82.82,0,0,0,630,179Z"/><path class="cls-24" d="M156.94,271.41H80a15.58,15.58,0,0,1-15.22-14L51.67,107.48a12.62,12.62,0,0,1,12.77-14h76.94a15.58,15.58,0,0,1,15.21,14l13.12,149.94A12.61,12.61,0,0,1,156.94,271.41Z"/><path class="cls-25" d="M162.66,271.41H85.73a15.58,15.58,0,0,1-15.22-14L57.39,107.48a12.62,12.62,0,0,1,12.77-14H147.1a15.58,15.58,0,0,1,15.21,14l13.12,149.94A12.61,12.61,0,0,1,162.66,271.41Z"/><path class="cls-16" d="M147.6,99.21H135.06l.29,3.32a4.14,4.14,0,0,1-4.18,4.59H88.48a5.11,5.11,0,0,1-5-4.59l-.29-3.32H70.66a7.47,7.47,0,0,0-7.55,8.27L76.23,257.42a9.23,9.23,0,0,0,9,8.27h76.93a7.47,7.47,0,0,0,7.55-8.27L156.59,107.48A9.22,9.22,0,0,0,147.6,99.21Z"/><rect class="cls-26" x="88.75" y="259.93" width="51.87" height="3.17" rx="1.58"/><path class="cls-27" d="M145.86,128.23H77a6.15,6.15,0,0,1-6-5.52l-.16-1.9a5,5,0,0,1,5-5.53h68.81a6.15,6.15,0,0,1,6,5.53l.17,1.9A5,5,0,0,1,145.86,128.23Z"/><path class="cls-28" d="M144.72,252.9H100a6.15,6.15,0,0,1-6-5.52l-.16-1.9a5,5,0,0,1,5-5.53h44.73a6.15,6.15,0,0,1,6,5.53l.16,1.9A5,5,0,0,1,144.72,252.9Z"/><path class="cls-24" d="M111.08,99.21a1.76,1.76,0,0,1-1.78,2,2.17,2.17,0,0,1-2.12-2A1.75,1.75,0,0,1,109,97.27,2.17,2.17,0,0,1,111.08,99.21Z"/><text class="cls-29" transform="matrix(1, 0, 0.09, 1, 101.14, 124.3)">JUNE</text><text class="cls-29" transform="matrix(1, 0, 0.09, 1, 101.62, 248.58)">BOOK NOW</text><path class="cls-30" d="M80.34,149.38H75.75A2.65,2.65,0,0,1,73.16,147l-.4-4.59A2.15,2.15,0,0,1,74.93,140h4.59a2.65,2.65,0,0,1,2.59,2.38l.4,4.59A2.14,2.14,0,0,1,80.34,149.38Z"/><path class="cls-30" d="M92.09,149.38H87.5A2.65,2.65,0,0,1,84.91,147l-.4-4.59A2.15,2.15,0,0,1,86.68,140h4.59a2.65,2.65,0,0,1,2.59,2.38l.4,4.59A2.14,2.14,0,0,1,92.09,149.38Z"/><path class="cls-30" d="M103.84,149.38H99.25A2.65,2.65,0,0,1,96.66,147l-.4-4.59A2.15,2.15,0,0,1,98.43,140H103a2.64,2.64,0,0,1,2.58,2.38L106,147A2.15,2.15,0,0,1,103.84,149.38Z"/><path class="cls-27" d="M115.6,149.38H111a2.64,2.64,0,0,1-2.59-2.38l-.41-4.59a2.15,2.15,0,0,1,2.18-2.38h4.59a2.66,2.66,0,0,1,2.59,2.38l.4,4.59A2.15,2.15,0,0,1,115.6,149.38Z"/><path class="cls-27" d="M127.35,149.38h-4.59a2.64,2.64,0,0,1-2.59-2.38l-.4-4.59a2.14,2.14,0,0,1,2.17-2.38h4.59a2.66,2.66,0,0,1,2.59,2.38l.4,4.59A2.15,2.15,0,0,1,127.35,149.38Z"/><path class="cls-27" d="M139.1,149.38h-4.59a2.64,2.64,0,0,1-2.59-2.38l-.4-4.59a2.15,2.15,0,0,1,2.17-2.38h4.59a2.65,2.65,0,0,1,2.59,2.38l.4,4.59A2.14,2.14,0,0,1,139.1,149.38Z"/><path class="cls-27" d="M150.85,149.38h-4.59a2.65,2.65,0,0,1-2.59-2.38l-.4-4.59a2.15,2.15,0,0,1,2.17-2.38H150a2.65,2.65,0,0,1,2.59,2.38L153,147A2.14,2.14,0,0,1,150.85,149.38Z"/><path class="cls-27" d="M81.68,164.66H77.09a2.64,2.64,0,0,1-2.59-2.38l-.4-4.59a2.14,2.14,0,0,1,2.17-2.38h4.59a2.66,2.66,0,0,1,2.59,2.38l.4,4.59A2.15,2.15,0,0,1,81.68,164.66Z"/><path class="cls-27" d="M93.43,164.66H88.84a2.64,2.64,0,0,1-2.59-2.38l-.4-4.59A2.14,2.14,0,0,1,88,155.31h4.59a2.66,2.66,0,0,1,2.59,2.38l.4,4.59A2.14,2.14,0,0,1,93.43,164.66Z"/><path class="cls-27" d="M105.18,164.66h-4.59A2.65,2.65,0,0,1,98,162.28l-.4-4.59a2.15,2.15,0,0,1,2.17-2.38h4.59a2.65,2.65,0,0,1,2.59,2.38l.4,4.59A2.14,2.14,0,0,1,105.18,164.66Z"/><path class="cls-27" d="M116.93,164.66h-4.59a2.65,2.65,0,0,1-2.59-2.38l-.4-4.59a2.15,2.15,0,0,1,2.17-2.38h4.59a2.65,2.65,0,0,1,2.59,2.38l.4,4.59A2.14,2.14,0,0,1,116.93,164.66Z"/><path class="cls-27" d="M128.68,164.66h-4.59a2.65,2.65,0,0,1-2.59-2.38l-.4-4.59a2.15,2.15,0,0,1,2.18-2.38h4.59a2.64,2.64,0,0,1,2.58,2.38l.41,4.59A2.15,2.15,0,0,1,128.68,164.66Z"/><path class="cls-27" d="M140.44,164.66h-4.59a2.64,2.64,0,0,1-2.59-2.38l-.4-4.59a2.14,2.14,0,0,1,2.17-2.38h4.59a2.66,2.66,0,0,1,2.59,2.38l.4,4.59A2.15,2.15,0,0,1,140.44,164.66Z"/><path class="cls-27" d="M152.19,164.66H147.6a2.64,2.64,0,0,1-2.59-2.38l-.4-4.59a2.14,2.14,0,0,1,2.17-2.38h4.59a2.66,2.66,0,0,1,2.59,2.38l.4,4.59A2.14,2.14,0,0,1,152.19,164.66Z"/><path class="cls-27" d="M83,179.94H78.42a2.66,2.66,0,0,1-2.59-2.38l-.4-4.59a2.15,2.15,0,0,1,2.17-2.38h4.59A2.65,2.65,0,0,1,84.78,173l.41,4.59A2.15,2.15,0,0,1,83,179.94Z"/><path class="cls-27" d="M94.76,179.94H90.17a2.64,2.64,0,0,1-2.58-2.38L87.18,173a2.15,2.15,0,0,1,2.18-2.38H94A2.66,2.66,0,0,1,96.54,173l.4,4.59A2.15,2.15,0,0,1,94.76,179.94Z"/><path class="cls-27" d="M106.52,179.94h-4.59a2.65,2.65,0,0,1-2.59-2.38l-.4-4.59a2.14,2.14,0,0,1,2.17-2.38h4.59a2.66,2.66,0,0,1,2.59,2.38l.4,4.59A2.15,2.15,0,0,1,106.52,179.94Z"/><path class="cls-27" d="M118.27,179.94h-4.59a2.65,2.65,0,0,1-2.59-2.38l-.4-4.59a2.15,2.15,0,0,1,2.17-2.38h4.59A2.65,2.65,0,0,1,120,173l.4,4.59A2.15,2.15,0,0,1,118.27,179.94Z"/><path class="cls-27" d="M130,179.94h-4.59a2.66,2.66,0,0,1-2.59-2.38l-.4-4.59a2.15,2.15,0,0,1,2.17-2.38h4.59a2.65,2.65,0,0,1,2.59,2.38l.4,4.59A2.14,2.14,0,0,1,130,179.94Z"/><path class="cls-27" d="M141.77,179.94h-4.59a2.66,2.66,0,0,1-2.59-2.38l-.4-4.59a2.15,2.15,0,0,1,2.17-2.38H141a2.65,2.65,0,0,1,2.59,2.38l.41,4.59A2.15,2.15,0,0,1,141.77,179.94Z"/><path class="cls-27" d="M153.52,179.94h-4.59a2.64,2.64,0,0,1-2.58-2.38l-.41-4.59a2.15,2.15,0,0,1,2.18-2.38h4.59A2.66,2.66,0,0,1,155.3,173l.4,4.59A2.15,2.15,0,0,1,153.52,179.94Z"/><path class="cls-27" d="M84.35,195.22H79.76a2.65,2.65,0,0,1-2.59-2.38l-.4-4.59a2.14,2.14,0,0,1,2.17-2.38h4.59a2.64,2.64,0,0,1,2.59,2.38l.4,4.59A2.15,2.15,0,0,1,84.35,195.22Z"/><path class="cls-27" d="M96.1,195.22H91.51a2.66,2.66,0,0,1-2.59-2.38l-.4-4.59a2.15,2.15,0,0,1,2.17-2.38h4.59a2.64,2.64,0,0,1,2.59,2.38l.4,4.59A2.14,2.14,0,0,1,96.1,195.22Z"/><path class="cls-27" d="M107.85,195.22h-4.59a2.66,2.66,0,0,1-2.59-2.38l-.4-4.59a2.15,2.15,0,0,1,2.18-2.38H107a2.64,2.64,0,0,1,2.58,2.38l.41,4.59A2.15,2.15,0,0,1,107.85,195.22Z"/><path class="cls-28" d="M119.61,195.22H115a2.65,2.65,0,0,1-2.59-2.38l-.41-4.59a2.15,2.15,0,0,1,2.18-2.38h4.59a2.65,2.65,0,0,1,2.59,2.38l.4,4.59A2.15,2.15,0,0,1,119.61,195.22Z"/><path class="cls-27" d="M131.36,195.22h-4.59a2.65,2.65,0,0,1-2.59-2.38l-.4-4.59a2.14,2.14,0,0,1,2.17-2.38h4.59a2.65,2.65,0,0,1,2.59,2.38l.4,4.59A2.15,2.15,0,0,1,131.36,195.22Z"/><path class="cls-27" d="M143.11,195.22h-4.59a2.65,2.65,0,0,1-2.59-2.38l-.4-4.59a2.14,2.14,0,0,1,2.17-2.38h4.59a2.64,2.64,0,0,1,2.59,2.38l.4,4.59A2.15,2.15,0,0,1,143.11,195.22Z"/><path class="cls-27" d="M154.86,195.22h-4.59a2.66,2.66,0,0,1-2.59-2.38l-.4-4.59a2.15,2.15,0,0,1,2.17-2.38H154a2.64,2.64,0,0,1,2.59,2.38l.4,4.59A2.14,2.14,0,0,1,154.86,195.22Z"/><path class="cls-30" d="M154.23,210.51H82a3.69,3.69,0,0,1-3.6-3.32h0a3,3,0,0,1,3-3.32h72.2a3.71,3.71,0,0,1,3.61,3.32h0A3,3,0,0,1,154.23,210.51Z"/><path class="cls-30" d="M155.14,221H83a3.69,3.69,0,0,1-3.61-3.32h0a3,3,0,0,1,3-3.32h72.19a3.69,3.69,0,0,1,3.61,3.32h0A3,3,0,0,1,155.14,221Z"/><path class="cls-30" d="M156.06,231.47H83.87a3.69,3.69,0,0,1-3.61-3.31h0a3,3,0,0,1,3-3.32h72.19a3.69,3.69,0,0,1,3.61,3.32h0A3,3,0,0,1,156.06,231.47Z"/><polygon class="cls-25" points="71.2 105.96 69.57 105.96 69.49 105.03 71.12 105.03 71.2 105.96"/><polygon class="cls-25" points="73.34 105.96 71.7 105.96 71.53 104 73.17 104 73.34 105.96"/><polygon class="cls-25" points="75.47 105.96 73.83 105.96 73.56 102.8 75.19 102.8 75.47 105.96"/><polygon class="cls-25" points="77.6 105.96 75.97 105.96 75.55 101.16 77.18 101.16 77.6 105.96"/><path class="cls-31" d="M98.28,247.76s1-.59,1.11-1a7,7,0,0,1,.61-1.53,5.38,5.38,0,0,1,.93-.91c.13-.08.39.33-.09.79-.29.28-.22.43-.18.43a14.19,14.19,0,0,1,2.23-1.93c.12-.08.51.11.12.48l-1.07,1.06c.33.09.48.4.41.52.34.1.37.37.29.51.27.09.27.46.15.65s-.39.78-1.75,1.08c-.69,0-1.6.9-1.6.9Z"/><polygon class="cls-32" points="98.86 247.11 99.37 246.65 100.58 248.27 99.98 248.65 98.86 247.11"/><path class="cls-33" d="M24.91,107.29A3.29,3.29,0,0,1,21,105c-1.22-3-2-8.47-1.28-9.1s3.11-.75,4.83-1.19a25.28,25.28,0,0,1,3.72-.61s1.84,6.66.89,9.55S24.91,107.29,24.91,107.29Z"/><path class="cls-34" d="M26.76,100.62s.28-2.49-1.05-3.22-3.89.84-3.55,2.89,1.66,2.33,1.94,3.61a11.57,11.57,0,0,0,.81,2.94,3.33,3.33,0,0,1-.45,3A8.39,8.39,0,0,1,23,111.62s-1,4.83,3.8,5.94,6.14,2.79,8.3.56,1.34-3.61,1.17-4.11a25.79,25.79,0,0,1-.39-3.06l0-.61a2,2,0,0,0,2.11-1c.61-1.34,2.83-6.22,1.83-8.55a5.73,5.73,0,0,1-.31-4.39,11.17,11.17,0,0,0-.58-3.89,11,11,0,0,0-1-1.61l-9.61,3.28s-.35,4.5-.31,5.83S27,102.76,26.76,100.62Z"/><path class="cls-35" d="M35.82,110.34s-5-.72-7.06-1.33a7.62,7.62,0,0,1-2.33-.89s5.39,5.44,6.22,5A21.88,21.88,0,0,0,35.82,110.34Z"/><path class="cls-12" d="M44.87,88.07c-.6.6-7.13,3.76-14,6.09a43.84,43.84,0,0,1-11.42,2.59s-3.05-12.12,3.89-14.23,10-1.72,11.83,0,3,7.22,3,7.22h0C38.31,89.67,45.8,87.14,44.87,88.07Z"/><path class="cls-36" d="M44.87,88.07c-.6.6-7.13,3.76-14,6.09-.53-.35,7.25-4.42,7.25-4.42h0C38.31,89.67,45.8,87.14,44.87,88.07Z"/><path class="cls-6" d="M16.32,257.73a40.72,40.72,0,0,1-1.33,6c-.66,1.67.67,5.56,2.89,6s12,1.33,12,0-.47-3.22-1.51-3.77-3.48-.74-4.82-1.87-1.19-4.69-1.19-4.69Z"/><path class="cls-6" d="M37.67,256.26a52.18,52.18,0,0,1-1.13,6.81c-.61,1.9.84,6.25,3.08,6.69s12,1.16,12-.35S51,265.79,50,265.19s-3.5-.73-4.87-2-2.63-7.1-2.63-7.1Z"/><path class="cls-8" d="M11.77,165.65s-2.89,11,0,31.1,2.44,27,2.44,30.54.23,31.44,1.56,32.1,7.66,1.22,8.11.56,6-42.32,6-42.32,3,20.44,4.78,28.77,2.33,10.88,3.67,11.33,4.77.11,4.88-.56,2.78-53.64,3-55.64-.9-31.46-.9-31.46Z"/><path class="cls-12" d="M19.1,112.45s-7.88,3.33-10.88,9.22-5.67,12.55-4.45,24.55S11,159.77,10.88,160.6s-1.19,4.39.41,6.61,4,2.22,5.48,2.89,13.88,2.22,18.88,2.55,9.77-1.78,10-3.22a59,59,0,0,0,0-6.33l.09-31.1h6.68s-3-10.22-5.11-11.88-9.44-6.45-9.44-6.45-4.66,3.45-5.89,3.45-5.66-2.11-6.77-2.89S21.85,111,19.1,112.45Z"/><path class="cls-12" d="M23.27,110.62s6.63,4.11,6.33,4.89-2.6,3.16-3.16,2.5-6.84-4.78-6.17-5.67S22,109.82,23.27,110.62Z"/><path class="cls-12" d="M36.76,111.62c.39.33,3.24,2.11,2.59,3s-5.7,4.53-6.37,3.47-1.49-2-1-2.67A49.69,49.69,0,0,1,36.76,111.62Z"/><path class="cls-36" d="M33,172.47l-.82-.16s.75-4.11.51-16-2-39.09-2-39.37l.83,0c0,.27,1.78,27.46,2,39.41S33,172.3,33,172.47Z"/><path class="cls-36" d="M19.1,142v7.47a6.54,6.54,0,0,1-1.5-.56c-2.88-1.5-3.47-8.8-3.58-12.33,0,.14.93,8.18,2.75,9.75S19.1,142,19.1,142Z"/><path class="cls-36" d="M10.88,160.6l-.16.83s7.47,2.17,8,3.11a5,5,0,0,0,3.31,2c.94,0,12.44-.83,16.52-.67a20.18,20.18,0,0,0,7.2-1Z"/><rect class="cls-37" x="19.1" y="132" width="46.2" height="32.54" rx="1.17"/><path class="cls-38" d="M65.3,133.17v30.21a1.16,1.16,0,0,1-1.16,1.16H37.87V132H64.14A1.16,1.16,0,0,1,65.3,133.17Z"/><rect class="cls-39" x="21.99" y="135.78" width="5.16" height="5.16" rx="2.41"/><rect class="cls-37" x="46.76" y="135.78" width="11.33" height="2.58" rx="1.21"/><rect class="cls-37" x="42.2" y="151.21" width="10.22" height="10.22" rx="4.77"/><rect class="cls-16" x="43.04" y="152.05" width="8.55" height="8.55" rx="1.53"/><path class="cls-34" d="M24.39,152.7a9.72,9.72,0,0,0,2.12-.65c1-.47,3.84-1.57,3.55-.84s-1.67,1.45-.8,1.49,3.88-2.25,4.15,0-.86,4.12-1.65,4.54-3.88-.5-4.61-.5-3.38.17-3.38.17Z"/><path class="cls-12" d="M25.1,153.91c-.67,5.83-1.17,8.08-2.58,8.24a18.43,18.43,0,0,1-11.84-1.9c-6.16-3-7.41-25.42-3.41-33.25s9-1.91,6.72,7.67c0,0,0,.75,0,1.91h0c.11,3.53.7,10.83,3.58,12.33a6.54,6.54,0,0,0,1.5.56C22.47,150.32,25.68,148.83,25.1,153.91Z"/><rect class="cls-12" x="19.1" y="129" width="8.05" height="2.11" rx="0.92"/><polygon class="cls-36" points="45.03 132 44.04 127.56 47.09 132 45.03 132"/><polygon class="cls-33" points="29.88 217.63 31.43 186.81 33.57 240.76 29.88 217.63"/><path class="cls-33" d="M199.39,129.93l8.45,9.59c-.68,4.58-2,17.83-2,17.83,1.27,1.68,4.37,1.21,4.37,1.21a44,44,0,0,0,3-19.9c-.6-6.2-8.55-18.39-14.2-21.84a11.38,11.38,0,0,0-3-1.26l-1.12-.12,4,14.74Z"/><path class="cls-40" d="M199.39,129.93l8.45,9.59c-.68,4.58-2,17.83-2,17.83,1.27,1.68,4.37,1.21,4.37,1.21a44,44,0,0,0,3-19.9c-.6-6.2-8.55-18.39-14.2-21.84a11.38,11.38,0,0,0-3-1.26l-1.12-.12,4,14.74Z"/><path class="cls-41" d="M206.28,158.43l-2.05,2.19a.79.79,0,0,0-.15.25l-1.2,3.39a.66.66,0,0,0,0,.55l.58,1.2a.76.76,0,0,0,.5.39l4.16.85a.72.72,0,0,0,.85-.58l.81-4.45a.82.82,0,0,0,0-.27l-.56-2.86a.73.73,0,0,0-.58-.57l-1.74-.31A.72.72,0,0,0,206.28,158.43Z"/><polygon class="cls-33" points="204.51 157.92 211.04 160.88 211.12 157.72 205.11 155.41 204.51 157.92"/><polygon class="cls-42" points="204.51 157.92 211.04 160.88 211.12 157.72 205.11 155.41 204.51 157.92"/><path class="cls-8" d="M207,169.59c3.89,13.91,2.24,34.41,4.38,48.16,1.47,9.47,11.51,40.64,11.51,40.64l-8.86,2.69S203,233.63,200.86,225.44c-3.47-13.28-8.7-38.47-8.7-38.47s-1.95-7.14-1.07-7.92S207,169.59,207,169.59Z"/><path class="cls-43" d="M197.29,179.13l-6.41,2.08,2.4,11.27S192.09,181.7,197.29,179.13Z"/><polygon class="cls-41" points="221.15 257.99 222.74 263.03 218.44 264.96 216.31 259.61 221.15 257.99"/><polygon class="cls-44" points="222.09 260.98 217.56 262.73 216.95 261.21 221.72 259.8 222.09 260.98"/><polygon class="cls-8" points="222.84 255.64 212 258.6 213.96 262.09 223.45 259.3 222.84 255.64"/><polygon class="cls-45" points="222.84 255.64 212 258.6 213.96 262.09 223.45 259.3 222.84 255.64"/><path class="cls-6" d="M216,266.39a2.3,2.3,0,0,1-1.64.2.48.48,0,0,1-.2-.52.66.66,0,0,1,.27-.43c.76-.57,2.92-.25,3-.23a.11.11,0,0,1,.11.1.12.12,0,0,1-.06.13A8.32,8.32,0,0,1,216,266.39Zm-1.19-.67a.94.94,0,0,0-.22.12.38.38,0,0,0-.17.26c0,.19,0,.25.08.28.36.23,1.64-.26,2.54-.75A6,6,0,0,0,214.84,265.72Z"/><path class="cls-6" d="M217.5,265.65a0,0,0,0,1-.05,0c-.71,0-2.36-.65-2.47-1.26,0-.14,0-.35.31-.51a1,1,0,0,1,.75-.06c.85.28,1.52,1.59,1.55,1.65a.11.11,0,0,1-.09.17Zm-2-1.57-.07,0c-.21.1-.19.19-.19.22.11.36,1.24.91,2,1a3,3,0,0,0-1.28-1.29.69.69,0,0,0-.47,0Z"/><path class="cls-6" d="M217.76,264.73l5.53-2.16a.49.49,0,0,1,.57.17l2.76,4.11a.8.8,0,0,1-.21,1.1l-.15.08c-2,.75-3.82,1.33-6.3,2.31-2.92,1.15-2,1.2-5.46,2.6-2.07.84-3.37-1.37-2.54-1.83,3.83-2.08,3.77-3.46,4.76-5.51A2,2,0,0,1,217.76,264.73Z"/><polygon class="cls-41" points="181.75 262.09 181.64 266.94 176.96 267.39 176.68 262.09 181.75 262.09"/><polygon class="cls-44" points="176.79 264.34 176.73 263.07 181.72 263.28 181.69 264.76 176.79 264.34"/><path class="cls-8" d="M207,169.59c-1.47-7-7.33-13.2-7.33-13.2l-22.47,1.44s-1.42,14.45-1.75,19.28c-.67,9.75-3.4,24.89-3.47,34.67-.1,13.22,2.93,48.34,2.93,48.34l8.49,1s-.12-32.47,1.27-44.72c1-9.28,7.39-34.7,7.39-34.7S209.5,181.33,207,169.59Z"/><polygon class="cls-8" points="184.9 259.73 173.68 259.04 174.41 262.98 184.29 263.39 184.9 259.73"/><polygon class="cls-45" points="184.9 259.73 173.68 259.04 174.41 262.98 184.29 263.39 184.9 259.73"/><path class="cls-6" d="M174.28,268a2.31,2.31,0,0,1-1.61-.35.48.48,0,0,1,0-.56.66.66,0,0,1,.39-.32c.9-.28,2.84.72,2.92.77a.12.12,0,0,1,.07.13.14.14,0,0,1-.1.11A10.19,10.19,0,0,1,174.28,268Zm-.9-1a.73.73,0,0,0-.25,0,.35.35,0,0,0-.24.19c-.09.16,0,.24,0,.28.27.34,1.64.3,2.65.13A6.16,6.16,0,0,0,173.38,266.93Z"/><path class="cls-6" d="M175.92,267.73h0c-.66-.27-2-1.39-1.92-2,0-.15.11-.33.46-.38a.92.92,0,0,1,.72.19,3.65,3.65,0,0,1,.93,2.07.11.11,0,0,1-.05.12A.14.14,0,0,1,175.92,267.73Zm-1.42-2.15h-.07c-.23,0-.24.12-.25.15,0,.37.87,1.26,1.56,1.63a3,3,0,0,0-.78-1.63.64.64,0,0,0-.46-.15Z"/><path class="cls-6" d="M176.46,267l5.94-.24a.48.48,0,0,1,.48.36l1.26,4.78a.8.8,0,0,1-.56,1,.47.47,0,0,1-.17,0c-2.14,0-4,0-6.7.12-3.14.12-2.33.46-6,.66-2.23.12-2.73-2.39-1.79-2.55,4.29-.72,4.69-2,6.29-3.65A1.93,1.93,0,0,1,176.46,267Z"/><path class="cls-41" d="M183.5,109.9c.39,1.25,1.37,3.36,0,5.24l6.76-.65s-.73-5-1.15-6.6c-.27-1.06-.62-2.2-4.17-1.2C182.9,107.25,183.23,109.06,183.5,109.9Z"/><path class="cls-41" d="M189.59,108.05c3.72-2.87,11.58-10.65,4-17.44-6.28-5.66-12-2.35-14,1.47-2.2,4.28-7.19,15.72,3.89,17.82A7.74,7.74,0,0,0,189.59,108.05Z"/><path class="cls-46" d="M194.9,114.71s-5.21-4.58-15.11,1.46l.14,1.42,14.88-1.44Z"/><path class="cls-47" d="M194.9,114.71s-5.21-4.58-15.11,1.46l.14,1.42,14.88-1.44Z"/><path class="cls-48" d="M184.92,108.55a3.2,3.2,0,0,1-1,2.72,9.1,9.1,0,0,0-.4-1.37C184.83,109.31,184.92,108.55,184.92,108.55Z"/><path class="cls-33" d="M181,116a63,63,0,0,1,6.49-1c3.84-.45,6.77-.75,8.89.18,3.37,1.49,3.8,2.45,3.8,2.45l-.67,10.93a97.34,97.34,0,0,0-.28,15.88s.26,10.42,5.86,16a18.25,18.25,0,0,1-8,3.75l-3.16-7.56-1,8s-11.39,3.37-20.79.26c0,0,5.15-8.22,3.49-16.62-.8-4-1.38-5.94-1.83-9.13a17.3,17.3,0,0,1,0-5.17l2.11-14.42S179.57,116.3,181,116Z"/><path class="cls-40" d="M181,116a63,63,0,0,1,6.49-1c3.84-.45,6.77-.75,8.89.18,3.37,1.49,3.8,2.45,3.8,2.45l-.67,10.93a97.34,97.34,0,0,0-.28,15.88s.26,10.42,5.86,16a18.25,18.25,0,0,1-8,3.75l-3.16-7.56-1,8s-11.39,3.37-20.79.26c0,0,5.15-8.22,3.49-16.62-.8-4-1.38-5.94-1.83-9.13a17.3,17.3,0,0,1,0-5.17l2.11-14.42S179.57,116.3,181,116Z"/><path class="cls-33" d="M174.41,143.11c-.27-1.46-.51-2.84-.68-4.06a17.3,17.3,0,0,1,0-5.17l3-3.39S173.86,134.57,174.41,143.11Z"/><path class="cls-41" d="M147.41,127.54l-2.08-5.94a.55.55,0,0,0-.24-.28l-3.28-1.67a.5.5,0,0,0-.55.07l-2.33,2.06a.47.47,0,0,0-.07.66l2.41,3.17a.75.75,0,0,1,.07.12c.18.48,1.43,3.44,4.08,4.19l.09,0,.89.48a.5.5,0,0,0,.63-.15l1.14-1.58a.5.5,0,0,0-.2-.74l-.3-.13A.5.5,0,0,1,147.41,127.54Z"/><path class="cls-33" d="M181,116a16.85,16.85,0,0,0-9.78,6.69,68.26,68.26,0,0,1-9.91,10.14s-7.65-1.62-12.47-5.8L146,131.25s11.62,8.76,16.34,8.3c4-.39,11.4-5.64,11.4-5.64l3-3.41Z"/><path class="cls-40" d="M181,116a16.85,16.85,0,0,0-9.78,6.69,68.26,68.26,0,0,1-9.91,10.14s-7.65-1.62-12.47-5.8L146,131.25s11.62,8.76,16.34,8.3c4-.39,11.4-5.64,11.4-5.64l3-3.41Z"/><polygon class="cls-46" points="148.57 126.49 144.33 131.76 147.17 132.51 150.56 127.56 148.57 126.49"/><polygon class="cls-47" points="148.57 126.49 144.33 131.76 147.17 132.51 150.56 127.56 148.57 126.49"/><path class="cls-8" d="M187.7,113.5c3.18.33,12.59.51,11.45-6.37s.41-10.3-2.51-15.15-9-6.27-14.47-4.83c-4.56,1.19-4.93,4.38-3.69,6.3s1.79,2.27,1.57,3.63a3.78,3.78,0,0,0,1,2.77,3.72,3.72,0,0,0,1.45,1.05,8.37,8.37,0,0,1-.24,4C181.57,107.44,180.22,112.73,187.7,113.5Z"/><path class="cls-8" d="M183.47,87.2a12.72,12.72,0,0,0-4.4,1.26,4.07,4.07,0,0,0-2.4,2.64c-.36,1.83,1.05,3.55,2.17,4.81.18.2-.16.44-.34.24-2-2.22-3.52-5.34-.6-7.47a11.81,11.81,0,0,1,5.53-1.9c.26,0,.3.39,0,.42Z"/><path class="cls-8" d="M196.6,91.94c2.1,2.72,2.19,6.27,2.62,9.51.29,2.29,2.87,6.75,1.05,8.91a.21.21,0,0,1-.33-.26c1.25-1.47,0-3.64-.43-5.17a28.53,28.53,0,0,1-.81-4.58c-.28-2.78-.67-5.87-2.44-8.16-.16-.21.17-.46.34-.25Z"/><path class="cls-41" d="M179.91,100.34c-.43,1.27,0,2.56.9,2.87s2-.48,2.45-1.75,0-2.56-.91-2.87S180.33,99.06,179.91,100.34Z"/></g></svg>