<svg xmlns="http://www.w3.org/2000/svg" xmlns:xlink="http://www.w3.org/1999/xlink" viewBox="0 0 1080 1080"><defs><style>.cls-1{isolation:isolate;}.cls-2{fill:#ccd9f0;}.cls-3{fill:#fff;}.cls-4{fill:#e87e2e;}.cls-5{fill:url(#linear-gradient);}.cls-6{fill:url(#linear-gradient-2);}.cls-7{fill:url(#linear-gradient-3);}.cls-8{fill:url(#linear-gradient-4);}.cls-9{fill:url(#linear-gradient-5);}.cls-10{fill:url(#linear-gradient-6);}.cls-11,.cls-12{mix-blend-mode:multiply;}.cls-11{fill:url(#radial-gradient);}.cls-12{fill:url(#linear-gradient-7);}.cls-13{fill:url(#linear-gradient-8);}.cls-14{fill:url(#linear-gradient-9);}.cls-15{fill:#c2c1c1;}.cls-16{fill:url(#linear-gradient-10);}</style><linearGradient id="linear-gradient" x1="586.9" y1="218.22" x2="748.18" y2="287.34" gradientUnits="userSpaceOnUse"><stop offset="0.04" stop-color="#bed630"/><stop offset="1" stop-color="#8ac640"/></linearGradient><linearGradient id="linear-gradient-2" x1="214.09" y1="551.91" x2="262.73" y2="365.02" gradientUnits="userSpaceOnUse"><stop offset="0" stop-color="#f47421"/><stop offset="1" stop-color="#fbad18"/></linearGradient><linearGradient id="linear-gradient-3" x1="330.93" y1="289.47" x2="497.34" y2="212.67" gradientUnits="userSpaceOnUse"><stop offset="0" stop-color="#fab816"/><stop offset="1" stop-color="#fde900"/></linearGradient><linearGradient id="linear-gradient-4" x1="352.44" y1="821.41" x2="229.56" y2="614.05" gradientUnits="userSpaceOnUse"><stop offset="0" stop-color="#df222e"/><stop offset="1" stop-color="#f05144"/></linearGradient><linearGradient id="linear-gradient-5" x1="869.69" y1="544.02" x2="805.69" y2="364.82" gradientUnits="userSpaceOnUse"><stop offset="0.09" stop-color="#42a347"/><stop offset="1" stop-color="#6fbe44"/></linearGradient><linearGradient id="linear-gradient-6" x1="729.77" y1="805.8" x2="852.66" y2="629.16" gradientUnits="userSpaceOnUse"><stop offset="0" stop-color="#5c98d1"/><stop offset="1" stop-color="#61c6c6"/></linearGradient><radialGradient id="radial-gradient" cx="1116.65" cy="1397.67" r="624.42" gradientTransform="translate(-213.63 -403.29) scale(0.67)" gradientUnits="userSpaceOnUse"><stop offset="0.84" stop-color="#fff"/><stop offset="0.89" stop-color="#fcfcfc"/><stop offset="0.92" stop-color="#f4f4f4"/><stop offset="0.94" stop-color="#e5e5e5"/><stop offset="0.96" stop-color="#d0d0d0"/><stop offset="0.98" stop-color="#b5b5b5"/><stop offset="1" stop-color="#989898"/></radialGradient><linearGradient id="linear-gradient-7" x1="1306.55" y1="-751.25" x2="1072.35" y2="-453.83" gradientTransform="translate(124.21 -501.45) rotate(89.71)" gradientUnits="userSpaceOnUse"><stop offset="0" stop-color="#fff"/><stop offset="1" stop-color="#989898"/></linearGradient><linearGradient id="linear-gradient-8" x1="1364.15" y1="-1845.04" x2="1197.4" y2="-1845.04" gradientTransform="matrix(-0.6, 0.8, -0.8, -0.6, -32.31, -1511.95)" gradientUnits="userSpaceOnUse"><stop offset="0" stop-color="#cacaca"/><stop offset="1" stop-color="#eaeaea"/></linearGradient><linearGradient id="linear-gradient-9" x1="1307.04" y1="-1664.1" x2="1266.2" y2="-1704.94" gradientTransform="matrix(-0.6, 0.8, -0.8, -0.6, -32.31, -1511.95)" gradientUnits="userSpaceOnUse"><stop offset="0" stop-color="#fff"/><stop offset="0.42" stop-color="#ececec"/><stop offset="1" stop-color="#cacaca"/></linearGradient><linearGradient id="linear-gradient-10" x1="1240.93" y1="-669.18" x2="1209.43" y2="-692.35" gradientTransform="translate(124.21 -501.45) rotate(89.71)" gradientUnits="userSpaceOnUse"><stop offset="0" stop-color="#a72123"/><stop offset="1" stop-color="#ee2f24"/></linearGradient></defs><title>big icons 3d</title><g class="cls-1"><g id="Layer_1" data-name="Layer 1"><circle class="cls-2" cx="540" cy="540" r="527.81"/><circle class="cls-3" cx="540" cy="540" r="453.2"/><circle class="cls-2" cx="540" cy="540" r="444.91" transform="translate(-223.68 540) rotate(-45)"/><circle class="cls-4" cx="540" cy="532.2" r="198.71"/><circle class="cls-4" cx="540" cy="532.2" r="195.94" transform="translate(-218.16 537.71) rotate(-45)"/><path class="cls-5" d="M711.09,378.86,841.42,276c8.89-7.2,10-20.07,2.1-28.32A420.17,420.17,0,0,0,568.31,119.54c-11.43-.75-20.71,8.41-20.71,19.86l-2.11,163c0,8.27,6.71,15.08,14.94,15.86a213.79,213.79,0,0,1,128.63,59.23C695,383.26,704.66,384.06,711.09,378.86Z"/><path class="cls-6" d="M362.38,411.53c4.64-6.84,3.62-16.3-2.81-21.51L225.69,291.47A19.71,19.71,0,0,0,197.11,295a421.81,421.81,0,0,0-75.6,294.75c1.34,11.36,12,18.58,23.2,16.2l168.49-39c8.09-1.72,13.59-9.74,12.94-18q-.69-8.49-.69-17.16A213.35,213.35,0,0,1,362.38,411.53Z"/><path class="cls-7" d="M532,302.48l-3.07-163c0-11.45-9.28-20.54-20.7-19.69a420.2,420.2,0,0,0-272.82,129c-7.91,8.27-6.74,21.16,2.15,28.36L368.21,379.68c6.42,5.2,16.05,4.38,22-1.4a213.74,213.74,0,0,1,126.91-59.76C525.31,317.64,532,310.75,532,302.48Z"/><path class="cls-8" d="M315.64,580.2,148.2,624.26c-11.19,2.38-18.38,13.4-15.43,24.46a422.15,422.15,0,0,0,184,248.73c9.7,6.08,22.05,2.3,27.24-7.9l81.7-158.78c3.76-7.37,1-16.66-5.88-21.3a214.87,214.87,0,0,1-85.86-117.88C331.64,583.65,323.73,578.48,315.64,580.2Z"/><path class="cls-9" d="M853.37,290.3,719.76,389.17c-6.43,5.2-7.42,14.64-2.75,21.46A213.4,213.4,0,0,1,754.55,531.8q0,8.85-.71,17.52c-.67,8.24,4.83,16.26,12.92,18l168.45,39.12c11.19,2.38,21.87-4.83,23.23-16.2a424.73,424.73,0,0,0,3-50.22A419.43,419.43,0,0,0,882,293.77,19.8,19.8,0,0,0,853.37,290.3Z"/><path class="cls-10" d="M653,731.54l81.17,159c5.2,10.2,17.56,14,27.3,8A422.18,422.18,0,0,0,947.1,649.19c3-11.05-4.21-22.07-15.41-24.45l-167.41-44.2c-8.09-1.71-16,3.46-18.32,11.4a215,215,0,0,1-87,118.39C652,714.92,649.23,724.17,653,731.54Z"/><path class="cls-11" d="M540,118.58c-232.74,0-421.42,188.68-421.42,421.42S307.26,961.42,540,961.42,961.42,772.74,961.42,540,772.74,118.58,540,118.58Zm0,778.94c-197.45,0-357.52-160.07-357.52-357.52S342.55,182.48,540,182.48,897.52,342.55,897.52,540,737.45,897.52,540,897.52Z"/><path class="cls-12" d="M573.36,482.77c27.56,21.29,276,277,270,286.14-5.79,8.73-310.51-162.13-338.08-183.42S470.58,524,489.39,495.58,545.79,461.48,573.36,482.77Z"/><path class="cls-13" d="M587.86,475.9c27.75,20.7,275.31,269.5,268.62,278.48-6.37,8.54-315.81-157.28-343.56-178A62.69,62.69,0,1,1,587.86,475.9Z"/><path class="cls-14" d="M568.55,501.79A30.39,30.39,0,1,1,526,508,30.38,30.38,0,0,1,568.55,501.79Z"/><circle class="cls-15" cx="550.39" cy="526.16" r="16.81" transform="translate(-204.04 423.2) rotate(-35.94)"/><path class="cls-16" d="M856.48,754.38c2.52-3.38-31-40.73-75.21-87.09L751,706.62C808.4,735.94,854.07,757.6,856.48,754.38Z"/></g></g></svg>