<svg xmlns="http://www.w3.org/2000/svg" xmlns:xlink="http://www.w3.org/1999/xlink" viewBox="0 0 1080 1080"><defs><style>.cls-1{fill:none;}.cls-2{isolation:isolate;}.cls-3{clip-path:url(#clip-path);}.cls-4{fill:#ccd9f0;}.cls-5,.cls-6,.cls-7,.cls-8{mix-blend-mode:multiply;}.cls-5{fill:url(#linear-gradient);}.cls-6{fill:url(#linear-gradient-2);}.cls-7{fill:url(#linear-gradient-3);}.cls-8{fill:url(#linear-gradient-4);}.cls-9{fill:#3f60a4;}.cls-10{fill:#1f3668;}.cls-11{fill:#2b488c;}.cls-12{fill:#98c6ea;}.cls-13{fill:#c66e33;}.cls-14{fill:#e87e2e;}.cls-15{fill:#f89748;}.cls-16{fill:#d67029;}</style><clipPath id="clip-path"><circle class="cls-1" cx="540" cy="540" r="530.81"/></clipPath><linearGradient id="linear-gradient" x1="26.22" y1="682.5" x2="324.41" y2="682.5" gradientUnits="userSpaceOnUse"><stop offset="0" stop-color="#fff"/><stop offset="0.24" stop-color="#fbfbfb"/><stop offset="0.49" stop-color="#eee"/><stop offset="0.75" stop-color="#d9d9d9"/><stop offset="1" stop-color="#bdbdbd"/></linearGradient><linearGradient id="linear-gradient-2" x1="212.74" y1="771.35" x2="473.5" y2="771.35" xlink:href="#linear-gradient"/><linearGradient id="linear-gradient-3" x1="381.7" y1="853.77" x2="618.51" y2="853.77" xlink:href="#linear-gradient"/><linearGradient id="linear-gradient-4" x1="569.54" y1="935.91" x2="758.6" y2="935.91" xlink:href="#linear-gradient"/></defs><title>big icons 3d</title><g class="cls-2"><g id="Layer_1" data-name="Layer 1"><g class="cls-3"><rect class="cls-4" x="-243.03" y="-103.16" width="1983.37" height="1249.64"/><polygon class="cls-5" points="324.41 719.69 96.39 708.92 26.22 658.23 133.81 645.32 324.4 651.49 324.41 719.69"/><polygon class="cls-6" points="473.5 807.88 282.9 798.41 212.74 747.72 320.32 734.81 473.5 739.69 473.5 807.88"/><polygon class="cls-7" points="618.51 890.96 451.87 880.19 381.7 829.5 489.29 816.59 618.51 822.76 618.51 890.96"/><polygon class="cls-8" points="758.6 972.16 639.71 963.26 569.54 912.57 677.13 899.66 758.6 903.96 758.6 972.16"/><polygon class="cls-9" points="324.41 188.13 237.36 137.88 324.4 87.62 411.45 137.88 324.41 188.13"/><polygon class="cls-10" points="237.36 137.88 324.41 188.13 324.41 719.69 237.36 669.43 237.36 137.88"/><polygon class="cls-11" points="411.45 137.88 411.45 669.43 324.41 719.69 324.41 188.13 411.45 137.88"/><polygon class="cls-9" points="473.94 401.02 386.88 350.76 473.94 300.5 560.99 350.76 473.94 401.02"/><polygon class="cls-10" points="386.88 350.76 473.94 401.02 473.94 807.88 386.88 757.63 386.88 350.76"/><polygon class="cls-11" points="560.99 350.76 560.99 757.63 473.94 807.88 473.94 401.02 560.99 350.76"/><polygon class="cls-9" points="618.51 577.15 531.46 526.89 618.51 476.63 705.56 526.89 618.51 577.15"/><polygon class="cls-10" points="531.46 526.89 618.51 577.15 618.51 890.96 531.46 840.7 531.46 526.89"/><polygon class="cls-11" points="705.56 526.89 705.56 840.7 618.51 890.96 618.51 577.15 705.56 526.89"/><polygon class="cls-9" points="758.6 798.41 671.55 748.15 758.6 697.89 845.65 748.15 758.6 798.41"/><polygon class="cls-10" points="671.55 748.15 758.6 798.41 758.6 972.16 671.55 921.9 671.55 748.15"/><polygon class="cls-11" points="845.65 748.15 845.65 921.9 758.6 972.16 758.6 798.41 845.65 748.15"/><polygon class="cls-12" points="1009.3 703.32 845.05 631.55 986.61 530.06 1009.3 703.32"/><polygon class="cls-13" points="972.19 720.03 1009.3 703.32 986.61 530.06 949.5 546.76 972.19 720.03"/><polygon class="cls-12" points="237.83 -14.75 616.84 423.33 725.39 385.92 936.37 636.09 954.47 621.17 751.49 289.58 639.92 312.13 384.63 1.78 237.83 -14.75"/><polygon class="cls-14" points="185.75 -20.62 590.29 446.98 698.84 409.57 909.82 659.73 927.91 644.82 724.93 313.23 613.36 335.77 333.92 -3.93 185.75 -20.62"/><polygon class="cls-13" points="724.93 313.23 751.49 289.58 954.47 621.17 927.91 644.82 724.93 313.23"/><polygon class="cls-15" points="639.92 312.13 613.36 335.77 724.93 313.23 751.49 289.58 639.92 312.13"/><polygon class="cls-16" points="972.19 720.03 807.95 648.26 949.5 546.76 972.19 720.03"/><polygon class="cls-15" points="333.92 -3.93 384.63 1.78 639.92 312.13 613.36 335.77 333.92 -3.93"/></g></g></g></svg>