<svg xmlns="http://www.w3.org/2000/svg" xmlns:xlink="http://www.w3.org/1999/xlink" viewBox="0 0 1080 1080"><defs><style>.cls-1{fill:none;}.cls-2{isolation:isolate;}.cls-3{clip-path:url(#clip-path);}.cls-4{fill:#ccd9f0;}.cls-5{fill:#3f60a4;}.cls-6{mix-blend-mode:multiply;fill:url(#linear-gradient);}.cls-7{fill:#1f3668;}.cls-8{fill:#2b488c;}.cls-9{fill:#c66e33;}.cls-10{fill:#d77d39;}.cls-11{fill:#f89748;}.cls-12{fill:#d67029;}.cls-13{fill:#e87e2e;}</style><clipPath id="clip-path"><circle class="cls-1" cx="540" cy="540" r="526.97"/></clipPath><linearGradient id="linear-gradient" x1="412.95" y1="1224.69" x2="345.38" y2="919.12" gradientUnits="userSpaceOnUse"><stop offset="0" stop-color="#fff"/><stop offset="0.24" stop-color="#fbfbfb"/><stop offset="0.49" stop-color="#eee"/><stop offset="0.75" stop-color="#d9d9d9"/><stop offset="1" stop-color="#bdbdbd"/></linearGradient></defs><title>big icons 3d</title><g class="cls-2"><g id="Layer_1" data-name="Layer 1"><g class="cls-3"><rect class="cls-4" x="-60.41" y="-66.36" width="1274.25" height="1220.66"/><polygon class="cls-5" points="745.04 406.23 681.53 391.95 750.96 386.68 818.16 399.95 745.04 406.23"/><polygon class="cls-6" points="219.81 897.73 -72.72 1148.09 688.26 1148.09 788.28 802.33 738.21 752.91 219.81 897.73"/><polygon class="cls-7" points="722.2 822.03 666.91 777.95 681.53 391.95 745.04 406.23 722.2 822.03"/><polygon class="cls-8" points="818.16 399.95 788.28 802.33 722.2 822.03 745.04 406.23 818.16 399.95"/><polygon class="cls-8" points="710.23 484.01 694.08 830.41 621.12 852.16 630.04 493.95 710.23 484.01"/><polygon class="cls-7" points="621.12 852.16 571.16 803.61 574.36 471.6 630.04 493.95 621.12 852.16"/><polygon class="cls-7" points="508.96 885.6 465.77 831.84 460.05 570.67 506.4 603.47 508.96 885.6"/><polygon class="cls-8" points="594.22 588.76 589.99 861.44 508.96 885.6 506.4 603.47 594.22 588.76"/><polygon class="cls-7" points="383.86 922.89 349.29 863.04 337.52 658.15 373.26 701.21 383.86 922.89"/><polygon class="cls-8" points="470.11 681.81 474.33 895.92 383.86 922.89 373.26 701.21 470.11 681.81"/><polygon class="cls-7" points="243.4 964.76 219.81 897.73 203.94 735.25 227.13 788.62 243.4 964.76"/><polygon class="cls-8" points="334.87 764.48 345.07 934.45 243.4 964.76 227.13 788.62 334.87 764.48"/><polygon class="cls-5" points="506.4 603.47 460.05 570.67 542.05 558.44 594.22 588.76 506.4 603.47"/><polygon class="cls-5" points="630.04 493.95 574.36 471.6 649.87 463.3 710.23 484.01 630.04 493.95"/><polygon class="cls-5" points="373.26 701.21 337.52 658.15 427.12 642.13 470.11 681.81 373.26 701.21"/><polygon class="cls-5" points="227.13 788.62 203.94 735.25 302.62 715.48 334.87 764.48 227.13 788.62"/><polygon class="cls-9" points="836.75 355.5 767.84 345.8 740.85 310.31 809.19 317.06 836.75 355.5"/><polygon class="cls-10" points="696.71 349.53 634.91 339.63 703.68 261.42 771.04 263.83 696.71 349.53"/><polygon class="cls-11" points="736.33 215.4 670.05 217.2 800.1 188.64 874.1 184.35 736.33 215.4"/><polygon class="cls-9" points="771.04 263.83 703.68 261.42 670.05 217.2 736.33 215.4 771.04 263.83"/><polygon class="cls-11" points="506.25 360.01 457.09 348.25 634.91 339.63 696.71 349.53 506.25 360.01"/><polygon class="cls-11" points="292.49 638.66 262.79 599.5 457.09 348.25 506.25 360.01 292.49 638.66"/><polygon class="cls-12" points="874.1 184.35 836.75 355.5 809.19 317.06 714.15 435.11 535.61 452.83 331.04 723.22 214.41 747.26 205.48 653.21 292.49 638.66 506.25 360.01 696.71 349.53 771.04 263.83 736.33 215.4 874.1 184.35"/><polygon class="cls-10" points="214.41 747.26 192.12 697.16 183.53 611.3 205.48 653.21 214.41 747.26"/><polygon class="cls-11" points="205.48 653.21 183.53 611.3 262.79 599.5 292.49 638.66 205.48 653.21"/><polygon class="cls-13" points="523.73 406.95 705.52 393.73 874.1 184.35 736.33 215.4 771.04 263.83 696.71 349.53 506.25 360.01 292.49 638.66 205.48 653.21 207.13 670.63 210.54 705.74 313.65 679.46 523.73 406.95"/></g></g></g></svg>