<svg xmlns="http://www.w3.org/2000/svg" viewBox="0 0 432.94 436.94"><defs><style>.cls-1{fill:#f5f5f5;}.cls-2{fill:#fabfbf;}.cls-3{fill:#263238;}.cls-10,.cls-4,.cls-8{fill:#f79750;}.cls-5,.cls-9{opacity:0.2;}.cls-6{fill:#5274b8;}.cls-7{fill:#ce5b51;}.cls-8{opacity:0.6;}.cls-10{opacity:0.7;}.cls-11{fill:#fff;}</style></defs><title>Artboard 1 copy</title><g id="Layer_1" data-name="Layer 1"><ellipse id="_Path_" data-name="&lt;Path&gt;" class="cls-1" cx="231.51" cy="418.64" rx="205.79" ry="10.83"/><polygon class="cls-2" points="79.05 411.07 67.98 410.89 68.67 385.14 79.75 385.31 79.05 411.07"/><path class="cls-3" d="M67.85,409.61l12.1.19a.87.87,0,0,1,.86.77l1,9.9A1.8,1.8,0,0,1,80,422.42c-4.36-.14-10.64-.49-16.13-.58-6.41-.1-5.79.16-13.31,0-4.55-.07-5.29-4.69-3.33-5.08,8.89-1.77,9.78-1.86,17.81-6.37A5.5,5.5,0,0,1,67.85,409.61Z"/><path class="cls-2" d="M65.29,79.45c-2.61,8-5.39,16-8.33,23.91-1.47,4-3,7.91-4.52,11.84s-3.11,7.87-4.76,11.8c-.38,1-.89,2.07-1.36,3.13s-1,2.07-1.48,3.08-1,2-1.57,2.95-1.05,2-1.6,2.88c-2.15,3.81-4.49,7.42-6.82,11-4.73,7.16-9.76,14-15.16,20.65l-7-4.55,11.1-22.42c3.62-7.43,7.19-14.9,9.59-22.08l7.82-23.82c2.63-8,5.33-15.9,8.14-23.78Z"/><path class="cls-4" d="M72.73,74.28C70,83.21,60.64,105.5,60.64,105.5l-21.49-15S42.93,76,51.43,69.17C63.5,59.48,76.23,62.78,72.73,74.28Z"/><path class="cls-5" d="M60,81.54C52,83.45,46,91.43,47,96l13.62,9.5s2.93-11.2,8.09-18.67C65.7,83.82,62.24,81,60,81.54Z"/><path class="cls-6" d="M56.48,101.87a15.83,15.83,0,0,0,2.14-1.94s-16-11.13-20-11.24a5.14,5.14,0,0,0-1.17,3S51.4,102,56.48,101.87Z"/><path class="cls-2" d="M16.62,162.33l-10.69,6.9,8.56,9.3s8.93-4.21,7.39-12.29Z"/><path class="cls-2" d="M1.4,180l5.28,2.68a2.58,2.58,0,0,0,2.72-.26l5.09-3.91-8.56-9.3L.54,176.17A2.56,2.56,0,0,0,1.4,180Z"/><polygon class="cls-5" points="68.67 385.15 68.31 398.42 79.39 398.6 79.75 385.32 68.67 385.15"/><path class="cls-4" d="M118.78,68.78c-10.36,42.17-6.25,86.93-7,96l-59.38-1C48.5,117,52.34,86.34,54.82,72.75a11.35,11.35,0,0,1,9.94-9.23l.74-.08c1.61-.17,3.36-.31,5.18-.41,1-.06,2-.09,3.06-.11,6.7-.11,17.68.95,25.25,1.88,1.59.19,3.21.43,4.77.68s2.87.51,4.22.78C114.07,67.46,118.78,68.78,118.78,68.78Z"/><path class="cls-5" d="M106.83,86.87c-.91,4.08,1,22.7,5.45,27.29.35-6,.89-12.19,1.68-18.55Z"/><path class="cls-2" d="M97.52,36.26c-1.88,8-4,22.71,1.47,28.53-4.58,4-10.57,9.28-20.19,8.3-7.83-.8-7.73-6.87-5-10.17,9.13-1.49,9.14-8.2,7.79-14.61Z"/><path class="cls-5" d="M95.94,45.17l-6.59-2.74L86.9,44.28c.25.89-.4,4.17,0,5.13,1.12,2.73,5.67,4.16,8.6,3.69A54.15,54.15,0,0,1,95.94,45.17Z"/><path class="cls-3" d="M91.53,1.78c-4.62,3.41-4.63,3.85-9.47,2.91S63.55-1.24,67.19,10.57c-11.49.67-9.88,12.77-4.73,19.59S72.7,37.63,73.34,43.22c.75,6.58,11.87,7.85,13.43,4.16l15.88-13.55c5.27.31.18-8.28,2.8-13.21a5.54,5.54,0,0,0,.07-5,9,9,0,0,0,3.63-3.18C114.44,4.63,99-3.73,91.53,1.78Z"/><path class="cls-2" d="M73.47,25.7C74.86,36.62,75.12,43.09,81,48.3c8.89,7.85,22.11,1.82,24-9.32,1.71-10-.85-26.2-11.88-29.76A15.16,15.16,0,0,0,73.47,25.7Z"/><path class="cls-3" d="M74.57,12.75c5.76-1.27,11,5.36,7.91,10S86,33.14,79.05,36.12c-4.86,2.08-7.21-3-9.57-6.42C65.87,24.41,68.46,14.09,74.57,12.75Z"/><path class="cls-3" d="M69,11.35c7,3.77,8.73,7.46,19.16,3.88,6.16-2.12,7.73,2.73,15.64,1,1.53-9.34-9.38-11.42-14.88-10.38S69,11.35,69,11.35Z"/><path class="cls-3" d="M69,13.22a1.8,1.8,0,0,1-.6-.1C60.83,10.57,60.94,4.87,61,4.63a1.91,1.91,0,0,1,1.94-1.81,1.86,1.86,0,0,1,1.8,1.9c0,.19.13,3.24,4.87,4.85a1.88,1.88,0,0,1-.6,3.65Z"/><path class="cls-2" d="M71.71,36.32a10.57,10.57,0,0,0,5.73,4.48c2.86.78,3.54-2.35,2.12-5.51-1.29-2.85-4.32-6.68-6.89-6S69.88,33.53,71.71,36.32Z"/><path class="cls-6" d="M86.83,274c-.44-55.83,11.91-109.45,11.91-109.45l-46.3-.75s5.33,80.64,7.18,114.42c1.92,35.12,4.61,117.56,4.61,117.56l18.8.29S89.43,318.07,86.83,274Z"/><path class="cls-5" d="M88.67,195.28c-13.2,18.06-7.26,52.05-1.85,76.06,0-29.85,3.51-58.83,6.73-79Z"/><polygon class="cls-3" points="63.07 396.19 85.41 396.55 86.67 389.31 61.76 388.53 63.07 396.19"/><path class="cls-6" d="M65.83,410.6a.25.25,0,0,0,.18-.21.25.25,0,0,0-.13-.27c-.5-.27-4.93-2.6-6.29-1.87a.81.81,0,0,0-.44.69h0a1.48,1.48,0,0,0,.47,1.29c1.2,1.09,4.39.71,6.18.38Zm-5.89-1.93c.84-.28,3.24.68,5,1.55-2.46.37-4.28.23-5-.38a1,1,0,0,1-.3-.85.31.31,0,0,1,.17-.28Z"/><path class="cls-6" d="M65.83,410.6l.07,0a.27.27,0,0,0,.12-.23c0-.13-.26-3.12-1.66-4.31a1.93,1.93,0,0,0-1.45-.47h0c-.72.06-.94.43-1,.72-.22,1.25,2.39,3.69,3.72,4.32A.25.25,0,0,0,65.83,410.6Zm-3.14-4.47a.62.62,0,0,1,.27-.05h0a1.37,1.37,0,0,1,1.06.35c.92.77,1.28,2.57,1.41,3.44-1.35-.84-3.13-2.76-3-3.51C62.45,406.32,62.47,406.2,62.69,406.13Zm.24-.32h0Z"/><polygon class="cls-2" points="158.13 411.07 147 410.89 139.87 385.14 151 385.31 158.13 411.07"/><path class="cls-3" d="M146.22,409.61l12.13.19a1.06,1.06,0,0,1,1,.77l2.75,9.9a1.49,1.49,0,0,1-1.49,1.95c-4.38-.14-5.81-.49-11.31-.58-6.44-.1-3.43.16-11,0-4.56-.07-6.08-4.67-4.2-5.08,5.95-1.29,7.15-3.75,9.48-6.37A3.42,3.42,0,0,1,146.22,409.61Z"/><polygon class="cls-5" points="139.88 385.15 143.55 398.42 154.68 398.6 151.01 385.32 139.88 385.15"/><path class="cls-6" d="M130.29,274.79c-6.31-49.9-11-98.88-18.5-110l-39.24-.63s22.71,81.07,30.37,114.31c8,34.56,35.57,114.05,35.57,114.05l17.9.26S142,313.39,130.29,274.79Z"/><polygon class="cls-3" points="136.01 396.19 158.36 396.55 159.62 389.31 134.71 388.53 136.01 396.19"/><path class="cls-6" d="M146.91,410.45a.28.28,0,0,0,.24-.14.26.26,0,0,0,0-.3c-.38-.42-3.73-4.13-5.26-3.91a.84.84,0,0,0-.66.5h0a1.47,1.47,0,0,0,0,1.37c.75,1.44,3.87,2.17,5.67,2.48ZM142,406.61c.88,0,2.81,1.76,4.16,3.17-2.44-.49-4.11-1.25-4.53-2.06a1,1,0,0,1,0-.9.31.31,0,0,1,.26-.2Z"/><path class="cls-6" d="M146.91,410.45H147a.27.27,0,0,0,.19-.18c0-.12.83-3-.08-4.61a1.86,1.86,0,0,0-1.2-.94h0c-.7-.19-1,.07-1.17.33-.64,1.1,1,4.29,2,5.33A.25.25,0,0,0,146.91,410.45Zm-1.42-5.28a1,1,0,0,1,.27,0h0a1.45,1.45,0,0,1,.88.7c.59,1,.32,2.85.14,3.72-1-1.26-2-3.67-1.61-4.32C145.19,405.26,145.26,405.16,145.49,405.17Zm.34-.21h0Z"/><path class="cls-2" d="M123.48,80.8l.45,1,.54,1.16,1.12,2.36c.78,1.58,1.6,3.16,2.46,4.71,1.71,3.11,3.55,6.16,5.52,9.1a97.91,97.91,0,0,0,6.29,8.48c1.09,1.39,2.31,2.62,3.45,4l1.82,1.86.92.93.11.12h0s-.06,0-.1,0-.32,0-.28,0,.27.11.67.08a11,11,0,0,0,3.44-1,48.73,48.73,0,0,0,8.55-5.26,191,191,0,0,0,16.75-14.47L181.68,99a110.89,110.89,0,0,1-7,9.75,99.19,99.19,0,0,1-8.1,9.05,54.78,54.78,0,0,1-10.18,8.1,25.69,25.69,0,0,1-7.31,3,16.33,16.33,0,0,1-5.06.36,14.36,14.36,0,0,1-5.72-1.78c-.43-.27-.88-.53-1.28-.83l-.6-.45-.29-.24-.15-.12-1.2-1-2.4-2.07c-1.51-1.44-3.08-2.86-4.48-4.41a91.06,91.06,0,0,1-8-9.59,97.71,97.71,0,0,1-6.71-10.42c-1-1.8-2-3.64-2.88-5.51-.44-.94-.9-1.87-1.32-2.85l-.62-1.48-.65-1.64Z"/><path class="cls-4" d="M118.78,68.78c10.25,3.17,15,26.11,15,26.11l-15.67,13.77A64.31,64.31,0,0,1,104.18,87C98.89,72.78,106.36,64.94,118.78,68.78Z"/><path class="cls-6" d="M134.55,95.31a15.15,15.15,0,0,0-1.11-2.67s-15.84,11.3-17.3,15a5.17,5.17,0,0,0,2.43,2.12S133,100.13,134.55,95.31Z"/><path class="cls-2" d="M173.25,96.23l6-9.5,8.92,10.1s-6.47,7.94-11.25,5.18Z"/><path class="cls-2" d="M190.61,84.07l2.53,4.06a3.89,3.89,0,0,1-.74,5l-4.23,3.71-8.92-10.1,5.93-3.87A3.89,3.89,0,0,1,190.61,84.07Z"/><path class="cls-3" d="M366.75,19.44c-10.38-4.58-22.39-7.16-28.42,2.68-3.94,6.44-5.91,19.57-12.86,26.65a5.62,5.62,0,0,0-1.91,4.14,2.51,2.51,0,0,0,0,.3c.12,3.95,3.3,9.26,11.46,11.2a13.73,13.73,0,0,1-4.08-4.06,27.23,27.23,0,0,0,10.65,2.25c9.61-.11,17,.62,21.43,2.91s12.43-7.68,12.06-12.26c1.75,2.61,3.83,0,4.56-6.34C381.48,30.71,376.19,17.38,366.75,19.44Z"/><path class="cls-6" d="M343.1,70.36A8.42,8.42,0,1,1,351.52,62,8.42,8.42,0,0,1,343.1,70.36Zm0-16.2A7.79,7.79,0,1,0,350.89,62,7.8,7.8,0,0,0,343.1,54.16Z"/><path class="cls-7" d="M334.4,99.6a171.82,171.82,0,0,1-10.73,18.26,103.59,103.59,0,0,1-6.39,8.7,46.79,46.79,0,0,1-8.33,8.23,11.9,11.9,0,0,1-1.89,1.17,10.05,10.05,0,0,1-7.83.5,16.18,16.18,0,0,1-6.21-4.24,31.8,31.8,0,0,1-3.68-4.72c-1-1.59-2-3.18-2.82-4.79a104.05,104.05,0,0,1-7.73-19.85l5.62-2.11a166,166,0,0,0,10,17.25,38,38,0,0,0,5.76,6.93,5.82,5.82,0,0,0,2.29,1.4c.16,0,0-.09-.17-.06s-.16,0-.17,0-.08,0,.24-.23a40.79,40.79,0,0,0,5.83-6.63c1.89-2.56,3.71-5.3,5.48-8.09s3.44-5.67,5.12-8.56,3.31-5.87,4.86-8.7Z"/><path class="cls-4" d="M330.84,82.7c-5-.18-14,18.18-14,18.18l9.6,21.5s18.86-24.79,16.75-31C341,84.9,338.2,83,330.84,82.7Z"/><path class="cls-8" d="M330.84,82.7c-5-.18-14,18.18-14,18.18l9.6,21.5s18.86-24.79,16.75-31C341,84.9,338.2,83,330.84,82.7Z"/><path class="cls-7" d="M283.58,92.12l1.49,13.29-3.49,2.45c-4.8-1.11-6.8-8.46-6.8-8.46l-2.16-4.73a5.47,5.47,0,0,1,1.12-6.16l1-1a4.37,4.37,0,0,1,6.7.55l1.41,2A4.33,4.33,0,0,1,283.58,92.12Z"/><polygon class="cls-7" points="355.23 412.38 343.37 412.38 342.29 384.9 354.15 384.9 355.23 412.38"/><path class="cls-3" d="M342.26,411h13.33a.83.83,0,0,1,.87.81l.45,10.55a2.15,2.15,0,0,1-2.11,2.11c-4.64-.08-6.85-.35-12.72-.35-3.6,0-11.9.37-16.88.37s-4.75-4.92-2.63-5.37c9.5-2,14.24-4.76,17.64-7.39A3.42,3.42,0,0,1,342.26,411Z"/><g class="cls-9"><polygon points="342.29 384.91 342.84 399.07 354.71 399.07 354.16 384.91 342.29 384.91"/></g><path class="cls-4" d="M326.08,88.58c-.26,7.5,1,25,8.93,65.8L383.17,153c-1.3-18.22-1.72-29.95,4.82-64.14a7.82,7.82,0,0,0-6.76-9.24c-3.54-.41-7.85-.79-12.2-.87-8.11-.15-14.76-.21-21.86.65-5.58.67-11.59,1.83-15.54,2.66A7,7,0,0,0,326.08,88.58Z"/><path class="cls-10" d="M326.08,88.58c-.26,7.5,1,25,8.93,65.8L383.17,153c-1.3-18.22-1.72-29.95,4.82-64.14a7.82,7.82,0,0,0-6.76-9.24c-3.54-.41-7.85-.79-12.2-.87-8.11-.15-14.76-.21-21.86.65-5.58.67-11.59,1.83-15.54,2.66A7,7,0,0,0,326.08,88.58Z"/><path class="cls-7" d="M366.14,54.14C365,61.21,364,74.15,369,78.7c0,0-4.68,8.76-16.7,11.92-11.09-5.63-5.16-11.27-5.16-11.27,7.79-2.11,7.41-7.93,5.88-13.35Z"/><polygon class="cls-6" points="352.33 90.62 353.77 87.8 361.48 89.55 352.33 90.62"/><path class="cls-11" d="M353.77,87.8c2.47-1.12,13.94-8.59,14.39-10.92,2,0,6.5,1.73,6.5,1.73S372.6,87.8,361.48,94.1A12.23,12.23,0,0,0,353.77,87.8Z"/><polygon class="cls-6" points="352.33 90.62 351.69 87.8 346.96 88.14 352.33 90.62"/><path class="cls-11" d="M351.69,87.8c-3.83-2.53-2.42-7.84-2-10.16A20.58,20.58,0,0,0,344,79s-5.8,5.32-.17,15.08A17.82,17.82,0,0,1,351.69,87.8Z"/><path class="cls-5" d="M360.8,59l-7.74,7a23.42,23.42,0,0,1,.79,3.86c3-.52,7-3.93,7.23-7.08A10.47,10.47,0,0,0,360.8,59Z"/><path class="cls-7" d="M369.87,39.11c-.52,11.76-.49,16.75-6.32,22.88-8.77,9.23-23.1,6-26.11-5.66-2.7-10.52-1.4-28,10-32.86A16.06,16.06,0,0,1,369.87,39.11Z"/><path class="cls-3" d="M361.48,26.67c-4,6.63-9.58-1.8-14.05,3.24-3.59,4-9.47-.21-12.91,11.32,1.18-9.91,2.85-18.66,13-21.56C353.77,17.86,365.71,17.18,361.48,26.67Z"/><path class="cls-3" d="M363.5,22.12c-3.47,2.4-7,5.87-6.59,10.09s6.49,2.39,7.3,5.36-3.62,9.22,2.82,9.83c7.35-4.09,9.42-5,8.07-11.3S369.11,21.25,363.5,22.12Z"/><path class="cls-6" d="M334.9,154.38S330.24,242,330,278.06c-.25,37.47,10.31,118.27,10.31,118.27h16s-3.05-81.69-.59-118.65c2.69-40.3,12.07-124.35,12.07-124.35Z"/><polygon class="cls-3" points="357.68 396.9 338.86 396.9 338.08 390.9 359.24 390.17 357.68 396.9"/><path class="cls-5" d="M364.43,184.81c-1.72-2.16-4-1-7,5.12-10.13,21-5,54.55-.65,73.87C358.76,239.75,362,208.07,364.43,184.81Z"/><path class="cls-7" d="M373.22,50.18a8.6,8.6,0,0,1-4.79,4.49c-2.83,1-4.49-1.43-3.91-4.22.53-2.52,2.63-6.1,5.57-5.94S374.35,47.63,373.22,50.18Z"/><path class="cls-6" d="M368.25,70.36A8.42,8.42,0,1,1,376.66,62,8.42,8.42,0,0,1,368.25,70.36Zm0-16.2A7.79,7.79,0,1,0,376,62,7.79,7.79,0,0,0,368.25,54.16Z"/><path class="cls-7" d="M395.35,93.81c2.17,6.19,4.07,12.36,5.79,18.68.88,3.15,1.71,6.32,2.41,9.58.36,1.63.7,3.28,1,5a46.43,46.43,0,0,1,.64,5.52l0,.82,0,1c0,.57-.08.91-.13,1.38-.08.89-.2,1.71-.31,2.54-.23,1.67-.5,3.29-.77,4.9-.54,3.22-1.19,6.41-1.83,9.58-1.32,6.35-2.81,12.63-4.54,18.89l-5.93-1c.35-6.43.83-12.85,1.35-19.23l.77-9.52c.12-1.58.23-3.15.31-4.69,0-.76.1-1.54.11-2.25,0-.34,0-.79,0-1l0-.25,0-.39a35.8,35.8,0,0,0-.78-4c-.33-1.45-.72-2.94-1.13-4.42-.84-3-1.72-6-2.64-9l-5.76-18.12Z"/><path class="cls-4" d="M381.23,79.57c15.79,2,18.92,21.25,21.16,26.1l-15.49,13s-9.81-16.5-11.24-22.91C374.18,89.09,375.52,78.86,381.23,79.57Z"/><path class="cls-10" d="M381.23,79.57c15.79,2,18.92,21.25,21.16,26.1l-15.49,13s-9.81-16.5-11.24-22.91C374.18,89.09,375.52,78.86,381.23,79.57Z"/><path class="cls-6" d="M337.6,413.08a4.17,4.17,0,0,1-2.8-.73,1.44,1.44,0,0,1-.37-1.37,1,1,0,0,1,.55-.75c1.53-.79,6,1.62,6.53,1.9a.26.26,0,0,1,.12.29.31.31,0,0,1-.25.23A20.93,20.93,0,0,1,337.6,413.08Zm-1.86-2.46a1.21,1.21,0,0,0-.54.1.42.42,0,0,0-.22.31.94.94,0,0,0,.24.9c.65.65,2.59.76,5.26.32A13.92,13.92,0,0,0,335.74,410.62Z"/><path class="cls-6" d="M341.32,412.66a.23.23,0,0,1-.11,0c-1.35-.64-3.89-3.19-3.53-4.54.08-.32.35-.71,1.13-.79a1.88,1.88,0,0,1,1.51.48c1.36,1.25,1.32,4.44,1.31,4.57a.31.31,0,0,1-.14.26A.34.34,0,0,1,341.32,412.66ZM339,407.85h-.17c-.52.05-.57.25-.59.32-.21.81,1.48,2.82,2.84,3.7-.05-.93-.25-2.85-1.14-3.66A1.35,1.35,0,0,0,339,407.85Z"/><polygon class="cls-7" points="427.17 407.89 415.57 410.4 405.91 384.38 417.51 381.87 427.17 407.89"/><path class="cls-3" d="M414.85,409.15l13-2.82a1,1,0,0,1,1.11.59l3.84,10a1.88,1.88,0,0,1-1.39,2.46c-4.56.9-6.81,1.11-12.54,2.35-3.52.76-9.76,3.15-14.72,2.8s-4.95-5.28-2.86-5.58c9.39-1.35,9.29-5.41,11.76-8.63A3.05,3.05,0,0,1,414.85,409.15Z"/><path class="cls-6" d="M413.43,411.58a4.47,4.47,0,0,1-3-.11,1.59,1.59,0,0,1-.8-1.22.9.9,0,0,1,.3-.83c1.24-1.09,6.41.27,7,.43a.28.28,0,0,1,.21.25.28.28,0,0,1-.17.28A21,21,0,0,1,413.43,411.58Zm-2.62-1.95a1.24,1.24,0,0,0-.49.21.37.37,0,0,0-.11.34,1,1,0,0,0,.52.81c.85.48,2.78.17,5.25-.81A15.57,15.57,0,0,0,410.81,409.63Z"/><path class="cls-6" d="M416.93,410.39h-.12c-1.52-.32-4.83-2.22-4.91-3.58,0-.32.11-.76.85-1a2,2,0,0,1,1.63.15c1.74.89,2.72,4,2.76,4.08a.27.27,0,0,1-.06.27A.28.28,0,0,1,416.93,410.39Zm-3.84-4.09-.16.05c-.49.15-.48.36-.47.43.05.81,2.36,2.38,4,2.92-.34-.88-1.16-2.66-2.3-3.25A1.56,1.56,0,0,0,413.09,406.3Z"/><g class="cls-9"><polygon points="405.92 384.38 410.89 397.8 422.49 395.29 417.52 381.88 405.92 384.38"/></g><path class="cls-6" d="M383.17,153c11.55,18.37,8.33,85.92,10.15,122,10.86,32,30,117.38,30,117.38l-15.68,3.38s-34.59-84.75-41.77-120.95C358,234.78,348.32,153,348.32,153Z"/><polygon class="cls-3" points="424.5 392.64 406.1 396.62 404.18 390.89 424.71 385.7 424.5 392.64"/><path class="cls-3" d="M383.8,150.1l1.36,4.28c.18.33-.2.68-.76.7l-49.57,1.47c-.43,0-.8-.19-.83-.46l-.57-4.3c0-.3.33-.56.81-.57L383,149.77A.84.84,0,0,1,383.8,150.1Z"/><path class="cls-6" d="M377.42,155.75l1.3,0c.26,0,.46-.14.43-.31l-.77-5.58c0-.16-.26-.29-.52-.28l-1.31,0c-.26,0-.45.15-.43.32l.78,5.58C376.93,155.63,377.16,155.76,377.42,155.75Z"/><path class="cls-6" d="M338.52,156.91l1.3,0c.26,0,.46-.15.43-.31l-.77-5.58c0-.17-.26-.29-.52-.29l-1.3,0c-.26,0-.46.15-.44.31l.78,5.59C338,156.79,338.26,156.92,338.52,156.91Z"/><path class="cls-6" d="M358,156.33l1.3,0c.26,0,.46-.15.43-.31l-.77-5.58c0-.17-.26-.29-.52-.29l-1.31,0c-.26,0-.45.15-.43.31l.78,5.59C357.48,156.21,357.71,156.34,358,156.33Z"/><path class="cls-7" d="M392.48,168.69l-8.69,9.42,12,.54c0,.14,3.92-6.39,1.47-10.76Z"/><path class="cls-7" d="M386.93,188l3.5,0a3.61,3.61,0,0,0,3.42-2.59l2-6.74-12-.54-.49,6A3.61,3.61,0,0,0,386.93,188Z"/><path class="cls-6" d="M321,111.4a63.3,63.3,0,0,0-44.92-18.61H249v6.09A63.5,63.5,0,0,0,231.2,111.4a63.31,63.31,0,0,0-45.4-18.6H158.65v6.33a63.52,63.52,0,0,0-17.28,102.1l62.38,62.39h-.29v27.44h19.7a19.41,19.41,0,0,0,13.73-5.68L321,201.22A63.52,63.52,0,0,0,321,111.4Z"/><path class="cls-5" d="M321,111.4a63.3,63.3,0,0,0-44.92-18.61H249v6.09A63.5,63.5,0,0,0,231.2,111.4a63.31,63.31,0,0,0-45.4-18.6H158.65v6.33a63.52,63.52,0,0,0-17.28,102.1l62.38,62.39h-.29v27.44h19.7a19.41,19.41,0,0,0,13.73-5.68L321,201.22A63.52,63.52,0,0,0,321,111.4Z"/><path class="cls-6" d="M293.29,111.4a63.51,63.51,0,0,0-89.83,0,63.52,63.52,0,0,0-89.83,89.82l89.83,89.83,89.83-89.83A63.52,63.52,0,0,0,293.29,111.4Z"/><rect class="cls-6" x="169.11" y="252.99" width="1.29" height="19.63" transform="translate(-136.11 197.01) rotate(-45)"/><rect class="cls-6" x="184.7" y="273.91" width="1.29" height="8.96" transform="translate(-142.57 212.61) rotate(-45)"/><path class="cls-5" d="M293.29,111.4a63.51,63.51,0,0,0-89.83,0,63.52,63.52,0,0,0-89.83,89.82l89.83,89.83,89.83-89.83A63.52,63.52,0,0,0,293.29,111.4Z"/><path class="cls-6" d="M122.9,192a50.41,50.41,0,0,1,71.29-71.3l9.27,9.27,9.27-9.27A50.41,50.41,0,1,1,284,192l-80.56,80.56Z"/><path class="cls-4" d="M138,147.63h22.15v5.82h-7.43v17.76h-7.29V153.45H138Z"/><path class="cls-4" d="M163.46,147.63h7.29v8.25h8v-8.25H186v23.58h-7.32v-9.54h-8v9.54h-7.29Z"/><path class="cls-4" d="M205.37,167.32h-8.28L196,171.21h-7.44l8.86-23.58h7.95l8.86,23.58h-7.63Zm-1.51-5.1-2.61-8.48-2.57,8.48Z"/><path class="cls-4" d="M216.54,147.63h6.8l8.88,13.05V147.63h6.87v23.58h-6.87l-8.83-13v13h-6.85Z"/><path class="cls-4" d="M244,147.63h7.29v8.91l7.63-8.91h9.69l-8.61,8.9,9,14.68h-9l-5-9.7-3.76,4v5.75H244Z"/><path class="cls-4" d="M163.87,187.16H172l4.75,8,4.76-8h8.05l-9.17,13.7v9.88h-7.3v-9.88Z"/><path class="cls-4" d="M189,199q0-5.78,3.22-9t9-3.21q5.88,0,9.07,3.16t3.18,8.85a14.47,14.47,0,0,1-1.39,6.78,10,10,0,0,1-4,4.12,13.28,13.28,0,0,1-6.55,1.47,15.16,15.16,0,0,1-6.6-1.27,9.92,9.92,0,0,1-4.24-4A13.31,13.31,0,0,1,189,199Zm7.29,0q0,3.57,1.33,5.13a5,5,0,0,0,7.24,0q1.29-1.53,1.29-5.49,0-3.33-1.35-4.86a4.55,4.55,0,0,0-3.64-1.54,4.43,4.43,0,0,0-3.54,1.56Q196.26,195.39,196.26,199Z"/><path class="cls-4" d="M232.67,187.16h7.27v14.05a11.93,11.93,0,0,1-.65,3.94,8.57,8.57,0,0,1-2,3.25,8.18,8.18,0,0,1-2.92,1.95,14.61,14.61,0,0,1-5.1.79,32.31,32.31,0,0,1-3.76-.24,9.76,9.76,0,0,1-3.4-1,8.6,8.6,0,0,1-2.5-2,7.61,7.61,0,0,1-1.55-2.72,14.12,14.12,0,0,1-.68-4V187.16h7.27v14.38a4.1,4.1,0,0,0,1.07,3,4.6,4.6,0,0,0,5.92,0,4.1,4.1,0,0,0,1.07-3Z"/></g></svg>